<svg width="68" height="88" viewBox="0 0 68 88" fill="none" xmlns="http://www.w3.org/2000/svg">
<g id="GDPR compliant - GDPR Copy 5" filter="url(#filter0_d)">
<g id="Rectangle ">
<rect x="4" y="2" width="60" height="80" rx="6" fill="#2050E0"/>
<rect x="4" y="2" width="60" height="80" rx="6" stroke="#E7E7E7"/>
</g>
<g id="Lock">
<path id="Shape" fill-rule="evenodd" clip-rule="evenodd" d="M37.4898 25.8896H38.0408C38.6492 25.8896 39.1429 26.4 39.1429 27.0292V31.5876C39.1429 32.2168 38.6492 32.7273 38.0408 32.7273H29.9592C29.3508 32.7273 28.8571 32.2168 28.8571 31.5876V27.0292C28.8571 26.4 29.3508 25.8896 29.9592 25.8896H30.5102V24.1802C30.5102 22.1906 32.076 20.5714 34 20.5714C35.924 20.5714 37.4898 22.1906 37.4898 24.1802V25.8896ZM32.3469 24.1802V25.8896H35.6531V24.1802C35.6531 23.2376 34.9115 22.4708 34 22.4708C33.0885 22.4708 32.3469 23.2376 32.3469 24.1802Z" fill="white"/>
<g id="Group">
<path id="Shape_2" d="M34.0001 9L34.5832 10.8874H36.4706L34.9438 12.0538L35.5269 13.9412L34.0001 12.774L32.4735 13.9412L33.0568 12.0538L31.5294 10.8874H33.4168L34.0001 9Z" fill="#F8D12E"/>
<path id="Shape_3" d="M34.0001 40.0588L34.5832 41.9468H36.4706L34.9438 43.113L35.5269 45L34.0001 43.8339L32.4735 45L33.0568 43.113L31.5294 41.9468H33.4168L34.0001 40.0588Z" fill="#F8D12E"/>
<path id="Shape_4" d="M41.7647 11.8235L42.3476 13.7108H44.2353L42.7081 14.8777L43.2915 16.7647L41.7647 15.5978L40.2376 16.7647L40.8209 14.8777L39.2941 13.7108H41.1818L41.7647 11.8235Z" fill="#F8D12E"/>
<path id="Shape_5" d="M48.0423 32.1428L48.6252 34.0308H50.5126L48.9856 35.1972L49.5692 37.084L48.0423 35.9181L46.5152 37.084L47.0985 35.1972L45.5714 34.0308H47.459L48.0423 32.1428Z" fill="#F8D12E"/>
<path id="Shape_6" d="M49.5296 24.5294L50.1124 26.4166H52L50.473 27.583L51.0562 29.4706L49.5296 28.3047L48.0026 29.4706L48.5862 27.583L47.0588 26.4166H48.946L49.5296 24.5294Z" fill="#F8D12E"/>
<path id="Shape_7" d="M18.4709 24.5294L19.0539 26.4166H20.9412L19.4141 27.583L19.9977 29.4706L18.4709 28.3047L16.9438 29.4706L17.5271 27.583L16 26.4166H17.8876L18.4709 24.5294Z" fill="#F8D12E"/>
<path id="Shape_8" d="M19.7567 32.1428L20.3396 34.0308H22.2269L20.7002 35.1972L21.283 37.084L19.7567 35.9181L18.2296 37.084L18.8128 35.1972L17.2857 34.0308H19.1734L19.7567 32.1428Z" fill="#F8D12E"/>
<path id="Shape_9" d="M48.0423 16.7142L48.6252 18.6022H50.5126L48.9856 19.7686L49.5692 21.6554L48.0423 20.4895L46.5152 21.6554L47.0985 19.7686L45.5714 18.6022H47.459L48.0423 16.7142Z" fill="#F8D12E"/>
<path id="Shape_10" d="M20.3995 16.7142L20.9824 18.6022H22.8697L21.3431 19.7686L21.9259 21.6554L20.3995 20.4895L18.8724 21.6554L19.4557 19.7686L17.9286 18.6022H19.8163L20.3995 16.7142Z" fill="#F8D12E"/>
<path id="Shape_11" d="M43.1766 38.6471L43.7595 40.5342H45.6471L44.1197 41.7012L44.7033 43.5883L43.1766 42.422L41.6493 43.5883L42.2329 41.7012L40.7059 40.5342H42.5934L43.1766 38.6471Z" fill="#F8D12E"/>
<path id="Shape_12" d="M26.2353 11.8235L26.8182 13.7108H28.7059L27.1788 14.8777L27.7624 16.7647L26.2353 15.5978L24.7086 16.7647L25.2918 14.8777L23.7647 13.7108H25.652L26.2353 11.8235Z" fill="#F8D12E"/>
<path id="Shape_13" d="M24.8234 38.6471L25.4066 40.5352H27.2941L25.7672 41.7011L26.3503 43.5883L24.8234 42.4227L23.2967 43.5883L23.8799 41.7011L22.3529 40.5352H24.2401L24.8234 38.6471Z" fill="#F8D12E"/>
</g>
</g>
<path id="GDPR" fill-rule="evenodd" clip-rule="evenodd" d="M20 57.5C20 59.6507 21.6474 61 23.6711 61C24.9525 61 25.9389 60.4826 26.6711 59.6812V57.0333H23.3966V58.4841H24.9525V59.0522C24.6779 59.2754 24.2 59.458 23.6711 59.458C22.5627 59.458 21.7796 58.6058 21.7796 57.5C21.7796 56.3942 22.5627 55.542 23.6711 55.542C24.3118 55.542 24.8305 55.8971 25.105 56.3435L26.5694 55.5725C26.0711 54.7304 25.1559 54 23.6711 54C21.6474 54 20 55.3493 20 57.5ZM27.6982 60.8783V54.1116H30.5457C32.6812 54.1116 34.2168 55.3899 34.2168 57.4899C34.2168 59.5899 32.6812 60.8783 30.5558 60.8783H27.6982ZM29.4474 59.3565H30.5457C31.7355 59.3565 32.427 58.4942 32.427 57.4899C32.427 56.4449 31.7965 55.6333 30.5558 55.6333H29.4474V59.3565ZM35.0914 60.8783V54.1116H38.4879C40.0134 54.1116 40.8472 55.1362 40.8472 56.3638C40.8472 57.5812 40.0134 58.5855 38.4879 58.5855H36.8405V60.8783H35.0914ZM39.0676 56.3536C39.0676 55.887 38.7218 55.5826 38.254 55.5826H36.8405V57.1043H38.254C38.7218 57.1043 39.0676 56.8101 39.0676 56.3536ZM45.4133 60.8783L44.2743 58.5855H43.3794V60.8783H41.6303V54.1116H45.0269C46.5319 54.1116 47.3862 55.1058 47.3862 56.3638C47.3862 57.5406 46.6641 58.1696 46.0336 58.3928L47.4167 60.8783H45.4133ZM45.6065 56.3435C45.6065 55.8768 45.2201 55.5826 44.7625 55.5826H43.3794V57.1043H44.7625C45.2201 57.1043 45.6065 56.8101 45.6065 56.3435Z" fill="white"/>
<path id="Compliant" d="M14.7679 67.445H15.9079C15.8729 67.135 15.7879 66.86 15.6529 66.62C15.5179 66.38 15.3454 66.18 15.1354 66.02C14.9304 65.855 14.6954 65.73 14.4304 65.645C14.1704 65.56 13.8929 65.5175 13.5979 65.5175C13.1879 65.5175 12.8179 65.59 12.4879 65.735C12.1629 65.88 11.8879 66.08 11.6629 66.335C11.4379 66.59 11.2654 66.89 11.1454 67.235C11.0254 67.575 10.9654 67.945 10.9654 68.345C10.9654 68.735 11.0254 69.1 11.1454 69.44C11.2654 69.775 11.4379 70.0675 11.6629 70.3175C11.8879 70.5675 12.1629 70.765 12.4879 70.91C12.8179 71.05 13.1879 71.12 13.5979 71.12C13.9279 71.12 14.2304 71.07 14.5054 70.97C14.7804 70.87 15.0204 70.725 15.2254 70.535C15.4304 70.345 15.5954 70.115 15.7204 69.845C15.8454 69.575 15.9229 69.2725 15.9529 68.9375H14.8129C14.7679 69.2975 14.6429 69.5875 14.4379 69.8075C14.2379 70.0275 13.9579 70.1375 13.5979 70.1375C13.3329 70.1375 13.1079 70.0875 12.9229 69.9875C12.7379 69.8825 12.5879 69.745 12.4729 69.575C12.3579 69.405 12.2729 69.215 12.2179 69.005C12.1679 68.79 12.1429 68.57 12.1429 68.345C12.1429 68.11 12.1679 67.8825 12.2179 67.6625C12.2729 67.4425 12.3579 67.2475 12.4729 67.0775C12.5879 66.9025 12.7379 66.765 12.9229 66.665C13.1079 66.56 13.3329 66.5075 13.5979 66.5075C13.7429 66.5075 13.8804 66.5325 14.0104 66.5825C14.1454 66.6275 14.2654 66.6925 14.3704 66.7775C14.4754 66.8625 14.5629 66.9625 14.6329 67.0775C14.7029 67.1875 14.7479 67.31 14.7679 67.445ZM17.8895 68.345C17.8895 68.11 17.9145 67.8825 17.9645 67.6625C18.0195 67.4425 18.1045 67.2475 18.2195 67.0775C18.3345 66.9025 18.4845 66.765 18.6695 66.665C18.8545 66.56 19.0795 66.5075 19.3445 66.5075C19.6095 66.5075 19.8345 66.56 20.0195 66.665C20.2045 66.765 20.3545 66.9025 20.4695 67.0775C20.5845 67.2475 20.667 67.4425 20.717 67.6625C20.772 67.8825 20.7995 68.11 20.7995 68.345C20.7995 68.57 20.772 68.79 20.717 69.005C20.667 69.215 20.5845 69.405 20.4695 69.575C20.3545 69.745 20.2045 69.8825 20.0195 69.9875C19.8345 70.0875 19.6095 70.1375 19.3445 70.1375C19.0795 70.1375 18.8545 70.0875 18.6695 69.9875C18.4845 69.8825 18.3345 69.745 18.2195 69.575C18.1045 69.405 18.0195 69.215 17.9645 69.005C17.9145 68.79 17.8895 68.57 17.8895 68.345ZM16.712 68.345C16.712 68.735 16.772 69.1 16.892 69.44C17.012 69.775 17.1845 70.0675 17.4095 70.3175C17.6345 70.5675 17.9095 70.765 18.2345 70.91C18.5645 71.05 18.9345 71.12 19.3445 71.12C19.7595 71.12 20.1295 71.05 20.4545 70.91C20.7795 70.765 21.0545 70.5675 21.2795 70.3175C21.5045 70.0675 21.677 69.775 21.797 69.44C21.917 69.1 21.977 68.735 21.977 68.345C21.977 67.945 21.917 67.575 21.797 67.235C21.677 66.89 21.5045 66.59 21.2795 66.335C21.0545 66.08 20.7795 65.88 20.4545 65.735C20.1295 65.59 19.7595 65.5175 19.3445 65.5175C18.9345 65.5175 18.5645 65.59 18.2345 65.735C17.9095 65.88 17.6345 66.08 17.4095 66.335C17.1845 66.59 17.012 66.89 16.892 67.235C16.772 67.575 16.712 67.945 16.712 68.345ZM22.9694 65.645V71H24.0719V67.2425H24.0869L25.3994 71H26.3069L27.6194 67.205H27.6344V71H28.7369V65.645H27.0794L25.8944 69.3275H25.8794L24.6269 65.645H22.9694ZM31.1386 68.165V66.56H32.0536C32.1886 66.56 32.3186 66.57 32.4436 66.59C32.5686 66.61 32.6786 66.65 32.7736 66.71C32.8686 66.765 32.9436 66.845 32.9986 66.95C33.0586 67.055 33.0886 67.1925 33.0886 67.3625C33.0886 67.5325 33.0586 67.67 32.9986 67.775C32.9436 67.88 32.8686 67.9625 32.7736 68.0225C32.6786 68.0775 32.5686 68.115 32.4436 68.135C32.3186 68.155 32.1886 68.165 32.0536 68.165H31.1386ZM29.9611 65.645V71H31.1386V69.08H32.3761C32.7111 69.08 32.9961 69.0325 33.2311 68.9375C33.4661 68.8375 33.6561 68.7075 33.8011 68.5475C33.9511 68.3875 34.0586 68.205 34.1236 68C34.1936 67.79 34.2286 67.5775 34.2286 67.3625C34.2286 67.1425 34.1936 66.93 34.1236 66.725C34.0586 66.52 33.9511 66.3375 33.8011 66.1775C33.6561 66.0175 33.4661 65.89 33.2311 65.795C32.9961 65.695 32.7111 65.645 32.3761 65.645H29.9611ZM35.151 65.645V71H38.9385V70.01H36.3285V65.645H35.151ZM39.7843 65.645V71H40.9618V65.645H39.7843ZM43.5338 68.93L44.2313 66.965H44.2463L44.9213 68.93H43.5338ZM43.6463 65.645L41.6213 71H42.8063L43.2263 69.8075H45.2288L45.6338 71H46.8563L44.8538 65.645H43.6463ZM47.5055 65.645V71H48.608V67.415H48.623L50.8505 71H52.028V65.645H50.9255V69.2375H50.9105L48.6755 65.645H47.5055ZM54.4371 66.635V71H55.6146V66.635H57.2196V65.645H52.8321V66.635H54.4371Z" fill="white"/>
</g>
<defs>
<filter id="filter0_d" x="0" y="0" width="68" height="88" filterUnits="userSpaceOnUse" color-interpolation-filters="sRGB">
<feFlood flood-opacity="0" result="BackgroundImageFix"/>
<feColorMatrix in="SourceAlpha" type="matrix" values="0 0 0 0 0 0 0 0 0 0 0 0 0 0 0 0 0 0 127 0"/>
<feOffset dy="2"/>
<feGaussianBlur stdDeviation="2"/>
<feColorMatrix type="matrix" values="0 0 0 0 0.847059 0 0 0 0 0.866667 0 0 0 0 0.890196 0 0 0 1 0"/>
<feBlend mode="normal" in2="BackgroundImageFix" result="effect1_dropShadow"/>
<feBlend mode="normal" in="SourceGraphic" in2="effect1_dropShadow" result="shape"/>
</filter>
</defs>
</svg>
