<svg xmlns="http://www.w3.org/2000/svg" width="73" height="11"><defs><linearGradient id="a" x1="8.923%" x2="91.871%" y1="50%" y2="50%"><stop offset="0%" stop-color="#7CB7FF"/><stop offset="100%" stop-color="#BA6DF6"/></linearGradient></defs><g fill="none"><path fill="#17054B" d="M15.5 2.325h1.373v4.087h2.228v1.17h-3.6V2.325zm3.766 0h4.507v1.132h-1.575v4.125h-1.372V3.457h-1.56V2.325zm7.567-.038c1.628 0 2.843 1.14 2.843 2.663 0 1.537-1.215 2.692-2.843 2.692-1.627 0-2.842-1.155-2.842-2.692 0-1.53 1.215-2.663 2.842-2.663zm.015 1.17c-.787 0-1.447.645-1.447 1.5s.667 1.515 1.447 1.515c.788 0 1.418-.66 1.418-1.515 0-.855-.63-1.5-1.418-1.5zm5.76-1.132h1.208L36.2 5.49V2.325h1.275v5.257h-1.2l-2.385-3.15v3.15h-1.283V2.325zm5.895 0h4.148V3.42h-2.775v.982h2.505V5.49l-2.505.007v.99h2.85v1.095h-4.223V2.325zm4.605 0h4.508v1.132H46.04v4.125h-1.373V3.457h-1.56V2.325zm4.538 0h1.477l.998 3.802.99-3.802h1.342l.998 3.802.99-3.802h1.41l-1.733 5.257h-1.417l-.945-3.547-.975 3.547h-1.41l-1.725-5.257zm11.167-.038c1.628 0 2.843 1.14 2.843 2.663 0 1.537-1.215 2.692-2.843 2.692-1.627 0-2.842-1.155-2.842-2.692 0-1.53 1.215-2.663 2.842-2.663zm.015 1.17c-.787 0-1.447.645-1.447 1.5s.667 1.515 1.447 1.515c.788 0 1.418-.66 1.418-1.515 0-.855-.63-1.5-1.418-1.5zm8.22 4.125h-1.552l-.765-1.455h-1.02v1.455h-1.373V2.325h2.363c1.395 0 2.19.675 2.19 1.845 0 .795-.33 1.38-.938 1.695l1.095 1.717zM63.711 3.42v1.612h.997c.555 0 .878-.285.878-.817 0-.518-.323-.795-.878-.795h-.997zm9.112 4.162h-1.642L69.816 5.55l-.675.75v1.282h-1.373V2.325h1.373V4.53l1.972-2.205h1.59L70.753 4.5l2.07 3.082z"/><path fill="url(#a)" d="M7.121.096L5.993 1.224l.229.229a.329.329 0 00.465 0L7.815.325 7.586.096a.328.328 0 00-.465 0zm-2.853 0L4.04.325l1.128 1.128a.329.329 0 00.465 0l.228-.229L4.733.096a.328.328 0 00-.465 0zm3.916 1.476L6.052 3.703l.432.432a.622.622 0 00.878 0l2.132-2.131-.432-.432a.62.62 0 00-.878 0zm-5.392 0l-.431.432 2.131 2.13a.622.622 0 00.879 0l.431-.43-2.131-2.132a.62.62 0 00-.879 0zm2.903-.05l-.229.23.461.46.461-.46-.228-.23a.328.328 0 00-.465 0zm3.982 2.125L6.135 7.19l.717.717a1.033 1.033 0 001.46 0l3.542-3.542-.717-.717a1.03 1.03 0 00-1.46 0zm-8.96 0L0 4.364l3.542 3.542a1.033 1.033 0 001.46 0l.718-.717-3.543-3.542a1.03 1.03 0 00-1.46 0zm4.77.62l-.43.432.87.871.871-.87-.431-.432a.62.62 0 00-.88 0zm-.29 3.86l-.717.717 1.447 1.447 1.447-1.447-.717-.717a1.03 1.03 0 00-1.46 0z"/></g></svg>