<svg width="233" height="227" viewBox="0 0 233 227" fill="none" xmlns="http://www.w3.org/2000/svg">
<path d="M35 83.987L36 84.0131L35 83.987Z" fill="white"/>
<path d="M70.9325 16L70 17C70.7035 16.8421 71.1836 16.5489 70.9325 16Z" fill="white"/>
<path fill-rule="evenodd" clip-rule="evenodd" d="M217.06 178.768C221.43 178.957 225.137 179.117 227.259 178.392C233.483 176.262 233.45 182.387 232.593 182.854C232.14 183.108 231.408 183.54 230.474 184.091C224.484 187.628 210.159 196.085 207.422 194.134C201.93 190.219 203.929 195.185 204.676 197.042C204.806 197.364 204.898 197.592 204.907 197.665C205.087 199.218 197.336 202.792 195.539 203.379C194.761 203.634 190.108 196.757 186.848 191.938L186.848 191.938L186.848 191.938C185.39 189.783 184.21 188.039 183.78 187.53C183.746 187.501 184.112 187.247 184.648 186.897C184.437 186.604 184.204 186.278 183.958 185.933L183.957 185.931L183.956 185.93L183.956 185.93C183.335 185.058 182.629 184.069 181.971 183.204L179.61 184.453C179.61 184.453 179.072 183.83 178.141 182.743L151.062 147.523H150.205L150.639 197.452C150.67 201.585 153.308 205.245 157.216 206.577L161.755 208.12C164.124 209.067 167.307 210.15 171.847 211.696L171.848 211.696L171.878 211.707C178.444 213.938 174.92 218.244 173.855 218.244C173.027 218.247 171.414 218.343 169.351 218.464L169.35 218.465H169.35H169.349C161.112 218.951 145.711 219.86 144.574 217.04C144.361 216.513 144.157 215.769 143.961 215.057L143.961 215.057L143.961 215.057C143.707 214.13 143.467 213.257 143.242 212.984C142.773 212.421 142.365 212.374 142.013 212.639C141.16 213.278 140.631 215.731 140.356 217.005C140.269 217.41 140.207 217.695 140.169 217.766C139.383 219.224 130.291 218.581 128.339 218.222C127.486 218.066 127.584 209.701 127.652 203.872V203.872C127.682 201.29 127.706 199.206 127.64 198.553C127.633 198.495 128.77 198.421 130.072 198.349C130.07 197.404 130.101 196.309 130.137 195.331C128.195 195.499 126.928 195.592 126.928 195.549C126.928 179.858 126.644 162.912 124.233 147.534H1.81853V142.033H77.2258C49.6395 135.243 52.1674 106.984 52.1674 106.984L49.2185 94.2046C49.2185 94.2046 33.9986 94.0047 23.2054 93.883C16.2356 93.1422 9.53481 91.491 4.81955 87.8301C-5.28365 79.9891 6.74211 66.4993 16.7542 57.3743C17.9744 56.2628 20.0255 54.6891 22.3048 52.9403C24.6057 51.1749 27.1392 49.2311 29.2855 47.4041C35.7346 41.9139 42.1706 36.9777 48.4004 38.2204V38.1009C48.398 37.4715 48.9045 36.9586 49.5331 36.9538L56.0212 36.9212C56.0112 36.7427 56.0013 36.5555 55.9909 36.3608L55.9909 36.3605C55.8501 33.7014 55.6354 29.6479 53.9533 27.4616C53.4737 26.8381 52.2738 24.8718 51.8268 23.0447C51.2648 20.7525 50.7505 17.9347 50.3664 15.6317L49.6004 15.9337C49.66 15.5015 49.8888 15.1107 50.2362 14.8474C50.0755 13.8625 49.9432 13.009 49.8464 12.3846L49.8461 12.3829L49.8461 12.3826L49.8459 12.3816C49.7613 11.8354 49.7038 11.4651 49.6785 11.3364C47.0551 -2.2816 67.5479 -3.77636 69.8394 7.64294C69.8495 7.6936 69.8615 7.74618 69.8736 7.79876C69.8796 7.82512 69.8856 7.85147 69.8914 7.87758L70.0694 7.86455L69.9023 7.92973C70.326 9.94417 70.9744 12.0984 71.6092 14.2074L71.6093 14.2074L71.6093 14.2077L71.6094 14.2078C72.4637 17.0459 73.2933 19.8022 73.5174 22.0257C73.9514 26.3796 72.4086 28.8043 69.8285 31.129C68.7128 32.134 68.7559 33.4001 68.7926 34.4811L68.7935 34.5052C68.8053 34.8555 68.837 35.2057 68.869 35.5596V35.5597V35.5598C68.9072 35.983 68.946 36.4116 68.9519 36.8517L74.8367 36.8213C75.4654 36.8189 75.9777 37.3259 75.9824 37.9554V39.3133C83.9409 39.0561 94.7295 46.7668 102.621 52.4069C104.995 54.1037 107.107 55.613 108.8 56.6617C127.939 68.5133 143.73 98.93 104.352 86.0464C100.596 84.8188 99.7193 84.343 99.3613 84.1258V84.154L98.7385 83.9042C98.9664 84.4756 103.12 94.8824 106.808 103.573C121.625 103.464 136.395 103.39 143.48 103.375C152.375 103.36 157.526 104.727 159.928 108.079C164.789 114.858 173.415 129.649 180.432 142.033H197.726V147.532H183.535C188.198 155.822 191.564 161.98 191.564 161.98C195.424 169.214 197.924 174.327 197.65 174.902L194.691 176.469C194.8 176.678 194.908 176.886 195.015 177.092C195.084 177.226 195.153 177.359 195.221 177.491L195.221 177.491C195.615 178.255 195.979 178.959 196.281 179.48C199.222 178 200.466 178.202 202.122 178.47C202.911 178.598 203.794 178.741 204.998 178.724C204.862 178.555 204.751 178.278 204.623 177.957C204.492 177.629 204.343 177.256 204.13 176.908C198.837 168.258 208.507 167.326 206.3 177.601C206.277 177.705 206.255 177.799 206.235 177.884C206.205 178.013 206.179 178.121 206.157 178.209C206.467 177.329 207.584 174.815 210.143 173.512C213.691 171.7 215.051 174.598 208.107 178.292C207.936 178.384 207.772 178.49 207.617 178.609C210.877 178.5 214.119 178.641 217.06 178.768ZM45.5188 74.8139H45.5687C45.6839 74.842 45.7914 74.8954 45.8833 74.9703L44.0497 65.5781C44.0361 66.4996 39.4283 69.6945 35.9465 72.1087C34.4455 73.1495 33.1538 74.0451 32.5296 74.551L34.8275 74.6857C34.1614 74.651 33.3541 74.6292 32.4536 74.6119L32.3972 74.6597C32.3842 74.6705 32.4905 74.6857 32.6901 74.6857C32.8572 74.6988 33.0938 74.6988 33.3845 74.6988H33.7426H34.8774H36.2033H37.1038H37.6853H38.6509H39.8466H40.2328H41.0552H41.1659C42.3876 74.7118 43.5094 74.7335 44.3557 74.7683H44.6096C44.8938 74.7835 45.1325 74.7987 45.3278 74.8139H45.3799H45.4558H45.5188ZM121.846 133.853C122.048 135.78 122.497 138.198 123.116 141.27C123.15 141.438 123.183 141.608 123.216 141.778C123.232 141.863 123.249 141.948 123.265 142.033H94.288C103.319 140.499 112.912 137.212 121.846 133.853Z" fill="white"/>
<path d="M180.952 103L181.397 96.2771C182.838 96.8964 184.458 97.5114 186.291 98.1263C191.115 99.7436 199.417 101.663 200.352 101.982C205.044 103.591 198.394 95.1106 196.768 91.3837C194.033 85.1138 183.895 72.9328 182.988 64.0061C182.158 55.8563 172.144 54.4207 170.627 61.8001C169.069 63.0979 167.134 65.2491 168.42 65.2491C168.865 65.2491 169.661 65.2754 170.518 65.2491C170.518 65.2798 170.518 65.3082 170.518 65.3367C172.195 79.7805 166.587 87.4729 176.849 93.942C177.072 97.3822 177.604 102.937 177.604 102.937L176.921 93.9858C178.343 94.8557 179.83 95.618 181.37 96.2661C181.185 98.4655 181.116 100.273 180.979 102.648L180.952 103Z" fill="white"/>
<path d="M198 223H199V212C198.654 212.137 198.32 212.264 198 212.384V223Z" fill="black"/>
<path d="M97.4881 151C96.6705 151.183 95.858 151.351 95.0506 151.506C94.0287 151.7 93.0118 151.865 92 152H124C123.972 151.83 123.941 151.662 123.912 151.506C123.884 151.351 123.853 151.168 123.823 151H97.4881Z" fill="black"/>
<path d="M145.889 203L145.436 203.04L144.999 203.081C142.083 203.333 138.482 203.708 135.293 204.028L130.92 204.467L130.483 204.51L130.046 204.553C130.022 205.359 130.002 206.204 130 207L130.437 206.97L130.874 206.942L132.02 206.874C132.953 206.819 133.834 206.768 134.068 206.738C136.307 206.468 139.778 206.284 142.314 206.153C143.278 206.103 144.111 206.057 144.642 206.022L145.115 205.989L145.563 205.967L146 205.946C146 205.853 146 205.762 146 205.664C145.987 205.294 145.972 204.88 145.956 204.424C145.932 203.905 145.913 203.434 145.889 203Z" fill="black"/>
<path d="M186.931 193.314C187.676 192.864 188.38 192.439 188.558 192.317C191.94 190.003 194.343 188.523 196.186 187.596L196.591 187.395C196.731 187.326 196.866 187.264 197 187.203C196.742 186.747 196.444 186.196 196.137 185.628L195.796 185L195.393 185.214L194.988 185.427L182.817 191.61L182.407 191.823L182 192.037C182.668 192.877 183.335 193.806 183.931 194.601L184.227 195C184.336 194.93 184.45 194.848 184.608 194.759L184.993 194.519C185.465 194.199 186.094 193.81 186.931 193.314Z" fill="black"/>
<path d="M130.87 202.793L131.306 202.756L135.55 202.394C138.731 202.118 142.309 201.81 145.236 201.583L145.672 201.551L146.126 201.517C148.114 201.368 149.701 201.271 150.486 201.269C151.268 198.94 150.976 177.243 150.78 162.773C150.747 160.289 150.715 157.941 150.689 155.802C150.689 155.653 150.689 155.505 150.689 155.36C150.689 155.216 150.689 155.065 150.689 154.929V154.713C150.689 154.236 150.683 153.772 150.673 153.321C150.656 152.633 150.625 151.936 150.58 151.238L150.547 150.806C150.547 150.66 150.525 150.511 150.512 150.364C150.026 144.605 148.478 138.872 145.28 136.781C143.782 135.804 142.01 135.744 140 136.6L139.948 136.621H139.891C138.234 136.871 133.63 138.501 131.661 139.252L129.795 139.961C127.595 140.802 125.322 141.669 123 142.533C123.218 144.355 123.641 146.63 124.234 149.513C124.293 149.793 124.347 150.076 124.402 150.358C124.432 150.505 124.461 150.651 124.491 150.8L124.576 151.231C124.812 152.449 125.027 153.681 125.23 154.923L125.302 155.354L125.374 155.796C127.82 171.234 128.069 188.08 128.073 203C128.542 202.974 129.381 202.909 130.425 202.823L130.87 202.793Z" fill="black"/>
<path fill-rule="evenodd" clip-rule="evenodd" d="M57.9537 16.22C57.9262 16.2238 57.8981 16.2277 57.8694 16.2318C56.6958 16.3863 53.953 16.7517 54.266 20.2868C54.3594 21.3353 54.2573 22.0184 53.9639 22.3142C53.6205 22.6601 52.875 22.6036 51.9296 22.5318L51.3471 22.4904C50.9307 22.4603 50.5123 22.5105 50.1148 22.6384C49.9684 22.6892 49.8272 22.754 49.6932 22.832C49.5474 22.9169 49.4131 23.0199 49.2933 23.1387C49.2161 22.6443 49.1428 22.1863 49.0777 21.7791C49.0236 21.441 48.9751 21.138 48.9347 20.8785C48.8564 20.3672 48.7999 19.9996 48.776 19.8821C47.3872 12.6989 52.0969 9.11386 56.5502 8.2437C62.051 7.15599 68.4776 9.7121 69.8077 15.8576C69.6947 15.8707 69.5491 15.8837 69.36 15.8946C69.3325 15.896 69.304 15.8976 69.2747 15.8992C69.1652 15.9052 69.0429 15.912 68.9058 15.912C68.5537 15.9272 68.1082 15.9272 67.5366 15.9272H66.5477C64.1244 15.9164 59.6081 15.899 58.3041 16.1665C58.2066 16.1846 58.0881 16.2012 57.9537 16.22ZM193.873 184.961L194.268 184.743L194.659 184.537L197 183.297C196.874 182.81 196.704 182.335 196.494 181.878C196.385 181.624 196.257 181.328 196.102 180.986C194.844 178.211 191.908 172.389 185.142 160.196C184.412 158.878 183.66 157.529 182.895 156.163L182.645 155.717L182.395 155.282C181.705 154.052 181.006 152.81 180.298 151.557L180.046 151.122L179.793 150.676C174.536 141.39 168.94 131.735 164.484 124.3C164.254 123.912 164.026 123.527 163.802 123.144C162.632 121.16 161.518 119.27 159.979 117.643C159.727 117.375 159.459 117.114 159.181 116.862C156.245 114.197 151.792 112.415 143.316 112.415H143.198C136.063 112.431 121.667 112.502 107.14 112.607H106.655H106.17C99.1874 112.657 92.2109 112.718 86.0341 112.783L86.0602 112.348L86.0733 112.13H85.8798L85.8081 111.913C85.5032 111.009 85.1672 110.053 84.8167 109.056L84.8158 109.054L84.8145 109.05L84.8142 109.049L84.8141 109.049C84.6659 108.627 84.515 108.198 84.3628 107.762L84.2567 107.458L84.2566 107.458L84.2564 107.458L84.2561 107.457L84.256 107.457L84.2559 107.456C82.3263 101.937 80.1606 95.7425 78.9294 91.2529C78.6555 90.2588 77.608 87.2828 76.4843 84.1502L98.0268 92.8018C98.6614 94.392 102.374 103.659 105.779 111.713H106.264H106.749C103.682 104.497 100.328 96.1585 99.183 93.2978C99.7742 93.5915 100.991 94.0984 103.86 95.0381C121.062 100.666 126.6 97.69 128.217 94.2028C129.767 90.8635 128.285 85.5229 124.153 79.5471C120.263 73.9019 114.471 68.3916 108.676 64.8021C106.99 63.7601 104.91 62.2743 102.502 60.5536C97.4704 56.9576 91.2111 52.485 85.2604 49.7875C81.7048 48.1733 78.636 47.3619 76.0149 47.3467V46.4504C76.0089 45.5772 75.3007 44.8722 74.4283 44.871L68.9667 44.8993C68.9493 44.5948 68.9232 44.2989 68.8971 44.0096C68.8645 43.655 68.8341 43.32 68.8232 42.9828V42.961L68.8231 42.9583C68.7862 41.9062 68.748 40.8175 69.7121 39.9481C72.3528 37.5726 74.0132 35.0491 73.5481 30.4568C73.3362 28.2466 72.5354 25.5896 71.6857 22.7703L71.6203 22.5535C71.0357 20.6109 70.4337 18.6095 70.012 16.7343C69.886 16.7495 69.7382 16.7648 69.5774 16.7778C69.4999 16.7778 69.4174 16.7836 69.3295 16.7897C69.2645 16.7942 69.1965 16.799 69.1253 16.8018C68.7145 16.817 68.2016 16.8235 67.5605 16.8213H66.5694C66.376 16.8213 66.1644 16.8211 65.9383 16.8209C63.5708 16.8185 59.6234 16.8145 58.5084 17.0389C58.3671 17.0672 58.2063 17.0889 58.0194 17.1128C56.4002 17.3304 54.9767 17.7285 55.181 20.2063C55.3005 21.5855 55.1288 22.4274 54.6246 22.9386C54.0001 23.5807 53.0475 23.5089 51.9426 23.4256L51.8883 23.4215L51.7333 23.4103C51.598 23.4003 51.4602 23.3902 51.3189 23.3824C50.9673 23.3491 50.613 23.4022 50.2865 23.5368C50.1325 23.6087 49.9954 23.7125 49.8844 23.8414C49.7338 24.0245 49.6348 24.2445 49.5976 24.4788L49.5389 24.4679C49.9192 26.7238 50.4082 29.4191 50.9559 31.6272C51.4232 33.5285 52.6468 35.5429 53.1684 36.2151C54.7525 38.2746 54.9725 42.1773 55.1201 44.7965L55.1244 44.8732V44.9711L49.0955 45.0016C48.379 45.0094 47.7562 45.4957 47.5742 46.1893C41.3974 45.2583 35.0273 50.0442 28.5332 55.5719C26.3903 57.3949 23.8214 59.3658 21.5545 61.1039L21.4696 61.1691C19.1736 62.9318 17.1928 64.4525 15.9711 65.5657C4.97823 75.54 -0.22917 83.3584 0.00772758 89.4756C0.120743 92.3319 1.46171 94.7771 3.99587 96.7437C7.61453 99.5565 12.3959 101.197 17.5686 102.156C12.8306 102.639 8.16657 104.199 5.24338 107.723C1.51822 112.2 1.11397 125.705 0.461962 148.079C0.348947 151.979 0.229412 156.01 0.0837956 160.348V223H0.974878V181.887H40.602V222.983H41.4931V160.331C41.4931 159.4 41.4931 157.968 41.4605 156.163H123.431C123.416 156.06 123.4 155.959 123.383 155.857L123.383 155.857C123.375 155.81 123.367 155.763 123.36 155.717L123.347 155.635L123.333 155.549L123.328 155.515L123.312 155.413C123.305 155.368 123.298 155.324 123.29 155.282H41.4474C41.4322 154.153 41.4105 152.904 41.3822 151.557H78.0666C77.5776 151.479 77.0929 151.392 76.6147 151.292C76.3366 151.233 76.0627 151.175 75.791 151.111C75.2013 150.974 74.6218 150.825 74.0523 150.665H41.3627C41.2388 145.009 41.0062 137.841 40.5911 130.869C39.361 110.17 37.494 106.342 36.1205 105.613C35.625 104.69 33.5646 103.929 31.9128 103.45C34.6035 103.511 37.2093 103.507 39.624 103.503L40.2423 103.503H40.2426C43.6258 103.502 46.577 103.501 48.9195 103.694L50.8646 113.607L51.082 113.529C51.1489 113.507 51.2172 113.489 51.2863 113.475C51.3862 113.451 51.5275 113.42 51.7209 113.383L49.841 103.768L44.1815 74.7786C44.162 74.6045 44.0663 74.1259 43.6556 72.0876L43.1796 69.6533V69.7338C42.8275 67.9782 42.4819 66.2031 42.4798 65.9312H41.5887C41.5887 66.3663 42.0668 68.7592 42.7406 72.0637C42.884 72.762 43.0275 73.4733 43.1339 74.0063C42.9051 74.8626 38.0584 78.2217 35.338 80.1072L35.2077 80.1975L35.058 80.3013L35.0573 80.3018C33.6617 81.2698 32.4465 82.1126 31.8107 82.6209L29.8546 82.5904C25.5535 82.5339 20.2005 82.4621 18.1749 81.7594L17.8815 82.6035C20.044 83.3518 25.4775 83.4258 29.8351 83.4845C30.3522 83.4845 30.8507 83.4946 31.3271 83.5042L31.6542 83.5106C31.8194 83.5911 32.1649 83.5955 33.0452 83.6042C33.4337 83.6042 33.9047 83.6075 34.4332 83.6111L34.4362 83.6112L34.4405 83.6112L34.4465 83.6112C34.8781 83.6142 35.3478 83.6175 35.8423 83.6194C38.9024 83.6194 43.8838 83.6455 45.0248 83.7913L48.7326 102.772C46.2635 102.585 43.1825 102.591 39.6506 102.598H39.6504L39.6044 102.598L39.1363 102.598C35.1442 102.598 30.6557 102.599 26.1512 102.293C25.1536 102.171 24.1039 102.076 23.0237 102.028C16.0081 101.308 9.22717 99.6848 4.52834 96.0366C2.21153 94.2398 0.985745 92.0187 0.883597 89.4365C0.666259 83.6825 5.91713 75.8728 16.5123 66.2249C17.7078 65.1358 19.6798 63.6231 21.9652 61.8699L22.0392 61.8131C24.3147 60.0728 26.8923 58.091 29.0505 56.2528C32.7322 53.1202 37.0007 49.6395 41.0866 47.9862C43.3643 47.0726 45.479 46.7724 47.4655 47.0878L47.5329 59.7182C47.5388 60.5914 48.2471 61.2964 49.1194 61.2976L59.8689 61.241L59.795 61.2105L59.9558 60.795L60.1145 60.3774C60.3084 60.452 60.4984 60.5393 60.6866 60.6257L60.6868 60.6257L60.6877 60.6262C60.746 60.6529 60.8041 60.6796 60.8621 60.7058L61.0317 60.7885L61.3381 60.9495C61.5055 61.0387 61.6728 61.1301 61.838 61.2258L62.4661 61.5891L62.5226 61.6219C64.0025 62.4821 65.5352 63.3729 67.6039 63.3729V64.2648C65.2723 64.2648 63.5457 63.2554 62.0212 62.3642L62.0162 62.3613C61.6706 62.159 61.3338 61.9632 60.9991 61.7805C60.9608 61.7598 60.9225 61.7392 60.8842 61.7187L60.884 61.7186C60.7896 61.6679 60.695 61.6171 60.5992 61.563C60.4929 61.5029 60.3879 61.4564 60.2822 61.4095L60.2822 61.4095C60.2539 61.3969 60.2255 61.3844 60.1971 61.3715C60.1451 61.4597 60.1008 61.5521 60.0645 61.6478C59.7059 62.6137 60.1362 63.8798 61.3685 65.507C61.5641 65.5831 61.8032 65.6788 62.0923 65.7985L62.1618 65.8268L62.6487 66.0247C64.6612 66.8405 67.9191 68.0609 71.0835 68.0609H71.5486V68.9528H71.0835C68.1929 68.9528 65.2763 68.0043 63.2007 67.2125C62.879 67.0885 62.5791 66.9688 62.3009 66.8557L61.7532 66.6382L61.6533 66.5968C61.7597 66.9493 62.1031 67.3822 62.7552 68.0348C62.7747 68.0848 62.8051 68.1762 62.829 68.2523C63.1985 69.3705 64.3222 72.7707 70.2598 74.3631C71.8898 74.7981 79.1445 76.9996 80.4181 77.6588L75.8845 82.5861C75.4324 81.3309 74.9847 80.0974 74.5805 79.0032C74.687 78.7857 74.55 78.5203 74.3436 78.3506L74.2835 78.1848C73.7726 76.7744 73.3684 75.6587 73.3308 75.5225L72.8961 75.6313L72.4614 75.6727C72.4614 75.7662 72.4614 75.7836 73.5133 78.6551C73.3634 79.0097 73.5459 79.3469 73.7307 79.3382H73.7568C74.0801 80.2104 74.4371 81.2054 74.8099 82.2443L75.0754 82.9839L75.1999 83.3301L75.0043 83.5476L75.3216 83.676C76.5213 87.0109 77.7297 90.4197 78.0144 91.4596C79.2701 96.037 81.4778 102.348 83.4322 107.935L83.4652 108.03C83.9434 109.389 84.3976 110.688 84.8149 111.893C84.8649 112.043 84.917 112.191 84.967 112.328C84.9838 112.374 85.0007 112.422 85.0178 112.472L85.0489 112.562C85.0725 112.63 85.096 112.699 85.1191 112.763C75.5759 112.866 68.0734 112.981 65.6523 113.096C56.4263 113.531 52.9989 114.016 51.8448 114.232L51.6275 114.275C51.6275 114.689 51.6275 115.113 51.647 115.546C51.6731 116.559 51.7275 117.625 51.8144 118.728C52.7533 130.476 57.6586 146.428 76.7473 150.391C77.182 150.485 77.6406 150.565 78.0948 150.639C79.8839 150.92 81.6912 151.069 83.5022 151.085H84.5693C86.6451 151.053 88.7174 150.905 90.7764 150.639C100.541 149.408 111.174 145.825 120.967 142.155L121.401 141.994L121.836 141.833C123.908 141.051 125.943 140.266 127.919 139.504L127.924 139.502L128.382 139.325L130.241 138.607C131.81 138.002 136.672 136.225 138.575 135.914C139.506 135.499 140.511 135.277 141.529 135.261C142.649 135.255 143.744 135.589 144.67 136.221C147.138 137.852 148.688 141.424 149.56 145.54C149.72 146.308 149.86 147.093 149.977 147.89C150.112 148.81 150.216 149.741 150.294 150.672C150.294 150.768 150.304 150.865 150.314 150.962C150.317 150.986 150.319 151.011 150.322 151.035L150.324 151.056L150.326 151.086L150.329 151.118L150.362 151.553C150.407 152.264 150.438 152.971 150.455 153.67C150.465 154.124 150.47 154.574 150.47 155.021V155.049C150.473 155.122 150.482 155.195 150.499 155.266C150.533 155.415 150.578 155.56 150.635 155.702C150.688 155.836 150.753 155.987 150.829 156.148C151.676 157.927 153.965 161.208 157.043 165.256C157.332 165.637 157.629 166.026 157.934 166.42C161.298 170.795 165.451 175.924 169.646 180.971C169.733 181.076 169.82 181.181 169.907 181.285L169.909 181.288C170.068 181.48 170.227 181.672 170.387 181.863C173.521 185.622 176.651 189.307 179.465 192.566L181.05 191.726L181.45 191.509L181.849 191.291L193.873 184.961ZM94.5929 90.0456V90.1021C94.5294 90.1912 94.4856 90.2928 94.4647 90.4002L80.8876 84.9377C81.3223 84.6266 81.9895 83.9174 83.3522 82.4229C84.1346 81.5528 85.0192 80.5912 85.33 80.3781C87.5366 78.8593 89.8687 75.7478 91.7461 73.243L91.761 73.2231L91.8425 73.1143C92.9313 71.6603 93.9507 70.2989 94.6081 69.7555C98.3441 71.609 103.349 73.9454 104.556 74.1499C104.556 74.3848 104.693 74.5632 104.829 74.5567C106.764 74.474 104.99 72.7359 104.699 73.6495L104.677 73.2754C103.678 73.221 92.7455 68.0087 90.9307 66.8253L90.6156 66.6208L89.5289 67.7933L89.4094 67.6171C89.2964 67.4453 89.1334 67.3996 88.9073 67.3539C86.2689 66.7426 83.6825 64.2148 81.2093 59.8487C81.0828 59.6252 80.7705 58.8026 80.4347 57.918L80.4029 57.8343C79.6423 55.8286 78.6947 53.3312 78.0122 52.4523C77.5776 51.8737 77.1211 51.5822 76.6452 51.5343C76.432 51.5185 76.2182 51.5567 76.0236 51.6453L76.004 48.2625C81.7765 48.293 89.0638 52.4349 95.5361 56.7814C95.5037 56.8261 95.4794 56.8762 95.4644 56.9293V56.9902C95.1775 57.3949 95.384 57.8365 95.6013 57.8256C96.1838 57.8017 96.4272 57.6255 96.4707 57.4188C98.3002 58.665 100.052 59.915 101.674 61.072L101.674 61.0721L101.963 61.278C104.384 63.0183 106.475 64.5019 108.187 65.5614C113.89 69.0899 119.582 74.5045 123.414 80.0452C127.367 85.7513 128.828 90.7743 127.415 93.8177C125.344 98.2838 117.079 98.4122 104.143 94.181C100.131 92.8766 99.4556 92.4413 99.1684 92.2562L99.1678 92.2558C98.9519 92.1082 98.7022 92.0176 98.4419 91.9926H98.3919L95.4057 90.7896C96.1142 90.3523 94.8276 89.2624 94.5929 90.0456ZM40.602 180.995V160.34C40.602 159.408 40.5911 157.975 40.5694 156.171H1.11397C1.07051 157.54 1.02487 158.93 0.977052 160.355V180.995H40.602ZM40.5563 155.28H1.31175V151.555H40.4911C40.5194 152.902 40.5411 154.15 40.5563 155.28ZM35.3511 106.037C35.2772 105.73 33.8602 104.76 30.1241 103.89H30.1155C28.7785 103.583 27.4262 103.348 26.0643 103.185C25.0225 103.115 23.9829 103.027 22.9455 102.92C16.834 102.63 9.75095 103.679 5.9193 108.286C2.40195 112.525 1.98581 126.666 1.35594 148.072L1.35522 148.096C1.33059 148.938 1.30596 149.793 1.28132 150.663H40.4803C40.3607 145.022 40.1238 137.874 39.7087 130.913C38.4438 109.585 36.4421 106.635 35.6402 106.357L35.4054 106.276L35.3511 106.037ZM35.8553 82.7297H34.8121C34.3774 82.6992 33.8471 82.6775 33.2647 82.6601C33.8054 82.2649 34.4957 81.7875 35.2512 81.265L35.2513 81.2649L35.2517 81.2646L35.2529 81.2638L35.7249 80.9371C39.8435 78.083 42.2755 76.3187 43.3578 75.1788L44.864 82.8907C43.8099 82.7906 41.4474 82.7471 35.8553 82.7297ZM48.45 59.7269C48.4536 60.1109 48.7662 60.4199 49.1498 60.4187L60.6883 60.3643C58.5584 59.4615 57.5217 57.9975 57.739 56.851C57.8759 56.1984 58.5192 55.5218 59.9124 55.7633C60.9547 55.9458 62.526 56.4078 64.3445 56.9426L64.4178 56.9641C67.3997 57.8452 71.1118 58.9416 73.0113 58.8741C73.8133 58.8459 74.4023 58.5696 74.813 58.0257C74.9647 57.8217 75.0875 57.5977 75.1781 57.3601L75.1521 52.3566L75.0521 51.9455L75.1499 51.9172L75.1303 48.306V47.388V46.4678C75.1268 46.0855 74.8168 45.7772 74.4349 45.776L68.9753 45.8043H68.0864L56.0568 45.8674H55.6091H55.1636L49.0781 45.8978C48.784 45.9006 48.5232 46.0877 48.4261 46.3656C48.3991 46.4402 48.3851 46.5189 48.3848 46.5983V46.8159V47.2879L48.45 59.7269ZM90.7808 67.7781C91.3567 68.1044 92.4412 68.67 93.7605 69.3313C93.0454 70.0318 92.1391 71.2413 91.0546 72.6902L91.0421 72.7069C89.2034 75.1601 86.9205 78.2059 84.8323 79.6515C84.4628 79.906 83.7804 80.6435 82.7002 81.8269C81.8613 82.7493 80.5942 84.1415 80.2769 84.2851C80.3179 84.2703 80.3618 84.2651 80.4051 84.2699L80.3682 84.731L76.5908 83.2083L90.7808 67.7781Z" fill="black"/>
<path d="M71.2181 49.6919C71.4406 49.9298 71.7523 50.0392 72.0595 49.9873C72.5817 49.9328 72.9849 49.4607 73 48.8863C73 48.8736 73 48.8635 73 48.8534C72.9885 48.6854 72.9324 48.5248 72.8386 48.3913C72.7033 48.2012 72.5103 48.0704 72.2946 48.0226C71.8462 47.9271 71.3899 48.14 71.1421 48.5605C71.0399 48.7337 70.9907 48.938 71.0015 49.1439C71.0015 49.1742 71.013 49.1994 71.0176 49.2297C71.0408 49.4022 71.1107 49.5632 71.2181 49.6919Z" fill="black"/>
<path fill-rule="evenodd" clip-rule="evenodd" d="M227.873 187.314C225.683 188.083 221.925 187.917 217.568 187.724L217.537 187.723C214.672 187.594 211.479 187.456 208.299 187.558L208.321 187.54C208.485 187.406 208.66 187.285 208.844 187.18L209.026 187.08C209.307 186.923 209.578 186.767 209.833 186.614C213.556 184.375 214.376 182.515 213.894 181.555C213.437 180.665 212.092 180.63 210.463 181.488C209.319 182.103 208.33 182.984 207.575 184.06C207.821 180.743 206.739 178.878 205.58 178.256C204.837 177.812 203.894 177.957 203.311 178.605C202.38 179.63 202.153 182.006 204.304 185.607C204.484 185.926 204.637 186.26 204.76 186.607C204.782 186.658 204.801 186.707 204.821 186.758C204.885 186.923 204.953 187.08 205.024 187.223C205.108 187.399 205.228 187.556 205.374 187.683C204.448 187.677 203.523 187.587 202.612 187.414C201.53 187.234 200.624 187.085 199.23 187.496C198.956 187.578 198.662 187.681 198.344 187.809C198.077 187.918 197.794 188.045 197.491 188.192C197.361 188.254 197.227 188.321 197.089 188.392L196.695 188.599C194.964 189.53 192.656 191.044 189.353 193.464C189.156 193.606 188.524 194.015 187.726 194.531C187.196 194.873 186.488 195.331 185.889 195.725L185.869 195.738C185.744 195.82 185.626 195.898 185.515 195.974L185.143 196.225L185 196.325C185.562 197.098 186.581 198.646 187.812 200.519C190.335 204.347 194.992 211.411 196.057 212C196.535 211.831 197.355 211.48 198.339 211.022C198.628 210.889 198.923 210.746 199.226 210.595C199.901 210.264 200.609 209.897 201.301 209.51C204.347 207.817 204.998 206.912 204.998 206.688C204.974 206.605 204.881 206.365 204.797 206.152C204.033 204.202 203.298 202.06 204.245 201.293C204.942 200.728 206.162 201.142 208.204 202.627C208.784 203.051 210.83 203.213 218.036 199.55C222.67 197.195 227.679 194.16 230.688 192.338L230.718 192.319L230.839 192.246C231.693 191.729 232.372 191.319 232.803 191.068C233.02 190.819 233.208 189.29 232.503 188.125C231.709 186.814 230.106 186.531 227.873 187.314ZM203.96 179.227C204.272 178.88 204.781 178.812 205.169 179.065C206.062 179.545 207.332 181.541 206.4 185.978C206.346 186.233 206.302 186.422 206.268 186.565C206.246 186.627 206.229 186.687 206.214 186.742C206.188 186.832 206.17 186.923 206.16 187.016L206.023 186.838C205.981 186.873 205.936 186.904 205.889 186.931C205.851 186.879 205.819 186.822 205.792 186.762C205.752 186.68 205.711 186.582 205.669 186.484L205.669 186.483C205.638 186.409 205.606 186.335 205.576 186.267C205.432 185.873 205.257 185.492 205.05 185.129C203.289 182.166 203.231 180.03 203.96 179.227ZM206.577 187.549C206.549 187.574 206.508 187.607 206.458 187.643C206.506 187.64 206.554 187.636 206.603 187.633C206.802 187.62 207.002 187.607 207.202 187.605C207.133 187.51 207.079 187.405 207.04 187.294L207.451 187.134L207.834 186.985C207.761 186.94 207.672 186.931 207.592 186.96C207.657 186.918 207.72 186.871 207.78 186.82L207.996 186.656C208.135 186.554 208.279 186.461 208.429 186.378C212.479 184.171 213.335 182.424 213.106 181.979C212.963 181.695 212.105 181.65 210.867 182.301C208.565 183.511 207.516 185.773 207.17 186.694C207.16 186.726 207.148 186.758 207.137 186.788C207.134 186.795 207.131 186.802 207.129 186.809C207.102 186.926 207.068 187.042 207.025 187.154C206.932 187.398 206.822 187.48 206.605 187.48H206.523L206.577 187.549Z" fill="black"/>
<path fill-rule="evenodd" clip-rule="evenodd" d="M158.597 215.341C161.22 216.74 165.071 218.062 172.315 220.506C174.883 221.383 176.13 222.634 175.989 224.151C175.831 225.333 174.814 226.225 174.528 226.24C173.686 226.24 172.028 226.336 169.938 226.459L169.892 226.462C165.602 226.714 159.749 227.057 154.676 226.992C146.985 226.895 145.437 225.894 145.197 225.306C144.992 224.798 144.789 224.066 144.593 223.355C144.265 222.172 144.051 221.426 143.773 221.093C143.346 220.58 142.94 220.425 142.612 220.425C142.356 220.429 142.108 220.516 141.906 220.672C140.98 221.361 140.462 223.445 140.05 225.343L140.037 225.403C139.983 225.652 139.927 225.916 139.898 226.001C139.83 226.095 139.201 226.705 134.744 226.672C132.65 226.658 130.558 226.512 128.482 226.233C127.89 225.127 127.988 216.824 128.041 212.291L128.041 212.255L128.048 211.425C128.063 209.538 128.076 208.01 128.041 207.187C128.383 207.154 128.956 207.117 129.584 207.082L130.025 207.056L130.466 207.032L131.667 206.97C132.703 206.918 133.521 206.876 133.781 206.848C135.992 206.617 139.434 206.46 141.974 206.344H141.974L142.043 206.341L142.206 206.334L142.207 206.334L142.207 206.334C143.114 206.293 143.892 206.258 144.404 206.227L144.858 206.201L145.299 206.177L145.739 206.159C146.996 206.115 147.851 206.164 148.574 206.42C148.563 206.338 148.556 206.257 148.549 206.178C148.542 206.094 148.535 206.011 148.523 205.929C148.501 205.769 148.501 205.616 148.501 205.464C148.477 204.097 148.834 203.095 149.341 202.468C149.465 202.313 149.607 202.174 149.765 202.054L149.828 202.008C149.985 201.896 150.156 201.807 150.338 201.742C150.498 201.685 150.666 201.65 150.836 201.639C151.296 201.613 151.75 201.753 152.114 202.034C153.181 202.819 153.869 204.791 153.06 208.079C154.01 207.046 155.164 206.219 156.45 205.649C156.851 205.473 157.267 205.335 157.693 205.236V166C157.983 166.376 158.284 166.763 158.597 167.162V180.336H169.308L170.06 181.234H158.597V205.127C159.342 205.144 159.781 205.456 159.959 205.861C160.295 206.617 159.785 207.582 158.597 208.606V214.305C158.278 214.123 157.978 213.939 157.693 213.75V209.311C156.718 209.979 155.69 210.565 154.618 211.065L154.191 211.264L153.829 211.429L153.759 211.462C155.048 212.889 156.172 213.906 157.693 214.829C157.978 215.002 158.278 215.173 158.597 215.341ZM158.597 207.345C159.087 206.791 159.206 206.396 159.133 206.229V206.236C159.089 206.137 158.91 206.052 158.597 206.03V207.345ZM156.807 206.477C157.093 206.352 157.388 206.248 157.689 206.166V208.189C156.543 209.06 155.3 209.795 153.984 210.381C153.845 210.447 153.704 210.51 153.556 210.576L153.455 210.622C153.338 210.675 153.234 210.73 153.137 210.782C152.959 210.578 152.773 210.366 152.586 210.144C152.668 210.022 152.754 209.894 152.851 209.761C152.948 209.627 153.031 209.52 153.131 209.395C154.092 208.132 155.356 207.13 156.807 206.477ZM149.418 205.804C149.432 205.98 149.449 206.159 149.476 206.346V206.348C149.504 206.547 149.542 206.755 149.584 206.966C150.227 207.433 150.88 208.145 151.788 209.2C151.848 209.026 151.898 208.871 151.951 208.695C152.004 208.52 152.053 208.349 152.099 208.18C152.976 204.923 152.244 203.257 151.572 202.755C151.203 202.458 150.675 202.465 150.313 202.77C149.698 203.237 149.31 204.283 149.418 205.804Z" fill="black"/>
<path fill-rule="evenodd" clip-rule="evenodd" d="M181.869 96.2539C183.144 96.7991 184.557 97.3444 186.122 97.8765C189.347 98.9846 194.231 100.251 197.159 101.011L197.175 101.015C198.491 101.355 199.53 101.626 199.799 101.719C200.145 101.851 200.511 101.924 200.881 101.937C201.217 101.96 201.544 101.824 201.766 101.569C202.558 100.594 201.259 98.2778 199.078 94.5768C198.177 93.0501 197.325 91.6042 196.877 90.5508C195.963 88.4069 194.279 85.6655 192.305 82.4814C188.639 76.5536 184.081 69.1777 183.503 63.3896C183.191 60.2556 181.505 57.7192 178.995 56.5851C176.925 55.656 174.687 55.8414 173.006 57.0845C171.798 57.9765 170.997 59.3265 170.625 61.0102C169.361 62.1006 167.928 63.6709 168.028 64.4822C168.069 64.7897 168.313 65.1168 168.872 65.1168H169.305H169.997H170.519C171.004 69.6444 170.789 73.4807 170.599 76.8742C170.194 84.032 169.913 89.0678 176.659 93.5103C176.841 96.3455 177.209 100.424 177.337 101.798C171.874 101.99 166.197 103.438 162.835 107.518C161.537 109.095 160.638 111.793 160 115.601C160.274 115.835 160.537 116.076 160.79 116.323C161.405 112.397 162.264 109.608 163.519 108.09C169.021 101.429 181.25 102.188 187.607 103.684C191.327 104.557 192.738 105.529 192.801 105.837L192.855 106.077L193.087 106.157C193.885 106.437 195.879 109.394 197.141 130.776C197.552 137.755 197.79 144.921 197.909 150.576H181.365L181.616 151.023L181.867 151.46H197.545V155.193H183.953L184.202 155.63L184.451 156.077H198.004C198.028 157.887 198.037 159.322 198.037 160.255V180.963H197.543C197.69 181.303 197.812 181.6 197.913 181.857H198.037V182.18C198.487 183.391 198.387 183.602 198.32 183.744L198.257 183.877L198.041 183.995V187C198.359 186.884 198.651 186.782 198.928 186.719V160.301C198.928 156.314 198.768 143.229 198.032 130.745C196.807 109.994 194.948 106.155 193.58 105.425C192.931 104.188 189.468 103.244 187.936 102.871C185.834 102.379 183.697 102.056 181.544 101.905C181.581 101.25 181.613 100.651 181.644 100.066C181.709 98.7533 181.771 97.5581 181.869 96.2539ZM169.315 64.2467H168.945C169.093 63.8476 169.72 63.1082 170.424 62.4103C170.584 62.2511 170.748 62.0941 170.913 61.9414C171.077 61.7888 171.263 61.6252 171.432 61.4834C171.702 61.2445 171.991 61.03 172.298 60.8422C172.436 60.9731 172.575 61.0974 172.711 61.2195L172.725 61.2319C173.276 61.7283 173.752 62.1583 174.01 62.7985C174.159 63.1649 174.084 63.3459 174.01 63.4528C173.666 63.9631 172.46 64.1572 171.305 64.2249L170.859 64.2467L170.426 64.2576C169.991 64.2554 169.597 64.251 169.318 64.2467H169.315ZM177.575 94.1166C177.78 96.9235 178.114 100.598 178.224 101.802H178.226C179.046 101.791 179.867 101.809 180.642 101.852C180.662 101.489 180.681 101.138 180.699 100.798C180.713 100.533 180.727 100.275 180.741 100.02C180.815 98.594 180.882 97.3138 180.994 95.8766C179.823 95.3549 178.681 94.7673 177.575 94.1166Z" fill="black"/>
<path d="M25.0522 71.2257C25.0294 71.3218 25.012 71.4191 25 71.5171C25 72.294 26.196 72.0587 25.9721 71.3415C25.8172 70.8448 25.181 70.9662 25.0522 71.2257Z" fill="black"/>
<path d="M41.0523 60.2257C41.0291 60.3217 41.0116 60.419 41 60.5171C41 61.294 42.1946 61.0587 41.9725 60.3415C41.8175 59.8448 41.1811 59.9662 41.0523 60.2257Z" fill="black"/>
<path d="M98.0541 65.2255C98.0295 65.3213 98.0114 65.4187 98 65.5169C98 66.2939 99.196 66.0585 98.9721 65.3432C98.8172 64.8445 98.1828 64.9659 98.0541 65.2255Z" fill="black"/>
<path d="M82.0523 90.2244C82.0293 90.3211 82.0118 90.4191 82 90.5179C82 91.2938 83.1946 91.0582 82.9725 90.3422C82.8213 89.8448 82.1848 89.9663 82.0523 90.2244Z" fill="black"/>
<path d="M96.0541 103.224C96.0294 103.321 96.0113 103.419 96 103.518C96 104.295 97.196 104.057 96.9721 103.342C96.8172 102.845 96.181 102.966 96.0541 103.224Z" fill="black"/>
<path d="M62.9721 83.3411C62.8172 82.844 62.181 82.9673 62.0541 83.2252C62.0295 83.321 62.0114 83.4185 62 83.5167C62 84.2942 63.196 84.0587 62.9721 83.3411Z" fill="black"/>
<path d="M12.0541 86.2249C12.0294 86.3213 12.0113 86.4193 12 86.5182C12 87.2936 13.196 87.0582 12.9721 86.3426C12.8172 85.8456 12.181 85.9652 12.0541 86.2249Z" fill="black"/>
<path d="M35.9701 94.3422C35.8156 93.843 35.1806 93.9682 35.0521 94.2244C35.0292 94.3211 35.0118 94.4191 35 94.5179C35 95.2938 36.2029 95.0582 35.9701 94.3422Z" fill="black"/>
<path d="M63.9721 72.3405C63.8172 71.8442 63.181 71.9674 63.0522 72.2248C63.0292 72.3207 63.0118 72.4179 63 72.5158C63 73.2919 64.196 73.0624 63.9721 72.3405Z" fill="black"/>
<path d="M66.9721 105.341C66.8172 104.844 66.181 104.967 66.0541 105.225C66.0295 105.321 66.0114 105.418 66 105.517C66 106.294 67.196 106.059 66.9721 105.341Z" fill="black"/>
<path d="M29.9725 99.3423C29.8175 98.8429 29.1811 98.9682 29.0523 99.2244C29.0294 99.3206 29.012 99.4181 29 99.5162C29 100.294 30.1946 100.059 29.9725 99.3423Z" fill="black"/>
<path d="M36.1202 70.235V70.2851C35.8741 70.6304 36.053 71.0073 36.2376 70.9999C37.9005 70.9293 36.3606 69.4348 36.1202 70.235Z" fill="black"/>
<path d="M120.236 80.9999C121.9 80.9293 120.363 79.4348 120.123 80.235V80.2851C119.873 80.6304 120.052 81.0073 120.236 80.9999Z" fill="black"/>
<path d="M28.1207 88.235V88.2869C27.8746 88.6322 28.0517 89.0091 28.2363 88.9998C29.901 88.9293 28.3612 87.4348 28.1207 88.235Z" fill="black"/>
<path d="M101.237 83.9999C102.9 83.9293 101.362 82.4348 101.121 83.235V83.2851C100.874 83.6304 101.052 84.0073 101.237 83.9999Z" fill="black"/>
<path d="M79.1208 104.235V104.285C78.8744 104.63 79.0517 105.007 79.2383 105C80.8995 104.929 79.3615 103.435 79.1208 104.235Z" fill="black"/>
<path d="M33.1206 79.2357V79.2858C32.8746 79.6308 33.0516 80.0073 33.2379 79.9999C34.9001 79.9276 33.3609 78.4344 33.1206 79.2357Z" fill="black"/>
<path d="M83.1202 95.235V95.2851C82.8741 95.6304 83.053 96.0073 83.2376 95.9999C84.9005 95.9293 83.3606 94.4348 83.1202 95.235Z" fill="black"/>
<path d="M23.1204 62.235V62.2851C22.8738 62.6304 23.0532 63.0073 23.2381 62.9999C24.9026 62.9293 23.3558 61.4348 23.1204 62.235Z" fill="black"/>
<path d="M122.236 87.9998C123.901 87.9293 122.362 86.4348 122.122 87.235V87.2869C121.874 87.6322 122.051 88.0091 122.236 87.9998Z" fill="black"/>
<path d="M39.1203 52.235V52.2851C38.8739 52.6304 39.0531 53.0073 39.2379 52.9999C40.901 52.9293 39.3592 51.4348 39.1203 52.235Z" fill="black"/>
<path d="M60.1206 74.2363V74.2811C59.8746 74.6284 60.0516 75.0074 60.2379 74.9999C61.9001 74.9345 60.3609 73.4317 60.1206 74.2363Z" fill="black"/>
<path d="M41.2369 99.9999C42.9003 99.9293 41.3617 98.4348 41.1214 99.235V99.2851C40.8737 99.6304 41.0525 100.007 41.2369 99.9999Z" fill="black"/>
<path d="M21.1205 96.235V96.2851C20.8746 96.6304 21.0516 97.0073 21.2378 96.9999C22.8993 96.9293 21.3626 95.4348 21.1205 96.235Z" fill="black"/>
<path d="M8.23472 94.9999C9.90285 94.9275 8.35987 93.4351 8.1189 94.2351V94.2852C7.87793 94.6305 8.04792 95.0073 8.23472 94.9999Z" fill="black"/>
<path d="M55.1215 76.235V76.2851C54.8736 76.6304 55.0525 77.0073 55.2371 76.9999C56.9 76.9293 55.362 75.4348 55.1215 76.235Z" fill="black"/>
<path d="M59.1206 110.238V110.288C58.8746 110.632 59.0516 111.007 59.2379 111C60.9001 110.922 59.3609 109.433 59.1206 110.238Z" fill="black"/>
<path d="M7.12055 80.2366V80.2885C6.87459 80.6331 7.05161 81.0073 7.23795 80.9999C8.90008 80.9295 7.36093 79.4326 7.12055 80.2366Z" fill="black"/>
<path d="M55.1214 63.2372V63.289C54.8737 63.6333 55.0525 64.0091 55.2369 63.9998C56.9003 63.9295 55.3617 62.432 55.1214 63.2372Z" fill="black"/>
<path d="M59.1212 96.2357V96.2858C58.874 96.6308 59.0519 97.0073 59.2391 96.9999C60.9022 96.9276 59.3553 95.4344 59.1212 96.2357Z" fill="black"/>
<path d="M2.16693 89.7598L2.21612 89.7763C2.49041 90.098 2.90848 90.0267 2.9501 89.8494C3.32465 88.2499 1.4443 89.3193 2.16693 89.7598Z" fill="black"/>
<path d="M49.1669 72.7593L49.2161 72.7757C49.4904 73.0979 49.9066 73.0265 49.9501 72.8508C50.3247 71.2489 48.4443 72.3199 49.1669 72.7593Z" fill="black"/>
<path d="M91.2178 94.7738C91.4913 95.0987 91.9081 95.0271 91.9496 94.849C92.3268 93.2483 90.4408 94.3222 91.1688 94.7591L91.2178 94.7738Z" fill="black"/>
<path d="M111.167 93.7591L111.216 93.7738C111.49 94.0987 111.908 94.0271 111.95 93.849C112.325 92.2483 110.444 93.3222 111.167 93.7591Z" fill="black"/>
<path d="M31.2332 63.0317C30.7592 63.1352 31.0298 64.5045 31.8452 63.7988C32.1104 63.5725 32.1104 62.8399 31.2332 63.0317Z" fill="black"/>
<path d="M114.845 73.7995C115.11 73.5711 115.112 72.8398 114.234 73.0318C113.759 73.1335 114.028 74.504 114.845 73.7995Z" fill="black"/>
<path d="M87.2339 63.0316C86.7595 63.1351 87.0285 64.5053 87.8446 63.7982C88.11 63.5721 88.1118 62.84 87.2339 63.0316Z" fill="black"/>
<path d="M81.8456 78.8012C82.1101 78.5704 82.1101 77.8396 81.2351 78.0319C80.7586 78.1281 81.0285 79.5032 81.8456 78.8012Z" fill="black"/>
<path d="M14.2339 71.0311C13.7595 71.1365 14.0285 72.5053 14.8446 71.7979C15.11 71.5736 15.1118 70.8413 14.2339 71.0311Z" fill="black"/>
<path d="M123.845 92.7997C124.11 92.5712 124.112 91.8398 123.234 92.0318C122.759 92.1316 123.028 93.5043 123.845 92.7997Z" fill="black"/>
<path d="M82.2339 54.0316C81.7595 54.1351 82.0285 55.5053 82.8446 54.7982C83.11 54.5721 83.1118 53.84 82.2339 54.0316Z" fill="black"/>
<path d="M91.8446 109.8C92.11 109.57 92.1118 108.84 91.2339 109.032C90.7595 109.132 91.0285 110.503 91.8446 109.8Z" fill="black"/>
<path d="M65.8446 87.7999C66.11 87.5695 66.1118 86.8398 65.2339 87.0318C64.7595 87.1298 65.0285 88.5045 65.8446 87.7999Z" fill="black"/>
<path d="M50.2329 83.0317C49.7595 83.1352 50.0298 84.5045 50.8442 83.7988C51.1108 83.5725 51.1108 82.8399 50.2329 83.0317Z" fill="black"/>
<path d="M23.2339 81.0316C22.7595 81.1351 23.0285 82.5053 23.8446 81.7982C24.11 81.5721 24.1118 80.84 23.2339 81.0316Z" fill="black"/>
<path d="M36.8451 59.7985C37.1104 59.5704 37.1104 58.84 36.2346 59.0317C35.7585 59.1314 36.0293 60.5059 36.8451 59.7985Z" fill="black"/>
<path d="M95.8451 75.7994C96.1104 75.571 96.1104 74.8398 95.2346 75.0318C94.7585 75.1354 95.0293 76.5037 95.8451 75.7994Z" fill="black"/>
<path d="M74.8446 97.7997C75.11 97.5712 75.1118 96.8398 74.2339 97.0318C73.7595 97.1316 74.0285 98.5043 74.8446 97.7997Z" fill="black"/>
<path d="M40.2332 88.0315C39.7592 88.135 40.0298 89.5054 40.8452 88.7982C41.1104 88.5777 41.1104 87.8398 40.2332 88.0315Z" fill="black"/>
<path d="M113.845 83.7997C114.11 83.5712 114.112 82.8398 113.234 83.0318C112.759 83.1316 113.028 84.5043 113.845 83.7997Z" fill="black"/>
</svg>
