<svg xmlns="http://www.w3.org/2000/svg" viewBox="0 0 1500 500"><path d="M390.7 215.5h23.5v70.1h38.2v20.1h-61.8v-90.2zm64.6 0h77.3v19.4h-27v70.8H482v-70.8h-26.8v-19.4zm129.8-.7c27.9 0 48.8 19.6 48.8 45.7 0 26.4-20.8 46.2-48.8 46.2s-48.8-19.8-48.8-46.2c0-26.3 20.9-45.7 48.8-45.7zm.3 20.1c-13.5 0-24.8 11.1-24.8 25.7 0 14.7 11.5 26 24.8 26 13.5 0 24.3-11.3 24.3-26 0-14.6-10.8-25.7-24.3-25.7zm98.8-19.4h20.7l40.9 54.3v-54.3h21.9v90.2h-20.6l-40.9-54v54h-22v-90.2zm101.1 0h71.2v18.8h-47.6v16.9h43v18.7l-43 .1v17h48.9v18.8h-72.4v-90.3zm79 0h77.3v19.4h-27v70.8h-23.5v-70.8h-26.8v-19.4zm77.8 0h25.3l17.1 65.2 17-65.2h23l17.1 65.2 17-65.2h24.2l-29.7 90.2h-24.3l-16.2-60.9-16.7 60.9h-24.2l-29.6-90.2zm191.6-.7c27.9 0 48.8 19.6 48.8 45.7 0 26.4-20.8 46.2-48.8 46.2-27.9 0-48.8-19.8-48.8-46.2.1-26.3 20.9-45.7 48.8-45.7zm.3 20.1c-13.5 0-24.8 11.1-24.8 25.7 0 14.7 11.5 26 24.8 26 13.5 0 24.3-11.3 24.3-26 0-14.6-10.8-25.7-24.3-25.7zm141 70.8h-26.6l-13.1-25h-17.5v25h-23.5v-90.2h40.5c23.9 0 37.6 11.6 37.6 31.7 0 13.6-5.7 23.7-16.1 29.1l18.7 29.4zm-57.3-71.5v27.7h17.1c9.5 0 15.1-4.9 15.1-14 0-8.9-5.5-13.6-15.1-13.6h-17.1zm156.4 71.5h-28.2l-23.4-34.9-11.6 12.9v22h-23.5v-90.2h23.5v37.8l33.8-37.8h27.3l-33.5 37.3 35.6 52.9z"/><linearGradient id="a" gradientUnits="userSpaceOnUse" x1="-.352" y1="250" x2="388.46" y2="250"><stop offset="0" stop-color="#f42922"/><stop offset=".294" stop-color="#00cddd"/><stop offset=".8" stop-color="#9a1db1"/></linearGradient><path fill="url(#a)" d="M329.3 280.6L227.6 178.9 125.9 280.6l40.5 40.5 61.2-61.2 61.2 61.2z"/></svg>