<svg xmlns="http://www.w3.org/2000/svg" xmlns:xlink="http://www.w3.org/1999/xlink" width="154" height="42"><defs><path id="a" d="M.37.266h20.159V27.62H.37z"/></defs><g fill="none" fill-rule="evenodd"><path fill="#222" d="M69.193 19.152c0-1.41-.416-2.556-1.247-3.434-.832-.879-1.85-1.318-3.054-1.318-1.205 0-2.222.44-3.054 1.318-.832.878-1.247 2.024-1.247 3.434 0 1.411.415 2.556 1.247 3.434.832.879 1.85 1.318 3.054 1.318 1.205 0 2.222-.44 3.054-1.318.831-.878 1.247-2.023 1.247-3.434M65.753 9a8.49 8.49 0 0 1 3.527.756 9.1 9.1 0 0 1 2.945 2.117c.846.907 1.52 1.98 2.022 3.218.501 1.239.753 2.592.753 4.061 0 1.469-.252 2.822-.753 4.06-.501 1.24-1.176 2.312-2.022 3.22a9.09 9.09 0 0 1-2.945 2.116 8.49 8.49 0 0 1-3.527.756 7.553 7.553 0 0 1-2.043-.26 7.807 7.807 0 0 1-1.57-.604 6.636 6.636 0 0 1-1.334-.864V36H55V9.216h4.301l.86 1.944a7.46 7.46 0 0 1 1.505-1.08c.487-.26 1.075-.504 1.764-.734.688-.23 1.462-.346 2.323-.346m21.47 0c.265 0 .51.015.733.043.221.029.406.058.555.086.177.029.34.058.489.086v6.022a17.994 17.994 0 0 1-.622-.215 6.76 6.76 0 0 0-.711-.151 5.607 5.607 0 0 0-.89-.065c-1.126 0-2.037.36-2.733 1.076-.696.717-1.044 1.72-1.044 3.01V29h-6V9.215h4.444l.89 2.15a6.16 6.16 0 0 1 1.289-1.16c.414-.316.925-.596 1.532-.84.607-.243 1.296-.365 2.067-.365m17.034 10.5c0-1.546-.412-2.77-1.234-3.675-.823-.904-1.83-1.356-3.022-1.356-1.191 0-2.199.452-3.02 1.356-.824.904-1.235 2.13-1.235 3.675 0 1.547.41 2.77 1.234 3.675.822.904 1.83 1.356 3.021 1.356 1.192 0 2.199-.452 3.022-1.356.822-.904 1.234-2.128 1.234-3.675M90 19.5c0-1.488.263-2.866.788-4.134a10.627 10.627 0 0 1 2.148-3.325 10.002 10.002 0 0 1 3.17-2.232A9.437 9.437 0 0 1 100 9c1.39 0 2.687.27 3.894.81a10.004 10.004 0 0 1 3.17 2.23 10.644 10.644 0 0 1 2.149 3.326c.524 1.268.787 2.646.787 4.134 0 1.488-.263 2.866-.787 4.134a10.635 10.635 0 0 1-2.15 3.325 10.004 10.004 0 0 1-3.17 2.232A9.437 9.437 0 0 1 100 30c-1.39 0-2.688-.27-3.893-.81a10.002 10.002 0 0 1-3.17-2.23 10.619 10.619 0 0 1-2.15-3.326C90.264 22.366 90 20.988 90 19.5m36.255 0c0-1.546-.411-2.77-1.234-3.675-.822-.904-1.83-1.356-3.021-1.356-1.191 0-2.199.452-3.021 1.356-.823.904-1.234 2.13-1.234 3.675 0 1.547.411 2.77 1.234 3.675.822.904 1.83 1.356 3.021 1.356 1.191 0 2.199-.452 3.021-1.356.823-.904 1.234-2.128 1.234-3.675M112 19.5c0-1.488.262-2.866.787-4.134a10.63 10.63 0 0 1 2.15-3.325 10.008 10.008 0 0 1 3.17-2.232C119.311 9.27 120.608 9 122 9c1.39 0 2.687.27 3.894.81a10.016 10.016 0 0 1 3.17 2.23 10.63 10.63 0 0 1 2.149 3.326c.525 1.268.787 2.646.787 4.134 0 1.488-.262 2.866-.787 4.134a10.62 10.62 0 0 1-2.15 3.325 10.016 10.016 0 0 1-3.17 2.232A9.438 9.438 0 0 1 122 30a9.43 9.43 0 0 1-3.894-.81 10.008 10.008 0 0 1-3.17-2.23 10.62 10.62 0 0 1-2.149-3.326c-.525-1.268-.787-2.646-.787-4.134"/><g transform="translate(133 2)"><mask id="b" fill="#fff"><use xlink:href="#a"/></mask><path fill="#222" d="M14.23 3.497c0-.861.315-1.615.945-2.261.63-.646 1.365-.97 2.204-.97.84 0 1.575.324 2.205.97.63.646.945 1.4.945 2.261 0 .862-.314 1.616-.945 2.262-.63.646-1.364.969-2.205.969-.84 0-1.575-.323-2.204-.97-.63-.645-.946-1.4-.946-2.26zm5.88 24.123h-5.67V14.051H8.56v13.57H2.89V14.05H.37V8.666h2.52V7.59c0-2.384.601-4.2 1.806-5.45C5.899.891 7.607.266 9.82.266c.391 0 .755.022 1.091.065.336.043.63.093.883.15.28.087.53.16.756.216v5.17l-.42-.087c-.14-.028-.295-.056-.463-.086a3.602 3.602 0 0 0-.588-.043c-.728 0-1.33.252-1.806.754S8.56 7.59 8.56 8.45v.215h11.55V27.62z" mask="url(#b)"/></g><path fill="#14C39A" d="M41.431 17.113c-.576-.709-1.12-1.379-1.318-1.992-.213-.66-.169-1.554-.12-2.499.07-1.429.152-3.047-.746-4.29-.908-1.252-2.48-1.675-3.868-2.048-.904-.242-1.757-.474-2.304-.87-.536-.393-1.011-1.13-1.514-1.91-.785-1.216-1.673-2.595-3.159-3.08-1.295-.416-2.86.078-4.249.613-.896.345-1.741.668-2.459.668-.717 0-1.562-.323-2.458-.668C17.844.504 16.28.007 14.987.424c-1.486.485-2.377 1.862-3.16 3.08-.503.778-.978 1.515-1.514 1.907-.548.4-1.402.63-2.305.873-1.385.373-2.956.798-3.866 2.051-.899 1.238-.816 2.858-.745 4.287.05.948.093 1.84-.119 2.5-.199.61-.742 1.282-1.318 1.991C1.042 18.244 0 19.528 0 21.125c0 1.596 1.039 2.878 1.958 4.012.576.709 1.12 1.379 1.317 1.992.215.66.17 1.554.122 2.499-.071 1.429-.154 3.047.745 4.29.907 1.252 2.48 1.675 3.868 2.048.904.242 1.757.474 2.303.87.536.393 1.011 1.13 1.515 1.91.785 1.217 1.673 2.595 3.159 3.08 1.29.415 2.857-.082 4.249-.613.896-.343 1.741-.667 2.458-.667.718 0 1.563.323 2.46.667 1.008.388 2.054.787 3.111.787.4 0 .782-.058 1.134-.174 1.487-.485 2.377-1.861 3.162-3.08.5-.777.976-1.514 1.514-1.907.547-.4 1.4-.63 2.306-.873 1.385-.373 2.956-.796 3.866-2.048.898-1.238.816-2.86.746-4.29-.049-.947-.093-1.84.12-2.499.199-.611.742-1.283 1.318-1.992.918-1.13 1.96-2.412 1.96-4.012-.002-1.595-1.042-2.878-1.96-4.012"/><path fill="#FFF" stroke="#FFF" d="M30.816 14.841l-11.13 13.884a1.785 1.785 0 0 1-1.315.665c-.047.006-.086.004-.129.003a1.801 1.801 0 0 1-1.239-.562l-3.43-3.682a1.786 1.786 0 0 1 .084-2.517 1.774 1.774 0 0 1 2.51.084l2.031 2.183 9.85-12.288a1.771 1.771 0 0 1 2.497-.275c.764.618.887 1.738.27 2.505"/></g></svg>