<svg width="493" height="475" xmlns="http://www.w3.org/2000/svg"><g fill="none" fill-rule="evenodd"><path d="M470.447 191.992c-6.543-8.057-12.708-15.67-14.964-22.635-2.426-7.515-1.918-17.668-1.37-28.403.798-16.236 1.732-34.632-8.47-48.749-10.306-14.23-28.163-19.035-43.918-23.274-10.258-2.759-19.952-5.396-26.157-9.902-6.084-4.457-11.483-12.83-17.196-21.696-8.913-13.818-18.994-29.488-35.868-34.997-14.707-4.732-32.467.882-48.245 6.966-10.178 3.915-19.776 7.588-27.923 7.588-8.139 0-17.736-3.673-27.914-7.588-15.802-6.06-33.563-11.698-48.245-6.966-16.874 5.51-26.987 21.155-35.892 34.997-5.697 8.842-11.096 17.214-17.18 21.672-6.23 4.554-15.916 7.167-26.174 9.926C75.201 73.17 57.361 78 47.037 92.238c-10.21 14.06-9.275 32.48-8.469 48.716.572 10.767 1.056 20.912-1.346 28.403-2.256 6.94-8.42 14.578-14.964 22.635C11.83 204.846.001 219.432.001 237.586c0 18.129 11.797 32.706 22.233 45.585 6.543 8.058 12.708 15.67 14.956 22.643 2.434 7.508 1.926 17.66 1.378 28.395-.806 16.236-1.74 34.632 8.47 48.749 10.298 14.238 28.163 19.035 43.917 23.274 10.259 2.759 19.945 5.396 26.15 9.902 6.084 4.457 11.483 12.83 17.204 21.705 8.913 13.817 18.994 29.479 35.868 34.996 14.65 4.708 32.443-.939 48.245-6.973 10.178-3.892 19.775-7.58 27.914-7.58 8.147 0 17.745 3.672 27.923 7.58 11.459 4.416 23.337 8.947 35.335 8.947 4.537 0 8.88-.664 12.878-1.974 16.882-5.517 26.987-21.155 35.9-34.996 5.689-8.842 11.088-17.215 17.196-21.68 6.205-4.555 15.9-7.168 26.182-9.927 15.73-4.239 33.563-9.036 43.893-23.274 10.202-14.06 9.268-32.488 8.47-48.749-.548-10.759-1.056-20.912 1.37-28.395 2.256-6.949 8.42-14.585 14.964-22.643 10.428-12.83 22.257-27.408 22.257-45.585-.024-18.13-11.83-32.715-22.257-45.594" fill="#14C39A"/><path d="M262.153 285.252c47.412 0 85.847-38.56 85.847-86.126S309.565 113 262.153 113h-63C186.367 113 176 123.4 176 136.23v218.54c0 12.83 10.366 23.23 23.154 23.23 12.787 0 23.154-10.4 23.154-23.23v-69.518h39.845zm-39.845-46.458v-79.336h39.845c21.837 0 39.54 17.76 39.54 39.668 0 21.908-17.703 39.668-39.54 39.668h-39.845z" fill="#FFF" fill-rule="nonzero"/></g></svg>