<?xml version="1.0" encoding="UTF-8"?>
<svg width="1440px" height="735px" viewBox="0 0 1440 735" version="1.1" xmlns="http://www.w3.org/2000/svg" xmlns:xlink="http://www.w3.org/1999/xlink">
    <!-- Generator: Sketch 58 (84663) - https://sketch.com -->
    <title>hero</title>
    <desc>Created with Sketch.</desc>
    <defs>
        <rect id="path-1" x="0" y="0" width="1440" height="735"></rect>
        <linearGradient x1="21.1726786%" y1="11.5565426%" x2="49.351127%" y2="90.1688327%" id="linearGradient-3">
            <stop stop-color="#14C39A" offset="0%"></stop>
            <stop stop-color="#82A5AF" offset="24.1630512%"></stop>
            <stop stop-color="#F785C4" offset="49.8235295%"></stop>
            <stop stop-color="#34D2FB" offset="76.8449113%"></stop>
            <stop stop-color="#14C39A" offset="100%"></stop>
        </linearGradient>
        <linearGradient x1="21.1726786%" y1="12.032271%" x2="49.351127%" y2="89.6717532%" id="linearGradient-4">
            <stop stop-color="#14C39A" offset="0%"></stop>
            <stop stop-color="#F785C4" offset="49.8235295%"></stop>
            <stop stop-color="#34D2FB" offset="76.8449113%"></stop>
            <stop stop-color="#14C39A" offset="100%"></stop>
        </linearGradient>
        <linearGradient x1="21.1726786%" y1="11.5772678%" x2="49.351127%" y2="90.1471774%" id="linearGradient-5">
            <stop stop-color="#14C39A" offset="0%"></stop>
            <stop stop-color="#3BD2FA" offset="25.3773131%"></stop>
            <stop stop-color="#F785C4" offset="49.8235295%"></stop>
            <stop stop-color="#34D2FB" offset="76.8449113%"></stop>
            <stop stop-color="#14C39A" offset="100%"></stop>
        </linearGradient>
        <linearGradient x1="21.1726786%" y1="11.4981796%" x2="49.351127%" y2="90.2298151%" id="linearGradient-6">
            <stop stop-color="#14C39A" offset="0%"></stop>
            <stop stop-color="#3BD2FA" offset="25.3773131%"></stop>
            <stop stop-color="#F785C4" offset="49.8235295%"></stop>
            <stop stop-color="#34D2FB" offset="76.8449113%"></stop>
            <stop stop-color="#14C39A" offset="100%"></stop>
        </linearGradient>
        <linearGradient x1="21.1726786%" y1="11.8463415%" x2="49.351127%" y2="89.8660274%" id="linearGradient-7">
            <stop stop-color="#14C39A" offset="0%"></stop>
            <stop stop-color="#3BD2FA" offset="25.3773131%"></stop>
            <stop stop-color="#F785C4" offset="49.8235295%"></stop>
            <stop stop-color="#34D2FB" offset="76.8449113%"></stop>
            <stop stop-color="#14C39A" offset="100%"></stop>
        </linearGradient>
        <linearGradient x1="21.1726786%" y1="11.5938513%" x2="49.351127%" y2="90.1298495%" id="linearGradient-8">
            <stop stop-color="#14C39A" offset="0%"></stop>
            <stop stop-color="#3BD2FA" offset="25.3773131%"></stop>
            <stop stop-color="#F785C4" offset="49.8235295%"></stop>
            <stop stop-color="#34D2FB" offset="76.8449113%"></stop>
            <stop stop-color="#14C39A" offset="100%"></stop>
        </linearGradient>
    </defs>
    <g id="Page-1" stroke="none" stroke-width="1" fill="none" fill-rule="evenodd">
        <g id="Proofi---landingpage">
            <g id="hero">
                <mask id="mask-2" fill="white">
                    <use xlink:href="#path-1"></use>
                </mask>
                <use id="Rectangle" fill="#FFFFFF" xlink:href="#path-1"></use>
                <g id="Group-5" opacity="0.699999988" mask="url(#mask-2)">
                    <g transform="translate(-116.000000, 718.000000) rotate(-322.000000) translate(116.000000, -718.000000) translate(-561.000000, 290.000000)" id="Path">
                        <path d="M849.795558,345.516494 C837.975859,330.972971 826.840306,317.232554 822.764548,304.660292 C818.383108,291.095098 819.300154,272.769674 820.289981,253.392912 C821.731052,224.086837 823.419581,190.882046 804.991332,165.401676 C786.373851,139.71688 754.117137,131.043333 725.659612,123.391921 C707.129469,118.412662 689.618266,113.652433 678.409931,105.519157 C667.41994,97.4734935 657.667234,82.360495 647.346832,66.3567787 C631.247588,41.4166806 613.037683,13.1327404 582.556835,3.18882542 C555.991626,-5.35330418 523.909588,4.78043589 495.408394,15.761088 C477.023813,22.8284225 459.687285,29.4576992 444.970887,29.4576992 C430.269046,29.4576992 412.932518,22.8284225 394.547938,15.761088 C366.003075,4.82424168 333.921036,-5.35330418 307.399496,3.18882542 C276.918648,13.1327404 258.650518,41.3728748 242.56583,66.3567787 C232.274541,82.3166892 222.521834,97.4296877 211.531844,105.475352 C200.27984,113.696239 182.783193,118.412662 164.25305,123.391921 C135.839194,131.043333 103.611593,139.760685 84.9649995,165.460084 C66.5221942,190.83824 68.2107226,224.086837 69.6663505,253.392912 C70.6998463,272.828082 71.573223,291.138904 67.2354519,304.660292 C63.1596938,317.188748 52.0241405,330.972971 40.2044421,345.516494 C21.3686173,368.718963 2.27373675e-13,395.046244 2.27373675e-13,427.812977 C2.27373675e-13,460.535904 21.3103922,486.848584 40.1607733,510.094858 C51.9804717,524.638381 63.116025,538.378798 67.1772268,550.965663 C71.573223,564.516255 70.6561774,582.841678 69.6663505,602.21844 C68.2107226,631.524516 66.5221942,664.729307 84.9649995,690.209676 C103.567924,715.909075 135.839194,724.56802 164.296719,732.219431 C182.826862,737.19869 200.323509,741.958919 211.531844,750.092195 C222.521834,758.137859 232.274541,773.250857 242.609499,789.269176 C258.708744,814.209274 276.918648,842.478612 307.399496,852.437129 C333.862811,860.935453 366.003075,850.743305 394.547938,839.850264 C412.932518,832.826736 430.269046,826.168255 444.970887,826.168255 C459.687285,826.168255 477.023813,832.797532 495.408394,839.850264 C516.107422,847.822919 537.563377,856 559.237676,856 C567.432861,856 575.278695,854.802642 582.49861,852.437129 C612.994014,842.478612 631.247588,814.253079 647.346832,789.269176 C657.623565,773.309265 667.376272,758.196267 678.409931,750.136001 C689.618266,741.915114 707.129469,737.19869 725.703281,732.219431 C754.117137,724.56802 786.330182,715.909075 804.991332,690.209676 C823.419581,664.83152 821.731052,631.568321 820.289981,602.21844 C819.300154,582.797872 818.383108,564.472449 822.764548,550.965663 C826.840306,538.422604 837.975859,524.638381 849.795558,510.094858 C868.631383,486.936196 890,460.623516 890,427.812977 C889.956331,395.09005 868.631383,368.762768 849.795558,345.516494" fill="url(#linearGradient-3)" opacity="0.099999994"></path>
                        <path d="M816.439604,351.547481 C805.615948,338.312195 795.418784,325.807774 791.686488,314.366427 C787.674271,302.021467 788.514037,285.344476 789.420452,267.710716 C790.740085,241.040818 792.286322,210.822907 775.411015,187.63458 C758.362423,164.260215 728.823972,156.366882 702.764553,149.40374 C685.795938,144.872382 669.760398,140.54035 659.496586,133.13869 C649.432718,125.81676 640.501869,112.063225 631.051164,97.499095 C616.308598,74.8024403 599.633235,49.062733 571.720998,40.0133057 C547.394431,32.2395686 518.015935,41.4617457 491.916527,51.4546521 C475.081209,57.8862569 459.205624,63.9192084 445.729372,63.9192084 C432.26645,63.9192084 416.390865,57.8862569 399.555547,51.4546521 C373.41615,41.501611 344.037654,32.2395686 319.751076,40.0133057 C291.838839,49.062733 275.110158,74.762575 260.380921,97.499095 C250.956875,112.023359 242.026026,125.776894 231.962158,133.098824 C221.658357,140.580216 205.636147,144.872382 188.667532,149.40374 C162.648102,156.366882 133.13631,164.30008 116.061059,187.687734 C99.1724227,210.783042 100.718659,241.040818 102.051622,267.710716 C102.998025,285.397629 103.797803,302.061332 99.8255744,314.366427 C96.0932791,325.767909 85.8961151,338.312195 75.0724587,351.547481 C57.8239225,372.662811 38.2560314,396.621868 38.2560314,426.441126 C38.2560314,456.220519 57.770604,480.166287 75.0324698,501.321483 C85.8561262,514.556768 96.0532902,527.06119 99.7722559,538.515825 C103.797803,550.847497 102.958037,567.524488 102.051622,585.158247 C100.718659,611.828145 99.1724227,642.046057 116.061059,665.234384 C133.096321,688.622037 162.648102,696.502082 188.707521,703.465224 C205.676135,707.996582 221.698346,712.328613 231.962158,719.730274 C242.026026,727.052204 250.956875,740.805739 260.42091,755.383157 C275.163476,778.079812 291.838839,803.806231 319.751076,812.868946 C343.984336,820.602818 373.41615,811.327487 399.555547,801.414312 C416.390865,795.022572 432.26645,788.963044 445.729372,788.963044 C459.205624,788.963044 475.081209,794.995995 491.916527,801.414312 C510.871255,808.669799 530.519124,816.111326 550.366937,816.111326 C557.871517,816.111326 565.056185,815.021674 571.66768,812.868946 C599.593246,803.806231 616.308598,778.119677 631.051164,755.383157 C640.46188,740.858893 649.39273,727.105358 659.496586,719.770139 C669.760398,712.288748 685.795938,707.996582 702.804541,703.465224 C728.823972,696.502082 758.322434,688.622037 775.411015,665.234384 C792.286322,642.139076 790.740085,611.868011 789.420452,585.158247 C788.514037,567.484623 787.674271,550.807631 791.686488,538.515825 C795.418784,527.101055 805.615948,514.556768 816.439604,501.321483 C833.68814,480.246018 853.256031,456.30025 853.256031,426.441126 C853.216042,396.661733 833.68814,372.702677 816.439604,351.547481" fill="url(#linearGradient-4)" opacity="0.149999991"></path>
                        <path d="M775.382316,361.230533 C765.714068,349.337465 756.605436,338.101143 753.271558,327.820087 C749.687638,316.727055 750.437761,301.741312 751.247417,285.895828 C752.426181,261.93058 753.807359,234.777129 738.733466,213.940378 C723.504785,192.936456 697.119518,185.843602 673.841902,179.586607 C658.684661,175.514783 644.360891,171.622072 635.192725,164.971029 C626.203159,158.391631 618.225664,146.03287 609.783808,132.945719 C596.614988,112.550779 581.719695,89.4213889 556.787046,81.2896827 C535.057302,74.3042963 508.814916,82.5912333 485.501579,91.5707385 C470.463406,97.3501009 456.282516,102.771238 444.244833,102.771238 C432.219057,102.771238 418.038166,97.3501009 402.999993,91.5707385 C379.650937,82.6270558 353.40855,74.3042963 331.714526,81.2896827 C306.781878,89.4213889 291.838958,112.514957 278.682045,132.945719 C270.264001,145.997048 262.286506,158.355808 253.296941,164.935206 C244.093055,171.657895 229.781191,175.514783 214.62395,179.586607 C191.382054,185.843602 165.020601,192.972279 149.768107,213.988142 C134.682306,234.741307 136.063485,261.93058 137.254155,285.895828 C138.099532,301.789075 138.813934,316.762877 135.265735,327.820087 C131.931857,338.065321 122.823224,349.337465 113.154976,361.230533 C97.7476951,380.204515 80.2686463,401.733833 80.2686463,428.529059 C80.2686463,455.288462 97.7000682,476.80584 113.119256,495.815644 C122.787504,507.708712 131.896136,518.945034 135.218108,529.238031 C138.813934,540.319122 138.063812,555.304866 137.254155,571.150349 C136.063485,595.115598 134.682306,622.269048 149.768107,643.105799 C164.984881,664.121662 191.382054,671.202575 214.65967,677.459571 C229.816911,681.531394 244.128775,685.424105 253.296941,692.075148 C262.286506,698.654546 270.264001,711.013307 278.717765,724.112399 C291.886585,744.507339 306.781878,767.624789 331.714526,775.768436 C353.360923,782.717999 379.650937,774.383299 402.999993,765.475439 C418.038166,759.731899 432.219057,754.28688 444.244833,754.28688 C456.282516,754.28688 470.463406,759.708017 485.501579,765.475439 C502.43292,771.995133 519.983409,778.681998 537.712498,778.681998 C544.415975,778.681998 550.833692,777.70285 556.739419,775.768436 C581.683975,767.624789 596.614988,744.543161 609.783808,724.112399 C618.189944,711.06107 626.167439,698.70231 635.192725,692.110971 C644.360891,685.388283 658.684661,681.531394 673.877622,677.459571 C697.119518,671.202575 723.469065,664.121662 738.733466,643.105799 C753.807359,622.352634 752.426181,595.15142 751.247417,571.150349 C750.437761,555.269043 749.687638,540.2833 753.271558,529.238031 C756.605436,518.980857 765.714068,507.708712 775.382316,495.815644 C790.789598,476.877485 808.268646,455.360107 808.268646,428.529059 C808.232926,401.769656 790.789598,380.240337 775.382316,361.230533" fill="url(#linearGradient-5)" opacity="0.200000003"></path>
                    </g>
                </g>
                <g id="Group-5" opacity="0.699999988" mask="url(#mask-2)">
                    <g transform="translate(721.000000, -697.000000)" id="Path">
                        <path d="M1299.51883,528.769401 C1281.44398,506.512374 1264.41534,485.484399 1258.18264,466.244138 C1251.48248,445.48432 1252.88484,417.439572 1254.3985,387.785882 C1256.6022,342.936631 1259.18433,292.120888 1231.0036,253.126397 C1202.5335,213.819057 1153.20609,200.545287 1109.68846,188.835767 C1081.35192,181.21564 1054.57355,173.930709 1037.43361,161.483757 C1020.62757,149.170884 1005.7136,126.042346 989.931504,101.550678 C965.312322,63.3830042 937.46549,20.0980022 890.853767,4.88009497 C850.229891,-8.19255663 801.169605,7.31585399 757.585195,24.1203566 C729.471247,34.9360205 702.959995,45.081292 680.455481,45.081292 C657.973226,45.081292 631.461974,34.9360205 603.348026,24.1203566 C559.696837,7.38289323 510.636551,-8.19255663 470.079454,4.88009497 C423.467731,20.0980022 395.53186,63.315965 370.934938,101.550678 C355.19736,125.975307 340.283389,149.103844 323.477348,161.416718 C306.270632,173.997749 279.514524,181.21564 251.177979,188.835767 C207.727127,200.545287 158.444245,213.886096 129.929623,253.215783 C101.726636,292.053848 104.308757,342.936631 106.534722,387.785882 C108.115158,417.528957 109.450738,445.551359 102.81736,466.244138 C96.5846554,485.41736 79.5560171,506.512374 61.481175,528.769401 C32.6771777,564.277852 0,604.568434 0,654.713785 C0,704.792097 32.5881391,745.060333 61.414396,780.635822 C79.4892382,802.89285 96.5178764,823.920824 102.728321,843.183432 C109.450738,863.920904 108.048379,891.965652 106.534722,921.619342 C104.308757,966.468593 101.726636,1017.28434 129.929623,1056.27883 C158.377466,1095.60851 207.727127,1108.85994 251.244758,1120.56946 C279.581303,1128.18958 306.337411,1135.47451 323.477348,1147.92147 C340.283389,1160.23434 355.19736,1183.36288 371.001717,1207.87689 C395.620899,1246.04457 423.467731,1289.30722 470.079454,1304.54748 C510.547512,1317.55309 559.696837,1301.95529 603.348026,1285.28487 C631.461974,1274.53624 657.973226,1264.34628 680.455481,1264.34628 C702.959995,1264.34628 729.471247,1274.49155 757.585195,1285.28487 C789.238429,1297.48601 822.049164,1310 855.193795,1310 C867.725982,1310 879.723938,1308.16759 890.764728,1304.54748 C937.398711,1289.30722 965.312322,1246.11161 989.931504,1207.87689 C1005.64682,1183.45226 1020.56079,1160.32373 1037.43361,1147.98851 C1054.57355,1135.40748 1081.35192,1128.18958 1109.75524,1120.56946 C1153.20609,1108.85994 1202.46672,1095.60851 1231.0036,1056.27883 C1259.18433,1017.44076 1256.6022,966.535632 1254.3985,921.619342 C1252.88484,891.898613 1251.48248,863.853864 1258.18264,843.183432 C1264.41534,823.987864 1281.44398,802.89285 1299.51883,780.635822 C1328.32282,745.194411 1361,704.926175 1361,654.713785 C1360.93322,604.635474 1328.32282,564.344891 1299.51883,528.769401" fill="url(#linearGradient-6)" opacity="0.1"></path>
                        <path d="M1247.8493,539.73615 C1231.34157,519.500945 1215.78933,500.383145 1210.097,482.890663 C1203.97776,464.016661 1205.25853,438.519489 1206.64095,411.559531 C1208.65359,370.784372 1211.01184,324.584715 1185.27441,289.132472 C1159.27269,253.395799 1114.22202,241.327815 1074.47741,230.681983 C1048.59767,223.754067 1024.14102,217.130897 1008.48713,205.814622 C993.138187,194.620246 979.517271,173.592698 965.103497,151.325845 C942.618822,116.625311 917.186337,77.2723058 874.615894,63.4367886 C837.514147,51.5516527 792.707435,65.651284 752.901835,80.9292707 C727.225393,90.762443 703.012692,99.9861212 682.459341,99.9861212 C661.926319,99.9861212 637.713617,90.762443 612.037176,80.9292707 C572.170587,65.7122335 527.363874,51.5516527 490.323117,63.4367886 C447.752674,77.2723058 422.23887,116.564362 399.774525,151.325845 C385.40141,173.531749 371.780495,194.559297 356.431553,205.753673 C340.716676,217.191846 316.280347,223.754067 290.400608,230.681983 C250.716987,241.327815 205.706977,253.456748 179.6646,289.213738 C153.90684,324.523766 156.265088,370.784372 158.29806,411.559531 C159.741471,438.600754 160.961254,464.07761 154.902996,482.890663 C149.210674,500.322195 133.658434,519.500945 117.150698,539.73615 C90.8440352,572.019024 61,608.649622 61,654.239785 C61,699.768998 90.7627163,736.37928 117.089709,768.723103 C133.597445,788.958308 149.149684,808.076108 154.821677,825.588907 C160.961254,844.442593 159.680482,869.939764 158.29806,896.899722 C156.265088,937.674881 153.90684,983.874538 179.6646,1019.32678 C205.645988,1055.08377 250.716987,1067.13144 290.461598,1077.77727 C316.341337,1084.70519 340.777665,1091.32836 356.431553,1102.64463 C371.780495,1113.83901 385.40141,1134.86656 399.835514,1157.15372 C422.320189,1191.85426 447.752674,1231.18695 490.323117,1245.04278 C527.282555,1256.86697 572.170587,1242.68607 612.037176,1227.52998 C637.713617,1217.75776 661.926319,1208.49345 682.459341,1208.49345 C703.012692,1208.49345 727.225393,1217.71713 752.901835,1227.52998 C781.810703,1238.62278 811.776716,1250 842.047676,1250 C853.493311,1250 864.451032,1248.33405 874.534575,1245.04278 C917.125348,1231.18695 942.618822,1191.91521 965.103497,1157.15372 C979.456282,1134.94782 993.077197,1113.92027 1008.48713,1102.70558 C1024.14102,1091.26741 1048.59767,1084.70519 1074.5384,1077.77727 C1114.22202,1067.13144 1159.2117,1055.08377 1185.27441,1019.32678 C1211.01184,984.016753 1208.65359,937.73583 1206.64095,896.899722 C1205.25853,869.878815 1203.97776,844.381643 1210.097,825.588907 C1215.78933,808.137058 1231.34157,788.958308 1247.8493,768.723103 C1274.15596,736.501179 1304,699.890897 1304,654.239785 C1303.93901,608.710572 1274.15596,572.079973 1247.8493,539.73615" fill="url(#linearGradient-7)" opacity="0.15"></path>
                        <path d="M1186.76703,553.491977 C1171.99905,535.329563 1158.08587,518.170094 1152.99346,502.469453 C1147.51912,485.528808 1148.66491,462.643437 1149.90164,438.44512 C1151.70217,401.846762 1153.81188,360.379564 1130.78692,328.558869 C1107.52553,296.482879 1067.22276,285.651078 1031.66684,276.095752 C1008.51457,269.877496 986.635406,263.93277 972.631285,253.775677 C958.899971,243.727996 946.714566,224.854403 933.819862,204.868454 C913.704851,173.722467 890.9527,138.400583 852.868765,125.982307 C819.677178,115.314624 779.592653,127.96996 743.982173,141.682947 C721.011776,150.508859 699.350855,158.787711 680.963626,158.787711 C662.594583,158.787711 640.933663,150.508859 617.963266,141.682947 C582.298224,128.024666 542.213699,115.314624 509.076674,125.982307 C470.992738,138.400583 448.167839,173.667761 428.071015,204.868454 C415.212685,224.799697 403.027281,243.67329 389.295967,253.720971 C375.237284,263.987476 353.376304,269.877496 330.224036,276.095752 C294.722678,285.651078 254.456282,296.537585 231.158516,328.63181 C208.115371,360.324858 210.225083,401.846762 212.0438,438.44512 C213.335089,462.716378 214.426319,485.583514 209.006542,502.469453 C203.914134,518.115388 190.000949,535.329563 175.232966,553.491977 C151.698767,582.467957 125,615.346303 125,656.26644 C125,697.131871 151.626018,729.991982 175.178404,759.022667 C189.946387,777.185081 203.859573,794.344551 208.933793,810.063427 C214.426319,826.985837 213.280527,849.871208 212.0438,874.069524 C210.225083,910.667882 208.115371,952.13508 231.158516,983.955775 C254.401721,1016.05 294.722678,1026.86357 330.278597,1036.41889 C353.430866,1042.63715 375.291845,1048.58187 389.295967,1058.73897 C403.027281,1068.78665 415.212685,1087.66024 428.125577,1107.66443 C448.240587,1138.81041 470.992738,1174.11406 509.076674,1186.55057 C542.140951,1197.16355 582.298224,1184.43527 617.963266,1170.8317 C640.933663,1162.06049 662.594583,1153.74517 680.963626,1153.74517 C699.350855,1153.74517 721.011776,1162.02402 743.982173,1170.8317 C769.84433,1180.7882 796.652219,1191 823.732917,1191 C833.972294,1191 843.775179,1189.5047 852.796016,1186.55057 C890.898139,1174.11406 913.704851,1138.86512 933.819862,1107.66443 C946.660005,1087.73318 958.845409,1068.85959 972.631285,1058.79367 C986.635406,1048.52717 1008.51457,1042.63715 1031.7214,1036.41889 C1067.22276,1026.86357 1107.47097,1016.05 1130.78692,983.955775 C1153.81188,952.262728 1151.70217,910.722588 1149.90164,874.069524 C1148.66491,849.816502 1147.51912,826.931131 1152.99346,810.063427 C1158.08587,794.399257 1171.99905,777.185081 1186.76703,759.022667 C1210.30123,730.101394 1237,697.241283 1237,656.26644 C1236.94544,615.401009 1210.30123,582.522663 1186.76703,553.491977" fill="url(#linearGradient-8)" opacity="0.200000003"></path>
                    </g>
                </g>
            </g>
        </g>
    </g>
</svg>