<?xml version="1.0" encoding="utf-8"?>
<svg xmlns="http://www.w3.org/2000/svg" viewBox="0 0 100 100" fill="#1dba88"><path d="M 44.75 22.628906 C 42.067125 22.688156 39.395734 23.276125 36.865234 24.390625 C 31.805234 26.618625 27.915109 30.683938 25.912109 35.835938 C 23.909109 40.988937 24.033719 46.614781 26.261719 51.675781 C 28.488719 56.735781 32.554031 60.623953 37.707031 62.626953 C 40.141031 63.572953 42.678891 64.044922 45.212891 64.044922 C 48.045891 64.044922 50.874875 63.453344 53.546875 62.277344 C 58.606875 60.049344 62.495047 55.985031 64.498047 50.832031 C 66.501047 45.679031 66.376438 40.055141 64.148438 34.994141 C 61.920437 29.934141 57.855125 26.045969 52.703125 24.042969 C 50.126125 23.040469 47.432875 22.569656 44.75 22.628906 z M 63.542969 23.130859 C 63.094719 23.130859 62.647641 23.301578 62.306641 23.642578 L 61.712891 24.236328 C 61.440891 24.020328 61.167766 23.806563 60.884766 23.601562 C 60.437766 23.278562 59.813281 23.377172 59.488281 23.826172 C 59.165281 24.273172 59.264891 24.898656 59.712891 25.222656 C 62.309891 27.101656 64.408125 29.477109 65.953125 32.287109 C 70.219125 40.052109 69.490703 49.88775 64.095703 57.34375 C 56.514703 67.81875 42.210891 70.45475 32.212891 63.21875 C 31.351891 62.59575 30.530391 61.904063 29.775391 61.164062 C 29.380391 60.778062 28.747328 60.784688 28.361328 61.179688 C 27.974328 61.575688 27.981953 62.20775 28.376953 62.59375 C 29.202953 63.40275 30.101969 64.157844 31.042969 64.839844 C 35.209969 67.855844 40.058922 69.300781 44.919922 69.300781 C 45.256922 69.300781 45.594641 69.285484 45.931641 69.271484 L 45.931641 71.337891 C 36.211641 71.407891 26.537109 73.506938 26.537109 77.460938 C 26.537109 77.489937 26.545828 77.584281 26.548828 77.613281 C 26.593828 78.130281 27.026922 78.527344 27.544922 78.527344 L 65.316406 78.527344 C 65.821406 78.527344 66.2515 78.120141 66.3125 77.619141 C 66.3175 77.578141 66.322266 77.501937 66.322266 77.460938 C 66.321266 73.505938 56.650688 71.407891 46.929688 71.337891 L 46.929688 69.207031 C 54.088687 68.621031 61.069844 64.933672 65.714844 58.513672 C 71.560844 50.435672 72.343078 39.762219 67.705078 31.324219 C 66.756078 29.597219 65.608109 28.026328 64.287109 26.611328 L 64.78125 26.117188 C 65.11125 25.787188 65.293969 25.346906 65.292969 24.878906 C 65.292969 24.409906 65.11025 23.970578 64.78125 23.642578 C 64.44025 23.301578 63.991219 23.130859 63.542969 23.130859 z M 63.542969 24.130859 C 63.734969 24.130859 63.927719 24.203109 64.074219 24.349609 C 64.215219 24.490609 64.292969 24.677906 64.292969 24.878906 C 64.293969 25.080906 64.215219 25.270156 64.074219 25.410156 L 63.591797 25.892578 C 63.235797 25.542578 62.866328 25.204953 62.486328 24.876953 L 63.013672 24.349609 C 63.160172 24.203109 63.350969 24.130859 63.542969 24.130859 z M 45.199219 24.626953 C 47.488219 24.626953 49.780516 25.05225 51.978516 25.90625 C 53.624516 26.54525 55.139766 27.408312 56.509766 28.445312 C 52.666766 28.342312 49.001031 29.007516 45.707031 30.353516 C 45.020031 28.543516 44.616391 26.627156 44.525391 24.660156 C 44.750391 24.653156 44.974219 24.626953 45.199219 24.626953 z M 43.529297 24.712891 C 43.627297 26.799891 44.056062 28.832953 44.789062 30.751953 C 42.092062 31.986953 39.674391 33.696891 37.650391 35.837891 L 31.664062 30.427734 C 33.345063 28.663734 35.374875 27.231703 37.671875 26.220703 C 39.558875 25.389703 41.533297 24.894891 43.529297 24.712891 z M 56.230469 29.443359 C 56.747168 29.452094 57.267891 29.476172 57.791016 29.513672 C 57.941016 29.651672 58.097141 29.784734 58.244141 29.927734 C 58.960141 33.936734 58.788734 37.861219 57.802734 41.449219 C 55.473734 40.789219 53.290906 39.674438 51.378906 38.148438 L 53.203125 36.126953 C 53.388125 35.921953 53.372969 35.606875 53.167969 35.421875 C 52.963969 35.237875 52.647891 35.252031 52.462891 35.457031 L 50.601562 37.517578 C 50.575562 37.494578 50.546484 37.474172 50.521484 37.451172 C 48.605484 35.719172 47.097359 33.612063 46.068359 31.289062 C 49.166734 30.020312 52.613574 29.382219 56.230469 29.443359 z M 56.804688 30.878906 C 56.676563 30.883531 56.550531 30.937562 56.457031 31.039062 L 56.119141 31.402344 C 55.931141 31.604344 55.941531 31.922375 56.144531 32.109375 C 56.240531 32.199375 56.362375 32.242187 56.484375 32.242188 C 56.618375 32.242188 56.753562 32.188031 56.851562 32.082031 L 57.189453 31.71875 C 57.377453 31.51675 57.365109 31.200672 57.162109 31.013672 C 57.062109 30.919672 56.932812 30.874281 56.804688 30.878906 z M 31.009766 31.183594 L 36.980469 36.578125 C 35.055469 38.808125 33.600484 41.387312 32.646484 44.195312 C 30.663484 43.660313 28.594859 43.439687 26.505859 43.554688 C 26.478859 41.194688 26.896344 38.827547 27.777344 36.560547 C 28.552344 34.565547 29.657766 32.764594 31.009766 31.183594 z M 59.453125 31.220703 C 60.609125 32.583703 61.577359 34.118781 62.318359 35.800781 C 63.213359 37.832781 63.710563 39.968141 63.851562 42.119141 C 62.131563 42.213141 60.422531 42.081984 58.769531 41.708984 C 59.672531 38.420984 59.918125 34.865703 59.453125 31.220703 z M 45.148438 31.6875 C 46.234437 34.1415 47.826609 36.366359 49.849609 38.193359 C 49.875609 38.216359 49.903687 38.236766 49.929688 38.259766 L 45.617188 43.03125 L 38.392578 36.505859 C 40.309578 34.482859 42.596438 32.8635 45.148438 31.6875 z M 55.423828 32.314453 C 55.295953 32.319203 55.168719 32.371656 55.074219 32.472656 L 53.722656 33.931641 C 53.534656 34.133641 53.545047 34.449719 53.748047 34.636719 C 53.844047 34.726719 53.965891 34.771484 54.087891 34.771484 C 54.221891 34.771484 54.355125 34.717328 54.453125 34.611328 L 55.806641 33.152344 C 55.994641 32.950344 55.98425 32.634266 55.78125 32.447266 C 55.68125 32.353266 55.551703 32.309703 55.423828 32.314453 z M 37.722656 37.25 L 44.947266 43.775391 L 40.634766 48.548828 C 40.609766 48.525828 40.586547 48.499562 40.560547 48.476562 C 38.536547 46.647562 36.164234 45.289984 33.615234 44.458984 C 34.526234 41.800984 35.904656 39.361 37.722656 37.25 z M 50.703125 38.894531 C 52.729125 40.522531 55.044578 41.726688 57.517578 42.429688 C 56.617578 45.221688 55.202453 47.780328 53.314453 49.986328 L 46.359375 43.703125 L 50.703125 38.894531 z M 58.496094 42.660156 C 59.914094 42.984156 61.366891 43.171875 62.837891 43.171875 C 63.191891 43.171875 63.548297 43.136188 63.904297 43.117188 C 63.931297 45.476188 63.515766 47.843375 62.634766 50.109375 C 60.825766 54.764375 57.309281 58.435266 52.738281 60.447266 C 50.851281 61.278266 48.875859 61.767219 46.880859 61.949219 C 46.794859 60.138219 46.47425 58.361922 45.90625 56.669922 C 48.74425 55.416922 51.283625 53.645344 53.390625 51.402344 L 55.505859 53.3125 C 55.601859 53.3985 55.719844 53.441406 55.839844 53.441406 C 55.976844 53.441406 56.111937 53.384391 56.210938 53.275391 C 56.395938 53.070391 56.380781 52.755312 56.175781 52.570312 L 54.056641 50.65625 C 56.057641 48.32325 57.554094 45.614156 58.496094 42.660156 z M 45.6875 44.445312 L 52.646484 50.730469 C 50.647484 52.855469 48.242781 54.541328 45.550781 55.736328 C 44.603781 53.327328 43.177844 51.123766 41.339844 49.259766 L 45.6875 44.445312 z M 28.029297 44.53125 C 29.495313 44.567906 30.942 44.777344 32.34375 45.152344 C 31.34075 48.561344 31.051109 52.271125 31.537109 56.078125 C 30.126109 54.563125 28.950797 52.819141 28.091797 50.869141 C 27.197797 48.837141 26.700594 46.703734 26.558594 44.552734 C 27.050594 44.526234 27.540625 44.519031 28.029297 44.53125 z M 33.310547 45.412109 C 35.726547 46.200109 37.973625 47.48575 39.890625 49.21875 C 39.916625 49.24175 39.938844 49.268016 39.964844 49.291016 L 32.755859 57.271484 C 32.746859 57.263484 32.736516 57.256047 32.728516 57.248047 C 32.007516 53.120047 32.227547 49.081109 33.310547 45.412109 z M 40.669922 50.001953 C 42.397922 51.764953 43.735906 53.845141 44.628906 56.119141 C 41.281906 57.437141 37.537094 58.025734 33.621094 57.802734 L 40.669922 50.001953 z M 56.933594 53.767578 C 56.805719 53.772203 56.678484 53.826234 56.583984 53.927734 C 56.395984 54.129734 56.406375 54.447766 56.609375 54.634766 L 57.484375 55.445312 C 57.580375 55.535313 57.702219 55.580078 57.824219 55.580078 C 57.958219 55.580078 58.093406 55.525922 58.191406 55.419922 C 58.379406 55.217922 58.367062 54.901844 58.164062 54.714844 L 57.289062 53.902344 C 57.189062 53.808344 57.061469 53.762953 56.933594 53.767578 z M 44.984375 57.054688 C 45.511375 58.646687 45.806766 60.318484 45.884766 62.021484 C 43.372766 62.112484 40.845641 61.701672 38.431641 60.763672 C 37.124641 60.255672 35.905531 59.599891 34.769531 58.837891 C 34.925531 58.840891 35.083281 58.857422 35.238281 58.857422 C 38.689281 58.857422 41.986375 58.233687 44.984375 57.054688 z M 46.429688 73.335938 C 55.866687 73.335938 61.806594 75.146344 63.683594 76.527344 L 29.238281 76.527344 C 31.179281 75.106344 37.094687 73.335938 46.429688 73.335938 z" fill="#1dba88"/></svg>
