<svg width="24" height="24" viewBox="0 0 24 24" fill="none" xmlns="http://www.w3.org/2000/svg">
<path fill-rule="evenodd" clip-rule="evenodd" d="M22.9158 9.86226C22.5971 9.4701 22.2968 9.09959 22.1869 8.76058C22.0688 8.3948 22.0935 7.90066 22.1202 7.37817C22.159 6.58793 22.2046 5.69257 21.7076 5.0055C21.2056 4.31291 20.3357 4.07903 19.5683 3.87271C19.0687 3.73845 18.5964 3.61009 18.2942 3.39078C17.9978 3.17383 17.7348 2.76631 17.4565 2.33477C17.0224 1.66226 16.5314 0.899593 15.7094 0.631457C14.993 0.40112 14.1279 0.674375 13.3593 0.970466C12.8636 1.16104 12.3961 1.33979 11.9992 1.33979C11.6028 1.33979 11.1353 1.16104 10.6395 0.970466C9.86975 0.675556 9.00461 0.40112 8.28942 0.631457C7.46747 0.899593 6.97485 1.66108 6.5411 2.33477C6.26358 2.76513 6.00059 3.17265 5.70423 3.3896C5.4008 3.61127 4.92899 3.73845 4.4293 3.87271C3.66308 4.07903 2.79402 4.31409 2.29119 5.00707C1.79386 5.69139 1.83939 6.58793 1.87864 7.37817C1.90651 7.90223 1.93006 8.39598 1.81309 8.76058C1.70318 9.09841 1.4029 9.4701 1.08416 9.86226C0.576232 10.4879 0 11.1978 0 12.0814C0 12.9637 0.574662 13.6733 1.08299 14.3001C1.40172 14.6923 1.70201 15.0628 1.81152 15.4022C1.93006 15.7676 1.90534 16.2617 1.87864 16.7842C1.83939 17.5744 1.79386 18.4698 2.29119 19.1569C2.79284 19.8498 3.66308 20.0833 4.43047 20.2896C4.93016 20.4239 5.40198 20.5523 5.70423 20.7716C6.00059 20.9885 6.26358 21.396 6.54228 21.828C6.97642 22.5005 7.46747 23.2628 8.28942 23.5313C9.00304 23.7604 9.86975 23.4856 10.6395 23.1919C11.1353 23.0025 11.6028 22.823 11.9992 22.823C12.3961 22.823 12.8636 23.0017 13.3593 23.1919C13.9175 23.4069 14.4961 23.6274 15.0806 23.6274C15.3016 23.6274 15.5131 23.5951 15.7078 23.5313C16.5302 23.2628 17.0224 22.5017 17.4565 21.828C17.7337 21.3976 17.9967 20.9901 18.2942 20.7728C18.5964 20.5511 19.0687 20.4239 19.5695 20.2896C20.3357 20.0833 21.2044 19.8498 21.7076 19.1569C22.2046 18.4725 22.159 17.5756 22.1202 16.7842C22.0935 16.2605 22.0688 15.7664 22.1869 15.4022C22.2968 15.0639 22.5971 14.6923 22.9158 14.3001C23.4238 13.6756 24 12.9661 24 12.0814C23.9988 11.199 23.4238 10.4891 22.9158 9.86226Z" fill="#14C39A"/>
<path d="M17.0653 8.81129C17.4952 8.27577 17.4102 7.49377 16.8762 7.06208C16.3423 6.63041 15.5607 6.7174 15.1303 7.25374L9.95506 13.7098L9.06222 12.7504C8.594 12.2484 7.80748 12.2217 7.30688 12.691C6.80678 13.1594 6.78055 13.9474 7.2478 14.4489L9.11903 16.4572C9.34812 16.698 9.65845 16.8391 9.98491 16.8505L9.98892 16.8507L10.0111 16.8512C10.0411 16.8518 10.0677 16.8508 10.0974 16.8472C10.435 16.8335 10.77 16.6646 10.9949 16.3845L17.0654 8.81114L16.8526 8.64056L17.0653 8.81129Z" fill="white"/>
</svg>
