<?xml version="1.0" encoding="utf-8"?>
<svg xmlns="http://www.w3.org/2000/svg" viewBox="0 0 100 100" fill="#1dba88"><path d="M 23 18 C 20.243 18 18 20.243 18 23 L 18 40 C 18 40.553 18.448 41 19 41 C 19.552 41 20 40.553 20 40 L 20 23 C 20 21.346 21.346 20 23 20 L 40 20 C 40.552 20 41 19.553 41 19 C 41 18.447 40.552 18 40 18 L 23 18 z M 60 18 C 59.447 18 59 18.447 59 19 C 59 19.553 59.447 20 60 20 L 77 20 C 78.654 20 80 21.346 80 23 L 80 40 C 80 40.553 80.447 41 81 41 C 81.553 41 82 40.553 82 40 L 82 23 C 82 20.243 79.757 18 77 18 L 60 18 z M 23 22 C 22.458 22 22 22.458 22 23 L 22 28.5 C 22 28.776 22.224 29 22.5 29 C 22.776 29 23 28.776 23 28.5 L 23 23 L 38.5 23 C 38.776 23 39 22.776 39 22.5 C 39 22.224 38.776 22 38.5 22 L 23 22 z M 61.5 22 C 61.224 22 61 22.224 61 22.5 C 61 22.776 61.224 23 61.5 23 L 68.5 23 C 68.776 23 69 22.776 69 22.5 C 69 22.224 68.776 22 68.5 22 L 61.5 22 z M 71.5 22 C 71.224 22 71 22.224 71 22.5 C 71 22.776 71.224 23 71.5 23 L 73.5 23 C 73.776 23 74 22.776 74 22.5 C 74 22.224 73.776 22 73.5 22 L 71.5 22 z M 75.5 22 C 75.224 22 75 22.224 75 22.5 C 75 22.776 75.224 23 75.5 23 L 77 23 L 77 40.5 C 77 40.776 77.224 41 77.5 41 C 77.776 41 78 40.776 78 40.5 L 78 23 C 78 22.458 77.542 22 77 22 L 75.5 22 z M 22.5 31 C 22.224 31 22 31.224 22 31.5 L 22 35.5 C 22 35.776 22.224 36 22.5 36 C 22.776 36 23 35.776 23 35.5 L 23 31.5 C 23 31.224 22.776 31 22.5 31 z M 35 37 C 34.448 37 34 37.447 34 38 L 34 43 C 34 43.553 34.448 44 35 44 C 35.552 44 36 43.553 36 43 L 36 38 C 36 37.447 35.552 37 35 37 z M 50 37 C 49.448 37 49 37.447 49 38 L 49 54 L 46 54 C 45.448 54 45 54.447 45 55 C 45 55.553 45.448 56 46 56 L 50 56 C 50.552 56 51 55.553 51 55 L 51 38 C 51 37.447 50.552 37 50 37 z M 65 37 C 64.447 37 64 37.447 64 38 L 64 43 C 64 43.553 64.447 44 65 44 C 65.553 44 66 43.553 66 43 L 66 38 C 66 37.447 65.553 37 65 37 z M 22.5 38 C 22.224 38 22 38.224 22 38.5 L 22 40.5 C 22 40.776 22.224 41 22.5 41 C 22.776 41 23 40.776 23 40.5 L 23 38.5 C 23 38.224 22.776 38 22.5 38 z M 19 59 C 18.448 59 18 59.447 18 60 L 18 77 C 18 79.757 20.243 82 23 82 L 40 82 C 40.552 82 41 81.553 41 81 C 41 80.447 40.552 80 40 80 L 23 80 C 21.346 80 20 78.654 20 77 L 20 60 C 20 59.447 19.552 59 19 59 z M 77.5 59 C 77.224 59 77 59.224 77 59.5 L 77 60.5 C 77 60.776 77.224 61 77.5 61 C 77.776 61 78 60.776 78 60.5 L 78 59.5 C 78 59.224 77.776 59 77.5 59 z M 81 59 C 80.447 59 80 59.447 80 60 L 80 77 C 80 78.654 78.654 80 77 80 L 60 80 C 59.447 80 59 80.447 59 81 C 59 81.553 59.447 82 60 82 L 77 82 C 79.757 82 82 79.757 82 77 L 82 60 C 82 59.447 81.553 59 81 59 z M 59.853516 62.013672 C 59.469141 61.947109 59.06725 62.110984 58.84375 62.458984 C 58.05275 63.690984 54.683 65 50 65 C 45.317 65 41.94925 63.689984 41.15625 62.458984 C 40.85725 61.994984 40.238437 61.860203 39.773438 62.158203 C 39.309438 62.457203 39.175609 63.077016 39.474609 63.541016 C 40.805609 65.610016 45.035 67 50 67 C 54.966 67 59.195391 65.609016 60.525391 63.541016 C 60.824391 63.076016 60.688609 62.456203 60.224609 62.158203 C 60.108109 62.083203 59.981641 62.035859 59.853516 62.013672 z M 77.5 63 C 77.224 63 77 63.224 77 63.5 L 77 66.5 C 77 66.776 77.224 67 77.5 67 C 77.776 67 78 66.776 78 66.5 L 78 63.5 C 78 63.224 77.776 63 77.5 63 z M 22.5 64 C 22.224 64 22 64.224 22 64.5 L 22 77 C 22 77.542 22.458 78 23 78 L 25.5 78 C 25.776 78 26 77.776 26 77.5 C 26 77.224 25.776 77 25.5 77 L 23 77 L 23 64.5 C 23 64.224 22.776 64 22.5 64 z M 77.5 70 C 77.224 70 77 70.224 77 70.5 L 77 77 L 59.5 77 C 59.224 77 59 77.224 59 77.5 C 59 77.776 59.224 78 59.5 78 L 77 78 C 77.542 78 78 77.542 78 77 L 78 70.5 C 78 70.224 77.776 70 77.5 70 z M 29.5 77 C 29.224 77 29 77.224 29 77.5 C 29 77.776 29.224 78 29.5 78 L 40.5 78 C 40.776 78 41 77.776 41 77.5 C 41 77.224 40.776 77 40.5 77 L 29.5 77 z" fill="#1dba88"/></svg>
