<?xml version="1.0" encoding="utf-8"?>
<svg xmlns="http://www.w3.org/2000/svg" viewBox="0 0 100 100" fill="#1dba88"><path d="M 64 16 C 63.448 16 63 16.447 63 17 L 63 22 L 45.5 22 C 45.224 22 45 22.224 45 22.5 L 45 46 L 36 46 L 36 36 C 36 35.447 35.552 35 35 35 L 17 35 C 16.448 35 16 35.447 16 36 L 16 64 C 16 64.553 16.448 65 17 65 L 35 65 C 35.552 65 36 64.553 36 64 L 36 54 L 45 54 L 45 77.5 C 45 77.776 45.224 78 45.5 78 L 63 78 L 63 83 C 63 83.553 63.448 84 64 84 L 82 84 C 82.552 84 83 83.553 83 83 L 83 65 C 83 64.447 82.552 64 82 64 L 64 64 C 63.448 64 63 64.447 63 65 L 63 70 L 53 70 L 53 54 L 63 54 L 63 59 C 63 59.553 63.448 60 64 60 L 82 60 C 82.552 60 83 59.553 83 59 L 83 41 C 83 40.447 82.552 40 82 40 L 64 40 C 63.448 40 63 40.447 63 41 L 63 46 L 53 46 L 53 30 L 63 30 L 63 35 C 63 35.553 63.448 36 64 36 L 82 36 C 82.552 36 83 35.553 83 35 L 83 17 C 83 16.447 82.552 16 82 16 L 64 16 z M 65 18 L 81 18 L 81 34 L 65 34 L 65 18 z M 46 23 L 63 23 L 63 29 L 52.5 29 C 52.224 29 52 29.224 52 29.5 L 52 46.5 C 52 46.776 52.224 47 52.5 47 L 63 47 L 63 53 L 52.5 53 C 52.224 53 52 53.224 52 53.5 L 52 70.5 C 52 70.776 52.224 71 52.5 71 L 63 71 L 63 77 L 46 77 L 46 53.5 C 46 53.224 45.776 53 45.5 53 L 36 53 L 36 47 L 45.5 47 C 45.776 47 46 46.776 46 46.5 L 46 23 z M 48.5 25 C 48.224 25 48 25.224 48 25.5 L 48 42.5 C 48 42.776 48.224 43 48.5 43 C 48.776 43 49 42.776 49 42.5 L 49 26 L 52.5 26 C 52.776 26 53 25.776 53 25.5 C 53 25.224 52.776 25 52.5 25 L 48.5 25 z M 55.5 25 C 55.224 25 55 25.224 55 25.5 C 55 25.776 55.224 26 55.5 26 L 57.5 26 C 57.776 26 58 25.776 58 25.5 C 58 25.224 57.776 25 57.5 25 L 55.5 25 z M 59.5 25 C 59.224 25 59 25.224 59 25.5 C 59 25.776 59.224 26 59.5 26 L 60.5 26 C 60.776 26 61 25.776 61 25.5 C 61 25.224 60.776 25 60.5 25 L 59.5 25 z M 18 37 L 34 37 L 34 63 L 18 63 L 18 37 z M 20.5 39 C 20.224 39 20 39.224 20 39.5 L 20 43.5 C 20 43.776 20.224 44 20.5 44 C 20.776 44 21 43.776 21 43.5 L 21 40 L 31 40 L 31 42.5 C 31 42.776 31.224 43 31.5 43 C 31.776 43 32 42.776 32 42.5 L 32 39.5 C 32 39.224 31.776 39 31.5 39 L 20.5 39 z M 65 42 L 81 42 L 81 58 L 65 58 L 65 42 z M 20.5 45 C 20.224 45 20 45.224 20 45.5 L 20 46.5 C 20 46.776 20.224 47 20.5 47 C 20.776 47 21 46.776 21 46.5 L 21 45.5 C 21 45.224 20.776 45 20.5 45 z M 20.5 48 C 20.224 48 20 48.224 20 48.5 L 20 50.5 C 20 50.776 20.224 51 20.5 51 C 20.776 51 21 50.776 21 50.5 L 21 48.5 C 21 48.224 20.776 48 20.5 48 z M 20.5 53 C 20.224 53 20 53.224 20 53.5 L 20 60.5 C 20 60.776 20.224 61 20.5 61 L 27.5 61 C 27.776 61 28 60.776 28 60.5 C 28 60.224 27.776 60 27.5 60 L 21 60 L 21 53.5 C 21 53.224 20.776 53 20.5 53 z M 48.5 57 C 48.224 57 48 57.224 48 57.5 L 48 61.5 C 48 61.776 48.224 62 48.5 62 C 48.776 62 49 61.776 49 61.5 L 49 57.5 C 49 57.224 48.776 57 48.5 57 z M 48.5 65 C 48.224 65 48 65.224 48 65.5 L 48 74.5 C 48 74.776 48.224 75 48.5 75 C 48.776 75 49 74.776 49 74.5 L 49 65.5 C 49 65.224 48.776 65 48.5 65 z M 65 66 L 81 66 L 81 82 L 65 82 L 65 66 z M 68.5 68 C 68.224 68 68 68.224 68 68.5 C 68 68.776 68.224 69 68.5 69 L 71.5 69 C 71.776 69 72 68.776 72 68.5 C 72 68.224 71.776 68 71.5 68 L 68.5 68 z M 74.5 68 C 74.224 68 74 68.224 74 68.5 C 74 68.776 74.224 69 74.5 69 L 78 69 L 78 78.5 C 78 78.776 78.224 79 78.5 79 C 78.776 79 79 78.776 79 78.5 L 79 68.5 C 79 68.224 78.776 68 78.5 68 L 74.5 68 z" fill="#1dba88"/></svg>
