<?xml version="1.0" encoding="utf-8"?>
<svg xmlns="http://www.w3.org/2000/svg" viewBox="0 0 100 100" fill="#1dba88"><path style="line-height:normal;text-indent:0;text-align:start;text-decoration-line:none;text-decoration-style:solid;text-decoration-color:#000;text-transform:none;block-progression:tb;isolation:auto;mix-blend-mode:normal" d="M 49 15 C 42.936593 15 38 19.936593 38 26 C 38 31.633333 43.011371 37.181124 47.833984 41.496094 C 52.656598 45.811064 57.466797 48.845703 57.466797 48.845703 A 1.0001 1.0001 0 0 0 58.533203 48.845703 C 58.533203 48.845703 63.343402 45.811064 68.166016 41.496094 C 72.988629 37.181124 78 31.633333 78 26 C 78 19.936593 73.063407 15 67 15 C 63.226343 15 59.979396 16.97214 58 19.876953 C 56.020604 16.97214 52.773657 15 49 15 z M 49 17 C 52.577957 17 55.64397 19.083753 57.099609 22.097656 A 1.0001 1.0001 0 0 0 58.900391 22.097656 C 60.35603 19.083753 63.422043 17 67 17 C 71.982593 17 76 21.017407 76 26 C 76 30.366667 71.511371 35.818876 66.833984 40.003906 C 62.582302 43.808043 58.74057 46.311656 58 46.789062 C 57.25943 46.311656 53.417698 43.808043 49.166016 40.003906 C 44.488629 35.818876 40 30.366667 40 26 C 40 21.017407 44.017407 17 49 17 z M 70.730469 22.994141 A 0.50005 0.50005 0 0 0 70.322266 23.779297 C 70.749706 24.416896 71 25.176622 71 26 C 71 26.624234 70.77339 27.405393 70.337891 28.277344 A 0.50005 0.50005 0 1 0 71.232422 28.722656 C 71.710923 27.764607 72 26.855766 72 26 C 72 24.973378 71.684903 24.015104 71.152344 23.220703 A 0.50005 0.50005 0 0 0 70.730469 22.994141 z M 68.779297 30.994141 A 0.50005 0.50005 0 0 0 68.404297 31.1875 C 66.346781 33.767248 63.302042 36.59941 60.189453 39.064453 A 0.50005 0.50005 0 1 0 60.810547 39.847656 C 63.965958 37.348699 67.053016 34.488752 69.1875 31.8125 A 0.50005 0.50005 0 0 0 68.779297 30.994141 z M 28.976562 47.96875 C 26.034834 47.96875 23.14755 48.516222 20.404297 49.597656 L 11.632812 53.0625 A 1.0004811 1.0004811 0 0 0 12.367188 54.923828 L 21.138672 51.458984 C 23.651419 50.468419 26.282291 49.96875 28.976562 49.96875 L 29.007812 49.96875 C 32.113664 49.97285 35.108367 50.633914 37.929688 51.935547 L 38.109375 52.023438 L 56.556641 61.498047 C 56.64086 61.541563 56.716555 61.585239 56.791016 61.628906 A 1.0005712 1.0005712 0 0 0 56.902344 61.701172 C 58.8559 62.93518 59.564529 65.491592 58.503906 67.556641 C 57.727168 69.067716 56.197009 70.001953 54.496094 70.001953 C 53.775788 70.001953 53.091147 69.836415 52.435547 69.5 L 52.431641 69.498047 L 43.720703 65.208984 A 0.50050727 0.50050727 0 1 0 43.279297 66.107422 L 51.980469 70.388672 C 52.770868 70.794257 53.6204 71.001953 54.496094 71.001953 C 55.599773 71.001953 56.643868 70.666303 57.527344 70.082031 L 60.705078 71.988281 A 0.50005 0.50005 0 0 0 61.158203 72.019531 L 81.185547 63.433594 A 0.50005 0.50005 0 0 0 81.212891 63.421875 C 81.671204 63.191925 82.180535 63.073479 82.726562 63.039062 A 1.0001 1.0001 0 0 0 83.166016 63.011719 C 84.568629 63.070854 85.901222 63.856374 86.578125 65.210938 C 87.571473 67.197631 86.775758 69.584777 84.789062 70.578125 L 60.789062 82.578125 C 60.226776 82.859669 59.614023 83 59 83 C 58.432044 83 57.866302 82.880894 57.337891 82.638672 L 57.335938 82.636719 L 25.033203 67.916016 L 11.640625 73.066406 A 1.000374 1.000374 0 1 0 12.359375 74.933594 L 24.966797 70.083984 L 56.503906 84.455078 C 57.297542 84.818903 58.149956 85 59 85 C 59.919977 85 60.839882 84.78769 61.683594 84.365234 L 61.683594 84.367188 L 85.683594 72.367188 C 88.636898 70.890489 89.84384 67.269711 88.367188 64.316406 C 87.425362 62.431706 85.613185 61.25527 83.65625 61.037109 C 83.579093 60.799336 83.487767 60.557567 83.367188 60.316406 C 82.198333 57.978698 79.694258 56.825929 77.232422 57.144531 C 76.088262 55.055049 73.873075 53.872358 71.611328 54.013672 C 70.833613 54.062262 70.054379 54.265181 69.316406 54.634766 L 69.369141 54.609375 L 57.460938 59.712891 L 39.005859 50.234375 L 38.777344 50.123047 L 38.767578 50.119141 C 35.689528 48.699043 32.399212 47.972924 29.009766 47.96875 L 29.007812 47.96875 L 28.976562 47.96875 z M 72.220703 56.019531 C 73.332539 56.102365 74.382328 56.670302 75.099609 57.595703 L 69.492188 59.195312 L 74.201172 59.195312 L 59.972656 65.296875 C 59.916475 63.88941 59.334916 62.528625 58.296875 61.53125 L 70.185547 56.435547 L 70.210938 56.421875 C 70.864003 56.094813 71.553602 55.969831 72.220703 56.019531 z M 78.095703 59.15625 C 79.523509 59.161217 80.891107 59.8369 81.578125 61.210938 C 81.717942 61.490571 81.809641 61.798929 81.882812 62.138672 C 81.492891 62.224101 81.116699 62.350219 80.763672 62.527344 L 61 71 L 58.353516 69.412109 C 58.763345 69.007827 59.120296 68.543374 59.392578 68.013672 C 59.65641 67.499988 59.807844 66.959202 59.898438 66.414062 L 76.197266 59.427734 L 76.210938 59.421875 C 76.379495 59.337961 76.585192 59.265034 76.808594 59.195312 L 77.482422 59.195312 C 77.687068 59.168737 77.891731 59.15554 78.095703 59.15625 z M 39.478516 63.185547 A 0.50005 0.50005 0 0 0 39.279297 64.136719 L 41.279297 65.121094 A 0.50005 0.50005 0 1 0 41.720703 64.224609 L 39.720703 63.240234 A 0.50005 0.50005 0 0 0 39.478516 63.185547 z" fill="#1dba88"/></svg>
