<?xml version="1.0" standalone="no"?>
<!DOCTYPE svg PUBLIC "-//W3C//DTD SVG 20010904//EN"
 "http://www.w3.org/TR/2001/REC-SVG-20010904/DTD/svg10.dtd">
<svg version="1.0" xmlns="http://www.w3.org/2000/svg"
 width="720.000000pt" height="720.000000pt" viewBox="0 0 720.000000 720.000000"
 preserveAspectRatio="xMidYMid meet">
<metadata>
Created by potrace 1.11, written by Peter Selinger 2001-2013
</metadata>
<g transform="translate(0.000000,720.000000) scale(0.100000,-0.100000)"
fill="#000000" stroke="none">
<path d="M2628 6910 c-120 -19 -253 -94 -354 -201 -63 -68 -134 -164 -259
-354 -55 -84 -125 -177 -159 -210 -91 -90 -147 -114 -504 -214 -78 -23 -176
-54 -216 -71 -234 -98 -366 -243 -424 -468 -15 -58 -17 -111 -14 -407 3 -364
-2 -413 -46 -500 -34 -69 -63 -110 -186 -263 -240 -300 -311 -447 -310 -642 1
-197 70 -341 306 -636 122 -152 156 -200 190 -269 44 -87 49 -136 46 -500 -3
-384 0 -412 72 -560 28 -59 56 -98 104 -145 115 -114 228 -170 497 -245 340
-96 421 -133 508 -231 24 -27 107 -143 184 -258 254 -379 403 -489 657 -489
126 0 221 19 390 78 69 24 186 64 260 90 237 83 305 78 650 -50 229 -85 335
-114 445 -122 215 -16 407 77 565 274 35 43 114 156 177 250 62 95 140 201
173 236 90 97 157 127 480 216 265 74 387 131 496 233 112 105 172 234 194
418 6 52 8 195 4 370 -9 396 -6 408 221 690 248 309 316 450 316 650 0 199
-68 341 -315 650 -115 144 -174 230 -200 294 -20 48 -21 70 -22 416 -1 376 -4
413 -45 537 -48 145 -166 271 -333 352 -99 49 -172 74 -429 145 -70 20 -162
50 -205 68 -110 45 -187 126 -333 348 -197 299 -290 398 -444 471 -186 90
-357 74 -745 -66 -289 -104 -273 -100 -400 -100 -111 1 -120 3 -245 47 -318
113 -395 138 -465 152 -103 20 -214 26 -282 16z m1368 -1721 c250 -35 485
-156 660 -341 130 -137 222 -301 271 -485 25 -89 27 -114 27 -283 0 -169 -2
-194 -27 -283 -30 -112 -95 -256 -158 -348 -147 -216 -389 -385 -657 -456 -93
-25 -111 -27 -424 -31 l-328 -4 0 -453 c0 -506 -1 -511 -69 -601 -23 -31 -59
-60 -101 -83 -60 -33 -71 -36 -150 -36 -79 0 -90 3 -150 36 -42 23 -78 52
-101 83 -74 97 -69 -15 -69 1587 0 1301 2 1443 16 1486 34 99 106 172 204 206
38 14 114 16 512 17 280 0 497 -4 544 -11z"/>
<path d="M3360 4081 l0 -481 265 0 c156 0 286 5 317 11 169 36 309 164 359
331 28 90 23 224 -10 311 -48 124 -166 238 -291 282 -48 17 -90 20 -347 23
l-293 3 0 -480z"/>
</g>
</svg>
