<svg version="1.0" xmlns="http://www.w3.org/2000/svg" width="960" height="960" viewBox="0 0 720 720"><path d="M262.8 29c-12 1.9-25.3 9.4-35.4 20.1-6.3 6.8-13.4 16.4-25.9 35.4-5.5 8.4-12.5 17.7-15.9 21-9.1 9-14.7 11.4-50.4 21.4-7.8 2.3-17.6 5.4-21.6 7.1-23.4 9.8-36.6 24.3-42.4 46.8-1.5 5.8-1.7 11.1-1.4 40.7.3 36.4-.2 41.3-4.6 50-3.4 6.9-6.3 11-18.6 26.3-24 30-31.1 44.7-31 64.2.1 19.7 7 34.1 30.6 63.6 12.2 15.2 15.6 20 19 26.9 4.4 8.7 4.9 13.6 4.6 50-.3 38.4 0 41.2 7.2 56 2.8 5.9 5.6 9.8 10.4 14.5 11.5 11.4 22.8 17 49.7 24.5 34 9.6 42.1 13.3 50.8 23.1 2.4 2.7 10.7 14.3 18.4 25.8 25.4 37.9 40.3 48.9 65.7 48.9 12.6 0 22.1-1.9 39-7.8 6.9-2.4 18.6-6.4 26-9 23.7-8.3 30.5-7.8 65 5 22.9 8.5 33.5 11.4 44.5 12.2 21.5 1.6 40.7-7.7 56.5-27.4 3.5-4.3 11.4-15.6 17.7-25 6.2-9.5 14-20.1 17.3-23.6 9-9.7 15.7-12.7 48-21.6 26.5-7.4 38.7-13.1 49.6-23.3 11.2-10.5 17.2-23.4 19.4-41.8.6-5.2.8-19.5.4-37-.9-39.6-.6-40.8 22.1-69 24.8-30.9 31.6-45 31.6-65 0-19.9-6.8-34.1-31.5-65-11.5-14.4-17.4-23-20-29.4-2-4.8-2.1-7-2.2-41.6-.1-37.6-.4-41.3-4.5-53.7-4.8-14.5-16.6-27.1-33.3-35.2-9.9-4.9-17.2-7.4-42.9-14.5-7-2-16.2-5-20.5-6.8-11-4.5-18.7-12.6-33.3-34.8-19.7-29.9-29-39.8-44.4-47.1-18.6-9-35.7-7.4-74.5 6.6-28.9 10.4-27.3 10-40 10-11.1-.1-12-.3-24.5-4.7C305.7 34.5 298 32 291 30.6c-10.3-2-21.4-2.6-28.2-1.6zm136.8 172.1c25 3.5 48.5 15.6 66 34.1 13 13.7 22.2 30.1 27.1 48.5 2.5 8.9 2.7 11.4 2.7 28.3s-.2 19.4-2.7 28.3c-3 11.2-9.5 25.6-15.8 34.8-14.7 21.6-38.9 38.5-65.7 45.6-9.3 2.5-11.1 2.7-42.4 3.1l-32.8.4v45.3c0 50.6-.1 51.1-6.9 60.1-2.3 3.1-5.9 6-10.1 8.3-6 3.3-7.1 3.6-15 3.6s-9-.3-15-3.6c-4.2-2.3-7.8-5.2-10.1-8.3-7.4-9.7-6.9 1.5-6.9-158.7 0-130.1.2-144.3 1.6-148.6 3.4-9.9 10.6-17.2 20.4-20.6 3.8-1.4 11.4-1.6 51.2-1.7 28 0 49.7.4 54.4 1.1z"/><path d="M336 311.9V360h26.5c15.6 0 28.6-.5 31.7-1.1 16.9-3.6 30.9-16.4 35.9-33.1 2.8-9 2.3-22.4-1-31.1-4.8-12.4-16.6-23.8-29.1-28.2-4.8-1.7-9-2-34.7-2.3l-29.3-.3v48z"/></svg>