<svg xmlns="http://www.w3.org/2000/svg" width="345" height="255"><g fill="#035945" fill-rule="evenodd" opacity=".5"><path d="M369.9 301.52c-10.319-12.692-20.04-24.683-23.599-35.654-3.825-11.838-3.024-27.83-2.16-44.74 1.258-25.574 2.732-54.55-13.356-76.786-16.254-22.414-44.415-29.983-69.26-36.66-16.177-4.346-31.465-8.5-41.25-15.597-9.595-7.021-18.11-20.21-27.12-34.176C179.1 36.143 163.204 11.46 136.593 2.783 113.399-4.672 85.39 4.172 60.508 13.754c-16.05 6.168-31.186 11.953-44.033 11.953-12.836 0-27.971-5.785-44.021-11.953C-52.467 4.21-80.476-4.672-103.63 2.783c-26.61 8.677-42.56 33.322-56.602 55.124-8.984 13.928-17.499 27.116-27.094 34.137-9.823 7.175-25.098 11.29-41.276 15.636-24.806 6.677-52.942 14.284-69.22 36.711-16.102 22.147-14.628 51.161-13.357 76.736.902 16.96 1.665 32.94-2.122 44.739-3.558 10.933-13.28 22.962-23.6 35.654C-353.343 321.768-372 344.742-372 373.337c0 28.556 18.605 51.518 35.062 71.804 10.319 12.692 20.04 24.683 23.586 35.667 3.838 11.825 3.037 27.817 2.173 44.726-1.27 25.574-2.745 54.551 13.356 76.787 16.241 22.427 44.415 29.983 69.26 36.66 16.177 4.345 31.452 8.5 41.237 15.597 9.595 7.021 18.11 20.21 27.132 34.188 14.055 21.765 29.953 46.434 56.564 55.125 23.103 7.416 51.163-1.478 76.084-10.984 16.05-6.13 31.185-11.94 44.02-11.94 12.848 0 27.984 5.785 44.034 11.94C78.58 739.864 97.311 747 116.233 747c7.155 0 14.005-1.045 20.308-3.11 26.623-8.69 42.56-33.321 56.615-55.124 8.972-13.927 17.486-27.116 27.119-34.15 9.785-7.174 25.073-11.29 41.288-15.635 24.807-6.677 52.93-14.233 69.222-36.66 16.088-22.147 14.614-51.174 13.356-76.787-.864-16.948-1.665-32.94 2.16-44.726 3.558-10.946 13.28-22.975 23.6-35.667C386.343 424.931 405 401.97 405 373.337c-.038-28.556-18.656-51.531-35.1-71.817" opacity=".1"/><path d="M339.972 308.072c-9.416-11.536-18.287-22.435-21.534-32.408-3.49-10.76-2.76-25.296-1.971-40.667 1.148-23.246 2.493-49.585-12.187-69.796-14.832-20.374-40.528-27.254-63.198-33.324-14.762-3.95-28.712-7.725-37.64-14.177-8.756-6.382-16.525-18.37-24.747-31.064-12.825-19.783-27.331-42.219-51.613-50.107-21.163-6.775-46.72 1.263-69.425 9.973C43.01 52.108 29.2 57.367 17.477 57.367c-11.712 0-25.523-5.259-40.169-10.865-22.74-8.675-48.297-16.748-69.425-9.973-24.282 7.888-38.834 30.289-51.648 50.107-8.198 12.66-15.968 24.648-24.723 31.03-8.963 6.52-22.902 10.262-37.663 14.211-22.636 6.07-48.309 12.985-63.163 33.37-14.692 20.13-13.347 46.504-12.188 69.75.824 15.417 1.52 29.941-1.936 40.667-3.247 9.938-12.118 20.872-21.534 32.408C-319.977 326.477-337 347.36-337 373.352c0 25.956 16.976 46.828 31.993 65.268 9.416 11.536 18.287 22.435 21.522 32.42 3.502 10.748 2.772 25.284 1.983 40.654-1.16 23.247-2.504 49.585 12.188 69.797 14.82 20.385 40.527 27.254 63.198 33.323 14.761 3.95 28.7 7.726 37.628 14.177 8.755 6.382 16.525 18.37 24.758 31.076 12.825 19.784 27.331 42.208 51.613 50.107 21.082 6.74 46.686-1.344 69.425-9.984 14.646-5.572 28.457-10.853 40.169-10.853 11.723 0 25.534 5.258 40.18 10.853 16.49 6.324 33.582 12.81 50.848 12.81 6.529 0 12.779-.95 18.53-2.826 24.294-7.9 38.835-30.289 51.66-50.107 8.187-12.66 15.956-24.647 24.746-31.04 8.93-6.522 22.879-10.263 37.675-14.213 22.636-6.069 48.298-12.938 63.164-33.323 14.68-20.13 13.335-46.516 12.187-69.797-.789-15.405-1.52-29.94 1.971-40.655 3.247-9.95 12.118-20.883 21.534-32.42C354.977 420.25 372 399.379 372 373.353c-.035-25.957-17.023-46.84-32.028-65.28" opacity=".15"/><path d="M305.36 315.22c-8.42-10.363-16.352-20.155-19.256-29.114-3.121-9.667-2.468-22.726-1.763-36.534 1.027-20.884 2.23-44.546-10.898-62.704-13.262-18.303-36.24-24.484-56.512-29.937-13.2-3.548-25.675-6.94-33.66-12.736-7.828-5.734-14.775-16.504-22.127-27.908-11.469-17.773-24.44-37.928-46.154-45.015-18.924-6.087-41.778 1.135-62.081 8.96-13.097 5.036-25.446 9.76-35.93 9.76-10.473 0-22.823-4.724-35.919-9.76-20.334-7.794-43.188-15.047-62.081-8.96-21.713 7.087-34.727 27.211-46.185 45.015-7.331 11.373-14.278 22.143-22.107 27.877-8.016 5.858-20.48 9.219-33.68 12.767-20.24 5.453-43.198 11.665-56.481 29.979-13.138 18.085-11.935 41.778-10.899 62.662.737 13.85 1.359 26.898-1.731 36.534-2.904 8.928-10.836 18.75-19.256 29.115-13.418 16.534-28.64 35.296-28.64 58.646 0 23.319 15.18 42.07 28.609 58.635 8.42 10.364 16.352 20.156 19.245 29.125 3.132 9.657 2.479 22.716 1.773 36.524-1.036 20.884-2.24 44.546 10.899 62.704 13.252 18.314 36.24 24.484 56.512 29.937 13.2 3.548 25.664 6.94 33.649 12.736 7.829 5.734 14.776 16.504 22.138 27.918 11.469 17.773 24.44 37.918 46.154 45.015 18.851 6.056 41.747-1.207 62.081-8.97 13.096-5.005 25.446-9.75 35.92-9.75 10.483 0 22.832 4.725 35.929 9.75C67.654 673.173 82.939 679 98.379 679c5.837 0 11.426-.853 16.57-2.539 21.723-7.097 34.726-27.21 46.195-45.015 7.32-11.373 14.268-22.143 22.128-27.886 7.984-5.859 20.458-9.22 33.69-12.768 20.24-5.453 43.188-11.623 56.481-29.937 13.128-18.085 11.925-41.789 10.898-62.704-.705-13.84-1.358-26.898 1.763-36.524 2.904-8.938 10.836-18.76 19.256-29.125C318.778 416 334 397.248 334 373.867c-.031-23.32-15.222-42.08-28.64-58.646" opacity=".2"/></g></svg>