<svg width="499" height="1204" fill="none" xmlns="http://www.w3.org/2000/svg"><g opacity=".7" fill-rule="evenodd" clip-rule="evenodd"><path opacity=".1" d="M253.765 796.219c-.36-18.737-.676-36.421 3.853-48.837 4.899-13.387 16.904-27.263 29.613-41.923 19.179-22.206 40.952-47.332 42.118-78.757 1.142-31.702-18.937-58.396-36.651-81.945-11.536-15.332-22.405-29.864-26.229-43.174-3.707-13.106-2.088-31.02-.368-49.985 2.669-29.564 5.732-63.064-12.165-89.665-15.674-23.087-47.194-34.853-76.414-43.747-18.838-5.75-36.581-11.199-48.178-20.26-11.585-9.051-21.165-24.948-31.301-41.836-15.76-26.192-34.776-53.964-60.934-63.561-30.141-10.93-61.923.076-89.98 9.861-17.935 6.241-34.925 12.146-48.538 11.72-13.928-.45-30.62-7.505-48.287-14.99-27.101-11.464-57.864-24.435-88.38-15.664-30.157 8.644-49.297 35.884-66.192 59.873-11.151 15.952-21.736 30.918-33.479 38.903-10.925 7.363-28.186 11.369-46.454 15.553-29.128 6.687-62.175 14.278-82.349 40.098-20.146 25.786-19.553 59.641-19.01 89.565.36 18.737.675 36.42-3.874 48.839-4.878 13.385-16.883 27.261-29.593 41.92-19.189 22.198-40.963 47.324-42.117 78.757-1.163 31.705 18.936 58.396 36.651 81.946 11.536 15.332 22.393 29.855 26.218 43.165 3.707 13.106 2.087 31.019.37 50.005-2.669 29.565-5.723 63.052 12.165 89.666 15.621 22.989 47.223 34.745 76.423 43.735 18.811 5.784 36.572 11.211 48.157 20.262 11.597 9.06 21.177 24.958 31.322 41.834 11.403 19.026 23.276 38.683 40.355 52.023 6.458 5.05 13.378 8.93 20.524 11.51 30.162 10.93 61.923-.07 89.991-9.85 17.924-6.25 34.914-12.15 48.571-11.71 13.893.42 30.596 7.48 48.298 15 27.101 11.46 57.816 24.47 88.344 15.71 30.146-8.66 49.294-35.91 66.228-59.922 11.177-15.913 21.736-30.919 33.504-38.865 10.934-7.374 28.196-11.381 46.464-15.564 29.1-6.653 62.139-14.232 82.339-40.087 20.112-25.813 19.516-59.688 18.985-89.603z" fill="url(#paint0_linear)"/><path opacity=".15" d="M223.767 780.436c-.38-17.094-.717-33.225 3.386-44.539 4.438-12.198 15.367-24.823 26.938-38.16 17.459-20.204 37.282-43.064 38.26-71.726.956-28.916-17.461-53.321-33.709-74.852-10.581-14.018-20.551-27.304-24.082-39.456-3.422-11.965-1.992-28.302-.473-45.597 2.356-26.961 5.063-57.511-11.361-81.827-14.384-21.102-43.212-31.922-69.931-40.116-17.226-5.297-33.45-10.317-44.07-18.614-10.609-8.288-19.404-22.816-28.711-38.249-14.47-23.936-31.919-49.322-55.843-58.149-27.567-10.053-56.571-.101-82.176 8.748-16.368 5.643-31.873 10.983-44.312 10.556-12.725-.448-27.994-6.93-44.155-13.806-24.79-10.532-52.93-22.45-80.784-14.533-27.528 7.802-44.938 32.597-60.307 54.434-10.143 14.52-19.772 28.144-30.478 35.395-9.961 6.687-25.719 10.294-42.397 14.059-26.592 6.02-56.762 12.853-75.121 36.351-18.334 23.466-17.699 54.35-17.121 81.648.381 17.094.718 33.225-3.404 44.541-4.42 12.196-15.349 24.821-26.919 38.158-17.47 20.196-37.293 43.056-38.261 71.726-.974 28.918 17.461 53.321 33.709 74.852 10.582 14.018 20.541 27.296 24.072 39.447 3.422 11.966 1.992 28.302.475 45.616-2.356 26.962-5.054 57.501 11.362 81.827 14.334 21.014 43.237 31.825 69.938 40.106 17.202 5.328 33.443 10.327 44.052 18.616 10.619 8.297 19.415 22.825 28.73 38.247 10.47 17.387 21.371 35.348 37.011 47.567 5.914 4.62 12.246 8.185 18.781 10.559 27.586 10.055 56.572.101 82.187-8.739 16.358-5.652 31.863-10.991 44.341-10.551 12.694.424 27.973 6.914 44.165 13.815 24.79 10.532 52.888 22.48 80.752 14.57 27.517-7.805 44.935-32.611 60.34-54.471 10.166-14.485 19.772-28.144 30.501-35.36 9.97-6.697 25.728-10.304 42.405-14.07 26.568-5.988 56.73-12.811 75.113-36.34 18.302-23.491 17.665-54.394 17.097-81.683z" fill="url(#paint1_linear)"/><path opacity=".2" d="M185.452 762.789c-.296-15.325-.556-29.787 3.146-39.941 4.006-10.948 13.823-22.295 24.216-34.283 15.684-18.159 33.489-38.706 34.439-64.406.931-25.927-15.494-47.761-29.985-67.022-9.437-12.541-18.327-24.427-21.457-35.312-3.033-10.719-1.711-25.37-.306-40.88 2.179-24.179 4.681-51.576-9.959-73.333-12.823-18.883-38.604-28.509-62.504-35.787-15.408-4.704-29.92-9.163-39.406-16.574-9.477-7.403-17.314-20.406-25.606-34.219-12.893-21.422-28.448-44.137-49.844-51.989-24.654-8.942-50.647.056-73.593 8.056-14.669 5.101-28.564 9.929-39.698 9.579-11.392-.369-25.044-6.141-39.495-12.264-22.167-9.379-47.329-19.991-72.287-12.821-24.665 7.066-40.316 29.342-54.132 48.96-9.119 13.045-17.775 25.284-27.378 31.813-8.935 6.021-23.052 9.295-37.993 12.715-23.823 5.466-50.851 11.67-67.348 32.785-16.475 21.087-15.986 48.774-15.539 73.247.297 15.325.556 29.787-3.163 39.943-3.988 10.946-13.806 22.293-24.199 34.281-15.693 18.152-33.499 38.699-34.439 64.406-.948 25.929 15.494 47.76 29.985 67.022 9.437 12.541 18.318 24.419 21.448 35.305 3.033 10.719 1.711 25.369.308 40.896-2.179 24.179-4.674 51.566 9.959 73.334 12.779 18.803 38.627 28.421 62.511 35.777 15.386 4.732 29.913 9.172 39.39 16.576 9.486 7.411 17.323 20.413 25.622 34.217 9.328 15.561 19.041 31.636 33.012 42.551 5.282 4.127 10.943 7.306 16.787 9.418 24.671 8.94 50.647-.056 73.602-8.048 14.66-5.109 28.555-9.937 39.725-9.574 11.363.347 25.025 6.126 39.504 12.271 22.167 9.379 47.29 20.021 72.258 12.858 24.655-7.073 40.313-29.358 54.161-48.997 9.14-13.013 17.775-25.284 27.399-31.781 8.942-6.031 23.06-9.305 38-12.725 23.801-5.438 50.822-11.632 67.341-32.776 16.446-21.108 15.956-48.813 15.518-73.278z" fill="url(#paint2_linear)"/></g><defs><linearGradient id="paint0_linear" x1="-471.411" y1="35.934" x2="-738.437" y2="757.349" gradientUnits="userSpaceOnUse"><stop stop-color="#14C39A"/><stop offset=".242" stop-color="#82A5AF"/><stop offset=".498" stop-color="#F785C4"/><stop offset=".768" stop-color="#34D2FB"/><stop offset="1" stop-color="#14C39A"/></linearGradient><linearGradient id="paint1_linear" x1="-440.833" y1="84.903" x2="-685.158" y2="741.361" gradientUnits="userSpaceOnUse"><stop stop-color="#14C39A"/><stop offset=".498" stop-color="#F785C4"/><stop offset=".768" stop-color="#34D2FB"/><stop offset="1" stop-color="#14C39A"/></linearGradient><linearGradient id="paint2_linear" x1="-407.747" y1="140.919" x2="-626.16" y2="730.859" gradientUnits="userSpaceOnUse"><stop stop-color="#14C39A"/><stop offset=".254" stop-color="#3BD2FA"/><stop offset=".498" stop-color="#F785C4"/><stop offset=".768" stop-color="#34D2FB"/><stop offset="1" stop-color="#14C39A"/></linearGradient></defs></svg>