<svg xmlns="http://www.w3.org/2000/svg" width="764" height="472" viewBox="0 0 764 472">
  <g fill="#035945" fill-rule="evenodd" opacity=".5" transform="translate(-106 -867)">
    <path d="M1330.07327,540.474984 C1311.57345,517.725243 1294.14443,496.231764 1287.76519,476.565573 C1280.90749,455.346187 1282.34282,426.680601 1283.89207,396.370455 C1286.14759,350.528358 1288.79042,298.587686 1259.94711,258.729958 C1230.80761,218.552456 1180.32042,204.984839 1135.7796,193.016101 C1106.7768,185.227284 1079.36881,177.781084 1061.82588,165.058589 C1044.62469,152.47314 1029.36006,128.832597 1013.2069,103.798746 C988.008865,64.7861394 959.507294,20.5429198 911.79963,4.98812761 C870.220601,-8.37391857 820.006804,7.47780801 775.397632,24.6543187 C746.622665,35.7094133 719.488077,46.0792748 696.454434,46.0792748 C673.443574,46.0792748 646.308986,35.7094133 617.534019,24.6543187 C572.856498,7.54633132 522.642701,-8.37391857 481.132021,4.98812761 C433.424356,20.5429198 404.831654,64.7176161 379.656406,103.798746 C363.548804,128.764073 348.284175,152.404617 331.082987,164.990065 C313.471705,177.849607 286.086504,185.227284 257.083707,193.016101 C212.611233,204.984839 162.169605,218.620979 132.984544,258.821323 C104.118446,298.519163 106.761277,350.528358 109.03958,396.370455 C110.657175,426.771965 112.024157,455.41471 105.234814,476.565573 C98.8555657,496.163241 81.426548,517.725243 62.9267279,540.474984 C33.4454876,576.769499 0,617.95201 0,669.207449 C0,720.394364 33.3543554,761.554035 62.8583789,797.917073 C81.3581989,820.666814 98.7872166,842.160293 105.143682,861.849325 C112.024157,883.04587 110.588826,911.711456 109.03958,942.021602 C106.761277,987.863699 104.118446,1039.80437 132.984544,1079.6621 C162.101256,1119.86244 212.611233,1133.40722 257.152056,1145.37596 C286.154853,1153.16477 313.540054,1160.61097 331.082987,1173.33347 C348.284175,1185.91892 363.548804,1209.55946 379.724755,1234.61615 C404.922786,1273.62876 433.424356,1317.84914 481.132021,1333.42677 C522.551568,1346.72029 572.856498,1330.7772 617.534019,1313.73774 C646.308986,1302.75117 673.443574,1292.33562 696.454434,1292.33562 C719.488077,1292.33562 746.622665,1302.70548 775.397632,1313.73774 C807.7951,1326.20898 841.377286,1339 875.301217,1339 C888.128063,1339 900.408116,1337.12703 911.708498,1333.42677 C959.438945,1317.84914 988.008865,1273.69728 1013.2069,1234.61615 C1029.29171,1209.65082 1044.55634,1186.01028 1061.82588,1173.40199 C1079.36881,1160.54245 1106.7768,1153.16477 1135.84794,1145.37596 C1180.32042,1133.40722 1230.73926,1119.86244 1259.94711,1079.6621 C1288.79042,1039.96426 1286.14759,987.932222 1283.89207,942.021602 C1282.34282,911.642933 1280.90749,882.977347 1287.76519,861.849325 C1294.14443,842.228816 1311.57345,820.666814 1330.07327,797.917073 C1359.55451,761.691082 1393,720.531411 1393,669.207449 C1392.93165,618.020534 1359.55451,576.838022 1330.07327,540.474984" opacity=".1"/>
    <path d="M1276.58444,552.23081 C1259.70485,531.553862 1243.80228,512.018713 1237.98173,494.144363 C1231.72464,474.858334 1233.03426,448.804549 1234.44783,421.256044 C1236.50581,379.590748 1238.91718,332.382535 1212.59998,296.156355 C1186.01254,259.639536 1139.94706,247.308103 1099.30715,236.429869 C1072.84444,229.350713 1047.83687,222.582957 1031.83036,211.019643 C1016.13567,199.58089 1002.20793,178.094302 987.469465,155.341355 C964.478296,119.883295 938.472916,79.6711975 894.943525,65.5336455 C857.006019,53.3890523 811.189984,67.7964842 770.487717,83.4079954 C744.232884,93.4558297 719.474764,102.880864 698.458425,102.880864 C677.462873,102.880864 652.704753,93.4558297 626.44992,83.4079954 C585.68529,67.8587642 539.869255,53.3890523 501.994112,65.5336455 C458.464721,79.6711975 432.37619,119.821015 409.405809,155.341355 C394.708923,178.032022 380.781182,199.51861 365.086487,210.957363 C349.017615,222.645237 324.03083,229.350713 297.56812,236.429869 C256.990579,247.308103 210.966668,259.701816 184.337657,296.239395 C157.999673,332.320255 160.411043,379.590748 162.489811,421.256044 C163.965736,448.887589 165.212996,474.920614 159.018269,494.144363 C153.19772,511.956433 137.295149,531.553862 120.415557,552.23081 C93.5163063,585.218432 63,622.648691 63,669.234104 C63,715.757238 93.4331556,753.166737 120.353194,786.216638 C137.232786,806.893586 153.135357,826.428735 158.935118,844.323845 C165.212996,863.589114 163.903372,889.6429 162.489811,917.191404 C160.411043,958.8567 157.999673,1006.06491 184.337657,1042.29109 C210.904305,1078.82867 256.990579,1091.13935 297.630483,1102.01758 C324.093193,1109.09674 349.079978,1115.86449 365.086487,1127.42781 C380.781182,1138.86656 394.708923,1160.35315 409.468172,1183.12685 C432.459341,1218.58491 458.464721,1258.77625 501.994112,1272.93456 C539.786104,1285.01688 585.68529,1270.5264 626.44992,1255.03945 C652.704753,1245.0539 677.462873,1235.58734 698.458425,1235.58734 C719.474764,1235.58734 744.232884,1245.01238 770.487717,1255.03945 C800.04779,1266.37441 830.688823,1278 861.64167,1278 C873.345131,1278 884.549688,1276.29768 894.860374,1272.93456 C938.410552,1258.77625 964.478296,1218.64719 987.469465,1183.12685 C1002.14556,1160.43619 1016.0733,1138.9496 1031.83036,1127.49009 C1047.83687,1115.80221 1072.84444,1109.09674 1099.36952,1102.01758 C1139.94706,1091.13935 1185.95018,1078.82867 1212.59998,1042.29109 C1238.91718,1006.21023 1236.50581,958.91898 1234.44783,917.191404 C1233.03426,889.58062 1231.72464,863.526834 1237.98173,844.323845 C1243.80228,826.491015 1259.70485,806.893586 1276.58444,786.216638 C1303.48369,753.291297 1334,715.881798 1334,669.234104 C1333.93764,622.71097 1303.48369,585.280712 1276.58444,552.23081" opacity=".15"/>
    <path d="M1214.6377,565.179356 C1199.5377,546.609179 1185.31172,529.064465 1180.10482,513.01133 C1174.50741,495.690353 1175.67896,472.291185 1176.94349,447.549594 C1178.7845,410.129571 1180.94164,367.731397 1157.39904,335.196299 C1133.61468,302.400175 1092.40583,291.32519 1056.05054,281.555338 C1032.37776,275.197477 1010.00671,269.119286 995.687743,258.734158 C981.647722,248.460898 969.188365,229.163576 956.003762,208.728924 C935.436525,176.883682 912.17286,140.768791 873.232721,128.071713 C839.29492,117.164531 798.309215,130.103991 761.898139,144.124847 C738.411321,153.148909 716.26342,161.613628 697.462808,161.613628 C678.680792,161.613628 656.532891,153.148909 633.046073,144.124847 C596.579209,130.159925 555.593504,117.164531 521.711491,128.071713 C482.771352,140.768791 459.433303,176.827748 438.884662,208.728924 C425.737251,229.107642 413.277894,248.404963 399.237872,258.678224 C384.863122,269.175221 362.510664,275.197477 338.837886,281.555338 C302.538386,291.32519 261.36672,302.456109 237.545174,335.270878 C213.983972,367.675463 216.141114,410.129571 218.00072,447.549594 C219.32104,472.365764 220.436803,495.746287 214.895178,513.01133 C209.688283,529.00853 195.462301,546.609179 180.362304,565.179356 C156.299009,594.805872 129,628.422365 129,670.261196 C129,712.044093 156.224625,745.641942 180.306516,775.324392 C195.406513,793.894569 209.632495,811.439283 214.820794,827.511062 C220.436803,844.813395 219.265251,868.212563 218.00072,892.954153 C216.141114,930.374177 213.983972,972.772351 237.545174,1005.30745 C261.310932,1038.12222 302.538386,1049.17856 338.893674,1058.94841 C362.566452,1065.30627 384.91891,1071.38446 399.237872,1081.76959 C413.277894,1092.04285 425.737251,1111.34017 438.94045,1131.79347 C459.507687,1163.63871 482.771352,1199.73496 521.711491,1212.45068 C555.519119,1223.30193 596.579209,1210.28789 633.046073,1196.3789 C656.532891,1187.41077 678.680792,1178.90876 697.462808,1178.90876 C716.26342,1178.90876 738.411321,1187.37348 761.898139,1196.3789 C788.341729,1206.55894 815.752314,1217 843.44184,1217 C853.911419,1217 863.934693,1215.47113 873.158336,1212.45068 C912.117072,1199.73496 935.436525,1163.69464 956.003762,1131.79347 C969.132577,1111.41475 981.591934,1092.11743 995.687743,1081.82552 C1010.00671,1071.32853 1032.37776,1065.30627 1056.10633,1058.94841 C1092.40583,1049.17856 1133.5589,1038.12222 1157.39904,1005.30745 C1180.94164,972.902864 1178.7845,930.430111 1176.94349,892.954153 C1175.67896,868.156629 1174.50741,844.757461 1180.10482,827.511062 C1185.31172,811.495217 1199.5377,793.894569 1214.6377,775.324392 C1238.70099,745.75381 1266,712.155961 1266,670.261196 C1265.94421,628.4783 1238.70099,594.861806 1214.6377,565.179356" opacity=".2"/>
  </g>
</svg>
