<svg width="499" height="1204" viewBox="0 0 499 1204" fill="none" xmlns="http://www.w3.org/2000/svg">
<g opacity="0.7">
<path opacity="0.1" fill-rule="evenodd" clip-rule="evenodd" d="M253.765 796.219C253.405 777.482 253.089 759.798 257.618 747.382C262.517 733.995 274.522 720.119 287.231 705.459C306.41 683.253 328.183 658.127 329.349 626.702C330.491 595 310.412 568.306 292.698 544.757C281.162 529.425 270.293 514.893 266.469 501.583C262.762 488.477 264.381 470.563 266.101 451.598C268.77 422.034 271.833 388.534 253.936 361.933C238.262 338.846 206.742 327.08 177.522 318.186C158.684 312.436 140.941 306.987 129.344 297.926C117.759 288.875 108.179 272.978 98.0429 256.09C82.2826 229.898 63.2675 202.126 37.1092 192.529C6.96789 181.599 -24.814 192.605 -52.8705 202.39C-70.8061 208.631 -87.7958 214.536 -101.409 214.11C-115.337 213.66 -132.029 206.605 -149.696 199.12C-176.797 187.656 -207.56 174.685 -238.076 183.456C-268.233 192.1 -287.373 219.34 -304.268 243.329C-315.419 259.281 -326.004 274.247 -337.747 282.232C-348.672 289.595 -365.933 293.601 -384.201 297.785C-413.329 304.472 -446.376 312.063 -466.55 337.883C-486.696 363.669 -486.103 397.524 -485.56 427.448C-485.2 446.185 -484.885 463.868 -489.434 476.287C-494.312 489.672 -506.317 503.548 -519.027 518.207C-538.216 540.405 -559.99 565.531 -561.144 596.964C-562.307 628.669 -542.208 655.36 -524.493 678.91C-512.957 694.242 -502.1 708.765 -498.275 722.075C-494.568 735.181 -496.188 753.094 -497.905 772.08C-500.574 801.645 -503.628 835.132 -485.74 861.746C-470.119 884.735 -438.517 896.491 -409.317 905.481C-390.506 911.265 -372.745 916.692 -361.16 925.743C-349.563 934.803 -339.983 950.701 -329.838 967.577C-318.435 986.603 -306.562 1006.26 -289.483 1019.6C-283.025 1024.65 -276.105 1028.53 -268.959 1031.11C-238.797 1042.04 -207.036 1031.04 -178.968 1021.26C-161.044 1015.01 -144.054 1009.11 -130.397 1009.55C-116.504 1009.97 -99.8008 1017.03 -82.099 1024.55C-54.9978 1036.01 -24.2827 1049.02 6.24465 1040.26C36.3907 1031.6 55.539 1004.35 72.4729 980.338C83.6495 964.425 94.2091 949.419 105.977 941.473C116.911 934.099 134.173 930.092 152.441 925.909C181.541 919.256 214.58 911.677 234.78 885.822C254.892 860.009 254.296 826.134 253.765 796.219Z" fill="url(#paint0_linear)"/>
<path opacity="0.15" fill-rule="evenodd" clip-rule="evenodd" d="M223.767 780.436C223.387 763.342 223.05 747.211 227.153 735.897C231.591 723.699 242.52 711.074 254.091 697.737C271.55 677.533 291.373 654.673 292.351 626.011C293.307 597.095 274.89 572.69 258.642 551.159C248.061 537.141 238.091 523.855 234.56 511.703C231.138 499.738 232.568 483.401 234.087 466.106C236.443 439.145 239.15 408.595 222.726 384.279C208.342 363.177 179.514 352.357 152.795 344.163C135.569 338.866 119.345 333.846 108.725 325.549C98.1163 317.261 89.3205 302.733 80.0138 287.3C65.5433 263.364 48.0951 237.978 24.171 229.151C-3.39555 219.098 -32.4003 229.05 -58.0051 237.899C-74.3734 243.542 -89.8785 248.882 -102.317 248.455C-115.042 248.007 -130.311 241.525 -146.472 234.649C-171.262 224.117 -199.402 212.199 -227.256 220.116C-254.784 227.918 -272.194 252.713 -287.563 274.55C-297.706 289.07 -307.335 302.694 -318.041 309.945C-328.002 316.632 -343.76 320.239 -360.438 324.004C-387.03 330.024 -417.2 336.857 -435.559 360.355C-453.893 383.821 -453.258 414.705 -452.68 442.003C-452.299 459.097 -451.962 475.228 -456.084 486.544C-460.504 498.74 -471.433 511.365 -483.003 524.702C-500.473 544.898 -520.296 567.758 -521.264 596.428C-522.238 625.346 -503.803 649.749 -487.555 671.28C-476.973 685.298 -467.014 698.576 -463.483 710.727C-460.061 722.693 -461.491 739.029 -463.008 756.343C-465.364 783.305 -468.062 813.844 -451.646 838.17C-437.312 859.184 -408.409 869.995 -381.708 878.276C-364.506 883.604 -348.265 888.603 -337.656 896.892C-327.037 905.189 -318.241 919.717 -308.926 935.139C-298.456 952.526 -287.555 970.487 -271.915 982.706C-266.001 987.326 -259.669 990.891 -253.134 993.265C-225.548 1003.32 -196.562 993.366 -170.947 984.526C-154.589 978.874 -139.084 973.535 -126.606 973.975C-113.912 974.399 -98.6333 980.889 -82.4406 987.79C-57.6501 998.322 -29.5535 1010.27 -1.68865 1002.36C25.8282 994.555 43.2464 969.749 58.6507 947.889C68.8174 933.404 78.4231 919.745 89.1524 912.529C99.1211 905.832 114.88 902.225 131.557 898.459C158.125 892.471 188.287 885.648 206.67 862.119C224.972 838.628 224.335 807.725 223.767 780.436Z" fill="url(#paint1_linear)"/>
<path opacity="0.2" fill-rule="evenodd" clip-rule="evenodd" d="M185.452 762.789C185.156 747.464 184.896 733.002 188.598 722.848C192.604 711.9 202.421 700.553 212.814 688.565C228.498 670.406 246.303 649.859 247.253 624.159C248.184 598.232 231.759 576.398 217.268 557.137C207.831 544.596 198.941 532.71 195.811 521.825C192.778 511.106 194.1 496.455 195.505 480.945C197.684 456.766 200.186 429.369 185.546 407.612C172.723 388.729 146.942 379.103 123.042 371.825C107.634 367.121 93.1216 362.662 83.6358 355.251C74.1593 347.848 66.3222 334.845 58.0301 321.032C45.1371 299.61 29.5818 276.895 8.18602 269.043C-16.4675 260.101 -42.4605 269.099 -65.4068 277.099C-80.0755 282.2 -93.9707 287.028 -105.105 286.678C-116.497 286.309 -130.149 280.537 -144.6 274.414C-166.767 265.035 -191.929 254.423 -216.887 261.593C-241.552 268.659 -257.203 290.935 -271.019 310.553C-280.138 323.598 -288.794 335.837 -298.397 342.366C-307.332 348.387 -321.449 351.661 -336.39 355.081C-360.213 360.547 -387.241 366.751 -403.738 387.866C-420.213 408.953 -419.724 436.64 -419.277 461.113C-418.98 476.438 -418.721 490.9 -422.44 501.056C-426.428 512.002 -436.246 523.349 -446.639 535.337C-462.332 553.489 -480.138 574.036 -481.078 599.743C-482.026 625.672 -465.584 647.503 -451.093 666.765C-441.656 679.306 -432.775 691.184 -429.645 702.07C-426.612 712.789 -427.934 727.439 -429.337 742.966C-431.516 767.145 -434.011 794.532 -419.378 816.3C-406.599 835.103 -380.751 844.721 -356.867 852.077C-341.481 856.809 -326.954 861.249 -317.477 868.653C-307.991 876.064 -300.154 889.066 -291.855 902.87C-282.527 918.431 -272.814 934.506 -258.843 945.421C-253.561 949.548 -247.9 952.727 -242.056 954.839C-217.385 963.779 -191.409 954.783 -168.454 946.791C-153.794 941.682 -139.899 936.854 -128.729 937.217C-117.366 937.564 -103.704 943.343 -89.2246 949.488C-67.0576 958.867 -41.9344 969.509 -16.9672 962.346C7.68812 955.273 23.3465 932.988 37.1941 913.349C46.3336 900.336 54.9687 888.065 64.593 881.568C73.535 875.537 87.6525 872.263 102.593 868.843C126.394 863.405 153.415 857.211 169.934 836.067C186.38 814.959 185.89 787.254 185.452 762.789Z" fill="url(#paint2_linear)"/>
</g>
<defs>
<linearGradient id="paint0_linear" x1="-471.411" y1="35.9341" x2="-738.437" y2="757.349" gradientUnits="userSpaceOnUse">
<stop stop-color="#14C39A"/>
<stop offset="0.241631" stop-color="#82A5AF"/>
<stop offset="0.498235" stop-color="#F785C4"/>
<stop offset="0.768449" stop-color="#34D2FB"/>
<stop offset="1" stop-color="#14C39A"/>
</linearGradient>
<linearGradient id="paint1_linear" x1="-440.833" y1="84.9032" x2="-685.158" y2="741.361" gradientUnits="userSpaceOnUse">
<stop stop-color="#14C39A"/>
<stop offset="0.498235" stop-color="#F785C4"/>
<stop offset="0.768449" stop-color="#34D2FB"/>
<stop offset="1" stop-color="#14C39A"/>
</linearGradient>
<linearGradient id="paint2_linear" x1="-407.747" y1="140.919" x2="-626.16" y2="730.859" gradientUnits="userSpaceOnUse">
<stop stop-color="#14C39A"/>
<stop offset="0.253773" stop-color="#3BD2FA"/>
<stop offset="0.498235" stop-color="#F785C4"/>
<stop offset="0.768449" stop-color="#34D2FB"/>
<stop offset="1" stop-color="#14C39A"/>
</linearGradient>
</defs>
</svg>
