<svg width="68" height="88" fill="none" xmlns="http://www.w3.org/2000/svg"><g filter="url(#filter0_d)"><rect x="4" y="2" width="60" height="80" rx="6" fill="#2050E0"/><rect x="4" y="2" width="60" height="80" rx="6" stroke="#E7E7E7"/><path fill-rule="evenodd" clip-rule="evenodd" d="M37.49 25.89h.55c.61 0 1.103.51 1.103 1.14v4.558c0 .629-.494 1.14-1.102 1.14h-8.082c-.608 0-1.102-.511-1.102-1.14v-4.559c0-.629.494-1.14 1.102-1.14h.551V24.18c0-1.99 1.566-3.609 3.49-3.609 1.924 0 3.49 1.62 3.49 3.61v1.709zm-5.143-1.71v1.71h3.306v-1.71c0-.942-.742-1.71-1.653-1.71s-1.653.768-1.653 1.71z" fill="#fff"/><path d="M34 9l.583 1.887h1.888l-1.527 1.167.583 1.887L34 12.774l-1.526 1.167.583-1.887-1.528-1.167h1.888L34 9zm0 31.059l.583 1.888h1.888l-1.527 1.166.583 1.887L34 43.834 32.474 45l.583-1.887-1.528-1.166h1.888L34 40.059zm7.765-28.236l.583 1.888h1.887l-1.527 1.167.584 1.887-1.527-1.167-1.527 1.167.583-1.887-1.527-1.167h1.888l.583-1.888zm6.277 20.32l.583 1.888h1.888l-1.527 1.166.583 1.887-1.527-1.166-1.527 1.166.584-1.887-1.528-1.166h1.888l.583-1.888zm1.488-7.613l.582 1.887H52l-1.527 1.166.583 1.888-1.526-1.166-1.527 1.166.583-1.888-1.527-1.166h1.887l.584-1.888zm-31.06 0l.584 1.887h1.887l-1.527 1.166.584 1.888-1.527-1.166-1.527 1.166.583-1.888L16 26.417h1.888l.583-1.888zm1.287 7.613l.583 1.888h1.887L20.7 35.197l.583 1.887-1.526-1.166-1.527 1.166.583-1.887-1.527-1.166h1.887l.584-1.888zm28.285-15.429l.583 1.888h1.888l-1.527 1.167.583 1.886-1.527-1.166-1.527 1.166.584-1.886-1.528-1.167h1.888l.583-1.888zm-27.642 0l.582 1.888h1.888l-1.527 1.167.583 1.886L20.4 20.49l-1.528 1.166.584-1.886-1.527-1.167h1.887l.584-1.888zm22.777 21.933l.583 1.887h1.887l-1.527 1.167.583 1.887-1.526-1.166-1.528 1.166.584-1.887-1.527-1.167h1.887l.584-1.887zM26.235 11.823l.583 1.888h1.888l-1.527 1.167.583 1.887-1.527-1.167-1.526 1.167.583-1.887-1.527-1.167h1.887l.583-1.888zm-1.412 26.824l.584 1.888h1.887l-1.527 1.166.583 1.887-1.527-1.165-1.526 1.165.583-1.887-1.527-1.166h1.887l.583-1.888z" fill="#F8D12E"/><path fill-rule="evenodd" clip-rule="evenodd" d="M20 57.5c0 2.15 1.647 3.5 3.671 3.5 1.282 0 2.268-.517 3-1.319v-2.648h-3.274v1.451h1.556v.568c-.275.223-.753.406-1.282.406-1.108 0-1.891-.852-1.891-1.958 0-1.106.783-1.958 1.891-1.958.64 0 1.16.355 1.434.801l1.464-.77C26.071 54.73 25.156 54 23.671 54 21.647 54 20 55.35 20 57.5zm7.698 3.378v-6.766h2.848c2.135 0 3.67 1.278 3.67 3.378s-1.535 3.388-3.66 3.388h-2.858zm1.75-1.522h1.098c1.19 0 1.881-.862 1.881-1.866 0-1.045-.63-1.857-1.871-1.857h-1.109v3.723zm5.643 1.522v-6.766h3.397c1.525 0 2.36 1.024 2.36 2.252 0 1.217-.835 2.222-2.36 2.222H36.84v2.292h-1.749zm3.977-4.524c0-.467-.346-.771-.814-.771h-1.413v1.521h1.413c.468 0 .814-.294.814-.75zm6.345 4.524l-1.139-2.292h-.895v2.292H41.63v-6.766h3.397c1.505 0 2.36.994 2.36 2.252 0 1.177-.723 1.806-1.353 2.029l1.383 2.485h-2.004zm.194-4.535c0-.466-.387-.76-.844-.76h-1.384v1.521h1.384c.457 0 .843-.294.843-.76z" fill="#fff"/><path d="M14.768 67.445h1.14a2.158 2.158 0 0 0-.255-.825 1.94 1.94 0 0 0-.518-.6 2.17 2.17 0 0 0-.705-.375 2.663 2.663 0 0 0-.832-.127c-.41 0-.78.072-1.11.217-.325.145-.6.345-.825.6a2.668 2.668 0 0 0-.518.9c-.12.34-.18.71-.18 1.11 0 .39.06.755.18 1.095.12.335.293.627.518.877.225.25.5.448.825.593.33.14.7.21 1.11.21.33 0 .632-.05.907-.15a2.104 2.104 0 0 0 1.215-1.125c.125-.27.203-.573.233-.907h-1.14c-.045.36-.17.65-.375.87-.2.22-.48.33-.84.33-.265 0-.49-.05-.675-.15a1.322 1.322 0 0 1-.45-.413 1.84 1.84 0 0 1-.255-.57 3.07 3.07 0 0 1 0-1.343c.055-.22.14-.414.255-.584a1.23 1.23 0 0 1 .45-.413c.185-.105.41-.158.675-.158.145 0 .282.025.412.075a1.139 1.139 0 0 1 .623.496.93.93 0 0 1 .135.367zm3.122.9c0-.235.024-.463.075-.683.055-.22.14-.415.255-.585a1.23 1.23 0 0 1 .45-.412c.184-.105.41-.158.674-.158.265 0 .49.053.675.158.186.1.336.237.45.412.115.17.198.365.248.585a2.803 2.803 0 0 1 0 1.343c-.05.21-.133.4-.247.57-.115.17-.265.307-.45.412-.186.1-.41.15-.675.15-.265 0-.49-.05-.675-.15a1.322 1.322 0 0 1-.45-.412 1.84 1.84 0 0 1-.255-.57 2.904 2.904 0 0 1-.075-.66zm-1.178 0c0 .39.06.755.18 1.095.12.335.293.627.518.877.224.25.5.448.825.593.33.14.7.21 1.11.21.415 0 .785-.07 1.11-.21.325-.145.6-.343.825-.593.224-.25.397-.542.517-.877.12-.34.18-.705.18-1.095 0-.4-.06-.77-.18-1.11a2.668 2.668 0 0 0-.518-.9 2.375 2.375 0 0 0-.825-.6 2.698 2.698 0 0 0-1.11-.218c-.41 0-.78.073-1.11.218-.325.145-.6.345-.825.6a2.668 2.668 0 0 0-.517.9c-.12.34-.18.71-.18 1.11zm6.257-2.7V71h1.103v-3.757h.015L25.399 71h.908l1.312-3.795h.015V71h1.103v-5.355h-1.658l-1.185 3.683h-.015l-1.252-3.683h-1.658zm8.17 2.52V66.56h.915c.135 0 .265.01.39.03.125.02.235.06.33.12a.58.58 0 0 1 .225.24c.06.105.09.242.09.412 0 .17-.03.308-.09.413a.634.634 0 0 1-.225.247.953.953 0 0 1-.33.113c-.125.02-.255.03-.39.03h-.915zm-1.178-2.52V71h1.178v-1.92h1.237c.335 0 .62-.047.855-.142a1.6 1.6 0 0 0 .57-.39c.15-.16.258-.343.323-.548a2.004 2.004 0 0 0 0-1.275 1.419 1.419 0 0 0-.323-.547 1.525 1.525 0 0 0-.57-.383 2.18 2.18 0 0 0-.855-.15h-2.415zm5.19 0V71h3.787v-.99h-2.61v-4.365h-1.177zm4.633 0V71h1.178v-5.355h-1.178zm3.75 3.285l.697-1.965h.015l.675 1.965h-1.387zm.112-3.285L41.621 71h1.185l.42-1.192h2.003L45.634 71h1.222l-2.002-5.355h-1.208zm3.86 0V71h1.102v-3.585h.015L50.85 71h1.178v-5.355h-1.102v3.593h-.016l-2.234-3.593h-1.17zm6.931.99V71h1.178v-4.365h1.605v-.99h-4.388v.99h1.605z" fill="#fff"/></g><defs><filter id="filter0_d" x="0" y="0" width="68" height="88" filterUnits="userSpaceOnUse" color-interpolation-filters="sRGB"><feFlood flood-opacity="0" result="BackgroundImageFix"/><feColorMatrix in="SourceAlpha" values="0 0 0 0 0 0 0 0 0 0 0 0 0 0 0 0 0 0 127 0"/><feOffset dy="2"/><feGaussianBlur stdDeviation="2"/><feColorMatrix values="0 0 0 0 0.847059 0 0 0 0 0.866667 0 0 0 0 0.890196 0 0 0 1 0"/><feBlend in2="BackgroundImageFix" result="effect1_dropShadow"/><feBlend in="SourceGraphic" in2="effect1_dropShadow" result="shape"/></filter></defs></svg>