<svg xmlns="http://www.w3.org/2000/svg" width="1440" height="369"><defs><filter id="a" width="137.1%" height="149.7%" x="-18.6%" y="-24.6%" filterUnits="objectBoundingBox"><feOffset dy="2" in="SourceAlpha" result="shadowOffsetOuter1"/><feGaussianBlur in="shadowOffsetOuter1" result="shadowBlurOuter1" stdDeviation="2"/><feColorMatrix in="shadowBlurOuter1" result="shadowMatrixOuter1" values="0 0 0 0 0 0 0 0 0 0 0 0 0 0 0 0 0 0 0.5 0"/><feMerge><feMergeNode in="shadowMatrixOuter1"/><feMergeNode in="SourceGraphic"/></feMerge></filter><linearGradient id="b" x1=".004%" x2="100.032%" y1="49.998%" y2="49.998%"><stop offset="0%" stop-opacity=".1"/><stop offset="100%" stop-opacity=".2"/></linearGradient></defs><g fill="none" fill-rule="evenodd"><path fill="#000" fill-rule="nonzero" d="M91.497 27.293c6.984 0 10.418-3.59 10.418-8.35 0-9.715-14.944-6.945-14.944-11.042 0-1.56 1.327-2.575 3.668-2.575 2.653 0 5.462.897 7.57 2.848l3.082-4.136C98.716 1.658 95.282.41 91.146.41 85.02.41 81.275 4 81.275 8.33c0 9.794 14.982 6.633 14.982 11.16 0 1.521-1.443 2.887-4.526 2.887-3.59 0-6.438-1.639-8.271-3.55l-3.044 4.33c2.458 2.458 6.048 4.136 11.081 4.136zm22.85 0c2.926 0 5.891-.897 7.764-2.614l-2.224-3.278c-1.21 1.17-3.395 1.834-4.994 1.834-3.2 0-5.073-1.912-5.424-4.214h14.008v-1.17c0-6.126-3.785-10.34-9.443-10.34-5.696 0-9.754 4.409-9.754 9.871 0 6.048 4.33 9.91 10.066 9.91zm4.37-11.705h-9.287c.195-1.873 1.522-4.02 4.604-4.02 3.278 0 4.526 2.225 4.682 4.02zm26.054 11.237V13.52c0-3.668-1.99-6.01-6.165-6.01-3.044 0-5.385 1.484-6.594 2.888V7.98h-4.955v18.846h4.955v-12.72c.858-1.093 2.34-2.185 4.292-2.185 2.107 0 3.472.897 3.472 3.512v11.393h4.995zm22.829 0V.8h-4.995v9.598c-1.482-1.95-3.59-2.887-5.813-2.887-4.8 0-8.35 3.746-8.35 9.871 0 6.321 3.629 9.91 8.35 9.91 2.302 0 4.33-1.014 5.813-2.886v2.419h4.995zm-9.248-3.941c-2.848 0-4.799-2.224-4.799-5.502 0-3.238 1.951-5.462 4.8-5.462 1.638 0 3.433.897 4.252 2.146v6.672c-.819 1.249-2.614 2.146-4.253 2.146zm23.018 4.409c2.927 0 5.892-.897 7.765-2.614l-2.224-3.278c-1.21 1.17-3.395 1.834-4.994 1.834-3.2 0-5.073-1.912-5.424-4.214h14.008v-1.17c0-6.126-3.785-10.34-9.443-10.34-5.696 0-9.754 4.409-9.754 9.871 0 6.048 4.33 9.91 10.066 9.91zm4.37-11.705h-9.286c.195-1.873 1.522-4.02 4.604-4.02 3.278 0 4.526 2.225 4.682 4.02zm13.295 11.237V14.378c.819-1.21 3.004-2.146 4.643-2.146.585 0 1.014.04 1.365.117V7.511c-2.34 0-4.643 1.366-6.008 3.004V7.98h-4.956v18.846h4.956zm1049.046 0l-5.901-9.91c2.816-.664 5.743-3.161 5.743-7.726 0-4.839-3.353-8.39-8.78-8.39h-12.18v26.026h5.548v-9.247h4.06l5.109 9.247h6.401zm-9.718-14.125h-5.852V5.677h5.852c2.183 0 3.866 1.327 3.866 3.473 0 2.224-1.683 3.55-3.866 3.55zm21.24 14.593c2.927 0 5.89-.897 7.756-2.614l-2.22-3.278c-1.207 1.17-3.39 1.834-4.999 1.834-3.194 0-5.072-1.912-5.414-4.214h13.998v-1.17c0-6.126-3.78-10.34-9.437-10.34-5.694 0-9.755 4.409-9.755 9.871 0 6.048 4.329 9.91 10.072 9.91zm4.366-11.705h-9.291c.195-1.873 1.524-4.02 4.609-4.02 3.28 0 4.523 2.225 4.682 4.02zm17.119 11.705c3.865 0 6.206-1.717 7.45-3.434l-3.231-3.043c-.903 1.288-2.268 2.068-3.987 2.068-3 0-5.11-2.224-5.11-5.502 0-3.277 2.11-5.462 5.11-5.462 1.719 0 3.084.702 3.987 2.029l3.23-3.044c-1.243-1.716-3.584-3.394-7.45-3.394-5.779 0-9.985 4.097-9.985 9.871 0 5.814 4.206 9.91 9.986 9.91zm19.545 0c2.927 0 5.89-.897 7.767-2.614l-2.219-3.278c-1.22 1.17-3.402 1.834-4.999 1.834-3.195 0-5.072-1.912-5.426-4.214h14.01v-1.17c0-6.126-3.78-10.34-9.437-10.34-5.707 0-9.755 4.409-9.755 9.871 0 6.048 4.329 9.91 10.06 9.91zm4.378-11.705h-9.291c.195-1.873 1.524-4.02 4.609-4.02 3.267 0 4.523 2.225 4.682 4.02zm10.79-9.638a2.957 2.957 0 0 0 2.963-2.965c0-1.639-1.316-2.926-2.962-2.926a2.924 2.924 0 0 0-2.927 2.926c0 1.639 1.33 2.965 2.927 2.965zm2.5 20.875V7.979h-4.95v18.846h4.95zm15.132 0l7.572-18.846h-5.304l-4.95 13.11-4.927-13.11h-5.304l7.572 18.846h5.34zm18.643.468c2.926 0 5.89-.897 7.767-2.614l-2.231-3.278c-1.208 1.17-3.39 1.834-4.987 1.834-3.207 0-5.073-1.912-5.426-4.214h14.01v-1.17c0-6.126-3.793-10.34-9.45-10.34-5.694 0-9.755 4.409-9.755 9.871 0 6.048 4.341 9.91 10.072 9.91zm4.365-11.705h-9.279c.195-1.873 1.524-4.02 4.597-4.02 3.28 0 4.536 2.225 4.682 4.02zm13.303 11.237V14.378c.817-1.21 3-2.146 4.633-2.146.585 0 1.024.04 1.366.117V7.511c-2.341 0-4.634 1.366-6 3.004V7.98h-4.962v18.846h4.963z"/><path stroke="#323131" stroke-dasharray="2" d="M141.61 146.41s173.48-130.813 419.68-13.42c246.2 117.396 233.097-36.665 394.646-65.928 161.548-29.264 267.198 81.112 267.198 81.112" opacity=".5"/><path fill="#FFF" fill-rule="nonzero" d="M1218.964 366.861c3.95.146 9.377.139 14.79.024 9.767-.212 19.363-.774 19.497-1.424 1.33-.233.83-46.463-.232-49.401-1.146-3.207-12.936-1.56-16.375-1.56-4.206 0-10.425-.215-14.656.111-3.396.26-6.477 1-6.685 4.819-.619 11.353-.06 29.53-.04 42.442.004 3.248-.135 4.84 3.701 4.989zm-12.698-130.135c6.462-3.198 5.397-8.541 10.006-13.324l-14.067 8.54c-2.778 3.56.463 6.568 4.061 4.784z"/><path fill="#FFF" fill-rule="nonzero" d="M1199.919 223.094l9.731-27.634h.005l-.003-.007.003-.004 6.255 28.122 11.48-2.105a139.833 139.833 0 0 0-6.45 18.087c-2.727 9.749-8.544 46.967-5.945 53.801l2.504.02c-.15.223-.866 1.003-1.913 2.147-5.242 5.72-18.81 20.53-11.648 19.873a161.37 161.37 0 0 1 20.696-.57c1.036.042 10.096.025 19.448-.182.585-.015 1.414-1.184 2.256-2.35.829-1.157 1.658-2.31 2.231-2.326.683-.02 1.11 1.128 1.524 2.264.415 1.112.817 2.214 1.463 2.2 7.645-.272 13.961-.711 14.156-1.382.147-.573 1.317-16.452 1.464-19.276h.243l-.243-9.675 10.68 1.675c-1.377 22.909-2.852 53.09-1.243 57.313h11.571c-.414.373-.987.875-1.658 1.477l-.012.003c-6.463 5.726-23.18 20.532-14.351 19.866 8.486-.632 17.009-.82 25.52-.567 1.28.038 12.46.02 23.983-.183.732-.015 1.756-1.183 2.793-2.347 1.024-1.16 2.048-2.316 2.755-2.333.842-.017 1.366 1.132 1.89 2.268.5 1.117 1.012 2.22 1.805 2.197 9.425-.269 17.216-.69 17.436-1.382.195-.615 1.865-18.958 1.817-19.697h-.061c.317-2.771.122-13.543-.074-24.279v-.003c-.085-4.71-.158-9.415-.207-13.433.354 1.127 26.69.74 37.823.576 2.268-.034 3.914-.058 4.56-.058 25.203 0 32.105-16.341 36.506-37.75 4.195-20.388 8.938-50.97 9.206-57.87.341-9.23-8.486-17.37-18.24-18.596-8.621-1.085-35.324-1.278-44.627-.44-12.474-24.562-25.898-30.557-34.653-27.671a59.33 59.33 0 0 0-.415-4.953c-.45-3.68-.792-9.016-1.036-14.168.463.054.658.103.805.14.22.055.353.089 1.036.089 2.463 0 5.304-10.99 6.67-16.307.268-1.009.475-1.812.61-2.299 1.523-5.184.816-11.846-3.549-15.188-5.84-4.492-22.984-10.926-29.275-8.342-10.828 4.437-7.23 13.408-.122 15.668-2.366 2.557-4.536 5.975-6.304 10.153a5.488 5.488 0 0 0-3.28-1.079 5.75 5.75 0 1 0 0 11.5h.17a68.627 68.627 0 0 0-1.292 12.328c-.134 7.235 9.401 8.513 12.51 8.929.61.082.976.13.976.183.146 1.191.695 3.392 1.317 5.917.84 3.337 1.804 7.242 2.182 10.128-3.487-1.81-10.01-2.764-23.264-.311l-12.596 2.336a23.379 23.379 0 0 1-2.78-2.447c-1.682-1.718-1.877-4.174-2.097-6.709-.33-3.91-.67-8.005-6.474-9.854a27.485 27.485 0 0 1-.256-1.485l-4.597-27.857c-.037-.114-.086-.247-.122-.392-.378-1.3-1.073-3.622-3.89-3.302l-14.985 1.987c-4.719.55-4.255 3.235-3.585 7.087v.002c.049.267.086.54.134.817l1.33 8.937c-4.22.841-1.098 8.708.255 12.104.232.567.403 1.008.488 1.273-3.621-7.554-6.011-.584-3.231 6.538.232.6.463 1.195.683 1.782 2.17 5.652 4.145 10.804 9.888 16.923l-47.464 8.798.817 3.664-.002.007c-13.145 1.89-25.024 8.871-30.664 17.509l-13.413-2.143-.936 4.338 12.147 2.05a17.453 17.453 0 0 0-1.248 7.03c.083 2.214 1.462 2.702 2.672 3.128.91.321 1.723.609 1.817 1.57.46 4.94 6.531 4.737 7.168 1.523-.122.72-.777 5.652.839 7.596 2.012 2.419 5.82 2.847 7.487-2.357-.036.196-.06.395-.068.594l4.468-13.204zm76.95-10.695l13.364 8.149a139.534 139.534 0 0 0-6.255 16.933c-2.28-4.713-4.365-9.232-4.987-10.57l-.098-.202a63.136 63.136 0 0 0-8.4-13.132l6.376-1.178zm72.939 86.046c-.037 1.748-.024 3.867 0 6.22l1.378-6.113-1.378-.107z"/><path fill="#000" fill-rule="nonzero" d="M1319.472 126.43a6.295 6.295 0 0 1 6.364 6.187c.025 3.506-2.792 6.373-6.291 6.407a6.308 6.308 0 0 1-6.304-6.261 6.309 6.309 0 0 1 6.23-6.333zm-4.634 8.178a5.016 5.016 0 0 0 4.707 3.01h-.025a4.983 4.983 0 0 0 3.5-1.484 4.98 4.98 0 0 0 1.414-3.517 4.995 4.995 0 0 0-3.121-4.63 5.004 5.004 0 0 0-5.463 1.135 5.019 5.019 0 0 0-1.012 5.486zm-146.216 53.843c-8.711 6.8-8.284 8.625-5.779 12.951a28.642 28.642 0 0 1 2.194 4.37l1.38-.49a30.449 30.449 0 0 0-2.276-4.57c-2.126-3.664-2.772-4.767 5.42-11.161 2.509-1.966 3.789-3.94 3.885-6.04.17-3.634-3.176-6.763-6.717-10.08-3.542-3.315-7.249-6.782-6.883-10.58.268-2.816 2.696-5.652 7.414-8.671 6.478-4.14 4.462-8.746 2.509-13.197-.994-2.266-2.018-4.612-2.018-6.997h-1.47c0 2.67 1.075 5.151 2.133 7.55 1.95 4.45 3.488 7.97-1.975 11.464-5.113 3.275-7.751 6.452-8.067 9.719-.43 4.486 3.514 8.16 7.324 11.73 3.299 3.106 6.414 6.005 6.274 9.003-.08 1.665-1.172 3.304-3.348 4.999zm68.254 131.914c-.402 3.839-.451 9.113-.451 13.275v.52c0 2.457 0 3.694.792 4.46.512.492 1.232.644 2.33.644.34 0 .719 0 1.133-.035.61-.035 1.475-.039 2.39-.043 1.17.025 2.341-.015 3.512-.12 2.645-.354 3.377-.935 3.56-2.786 0-.1.256-14.324.06-15.43-.548-3.066-2.304-3.023-5.815-2.942l-1.024.021c-.586 0-1.147 0-1.707-.035-2.11-.103-4.524-.198-4.78 2.471zm10.096 22.795c-.573 0-1.207 0-1.915-.047-4.218-.24-6.608.129-7.767 1.196a2.883 2.883 0 0 0-.84 2.366c.109 2.727.048 7.909 0 11.345-.025 1.746-.037 3.014-.025 3.409 0 .366.158.716.439.972.841.805 2.743.797 5.365.791h3.341c2.682 0 5.499-.341 5.755-3.236.292-3.252.244-10.226.085-13.578-.159-3.2-2.146-3.21-4.438-3.218z"/><path fill="#000" fill-rule="nonzero" d="M1255.629 181.974c-5.146-5.778-7.048-10.742-9.145-16.22-.22-.588-.439-1.18-.67-1.801-1.83-4.691-1.647-9.76.377-10.642a1.611 1.611 0 0 1 1.28 0c-1.048-2.956-1.962-6.568-.828-8.642a2.9 2.9 0 0 1 1.524-1.382l-1.22-8.351-.048-.305c-.037-.164-.061-.33-.086-.49-.439-2.493-.805-4.646.317-6.153.72-.967 1.988-1.545 3.878-1.765l14.948-1.984c3.414-.383 4.292 2.537 4.658 3.793v.009l.024.084c.037.107.061.204.098.292l.024.111 4.597 27.89c.049.344.11.69.17 1.036v.001c5.866 2.042 6.232 6.39 6.56 10.337.196 2.438.39 4.736 1.89 6.274a21.83 21.83 0 0 0 2.464 2.185l12.254-2.274c11.998-2.24 18.618-1.66 22.484-.166-.451-2.645-1.244-5.853-1.963-8.732-.561-2.27-1.061-4.268-1.268-5.565l-.44-.058-.012-.003c-3.292-.44-13.241-1.778-13.095-9.648a71.646 71.646 0 0 1 1.158-11.635 6.452 6.452 0 0 1-5.657-6.754 6.451 6.451 0 0 1 6.328-6.13c1.049 0 2.073.263 2.987.767a42.54 42.54 0 0 1 2.366-4.58 31.845 31.845 0 0 1 3.024-4.23c-3.573-1.507-6.085-4.636-6.207-7.912-.085-2.105.744-6.035 7.267-8.717 6.633-2.724 24.155 3.988 29.947 8.437 4.755 3.65 5.304 10.829 3.792 15.955-.135.457-.33 1.218-.573 2.176l-.037.122c-2.683 10.384-4.84 16.823-7.34 16.823a4.42 4.42 0 0 1-1.085-.083c.219 4.797.548 9.764.987 13.22.159 1.307.28 2.69.366 4.11 4.926-1.285 10.632.214 16.156 4.244 6.486 4.736 12.607 12.671 18.192 23.607 10.01-.822 36.055-.552 44.273.484 10.547 1.328 19.167 10.18 18.826 19.329-.244 6.76-4.95 37.264-9.206 58.002-1.914 9.308-4.67 19.822-10.583 27.209a27.668 27.668 0 0 1-8.17 6.944l11.608 61.75c1.036.808 2.682 2.166 2.95 2.47-.292-.044-1.487-.007-2.78.034-1.828.057-3.852.12-3.804-.033.061-.226 1.05-1.23 1.83-2.034v-.001c.134-.136.255-.266.377-.386l-5.438-28.906h-43.029l-4.243 28.827c.134.137.28.29.439.451.78.805 1.78 1.824 1.84 2.055.037.11-1.23.097-2.657.06v.043l-.342-.054-.84-.025a48.008 48.008 0 0 0-1.525-.034c.037.134-1.878.08-3.67.027-1.341-.038-2.61-.074-2.914-.027.22-.252 1.402-1.238 2.39-2.025l-4.61-30.932h-5.206c.049 4.818.012 7.435-.11 8.872l.025.491c.012.121-1.549 18.99-1.841 19.941-.232.705-.44 1.375-18.083 1.883-1.256.045-1.877-1.31-2.463-2.613l-.012-.028c-.317-.695-.841-1.824-1.207-1.824-.415.02-1.585 1.347-2.231 2.074l-.012.02-.098.103c-1.183 1.331-2.195 2.463-3.207 2.482-11.522.204-22.703.225-23.996.183a245.33 245.33 0 0 0-25.422.567c-.208.02-.39.02-.573.02-1.354 0-2.207-.41-2.549-1.226-1.243-2.944 5.877-10.086 16.949-19.901l.268-.243h-10.193l-.171-.456c-1.67-4.393-.22-34.264 1.158-56.98l-9.193-1.44.243 9.571h-.317c-.268 4.12-1.219 17.931-1.426 18.74-.183.726-.366 1.41-14.778 1.925-1.158.024-1.67-1.334-2.158-2.66v-.01c-.208-.56-.586-1.572-.854-1.778-.378.203-1.183 1.328-1.67 2.019a16.725 16.725 0 0 1-1.61 2.022c4.365-.066 7.755.407 8.474 2.419.671 1.853.964 16.622 1.037 25.059.06 6.889.11 23.082-.78 24.613 0 .012-.013.024-.025.036 0 .014-.012.028-.024.042l-.037.053c-.33.556-2.012 1.08-13.534 1.52-4.743.185-9.73.281-14.083.281-2.658 0-5.085-.037-7.06-.11-4.35-.16-4.35-2.333-4.35-5.344v-.346c-.005-3.61-.054-7.59-.105-11.8v-.002l-.011-.903c-.134-10.642-.273-21.644.158-29.56.208-3.847 3.152-4.911 5.515-5.274-5.482-.06-10.967.16-16.43.66-.158.025-.345.025-.504.025-1.052 0-1.759-.346-2.103-1.038-1.36-2.74 4.473-10 13.65-20.023l.893-.978h-1.445l-.172-.452c-2.746-7.238 3.403-45.255 5.916-54.267a143.256 143.256 0 0 1 5.962-16.936l-10.599 1.946c-1.458 1.76-2.252 3.605-3.018 5.395l-.005.013c-1.264 2.948-2.459 5.735-6.302 7.754a5.128 5.128 0 0 1-2.366.619 3.51 3.51 0 0 1-2.817-1.297c-.904-1.134-1.249-3.297.765-5.672 2.566-3.027 2.67-6.84 2.67-7.455a1.425 1.425 0 0 0-1.298-1.037c-1.28-.151-3.265.778-4.252 2.537-.503.891-2.152 7.42-2.666 10.065h.065c-.048.186-.102.364-.154.536l-.021.07a2.59 2.59 0 0 0-.045.4h-.097c-1.09 3.045-2.842 3.885-3.849 4.106a3.893 3.893 0 0 1-.849.094 5.14 5.14 0 0 1-3.868-1.984c-1.111-1.338-1.283-3.768-1.22-5.652a4.446 4.446 0 0 1-2.494.622c-2.011-.086-4.167-1.5-4.442-4.493-.042-.442-.34-.618-1.34-.964l-.003-.002c-1.207-.428-3.031-1.076-3.13-3.766a17.97 17.97 0 0 1 .99-6.505l-12.017-2.031 1.222-5.708 13.597 2.174a33.494 33.494 0 0 1 6.343-6.867c6.353-5.275 14.982-9.05 23.796-10.46l-.81-3.652.721-.132 46.123-8.562zm-8.804-27.33a.126.126 0 0 0-.06 0v-.007c-.78.34-1.464 4.124.34 8.894.22.549.428 1.091.635 1.63l.049.146.012.003c2.11 5.53 4.024 10.52 9.462 16.419.11.123.231.246.341.37v.002l.012.002c.073.08.147.16.22.242l.597.61a72.221 72.221 0 0 0 7.097 6.223l.048.034 14.717 13.294 10.986-21.542a41.982 41.982 0 0 0-2.548-1.53l-.061-.031v-.002c-.878-.506-1.707-.98-2.585-1.598a19.084 19.084 0 0 1-1.5-1.166 25.5 25.5 0 0 1-1.634-1.534c-1.853-1.9-2.072-4.567-2.292-7.145v-.004c-.28-3.562-.573-6.981-4.828-8.824a10.336 10.336 0 0 0-.78-.307c-.245-.083-.5-.162-.769-.239a25.08 25.08 0 0 0-5.816-.818.929.929 0 0 0-.488.062c-.329.84 3.06 4.974 4.268 6.1l2.536.899-2.792.425a.5.5 0 0 1-.451-.076c-.622-.266-1.085-.856-1.463-1.333v-.001a7.02 7.02 0 0 0-.378-.467c-2.439-2.478-5.414-7.49-8.036-11.914l-.024-.035c-1.975-3.313-4.414-7.419-5.194-7.734-1-.357-2.317-.654-2.878-.057-.744.782-.39 3.333.878 6.312.037.11.073.226.073.346 1.5 2.924 4.292 7.4 5.548 9.429.927 1.492 1.036 1.67 1.06 1.854v.078h-1.414c0 .1.013.2.061.29-.06-.114-.475-.781-.902-1.472-3.292-5.306-6.401-10.445-6.743-12.278-.768-1.872-1.438-3.276-2.353-3.601a1.33 1.33 0 0 0-.695-.044h-.036a1.828 1.828 0 0 0-.683.273 1.52 1.52 0 0 0-.5.566c-1.22 2.232 1.012 7.85 1.975 10.283l.012.025c.061.15.11.29.159.418.158.37.256.652.329.863.232.623.488 1.273.805 1.957.317.684.658 1.393 1.036 2.112a72.176 72.176 0 0 0 5.207 8.468 25.91 25.91 0 0 0 .926 1.268c.244.33.488.65.72.951.097.12.17.255.22.401a.62.62 0 0 0-.379-.373l-.317 1.382a.818.818 0 0 1-.646-.543c-.378-.49-.78-1.02-1.195-1.575-.073-.116-.159-.23-.244-.347l-.085-.13-.11-.143-.049-.072-.475-.691a82.785 82.785 0 0 1-2.683-4.148l.39 1.23-.695-1.468-.78-1.642c-.06-.104-.11-.204-.17-.308-.354-.619-.671-1.237-.988-1.846a36.569 36.569 0 0 1-1.78-3.974c-1.122-2.357-1.94-2.841-2.22-2.841zm3.463-21.654c-.5.031-.95-.511-.987-1.214-.05-.7.341-1.3.829-1.333.487-.035.95.512 1 1.213.036.7-.33 1.292-.842 1.328v.006zm72.44 43.229a9.37 9.37 0 0 0-1.16-.691c-3.401-1.687-9.754-2.551-22.605-.176l-10.84 2.014c.366.223.744.437 1.122.655l.207.117a46.03 46.03 0 0 1 2.89 1.76l45.078 30.138c-1.5-5.36-3.853-15.204-5.219-22.358l-.146-.778a9.736 9.736 0 0 1-.098-.557v-.004l-.048-.245a53.988 53.988 0 0 1-.671-4.414 7.135 7.135 0 0 0-2.231-.179c-.28.017-.573.017-.927.017-1.305 0-1.902-1.005-2.536-2.072v-.002a12.885 12.885 0 0 0-1.122-1.662 8.255 8.255 0 0 0-1.695-1.563zm-3.451-17.379c-.074-.597-.513-.656-1.573-.798-2.975-.394-12.023-1.6-11.889-8.216.061-3.92.452-7.827 1.183-11.679a6.48 6.48 0 0 0 5.28-4.54 6.48 6.48 0 0 0-1.878-6.71 34.49 34.49 0 0 1 5.645-9.188c4.06.899 13.084 3.346 14.083 4.376.305 1.583-.036 4.079-.39 6.716v.019c-.683 5.178-1.402 10.525 2.195 11.795.853.343 1.67.76 2.45 1.244 1.44.833 2.94 1.687 4.549 1.839.22 4.956.56 10.127 1.012 13.733.17 1.424.305 2.892.378 4.378-6.767 2.541-10.56 10.077-9.316 18.364a9.632 9.632 0 0 0-2.024-.096h-.89c-.463 0-.72-.346-1.329-1.383-.731-1.237-1.72-2.893-4.024-4.186-.414-2.865-1.329-6.535-2.133-9.792-.647-2.52-1.183-4.71-1.33-5.876zm-10.645-31.481a4.756 4.756 0 0 0-2.402-.663 5.05 5.05 0 0 0-4.828 4.84 5.038 5.038 0 0 0 4.426 5.212c.122.017.28.017.378.017h.317c.268-.019.524-.055.768-.111a5.027 5.027 0 0 0 3.84-4.915c0-1.27-.475-2.497-1.328-3.436a4.43 4.43 0 0 0-.574-.536 3.66 3.66 0 0 0-.597-.408zm67.5 65.16c.281.585.574 1.18.854 1.774l.403.86c.097.194.183.388.28.583l.061.127.073.155c5.597 11.79 11.4 24.937 16.583 36.67l.634 1.433v.019l.012.012c2.439 5.515 4.73 10.711 6.645 14.935h-25.325c3.256-9.173-.036-24.643-2.292-35.29l-.085-.375v-.002c-.415-1.995-.805-3.843-1.11-5.443-.085-.45-.158-.882-.232-1.292-.073-.48-.146-.934-.207-1.349-.036-.311-.073-.605-.097-.874v-.05c-1.366-8.149-5.06-14.43-10.999-18.663-6.779-4.84-15.07-6.083-21.155-6.222h-1.511a49.062 49.062 0 0 0-6.256.412c-1.085-7.415 2.146-14.138 7.987-16.591a13.2 13.2 0 0 1 .683-.27l.122-.045c.183-.065.378-.12.573-.176 8.632-2.482 21.996 4.044 34.36 29.67v-.007zm-26.092 149.318c.024-.18.048-.414.06-.691.11-1.614.123-4.819.098-8.724v-1.417c-.036-3.619-.11-7.688-.183-11.532v-.016l-.024-1.794c-.183-9.494-.244-15.42-.244-19.132v-1.403c.049-3.207.195-4.279.427-4.684.11-.61 0-3.042-.098-5.408v-.026c-.378-9.48-.548-18.187 1.732-20.568a2.036 2.036 0 0 1 1.512-.692v1.417a.654.654 0 0 0-.5.249c-2.049 2.14-1.573 13.453-1.317 19.528.134 2.777.17 4.28.134 5.143h9.998c17.168 1.916 29.983-1.84 37.055-10.828 6.145-7.805 7.523-19.525 3.67-30.7a.173.173 0 0 1-.024-.073l-26.557-.017h-21.862a.69.69 0 0 1-.158 0c-.196-.021-.403-.138-.78-.65a9.004 9.004 0 0 1-.489-.691c-.865-1.403-2.34-4.245-5.12-9.972a735.101 735.101 0 0 1-6-12.695c-4.889-10.629-17.728-26.6-29.8-27.136-5.67-.26-10.498 3.028-14.326 9.743a93.648 93.648 0 0 0-1.427 2.572 175.9 175.9 0 0 0-.914 1.748 85.572 85.572 0 0 0-.927 1.83 149.924 149.924 0 0 0-2.134 4.493l-.28.653-.061.126-.037.091a6.92 6.92 0 0 0-.195.435 140.809 140.809 0 0 0-5.816 15.862c-.037.142-.073.284-.122.427l-.06.22-.11.36a63.13 63.13 0 0 0-.293 1.019c-2.024 7.179-3.366 14.279-3.878 20.773-.292 3.858-.987 13.515-1.67 24.942-.012.083-.012.167-.024.251a5.774 5.774 0 0 0-.025.458l-.036.712c-1.342 22.24-2.683 50.404-1.378 55.796h72.183zm-77.243-89.092h-.025c-1.231 0-2.048 1.939-3.109 5.509a6.73 6.73 0 0 1-.17.563c-.866 2.15-1.537 12.053-2.244 23.905h-.073l.231 9.398h-51.111c-2.093-7.604 3.388-43.17 6.107-52.918a138.933 138.933 0 0 1 6.267-17.627c.11-.264.22-.522.341-.782.061-.13.11-.26.171-.393.061-.13.11-.262.17-.39 1.708-3.83 3.561-7.508 5.524-10.93 3.829-6.717 8.657-10 14.327-9.744 7.267.322 14.827 6.243 20.728 13.22l.525.623c.048.065.11.13.158.196.122.144.244.288.354.433a62.591 62.591 0 0 1 8.01 12.644 896.31 896.31 0 0 0 4.963 10.544c-2.292 7.788-3.816 15.527-4.365 22.575-.024.284-.817 11.06-1.67 24.827l-9.267-1.454c.524-8.74 1.304-21.486 2.158-23.594.037-.111.098-.294.22-.691.865-2.949 1.402-4.003 1.694-4.365.134.282.232.579.305.884l1.378-.346c-.146-.567-.524-2.066-1.597-2.087zm-16.034-69.543l-46.278 8.592 6.76 30.416 10.437-1.897c1.78-4.081 3.78-8.067 5.975-11.939 4.121-7.217 9.364-10.736 15.62-10.455 7.864.345 16.009 6.846 22.24 14.344l4.145-.763-.11-.06 4.085-7.666-14.973-13.54a72.038 72.038 0 0 1-7.901-7.032zm23.971 21.543l.415-.816 11.73-21.985 43.76 29.254c1.817 1.432 14.327 10.093 15.352 10.614.378.206.743.437 1.097.692.853.605 1.817 1.286 3.036 1.286v-1.417c-.768 0-1.475-.498-2.231-1.037a9.672 9.672 0 0 0-1.268-.809c-1.037-.533-9.487-6.43-13.315-9.15-1.378-4.547-4.11-15.68-5.633-23.623l-.074-.354v-.004c-.024-.113-.048-.225-.06-.334-.037-.146-.062-.306-.098-.46l-.037-.231c-.292-1.618-.536-3.06-.695-4.227l-.012-.157c-.024-.236-.06-.463-.073-.673h.024a49.868 49.868 0 0 1 5.512-.346h1.536c5.95.107 14.217 1.245 20.79 5.938 5.608 4.007 9.12 9.97 10.412 17.718.085.889.256 1.974.475 3.2.074.409.159.833.244 1.272l.061.309.086.407c.036.174.06.349.11.533.146.755.316 1.539.487 2.356v.031c.098.445.195.9.293 1.366 2.268 10.69 5.596 26.352 2.17 34.99h-20.692c-1.377-1.69-8.071-15.775-11.485-23.203-5.024-10.943-18.363-27.4-31.02-27.956-6.096-.27-11.254 3.083-15.338 9.969l-.28.486c-.135.23-.257.461-.391.692-.085.148-.158.297-.244.446-.317.56-.622 1.123-.927 1.693a135.95 135.95 0 0 0-3.828 7.78l-11.06-6.76-.914-.553-.902-.557-.317-.189 3.292-6.173.012-.018zm3.817 30.25c1.56-5.005 3.39-9.92 5.499-14.72l-12.583-7.684-4.95.91a63.919 63.919 0 0 1 7.754 12.356 664.325 664.325 0 0 0 4.28 9.139zm-105.902-22.044l1.546.245 3.71.602 1.466.234 5.664.896-1.035 3.11-5.89-.994-1.415-.24-4.06-.69-1.461-.246-10.833-1.832.638-2.955 11.67 1.87zm-1.565 10.722c.065 1.732 1.003 2.067 2.193 2.485h-.006c.367.122.725.27 1.072.445a69.757 69.757 0 0 1 1.918-8.46l-4.167-.692a16.544 16.544 0 0 0-1.01 6.222zm7.557 7.852c-1.349-.048-2.863-.908-3.087-3.162.017-.995.9-5.897 2.117-9.959l6.257 1.059c-1.498 3.96-2.584 8.136-2.612 10.297-.234 1.216-1.517 1.814-2.683 1.765h.008zm27.448-2.882c.88-2.057 1.79-4.186 3.677-6.26l.1.083-5.949-26.756c-12.4 1.95-23.26 8.396-28.843 16.197l3.642.584a4.3 4.3 0 0 1 .287-.345l.48.46 7.052 1.126c.803-1.431 1.618-2.571 2.386-3.204l.897 1.096c-2.966 2.443-7.084 14.42-7.084 18.221h-.615l.604.118c-.001.009-.002.018-.005.026a.195.195 0 0 1-.006.026c-.006.025-.012.05-.012.077-.162.923-.645 5.363.689 6.974.914 1.117 2.204 1.663 3.328 1.414 1.255-.276 2.283-1.518 2.932-3.512.441-2.595 2.276-9.874 2.904-10.995 1.166-2.06 3.638-3.484 5.65-3.252a2.864 2.864 0 0 1 2.52 2.136l.02.083v.086c.011.194.153 4.794-3.003 8.513-1.452 1.714-1.328 3.129-.739 3.867.59.74 1.877 1.121 3.421.305 3.405-1.787 4.453-4.234 5.667-7.068zm7.997 138.06c-2.99-.108-2.99-.916-2.99-3.927v-.346c0-3.292-.044-6.89-.091-10.688l-.026-2.032c-.134-10.617-.272-21.599.156-29.465.165-3.062 2.415-3.851 5.987-4.127 1.78-.135 3.938-.176 6.145-.176 1.159 0 2.33.012 3.475.024l.634.007c-1.865 1.943-1.816 5.568-1.768 8.661v1.452c0 1.293 0 30.07-.036 31.527-.098 5.357-.037 7.897.512 9.148-4.316.08-8.572.07-11.998-.058zm34.055-25.254c-.11-12.684-.524-23.147-.95-24.343h.011c-.719-2.025-8.596-1.498-12.449-1.241l-.06.003-.11.008c-1.232.08-2.28.149-2.988.149h-.804c-3.622.2-3.841 3.692-3.768 8.6v1.475c0 .29-.012 30.036-.037 31.554-.085 4.714-.012 6.985.232 8.095.17.747.256.76.988.873v.001c.17.025.365.059.573.1 8.742-.197 17.094-.684 18.68-1.15l.024-.167.134-.024c.366-1.648.658-10.079.524-23.933zm97.435-10.414c-.037-3.397-.11-7.756-.207-13.366-.073-4.084-.147-8.56-.195-12.563.39.07.914.135 1.597.194l3.816 25.735h-5.011zm13.498 33.729a88.831 88.831 0 0 1 2.146-1.752l8.462-57.447c-3.439.045-6.426.045-9.011.045-6.109 0-9.986-.079-12.45-.218l8.438 57c.025-.017.037-.031.061-.044.025-.01.037-.018.061-.025-.012.044.403.466.915.987v.002c.463.472 1 1.025 1.378 1.452zm50.6-32.107h-42.54l3.974-27.101c3.305-.032 6.999-.077 11.145-.14 2.268-.034 3.901-.058 4.548-.058 6.681 0 12.351-1.147 17.107-3.481l5.767 30.78zm22.07-123.678c.342-8.443-7.73-16.625-17.594-17.866-7.999-1.006-33.068-1.285-43.383-.515.22.435.439.874.646 1.317.17.357.341.717.524 1.078l.256.553c8.901-.604 30.959-.45 36.067.726 6.097 1.396 9.67 2.686 12.267 5.851 6.389 7.792 4.438 19.385 2.414 27.427-3.036 12.063-12.279 48.77-22.326 59.05a115.73 115.73 0 0 0-1.585 1.624l-.024.032a27.832 27.832 0 0 1-3.987 3.608l-2.024 1.614c-5.512 4.428-11.571 5.26-22.265 5.379-1.243.02-2.621.02-4.084.02-4.244 0-9.182-.048-13.364-.09-.524-.005-1.049-.01-1.536-.013a708.8 708.8 0 0 0-5.853-.042h-.049l-.695-.052c0 1.483 0 3.184.025 5.019 2.267.54 14.424.55 24.715.46v-.08l.512.073c4.292-.038 8.218-.094 10.913-.133.317-.003.622-.008.914-.012 2.268-.035 3.902-.06 4.56-.06 6.621 0 12.194-1.16 16.827-3.521l-.037-.187.61-.114a26.189 26.189 0 0 0 8.072-6.761c5.73-7.158 8.425-17.472 10.303-26.614 4.243-20.694 8.913-51.058 9.181-57.77z"/><path fill="#FFF" fill-rule="nonzero" d="M42.676 192.634l1.219.032-1.22-.032zm43.812-82.896l-1.137 1.219c.858-.193 1.444-.55 1.137-1.22z"/><path fill="#FFF" fill-rule="nonzero" d="M264.662 319.175c5.329.23 9.849.426 12.436-.458 7.59-2.597 7.549 4.87 6.504 5.44-.552.31-1.445.837-2.584 1.509-7.303 4.312-24.77 14.624-28.107 12.245-6.697-4.774-4.26 1.282-3.348 3.546.158.392.27.67.281.76.22 1.893-9.231 6.25-11.422 6.967-.949.31-6.622-8.075-10.597-13.95-1.778-2.628-3.217-4.755-3.741-5.375-.041-.036.405-.345 1.058-.772-.257-.357-.541-.755-.841-1.175l-.001-.003-.001-.001a135.813 135.813 0 0 0-2.42-3.324l-2.88 1.523s-.655-.76-1.79-2.085l-33.018-42.944h-1.045l.529 60.879a11.845 11.845 0 0 0 8.02 11.126l5.534 1.881c2.888 1.155 6.77 2.475 12.305 4.36h.001l.037.014c8.006 2.72 3.709 7.97 2.41 7.97-1.01.004-2.976.121-5.491.269l-.002.001c-10.044.593-28.823 1.7-30.21-1.738-.259-.642-.508-1.55-.747-2.417-.31-1.13-.602-2.195-.876-2.528-.572-.686-1.07-.744-1.499-.42-1.04.778-1.685 3.77-2.02 5.323-.106.494-.182.841-.228.928-.959 1.777-12.044.993-14.425.556-1.04-.19-.92-10.39-.837-17.497.036-3.149.066-5.69-.015-6.486-.008-.07 1.378-.16 2.966-.249a99.346 99.346 0 0 1 .079-3.68c-2.368.205-3.913.319-3.913.266 0-19.132-.346-39.794-3.286-58.545H2.218v-6.707h91.944c-33.636-8.28-30.554-42.735-30.554-42.735l-3.596-15.582s-18.557-.244-31.718-.393c-8.498-.903-16.668-2.916-22.417-7.38-12.32-9.56 2.344-26.009 14.551-37.135 1.488-1.355 3.99-3.274 6.768-5.407 2.806-2.152 5.895-4.522 8.512-6.75 7.863-6.694 15.71-12.712 23.307-11.198v-.145a1.392 1.392 0 0 1 1.381-1.398l7.911-.04-.037-.683v-.002c-.172-3.242-.433-8.184-2.484-10.85-.585-.76-2.048-3.157-2.593-5.385-.686-2.794-1.313-6.23-1.781-9.038l-.934.368a2.007 2.007 0 0 1 .775-1.326c-.196-1.2-.357-2.24-.475-3.002v-.004a55.51 55.51 0 0 0-.205-1.274c-3.198-16.605 21.789-18.427 24.583-4.504a6.695 6.695 0 0 0 .063.287l.217-.016-.204.08c.517 2.455 1.307 5.082 2.082 7.653v.001c1.041 3.46 2.053 6.821 2.326 9.533.53 5.309-1.352 8.264-4.498 11.1-1.36 1.225-1.308 2.768-1.263 4.086l.001.03c.015.426.053.854.092 1.286.047.516.094 1.039.101 1.575l7.176-.038a1.393 1.393 0 0 1 1.397 1.383v1.656c9.704-.313 22.858 9.089 32.48 15.966 2.895 2.069 5.47 3.909 7.534 5.188 23.337 14.45 42.59 51.537-5.423 35.828-4.58-1.496-5.649-2.077-6.085-2.341v.034l-.76-.305c.278.697 5.343 13.386 9.84 23.983 18.066-.133 36.075-.224 44.714-.242 10.846-.018 17.126 1.649 20.055 5.736 5.927 8.265 16.445 26.3 25 41.4h21.087v6.705h-17.303a1830.829 1830.829 0 0 1 9.79 17.617c4.707 8.82 7.755 15.054 7.42 15.755l-3.607 1.911.395.76.251.486c.48.932.924 1.79 1.293 2.425 3.586-1.804 5.102-1.558 7.122-1.231.962.156 2.038.33 3.506.31-.166-.207-.3-.544-.457-.936-.16-.4-.341-.854-.601-1.279-6.454-10.547 5.337-11.683 2.646.845a25.717 25.717 0 0 1-.175.742c.378-1.073 1.74-4.139 4.86-5.727 4.327-2.21 5.985 1.324-2.482 5.828a4.421 4.421 0 0 0-.597.386c3.975-.133 7.928.04 11.513.194zM55.502 192.424h.06c.14.034.272.098.384.19l-2.236-11.452c-.017 1.124-5.635 5.02-9.88 7.963-1.83 1.268-3.405 2.36-4.166 2.978l2.801.164a90.152 90.152 0 0 0-2.894-.09l-.069.059c-.016.013.114.031.357.031.204.016.492.016.847.016h9.488c1.49.016 2.857.043 3.89.084h.309c.346.019.637.038.875.057h.233zm93.066 71.986c.246 2.35.793 5.298 1.548 9.044l.122.62.06.31h-35.332c11.011-1.87 22.708-5.878 33.602-9.974zm72.068-48.593l.542-8.197a78 78 0 0 0 5.968 2.254c5.882 1.973 16.004 4.313 17.144 4.702 5.721 1.962-2.387-8.378-4.37-12.922-3.334-7.645-15.696-22.498-16.802-33.383-1.012-9.937-13.222-11.687-15.072-2.69-1.9 1.583-4.259 4.206-2.69 4.206.542 0 1.513.032 2.558 0v.107c2.044 17.61-4.794 26.99 7.719 34.879.272 4.194.92 10.967.92 10.967l-.832-10.914a40.464 40.464 0 0 0 5.424 2.78c-.225 2.683-.31 4.886-.476 7.782l-.033.43z"/><path fill="#000" fill-rule="nonzero" d="M241.423 362.134h1.219V348.72c-.422.167-.83.322-1.22.469v12.944zm-122.555-87.79c-.997.223-1.988.428-2.972.617a68.558 68.558 0 0 1-3.72.602h39.018a29.74 29.74 0 0 0-.107-.602c-.035-.19-.072-.412-.109-.617h-32.11zm59.015 63.404l-.552.048-.533.05c-3.555.308-7.946.765-11.834 1.155l-5.333.535-.532.053-.533.052c-.03.983-.054 2.013-.056 2.984l.533-.037.532-.034 1.398-.083c1.137-.067 2.212-.129 2.497-.166 2.73-.329 6.962-.553 10.054-.713 1.176-.06 2.191-.117 2.839-.16l.577-.04.546-.027.533-.025v-.344l-.054-1.512c-.03-.633-.052-1.207-.082-1.736zm50.043-11.81c.908-.55 1.767-1.067 1.984-1.216 4.124-2.822 7.054-4.626 9.3-5.757l.495-.245c.17-.084.335-.16.498-.234-.314-.556-.678-1.228-1.052-1.92l-.416-.766-.491.261-.494.26-14.84 7.539-.5.26-.496.26c.814 1.025 1.627 2.157 2.354 3.127l.361.486c.133-.085.272-.185.465-.294l.469-.292a48.32 48.32 0 0 1 2.363-1.47z"/><path fill="#000" fill-rule="nonzero" d="M159.57 337.495l.532-.045 5.175-.441c3.878-.337 8.241-.712 11.81-.99l.532-.038.553-.042c2.424-.181 4.36-.3 5.316-.302.954-2.84.598-29.295.359-46.938-.04-3.03-.08-5.892-.111-8.5v-1.328a64.2 64.2 0 0 0-.133-4.237l-.04-.527c0-.178-.027-.36-.043-.539-.592-7.022-2.48-14.012-6.38-16.562-1.826-1.19-3.986-1.264-6.437-.22l-.064.025h-.07c-2.02.305-7.633 2.293-10.034 3.208l-2.275.865a989.557 989.557 0 0 1-8.285 3.136c.265 2.221.781 4.995 1.504 8.51.072.342.138.687.205 1.031l.109.539.103.525a157.4 157.4 0 0 1 .798 4.502l.087.526.088.539c2.983 18.823 3.286 39.364 3.291 57.556a132.24 132.24 0 0 0 2.868-.216l.543-.037z"/><path fill="#000" fill-rule="nonzero" d="M70.663 110.006l-.103.014c-1.43.189-4.775.634-4.393 4.944.114 1.279-.01 2.112-.369 2.472-.418.422-1.327.353-2.48.266l-.71-.05a3.971 3.971 0 0 0-1.503.18 2.91 2.91 0 0 0-.514.236 2.39 2.39 0 0 0-.487.374l-.263-1.658-.175-1.098a45.953 45.953 0 0 0-.193-1.215c-1.694-8.759 4.049-13.13 9.479-14.19 6.707-1.327 14.543 1.79 16.165 9.283a9.542 9.542 0 0 1-.546.045l-.104.006c-.133.007-.283.015-.45.015-.43.019-.972.019-1.67.019h-1.205c-2.955-.013-8.462-.035-10.051.292-.12.022-.264.042-.428.065zM236.39 315.753l.482-.266.477-.251 2.854-1.512a10.362 10.362 0 0 0-.617-1.73 56.86 56.86 0 0 0-.478-1.088c-1.534-3.384-5.113-10.482-13.363-25.35-.89-1.607-1.807-3.251-2.74-4.917l-.305-.544-.305-.53a1686.8 1686.8 0 0 0-2.557-4.542l-.307-.53-.308-.544c-6.41-11.323-13.234-23.095-18.667-32.16-.28-.474-.558-.943-.831-1.41-1.427-2.42-2.785-4.724-4.662-6.708a17.114 17.114 0 0 0-.973-.952c-3.58-3.25-9.01-5.422-19.344-5.422h-.144c-8.7.02-26.253.106-43.966.234h-1.182c-8.514.06-17.02.135-24.552.215l.032-.53.016-.267h-.236l-.088-.264a294.988 294.988 0 0 0-1.209-3.484v-.002l-.002-.005v-.001l-.551-1.57-.13-.37v-.003c-2.353-6.729-4.994-14.283-6.495-19.756-.334-1.212-1.611-4.84-2.981-8.66l26.267 10.549c.773 1.938 5.3 13.238 9.452 23.058h1.183c-3.74-8.799-7.83-18.966-9.226-22.454.721.358 2.205.976 5.703 2.122 20.975 6.862 27.727 3.234 29.699-1.018 1.89-4.071.083-10.584-4.956-17.87-4.743-6.883-11.805-13.602-18.87-17.979-2.056-1.27-4.593-3.082-7.529-5.18-6.135-4.384-13.767-9.838-21.023-13.128-4.335-1.968-8.077-2.957-11.273-2.975v-1.094a1.938 1.938 0 0 0-1.934-1.925l-6.66.034c-.02-.37-.053-.731-.084-1.084-.04-.433-.077-.841-.09-1.252v-.03c-.046-1.283-.092-2.61 1.083-3.67 3.22-2.896 5.245-5.974 4.678-11.573-.259-2.695-1.235-5.934-2.271-9.372l-.08-.265c-.713-2.368-1.447-4.809-1.961-7.095-.154.018-.334.037-.53.053-.094 0-.195.007-.302.014-.08.006-.162.012-.25.015-.5.019-1.125.027-1.907.024h-1.979c-2.886-.003-7.699-.008-9.058.265a8.865 8.865 0 0 1-.597.09c-1.974.266-3.71.751-3.46 3.772.145 1.682-.064 2.708-.679 3.332-.761.783-1.923.695-3.27.594l-.066-.005-.19-.014a29.219 29.219 0 0 0-.505-.035c-.428-.04-.86.025-1.258.19a1.479 1.479 0 0 0-.49.37 1.628 1.628 0 0 0-.35.778l-.072-.013c.464 2.75 1.06 6.036 1.728 8.729.57 2.317 2.062 4.774 2.698 5.594 1.931 2.512 2.2 7.27 2.38 10.464l.004.093v.119l-7.35.038a1.939 1.939 0 0 0-1.856 1.447c-7.53-1.135-15.298 4.7-23.216 11.44-2.613 2.224-5.745 4.627-8.51 6.746l-.103.08c-2.8 2.149-5.215 4.004-6.704 5.36C6.07 182.336-.28 191.869.009 199.328c.138 3.483 1.773 6.464 4.863 8.862 4.412 3.429 10.242 5.43 16.55 6.599-5.778.589-11.464 2.491-15.029 6.788-4.542 5.459-5.035 21.925-5.83 49.206-.138 4.755-.283 9.67-.46 14.96v76.392h1.086v-50.13h48.317v50.11h1.087V285.72c0-1.135 0-2.881-.04-5.082H150.5a18.304 18.304 0 0 0-.058-.373 9.913 9.913 0 0 1-.028-.17l-.016-.1-.017-.106-.006-.041-.02-.124a4.833 4.833 0 0 0-.027-.16H50.537c-.018-1.377-.045-2.9-.08-4.542h44.73a37.548 37.548 0 0 1-1.77-.323 47.975 47.975 0 0 1-3.124-.765h-39.86c-.15-6.896-.434-15.636-.94-24.137-1.5-25.238-3.776-29.906-5.451-30.795-.604-1.125-3.116-2.053-5.13-2.637 3.28.074 6.458.07 9.402.064h.754c4.125 0 7.724-.002 10.58.233l2.371 12.087.266-.095a2.19 2.19 0 0 1 .249-.066c.121-.029.294-.067.53-.112l-2.293-11.723-6.9-35.347c-.024-.212-.14-.796-.641-3.281l-.58-2.97v.1c-.43-2.141-.852-4.306-.854-4.637h-1.087c0 .53.583 3.448 1.405 7.478.175.85.35 1.718.48 2.368-.28 1.044-6.19 5.14-9.506 7.439l-.16.11-.182.126v.001c-1.702 1.18-3.184 2.208-3.959 2.828l-2.385-.038c-5.244-.068-11.771-.156-14.241-1.013l-.358 1.03c2.637.912 9.262 1.002 14.575 1.074.63 0 1.238.013 1.82.024l.398.008c.202.098.623.102 1.696.113.474 0 1.048.004 1.693.009H42l1.702.01c3.73 0 9.805.033 11.196.21l4.52 23.143c-3.01-.228-6.766-.22-11.073-.212h-.626c-4.868 0-10.341.001-15.834-.372a49.612 49.612 0 0 0-3.813-.323c-8.554-.878-16.822-2.857-22.552-7.305-2.824-2.191-4.32-4.9-4.444-8.049-.265-7.014 6.138-16.537 19.057-28.3 1.457-1.329 3.862-3.173 6.648-5.31l.09-.07c2.775-2.122 5.918-4.539 8.55-6.78 4.489-3.82 9.693-8.063 14.675-10.08 2.777-1.113 5.356-1.48 7.778-1.095l.082 15.4a1.94 1.94 0 0 0 1.935 1.927l13.106-.07-.09-.036.196-.508.194-.51c.236.092.468.198.698.304l.214.098.206.101.374.195c.204.11.408.22.61.338l.765.442.07.04c1.804 1.05 3.672 2.136 6.195 2.136v1.087c-2.843 0-4.948-1.231-6.807-2.318l-.006-.003a50.272 50.272 0 0 0-1.24-.709l-.14-.074a17.285 17.285 0 0 1-.348-.19 4.08 4.08 0 0 0-.387-.187v-.001l-.103-.045a2.12 2.12 0 0 0-.162.336c-.437 1.178.087 2.722 1.59 4.706.238.092.53.21.882.354l.085.036.594.241c2.454.994 6.426 2.483 10.285 2.483h.567v1.087h-.567c-3.525 0-7.081-1.157-9.612-2.122a65.83 65.83 0 0 1-1.097-.434l-.668-.266-.122-.05c.13.429.549.957 1.344 1.753.024.061.06.172.09.265.45 1.363 1.82 5.51 9.06 7.45 1.988.531 10.833 3.216 12.386 4.02l-5.528 6.007a587.34 587.34 0 0 0-1.59-4.369c.13-.264-.037-.588-.288-.795l-.074-.202c-.623-1.72-1.115-3.08-1.161-3.246l-.53.132-.53.051c0 .114 0 .135 1.282 3.636-.183.433.04.844.265.833h.032c.394 1.063.83 2.276 1.284 3.543l.324.902.152.422-.239.266.387.156c1.463 4.067 2.936 8.223 3.283 9.491 1.531 5.581 4.223 13.276 6.606 20.088l.04.116a1015.36 1015.36 0 0 1 1.832 5.24l.062.176.038.11.085.245c-11.636.126-20.784.266-23.736.406-11.25.53-15.428 1.122-16.835 1.385l-.265.053c0 .505 0 1.022.023 1.55.032 1.235.099 2.534.205 3.88 1.144 14.324 7.125 33.774 30.4 38.606.53.115 1.09.212 1.643.303 2.182.342 4.386.524 6.594.543h1.3a67.146 67.146 0 0 0 7.57-.543c11.905-1.501 24.87-5.87 36.81-10.345l.53-.196.53-.197c2.527-.953 5.008-1.91 7.417-2.84l.006-.002.559-.216 2.267-.875c1.913-.738 7.84-2.904 10.161-3.284a9.202 9.202 0 0 1 3.602-.796c1.366-.007 2.7.4 3.83 1.17 3.01 1.99 4.9 6.345 5.962 11.363.195.937.366 1.894.509 2.866a55.4 55.4 0 0 1 .386 3.392c0 .117.013.235.025.353l.01.09.002.025.002.037.004.039.04.53a66.5 66.5 0 0 1 .132 4.229v.034c.004.089.015.178.035.264.042.182.097.359.166.532.065.163.144.347.237.544 1.032 2.169 3.823 6.17 7.576 11.105.353.465.715.94 1.087 1.42 4.102 5.334 9.165 11.588 14.28 17.742.106.128.212.256.319.382l.002.004.583.701a997.016 997.016 0 0 0 11.069 13.05l1.932-1.024.488-.264.487-.266 14.66-7.718zm-121.052-115.73v.067a.935.935 0 0 0-.157.364l-16.554-6.66c.53-.38 1.343-1.245 3.005-3.067.954-1.06 2.032-2.233 2.411-2.493 2.69-1.852 5.534-5.645 7.824-8.7l.018-.024.1-.133c1.327-1.773 2.57-3.432 3.371-4.094 4.556 2.259 10.658 5.107 12.13 5.357 0 .287.167.504.333.496 2.359-.1.196-2.22-.159-1.106l-.027-.457c-1.218-.066-14.548-6.42-16.76-7.864l-.385-.249-1.325 1.429-.146-.215c-.137-.21-.336-.264-.612-.32-3.217-.745-6.37-3.828-9.386-9.151-.154-.273-.535-1.276-.945-2.355l-.038-.102c-.928-2.445-2.083-5.49-2.915-6.562-.53-.705-1.087-1.061-1.667-1.12-.26-.02-.52.028-.758.136l-.024-4.124c7.039.037 15.924 5.087 23.816 10.386a.578.578 0 0 0-.088.18v.075c-.35.494-.098 1.031.167 1.02.71-.03 1.007-.246 1.06-.497a356.558 356.558 0 0 1 6.345 4.454l.352.251c2.952 2.122 5.502 3.931 7.589 5.223 6.954 4.302 13.894 10.904 18.566 17.66 4.82 6.957 6.602 13.082 4.879 16.793-2.525 5.446-12.603 5.602-28.376.443-4.892-1.59-5.715-2.122-6.065-2.347h-.001a1.883 1.883 0 0 0-.885-.32h-.061l-3.641-1.468c.864-.534-.705-1.863-.991-.907zM49.506 310.916v-25.185c0-1.136-.013-2.884-.04-5.083H1.358c-.053 1.669-.108 3.364-.167 5.101v25.167h48.315zm-.055-31.355H1.599v-4.542h47.772c.035 1.643.061 3.165.08 4.542zm-6.347-60.042c-.09-.374-1.818-1.557-6.374-2.618h-.01a47.5 47.5 0 0 0-4.94-.86 107.03 107.03 0 0 1-3.802-.322c-7.452-.354-16.089.925-20.76 6.542-4.29 5.169-4.797 22.411-5.565 48.512v.029l-.09 3.13h47.795c-.146-6.878-.435-15.594-.941-24.081-1.542-26.006-3.983-29.603-4.96-29.942l-.287-.098-.066-.292zm.615-28.418h-1.272a46.967 46.967 0 0 0-1.887-.086c.66-.481 1.5-1.064 2.422-1.7l.002-.002.576-.398c5.021-3.48 7.987-5.631 9.306-7.021l1.837 9.403c-1.285-.122-4.166-.175-10.984-.196zm15.356-28.048a.851.851 0 0 0 .854.844l14.069-.067c-2.597-1.1-3.861-2.886-3.597-4.284.167-.796.952-1.62 2.65-1.326 1.271.223 3.187.786 5.405 1.439l.089.025c3.636 1.074 8.162 2.412 10.478 2.329.978-.034 1.696-.37 2.197-1.034a3.37 3.37 0 0 0 .445-.812l-.032-6.1-.122-.503.12-.034-.024-4.403v-2.241a.851.851 0 0 0-.848-.843l-6.657.034h-1.084l-14.668.077h-1.089l-7.42.037a.851.851 0 0 0-.795.57.837.837 0 0 0-.05.284v.841l.08 15.167zm51.615 9.817c.702.397 2.024 1.087 3.633 1.893-.872.855-1.977 2.33-3.3 4.096l-.015.02c-2.242 2.992-5.025 6.706-7.571 8.468-.451.31-1.283 1.21-2.6 2.653-1.023 1.124-2.568 2.822-2.955 2.997a.341.341 0 0 1 .156-.018l-.045.562-4.605-1.857 17.302-18.814z"/><path fill="#000" fill-rule="nonzero" d="M86.837 150.818c.27.29.651.423 1.026.36.636-.066 1.128-.641 1.146-1.342v-.04a1.115 1.115 0 0 0-.86-1.013c-.547-.117-1.103.143-1.405.655a1.266 1.266 0 0 0-.171.712c0 .037.014.067.02.105.027.21.113.406.244.563zm191.01 167.804c-2.67.937-7.253.735-12.565.5l-.038-.002c-3.493-.157-7.386-.325-11.264-.2l.027-.023c.2-.163.413-.31.638-.439l.222-.122c.342-.191.673-.381.984-.568 4.539-2.73 5.539-4.998 4.951-6.168-.557-1.086-2.197-1.128-4.183-.082a10.224 10.224 0 0 0-3.522 3.136c.3-4.044-1.019-6.318-2.432-7.077a2.193 2.193 0 0 0-2.767.426c-1.135 1.25-1.412 4.147 1.211 8.537.22.39.406.796.556 1.22.027.062.05.122.074.184.078.2.161.392.248.567.102.214.249.406.427.56a18.706 18.706 0 0 1-3.368-.327c-1.32-.22-2.424-.402-4.124.1-.334.1-.692.225-1.08.381-.326.133-.67.288-1.04.467-.159.076-.322.157-.49.244l-.48.252c-2.111 1.136-4.925 2.982-8.953 5.932-.24.174-1.01.672-1.984 1.301-.646.417-1.51.976-2.24 1.456l-.024.016c-.152.1-.296.195-.432.288l-.453.306-.174.122c.685.942 1.927 2.83 3.428 5.114 3.077 4.667 8.755 13.28 10.053 13.998.583-.206 1.583-.634 2.783-1.192.352-.162.712-.337 1.081-.52a53.377 53.377 0 0 0 2.53-1.324c3.714-2.064 4.508-3.167 4.508-3.44a11.316 11.316 0 0 0-.245-.654c-.931-2.378-1.828-4.99-.673-5.925.85-.689 2.337-.184 4.827 1.627.708.517 3.202.714 11.989-3.752 5.65-2.871 11.757-6.572 15.426-8.794l.037-.023.147-.089c1.042-.63 1.87-1.13 2.395-1.436.265-.304.494-2.168-.366-3.589-.968-1.598-2.922-1.943-5.645-.988zm-29.157-9.86a1.138 1.138 0 0 1 1.474-.198c1.089.585 2.637 3.019 1.5 8.429-.065.31-.119.541-.16.715a2.989 2.989 0 0 0-.132.55l-.167-.217a1.15 1.15 0 0 1-.163.114 1.144 1.144 0 0 1-.119-.206c-.048-.1-.098-.22-.15-.34a9.977 9.977 0 0 0-.113-.264 9.117 9.117 0 0 0-.641-1.388c-2.148-3.612-2.218-6.217-1.33-7.196zm3.19 10.146c-.034.03-.084.07-.145.115.059-.004.117-.009.177-.012.243-.016.487-.032.73-.035a1.478 1.478 0 0 1-.197-.379l.501-.195.467-.182a.34.34 0 0 0-.295-.03 2.19 2.19 0 0 0 .23-.17l.263-.2a4.99 4.99 0 0 1 .528-.34c4.938-2.69 5.982-4.82 5.702-5.363-.174-.347-1.22-.402-2.73.392-2.807 1.476-4.086 4.234-4.507 5.357l-.04.114c-.004.009-.008.017-.01.026a3.152 3.152 0 0 1-.127.42c-.114.298-.248.398-.512.398h-.1l.066.084zm-58.502 33.887c3.198 1.706 7.894 3.318 16.727 6.298 3.13 1.07 4.651 2.595 4.48 4.444-.193 1.441-1.433 2.529-1.782 2.547-1.027 0-3.048.117-5.597.267l-.056.004c-5.23.307-12.367.726-18.553.646-9.377-.118-11.265-1.339-11.557-2.055-.25-.62-.498-1.512-.737-2.38-.4-1.442-.66-2.351-1-2.757-.52-.626-1.015-.815-1.415-.815a1.446 1.446 0 0 0-.861.301c-1.13.84-1.76 3.381-2.263 5.696l-.016.073c-.066.303-.134.625-.17.729-.082.115-.85.858-6.284.818a60.359 60.359 0 0 1-7.635-.535c-.722-1.349-.603-11.473-.538-17v-.044l.009-1.012c.018-2.3.034-4.164-.009-5.167.417-.04 1.116-.085 1.882-.128l.537-.032.538-.03 1.464-.075c1.264-.063 2.26-.114 2.578-.148 2.696-.282 6.893-.474 9.99-.615l.084-.004.199-.008a227.25 227.25 0 0 0 2.68-.13l.553-.032.538-.03.536-.022c1.533-.053 2.576.007 3.457.319a6.414 6.414 0 0 1-.03-.295 4.918 4.918 0 0 0-.032-.304c-.027-.195-.027-.382-.027-.567-.03-1.667.406-2.888 1.024-3.653.152-.189.325-.358.517-.505l.077-.056c.192-.136.4-.245.622-.324.195-.07.4-.112.607-.126a2.334 2.334 0 0 1 1.558.482c1.301.957 2.14 3.361 1.154 7.37a12.49 12.49 0 0 1 4.133-2.962 8.632 8.632 0 0 1 1.516-.504v-47.84c.354.458.72.93 1.102 1.416v16.063h13.06l.917 1.095h-13.977v29.133c.909.02 1.444.401 1.66.895.41.922-.211 2.099-1.66 3.347v6.949a19.252 19.252 0 0 1-1.102-.677v-5.412a26.301 26.301 0 0 1-3.75 2.138l-.52.243-.441.201-.086.04c1.572 1.74 2.942 2.98 4.797 4.106.347.21.713.42 1.102.624zm0-9.75c.598-.675.743-1.157.654-1.36v.008c-.054-.12-.272-.224-.654-.25v1.603zm-2.182-1.058a7.834 7.834 0 0 1 1.075-.379v2.467a22.773 22.773 0 0 1-4.517 2.672c-.17.08-.342.158-.522.238l-.123.056a6.65 6.65 0 0 0-.388.195c-.217-.248-.444-.507-.672-.778.1-.148.205-.304.323-.467.118-.163.22-.293.341-.446a11.621 11.621 0 0 1 4.483-3.558zm-9.01-.82c.017.214.038.432.07.66v.003c.035.243.081.496.133.753.784.57 1.58 1.438 2.687 2.724.073-.212.134-.4.199-.615.064-.214.124-.422.18-.628 1.07-3.972.177-6.003-.642-6.615a1.208 1.208 0 0 0-1.536.018c-.75.57-1.222 1.845-1.09 3.7z"/><path fill="#000" fill-rule="nonzero" d="M221.754 207.592a73.373 73.373 0 0 0 5.186 1.979c3.932 1.35 9.887 2.894 13.457 3.82l.02.006c1.604.414 2.871.745 3.2.858.42.161.867.25 1.318.266.41.028.809-.138 1.08-.449.965-1.189-.619-4.012-3.278-8.525-1.099-1.862-2.138-3.625-2.684-4.909-1.114-2.614-3.168-5.956-5.574-9.84-4.47-7.227-10.028-16.22-10.733-23.278-.38-3.82-2.436-6.914-5.496-8.297-2.524-1.133-5.253-.907-7.303.61-1.473 1.087-2.45 2.732-2.903 4.785-1.541 1.33-3.288 3.245-3.167 4.234.05.375.348.774 1.03.774h2.008c.591 5.52.329 10.198.097 14.336-.493 8.727-.836 14.868 7.39 20.284.221 3.458.67 8.43.826 10.105-6.661.235-13.583 2-17.682 6.975-1.583 1.923-2.68 5.212-3.457 9.856.334.285.655.579.963.88.75-4.787 1.797-8.188 3.328-10.039 6.708-8.121 21.62-7.196 29.37-5.372 4.536 1.065 6.257 2.25 6.333 2.625l.066.293.283.097c.973.342 3.404 3.947 4.943 30.019.501 8.51.791 17.247.937 24.142h-20.173l.306.545.306.533h19.117v4.551h-16.573l.304.533.303.545h16.525c.03 2.207.04 3.957.04 5.094v25.25h-.602c.18.414.328.777.451 1.09h.152v.394c.548 1.476.426 1.734.345 1.907l-.077.162-.263.144v3.664a9.215 9.215 0 0 1 1.081-.343v-32.211c0-4.862-.195-20.816-1.092-36.038-1.494-25.302-3.76-29.983-5.429-30.873-.791-1.508-5.014-2.66-6.882-3.114a49.341 49.341 0 0 0-7.793-1.178c.045-.799.084-1.529.122-2.242.079-1.601.154-3.058.274-4.648zm-15.307-39.027h-.451c.18-.486.945-1.388 1.803-2.24.195-.193.395-.385.596-.571.2-.186.427-.386.633-.559a7.6 7.6 0 0 1 1.056-.781c.168.16.338.31.504.46l.017.015c.671.605 1.252 1.13 1.566 1.91.182.447.09.668 0 .798-.42.622-1.89.859-3.298.942l-.544.026-.528.014c-.53-.004-1.01-.009-1.35-.014h-.004zm10.071 36.421c.25 3.421.657 7.902.792 9.37h.002c1-.013 2 .009 2.946.061a599.326 599.326 0 0 0 .12-2.233c.09-1.74.172-3.3.309-5.052a41.898 41.898 0 0 1-4.169-2.146zM30.546 177.075a3.237 3.237 0 0 0-.063.355c0 .947 1.458.66 1.185-.214-.189-.606-.965-.458-1.122-.141zm19.51-13.412c-.029.117-.05.235-.064.354 0 .948 1.456.661 1.185-.213-.189-.606-.965-.458-1.122-.141zm69.502 6.096c-.03.116-.052.235-.066.355 0 .947 1.458.66 1.185-.212-.189-.608-.962-.46-1.12-.143zm-19.511 30.48c-.028.119-.05.238-.064.359 0 .946 1.457.658 1.186-.215-.185-.606-.96-.458-1.122-.144zm17.072 15.851c-.03.119-.052.238-.066.359 0 .947 1.459.657 1.186-.215-.19-.606-.965-.458-1.12-.144zm-40.337-24.243c-.189-.606-.964-.456-1.12-.142-.03.117-.051.236-.065.356 0 .948 1.458.661 1.185-.214zm-62.084 3.516c-.03.117-.053.237-.066.358 0 .946 1.458.658 1.185-.214-.189-.606-.965-.46-1.12-.144zm29.16 9.897c-.188-.608-.962-.456-1.119-.144a3.136 3.136 0 0 0-.063.359c0 .946 1.466.658 1.183-.215zm34.144-26.827c-.19-.605-.965-.455-1.122-.14-.028.117-.05.235-.064.355 0 .946 1.459.666 1.186-.215zm3.657 40.238c-.188-.605-.964-.456-1.119-.14-.03.116-.052.234-.066.355 0 .947 1.458.661 1.185-.215zm-45.113-7.314c-.19-.609-.965-.456-1.122-.144-.028.118-.05.237-.064.356 0 .949 1.456.662 1.186-.212zm7.496-35.49v.06c-.3.421-.082.88.143.872 2.027-.086.15-1.908-.143-.932zm102.562 13.125c2.03-.086.155-1.908-.137-.932v.06c-.305.421-.087.88.137.872zm-112.316 8.822v.063c-.3.421-.084.88.14.87 2.03-.087.153-1.908-.14-.933zm89.15-5.164c2.029-.086.153-1.908-.14-.932v.06c-.302.421-.085.88.14.872zm-26.966 24.673v.06c-.3.422-.084.881.144.873 2.025-.087.15-1.908-.144-.933zm-56.088-30.481v.06c-.3.421-.084.88.143.871 2.027-.088.15-1.91-.143-.931zm60.965 19.507v.061c-.3.42-.082.88.143.872 2.028-.087.15-1.908-.143-.933zM28.19 166.112v.061c-.3.42-.082.88.143.872 2.03-.087.144-1.908-.143-.933zm120.852 31.416c2.03-.087.154-1.909-.139-.933v.063c-.302.42-.087.88.139.87zM47.7 153.919v.061c-.3.42-.082.88.143.872 2.028-.087.148-1.908-.143-.933zm25.605 26.826v.055c-.3.423-.084.885.143.877 2.027-.08.15-1.912-.143-.932zM50.28 212.159c2.029-.086.153-1.908-.14-.933v.061c-.302.421-.084.88.14.872zm-24.528-4.59v.06c-.3.421-.084.88.143.872 2.026-.086.153-1.908-.143-.932zm-15.711-1.506c2.034-.09.152-1.909-.142-.933v.06c-.293.422-.086.881.142.873zm57.169-22.88v.06c-.302.421-.084.88.14.872 2.028-.086.153-1.908-.14-.933zm4.876 41.46v.06c-.3.42-.084.877.143.869 2.027-.096.15-1.911-.143-.93zM8.682 188.061v.063c-.3.42-.084.876.143.867 2.027-.086.15-1.91-.143-.93zm58.528-20.728v.063c-.302.42-.084.878.14.867 2.029-.086.153-1.912-.14-.93zm4.877 40.236v.06c-.302.421-.085.88.144.871 2.027-.088.141-1.91-.144-.931zm-69.445-7.897l.06.02c.335.393.844.306.895.089.457-1.95-1.836-.646-.955-.109zm57.307-20.729l.06.02c.335.393.842.307.895.092.457-1.953-1.836-.647-.955-.112zm51.273 26.843c.334.396.842.309.893.092.46-1.953-1.84-.643-.952-.11l.06.018zm24.325-1.238l.06.019c.333.396.843.308.894.091.458-1.952-1.836-.642-.954-.11zm-97.464-37.465c-.578.125-.248 1.796.746.935.323-.277.323-1.17-.746-.935zm101.948 13.13c.323-.28.326-1.171-.745-.937-.579.123-.251 1.795.745.936zm-33.666-13.13c-.579.125-.25 1.796.744.934.324-.276.326-1.168-.744-.934zm-6.57 19.227c.322-.282.322-1.172-.745-.938-.58.118-.251 1.794.745.938zm-82.44-9.474c-.578.13-.25 1.797.745.935.324-.273.326-1.167-.745-.935zm133.65 26.543c.323-.279.325-1.17-.745-.936-.58.122-.251 1.795.745.936zm-50.737-47.27c-.578.126-.25 1.796.745.934.323-.275.326-1.168-.745-.934zm11.719 67.998c.323-.28.325-1.17-.745-.936-.578.122-.25 1.794.745.936zm-31.702-26.824c.323-.282.325-1.17-.745-.937-.578.12-.25 1.796.745.937zm-19.036-5.814c-.577.126-.247 1.796.746.935.325-.277.325-1.17-.746-.935zm-32.92-2.439c-.578.126-.25 1.796.745.934.323-.275.326-1.168-.745-.934zm16.596-25.89c.324-.278.324-1.168-.744-.934-.58.12-.25 1.797.744.935zm71.94 19.51c.323-.278.323-1.17-.745-.935-.58.125-.25 1.794.744.935zm-25.607 26.826c.324-.28.326-1.17-.744-.937-.579.122-.25 1.795.744.937zm-42.201-11.912c-.578.127-.248 1.798.746.936.323-.269.323-1.169-.746-.936zm89.755-5.159c.323-.279.325-1.17-.745-.936-.58.122-.251 1.795.745.936z"/><g fill-rule="nonzero" filter="url(#a)" transform="translate(965.69 37.798)"><path fill="#E3E3E3" d="M59.793 48.772H3.986C1.822 48.772 0 46.99 0 44.746V4.026C0 1.84 1.765 0 3.986 0h55.807c2.164 0 3.986 1.783 3.986 4.026v40.72c0 2.243-1.765 4.026-3.986 4.026z"/><path fill="#231F20" opacity=".1" d="M8.139 48.772l24.203-18.983.173-1.015L7.561 11.255l-.057 36.672z"/><path fill="#D54B3D" d="M3.752 48.772C1.662 48.772 0 46.987 0 44.74V3.9c0-2.246 1.661-2.65 3.752-2.65 2.09 0 3.751.461 3.751 2.65v44.872H3.752z"/><path fill="#D72B27" d="M3.752 1.827c2.68 0 3.215.864 3.215 2.073v44.296H3.752c-1.769 0-3.216-1.555-3.216-3.456V3.9c0-1.267.536-2.073 3.216-2.073zm0-.576C1.662 1.25 0 1.71 0 3.9v40.84c0 2.246 1.661 4.031 3.752 4.031h3.751V3.9c0-2.246-1.661-2.65-3.751-2.65z"/><path fill="#D54B3D" d="M60.027 48.772h-3.751V3.785c0-2.246 1.661-2.534 3.751-2.534s3.752.288 3.752 2.534v41.013c0 2.189-1.661 3.974-3.752 3.974z"/><path fill="#D72B27" d="M60.027 1.826c2.412 0 3.216.518 3.216 1.956v40.963c0 1.899-1.447 3.452-3.216 3.452h-3.215V3.782c0-1.496.804-1.956 3.215-1.956zm0-.575c-2.09 0-3.751.287-3.751 2.531v44.99h3.751c2.09 0 3.752-1.783 3.752-4.027V3.782c0-2.244-1.661-2.531-3.752-2.531z"/><path fill="url(#b)" d="M43.014 48.772L1.25 6.112l2.196.906L32.52 28.236 63.78 5.002v39.845a3.919 3.919 0 0 1-3.929 3.925H43.014z"/><path fill="#D54B3D" d="M31.787 30.014L1.7 7.614C-.062 6.272-.574 3.705.734 1.897a4.057 4.057 0 0 1 5.687-.875L31.844 19.98 57.437.79c1.763-1.342 4.265-.934 5.573.933 1.308 1.808.91 4.375-.91 5.717L31.787 30.014z"/><path fill="#D72B27" d="M59.804.582c1.082 0 2.107.523 2.79 1.454a3.624 3.624 0 0 1-.74 4.886L31.842 29.258 2.058 7.154C.521 5.991.122 3.781 1.204 2.268A3.562 3.562 0 0 1 4.052.814c.74 0 1.48.233 2.05.698L31.5 20.358l.341.233.342-.233 25.57-19.137c.626-.407 1.31-.64 2.05-.64zm0-.582c-.797 0-1.652.233-2.335.756L31.842 19.893 6.387.989C5.703.465 4.849.233 3.995.233A4.07 4.07 0 0 0 .692 1.919c-1.253 1.804-.74 4.363 1.025 5.7l30.125 22.395L62.14 7.445c1.765-1.338 2.164-3.839.91-5.7C62.254.582 61.058 0 59.805 0z"/></g></g></svg>