<svg width="640" height="620" xmlns="http://www.w3.org/2000/svg" xmlns:xlink="http://www.w3.org/1999/xlink"><defs><linearGradient x1="2.438%" y1="-67.426%" x2="47.667%" y2="86.169%" id="a"><stop stop-color="#14C39A" offset="0%"/><stop stop-color="#82A5AF" offset="24.163%"/><stop stop-color="#F785C4" offset="49.824%"/><stop stop-color="#34D2FB" offset="76.845%"/><stop stop-color="#14C39A" offset="100%"/></linearGradient><linearGradient x1="2.438%" y1="-66.163%" x2="47.667%" y2="85.78%" id="b"><stop stop-color="#14C39A" offset="0%"/><stop stop-color="#82A5AF" offset="24.163%"/><stop stop-color="#F785C4" offset="49.824%"/><stop stop-color="#34D2FB" offset="76.845%"/><stop stop-color="#14C39A" offset="100%"/></linearGradient><linearGradient x1="2.438%" y1="-67.256%" x2="47.667%" y2="86.116%" id="c"><stop stop-color="#14C39A" offset="0%"/><stop stop-color="#82A5AF" offset="24.163%"/><stop stop-color="#F785C4" offset="49.824%"/><stop stop-color="#34D2FB" offset="76.845%"/><stop stop-color="#14C39A" offset="100%"/></linearGradient><rect id="e" x="0" y="195" width="136" height="90" rx="16"/><filter x="-21.7%" y="-20.6%" width="143.4%" height="165.6%" filterUnits="objectBoundingBox" id="d"><feOffset dy="11" in="SourceAlpha" result="shadowOffsetOuter1"/><feGaussianBlur stdDeviation="8" in="shadowOffsetOuter1" result="shadowBlurOuter1"/><feColorMatrix values="0 0 0 0 0 0 0 0 0 0 0 0 0 0 0 0 0 0 0.15 0" in="shadowBlurOuter1"/></filter><rect id="g" x="437" y="195" width="136" height="90" rx="16"/><filter x="-21.7%" y="-20.6%" width="143.4%" height="165.6%" filterUnits="objectBoundingBox" id="f"><feOffset dy="11" in="SourceAlpha" result="shadowOffsetOuter1"/><feGaussianBlur stdDeviation="8" in="shadowOffsetOuter1" result="shadowBlurOuter1"/><feColorMatrix values="0 0 0 0 0 0 0 0 0 0 0 0 0 0 0 0 0 0 0.15 0" in="shadowBlurOuter1"/></filter><rect id="i" x="218" y="385" width="136" height="90" rx="16"/><filter x="-21.7%" y="-20.6%" width="143.4%" height="165.6%" filterUnits="objectBoundingBox" id="h"><feOffset dy="11" in="SourceAlpha" result="shadowOffsetOuter1"/><feGaussianBlur stdDeviation="8" in="shadowOffsetOuter1" result="shadowBlurOuter1"/><feColorMatrix values="0 0 0 0 0 0 0 0 0 0 0 0 0 0 0 0 0 0 0.15 0" in="shadowBlurOuter1"/></filter><rect id="k" x="218" y="0" width="136" height="90" rx="16"/><filter x="-21.7%" y="-20.6%" width="143.4%" height="165.6%" filterUnits="objectBoundingBox" id="j"><feOffset dy="11" in="SourceAlpha" result="shadowOffsetOuter1"/><feGaussianBlur stdDeviation="8" in="shadowOffsetOuter1" result="shadowBlurOuter1"/><feColorMatrix values="0 0 0 0 0 0 0 0 0 0 0 0 0 0 0 0 0 0 0.15 0" in="shadowBlurOuter1"/></filter><path id="l" d="M.264.19h14.4v19.54H.264z"/><path id="n" d="M.264.19h14.4v19.54H.264z"/></defs><g fill="none" fill-rule="evenodd"><g opacity=".7"><path d="M609.18 247.835c-8.474-10.431-16.456-20.287-19.378-29.305-3.14-9.73-2.483-22.875-1.774-36.774 1.033-21.02 2.244-44.838-10.967-63.115-13.346-18.424-36.47-24.645-56.87-30.133-13.282-3.572-25.835-6.986-33.87-12.82-7.878-5.771-14.87-16.612-22.268-28.091-11.54-17.89-24.595-38.177-46.445-45.31-19.043-6.127-42.041 1.142-62.473 9.018-13.179 5.07-25.606 9.825-36.156 9.825-10.539 0-22.967-4.755-36.146-9.825-20.462-7.845-43.46-15.145-62.472-9.018-21.85 7.133-34.946 27.39-46.477 45.31-7.377 11.448-14.368 22.288-22.247 28.06-8.066 5.896-20.608 9.28-33.892 12.85-20.368 5.489-43.47 11.742-56.838 30.176-13.22 18.203-12.01 42.052-10.966 63.073.74 13.94 1.367 27.075-1.743 36.774-2.922 8.986-10.904 18.874-19.377 29.305C15.318 264.478 0 283.363 0 306.865c0 23.473 15.276 42.346 28.79 59.02 8.472 10.433 16.455 20.289 19.366 29.317 3.152 9.72 2.494 22.864 1.785 36.763-1.044 21.021-2.254 44.838 10.966 63.115 13.336 18.434 36.47 24.645 56.87 30.133 13.283 3.572 25.826 6.987 33.86 12.82 7.879 5.771 14.87 16.612 22.279 28.102 11.54 17.889 24.594 38.166 46.445 45.31 18.97 6.095 42.01-1.216 62.472-9.029 13.18-5.038 25.607-9.814 36.146-9.814 10.55 0 22.977 4.755 36.156 9.814 14.839 5.719 30.22 11.584 45.757 11.584 5.874 0 11.499-.859 16.674-2.556 21.861-7.143 34.946-27.389 46.487-45.31 7.367-11.447 14.358-22.288 22.268-28.07 8.035-5.896 20.588-9.279 33.902-12.85 20.369-5.489 43.46-11.7 56.838-30.134 13.21-18.203 12-42.063 10.967-63.115-.71-13.93-1.367-27.075 1.774-36.763 2.922-8.997 10.904-18.884 19.377-29.316C622.682 349.274 638 330.4 638 306.866c-.031-23.472-15.318-42.356-28.82-59.03" fill="url(#a)" opacity=".1" transform="rotate(38 315.144 309.952)"/><path d="M585.099 252.126c-7.756-9.498-15.063-18.471-17.737-26.681-2.875-8.859-2.274-20.826-1.624-33.48.945-19.138 2.053-40.822-10.039-57.461-12.216-16.773-33.382-22.437-52.056-27.434-12.159-3.252-23.65-6.36-31.004-11.672-7.211-5.254-13.61-15.123-20.383-25.574-10.564-16.287-22.513-34.757-42.514-41.251-17.431-5.579-38.483 1.04-57.185 8.21-12.063 4.615-23.44 8.944-33.096 8.944-9.647 0-21.023-4.329-33.086-8.944-18.731-7.142-39.783-13.789-57.185-8.21-20.001 6.494-31.989 24.935-42.543 41.25-6.753 10.423-13.152 20.293-20.364 25.547-7.383 5.368-18.864 8.448-31.023 11.7-18.645 4.997-39.792 10.69-52.028 27.472-12.101 16.573-10.993 38.285-10.038 57.423.678 12.692 1.251 24.65-1.595 33.48-2.675 8.181-9.982 17.183-17.737 26.68-12.36 15.153-26.382 32.345-26.382 53.743 0 21.37 13.984 38.553 26.353 53.733 7.756 9.498 15.063 18.47 17.728 26.69 2.884 8.85 2.282 20.817 1.633 33.47-.955 19.138-2.063 40.822 10.038 57.462 12.207 16.783 33.383 22.437 52.056 27.434 12.16 3.252 23.64 6.36 30.995 11.672 7.212 5.254 13.611 15.123 20.393 25.584 10.564 16.286 22.513 34.747 42.514 41.25 17.364 5.55 38.454-1.105 57.185-8.219 12.063-4.587 23.439-8.935 33.086-8.935 9.657 0 21.033 4.33 33.096 8.935 13.582 5.206 27.661 10.546 41.884 10.546 5.377 0 10.525-.782 15.263-2.326 20.01-6.504 31.988-24.936 42.552-41.251C459 531.49 465.4 521.62 472.64 516.357c7.355-5.368 18.845-8.448 31.033-11.7 18.645-4.997 39.782-10.651 52.027-27.434 12.092-16.573 10.984-38.295 10.039-57.462-.65-12.682-1.251-24.65 1.624-33.47 2.674-8.19 9.981-17.192 17.737-26.69 12.36-15.123 26.381-32.306 26.381-53.733-.028-21.37-14.021-38.562-26.381-53.742" fill="url(#b)" opacity=".15" transform="rotate(38 315.144 309.952)"/><path d="M555.631 259.243c-6.932-8.529-13.463-16.587-15.854-23.96-2.57-7.955-2.032-18.702-1.451-30.065.845-17.187 1.835-36.66-8.973-51.603-10.92-15.063-29.839-20.15-46.53-24.636-10.868-2.92-21.138-5.712-27.712-10.482-6.446-4.718-12.166-13.581-18.22-22.966-9.442-14.627-20.122-31.214-38-37.045-15.58-5.01-34.397.933-51.114 7.373-10.783 4.144-20.95 8.032-29.582 8.032-8.623 0-18.791-3.888-29.574-8.032-16.742-6.414-35.559-12.383-51.114-7.373-17.878 5.831-28.592 22.393-38.026 37.045-6.036 9.36-11.756 18.222-18.202 22.94-6.6 4.822-16.862 7.588-27.73 10.508-16.665 4.487-35.567 9.6-46.504 24.67-10.817 14.883-9.826 34.382-8.973 51.569.607 11.397 1.119 22.136-1.425 30.065-2.39 7.348-8.922 15.431-15.854 23.96-11.048 13.607-23.581 29.047-23.581 48.263 0 19.19 12.499 34.621 23.555 48.254 6.932 8.53 13.464 16.587 15.846 23.969 2.578 7.946 2.04 18.693 1.46 30.057-.854 17.186-1.845 36.66 8.972 51.602 10.911 15.072 29.839 20.15 46.53 24.637 10.868 2.92 21.13 5.711 27.704 10.481 6.446 4.719 12.166 13.582 18.228 22.975 9.442 14.627 20.122 31.205 38 37.045 15.521 4.984 34.372-.993 51.114-7.381 10.783-4.12 20.951-8.024 29.574-8.024 8.631 0 18.8 3.888 29.582 8.024 12.14 4.675 24.725 9.47 37.437 9.47 4.807 0 9.409-.702 13.643-2.089 17.886-5.84 28.592-22.393 38.035-37.045 6.027-9.36 11.747-18.222 18.219-22.95 6.574-4.82 16.844-7.586 27.738-10.506 16.665-4.487 35.559-9.565 46.504-24.637 10.808-14.883 9.818-34.39 8.973-51.602-.58-11.39-1.119-22.136 1.451-30.057 2.39-7.356 8.922-15.44 15.854-23.969 11.048-13.581 23.581-29.012 23.581-48.254-.026-19.19-12.533-34.63-23.58-48.263" fill="url(#c)" opacity=".2" transform="rotate(38 315.144 309.952)"/></g><g transform="translate(35 82)"><path d="M74.625 240H507.5m-221.5-.571V409" stroke="#6C8B8B" stroke-width="2" stroke-dasharray="2,3"/><path d="M286 71.429v172.285m199-36.038v-85.73M287 35C175.438 35 85 125.438 85 237c0 54.92 21.917 104.721 57.482 141.133C179.162 415.687 230.36 439 287 439c111.562 0 202-90.438 202-202" stroke="#6C8B8B" stroke-width="2"/><use fill="#000" filter="url(#d)" xlink:href="#e"/><use fill="#FFF" xlink:href="#e"/><use fill="#000" filter="url(#f)" xlink:href="#g"/><use fill="#FFF" xlink:href="#g"/><use fill="#000" filter="url(#h)" xlink:href="#i"/><use fill="#FFF" xlink:href="#i"/><use fill="#000" filter="url(#j)" xlink:href="#k"/><use fill="#FFF" xlink:href="#k"/><circle fill="#035945" cx="286.5" cy="238.5" r="81.5"/><path d="M280.423 231.68c0-1.007-.297-1.826-.89-2.453a2.889 2.889 0 0 0-2.182-.941c-.86 0-1.587.313-2.181.94-.594.628-.89 1.447-.89 2.454 0 1.008.296 1.826.89 2.453a2.888 2.888 0 0 0 2.181.941c.861 0 1.588-.313 2.182-.94.593-.628.89-1.446.89-2.454m-2.457-7.251c.88 0 1.72.18 2.52.54a6.5 6.5 0 0 1 2.103 1.512 7.423 7.423 0 0 1 1.445 2.298c.358.885.537 1.852.537 2.901 0 1.05-.18 2.016-.537 2.9a7.417 7.417 0 0 1-1.445 2.3 6.492 6.492 0 0 1-2.104 1.511c-.798.36-1.639.54-2.519.54a5.577 5.577 0 0 1-2.581-.617 4.74 4.74 0 0 1-.952-.617v6.017h-4.147v-19.131h3.072l.614 1.388a5.332 5.332 0 0 1 1.075-.771c.348-.185.768-.36 1.26-.525a5.207 5.207 0 0 1 1.66-.246m15.335 0c.19 0 .364.01.523.03.159.02.29.042.397.062.127.02.243.041.35.061v4.301a12.853 12.853 0 0 1-.445-.153 4.828 4.828 0 0 0-.508-.108 4.005 4.005 0 0 0-.635-.046c-.804 0-1.456.257-1.953.768-.496.512-.745 1.229-.745 2.15v7.22H286v-14.132h3.174l.636 1.536a4.4 4.4 0 0 1 .92-.83 4.684 4.684 0 0 1 1.095-.598 3.937 3.937 0 0 1 1.477-.261m12.166 7.5c0-1.105-.294-1.98-.881-2.625-.588-.646-1.307-.97-2.158-.97s-1.571.324-2.158.97c-.588.645-.882 1.52-.882 2.625 0 1.104.294 1.979.882 2.625.587.645 1.307.968 2.158.968.85 0 1.57-.323 2.158-.968.587-.646.881-1.52.881-2.625m-10.182 0c0-1.063.188-2.047.563-2.954a7.591 7.591 0 0 1 1.534-2.375 7.144 7.144 0 0 1 2.265-1.593 6.726 6.726 0 0 1 2.78-.578c.993 0 1.92.192 2.782.578.86.385 1.616.916 2.264 1.593a7.603 7.603 0 0 1 1.535 2.375c.374.907.562 1.891.562 2.954a7.597 7.597 0 0 1-2.098 5.328 7.146 7.146 0 0 1-2.263 1.593 6.741 6.741 0 0 1-2.781.579c-.994 0-1.92-.194-2.781-.579a7.144 7.144 0 0 1-2.265-1.593 7.585 7.585 0 0 1-1.534-2.375c-.375-.907-.563-1.89-.563-2.953m25.896 0c0-1.105-.293-1.98-.881-2.625-.588-.646-1.307-.97-2.158-.97s-1.57.324-2.158.97c-.588.645-.882 1.52-.882 2.625 0 1.104.294 1.979.882 2.625.587.645 1.307.968 2.158.968.85 0 1.57-.323 2.158-.968.588-.646.881-1.52.881-2.625m-10.182 0c0-1.063.187-2.047.562-2.954a7.592 7.592 0 0 1 1.535-2.375 7.148 7.148 0 0 1 2.265-1.593 6.728 6.728 0 0 1 2.78-.578c.993 0 1.92.192 2.782.578.86.385 1.616.916 2.264 1.593a7.592 7.592 0 0 1 1.535 2.375c.375.907.563 1.891.563 2.954a7.652 7.652 0 0 1-.563 2.953 7.586 7.586 0 0 1-1.535 2.375 7.154 7.154 0 0 1-2.264 1.593 6.741 6.741 0 0 1-2.781.579c-.994 0-1.92-.194-2.781-.579a7.148 7.148 0 0 1-2.265-1.593 7.586 7.586 0 0 1-1.535-2.375c-.375-.907-.562-1.89-.562-2.953" fill="#FFF"/><g transform="translate(326 219.429)"><mask id="m" fill="#fff"><use xlink:href="#l"/></mask><path d="M10.164 2.498c0-.615.225-1.154.675-1.615.45-.462.975-.693 1.575-.693s1.125.231 1.575.693c.45.461.675 1 .675 1.615s-.225 1.154-.675 1.615c-.45.462-.975.693-1.575.693s-1.125-.231-1.575-.693c-.45-.461-.675-1-.675-1.615zm4.2 17.23h-4.05v-9.692h-4.2v9.693h-4.05v-9.693h-1.8V6.19h1.8v-.769c0-1.702.43-3 1.29-3.892C4.214.636 5.434.19 7.014.19a6.298 6.298 0 0 1 1.41.154c.2.062.38.113.54.154V4.19l-.3-.061c-.1-.02-.21-.04-.33-.062-.12-.02-.26-.03-.42-.03-.52 0-.95.18-1.29.538-.34.359-.51.846-.51 1.461v.154h8.25v13.54z" fill="#FFF" mask="url(#m)"/></g><path d="M260.594 230.224c-.412-.507-.8-.985-.942-1.423-.152-.472-.12-1.11-.086-1.785.05-1.02.11-2.177-.533-3.064-.648-.895-1.771-1.197-2.762-1.463-.646-.174-1.255-.34-1.646-.623-.383-.28-.722-.806-1.082-1.363-.56-.869-1.194-1.854-2.256-2.2-.925-.297-2.042.056-3.035.438-.64.246-1.244.477-1.756.477s-1.116-.231-1.756-.477c-.994-.38-2.111-.735-3.035-.438-1.061.346-1.698 1.33-2.258 2.2-.358.556-.698 1.082-1.08 1.362-.392.286-1.002.45-1.647.624-.99.266-2.112.57-2.761 1.465-.642.884-.584 2.041-.533 3.062.036.677.067 1.314-.085 1.785-.141.436-.53.916-.94 1.423-.657.808-1.4 1.725-1.4 2.866 0 1.139.741 2.055 1.398 2.865.411.506.799.985.94 1.423.154.472.122 1.11.087 1.785-.05 1.02-.11 2.177.533 3.064.648.895 1.772 1.196 2.763 1.463.645.173 1.254.339 1.645.622.382.28.722.807 1.082 1.364.56.869 1.195 1.853 2.256 2.2.922.296 2.04-.059 3.035-.438.64-.245 1.244-.477 1.756-.477s1.116.231 1.756.477c.721.277 1.468.562 2.223.562.286 0 .559-.042.81-.124 1.062-.347 1.698-1.33 2.258-2.2.358-.555.698-1.082 1.082-1.362.39-.287 1-.45 1.647-.624.99-.267 2.111-.568 2.761-1.463.642-.884.583-2.042.533-3.064-.034-.677-.066-1.315.086-1.785.142-.437.53-.917.942-1.423.656-.807 1.4-1.723 1.4-2.865-.002-1.14-.744-2.057-1.4-2.866" fill="#14C39A"/><path d="M253.011 228.6l-7.95 9.918a1.27 1.27 0 0 1-.939.475c-.033.004-.061.003-.092.002a1.287 1.287 0 0 1-.885-.402l-2.45-2.63a1.276 1.276 0 0 1 .06-1.798 1.267 1.267 0 0 1 1.793.061l1.45 1.559 7.036-8.777a1.265 1.265 0 0 1 1.784-.197c.546.442.633 1.242.193 1.79" stroke="#FFF" fill="#FFF"/><path d="M475.423 73.68c0-1.007-.297-1.826-.89-2.453a2.889 2.889 0 0 0-2.182-.941c-.86 0-1.587.313-2.181.94-.594.628-.89 1.447-.89 2.454 0 1.008.296 1.826.89 2.453a2.888 2.888 0 0 0 2.181.941c.861 0 1.588-.313 2.182-.94.593-.628.89-1.446.89-2.454m-2.457-7.251c.88 0 1.72.18 2.52.54a6.5 6.5 0 0 1 2.103 1.512 7.423 7.423 0 0 1 1.445 2.298c.358.885.537 1.852.537 2.901 0 1.05-.18 2.016-.537 2.9a7.417 7.417 0 0 1-1.445 2.3 6.492 6.492 0 0 1-2.104 1.511c-.798.36-1.639.54-2.519.54a5.577 5.577 0 0 1-2.581-.617 4.74 4.74 0 0 1-.952-.617v6.017h-4.147V66.583h3.072l.614 1.388a5.332 5.332 0 0 1 1.075-.771c.348-.185.768-.36 1.26-.525a5.207 5.207 0 0 1 1.66-.246m15.335 0c.19 0 .364.01.523.03.159.02.29.042.397.062.127.02.243.041.35.061v4.301a12.853 12.853 0 0 1-.445-.153 4.828 4.828 0 0 0-.508-.108 4.005 4.005 0 0 0-.635-.046c-.804 0-1.456.257-1.953.768-.496.512-.745 1.229-.745 2.15v7.22H481V66.582h3.174l.636 1.536a4.4 4.4 0 0 1 .92-.83 4.684 4.684 0 0 1 1.095-.598 3.937 3.937 0 0 1 1.477-.261m12.166 7.5c0-1.105-.294-1.98-.881-2.625-.588-.646-1.307-.97-2.158-.97s-1.571.324-2.158.97c-.588.645-.882 1.52-.882 2.625 0 1.104.294 1.979.882 2.625.587.645 1.307.968 2.158.968.85 0 1.57-.323 2.158-.968.587-.646.881-1.52.881-2.625m-10.182 0c0-1.063.188-2.047.563-2.954a7.591 7.591 0 0 1 1.534-2.375 7.144 7.144 0 0 1 2.265-1.593 6.726 6.726 0 0 1 2.78-.578c.993 0 1.92.192 2.782.578.86.385 1.616.916 2.264 1.593a7.603 7.603 0 0 1 1.535 2.375c.374.907.562 1.891.562 2.954a7.597 7.597 0 0 1-2.098 5.328 7.146 7.146 0 0 1-2.263 1.593 6.741 6.741 0 0 1-2.781.579c-.994 0-1.92-.194-2.781-.579a7.144 7.144 0 0 1-2.265-1.593 7.585 7.585 0 0 1-1.534-2.375c-.375-.907-.563-1.89-.563-2.953m25.896 0c0-1.105-.293-1.98-.881-2.625-.588-.646-1.307-.97-2.158-.97s-1.57.324-2.158.97c-.588.645-.882 1.52-.882 2.625 0 1.104.294 1.979.882 2.625.587.645 1.307.968 2.158.968.85 0 1.57-.323 2.158-.968.588-.646.881-1.52.881-2.625m-10.182 0c0-1.063.187-2.047.562-2.954a7.592 7.592 0 0 1 1.535-2.375 7.148 7.148 0 0 1 2.265-1.593 6.728 6.728 0 0 1 2.78-.578c.993 0 1.92.192 2.782.578.86.385 1.616.916 2.264 1.593a7.592 7.592 0 0 1 1.535 2.375c.375.907.563 1.891.563 2.954a7.652 7.652 0 0 1-.563 2.953 7.586 7.586 0 0 1-1.535 2.375 7.154 7.154 0 0 1-2.264 1.593 6.741 6.741 0 0 1-2.781.579c-.994 0-1.92-.194-2.781-.579a7.148 7.148 0 0 1-2.265-1.593 7.586 7.586 0 0 1-1.535-2.375c-.375-.907-.562-1.89-.562-2.953" fill="#000"/><g transform="translate(521 61.429)"><mask id="o" fill="#fff"><use xlink:href="#n"/></mask><path d="M10.164 2.498c0-.615.225-1.154.675-1.615.45-.462.975-.693 1.575-.693s1.125.231 1.575.693c.45.461.675 1 .675 1.615s-.225 1.154-.675 1.615c-.45.462-.975.693-1.575.693s-1.125-.231-1.575-.693c-.45-.461-.675-1-.675-1.615zm4.2 17.23h-4.05v-9.692h-4.2v9.693h-4.05v-9.693h-1.8V6.19h1.8v-.769c0-1.702.43-3 1.29-3.892C4.214.636 5.434.19 7.014.19a6.298 6.298 0 0 1 1.41.154c.2.062.38.113.54.154V4.19l-.3-.061c-.1-.02-.21-.04-.33-.062-.12-.02-.26-.03-.42-.03-.52 0-.95.18-1.29.538-.34.359-.51.846-.51 1.461v.154h8.25v13.54z" fill="#000" mask="url(#o)"/></g><path d="M455.594 72.224c-.412-.507-.8-.985-.942-1.423-.152-.472-.12-1.11-.086-1.785.05-1.02.11-2.177-.533-3.064-.648-.895-1.771-1.197-2.762-1.463-.646-.174-1.255-.34-1.646-.623-.383-.28-.722-.806-1.082-1.363-.56-.869-1.194-1.854-2.256-2.2-.925-.297-2.042.056-3.035.438-.64.246-1.244.477-1.756.477s-1.116-.231-1.756-.477c-.994-.38-2.111-.735-3.035-.438-1.061.346-1.698 1.33-2.258 2.2-.358.556-.698 1.082-1.08 1.362-.392.286-1.002.45-1.647.624-.99.266-2.112.57-2.761 1.465-.642.884-.584 2.041-.533 3.062.036.677.067 1.314-.085 1.785-.141.436-.53.916-.94 1.423-.657.808-1.4 1.725-1.4 2.866 0 1.139.741 2.055 1.398 2.865.411.506.799.985.94 1.423.154.472.122 1.11.087 1.785-.05 1.02-.11 2.177.533 3.064.648.895 1.772 1.196 2.763 1.463.645.173 1.254.339 1.645.622.382.28.722.807 1.082 1.364.56.869 1.195 1.853 2.256 2.2.922.296 2.04-.059 3.035-.438.64-.245 1.244-.477 1.756-.477s1.116.231 1.756.477c.721.277 1.468.562 2.223.562.286 0 .559-.042.81-.124 1.062-.347 1.698-1.33 2.258-2.2.358-.555.698-1.082 1.082-1.362.39-.287 1-.45 1.647-.624.99-.267 2.111-.568 2.761-1.463.642-.884.583-2.042.533-3.064-.034-.677-.066-1.315.086-1.785.142-.437.53-.917.942-1.423.656-.807 1.4-1.723 1.4-2.865-.002-1.14-.744-2.057-1.4-2.866" fill="#14C39A"/><path d="M448.011 70.6l-7.95 9.918a1.27 1.27 0 0 1-.939.475c-.033.004-.061.003-.092.002a1.287 1.287 0 0 1-.885-.402l-2.45-2.63a1.276 1.276 0 0 1 .06-1.798 1.267 1.267 0 0 1 1.793.061l1.45 1.559 7.036-8.777a1.265 1.265 0 0 1 1.784-.197c.546.442.633 1.242.193 1.79" stroke="#FFF" fill="#FFF"/><path d="M477.953 245.084c-.27 0-.488-.084-.651-.252-.163-.168-.245-.387-.245-.658v-8.218c0-.27.082-.488.245-.651.163-.163.38-.245.651-.245.28 0 .502.082.665.245.163.163.245.38.245.651v8.218c0 .27-.082.49-.245.658-.163.168-.385.252-.665.252zm3.906-.084c-.27 0-.483-.075-.637-.224-.154-.15-.231-.36-.231-.63v-8.162c0-.27.077-.48.231-.63.154-.15.366-.224.637-.224h2.772c1.615 0 2.868.432 3.759 1.295s1.337 2.074 1.337 3.633c0 1.568-.446 2.784-1.337 3.647S486.246 245 484.631 245h-2.772zm2.66-1.47c2.268 0 3.402-1.157 3.402-3.472 0-2.305-1.134-3.458-3.402-3.458h-1.722v6.93h1.722zm7.896 1.47c-.27 0-.483-.075-.637-.224-.154-.15-.231-.36-.231-.63v-8.162c0-.27.077-.48.231-.63.154-.15.366-.224.637-.224h5.054c.27 0 .48.06.63.182.15.121.224.294.224.518 0 .233-.075.413-.224.539-.15.126-.36.189-.63.189h-4.158v2.716h3.878c.27 0 .48.06.63.182.15.121.224.299.224.532 0 .224-.075.397-.224.518-.15.121-.36.182-.63.182h-3.878v2.884h4.158c.27 0 .48.063.63.189.15.126.224.306.224.539 0 .224-.075.397-.224.518-.15.121-.36.182-.63.182h-5.054zm14.854-9.94c.261 0 .469.082.623.245.154.163.231.38.231.651v8.218c0 .27-.08.49-.238.658a.81.81 0 0 1-.616.252c-.299 0-.527-.107-.686-.322l-5.11-6.65v6.062c0 .27-.075.49-.224.658-.15.168-.355.252-.616.252s-.467-.084-.616-.252c-.15-.168-.224-.387-.224-.658v-8.218c0-.27.08-.488.238-.651.159-.163.369-.245.63-.245.29 0 .513.107.672.322l5.096 6.622v-6.048c0-.27.077-.488.231-.651a.798.798 0 0 1 .609-.245zm6.216 10.01c-.28 0-.502-.082-.665-.245-.163-.163-.245-.38-.245-.651v-7.56h-2.548c-.56 0-.84-.247-.84-.742s.28-.742.84-.742h6.902c.56 0 .84.247.84.742s-.28.742-.84.742h-2.548v7.56c0 .27-.082.488-.245.651-.163.163-.38.245-.651.245zm6.244.014c-.27 0-.488-.084-.651-.252-.163-.168-.245-.387-.245-.658v-8.218c0-.27.082-.488.245-.651.163-.163.38-.245.651-.245.28 0 .502.082.665.245.163.163.245.38.245.651v8.218c0 .27-.082.49-.245.658-.163.168-.385.252-.665.252zm6.272-.014c-.28 0-.502-.082-.665-.245-.163-.163-.245-.38-.245-.651v-7.56h-2.548c-.56 0-.84-.247-.84-.742s.28-.742.84-.742h6.902c.56 0 .84.247.84.742s-.28.742-.84.742h-2.548v7.56c0 .27-.082.488-.245.651-.163.163-.38.245-.651.245zm11.508-9.702c.168-.205.369-.308.602-.308.215 0 .406.082.574.245a.783.783 0 0 1 .252.581.82.82 0 0 1-.21.532l-3.178 3.878v3.878c0 .29-.084.513-.252.672a.9.9 0 0 1-.644.238c-.27 0-.49-.08-.658-.238-.168-.159-.252-.383-.252-.672v-3.878l-3.178-3.878a.82.82 0 0 1-.21-.532c0-.224.084-.418.252-.581a.801.801 0 0 1 .574-.245c.233 0 .434.103.602.308l2.87 3.556 2.856-3.556zm-70.241-125.26a6.06 6.06 0 0 1-1.746-.246c-.548-.164-.994-.386-1.338-.666a.674.674 0 0 1-.276-.576c0-.168.05-.314.15-.438a.444.444 0 0 1 .354-.186c.144 0 .308.056.492.168.344.248.704.428 1.08.54a4.36 4.36 0 0 0 1.248.168c.584 0 1.032-.102 1.344-.306.312-.204.468-.502.468-.894 0-.304-.146-.538-.438-.702-.256-.144-.66-.282-1.212-.417l-.246-.057c-.704-.152-1.276-.328-1.716-.528-.44-.2-.772-.456-.996-.768-.224-.312-.336-.708-.336-1.188 0-.496.14-.94.42-1.332.28-.392.67-.698 1.17-.918.5-.22 1.062-.33 1.686-.33 1.144 0 2.076.304 2.796.912a.901.901 0 0 1 .222.258c.044.084.066.19.066.318 0 .168-.05.314-.15.438a.444.444 0 0 1-.354.186.663.663 0 0 1-.222-.036 1.78 1.78 0 0 1-.27-.132 4.055 4.055 0 0 0-.954-.534c-.308-.116-.686-.174-1.134-.174-.544 0-.974.11-1.29.33-.316.22-.474.526-.474.918 0 .328.14.58.42.756.249.156.653.303 1.211.44l.217.052c.712.16 1.29.338 1.734.534.444.196.784.446 1.02.75s.354.684.354 1.14c0 .496-.138.934-.414 1.314-.276.38-.664.676-1.164.888-.5.212-1.074.318-1.722.318zm5.472-.108c-.232 0-.414-.064-.546-.192-.132-.128-.198-.308-.198-.54v-6.996c0-.232.066-.412.198-.54.132-.128.314-.192.546-.192h4.332c.232 0 .412.052.54.156a.54.54 0 0 1 .192.444c0 .2-.064.354-.192.462-.128.108-.308.162-.54.162h-3.564v2.328h3.324c.232 0 .412.052.54.156.128.104.192.256.192.456a.54.54 0 0 1-.192.444c-.128.104-.308.156-.54.156h-3.324v2.472h3.564c.232 0 .412.054.54.162.128.108.192.262.192.462a.54.54 0 0 1-.192.444c-.128.104-.308.156-.54.156h-4.332zm12.732-8.52c.224 0 .402.07.534.21.132.14.198.326.198.558v7.044c0 .232-.068.42-.204.564a.693.693 0 0 1-.528.216c-.256 0-.452-.092-.588-.276l-4.38-5.7v5.196c0 .232-.064.42-.192.564-.128.144-.304.216-.528.216-.224 0-.4-.072-.528-.216-.128-.144-.192-.332-.192-.564v-7.044c0-.232.068-.418.204-.558a.719.719 0 0 1 .54-.21c.248 0 .44.092.576.276l4.368 5.676v-5.184c0-.232.066-.418.198-.558a.684.684 0 0 1 .522-.21zm3.3 8.52c-.232 0-.414-.064-.546-.192-.132-.128-.198-.308-.198-.54v-6.996c0-.232.066-.412.198-.54.132-.128.314-.192.546-.192h2.376c1.384 0 2.458.37 3.222 1.11.764.74 1.146 1.778 1.146 3.114 0 1.344-.382 2.386-1.146 3.126-.764.74-1.838 1.11-3.222 1.11h-2.376zm2.28-1.26c1.944 0 2.916-.992 2.916-2.976 0-1.976-.972-2.964-2.916-2.964h-1.476v5.94h1.476zm16.836-7.2c.96 0 1.69.214 2.19.642.5.428.75 1.046.75 1.854 0 .656-.186 1.194-.558 1.614-.372.42-.898.69-1.578.81.232.056.436.156.612.3s.348.344.516.6l1.092 1.668a.758.758 0 0 1 .144.42.562.562 0 0 1-.222.456.804.804 0 0 1-.522.18.786.786 0 0 1-.66-.36l-1.596-2.424c-.16-.256-.33-.436-.51-.54-.18-.104-.414-.156-.702-.156h-1.176v2.688c0 .24-.068.43-.204.57-.136.14-.32.21-.552.21-.232 0-.418-.07-.558-.21-.14-.14-.21-.33-.21-.57v-7.02c0-.232.066-.412.198-.54.132-.128.314-.192.546-.192h3zm-5.736 0c.232 0 .412.052.54.156a.54.54 0 0 1 .192.444c0 .2-.064.354-.192.462-.128.108-.308.162-.54.162h-3.564v2.328h3.324c.232 0 .412.052.54.156.128.104.192.256.192.456a.54.54 0 0 1-.192.444c-.128.104-.308.156-.54.156h-3.324v2.472h3.564c.232 0 .412.054.54.162.128.108.192.262.192.462a.54.54 0 0 1-.192.444c-.128.104-.308.156-.54.156h-4.332c-.232 0-.414-.064-.546-.192-.132-.128-.198-.308-.198-.54v-6.996c0-.232.066-.412.198-.54.132-.128.314-.192.546-.192h4.332zm5.52 1.2h-2.016v2.676h2.016c.584 0 1.012-.11 1.284-.33.272-.22.408-.558.408-1.014 0-.464-.136-.802-.408-1.014-.272-.212-.7-.318-1.284-.318z" fill="#000" fill-rule="nonzero"/><path d="M266.2 267.028a.758.758 0 0 1 .144.42.562.562 0 0 1-.222.456.804.804 0 0 1-.522.18.786.786 0 0 1-.66-.36l-1.596-2.424c-.16-.256-.33-.436-.51-.54-.18-.104-.414-.156-.702-.156h-1.176v2.688c0 .24-.068.43-.204.57-.136.14-.32.21-.552.21-.232 0-.418-.07-.558-.21-.14-.14-.21-.33-.21-.57v-7.02c0-.232.066-.412.198-.54.132-.128.314-.192.546-.192h3c.96 0 1.69.214 2.19.642.5.428.75 1.046.75 1.854 0 .656-.186 1.194-.558 1.614-.372.42-.898.69-1.578.81.232.056.436.156.612.3s.348.344.516.6l1.092 1.668zm-3.24-3.612c.584 0 1.012-.11 1.284-.33.272-.22.408-.558.408-1.014 0-.464-.136-.802-.408-1.014-.272-.212-.7-.318-1.284-.318h-2.016v2.676h2.016zm5.556 4.584c-.232 0-.414-.064-.546-.192-.132-.128-.198-.308-.198-.54v-6.996c0-.232.066-.412.198-.54.132-.128.314-.192.546-.192h4.332c.232 0 .412.052.54.156a.54.54 0 0 1 .192.444c0 .2-.064.354-.192.462-.128.108-.308.162-.54.162h-3.564v2.328h3.324c.232 0 .412.052.54.156.128.104.192.256.192.456a.54.54 0 0 1-.192.444c-.128.104-.308.156-.54.156h-3.324v2.472h3.564c.232 0 .412.054.54.162.128.108.192.262.192.462a.54.54 0 0 1-.192.444c-.128.104-.308.156-.54.156h-4.332zm10.104.108c-.816 0-1.53-.176-2.142-.528a3.51 3.51 0 0 1-1.41-1.512c-.328-.656-.492-1.424-.492-2.304 0-.88.164-1.646.492-2.298a3.518 3.518 0 0 1 1.41-1.506c.612-.352 1.326-.528 2.142-.528a4.64 4.64 0 0 1 1.488.234c.464.156.876.382 1.236.678.104.08.176.164.216.252.04.088.06.196.06.324a.688.688 0 0 1-.144.444.432.432 0 0 1-.348.18.887.887 0 0 1-.492-.168c-.344-.256-.664-.434-.96-.534a3.06 3.06 0 0 0-.984-.15c-.832 0-1.462.26-1.89.78-.428.52-.642 1.284-.642 2.292 0 1.016.214 1.784.642 2.304.428.52 1.058.78 1.89.78.344 0 .662-.052.954-.156.292-.104.622-.28.99-.528.08-.048.16-.088.24-.12a.672.672 0 0 1 .252-.048c.136 0 .252.06.348.18.096.12.144.268.144.444 0 .12-.02.226-.06.318a.672.672 0 0 1-.216.258c-.36.296-.772.522-1.236.678a4.64 4.64 0 0 1-1.488.234zm5.1-.108c-.232 0-.414-.064-.546-.192-.132-.128-.198-.308-.198-.54v-6.996c0-.232.066-.412.198-.54.132-.128.314-.192.546-.192h4.332c.232 0 .412.052.54.156a.54.54 0 0 1 .192.444c0 .2-.064.354-.192.462-.128.108-.308.162-.54.162h-3.564v2.328h3.324c.232 0 .412.052.54.156.128.104.192.256.192.456a.54.54 0 0 1-.192.444c-.128.104-.308.156-.54.156h-3.324v2.472h3.564c.232 0 .412.054.54.162.128.108.192.262.192.462a.54.54 0 0 1-.192.444c-.128.104-.308.156-.54.156h-4.332zm7.092.072a.743.743 0 0 1-.558-.216.775.775 0 0 1-.21-.564v-7.044c0-.232.07-.418.21-.558.14-.14.326-.21.558-.21.24 0 .43.07.57.21.14.14.21.326.21.558v7.044c0 .232-.07.42-.21.564-.14.144-.33.216-.57.216zm8.76-8.196c.128-.272.34-.408.636-.408.2 0 .38.064.54.192.16.128.24.288.24.48a.775.775 0 0 1-.072.3l-3.324 7.152a.785.785 0 0 1-.33.354.945.945 0 0 1-.474.126.945.945 0 0 1-.474-.126.785.785 0 0 1-.33-.354l-3.312-7.152a.756.756 0 0 1-.072-.288c0-.2.082-.364.246-.492a.883.883 0 0 1 .558-.192c.136 0 .262.034.378.102.116.068.206.17.27.306l2.76 6.132 2.76-6.132zm13.224-.336c.96 0 1.69.214 2.19.642.5.428.75 1.046.75 1.854 0 .656-.186 1.194-.558 1.614-.372.42-.898.69-1.578.81.232.056.436.156.612.3s.348.344.516.6l1.092 1.668a.758.758 0 0 1 .144.42.562.562 0 0 1-.222.456.804.804 0 0 1-.522.18.786.786 0 0 1-.66-.36l-1.596-2.424c-.16-.256-.33-.436-.51-.54-.18-.104-.414-.156-.702-.156h-1.176v2.688c0 .24-.068.43-.204.57-.136.14-.32.21-.552.21-.232 0-.418-.07-.558-.21-.14-.14-.21-.33-.21-.57v-7.02c0-.232.066-.412.198-.54.132-.128.314-.192.546-.192h3zm-5.736 0c.232 0 .412.052.54.156a.54.54 0 0 1 .192.444c0 .2-.064.354-.192.462-.128.108-.308.162-.54.162h-3.564v2.328h3.324c.232 0 .412.052.54.156.128.104.192.256.192.456a.54.54 0 0 1-.192.444c-.128.104-.308.156-.54.156h-3.324v2.472h3.564c.232 0 .412.054.54.162.128.108.192.262.192.462a.54.54 0 0 1-.192.444c-.128.104-.308.156-.54.156h-4.332c-.232 0-.414-.064-.546-.192-.132-.128-.198-.308-.198-.54v-6.996c0-.232.066-.412.198-.54.132-.128.314-.192.546-.192h4.332zm5.52 1.2h-2.016v2.676h2.016c.584 0 1.012-.11 1.284-.33.272-.22.408-.558.408-1.014 0-.464-.136-.802-.408-1.014-.272-.212-.7-.318-1.284-.318z" fill="#FFF" fill-rule="nonzero"/><path d="M256.095 435.922a.862.862 0 0 1 .084.364.696.696 0 0 1-.259.546.883.883 0 0 1-.595.224c-.15 0-.29-.04-.42-.119a.794.794 0 0 1-.308-.371l-.84-1.876h-4.928l-.84 1.876a.794.794 0 0 1-.308.371.82.82 0 0 1-.434.119.892.892 0 0 1-.588-.224.689.689 0 0 1-.266-.546c0-.121.028-.243.084-.364l3.864-8.302a.903.903 0 0 1 .385-.427c.173-.098.357-.147.553-.147.196 0 .38.049.553.147a.9.9 0 0 1 .385.427l3.878 8.302zm-6.65-2.632h3.696l-1.848-4.158-1.848 4.158zm12.166 3.836c-1.353 0-2.38-.35-3.08-1.05-.7-.7-1.05-1.722-1.05-3.066v-5.054c0-.27.08-.488.238-.651.159-.163.373-.245.644-.245.27 0 .485.082.644.245.159.163.238.38.238.651v5.152c0 .85.2 1.491.602 1.925.401.434.99.651 1.764.651.765 0 1.349-.22 1.75-.658.401-.439.602-1.078.602-1.918v-5.152c0-.27.08-.488.238-.651.159-.163.373-.245.644-.245.27 0 .485.082.644.245.159.163.238.38.238.651v5.054c0 1.335-.35 2.354-1.05 3.059-.7.705-1.722 1.057-3.066 1.057zm9.422-.056c-.28 0-.502-.082-.665-.245-.163-.163-.245-.38-.245-.651v-7.56h-2.548c-.56 0-.84-.247-.84-.742s.28-.742.84-.742h6.902c.56 0 .84.247.84.742s-.28.742-.84.742h-2.548v7.56c0 .27-.082.488-.245.651-.163.163-.38.245-.651.245zm13.062-10.01c.27 0 .485.082.644.245.159.163.238.38.238.651v8.218c0 .27-.082.49-.245.658a.849.849 0 0 1-.637.252c-.27 0-.485-.084-.644-.252-.159-.168-.238-.387-.238-.658v-3.458h-5.054v3.458c0 .27-.082.49-.245.658-.163.168-.38.252-.651.252a.849.849 0 0 1-.637-.252c-.163-.168-.245-.387-.245-.658v-8.218c0-.27.08-.488.238-.651.159-.163.373-.245.644-.245.27 0 .488.082.651.245.163.163.245.38.245.651v3.304h5.054v-3.304c0-.27.08-.488.238-.651.159-.163.373-.245.644-.245zm7.406 10.066c-.961 0-1.794-.205-2.499-.616a4.12 4.12 0 0 1-1.631-1.764c-.383-.765-.574-1.661-.574-2.688 0-1.027.189-1.92.567-2.681a4.073 4.073 0 0 1 1.631-1.757c.71-.41 1.545-.616 2.506-.616.961 0 1.794.205 2.499.616.705.41 1.246.996 1.624 1.757.378.76.567 1.654.567 2.681 0 1.027-.191 1.923-.574 2.688a4.12 4.12 0 0 1-1.631 1.764c-.705.41-1.533.616-2.485.616zm0-1.442c.905 0 1.612-.313 2.121-.938.509-.625.763-1.521.763-2.688 0-1.167-.254-2.06-.763-2.681-.509-.62-1.216-.931-2.121-.931-.915 0-1.626.31-2.135.931-.509.62-.763 1.514-.763 2.681s.254 2.063.763 2.688 1.22.938 2.135.938zm14.406.182a.885.885 0 0 1 .168.49.656.656 0 0 1-.259.532.938.938 0 0 1-.609.21.917.917 0 0 1-.77-.42l-1.862-2.828c-.187-.299-.385-.509-.595-.63-.21-.121-.483-.182-.819-.182h-1.372v3.136c0 .28-.08.502-.238.665-.159.163-.373.245-.644.245-.27 0-.488-.082-.651-.245-.163-.163-.245-.385-.245-.665v-8.19c0-.27.077-.48.231-.63.154-.15.366-.224.637-.224h3.5c1.12 0 1.972.25 2.555.749.583.5.875 1.22.875 2.163 0 .765-.217 1.393-.651 1.883-.434.49-1.048.805-1.841.945.27.065.509.182.714.35.205.168.406.401.602.7l1.274 1.946zm-3.78-4.214c.681 0 1.18-.128 1.498-.385.317-.257.476-.651.476-1.183 0-.541-.159-.936-.476-1.183-.317-.247-.817-.371-1.498-.371h-2.352v3.122h2.352zm6.51 5.432c-.27 0-.488-.084-.651-.252-.163-.168-.245-.387-.245-.658v-8.218c0-.27.082-.488.245-.651.163-.163.38-.245.651-.245.28 0 .502.082.665.245.163.163.245.38.245.651v8.218c0 .27-.082.49-.245.658-.163.168-.385.252-.665.252zm6.272-.014c-.28 0-.502-.082-.665-.245-.163-.163-.245-.38-.245-.651v-7.56h-2.548c-.56 0-.84-.247-.84-.742s.28-.742.84-.742h6.902c.56 0 .84.247.84.742s-.28.742-.84.742h-2.548v7.56c0 .27-.082.488-.245.651-.163.163-.38.245-.651.245zm11.508-9.702c.168-.205.369-.308.602-.308.215 0 .406.082.574.245a.783.783 0 0 1 .252.581.82.82 0 0 1-.21.532l-3.178 3.878v3.878c0 .29-.084.513-.252.672a.9.9 0 0 1-.644.238c-.27 0-.49-.08-.658-.238-.168-.159-.252-.383-.252-.672v-3.878l-3.178-3.878a.82.82 0 0 1-.21-.532c0-.224.084-.418.252-.581a.801.801 0 0 1 .574-.245c.233 0 .434.103.602.308l2.87 3.556 2.856-3.556zM261.86 49.126a7.07 7.07 0 0 1-2.037-.287c-.64-.191-1.16-.45-1.561-.777-.215-.159-.322-.383-.322-.672a.79.79 0 0 1 .175-.511.518.518 0 0 1 .413-.217c.168 0 .36.065.574.196.401.29.821.5 1.26.63.439.13.924.196 1.456.196.681 0 1.204-.119 1.568-.357.364-.238.546-.586.546-1.043 0-.355-.17-.628-.511-.819-.303-.17-.784-.335-1.445-.494l-.256-.059c-.821-.177-1.489-.383-2.002-.616-.513-.233-.9-.532-1.162-.896-.261-.364-.392-.826-.392-1.386 0-.579.163-1.097.49-1.554.327-.457.782-.814 1.365-1.071s1.239-.385 1.967-.385c1.335 0 2.422.355 3.262 1.064.121.103.208.203.259.301a.795.795 0 0 1 .077.371.79.79 0 0 1-.175.511.518.518 0 0 1-.413.217.773.773 0 0 1-.259-.042 2.076 2.076 0 0 1-.315-.154 4.73 4.73 0 0 0-1.113-.623c-.36-.135-.8-.203-1.323-.203-.635 0-1.136.128-1.505.385s-.553.614-.553 1.071c0 .383.163.677.49.882.29.183.761.354 1.413.514l.253.06c.83.187 1.505.394 2.023.623.518.229.915.52 1.19.875.275.355.413.798.413 1.33a2.54 2.54 0 0 1-.483 1.533c-.322.443-.775.789-1.358 1.036-.583.247-1.253.371-2.009.371zm6.412-.042c-.27 0-.488-.084-.651-.252-.163-.168-.245-.387-.245-.658v-8.218c0-.27.082-.488.245-.651.163-.163.38-.245.651-.245.28 0 .502.082.665.245.163.163.245.38.245.651v8.218c0 .27-.082.49-.245.658-.163.168-.385.252-.665.252zm10.556-5.418c.215 0 .387.063.518.189.13.126.196.292.196.497v3.01c0 .43-.056.733-.168.91-.112.177-.34.322-.686.434a7.23 7.23 0 0 1-1.302.308c-.495.075-.97.112-1.428.112-1.017 0-1.9-.2-2.646-.602a4.068 4.068 0 0 1-1.715-1.743c-.397-.76-.595-1.668-.595-2.723 0-1.036.198-1.934.595-2.695a4.154 4.154 0 0 1 1.687-1.75c.728-.406 1.587-.609 2.576-.609 1.316 0 2.394.355 3.234 1.064.112.103.194.205.245.308a.805.805 0 0 1 .077.364.803.803 0 0 1-.168.518.504.504 0 0 1-.406.21.767.767 0 0 1-.28-.049 1.59 1.59 0 0 1-.294-.161c-.41-.29-.793-.492-1.148-.609a3.844 3.844 0 0 0-1.204-.175c-1.017 0-1.785.301-2.303.903-.518.602-.777 1.496-.777 2.681 0 2.427 1.064 3.64 3.192 3.64.635 0 1.27-.089 1.904-.266v-2.478h-1.582c-.224 0-.399-.056-.525-.168-.126-.112-.189-.27-.189-.476 0-.205.063-.364.189-.476.126-.112.301-.168.525-.168h2.478zm10.22-4.606c.261 0 .469.082.623.245.154.163.231.38.231.651v8.218c0 .27-.08.49-.238.658a.81.81 0 0 1-.616.252c-.299 0-.527-.107-.686-.322l-5.11-6.65v6.062c0 .27-.075.49-.224.658-.15.168-.355.252-.616.252s-.467-.084-.616-.252c-.15-.168-.224-.387-.224-.658v-8.218c0-.27.08-.488.238-.651.159-.163.369-.245.63-.245.29 0 .513.107.672.322l5.096 6.622v-6.048c0-.27.077-.488.231-.651a.798.798 0 0 1 .609-.245zm3.878 10.024c-.27 0-.488-.084-.651-.252-.163-.168-.245-.387-.245-.658v-8.218c0-.27.082-.488.245-.651.163-.163.38-.245.651-.245.28 0 .502.082.665.245.163.163.245.38.245.651v8.218c0 .27-.082.49-.245.658-.163.168-.385.252-.665.252zM303.44 39.06c.261 0 .469.082.623.245.154.163.231.38.231.651v8.218c0 .27-.08.49-.238.658a.81.81 0 0 1-.616.252c-.299 0-.527-.107-.686-.322l-5.11-6.65v6.062c0 .27-.075.49-.224.658-.15.168-.355.252-.616.252s-.467-.084-.616-.252c-.15-.168-.224-.387-.224-.658v-8.218c0-.27.08-.488.238-.651.159-.163.369-.245.63-.245.29 0 .513.107.672.322l5.096 6.622v-6.048c0-.27.077-.488.231-.651a.798.798 0 0 1 .609-.245zm10.5 4.606c.215 0 .387.063.518.189.13.126.196.292.196.497v3.01c0 .43-.056.733-.168.91-.112.177-.34.322-.686.434a7.23 7.23 0 0 1-1.302.308c-.495.075-.97.112-1.428.112-1.017 0-1.9-.2-2.646-.602a4.068 4.068 0 0 1-1.715-1.743c-.397-.76-.595-1.668-.595-2.723 0-1.036.198-1.934.595-2.695a4.154 4.154 0 0 1 1.687-1.75c.728-.406 1.587-.609 2.576-.609 1.316 0 2.394.355 3.234 1.064.112.103.194.205.245.308a.805.805 0 0 1 .077.364.803.803 0 0 1-.168.518.504.504 0 0 1-.406.21.767.767 0 0 1-.28-.049 1.59 1.59 0 0 1-.294-.161c-.41-.29-.793-.492-1.148-.609a3.844 3.844 0 0 0-1.204-.175c-1.017 0-1.785.301-2.303.903-.518.602-.777 1.496-.777 2.681 0 2.427 1.064 3.64 3.192 3.64.635 0 1.27-.089 1.904-.266v-2.478h-1.582c-.224 0-.399-.056-.525-.168-.126-.112-.189-.27-.189-.476 0-.205.063-.364.189-.476.126-.112.301-.168.525-.168h2.478zM42.422 233.922a.862.862 0 0 1 .084.364.696.696 0 0 1-.259.546.883.883 0 0 1-.595.224c-.15 0-.29-.04-.42-.119a.794.794 0 0 1-.308-.371l-.84-1.876h-4.928l-.84 1.876a.794.794 0 0 1-.308.371.82.82 0 0 1-.434.119.892.892 0 0 1-.588-.224.689.689 0 0 1-.266-.546c0-.121.028-.243.084-.364l3.864-8.302a.903.903 0 0 1 .385-.427c.173-.098.357-.147.553-.147.196 0 .38.049.553.147a.9.9 0 0 1 .385.427l3.878 8.302zm-6.65-2.632h3.696l-1.848-4.158-1.848 4.158zm8.946 3.71c-.27 0-.48-.075-.63-.224-.15-.15-.224-.355-.224-.616v-8.204c0-.27.082-.488.245-.651.163-.163.38-.245.651-.245.28 0 .502.082.665.245.163.163.245.38.245.651v7.56h3.934c.56 0 .84.247.84.742s-.28.742-.84.742h-4.886zm7.77 0c-.27 0-.48-.075-.63-.224-.15-.15-.224-.355-.224-.616v-8.204c0-.27.082-.488.245-.651.163-.163.38-.245.651-.245.28 0 .502.082.665.245.163.163.245.38.245.651v7.56h3.934c.56 0 .84.247.84.742s-.28.742-.84.742h-4.886zm11.312.126c-.961 0-1.794-.205-2.499-.616a4.12 4.12 0 0 1-1.631-1.764c-.383-.765-.574-1.661-.574-2.688 0-1.027.189-1.92.567-2.681a4.073 4.073 0 0 1 1.631-1.757c.71-.41 1.545-.616 2.506-.616.961 0 1.794.205 2.499.616.705.41 1.246.996 1.624 1.757.378.76.567 1.654.567 2.681 0 1.027-.191 1.923-.574 2.688a4.12 4.12 0 0 1-1.631 1.764c-.705.41-1.533.616-2.485.616zm0-1.442c.905 0 1.612-.313 2.121-.938.509-.625.763-1.521.763-2.688 0-1.167-.254-2.06-.763-2.681-.509-.62-1.216-.931-2.121-.931-.915 0-1.626.31-2.135.931-.509.62-.763 1.514-.763 2.681s.254 2.063.763 2.688 1.22.938 2.135.938zm18.886-8.078a.79.79 0 0 1 .315-.42.872.872 0 0 1 .483-.14c.224 0 .418.07.581.21a.7.7 0 0 1 .245.56c0 .084-.023.205-.07.364l-3.01 8.33a.866.866 0 0 1-.371.434 1.09 1.09 0 0 1-.567.154c-.205 0-.397-.051-.574-.154a.791.791 0 0 1-.364-.434l-2.324-6.594-2.366 6.594a.866.866 0 0 1-.371.434 1.09 1.09 0 0 1-.567.154 1.09 1.09 0 0 1-.567-.154.798.798 0 0 1-.357-.434l-3.01-8.33a1.178 1.178 0 0 1-.07-.364c0-.233.086-.42.259-.56a.938.938 0 0 1 .609-.21c.187 0 .355.047.504.14.15.093.257.233.322.42l2.38 6.846 2.45-6.804a.888.888 0 0 1 .322-.441.822.822 0 0 1 .49-.161.871.871 0 0 1 .826.616l2.38 6.874 2.422-6.93zM86.718 235c-.27 0-.483-.075-.637-.224-.154-.15-.231-.36-.231-.63v-8.162c0-.27.077-.48.231-.63.154-.15.366-.224.637-.224h5.054c.27 0 .48.06.63.182.15.121.224.294.224.518 0 .233-.075.413-.224.539-.15.126-.36.189-.63.189h-4.158v2.716h3.878c.27 0 .48.06.63.182.15.121.224.299.224.532 0 .224-.075.397-.224.518-.15.121-.36.182-.63.182h-3.878v2.884h4.158c.27 0 .48.063.63.189.15.126.224.306.224.539 0 .224-.075.397-.224.518-.15.121-.36.182-.63.182h-5.054zm8.246 0c-.27 0-.483-.075-.637-.224-.154-.15-.231-.36-.231-.63v-8.162c0-.27.077-.48.231-.63.154-.15.366-.224.637-.224h2.772c1.615 0 2.868.432 3.759 1.295s1.337 2.074 1.337 3.633c0 1.568-.446 2.784-1.337 3.647S99.351 235 97.736 235h-2.772zm2.66-1.47c2.268 0 3.402-1.157 3.402-3.472 0-2.305-1.134-3.458-3.402-3.458h-1.722v6.93h1.722zm-50.96 20.392a.862.862 0 0 1 .084.364.696.696 0 0 1-.259.546.883.883 0 0 1-.595.224c-.15 0-.29-.04-.42-.119a.794.794 0 0 1-.308-.371l-.84-1.876h-4.928l-.84 1.876a.794.794 0 0 1-.308.371.82.82 0 0 1-.434.119.892.892 0 0 1-.588-.224.689.689 0 0 1-.266-.546c0-.121.028-.243.084-.364l3.864-8.302a.903.903 0 0 1 .385-.427c.173-.098.357-.147.553-.147.196 0 .38.049.553.147a.9.9 0 0 1 .385.427l3.878 8.302zm-6.65-2.632h3.696l-1.848-4.158-1.848 4.158zm12.502 3.836c-.952 0-1.785-.205-2.499-.616a4.095 4.095 0 0 1-1.645-1.764c-.383-.765-.574-1.661-.574-2.688 0-1.027.191-1.92.574-2.681a4.104 4.104 0 0 1 1.645-1.757c.714-.41 1.547-.616 2.499-.616.616 0 1.195.091 1.736.273a4.51 4.51 0 0 1 1.442.791.803.803 0 0 1 .252.294c.047.103.07.229.07.378a.803.803 0 0 1-.168.518.504.504 0 0 1-.406.21c-.187 0-.378-.065-.574-.196-.401-.299-.775-.506-1.12-.623a3.57 3.57 0 0 0-1.148-.175c-.97 0-1.706.303-2.205.91-.5.607-.749 1.498-.749 2.674 0 1.185.25 2.081.749 2.688.5.607 1.234.91 2.205.91.401 0 .772-.06 1.113-.182.34-.121.726-.327 1.155-.616.093-.056.187-.103.28-.14a.784.784 0 0 1 .294-.056c.159 0 .294.07.406.21.112.14.168.313.168.518 0 .14-.023.264-.07.371a.784.784 0 0 1-.252.301c-.42.345-.9.609-1.442.791a5.412 5.412 0 0 1-1.736.273zm8.316-.056c-.28 0-.502-.082-.665-.245-.163-.163-.245-.38-.245-.651v-7.56h-2.548c-.56 0-.84-.247-.84-.742s.28-.742.84-.742h6.902c.56 0 .84.247.84.742s-.28.742-.84.742h-2.548v7.56c0 .27-.082.488-.245.651-.163.163-.38.245-.651.245zm6.244.014c-.27 0-.488-.084-.651-.252-.163-.168-.245-.387-.245-.658v-8.218c0-.27.082-.488.245-.651.163-.163.38-.245.651-.245.28 0 .502.082.665.245.163.163.245.38.245.651v8.218c0 .27-.082.49-.245.658-.163.168-.385.252-.665.252zm7.434.042c-.961 0-1.794-.205-2.499-.616a4.12 4.12 0 0 1-1.631-1.764c-.383-.765-.574-1.661-.574-2.688 0-1.027.189-1.92.567-2.681a4.073 4.073 0 0 1 1.631-1.757c.71-.41 1.545-.616 2.506-.616.961 0 1.794.205 2.499.616.705.41 1.246.996 1.624 1.757.378.76.567 1.654.567 2.681 0 1.027-.191 1.923-.574 2.688a4.12 4.12 0 0 1-1.631 1.764c-.705.41-1.533.616-2.485.616zm0-1.442c.905 0 1.612-.313 2.121-.938.509-.625.763-1.521.763-2.688 0-1.167-.254-2.06-.763-2.681-.509-.62-1.216-.931-2.121-.931-.915 0-1.626.31-2.135.931-.509.62-.763 1.514-.763 2.681s.254 2.063.763 2.688 1.22.938 2.135.938zm13.986-8.624c.261 0 .469.082.623.245.154.163.231.38.231.651v8.218c0 .27-.08.49-.238.658a.81.81 0 0 1-.616.252c-.299 0-.527-.107-.686-.322l-5.11-6.65v6.062c0 .27-.075.49-.224.658-.15.168-.355.252-.616.252s-.467-.084-.616-.252c-.15-.168-.224-.387-.224-.658v-8.218c0-.27.08-.488.238-.651.159-.163.369-.245.63-.245.29 0 .513.107.672.322l5.096 6.622v-6.048c0-.27.077-.488.231-.651a.798.798 0 0 1 .609-.245zm6.398 10.066a7.07 7.07 0 0 1-2.037-.287c-.64-.191-1.16-.45-1.561-.777-.215-.159-.322-.383-.322-.672a.79.79 0 0 1 .175-.511.518.518 0 0 1 .413-.217c.168 0 .36.065.574.196.401.29.821.5 1.26.63.439.13.924.196 1.456.196.681 0 1.204-.119 1.568-.357.364-.238.546-.586.546-1.043 0-.355-.17-.628-.511-.819-.303-.17-.784-.335-1.445-.494l-.256-.059c-.821-.177-1.489-.383-2.002-.616-.513-.233-.9-.532-1.162-.896-.261-.364-.392-.826-.392-1.386 0-.579.163-1.097.49-1.554.327-.457.782-.814 1.365-1.071s1.239-.385 1.967-.385c1.335 0 2.422.355 3.262 1.064.121.103.208.203.259.301a.795.795 0 0 1 .077.371.79.79 0 0 1-.175.511.518.518 0 0 1-.413.217.773.773 0 0 1-.259-.042 2.076 2.076 0 0 1-.315-.154 4.73 4.73 0 0 0-1.113-.623c-.36-.135-.8-.203-1.323-.203-.635 0-1.136.128-1.505.385s-.553.614-.553 1.071c0 .383.163.677.49.882.29.183.761.354 1.413.514l.253.06c.83.187 1.505.394 2.023.623.518.229.915.52 1.19.875.275.355.413.798.413 1.33a2.54 2.54 0 0 1-.483 1.533c-.322.443-.775.789-1.358 1.036-.583.247-1.253.371-2.009.371z" fill="#000" fill-rule="nonzero"/><path fill="#6C8B8B" d="M444 377h-12v-12zm49.485-225L485 160.485 476.515 152zm-199-30L286 130.485 277.515 122zM130 377v-12h12zm0-281h12v12z"/><path d="M310.645 130.08c-.507 0-.988-.07-1.445-.21-.457-.14-.822-.333-1.095-.58a.512.512 0 0 1-.19-.41.47.47 0 0 1 .1-.305.299.299 0 0 1 .24-.125c.093 0 .207.043.34.13.593.44 1.27.66 2.03.66.533 0 .943-.1 1.23-.3.287-.2.43-.487.43-.86 0-.293-.133-.513-.4-.66-.233-.128-.59-.252-1.067-.37l-.213-.05a7.717 7.717 0 0 1-1.38-.41 2.058 2.058 0 0 1-.845-.625c-.203-.263-.305-.598-.305-1.005 0-.407.112-.768.335-1.085.223-.317.535-.563.935-.74a3.36 3.36 0 0 1 1.37-.265c.473 0 .91.067 1.31.2s.74.33 1.02.59c.133.113.2.25.2.41a.464.464 0 0 1-.105.3c-.07.087-.152.13-.245.13-.087 0-.197-.043-.33-.13a3.565 3.565 0 0 0-.865-.505 2.732 2.732 0 0 0-.975-.155c-.513 0-.913.105-1.2.315-.287.21-.43.502-.43.875 0 .32.127.562.38.725.253.163.66.312 1.22.445.587.133 1.062.272 1.425.415.363.143.653.34.87.59.217.25.325.572.325.965 0 .4-.112.755-.335 1.065-.223.31-.537.55-.94.72-.403.17-.868.255-1.395.255zm4.45-.08a.507.507 0 0 1-.375-.135.493.493 0 0 1-.135-.365v-6.05c0-.153.045-.275.135-.365a.507.507 0 0 1 .375-.135h3.68c.153 0 .272.037.355.11a.391.391 0 0 1 .125.31c0 .133-.042.235-.125.305-.083.07-.202.105-.355.105h-3.18V126h2.98c.153 0 .272.037.355.11a.391.391 0 0 1 .125.31.391.391 0 0 1-.125.31.522.522 0 0 1-.355.11h-2.98v2.33h3.18c.32 0 .48.137.48.41a.391.391 0 0 1-.125.31.522.522 0 0 1-.355.11h-3.68zm10.64-7.1a.46.46 0 0 1 .355.145.53.53 0 0 1 .135.375v6.11a.517.517 0 0 1-.14.375.478.478 0 0 1-.36.145.459.459 0 0 1-.4-.2l-3.92-5.17v4.85a.528.528 0 0 1-.135.375.462.462 0 0 1-.355.145.455.455 0 0 1-.35-.14.536.536 0 0 1-.13-.38v-6.11a.52.52 0 0 1 .14-.375.478.478 0 0 1 .36-.145.46.46 0 0 1 .4.2l3.92 5.18v-4.86a.54.54 0 0 1 .13-.375.447.447 0 0 1 .35-.145zm4.6.05c1.14 0 2.023.307 2.65.92.627.613.94 1.48.94 2.6s-.313 1.988-.94 2.605-1.51.925-2.65.925h-1.96a.507.507 0 0 1-.375-.135.493.493 0 0 1-.135-.365v-6.05c0-.153.045-.275.135-.365a.507.507 0 0 1 .375-.135h1.96zm-.06.86h-1.38v5.33h1.38c1.733 0 2.6-.89 2.6-2.67 0-1.773-.867-2.66-2.6-2.66zm58.9 137.27c-.673 0-1.26-.145-1.76-.435a2.87 2.87 0 0 1-1.15-1.25c-.267-.543-.4-1.185-.4-1.925 0-.733.133-1.372.4-1.915a2.87 2.87 0 0 1 1.15-1.25c.5-.29 1.087-.435 1.76-.435.44 0 .857.068 1.25.205.393.137.737.335 1.03.595.127.1.19.233.19.4a.47.47 0 0 1-.1.305.299.299 0 0 1-.24.125.48.48 0 0 1-.25-.073l-.08-.057a3.557 3.557 0 0 0-.875-.505 2.585 2.585 0 0 0-.895-.145c-.733 0-1.297.237-1.69.71s-.59 1.153-.59 2.04c0 .893.197 1.577.59 2.05.393.473.957.71 1.69.71.32 0 .612-.05.875-.15.263-.1.562-.267.895-.5.133-.087.243-.13.33-.13a.3.3 0 0 1 .24.125.47.47 0 0 1 .1.305c0 .167-.063.3-.19.4-.293.26-.637.458-1.03.595-.393.137-.81.205-1.25.205zm9.17-7.18a.49.49 0 0 1 .37.145.52.52 0 0 1 .14.375v6.11a.517.517 0 0 1-.14.375.49.49 0 0 1-.37.145.5.5 0 0 1-.37-.14.513.513 0 0 1-.14-.38v-2.69h-3.94v2.69a.517.517 0 0 1-.14.375.49.49 0 0 1-.37.145.5.5 0 0 1-.37-.14.513.513 0 0 1-.14-.38v-6.11a.52.52 0 0 1 .14-.375.49.49 0 0 1 .37-.145.49.49 0 0 1 .37.145.52.52 0 0 1 .14.375V257h3.94v-2.58a.52.52 0 0 1 .14-.375.49.49 0 0 1 .37-.145zm2.66 7.1a.507.507 0 0 1-.375-.135.493.493 0 0 1-.135-.365v-6.05c0-.153.045-.275.135-.365a.507.507 0 0 1 .375-.135h3.68c.153 0 .272.037.355.11a.391.391 0 0 1 .125.31c0 .133-.042.235-.125.305-.083.07-.202.105-.355.105h-3.18V257h2.98c.153 0 .272.037.355.11a.391.391 0 0 1 .125.31.391.391 0 0 1-.125.31.522.522 0 0 1-.355.11h-2.98v2.33h3.18c.32 0 .48.137.48.41a.391.391 0 0 1-.125.31.522.522 0 0 1-.355.11h-3.68zm8.41.08c-.673 0-1.26-.145-1.76-.435a2.87 2.87 0 0 1-1.15-1.25c-.267-.543-.4-1.185-.4-1.925 0-.733.133-1.372.4-1.915a2.87 2.87 0 0 1 1.15-1.25c.5-.29 1.087-.435 1.76-.435.44 0 .857.068 1.25.205.393.137.737.335 1.03.595.127.1.19.233.19.4a.47.47 0 0 1-.1.305.299.299 0 0 1-.24.125.48.48 0 0 1-.25-.073l-.08-.057a3.557 3.557 0 0 0-.875-.505 2.585 2.585 0 0 0-.895-.145c-.733 0-1.297.237-1.69.71s-.59 1.153-.59 2.04c0 .893.197 1.577.59 2.05.393.473.957.71 1.69.71.32 0 .612-.05.875-.15.263-.1.562-.267.895-.5.133-.087.243-.13.33-.13a.3.3 0 0 1 .24.125.47.47 0 0 1 .1.305c0 .167-.063.3-.19.4-.293.26-.637.458-1.03.595-.393.137-.81.205-1.25.205zm8.95-.86c.113.107.17.223.17.35a.444.444 0 0 1-.145.33.458.458 0 0 1-.62.038l-3.625-3.268v2.86c0 .16-.045.287-.135.38-.09.093-.218.14-.385.14a.5.5 0 0 1-.37-.14.513.513 0 0 1-.14-.38v-6.11a.52.52 0 0 1 .14-.375.49.49 0 0 1 .37-.145c.16 0 .287.047.38.14.093.093.14.22.14.38v2.74l3.41-3.11a.451.451 0 0 1 .33-.14c.127 0 .237.047.33.14.093.093.14.2.14.32a.475.475 0 0 1-.17.35l-2.98 2.66 3.16 2.84zm-262.19-35.14c-.673 0-1.26-.145-1.76-.435a2.87 2.87 0 0 1-1.15-1.25c-.267-.543-.4-1.185-.4-1.925 0-.733.133-1.372.4-1.915a2.87 2.87 0 0 1 1.15-1.25c.5-.29 1.087-.435 1.76-.435.44 0 .857.068 1.25.205.393.137.737.335 1.03.595.127.1.19.233.19.4a.47.47 0 0 1-.1.305.299.299 0 0 1-.24.125.48.48 0 0 1-.25-.073l-.08-.057a3.557 3.557 0 0 0-.875-.505 2.585 2.585 0 0 0-.895-.145c-.733 0-1.297.237-1.69.71s-.59 1.153-.59 2.04c0 .893.197 1.577.59 2.05.393.473.957.71 1.69.71.32 0 .612-.05.875-.15.263-.1.562-.267.895-.5.133-.087.243-.13.33-.13a.3.3 0 0 1 .24.125.47.47 0 0 1 .1.305c0 .167-.063.3-.19.4-.293.26-.637.458-1.03.595-.393.137-.81.205-1.25.205zm9.17-7.18a.49.49 0 0 1 .37.145.52.52 0 0 1 .14.375v6.11a.517.517 0 0 1-.14.375.49.49 0 0 1-.37.145.5.5 0 0 1-.37-.14.513.513 0 0 1-.14-.38v-2.69h-3.94v2.69a.517.517 0 0 1-.14.375.49.49 0 0 1-.37.145.5.5 0 0 1-.37-.14.513.513 0 0 1-.14-.38v-6.11a.52.52 0 0 1 .14-.375.49.49 0 0 1 .37-.145.49.49 0 0 1 .37.145.52.52 0 0 1 .14.375V221h3.94v-2.58a.52.52 0 0 1 .14-.375.49.49 0 0 1 .37-.145zm2.66 7.1a.507.507 0 0 1-.375-.135.493.493 0 0 1-.135-.365v-6.05c0-.153.045-.275.135-.365a.507.507 0 0 1 .375-.135h3.68c.153 0 .272.037.355.11a.391.391 0 0 1 .125.31c0 .133-.042.235-.125.305-.083.07-.202.105-.355.105h-3.18V221h2.98c.153 0 .272.037.355.11a.391.391 0 0 1 .125.31.391.391 0 0 1-.125.31.522.522 0 0 1-.355.11h-2.98v2.33h3.18c.32 0 .48.137.48.41a.391.391 0 0 1-.125.31.522.522 0 0 1-.355.11h-3.68zm8.41.08c-.673 0-1.26-.145-1.76-.435a2.87 2.87 0 0 1-1.15-1.25c-.267-.543-.4-1.185-.4-1.925 0-.733.133-1.372.4-1.915a2.87 2.87 0 0 1 1.15-1.25c.5-.29 1.087-.435 1.76-.435.44 0 .857.068 1.25.205.393.137.737.335 1.03.595.127.1.19.233.19.4a.47.47 0 0 1-.1.305.299.299 0 0 1-.24.125.48.48 0 0 1-.25-.073l-.08-.057a3.557 3.557 0 0 0-.875-.505 2.585 2.585 0 0 0-.895-.145c-.733 0-1.297.237-1.69.71s-.59 1.153-.59 2.04c0 .893.197 1.577.59 2.05.393.473.957.71 1.69.71.32 0 .612-.05.875-.15.263-.1.562-.267.895-.5.133-.087.243-.13.33-.13a.3.3 0 0 1 .24.125.47.47 0 0 1 .1.305c0 .167-.063.3-.19.4-.293.26-.637.458-1.03.595-.393.137-.81.205-1.25.205zm8.95-.86c.113.107.17.223.17.35a.444.444 0 0 1-.145.33.468.468 0 0 1-.335.14.487.487 0 0 1-.35-.16l-3.56-3.21v2.86c0 .16-.045.287-.135.38-.09.093-.218.14-.385.14a.5.5 0 0 1-.37-.14.513.513 0 0 1-.14-.38v-6.11a.52.52 0 0 1 .14-.375.49.49 0 0 1 .37-.145c.16 0 .287.047.38.14.093.093.14.22.14.38v2.74l3.41-3.11a.451.451 0 0 1 .33-.14c.127 0 .237.047.33.14.093.093.14.2.14.32a.475.475 0 0 1-.17.35l-2.98 2.66 3.16 2.84zm58.81 128.86c-.673 0-1.26-.145-1.76-.435a2.87 2.87 0 0 1-1.15-1.25c-.267-.543-.4-1.185-.4-1.925 0-.733.133-1.372.4-1.915a2.87 2.87 0 0 1 1.15-1.25c.5-.29 1.087-.435 1.76-.435.44 0 .857.068 1.25.205.393.137.737.335 1.03.595.127.1.19.233.19.4a.47.47 0 0 1-.1.305.299.299 0 0 1-.24.125.48.48 0 0 1-.25-.073l-.08-.057a3.557 3.557 0 0 0-.875-.505 2.585 2.585 0 0 0-.895-.145c-.733 0-1.297.237-1.69.71s-.59 1.153-.59 2.04c0 .893.197 1.577.59 2.05.393.473.957.71 1.69.71.32 0 .612-.05.875-.15.263-.1.562-.267.895-.5.133-.087.243-.13.33-.13a.3.3 0 0 1 .24.125.47.47 0 0 1 .1.305c0 .167-.063.3-.19.4-.293.26-.637.458-1.03.595-.393.137-.81.205-1.25.205zm9.17-7.18a.49.49 0 0 1 .37.145.52.52 0 0 1 .14.375v6.11a.517.517 0 0 1-.14.375.49.49 0 0 1-.37.145.5.5 0 0 1-.37-.14.513.513 0 0 1-.14-.38v-2.69h-3.94v2.69a.517.517 0 0 1-.14.375.49.49 0 0 1-.37.145.5.5 0 0 1-.37-.14.513.513 0 0 1-.14-.38v-6.11a.52.52 0 0 1 .14-.375.49.49 0 0 1 .37-.145.49.49 0 0 1 .37.145.52.52 0 0 1 .14.375V349h3.94v-2.58a.52.52 0 0 1 .14-.375.49.49 0 0 1 .37-.145zm2.66 7.1a.507.507 0 0 1-.375-.135.493.493 0 0 1-.135-.365v-6.05c0-.153.045-.275.135-.365a.507.507 0 0 1 .375-.135h3.68c.153 0 .272.037.355.11a.391.391 0 0 1 .125.31c0 .133-.042.235-.125.305-.083.07-.202.105-.355.105h-3.18V349h2.98c.153 0 .272.037.355.11a.391.391 0 0 1 .125.31.391.391 0 0 1-.125.31.522.522 0 0 1-.355.11h-2.98v2.33h3.18c.32 0 .48.137.48.41a.391.391 0 0 1-.125.31.522.522 0 0 1-.355.11h-3.68zm8.41.08c-.673 0-1.26-.145-1.76-.435a2.87 2.87 0 0 1-1.15-1.25c-.267-.543-.4-1.185-.4-1.925 0-.733.133-1.372.4-1.915a2.87 2.87 0 0 1 1.15-1.25c.5-.29 1.087-.435 1.76-.435.44 0 .857.068 1.25.205.393.137.737.335 1.03.595.127.1.19.233.19.4a.47.47 0 0 1-.1.305.299.299 0 0 1-.24.125.48.48 0 0 1-.25-.073l-.08-.057a3.557 3.557 0 0 0-.875-.505 2.585 2.585 0 0 0-.895-.145c-.733 0-1.297.237-1.69.71s-.59 1.153-.59 2.04c0 .893.197 1.577.59 2.05.393.473.957.71 1.69.71.32 0 .612-.05.875-.15.263-.1.562-.267.895-.5.133-.087.243-.13.33-.13a.3.3 0 0 1 .24.125.47.47 0 0 1 .1.305c0 .167-.063.3-.19.4-.293.26-.637.458-1.03.595-.393.137-.81.205-1.25.205zm8.95-.86c.113.107.17.223.17.35a.444.444 0 0 1-.145.33.458.458 0 0 1-.62.038l-3.625-3.268v2.86c0 .16-.045.287-.135.38-.09.093-.218.14-.385.14a.5.5 0 0 1-.37-.14.513.513 0 0 1-.14-.38v-6.11a.52.52 0 0 1 .14-.375.49.49 0 0 1 .37-.145c.16 0 .287.047.38.14.093.093.14.22.14.38v2.74l3.41-3.11a.451.451 0 0 1 .33-.14c.127 0 .237.047.33.14.093.093.14.2.14.32a.475.475 0 0 1-.17.35l-2.98 2.66 3.16 2.84z" fill="#A8B9BA" fill-rule="nonzero"/></g></g></svg>