<svg width="223" height="213" fill="none" xmlns="http://www.w3.org/2000/svg"><path d="M48.138 211.913c3.133.116 7.447.11 11.74.019 7.761-.168 15.38-.615 15.485-1.131 1.056-.185.66-36.893-.18-39.227-.918-2.546-10.28-1.238-13.01-1.238-3.333 0-8.276-.171-11.63.088-2.7.207-5.147.794-5.313 3.826-.49 9.015-.047 23.448-.03 33.701.003 2.58-.108 3.843 2.938 3.962zM38.056 108.58c5.13-2.539 4.285-6.782 7.944-10.58l-11.17 6.782c-2.205 2.826.368 5.214 3.226 3.798z" fill="#fff"/><path fill-rule="evenodd" clip-rule="evenodd" d="M33.015 97.756l7.727-21.943h.004l-.002-.006.002-.003 4.967 22.33 9.112-1.67a111.098 111.098 0 0 0-5.115 14.361c-2.169 7.741-6.788 37.293-4.724 42.72l1.988.017c-.12.175-.687.795-1.519 1.703v.001c-4.163 4.543-14.936 16.302-9.25 15.78a127.889 127.889 0 0 1 16.436-.452c.822.032 8.016.019 15.44-.146.464-.011 1.13-.939 1.792-1.865.659-.919 1.315-1.835 1.771-1.847.542-.016.879.895 1.213 1.797.327.883.651 1.759 1.161 1.748 6.067-.217 11.09-.566 11.24-1.098.118-.455 1.05-13.064 1.162-15.306h.192l-.189-7.683 8.48 1.331c-1.097 18.19-2.268 42.155-.993 45.508h9.189c-.327.297-.778.696-1.319 1.175-5.136 4.547-18.415 16.303-11.404 15.775a195.27 195.27 0 0 1 20.27-.45c1.012.03 9.889.016 19.045-.146.573-.011 1.393-.938 2.212-1.863.813-.92 1.625-1.838 2.191-1.852.669-.014 1.085.898 1.497 1.801.404.886.804 1.763 1.436 1.744 7.481-.214 13.674-.549 13.847-1.097.156-.489 1.478-15.054 1.445-15.641h-.055c.257-2.201.103-10.753-.052-19.279-.067-3.741-.135-7.476-.167-10.668.282.895 21.196.587 30.032.457 1.803-.026 3.102-.046 3.621-.046 20.013 0 25.496-12.976 28.986-29.974 3.33-16.19 7.097-40.473 7.308-45.953.274-7.33-6.733-13.791-14.477-14.765-6.854-.862-28.056-1.016-35.444-.349-9.897-19.504-20.558-24.264-27.508-21.973-.06-1.331-.17-2.65-.329-3.932-.364-2.923-.636-7.16-.822-11.25.364.043.518.081.638.111.171.043.276.07.82.07 1.952 0 4.207-8.726 5.297-12.948.207-.8.372-1.44.485-1.826 1.206-4.116.642-9.406-2.818-12.06-4.636-3.566-18.25-8.676-23.25-6.623-8.592 3.523-5.743 10.646-.096 12.44-1.875 2.031-3.6 4.745-5.001 8.063a4.38 4.38 0 0 0-2.612-.857 4.564 4.564 0 0 0-4.562 4.566 4.564 4.564 0 0 0 4.562 4.566h.137a55.275 55.275 0 0 0-1.025 9.788c-.108 5.746 7.466 6.76 9.938 7.09.479.065.767.103.77.146.118.945.553 2.693 1.052 4.698.659 2.65 1.431 5.75 1.73 8.042-2.771-1.438-7.95-2.195-18.477-.247l-9.995 1.855a17.767 17.767 0 0 1-2.207-1.943c-1.337-1.364-1.5-3.315-1.668-5.327-.259-3.105-.53-6.356-5.144-7.825a23.194 23.194 0 0 1-.2-1.18L88.13 23.228c-.03-.091-.061-.197-.095-.312-.304-1.032-.847-2.876-3.09-2.622l-11.893 1.578c-3.747.436-3.38 2.568-2.852 5.627.037.213.074.43.11.651l1.056 7.096c-3.353.668-.87 6.915.202 9.611.179.45.318.8.385 1.01-2.873-5.997-4.77-.463-2.566 5.192.186.477.366.949.545 1.416 1.72 4.487 3.287 8.578 7.846 13.437l-37.683 6.986.648 2.91-.002.005c-10.438 1.501-19.87 7.044-24.349 13.903l-10.65-1.701L5 91.458l9.644 1.627a13.866 13.866 0 0 0-.99 5.584c.066 1.758 1.162 2.145 2.122 2.484.722.255 1.367.482 1.442 1.245.365 3.924 5.187 3.762 5.692 1.21-.097.572-.617 4.489.666 6.032 1.598 1.92 4.622 2.261 5.946-1.872a3.573 3.573 0 0 0-.055.472l3.548-10.484zm61.106-8.493l10.607 6.47a112.09 112.09 0 0 0-4.968 13.446 515.667 515.667 0 0 1-3.959-8.393l-.073-.16a50.263 50.263 0 0 0-6.673-10.427l5.066-.936zm57.91 68.324a183.832 183.832 0 0 0 0 4.939l1.097-4.854-1.097-.085z" fill="#fff"/><path fill-rule="evenodd" clip-rule="evenodd" d="M127.943 21A5 5 0 0 1 133 25.913 5.05 5.05 0 0 1 128 31a5 5 0 0 1-.057-10zm-3.674 6.494a3.971 3.971 0 0 0 3.731 2.39h-.011a3.935 3.935 0 0 0 3.895-3.971 3.972 3.972 0 1 0-7.615 1.58z" fill="#000"/><path d="M8.164 70.247c-6.917 5.4-6.578 6.85-4.589 10.285A22.745 22.745 0 0 1 5.317 84l1.096-.389a24.171 24.171 0 0 0-1.807-3.627c-1.688-2.91-2.2-3.786 4.304-8.863 1.992-1.561 3.008-3.128 3.085-4.797.134-2.885-2.522-5.37-5.334-8.002-2.813-2.633-5.756-5.386-5.465-8.403.213-2.235 2.14-4.487 5.886-6.884 5.144-3.288 3.544-6.945 1.993-10.48-.789-1.799-1.603-3.662-1.603-5.555H6.305c0 2.12.854 4.09 1.694 5.994 1.548 3.534 2.77 6.329-1.569 9.104-4.059 2.6-6.154 5.123-6.404 7.717-.342 3.562 2.79 6.48 5.815 9.315 2.619 2.466 5.092 4.767 4.981 7.148-.062 1.323-.93 2.624-2.658 3.97zm54.194 104.746c-.32 3.048-.358 7.236-.358 10.54v.414c0 1.951 0 2.933.63 3.541.407.391.975.512 1.848.512.277 0 .571 0 .9-.028a40.672 40.672 0 0 1 1.897-.034c.933.02 1.867-.012 2.796-.096 2.093-.281 2.675-.743 2.828-2.212 0-.079.197-11.374.041-12.252-.432-2.434-1.832-2.401-4.617-2.336l-.81.017c-.463 0-.915 0-1.355-.028-1.677-.082-3.593-.158-3.8 1.962zm8.02 18.1c-.452 0-.964 0-1.522-.038-3.346-.189-5.247.103-6.163.95a2.288 2.288 0 0 0-.669 1.879c.089 2.166.034 6.28 0 9.009-.017 1.386-.031 2.393-.02 2.707 0 .29.124.568.343.771.675.639 2.18.633 4.264.628h2.651c2.136 0 4.373-.271 4.576-2.569.226-2.582.186-8.121.06-10.781-.123-2.542-1.699-2.55-3.52-2.556z" fill="#000"/><path fill-rule="evenodd" clip-rule="evenodd" d="M77.255 65.105c-4.088-4.59-5.597-8.53-7.262-12.88a198.38 198.38 0 0 1-.54-1.43c-1.449-3.725-1.3-7.751.307-8.45.324-.14.691-.14 1.016 0-.83-2.347-1.558-5.216-.663-6.862.26-.5.69-.89 1.213-1.098l-.97-6.63-.041-.244-.068-.388c-.342-1.979-.635-3.689.255-4.886.575-.768 1.583-1.226 3.08-1.402l11.872-1.575c2.71-.304 3.401 2.015 3.698 3.012l.002.007.02.066c.024.086.046.163.07.233l.022.088 3.65 22.145c.042.275.09.55.14.824 4.656 1.622 4.943 5.075 5.203 8.209.16 1.935.313 3.76 1.504 4.981a17.155 17.155 0 0 0 1.95 1.735l9.738-1.806c9.521-1.779 14.782-1.318 17.849-.132-.353-2.1-.986-4.647-1.555-6.933-.449-1.803-.844-3.39-1.014-4.419l-.345-.046-.014-.002c-2.608-.35-10.507-1.412-10.392-7.66.053-3.1.361-6.19.92-9.239a5.132 5.132 0 0 1-4.497-5.364 5.129 5.129 0 0 1 5.028-4.868c.83 0 1.645.21 2.372.61a32.24 32.24 0 0 1 1.879-3.637 25.598 25.598 0 0 1 2.399-3.36c-2.838-1.196-4.826-3.68-4.93-6.282-.068-1.671.589-4.792 5.773-6.921 5.269-2.163 19.18 3.167 23.781 6.7 3.771 2.897 4.206 8.598 3.012 12.668a64.28 64.28 0 0 0-.459 1.727l-.025.098c-2.131 8.245-3.848 13.358-5.831 13.358a3.523 3.523 0 0 1-.862-.066c.175 3.81.435 7.753.78 10.498.129 1.037.228 2.135.291 3.263 3.918-1.02 8.448.17 12.829 3.37 5.157 3.76 10.012 10.062 14.449 18.746 7.952-.653 28.631-.44 35.151.384 8.38 1.054 15.226 8.083 14.952 15.347-.192 5.369-3.93 29.589-7.312 46.057-1.517 7.391-3.702 15.74-8.404 21.605a21.949 21.949 0 0 1-6.482 5.514l9.215 49.031c.819.642 2.133 1.721 2.344 1.962-.238-.035-1.184-.005-2.208.027h-.003c-1.451.045-3.055.095-3.019-.027.051-.178.829-.977 1.451-1.614l.298-.307-4.313-22.953h-34.171l-3.365 22.89.201.208.146.15c.623.64 1.41 1.449 1.463 1.632.025.088-.975.077-2.109.046v.036l-.274-.044c-.223-.005-.448-.013-.67-.02h-.003c-.433-.013-.85-.027-1.202-.027.029.107-1.496.063-2.915.022h-.001c-1.065-.03-2.071-.059-2.315-.022.175-.2 1.115-.982 1.898-1.608l-3.659-24.561h-4.132c.033 3.826.003 5.904-.088 7.045l.019.39c.006.096-1.229 15.079-1.467 15.833-.178.56-.348 1.093-14.353 1.496-.997.036-1.492-1.04-1.961-2.075l-.01-.023c-.253-.551-.665-1.448-.959-1.448-.328.017-1.258 1.069-1.768 1.647h-.001l-.014.016-.072.082c-.944 1.057-1.745 1.955-2.546 1.971-9.149.162-18.027.179-19.052.146a194.58 194.58 0 0 0-20.19.45c-.16.016-.313.016-.458.016-1.07 0-1.75-.326-2.024-.974-.985-2.338 4.667-8.008 13.46-15.803l.217-.192h-8.093l-.14-.362c-1.322-3.489-.172-27.207.924-45.244l-7.299-1.145.19 7.6h-.255c-.214 3.271-.964 14.239-1.129 14.881-.147.576-.287 1.12-11.74 1.529-.917.019-1.32-1.06-1.708-2.114l-.002-.006c-.165-.446-.462-1.249-.675-1.413-.298.162-.939 1.054-1.33 1.603-.38.571-.809 1.108-1.28 1.606 3.468-.052 6.162.324 6.737 1.921.526 1.471.764 13.198.822 19.898.05 5.47.082 18.328-.622 19.544a.818.818 0 0 1-.071.104c-.26.442-1.594.856-10.749 1.208-3.76.145-7.725.222-11.178.222-2.111 0-4.034-.03-5.603-.088-3.456-.126-3.456-1.852-3.456-4.243v-.274c-.005-2.867-.044-6.027-.084-9.37v-.001l-.01-.718c-.106-8.451-.215-17.187.127-23.472.164-3.054 2.503-3.9 4.381-4.188a128.33 128.33 0 0 0-13.049.524c-.126.02-.273.02-.4.02-.835 0-1.396-.275-1.67-.824-1.079-2.176 3.552-7.94 10.84-15.899l.708-.777h-1.147l-.137-.359c-2.18-5.747 2.703-35.935 4.702-43.09 1.29-4.578 2.87-9.07 4.73-13.448l-8.416 1.545c-1.158 1.397-1.788 2.863-2.396 4.285l-.005.01c-1.003 2.34-1.952 4.553-5.004 6.157a4.085 4.085 0 0 1-1.879.491 2.794 2.794 0 0 1-2.237-1.029c-.717-.901-.991-2.619.608-4.504 2.038-2.404 2.12-5.432 2.12-5.92a1.129 1.129 0 0 0-1.03-.824c-1.016-.12-2.593.618-3.377 2.015-.4.708-1.708 5.893-2.116 7.992h.052c-.039.148-.082.289-.123.425v.001l-.017.054a2.12 2.12 0 0 0-.036.319h-.076c-.866 2.418-2.257 3.085-3.056 3.26-.222.05-.448.074-.674.074a4.08 4.08 0 0 1-3.073-1.575c-.882-1.062-1.018-2.992-.97-4.487a3.546 3.546 0 0 1-1.979.494c-1.597-.069-3.308-1.191-3.527-3.568-.033-.352-.269-.491-1.063-.766l-.003-.001c-.958-.34-2.407-.855-2.486-2.99-.057-1.756.21-3.507.786-5.166L5 91.472l.97-4.532 10.797 1.727a26.576 26.576 0 0 1 5.036-5.454c5.045-4.188 11.896-7.185 18.896-8.305l-.644-2.9.573-.105 36.627-6.798zm-6.994-21.702a.134.134 0 0 0-.052 0v-.005c-.619.269-1.161 3.274.274 7.062.176.435.34.866.503 1.295l.044.115.001.002c1.681 4.39 3.199 8.353 7.517 13.038.09.098.182.196.276.295l.001.002.006.006.174.185.471.486a57.154 57.154 0 0 0 5.641 4.94l.033.028 11.69 10.555 8.717-17.104a33.044 33.044 0 0 0-2.021-1.216l-.043-.025c-.704-.402-1.362-.778-2.06-1.27a15.256 15.256 0 0 1-1.186-.925 20.103 20.103 0 0 1-1.295-1.219c-1.475-1.509-1.651-3.627-1.82-5.673l-.001-.002c-.23-2.83-.457-5.544-3.834-7.007a8.81 8.81 0 0 0-1.232-.434 19.86 19.86 0 0 0-4.617-.65.73.73 0 0 0-.386.05c-.266.666 2.431 3.949 3.39 4.843l2.013.714-2.219.338a.416.416 0 0 1-.364-.06c-.487-.212-.857-.681-1.155-1.06a4.787 4.787 0 0 0-.307-.37c-1.928-1.969-4.294-5.948-6.38-9.461l-.017-.028c-1.564-2.63-3.502-5.89-4.124-6.142-.797-.283-1.84-.519-2.284-.044-.592.62-.313 2.646.693 5.012.037.086.058.18.06.274 1.197 2.322 3.407 5.876 4.409 7.487.738 1.185.826 1.326.836 1.472.002.02.002.04.002.062h-1.123c0 .08.016.159.05.231a39.07 39.07 0 0 0-.718-1.17c-2.613-4.212-5.077-8.293-5.351-9.748-.608-1.487-1.142-2.602-1.87-2.86a1.038 1.038 0 0 0-.548-.035h-.028a1.481 1.481 0 0 0-.547.216c-.168.116-.305.27-.4.45-.96 1.773.807 6.233 1.572 8.165l.008.02c.05.12.093.23.131.332.118.294.203.519.258.686.18.494.389 1.01.64 1.553.253.544.526 1.107.822 1.677a57.664 57.664 0 0 0 4.866 7.732c.195.26.39.516.578.754.076.096.134.203.173.319a.496.496 0 0 0-.304-.296l-.252 1.097a.652.652 0 0 1-.507-.43c-.306-.39-.624-.81-.947-1.252a25.06 25.06 0 0 0-.116-.164l-.078-.109v-.002a38.64 38.64 0 0 1-.195-.274l-.384-.549a66.955 66.955 0 0 1-2.127-3.293l.31.977-.549-1.167-.624-1.303a6.274 6.274 0 0 0-.1-.179l-.037-.066a51.365 51.365 0 0 1-.783-1.465c-.53-1.024-1-2.078-1.408-3.157-.898-1.871-1.539-2.255-1.766-2.255zm2.752-17.194c-.402.025-.756-.406-.788-.963-.033-.558.273-1.032.662-1.06.389-.027.753.406.789.963.035.558-.263 1.027-.663 1.054v.006zm57.519 34.326a7.62 7.62 0 0 0-.925-.549c-2.695-1.34-7.742-2.025-17.943-.14l-8.612 1.6c.294.177.589.346.89.518l.002.001.162.093c.674.382 1.429.815 2.3 1.397l35.795 23.933c-1.191-4.257-3.067-12.074-4.149-17.755l-.115-.617c-.041-.217-.079-.431-.117-.64a46.992 46.992 0 0 1-.532-3.505 5.651 5.651 0 0 0-1.772-.142c-.221.013-.457.013-.731.013-1.042 0-1.516-.797-2.02-1.645l-.001-.001a9.962 9.962 0 0 0-.884-1.32 6.567 6.567 0 0 0-1.348-1.241zm-2.741-13.8c-.057-.474-.408-.521-1.254-.634-2.361-.313-9.538-1.27-9.44-6.523.05-3.113.366-6.216.945-9.274a5.137 5.137 0 0 0 4.192-3.605 5.153 5.153 0 0 0-1.494-5.329 27.489 27.489 0 0 1 4.482-7.295c3.229.714 10.388 2.657 11.182 3.475.241 1.257-.022 3.238-.304 5.332l-.002.016c-.547 4.112-1.112 8.357 1.741 9.365a12.69 12.69 0 0 1 1.95.988c1.144.662 2.327 1.34 3.609 1.46.178 3.936.446 8.042.802 10.905.14 1.13.238 2.297.301 3.477-5.37 2.017-8.388 8-7.393 14.582a7.655 7.655 0 0 0-1.613-.077h-.704c-.37 0-.573-.275-1.055-1.098-.58-.983-1.369-2.297-3.201-3.324-.326-2.275-1.049-5.19-1.692-7.775-.507-2-.94-3.74-1.052-4.666zm-8.448-24.997a3.79 3.79 0 0 0-1.917-.527 4.003 4.003 0 0 0-3.829 3.844 4.005 4.005 0 0 0 3.511 4.137c.102.014.222.014.307.014h.252a4.07 4.07 0 0 0 .611-.088 3.992 3.992 0 0 0 3.042-3.903 4.043 4.043 0 0 0-1.051-2.728 3.96 3.96 0 0 0-.926-.749zm53.592 51.74c.225.464.452.936.677 1.408l.325.684.219.46.002.004.105.222c4.439 9.361 9.051 19.802 13.164 29.117l.503 1.138c1.939 4.388 3.767 8.523 5.295 11.884h-20.117c2.585-7.284-.022-19.568-1.819-28.021l-.062-.296a214.845 214.845 0 0 1-.885-4.326c-.066-.357-.129-.7-.184-1.027a35.29 35.29 0 0 1-.164-1.07c-.033-.247-.06-.48-.082-.694v-.039c-1.079-6.471-4.017-11.458-8.73-14.82-5.382-3.843-11.968-4.83-16.798-4.94h-1.197a39.08 39.08 0 0 0-4.973.326c-.863-5.887 1.706-11.225 6.342-13.174.183-.077.365-.148.548-.214l.093-.035c.151-.053.304-.097.457-.14 6.855-1.971 17.466 3.21 27.278 23.559l.003-.006zm-20.716 118.565a8.54 8.54 0 0 0 .049-.549h-.003c.085-1.282.096-3.826.074-6.928v-1.125c-.028-2.871-.085-6.1-.139-9.15v-.012l-.025-1.432c-.137-7.539-.187-12.243-.187-15.191v-1.114c.033-2.547.148-3.398.34-3.719.082-.484.001-2.417-.079-4.298v-.016c-.307-7.529-.441-14.442 1.369-16.333a1.637 1.637 0 0 1 1.202-.549v1.125a.512.512 0 0 0-.392.198c-1.626 1.699-1.251 10.682-1.048 15.506.104 2.204.134 3.398.104 4.084h7.941c13.633 1.521 23.811-1.462 29.425-8.598 4.875-6.197 5.973-15.504 2.909-24.377a.562.562 0 0 0-.019-.058l-21.087-.014h-17.356a.663.663 0 0 1-.126 0c-.151-.016-.324-.109-.625-.516a6.26 6.26 0 0 1-.378-.549c-.69-1.114-1.867-3.37-4.075-7.918a647.192 647.192 0 0 1-4.762-10.08c-3.877-8.44-14.076-21.122-23.66-21.548-4.505-.206-8.334 2.404-11.379 7.737a68.931 68.931 0 0 0-1.128 2.042c-.247.458-.49.92-.731 1.389a110.306 110.306 0 0 0-2.427 5.02l-.227.518-.077.173-.059.132-.053.12a110.685 110.685 0 0 0-4.652 12.688l-.1.339v.002c-.045.154-.09.308-.136.458-.079.261-.156.536-.233.81-1.604 5.7-2.675 11.338-3.075 16.495-.238 3.063-.786 10.731-1.334 19.804-.004.067-.01.133-.015.2-.01.121-.02.243-.02.363l-.033.565c-1.063 17.662-2.123 40.024-1.096 44.306h57.323zm-61.337-70.744h-.02c-.98 0-1.623 1.54-2.464 4.375a9.63 9.63 0 0 1-.137.447c-.69 1.707-1.219 9.571-1.785 18.982h-.055l.186 7.462H46.02c-1.662-6.038 2.686-34.279 4.85-42.019a111.095 111.095 0 0 1 4.97-13.997c.09-.209.18-.415.274-.62.047-.103.092-.208.137-.312.045-.104.09-.209.137-.311a97.117 97.117 0 0 1 4.381-8.679c3.046-5.332 6.874-7.94 11.376-7.736 5.77.255 11.776 4.956 16.467 10.497l.413.494.128.156c.094.115.188.229.28.344a49.877 49.877 0 0 1 6.359 10.039c.408.884 2.109 4.554 3.94 8.374-1.818 6.184-3.028 12.329-3.464 17.925-.019.225-.654 8.782-1.328 19.714l-7.358-1.156c.416-6.938 1.035-17.06 1.712-18.734a7.42 7.42 0 0 0 .172-.549c.693-2.341 1.115-3.178 1.347-3.466.106.225.186.46.241.702l1.096-.274c-.113-.45-.411-1.641-1.268-1.658zm-12.726-55.22l-36.75 6.823 5.367 24.152 8.292-1.507a100.84 100.84 0 0 1 4.738-9.48c3.27-5.73 7.44-8.524 12.4-8.302 6.251.275 12.712 5.437 17.666 11.39l3.286-.606-.08-.047 3.24-6.087-11.89-10.75a56.756 56.756 0 0 1-6.269-5.586zm19.03 17.107l.331-.648 9.311-17.458 34.749 23.23c1.446 1.136 11.373 8.014 12.189 8.428.301.163.591.347.868.55.679.48 1.449 1.02 2.418 1.02v-1.125c-.613 0-1.175-.395-1.772-.824a8.101 8.101 0 0 0-1.008-.642c-.821-.422-7.536-5.105-10.57-7.264-1.096-3.612-3.267-12.453-4.48-18.76l-.032-.16-.024-.123v-.001l-.017-.09-.018-.094-.016-.08-.031-.158-.039-.207-.001-.004-.011-.064-.022-.116a75.025 75.025 0 0 1-.548-3.357l-.015-.124a26.666 26.666 0 0 1-.059-.535h.019a39.742 39.742 0 0 1 4.382-.274h1.221c4.719.085 11.288.988 16.508 4.715 4.453 3.181 7.235 7.915 8.265 14.069.068.705.202 1.567.38 2.541.058.324.124.662.192 1.01.068.349.129.65.197.99.124.605.257 1.233.395 1.888v.003l.001.005.229 1.085c1.804 8.49 4.444 20.925 1.728 27.783h-16.431c-1.096-1.342-6.414-12.526-9.125-18.424-3.993-8.689-14.583-21.756-24.63-22.198-4.844-.214-8.941 2.449-12.175 7.916l-.228.387c-.103.182-.206.365-.308.55l-.001.001-.101.18-.096.172c-.247.444-.493.892-.734 1.344a102.528 102.528 0 0 0-3.034 6.178l-8.791-5.368-.72-.439-.72-.442-.25-.15 2.61-4.903.014-.013zm3.031 24.02a112.251 112.251 0 0 1 4.363-11.69l-9.99-6.1-3.933.722a50.359 50.359 0 0 1 6.16 9.811 559.2 559.2 0 0 0 3.4 7.257zm-84.09-17.505l1.226.195 2.947.478 1.164.186 4.496.711-.821 2.47-4.677-.79-1.123-.19-3.223-.548-1.162-.195-8.601-1.455.506-2.347 9.268 1.485zm-1.244 8.514c.052 1.375.797 1.641 1.742 1.973h-.006c.293.097.577.216.852.354a55.328 55.328 0 0 1 1.523-6.719l-3.308-.548a13.127 13.127 0 0 0-.803 4.94zm6 6.235c-1.07-.038-2.273-.721-2.45-2.511.013-.79.714-4.682 1.68-7.907l4.968.84c-1.188 3.145-2.05 6.461-2.073 8.176-.186.966-1.205 1.441-2.13 1.402h.005zm21.796-2.289c.698-1.633 1.421-3.323 2.92-4.97l.079.066-4.724-21.246c-9.845 1.548-18.469 6.667-22.902 12.861l2.892.464c.07-.095.146-.187.227-.274l.38.365 5.6.894c.639-1.136 1.285-2.041 1.896-2.544l.712.87c-2.355 1.94-5.625 11.451-5.625 14.47h-.488l.48.093a.424.424 0 0 1-.01.041c-.005.021-.01.04-.01.06-.128.733-.512 4.26.548 5.539.726.886 1.75 1.32 2.643 1.122.997-.219 1.813-1.204 2.328-2.788.35-2.061 1.807-7.841 2.305-8.73.926-1.636 2.89-2.767 4.486-2.583.958.085 1.76.764 2.002 1.696l.016.066v.069c.008.153.12 3.806-2.385 6.759-1.153 1.362-1.054 2.484-.586 3.072.468.587 1.49.889 2.717.241 2.702-1.419 3.535-3.362 4.499-5.613zm6.35 109.626c-2.374-.085-2.374-.727-2.374-3.118v-.274c0-2.615-.035-5.472-.073-8.488l-.02-1.612c-.107-8.432-.216-17.151.123-23.398.132-2.431 1.917-3.057 4.754-3.277 1.416-.107 3.125-.14 4.878-.14.926 0 1.853.01 2.766.02l.498.005c-1.482 1.543-1.438 4.422-1.4 6.878v1.153c0 1.026 0 23.877-.032 25.033-.074 4.254-.033 6.271.408 7.265-3.429.063-6.811.054-9.533-.047h.005zm27.046-20.052c-.09-10.072-.416-18.38-.756-19.33h.008c-.575-1.608-6.832-1.19-9.886-.985l-.046.003-.09.006c-.975.063-1.81.117-2.375.117h-.638c-2.87.16-3.048 2.932-2.988 6.829v1.172c0 .23-.013 23.85-.035 25.055-.066 3.743-.011 5.546.191 6.427.134.594.197.604.779.694l.005.001c.136.019.29.046.454.079 6.94-.156 13.567-.543 14.826-.914l.025-.131.101-.02c.29-1.309.523-8.003.425-19.003zm77.362-8.269c-.027-2.698-.082-6.159-.161-10.613-.061-3.244-.124-6.798-.159-9.977.315.055.728.107 1.268.154l3.028 20.436h-3.976zm10.719 26.781c.49-.417 1.18-.98 1.706-1.391l6.714-45.615c-2.733.036-5.104.036-7.152.036-4.856 0-7.928-.063-9.884-.173l6.699 45.26a.333.333 0 0 1 .093-.054c-.003.034.324.37.727.784.366.375.793.814 1.097 1.153zm40.176-25.494h-33.779l3.163-21.52c2.618-.025 5.553-.06 8.848-.11 1.796-.027 3.094-.046 3.609-.046 5.305 0 9.807-.911 13.577-2.764l4.582 24.44zm17.526-98.205c.274-6.705-6.134-13.201-13.966-14.187-6.351-.799-26.259-1.02-34.45-.409.172.346.342.695.512 1.046.138.283.274.569.411.855l.211.44c7.065-.48 24.578-.356 28.639.577 4.839 1.108 7.673 2.132 9.732 4.646 5.075 6.186 3.525 15.392 1.917 21.778-2.41 9.579-9.743 38.726-17.726 46.888-.516.525-.922.946-1.255 1.29l-.024.025a21.984 21.984 0 0 1-3.163 2.865l-1.602 1.282c-4.384 3.515-9.196 4.177-17.685 4.27-.983.017-2.079.017-3.24.017-3.371 0-7.295-.039-10.617-.072l-1.223-.011a577.632 577.632 0 0 0-4.637-.033h-.044l-.548-.041a296.41 296.41 0 0 0 .017 3.985c1.799.428 11.452.437 19.626.365v-.063l.409.058c3.4-.03 6.515-.074 8.656-.105l.728-.01c1.802-.028 3.103-.047 3.626-.047 5.253 0 9.683-.922 13.361-2.797l-.027-.148.482-.091a20.817 20.817 0 0 0 6.411-5.368c4.551-5.684 6.687-13.874 8.177-21.133 3.374-16.431 7.084-40.542 7.292-45.872z" fill="#000"/></svg>