<svg version="1.1" id="Layer_1" xmlns="http://www.w3.org/2000/svg" xmlns:xlink="http://www.w3.org/1999/xlink" x="0" y="0" viewBox="0 0 561 565" xml:space="preserve"><style>.st12{fill:#00606a}</style><image width="692" height="220" xlink:href="2F29CFAEDCF63931.png" transform="translate(-53.5 391)" overflow="visible" opacity=".8"/><linearGradient id="SVGID_1_" gradientUnits="userSpaceOnUse" x1="-2149.16" y1="-234.157" x2="-1856.838" y2="-234.157" gradientTransform="matrix(.9483 -.3173 1.5758 .5272 2556.262 -37.812)"><stop offset=".469" stop-color="#eee"/><stop offset=".528" stop-color="#d4d4d4"/></linearGradient><path d="M468.8 463L236 540.9c-8.5 2.9-17.8 2.9-26.3 0l-103.4-34.6c-4.4-1.5-8.4-18.6.6-20.7l232.8-66.2c8.5-2.9 17.8-2.9 26.3 0l102.8 22.7c7.6 2 4.5 19.4 0 20.9z" fill="url(#SVGID_1_)"/><path d="M468.8 451.2L236 529.1c-8.5 2.9-17.8 2.9-26.3 0l-102.8-34.4c-4.4-1.5-4.4-7.8 0-9.3l232.8-77.9c8.5-2.9 17.8-2.9 26.3 0l102.8 34.4c4.5 1.6 4.5 7.9 0 9.3z" fill="#fafafb"/><path d="M222.9 526.6c4 0 7.9-.6 11.7-1.9l232.8-77.9c.1 0 .1-.1.1-.1v-.3l-.1-.1L364.6 412c-3.8-1.3-7.7-1.9-11.7-1.9s-7.9.6-11.7 1.9l-232.8 77.9c-.1 0-.1.1-.1.1v.3l.1.1 102.8 34.4c3.8 1.2 7.7 1.8 11.7 1.8z" fill="#6ad0ff"/><linearGradient id="SVGID_00000109006045577913982970000010994662913588446596_" gradientUnits="userSpaceOnUse" x1="249.463" y1="53.446" x2="272.515" y2="669.253" gradientTransform="translate(0 2)"><stop offset="0" stop-color="#fff" stop-opacity="0"/><stop offset=".657" stop-color="#00a99d"/></linearGradient><path fill="url(#SVGID_00000109006045577913982970000010994662913588446596_)" d="M208.3 437.4l80 26.6 71.2-26.5L501.6 31.4-5.1 14.7z"/><image width="136" height="59" xlink:href="2F29CFAEDCF63933.png" transform="translate(215.5 458)" overflow="visible" opacity=".56"/><g fill="#14c39a"><path d="M208.3 466.9l71.4 23.9c2.8.9 5.8.9 8.6 0l71.2-23.8c1-.3 1-1.7 0-2.1l-70.9-23.7c-3-1-6.2-1-9.1 0L208.4 465c-1 .3-1 1.6-.1 1.9z" opacity=".45"/><path d="M284 490.4c1.3 0 2.7-.2 4-.6l71.2-23.8-70.9-23.7c-1.4-.5-2.8-.7-4.2-.7-1.4 0-2.9.2-4.2.7l-71 23.8 71.2 23.8c1.2.3 2.6.5 3.9.5z"/></g><image width="167" height="71" xlink:href="2F29CFAEDCF63936.png" transform="translate(200.5 439)" overflow="visible"/><linearGradient id="SVGID_00000103946316840310330750000007758615608970101437_" gradientUnits="userSpaceOnUse" x1="1532.932" y1="450.622" x2="1721.083" y2="450.15" gradientTransform="matrix(-1 0 0 1 1891.08 2)"><stop offset=".23" stop-color="#14c39a"/><stop offset="1" stop-color="#0fa8b4"/></linearGradient><path d="M208.3 453.4l71.4 23.9c2.8.9 5.8.9 8.6 0l71.2-23.8c1-.3 1-1.7 0-2.1l-70.9-23.7c-3-1-6.2-1-9.1 0l-71.1 23.8c-1 .3-1 1.6-.1 1.9z" opacity=".6" fill="url(#SVGID_00000103946316840310330750000007758615608970101437_)"/><linearGradient id="SVGID_00000110457499158864076260000001965429954849833370_" gradientUnits="userSpaceOnUse" x1="1533.964" y1="450.657" x2="1719.354" y2="450.192" gradientTransform="matrix(-1 0 0 1 1891.08 2)"><stop offset="0" stop-color="#0023e3"/><stop offset="1" stop-color="#0fa8b4"/></linearGradient><path d="M284 476.9c1.3 0 2.7-.2 4-.6l71.2-23.8-70.9-23.7c-1.4-.5-2.8-.7-4.2-.7-1.4 0-2.9.2-4.2.7l-71 23.8 71.2 23.8c1.2.3 2.6.5 3.9.5z" fill="url(#SVGID_00000110457499158864076260000001965429954849833370_)"/><image width="167" height="71" xlink:href="2F29CFAEDCF63937.png" transform="translate(200.5 422)" overflow="visible"/><radialGradient id="SVGID_00000062186662076601956480000013457078271859623562_" cx="1607.28" cy="437.182" r="56.799" gradientTransform="matrix(-1 0 0 1 1891.08 2)" gradientUnits="userSpaceOnUse"><stop offset="0" stop-color="#fff"/><stop offset="1" stop-color="#57d973"/></radialGradient><path d="M209.9 436.2v1.4l69.5-23.3c3-1 6.2-1 9.1 0l69.2 23.2v-.6l2.4-.5v2.7c0 .4-.3.8-.7 1l-71.2 23.8c-2.8.9-5.8.9-8.6 0L208.2 440c-.5-.2-.7-.5-.7-.9v-2.7l2.4-.2z" fill="url(#SVGID_00000062186662076601956480000013457078271859623562_)"/><radialGradient id="SVGID_00000018925063580899186380000008132440464496896134_" cx="283.943" cy="434.463" r="56.893" gradientTransform="translate(0 2)" gradientUnits="userSpaceOnUse"><stop offset="0" stop-color="#fff"/><stop offset="1" stop-color="#14c39a"/></radialGradient><path d="M208.3 437.4l71.4 23.9c2.8.9 5.8.9 8.6 0l71.2-23.8c1-.3 1-1.7 0-2.1l-70.9-23.7c-3-1-6.2-1-9.1 0l-71.1 23.8c-1 .3-1 1.6-.1 1.9z" fill="url(#SVGID_00000018925063580899186380000008132440464496896134_)"/><g opacity=".34"><path class="st12" d="M323.6 434.2c-.2-.1-.2-.2 0-.3s.6-.1.8 0c.2.1.2.2 0 .3-.2.1-.6.1-.8 0zm-1.4-.5c-.2-.1-.2-.2 0-.3s.6-.1.8 0c.2.1.2.2 0 .3s-.5.1-.8 0z"/><ellipse class="st12" cx="321.3" cy="433.2" rx=".5" ry=".2"/><path class="st12" d="M319.5 432.8c-.2-.1-.2-.2 0-.3s.6-.1.8 0c.2.1.2.2 0 .3-.2.1-.6.1-.8 0zm-1.3-.4c-.2-.1-.2-.2 0-.3s.6-.1.8 0c.2.1.2.2 0 .3h-.8zm-1.4-.5c-.2-.1-.2-.2 0-.3s.6-.1.8 0c.2.1.2.2 0 .3-.2.1-.6.1-.8 0zm-1.3-.4c-.2-.1-.2-.2 0-.3s.6-.1.8 0c.2.1.2.2 0 .3h-.8zm-1.4-.5c-.2-.1-.2-.2 0-.3s.6-.1.8 0c.2.1.2.2 0 .3-.2.1-.6.1-.8 0zm-1.4-.4c-.2-.1-.2-.2 0-.3s.6-.1.8 0c.2.1.2.2 0 .3h-.8zm-13.5-4.6c-.2-.1-.2-.2 0-.3s.6-.1.8 0c.2.1.2.2 0 .3-.3.1-.6.1-.8 0zm-1.4-.4c-.2-.1-.2-.2 0-.3s.6-.1.8 0c.2.1.2.2 0 .3h-.8zm24.4 9c-.2-.1-.2-.2 0-.3s.6-.1.8 0c.2.1.2.2 0 .3-.2.1-.5.1-.8 0zm-1.3-.4c-.2-.1-.2-.2 0-.3s.6-.1.8 0c.2.1.2.2 0 .3-.3.1-.6.1-.8 0zm-1.4-.5c-.2-.1-.2-.2 0-.3s.6-.1.8 0c.2.1.2.2 0 .3-.2.1-.6.1-.8 0zm-1.3-.4c-.2-.1-.2-.2 0-.3s.6-.1.8 0c.2.1.2.2 0 .3-.3.1-.6.1-.8 0zm-1.4-.5c-.2-.1-.2-.2 0-.3s.6-.1.8 0c.2.1.2.2 0 .3-.2.1-.6.1-.8 0zm-1.3-.4c-.2-.1-.2-.2 0-.3s.6-.1.8 0c.2.1.2.2 0 .3h-.8zm-1.4-.5c-.2-.1-.2-.2 0-.3s.6-.1.8 0c.2.1.2.2 0 .3-.2.1-.6.1-.8 0zm-1.4-.4c-.2-.1-.2-.2 0-.3s.6-.1.8 0c.2.1.2.2 0 .3h-.8zm-1.3-.5c-.2-.1-.2-.2 0-.3s.6-.1.8 0c.2.1.2.2 0 .3-.3.1-.6.1-.8 0zm-13.6-4.5c-.2-.1-.2-.2 0-.3s.6-.1.8 0c.2.1.2.2 0 .3h-.8zm-1.3-.5c-.2-.1-.2-.2 0-.3s.6-.1.8 0c.2.1.2.2 0 .3-.3.1-.6.1-.8 0zm28.5 10.5c-.2-.1-.2-.2 0-.3s.6-.1.8 0c.2.1.2.2 0 .3h-.8zm-1.4-.5c-.2-.1-.2-.2 0-.3s.6-.1.8 0c.2.1.2.2 0 .3-.2.1-.6.1-.8 0zm-1.4-.4c-.2-.1-.2-.2 0-.3s.6-.1.8 0c.2.1.2.2 0 .3h-.8zm-1.3-.5c-.2-.1-.2-.2 0-.3s.6-.1.8 0c.2.1.2.2 0 .3-.3.1-.6.1-.8 0zm-1.4-.5c-.2-.1-.2-.2 0-.3s.6-.1.8 0c.2.1.2.2 0 .3-.2.1-.6.1-.8 0zm-1.3-.4c-.2-.1-.2-.2 0-.3s.6-.1.8 0c.2.1.2.2 0 .3-.3.1-.6.1-.8 0zm-1.4-.5c-.2-.1-.2-.2 0-.3s.6-.1.8 0c.2.1.2.2 0 .3-.2.1-.6.1-.8 0zm-1.3-.4c-.2-.1-.2-.2 0-.3s.6-.1.8 0c.2.1.2.2 0 .3-.3.1-.6.1-.8 0zm-1.4-.5c-.2-.1-.2-.2 0-.3s.6-.1.8 0c.2.1.2.2 0 .3-.2.1-.6.1-.8 0zm-1.4-.4c-.2-.1-.2-.2 0-.3s.6-.1.8 0c.2.1.2.2 0 .3h-.8zm-1.3-.5c-.2-.1-.2-.2 0-.3s.6-.1.8 0c.2.1.2.2 0 .3-.3.1-.6.1-.8 0zm-1.4-.4c-.2-.1-.2-.2 0-.3s.6-.1.8 0c.2.1.2.2 0 .3h-.8zm-1.3-.5c-.2-.1-.2-.2 0-.3s.6-.1.8 0c.2.1.2.2 0 .3-.3.1-.6.1-.8 0zm-6.8-2.3c-.2-.1-.2-.2 0-.3s.6-.1.8 0c.2.1.2.2 0 .3-.3.1-.6.1-.8 0zm-1.4-.4c-.2-.1-.2-.2 0-.3s.6-.1.8 0c.2.1.2.2 0 .3-.2.1-.6.1-.8 0zm-1.3-.5c-.2-.1-.2-.2 0-.3s.6-.1.8 0c.2.1.2.2 0 .3-.3.1-.6.1-.8 0zm-2.7-.9c-.2-.1-.2-.2 0-.3s.6-.1.8 0c.2.1.2.2 0 .3-.3.1-.6.1-.8 0zm-1.4-.4c-.2-.1-.2-.2 0-.3s.6-.1.8 0c.2.1.2.2 0 .3h-.8zm-1.4-.5c-.2-.1-.2-.2 0-.3s.6-.1.8 0c.2.1.2.2 0 .3s-.5.1-.8 0zm-1.3-.4c-.2-.1-.2-.2 0-.3s.6-.1.8 0c.2.1.2.2 0 .3h-.8zm-4.1-1.4c-.2-.1-.2-.2 0-.3s.6-.1.8 0c.2.1.2.2 0 .3-.2.1-.6.1-.8 0zm-1.3-.4c-.2-.1-.2-.2 0-.3s.6-.1.8 0c.2.1.2.2 0 .3h-.8zm-1.4-.5c-.2-.1-.2-.2 0-.3s.6-.1.8 0c.2.1.2.2 0 .3-.2.1-.6.1-.8 0zm47.5 16.8c-.2-.1-.2-.2 0-.3s.6-.1.8 0c.2.1.2.2 0 .3-.2.1-.6.1-.8 0zm-1.4-.5c-.2-.1-.2-.2 0-.3s.6-.1.8 0c.2.1.2.2 0 .3-.2.1-.6.1-.8 0zm-1.3-.4c-.2-.1-.2-.2 0-.3s.6-.1.8 0c.2.1.2.2 0 .3-.3.1-.6.1-.8 0zm-5.4-1.8c-.2-.1-.2-.2 0-.3s.6-.1.8 0c.2.1.2.2 0 .3h-.8zm-1.4-.5c-.2-.1-.2-.2 0-.3s.6-.1.8 0c.2.1.2.2 0 .3-.2.1-.6.1-.8 0zm-1.4-.4c-.2-.1-.2-.2 0-.3s.6-.1.8 0c.2.1.2.2 0 .3h-.8z"/><ellipse class="st12" cx="321.3" cy="435.9" rx=".5" ry=".2"/><path class="st12" d="M319.5 435.6c-.2-.1-.2-.2 0-.3s.6-.1.8 0c.2.1.2.2 0 .3h-.8zm-1.3-.5c-.2-.1-.2-.2 0-.3s.6-.1.8 0c.2.1.2.2 0 .3-.3.1-.6.1-.8 0zm-1.4-.5c-.2-.1-.2-.2 0-.3s.6-.1.8 0c.2.1.2.2 0 .3-.2.1-.6.1-.8 0zm-1.3-.4c-.2-.1-.2-.2 0-.3s.6-.1.8 0c.2.1.2.2 0 .3-.3.1-.6.1-.8 0zm-1.4-.5c-.2-.1-.2-.2 0-.3s.6-.1.8 0c.2.1.2.2 0 .3-.2.1-.6.1-.8 0zm-1.4-.4c-.2-.1-.2-.2 0-.3s.6-.1.8 0c.2.1.2.2 0 .3-.2.1-.5.1-.8 0zm-1.3-.5c-.2-.1-.2-.2 0-.3s.6-.1.8 0c.2.1.2.2 0 .3-.3.1-.6.1-.8 0zm-1.4-.4c-.2-.1-.2-.2 0-.3s.6-.1.8 0c.2.1.2.2 0 .3h-.8zm-1.3-.5c-.2-.1-.2-.2 0-.3s.6-.1.8 0c.2.1.2.2 0 .3-.3.1-.6.1-.8 0zm-1.4-.4c-.2-.1-.2-.2 0-.3s.6-.1.8 0c.2.1.2.2 0 .3h-.8zm-2.7-.9c-.2-.1-.2-.2 0-.3s.6-.1.8 0c.2.1.2.2 0 .3h-.8zm-1.4-.5c-.2-.1-.2-.2 0-.3s.6-.1.8 0c.2.1.2.2 0 .3-.2.1-.5.1-.8 0zm-2.7-.9c-.2-.1-.2-.2 0-.3s.6-.1.8 0c.2.1.2.2 0 .3-.2.1-.6.1-.8 0zm-1.3-.5c-.2-.1-.2-.2 0-.3s.6-.1.8 0c.2.1.2.2 0 .3-.3.1-.6.1-.8 0zm-5.5-1.8c-.2-.1-.2-.2 0-.3s.6-.1.8 0c.2.1.2.2 0 .3s-.5.1-.8 0zm-1.3-.4c-.2-.1-.2-.2 0-.3s.6-.1.8 0c.2.1.2.2 0 .3h-.8zm-1.4-.5c-.2-.1-.2-.2 0-.3s.6-.1.8 0c.2.1.2.2 0 .3-.2.1-.6.1-.8 0zm-1.3-.4c-.2-.1-.2-.2 0-.3s.6-.1.8 0c.2.1.2.2 0 .3h-.8zm-1.4-.5c-.2-.1-.2-.2 0-.3s.6-.1.8 0c.2.1.2.2 0 .3-.2.1-.6.1-.8 0zm-1.3-.4c-.2-.1-.2-.2 0-.3s.6-.1.8 0c.2.1.2.2 0 .3h-.8zm-1.4-.5c-.2-.1-.2-.2 0-.3s.6-.1.8 0c.2.1.2.2 0 .3-.2.1-.6.1-.8 0zm-1.4-.4c-.2-.1-.2-.2 0-.3s.6-.1.8 0c.2.1.2.2 0 .3h-.8zm-1.3-.5c-.2-.1-.2-.2 0-.3s.6-.1.8 0c.2.1.2.2 0 .3-.3.1-.6.1-.8 0zm-1.4-.5c-.2-.1-.2-.2 0-.3s.6-.1.8 0c.2.1.2.2 0 .3-.2.1-.6.1-.8 0zm-1.3-.4c-.2-.1-.2-.2 0-.3s.6-.1.8 0c.2.1.2.2 0 .3-.3.1-.6.1-.8 0zm-1.4-.5c-.2-.1-.2-.2 0-.3s.6-.1.8 0c.2.1.2.2 0 .3-.2.1-.6.1-.8 0zm-1.3-.4c-.2-.1-.2-.2 0-.3s.6-.1.8 0c.2.1.2.2 0 .3-.3.1-.6.1-.8 0zm-1.4-.5c-.2-.1-.2-.2 0-.3s.6-.1.8 0c.2.1.2.2 0 .3-.2.1-.6.1-.8 0zm-1.4-.4c-.2-.1-.2-.2 0-.3s.6-.1.8 0c.2.1.2.2 0 .3h-.8zm58.4 20.4c-.2-.1-.2-.2 0-.3s.6-.1.8 0c.2.1.2.2 0 .3-.2.1-.6.1-.8 0zm-1.4-.4c-.2-.1-.2-.2 0-.3s.6-.1.8 0c.2.1.2.2 0 .3h-.8zm-1.3-.5c-.2-.1-.2-.2 0-.3s.6-.1.8 0c.2.1.2.2 0 .3-.3.1-.6.1-.8 0zm-1.4-.5c-.2-.1-.2-.2 0-.3s.6-.1.8 0c.2.1.2.2 0 .3-.2.1-.6.1-.8 0zm-1.3-.4c-.2-.1-.2-.2 0-.3s.6-.1.8 0c.2.1.2.2 0 .3-.3.1-.6.1-.8 0zm-1.4-.5c-.2-.1-.2-.2 0-.3s.6-.1.8 0c.2.1.2.2 0 .3-.2.1-.6.1-.8 0zm-1.3-.4c-.2-.1-.2-.2 0-.3s.6-.1.8 0c.2.1.2.2 0 .3-.3.1-.6.1-.8 0zm-1.4-.5c-.2-.1-.2-.2 0-.3s.6-.1.8 0c.2.1.2.2 0 .3-.2.1-.6.1-.8 0zm-1.4-.4c-.2-.1-.2-.2 0-.3s.6-.1.8 0c.2.1.2.2 0 .3h-.8z"/><ellipse class="st12" cx="321.3" cy="436.8" rx=".5" ry=".2"/><path class="st12" d="M319.5 436.5c-.2-.1-.2-.2 0-.3s.6-.1.8 0c.2.1.2.2 0 .3h-.8zm-1.3-.5c-.2-.1-.2-.2 0-.3s.6-.1.8 0c.2.1.2.2 0 .3-.3.1-.6.1-.8 0zm-1.4-.4c-.2-.1-.2-.2 0-.3s.6-.1.8 0c.2.1.2.2 0 .3h-.8zm-1.3-.5c-.2-.1-.2-.2 0-.3s.6-.1.8 0c.2.1.2.2 0 .3-.3.1-.6.1-.8 0zm-1.4-.5c-.2-.1-.2-.2 0-.3s.6-.1.8 0c.2.1.2.2 0 .3-.2.1-.6.1-.8 0zm-1.4-.4c-.2-.1-.2-.2 0-.3s.6-.1.8 0c.2.1.2.2 0 .3s-.5.1-.8 0zm-1.3-.5c-.2-.1-.2-.2 0-.3s.6-.1.8 0c.2.1.2.2 0 .3-.3.1-.6.1-.8 0zm-1.4-.4c-.2-.1-.2-.2 0-.3s.6-.1.8 0c.2.1.2.2 0 .3-.2.1-.6.1-.8 0zm-1.3-.5c-.2-.1-.2-.2 0-.3s.6-.1.8 0c.2.1.2.2 0 .3-.3.1-.6.1-.8 0zm-1.4-.4c-.2-.1-.2-.2 0-.3s.6-.1.8 0c.2.1.2.2 0 .3h-.8zm-4.1-1.4c-.2-.1-.2-.2 0-.3s.6-.1.8 0c.2.1.2.2 0 .3s-.5.1-.8 0zm-1.3-.4c-.2-.1-.2-.2 0-.3s.6-.1.8 0c.2.1.2.2 0 .3h-.8zm-5.4-1.9c-.2-.1-.2-.2 0-.3s.6-.1.8 0c.2.1.2.2 0 .3-.3.1-.6.1-.8 0zm-1.4-.4c-.2-.1-.2-.2 0-.3s.6-.1.8 0c.2.1.2.2 0 .3-.2.1-.6.1-.8 0zm-1.4-.5c-.2-.1-.2-.2 0-.3s.6-.1.8 0c.2.1.2.2 0 .3-.2.1-.5.1-.8 0zm-1.3-.4c-.2-.1-.2-.2 0-.3s.6-.1.8 0c.2.1.2.2 0 .3-.3.1-.6.1-.8 0zm-1.4-.5c-.2-.1-.2-.2 0-.3s.6-.1.8 0c.2.1.2.2 0 .3-.2.1-.6.1-.8 0zm-1.3-.4c-.2-.1-.2-.2 0-.3s.6-.1.8 0c.2.1.2.2 0 .3h-.8zm-1.4-.5c-.2-.1-.2-.2 0-.3s.6-.1.8 0c.2.1.2.2 0 .3-.2.1-.6.1-.8 0zm-1.3-.4c-.2-.1-.2-.2 0-.3s.6-.1.8 0c.2.1.2.2 0 .3h-.8zm-1.4-.5c-.2-.1-.2-.2 0-.3s.6-.1.8 0c.2.1.2.2 0 .3-.2.1-.6.1-.8 0zm-1.4-.4c-.2-.1-.2-.2 0-.3s.6-.1.8 0c.2.1.2.2 0 .3h-.8zm-1.3-.5c-.2-.1-.2-.2 0-.3s.6-.1.8 0c.2.1.2.2 0 .3-.3.1-.6.1-.8 0zm-1.4-.4c-.2-.1-.2-.2 0-.3s.6-.1.8 0c.2.1.2.2 0 .3h-.8zm-1.3-.5c-.2-.1-.2-.2 0-.3s.6-.1.8 0c.2.1.2.2 0 .3-.3.1-.6.1-.8 0zm-1.4-.5c-.2-.1-.2-.2 0-.3s.6-.1.8 0c.2.1.2.2 0 .3-.2.1-.6.1-.8 0z"/><ellipse class="st12" cx="277.8" cy="422.3" rx=".5" ry=".2"/><path class="st12" d="M276.1 421.9c-.2-.1-.2-.2 0-.3s.6-.1.8 0c.2.1.2.2 0 .3-.2.1-.6.1-.8 0zm-1.4-.4c-.2-.1-.2-.2 0-.3s.6-.1.8 0c.2.1.2.2 0 .3s-.5.1-.8 0zm-1.3-.5c-.2-.1-.2-.2 0-.3s.6-.1.8 0c.2.1.2.2 0 .3-.3.1-.6.1-.8 0zm61 21.4c-.2-.1-.2-.2 0-.3s.6-.1.8 0c.2.1.2.2 0 .3h-.8zm-1.3-.5c-.2-.1-.2-.2 0-.3s.6-.1.8 0c.2.1.2.2 0 .3-.2.1-.6.1-.8 0zm-1.4-.4c-.2-.1-.2-.2 0-.3s.6-.1.8 0c.2.1.2.2 0 .3h-.8zm-1.3-.5c-.2-.1-.2-.2 0-.3s.6-.1.8 0c.2.1.2.2 0 .3-.3.1-.6.1-.8 0zm-1.4-.4c-.2-.1-.2-.2 0-.3s.6-.1.8 0c.2.1.2.2 0 .3h-.8zm-1.3-.5c-.2-.1-.2-.2 0-.3s.6-.1.8 0c.2.1.2.2 0 .3-.3.1-.6.1-.8 0zm-1.4-.5c-.2-.1-.2-.2 0-.3s.6-.1.8 0c.2.1.2.2 0 .3-.2.1-.6.1-.8 0zm-1.3-.4c-.2-.1-.2-.2 0-.3s.6-.1.8 0c.2.1.2.2 0 .3-.3.1-.6.1-.8 0zm-1.4-.5c-.2-.1-.2-.2 0-.3s.6-.1.8 0c.2.1.2.2 0 .3-.2.1-.6.1-.8 0zm-1.4-.4c-.2-.1-.2-.2 0-.3s.6-.1.8 0c.2.1.2.2 0 .3-.2.1-.5.1-.8 0zm-1.3-.5c-.2-.1-.2-.2 0-.3s.6-.1.8 0c.2.1.2.2 0 .3-.3.1-.6.1-.8 0zm-1.4-.4c-.2-.1-.2-.2 0-.3s.6-.1.8 0c.2.1.2.2 0 .3h-.8zm-1.3-.5c-.2-.1-.2-.2 0-.3s.6-.1.8 0c.2.1.2.2 0 .3-.3.1-.6.1-.8 0zm-1.4-.4c-.2-.1-.2-.2 0-.3s.6-.1.8 0c.2.1.2.2 0 .3h-.8zm-1.3-.5c-.2-.1-.2-.2 0-.3s.6-.1.8 0c.2.1.2.2 0 .3-.3.1-.6.1-.8 0zm-1.4-.4c-.2-.1-.2-.2 0-.3s.6-.1.8 0c.2.1.2.2 0 .3h-.8zm-1.4-.5c-.2-.1-.2-.2 0-.3s.6-.1.8 0c.2.1.2.2 0 .3-.2.1-.5.1-.8 0zm-1.3-.5c-.2-.1-.2-.2 0-.3s.6-.1.8 0c.2.1.2.2 0 .3-.3.1-.6.1-.8 0zm-1.4-.4c-.2-.1-.2-.2 0-.3s.6-.1.8 0c.2.1.2.2 0 .3-.2.1-.6.1-.8 0zm-1.3-.5c-.2-.1-.2-.2 0-.3s.6-.1.8 0c.2.1.2.2 0 .3-.3.1-.6.1-.8 0zm-1.4-.4c-.2-.1-.2-.2 0-.3s.6-.1.8 0c.2.1.2.2 0 .3-.2.1-.6.1-.8 0zm-1.3-.5c-.2-.1-.2-.2 0-.3s.6-.1.8 0c.2.1.2.2 0 .3-.3.1-.6.1-.8 0zm-10.9-3.6c-.2-.1-.2-.2 0-.3s.6-.1.8 0c.2.1.2.2 0 .3-.2.1-.6.1-.8 0zm-1.4-.5c-.2-.1-.2-.2 0-.3s.6-.1.8 0c.2.1.2.2 0 .3s-.5.1-.8 0zm-1.3-.4c-.2-.1-.2-.2 0-.3s.6-.1.8 0c.2.1.2.2 0 .3-.3.1-.6.1-.8 0zm-1.4-.5c-.2-.1-.2-.2 0-.3s.6-.1.8 0c.2.1.2.2 0 .3-.2.1-.6.1-.8 0zm-1.3-.4c-.2-.1-.2-.2 0-.3s.6-.1.8 0c.2.1.2.2 0 .3-.3.1-.6.1-.8 0zm-1.4-.5c-.2-.1-.2-.2 0-.3s.6-.1.8 0c.2.1.2.2 0 .3-.2.1-.6.1-.8 0zm-1.3-.4c-.2-.1-.2-.2 0-.3s.6-.1.8 0c.2.1.2.2 0 .3h-.8zm-1.4-.5c-.2-.1-.2-.2 0-.3s.6-.1.8 0c.2.1.2.2 0 .3-.2.1-.6.1-.8 0zm-1.4-.4c-.2-.1-.2-.2 0-.3s.6-.1.8 0c.2.1.2.2 0 .3h-.8zm-1.3-.5c-.2-.1-.2-.2 0-.3s.6-.1.8 0c.2.1.2.2 0 .3-.3.1-.6.1-.8 0zm-1.4-.4c-.2-.1-.2-.2 0-.3s.6-.1.8 0c.2.1.2.2 0 .3h-.8zm-1.3-.5c-.2-.1-.2-.2 0-.3s.6-.1.8 0c.2.1.2.2 0 .3-.3.1-.6.1-.8 0zm-1.4-.4c-.2-.1-.2-.2 0-.3s.6-.1.8 0c.2.1.2.2 0 .3h-.8zm-1.3-.5c-.2-.1-.2-.2 0-.3s.6-.1.8 0c.2.1.2.2 0 .3-.3.1-.6.1-.8 0zm-1.4-.5c-.2-.1-.2-.2 0-.3s.6-.1.8 0c.2.1.2.2 0 .3-.2.1-.6.1-.8 0zm-1.4-.4c-.2-.1-.2-.2 0-.3s.6-.1.8 0c.2.1.2.2 0 .3s-.5.1-.8 0zm-1.3-.5c-.2-.1-.2-.2 0-.3s.6-.1.8 0c.2.1.2.2 0 .3-.3.1-.6.1-.8 0zm59.7 20.9c-.2-.1-.2-.2 0-.3s.6-.1.8 0c.2.1.2.2 0 .3-.2.1-.6.1-.8 0zm-1.4-.4c-.2-.1-.2-.2 0-.3s.6-.1.8 0c.2.1.2.2 0 .3h-.8zm-1.3-.5c-.2-.1-.2-.2 0-.3s.6-.1.8 0c.2.1.2.2 0 .3-.3.1-.6.1-.8 0zm-1.4-.4c-.2-.1-.2-.2 0-.3s.6-.1.8 0c.2.1.2.2 0 .3h-.8zm-1.3-.5c-.2-.1-.2-.2 0-.3s.6-.1.8 0c.2.1.2.2 0 .3-.3.1-.6.1-.8 0zm-1.4-.4c-.2-.1-.2-.2 0-.3s.6-.1.8 0c.2.1.2.2 0 .3h-.8zm-1.3-.5c-.2-.1-.2-.2 0-.3s.6-.1.8 0c.2.1.2.2 0 .3-.3.1-.6.1-.8 0zm-1.4-.5c-.2-.1-.2-.2 0-.3s.6-.1.8 0c.2.1.2.2 0 .3-.2.1-.6.1-.8 0zm-1.4-.4c-.2-.1-.2-.2 0-.3s.6-.1.8 0c.2.1.2.2 0 .3s-.5.1-.8 0z"/><ellipse class="st12" cx="321.3" cy="438.6" rx=".5" ry=".2"/><path class="st12" d="M319.5 438.3c-.2-.1-.2-.2 0-.3s.6-.1.8 0c.2.1.2.2 0 .3-.2.1-.6.1-.8 0zm-1.3-.5c-.2-.1-.2-.2 0-.3s.6-.1.8 0c.2.1.2.2 0 .3-.3.1-.6.1-.8 0zm-1.4-.4c-.2-.1-.2-.2 0-.3s.6-.1.8 0c.2.1.2.2 0 .3h-.8zm-1.3-.5c-.2-.1-.2-.2 0-.3s.6-.1.8 0c.2.1.2.2 0 .3-.3.1-.6.1-.8 0zm-1.4-.4c-.2-.1-.2-.2 0-.3s.6-.1.8 0c.2.1.2.2 0 .3h-.8zm-1.4-.5c-.2-.1-.2-.2 0-.3s.6-.1.8 0c.2.1.2.2 0 .3s-.5.1-.8 0zm-1.3-.4c-.2-.1-.2-.2 0-.3s.6-.1.8 0c.2.1.2.2 0 .3h-.8zm-1.4-.5c-.2-.1-.2-.2 0-.3s.6-.1.8 0c.2.1.2.2 0 .3-.2.1-.6.1-.8 0zm-1.3-.5c-.2-.1-.2-.2 0-.3s.6-.1.8 0c.2.1.2.2 0 .3-.3.1-.6.1-.8 0zm-1.4-.4c-.2-.1-.2-.2 0-.3s.6-.1.8 0c.2.1.2.2 0 .3-.2.1-.6.1-.8 0zm-1.3-.5c-.2-.1-.2-.2 0-.3s.6-.1.8 0c.2.1.2.2 0 .3-.3.1-.6.1-.8 0zm-6.8-2.2c-.2-.1-.2-.2 0-.3s.6-.1.8 0c.2.1.2.2 0 .3h-.8zm-1.4-.5c-.2-.1-.2-.2 0-.3s.6-.1.8 0c.2.1.2.2 0 .3-.2.1-.6.1-.8 0zm-2.7-.9c-.2-.1-.2-.2 0-.3s.6-.1.8 0c.2.1.2.2 0 .3-.2.1-.6.1-.8 0zm-1.4-.4c-.2-.1-.2-.2 0-.3s.6-.1.8 0c.2.1.2.2 0 .3h-.8zm-1.3-.5c-.2-.1-.2-.2 0-.3s.6-.1.8 0c.2.1.2.2 0 .3-.3.1-.6.1-.8 0zm-1.4-.5c-.2-.1-.2-.2 0-.3s.6-.1.8 0c.2.1.2.2 0 .3-.2.1-.6.1-.8 0zm-1.3-.4c-.2-.1-.2-.2 0-.3s.6-.1.8 0c.2.1.2.2 0 .3-.3.1-.6.1-.8 0zm-1.4-.5c-.2-.1-.2-.2 0-.3s.6-.1.8 0c.2.1.2.2 0 .3-.2.1-.6.1-.8 0zm-1.3-.4c-.2-.1-.2-.2 0-.3s.6-.1.8 0c.2.1.2.2 0 .3-.3.1-.6.1-.8 0zm-1.4-.5c-.2-.1-.2-.2 0-.3s.6-.1.8 0c.2.1.2.2 0 .3-.2.1-.6.1-.8 0zm-1.4-.4c-.2-.1-.2-.2 0-.3s.6-.1.8 0c.2.1.2.2 0 .3h-.8zm-1.3-.5c-.2-.1-.2-.2 0-.3s.6-.1.8 0c.2.1.2.2 0 .3-.3.1-.6.1-.8 0zm-1.4-.4c-.2-.1-.2-.2 0-.3s.6-.1.8 0c.2.1.2.2 0 .3h-.8zm-1.3-.5c-.2-.1-.2-.2 0-.3s.6-.1.8 0c.2.1.2.2 0 .3-.3.1-.6.1-.8 0zm-1.4-.4c-.2-.1-.2-.2 0-.3s.6-.1.8 0c.2.1.2.2 0 .3h-.8zm-1.3-.5c-.2-.1-.2-.2 0-.3s.6-.1.8 0c.2.1.2.2 0 .3-.3.1-.6.1-.8 0zm-1.4-.4c-.2-.1-.2-.2 0-.3s.6-.1.8 0c.2.1.2.2 0 .3h-.8zm-1.4-.5c-.2-.1-.2-.2 0-.3s.6-.1.8 0c.2.1.2.2 0 .3-.2.1-.5.1-.8 0zm-1.3-.5c-.2-.1-.2-.2 0-.3s.6-.1.8 0c.2.1.2.2 0 .3-.3.1-.6.1-.8 0zm-1.4-.4c-.2-.1-.2-.2 0-.3s.6-.1.8 0c.2.1.2.2 0 .3-.2.1-.6.1-.8 0zm59.7 20.9c-.2-.1-.2-.2 0-.3s.6-.1.8 0c.2.1.2.2 0 .3h-.8zm-1.3-.5c-.2-.1-.2-.2 0-.3s.6-.1.8 0c.2.1.2.2 0 .3-.3.1-.6.1-.8 0zm-1.4-.4c-.2-.1-.2-.2 0-.3s.6-.1.8 0c.2.1.2.2 0 .3h-.8zm-1.3-.5c-.2-.1-.2-.2 0-.3s.6-.1.8 0c.2.1.2.2 0 .3-.3.1-.6.1-.8 0zm-1.4-.4c-.2-.1-.2-.2 0-.3s.6-.1.8 0c.2.1.2.2 0 .3h-.8zm-1.3-.5c-.2-.1-.2-.2 0-.3s.6-.1.8 0c.2.1.2.2 0 .3-.3.1-.6.1-.8 0zm-1.4-.4c-.2-.1-.2-.2 0-.3s.6-.1.8 0c.2.1.2.2 0 .3h-.8zm-1.4-.5c-.2-.1-.2-.2 0-.3s.6-.1.8 0c.2.1.2.2 0 .3-.2.1-.5.1-.8 0z"/><ellipse class="st12" cx="321.3" cy="439.5" rx=".5" ry=".2"/><path class="st12" d="M319.5 439.2c-.2-.1-.2-.2 0-.3s.6-.1.8 0c.2.1.2.2 0 .3-.2.1-.6.1-.8 0zm-1.3-.5c-.2-.1-.2-.2 0-.3s.6-.1.8 0c.2.1.2.2 0 .3-.3.1-.6.1-.8 0zm-1.4-.4c-.2-.1-.2-.2 0-.3s.6-.1.8 0c.2.1.2.2 0 .3-.2.1-.6.1-.8 0zm-1.3-.5c-.2-.1-.2-.2 0-.3s.6-.1.8 0c.2.1.2.2 0 .3-.3.1-.6.1-.8 0zm-1.4-.4c-.2-.1-.2-.2 0-.3s.6-.1.8 0c.2.1.2.2 0 .3h-.8zm-1.4-.5c-.2-.1-.2-.2 0-.3s.6-.1.8 0c.2.1.2.2 0 .3s-.5.1-.8 0zm-1.3-.4c-.2-.1-.2-.2 0-.3s.6-.1.8 0c.2.1.2.2 0 .3h-.8zm-1.4-.5c-.2-.1-.2-.2 0-.3s.6-.1.8 0c.2.1.2.2 0 .3-.2.1-.6.1-.8 0zm-1.3-.4c-.2-.1-.2-.2 0-.3s.6-.1.8 0c.2.1.2.2 0 .3h-.8zm-1.4-.5c-.2-.1-.2-.2 0-.3s.6-.1.8 0c.2.1.2.2 0 .3-.2.1-.6.1-.8 0zm-1.3-.5c-.2-.1-.2-.2 0-.3s.6-.1.8 0c.2.1.2.2 0 .3-.3.1-.6.1-.8 0zm-1.4-.4c-.2-.1-.2-.2 0-.3s.6-.1.8 0c.2.1.2.2 0 .3-.2.1-.6.1-.8 0zm-5.4-1.8c-.2-.1-.2-.2 0-.3s.6-.1.8 0c.2.1.2.2 0 .3h-.8zm-1.4-.5c-.2-.1-.2-.2 0-.3s.6-.1.8 0c.2.1.2.2 0 .3-.2.1-.6.1-.8 0zm-1.3-.4c-.2-.1-.2-.2 0-.3s.6-.1.8 0c.2.1.2.2 0 .3h-.8zm-1.4-.5c-.2-.1-.2-.2 0-.3s.6-.1.8 0c.2.1.2.2 0 .3-.2.1-.6.1-.8 0zm-1.4-.4c-.2-.1-.2-.2 0-.3s.6-.1.8 0c.2.1.2.2 0 .3h-.8zm-1.3-.5c-.2-.1-.2-.2 0-.3s.6-.1.8 0c.2.1.2.2 0 .3-.3.1-.6.1-.8 0zm-1.4-.4c-.2-.1-.2-.2 0-.3s.6-.1.8 0c.2.1.2.2 0 .3h-.8zm-1.3-.5c-.2-.1-.2-.2 0-.3s.6-.1.8 0c.2.1.2.2 0 .3-.3.1-.6.1-.8 0zm-1.4-.5c-.2-.1-.2-.2 0-.3s.6-.1.8 0c.2.1.2.2 0 .3-.2.1-.6.1-.8 0zm-1.3-.4c-.2-.1-.2-.2 0-.3s.6-.1.8 0c.2.1.2.2 0 .3-.3.1-.6.1-.8 0zm-1.4-.5c-.2-.1-.2-.2 0-.3s.6-.1.8 0c.2.1.2.2 0 .3-.2.1-.6.1-.8 0zm-1.4-.4c-.2-.1-.2-.2 0-.3s.6-.1.8 0c.2.1.2.2 0 .3s-.5.1-.8 0zm-1.3-.5c-.2-.1-.2-.2 0-.3s.6-.1.8 0c.2.1.2.2 0 .3-.3.1-.6.1-.8 0zm-1.4-.4c-.2-.1-.2-.2 0-.3s.6-.1.8 0c.2.1.2.2 0 .3h-.8zm-1.3-.5c-.2-.1-.2-.2 0-.3s.6-.1.8 0c.2.1.2.2 0 .3-.3.1-.6.1-.8 0zm-1.4-.4c-.2-.1-.2-.2 0-.3s.6-.1.8 0c.2.1.2.2 0 .3h-.8zm-1.3-.5c-.2-.1-.2-.2 0-.3s.6-.1.8 0c.2.1.2.2 0 .3-.3.1-.6.1-.8 0zm-1.4-.4c-.2-.1-.2-.2 0-.3s.6-.1.8 0c.2.1.2.2 0 .3h-.8zm-1.4-.5c-.2-.1-.2-.2 0-.3s.6-.1.8 0c.2.1.2.2 0 .3s-.5.1-.8 0zm-1.3-.4c-.2-.1-.2-.2 0-.3s.6-.1.8 0c.2.1.2.2 0 .3h-.8zm-1.4-.5c-.2-.1-.2-.2 0-.3s.6-.1.8 0c.2.1.2.2 0 .3-.2.1-.6.1-.8 0zm58.4 20.4c-.2-.1-.2-.2 0-.3s.6-.1.8 0c.2.1.2.2 0 .3-.3.1-.6.1-.8 0zm-1.4-.4c-.2-.1-.2-.2 0-.3s.6-.1.8 0c.2.1.2.2 0 .3h-.8zm-1.3-.5c-.2-.1-.2-.2 0-.3s.6-.1.8 0c.2.1.2.2 0 .3-.3.1-.6.1-.8 0zm-1.4-.4c-.2-.1-.2-.2 0-.3s.6-.1.8 0c.2.1.2.2 0 .3h-.8zm-2.7-.9c-.2-.1-.2-.2 0-.3s.6-.1.8 0c.2.1.2.2 0 .3h-.8zm-1.4-.5c-.2-.1-.2-.2 0-.3s.6-.1.8 0c.2.1.2.2 0 .3s-.5.1-.8 0zm-1.3-.4c-.2-.1-.2-.2 0-.3s.6-.1.8 0c.2.1.2.2 0 .3h-.8zm-1.4-.5c-.2-.1-.2-.2 0-.3s.6-.1.8 0c.2.1.2.2 0 .3-.2.1-.6.1-.8 0zm-1.3-.5c-.2-.1-.2-.2 0-.3s.6-.1.8 0c.2.1.2.2 0 .3-.3.1-.6.1-.8 0zm-1.4-.4c-.2-.1-.2-.2 0-.3s.6-.1.8 0c.2.1.2.2 0 .3-.2.1-.6.1-.8 0zm-1.3-.5c-.2-.1-.2-.2 0-.3s.6-.1.8 0c.2.1.2.2 0 .3-.3.1-.6.1-.8 0zm-1.4-.4c-.2-.1-.2-.2 0-.3s.6-.1.8 0c.2.1.2.2 0 .3-.2.1-.6.1-.8 0zm-1.4-.5c-.2-.1-.2-.2 0-.3s.6-.1.8 0c.2.1.2.2 0 .3-.2.1-.5.1-.8 0zm-1.3-.4c-.2-.1-.2-.2 0-.3s.6-.1.8 0c.2.1.2.2 0 .3h-.8zm-1.4-.5c-.2-.1-.2-.2 0-.3s.6-.1.8 0c.2.1.2.2 0 .3-.2.1-.6.1-.8 0zm-1.3-.4c-.2-.1-.2-.2 0-.3s.6-.1.8 0c.2.1.2.2 0 .3h-.8zm-1.4-.5c-.2-.1-.2-.2 0-.3s.6-.1.8 0c.2.1.2.2 0 .3-.2.1-.6.1-.8 0zm-1.3-.4c-.2-.1-.2-.2 0-.3s.6-.1.8 0c.2.1.2.2 0 .3h-.8zm-2.8-1c-.2-.1-.2-.2 0-.3s.6-.1.8 0c.2.1.2.2 0 .3-.2.1-.5.1-.8 0zm-1.3-.4c-.2-.1-.2-.2 0-.3s.6-.1.8 0c.2.1.2.2 0 .3-.3.1-.6.1-.8 0zm-4.1-1.4c-.2-.1-.2-.2 0-.3s.6-.1.8 0c.2.1.2.2 0 .3-.2.1-.6.1-.8 0zm-1.3-.4c-.2-.1-.2-.2 0-.3s.6-.1.8 0c.2.1.2.2 0 .3h-.8zm-1.4-.5c-.2-.1-.2-.2 0-.3s.6-.1.8 0c.2.1.2.2 0 .3-.2.1-.6.1-.8 0zm-1.4-.4c-.2-.1-.2-.2 0-.3s.6-.1.8 0c.2.1.2.2 0 .3h-.8zm-1.3-.5c-.2-.1-.2-.2 0-.3s.6-.1.8 0c.2.1.2.2 0 .3-.3.1-.6.1-.8 0zm-1.4-.4c-.2-.1-.2-.2 0-.3s.6-.1.8 0c.2.1.2.2 0 .3h-.8zm-1.3-.5c-.2-.1-.2-.2 0-.3s.6-.1.8 0c.2.1.2.2 0 .3-.3.1-.6.1-.8 0zm-1.4-.4c-.2-.1-.2-.2 0-.3s.6-.1.8 0c.2.1.2.2 0 .3h-.8zm-1.3-.5c-.2-.1-.2-.2 0-.3s.6-.1.8 0c.2.1.2.2 0 .3-.3.1-.6.1-.8 0zm-1.4-.5c-.2-.1-.2-.2 0-.3s.6-.1.8 0c.2.1.2.2 0 .3-.2.1-.6.1-.8 0zm-1.4-.4c-.2-.1-.2-.2 0-.3s.6-.1.8 0c.2.1.2.2 0 .3-.2.1-.5.1-.8 0zm-1.3-.5c-.2-.1-.2-.2 0-.3s.6-.1.8 0c.2.1.2.2 0 .3-.3.1-.6.1-.8 0zm-1.4-.4c-.2-.1-.2-.2 0-.3s.6-.1.8 0c.2.1.2.2 0 .3-.2.1-.6.1-.8 0zm-1.3-.5c-.2-.1-.2-.2 0-.3s.6-.1.8 0c.2.1.2.2 0 .3-.3.1-.6.1-.8 0zm-1.4-.4c-.2-.1-.2-.2 0-.3s.6-.1.8 0c.2.1.2.2 0 .3h-.8zm-1.3-.5c-.2-.1-.2-.2 0-.3s.6-.1.8 0c.2.1.2.2 0 .3-.3.1-.6.1-.8 0zm-1.4-.4c-.2-.1-.2-.2 0-.3s.6-.1.8 0c.2.1.2.2 0 .3h-.8zm-1.4-.5c-.2-.1-.2-.2 0-.3s.6-.1.8 0c.2.1.2.2 0 .3-.2.1-.5.1-.8 0zm-2.7-.9c-.2-.1-.2-.2 0-.3s.6-.1.8 0c.2.1.2.2 0 .3-.2.1-.6.1-.8 0zm-1.3-.4c-.2-.1-.2-.2 0-.3s.6-.1.8 0c.2.1.2.2 0 .3h-.8zm-1.4-.5c-.2-.1-.2-.2 0-.3s.6-.1.8 0c.2.1.2.2 0 .3-.2.1-.6.1-.8 0zm52.9 18.6c-.2-.1-.2-.2 0-.3s.6-.1.8 0c.2.1.2.2 0 .3s-.5.1-.8 0zm-1.3-.4c-.2-.1-.2-.2 0-.3s.6-.1.8 0c.2.1.2.2 0 .3h-.8zm-1.4-.5c-.2-.1-.2-.2 0-.3s.6-.1.8 0c.2.1.2.2 0 .3-.2.1-.6.1-.8 0zm-1.3-.4c-.2-.1-.2-.2 0-.3s.6-.1.8 0c.2.1.2.2 0 .3h-.8zm-1.4-.5c-.2-.1-.2-.2 0-.3s.6-.1.8 0c.2.1.2.2 0 .3-.2.1-.6.1-.8 0zm-1.3-.5c-.2-.1-.2-.2 0-.3s.6-.1.8 0c.2.1.2.2 0 .3-.3.1-.6.1-.8 0zm-1.4-.4c-.2-.1-.2-.2 0-.3s.6-.1.8 0c.2.1.2.2 0 .3-.2.1-.6.1-.8 0zm-1.4-.5c-.2-.1-.2-.2 0-.3s.6-.1.8 0c.2.1.2.2 0 .3s-.5.1-.8 0zm-1.3-.4c-.2-.1-.2-.2 0-.3s.6-.1.8 0c.2.1.2.2 0 .3-.3.1-.6.1-.8 0zm-1.4-.5c-.2-.1-.2-.2 0-.3s.6-.1.8 0c.2.1.2.2 0 .3-.2.1-.6.1-.8 0zm-1.3-.4c-.2-.1-.2-.2 0-.3s.6-.1.8 0c.2.1.2.2 0 .3h-.8zm-1.4-.5c-.2-.1-.2-.2 0-.3s.6-.1.8 0c.2.1.2.2 0 .3-.2.1-.6.1-.8 0zm-1.3-.4c-.2-.1-.2-.2 0-.3s.6-.1.8 0c.2.1.2.2 0 .3h-.8zm-6.8-2.3c-.2-.1-.2-.2 0-.3s.6-.1.8 0c.2.1.2.2 0 .3-.3.1-.6.1-.8 0zm-1.4-.5c-.2-.1-.2-.2 0-.3s.6-.1.8 0c.2.1.2.2 0 .3-.2.1-.6.1-.8 0zm-1.3-.4c-.2-.1-.2-.2 0-.3s.6-.1.8 0c.2.1.2.2 0 .3-.3.1-.6.1-.8 0zm-1.4-.5c-.2-.1-.2-.2 0-.3s.6-.1.8 0c.2.1.2.2 0 .3-.2.1-.6.1-.8 0zm-1.4-.4c-.2-.1-.2-.2 0-.3s.6-.1.8 0c.2.1.2.2 0 .3h-.8zm-1.3-.5c-.2-.1-.2-.2 0-.3s.6-.1.8 0c.2.1.2.2 0 .3-.3.1-.6.1-.8 0zm-1.4-.4c-.2-.1-.2-.2 0-.3s.6-.1.8 0c.2.1.2.2 0 .3h-.8zm-1.3-.5c-.2-.1-.2-.2 0-.3s.6-.1.8 0c.2.1.2.2 0 .3-.3.1-.6.1-.8 0zm-1.4-.4c-.2-.1-.2-.2 0-.3s.6-.1.8 0c.2.1.2.2 0 .3h-.8zm-1.3-.5c-.2-.1-.2-.2 0-.3s.6-.1.8 0c.2.1.2.2 0 .3-.3.1-.6.1-.8 0zm-1.4-.4c-.2-.1-.2-.2 0-.3s.6-.1.8 0c.2.1.2.2 0 .3h-.8zm-1.4-.5c-.2-.1-.2-.2 0-.3s.6-.1.8 0c.2.1.2.2 0 .3s-.5.1-.8 0zm-1.3-.5c-.2-.1-.2-.2 0-.3s.6-.1.8 0c.2.1.2.2 0 .3-.3.1-.6.1-.8 0zm-1.4-.4c-.2-.1-.2-.2 0-.3s.6-.1.8 0c.2.1.2.2 0 .3-.2.1-.6.1-.8 0zm-1.3-.5c-.2-.1-.2-.2 0-.3s.6-.1.8 0c.2.1.2.2 0 .3-.3.1-.6.1-.8 0zm-1.4-.4c-.2-.1-.2-.2 0-.3s.6-.1.8 0c.2.1.2.2 0 .3-.2.1-.6.1-.8 0zm-1.3-.5c-.2-.1-.2-.2 0-.3s.6-.1.8 0c.2.1.2.2 0 .3-.3.1-.6.1-.8 0zm-1.4-.4c-.2-.1-.2-.2 0-.3s.6-.1.8 0c.2.1.2.2 0 .3h-.8zm-1.4-.5c-.2-.1-.2-.2 0-.3s.6-.1.8 0c.2.1.2.2 0 .3s-.5.1-.8 0zm-1.3-.4c-.2-.1-.2-.2 0-.3s.6-.1.8 0c.2.1.2.2 0 .3h-.8zm-1.4-.5c-.2-.1-.2-.2 0-.3s.6-.1.8 0c.2.1.2.2 0 .3-.2.1-.6.1-.8 0zm-2.7-.9c-.2-.1-.2-.2 0-.3s.6-.1.8 0c.2.1.2.2 0 .3-.2.1-.6.1-.8 0zm51.6 18.2c-.2-.1-.2-.2 0-.3s.6-.1.8 0c.2.1.2.2 0 .3h-.8zm-1.4-.5c-.2-.1-.2-.2 0-.3s.6-.1.8 0c.2.1.2.2 0 .3-.2.1-.6.1-.8 0zm-1.3-.4c-.2-.1-.2-.2 0-.3s.6-.1.8 0c.2.1.2.2 0 .3h-.8zm-1.4-.5c-.2-.1-.2-.2 0-.3s.6-.1.8 0c.2.1.2.2 0 .3-.2.1-.6.1-.8 0zm-1.3-.4c-.2-.1-.2-.2 0-.3s.6-.1.8 0c.2.1.2.2 0 .3h-.8zm-1.4-.5c-.2-.1-.2-.2 0-.3s.6-.1.8 0c.2.1.2.2 0 .3-.2.1-.6.1-.8 0zm-1.4-.5c-.2-.1-.2-.2 0-.3s.6-.1.8 0c.2.1.2.2 0 .3-.2.1-.5.1-.8 0zm-1.3-.4c-.2-.1-.2-.2 0-.3s.6-.1.8 0c.2.1.2.2 0 .3-.3.1-.6.1-.8 0zm-1.4-.5c-.2-.1-.2-.2 0-.3s.6-.1.8 0c.2.1.2.2 0 .3-.2.1-.6.1-.8 0zm-1.3-.4c-.2-.1-.2-.2 0-.3s.6-.1.8 0c.2.1.2.2 0 .3-.3.1-.6.1-.8 0zm-1.4-.5c-.2-.1-.2-.2 0-.3s.6-.1.8 0c.2.1.2.2 0 .3-.2.1-.6.1-.8 0zm-8.1-2.7c-.2-.1-.2-.2 0-.3s.6-.1.8 0c.2.1.2.2 0 .3-.3.1-.6.1-.8 0zm-1.4-.5c-.2-.1-.2-.2 0-.3s.6-.1.8 0c.2.1.2.2 0 .3-.2.1-.6.1-.8 0zm-1.3-.4c-.2-.1-.2-.2 0-.3s.6-.1.8 0c.2.1.2.2 0 .3-.3.1-.6.1-.8 0zm-1.4-.5c-.2-.1-.2-.2 0-.3s.6-.1.8 0c.2.1.2.2 0 .3-.2.1-.6.1-.8 0zm-1.4-.4c-.2-.1-.2-.2 0-.3s.6-.1.8 0c.2.1.2.2 0 .3-.2.1-.5.1-.8 0zm-1.3-.5c-.2-.1-.2-.2 0-.3s.6-.1.8 0c.2.1.2.2 0 .3-.3.1-.6.1-.8 0zm-1.4-.4c-.2-.1-.2-.2 0-.3s.6-.1.8 0c.2.1.2.2 0 .3h-.8zm-1.3-.5c-.2-.1-.2-.2 0-.3s.6-.1.8 0c.2.1.2.2 0 .3-.3.1-.6.1-.8 0zm-1.4-.4c-.2-.1-.2-.2 0-.3s.6-.1.8 0c.2.1.2.2 0 .3h-.8zm-1.3-.5c-.2-.1-.2-.2 0-.3s.6-.1.8 0c.2.1.2.2 0 .3-.3.1-.6.1-.8 0zm-1.4-.4c-.2-.1-.2-.2 0-.3s.6-.1.8 0c.2.1.2.2 0 .3h-.8zm-1.4-.5c-.2-.1-.2-.2 0-.3s.6-.1.8 0c.2.1.2.2 0 .3-.2.1-.5.1-.8 0zm-1.3-.4c-.2-.1-.2-.2 0-.3s.6-.1.8 0c.2.1.2.2 0 .3h-.8zm-1.4-.5c-.2-.1-.2-.2 0-.3s.6-.1.8 0c.2.1.2.2 0 .3-.2.1-.6.1-.8 0zm-1.3-.5c-.2-.1-.2-.2 0-.3s.6-.1.8 0c.2.1.2.2 0 .3-.3.1-.6.1-.8 0zm-1.4-.4c-.2-.1-.2-.2 0-.3s.6-.1.8 0c.2.1.2.2 0 .3-.2.1-.6.1-.8 0zm-1.3-.5c-.2-.1-.2-.2 0-.3s.6-.1.8 0c.2.1.2.2 0 .3-.3.1-.6.1-.8 0zm-1.4-.4c-.2-.1-.2-.2 0-.3s.6-.1.8 0c.2.1.2.2 0 .3-.2.1-.6.1-.8 0zm-1.4-.5c-.2-.1-.2-.2 0-.3s.6-.1.8 0c.2.1.2.2 0 .3s-.5.1-.8 0zm-1.3-.4c-.2-.1-.2-.2 0-.3s.6-.1.8 0c.2.1.2.2 0 .3h-.8zm-1.4-.5c-.2-.1-.2-.2 0-.3s.6-.1.8 0c.2.1.2.2 0 .3-.2.1-.6.1-.8 0zm-1.3-.4c-.2-.1-.2-.2 0-.3s.6-.1.8 0c.2.1.2.2 0 .3h-.8zm-1.4-.5c-.2-.1-.2-.2 0-.3s.6-.1.8 0c.2.1.2.2 0 .3-.2.1-.6.1-.8 0zm-1.3-.4c-.2-.1-.2-.2 0-.3s.6-.1.8 0c.2.1.2.2 0 .3h-.8zm51.5 18.1c-.2-.1-.2-.2 0-.3s.6-.1.8 0c.2.1.2.2 0 .3-.2.1-.6.1-.8 0zm-1.3-.4c-.2-.1-.2-.2 0-.3s.6-.1.8 0c.2.1.2.2 0 .3h-.8zm-1.4-.5c-.2-.1-.2-.2 0-.3s.6-.1.8 0c.2.1.2.2 0 .3-.2.1-.6.1-.8 0zm-1.3-.4c-.2-.1-.2-.2 0-.3s.6-.1.8 0c.2.1.2.2 0 .3h-.8zm-1.4-.5c-.2-.1-.2-.2 0-.3s.6-.1.8 0c.2.1.2.2 0 .3-.2.1-.6.1-.8 0zm-1.4-.4c-.2-.1-.2-.2 0-.3s.6-.1.8 0c.2.1.2.2 0 .3h-.8zm-1.3-.5c-.2-.1-.2-.2 0-.3s.6-.1.8 0c.2.1.2.2 0 .3-.3.1-.6.1-.8 0zm-1.4-.5c-.2-.1-.2-.2 0-.3s.6-.1.8 0c.2.1.2.2 0 .3-.2.1-.6.1-.8 0zm-1.3-.4c-.2-.1-.2-.2 0-.3s.6-.1.8 0c.2.1.2.2 0 .3-.3.1-.6.1-.8 0zm-1.4-.5c-.2-.1-.2-.2 0-.3s.6-.1.8 0c.2.1.2.2 0 .3-.2.1-.6.1-.8 0zm-1.3-.4c-.2-.1-.2-.2 0-.3s.6-.1.8 0c.2.1.2.2 0 .3-.3.1-.6.1-.8 0zm-8.2-2.7c-.2-.1-.2-.2 0-.3s.6-.1.8 0c.2.1.2.2 0 .3h-.8zm-1.3-.5c-.2-.1-.2-.2 0-.3s.6-.1.8 0c.2.1.2.2 0 .3-.3.1-.6.1-.8 0zm-1.4-.5c-.2-.1-.2-.2 0-.3s.6-.1.8 0c.2.1.2.2 0 .3-.2.1-.6.1-.8 0zm-1.4-.4c-.2-.1-.2-.2 0-.3s.6-.1.8 0c.2.1.2.2 0 .3s-.5.1-.8 0zm-1.3-.5c-.2-.1-.2-.2 0-.3s.6-.1.8 0c.2.1.2.2 0 .3-.3.1-.6.1-.8 0zm-1.4-.4c-.2-.1-.2-.2 0-.3s.6-.1.8 0c.2.1.2.2 0 .3-.2.1-.6.1-.8 0zm-1.3-.5c-.2-.1-.2-.2 0-.3s.6-.1.8 0c.2.1.2.2 0 .3-.3.1-.6.1-.8 0zm-1.4-.4c-.2-.1-.2-.2 0-.3s.6-.1.8 0c.2.1.2.2 0 .3h-.8zm-1.3-.5c-.2-.1-.2-.2 0-.3s.6-.1.8 0c.2.1.2.2 0 .3-.3.1-.6.1-.8 0zm-1.4-.4c-.2-.1-.2-.2 0-.3s.6-.1.8 0c.2.1.2.2 0 .3h-.8zm-1.4-.5c-.2-.1-.2-.2 0-.3s.6-.1.8 0c.2.1.2.2 0 .3s-.5.1-.8 0zm-1.3-.4c-.2-.1-.2-.2 0-.3s.6-.1.8 0c.2.1.2.2 0 .3h-.8zm-1.4-.5c-.2-.1-.2-.2 0-.3s.6-.1.8 0c.2.1.2.2 0 .3-.2.1-.6.1-.8 0zm-1.3-.4c-.2-.1-.2-.2 0-.3s.6-.1.8 0c.2.1.2.2 0 .3h-.8zm-1.4-.5c-.2-.1-.2-.2 0-.3s.6-.1.8 0c.2.1.2.2 0 .3-.2.1-.6.1-.8 0zm-1.3-.5c-.2-.1-.2-.2 0-.3s.6-.1.8 0c.2.1.2.2 0 .3-.3.1-.6.1-.8 0zm-1.4-.4c-.2-.1-.2-.2 0-.3s.6-.1.8 0c.2.1.2.2 0 .3-.2.1-.6.1-.8 0zm-1.4-.5c-.2-.1-.2-.2 0-.3s.6-.1.8 0c.2.1.2.2 0 .3-.2.1-.5.1-.8 0zm-1.3-.4c-.2-.1-.2-.2 0-.3s.6-.1.8 0c.2.1.2.2 0 .3-.3.1-.6.1-.8 0zm-1.4-.5c-.2-.1-.2-.2 0-.3s.6-.1.8 0c.2.1.2.2 0 .3-.2.1-.6.1-.8 0zm-1.3-.4c-.2-.1-.2-.2 0-.3s.6-.1.8 0c.2.1.2.2 0 .3h-.8zm-1.4-.5c-.2-.1-.2-.2 0-.3s.6-.1.8 0c.2.1.2.2 0 .3-.2.1-.6.1-.8 0zm-1.3-.4c-.2-.1-.2-.2 0-.3s.6-.1.8 0c.2.1.2.2 0 .3h-.8zm-1.4-.5c-.2-.1-.2-.2 0-.3s.6-.1.8 0c.2.1.2.2 0 .3-.2.1-.6.1-.8 0zm51.6 18.2c-.2-.1-.2-.2 0-.3s.6-.1.8 0c.2.1.2.2 0 .3h-.8zm-1.4-.5c-.2-.1-.2-.2 0-.3s.6-.1.8 0c.2.1.2.2 0 .3-.2.1-.6.1-.8 0zm-1.3-.4c-.2-.1-.2-.2 0-.3s.6-.1.8 0c.2.1.2.2 0 .3h-.8zm-1.4-.5c-.2-.1-.2-.2 0-.3s.6-.1.8 0c.2.1.2.2 0 .3-.2.1-.6.1-.8 0zm-1.4-.4c-.2-.1-.2-.2 0-.3s.6-.1.8 0c.2.1.2.2 0 .3h-.8zm-1.3-.5c-.2-.1-.2-.2 0-.3s.6-.1.8 0c.2.1.2.2 0 .3-.3.1-.6.1-.8 0zm-1.4-.4c-.2-.1-.2-.2 0-.3s.6-.1.8 0c.2.1.2.2 0 .3h-.8zm-1.3-.5c-.2-.1-.2-.2 0-.3s.6-.1.8 0c.2.1.2.2 0 .3-.3.1-.6.1-.8 0zm-1.4-.5c-.2-.1-.2-.2 0-.3s.6-.1.8 0c.2.1.2.2 0 .3-.2.1-.6.1-.8 0zm-1.3-.4c-.2-.1-.2-.2 0-.3s.6-.1.8 0c.2.1.2.2 0 .3-.3.1-.6.1-.8 0zm-1.4-.5c-.2-.1-.2-.2 0-.3s.6-.1.8 0c.2.1.2.2 0 .3-.2.1-.6.1-.8 0zm-9.5-3.1c-.2-.1-.2-.2 0-.3s.6-.1.8 0c.2.1.2.2 0 .3h-.8zm-1.4-.5c-.2-.1-.2-.2 0-.3s.6-.1.8 0c.2.1.2.2 0 .3-.2.1-.5.1-.8 0zm-1.3-.5c-.2-.1-.2-.2 0-.3s.6-.1.8 0c.2.1.2.2 0 .3-.3.1-.6.1-.8 0zm-1.4-.4c-.2-.1-.2-.2 0-.3s.6-.1.8 0c.2.1.2.2 0 .3-.2.1-.6.1-.8 0zm-1.3-.5c-.2-.1-.2-.2 0-.3s.6-.1.8 0c.2.1.2.2 0 .3-.3.1-.6.1-.8 0zm-1.4-.4c-.2-.1-.2-.2 0-.3s.6-.1.8 0c.2.1.2.2 0 .3-.2.1-.6.1-.8 0zm-1.3-.5c-.2-.1-.2-.2 0-.3s.6-.1.8 0c.2.1.2.2 0 .3-.3.1-.6.1-.8 0zm-1.4-.4c-.2-.1-.2-.2 0-.3s.6-.1.8 0c.2.1.2.2 0 .3h-.8zm-1.4-.5c-.2-.1-.2-.2 0-.3s.6-.1.8 0c.2.1.2.2 0 .3s-.5.1-.8 0zm-1.3-.4c-.2-.1-.2-.2 0-.3s.6-.1.8 0c.2.1.2.2 0 .3h-.8zm-1.4-.5c-.2-.1-.2-.2 0-.3s.6-.1.8 0c.2.1.2.2 0 .3-.2.1-.6.1-.8 0zm-1.3-.4c-.2-.1-.2-.2 0-.3s.6-.1.8 0c.2.1.2.2 0 .3h-.8zm-1.4-.5c-.2-.1-.2-.2 0-.3s.6-.1.8 0c.2.1.2.2 0 .3-.2.1-.6.1-.8 0zm-1.3-.4c-.2-.1-.2-.2 0-.3s.6-.1.8 0c.2.1.2.2 0 .3h-.8zm-1.4-.5c-.2-.1-.2-.2 0-.3s.6-.1.8 0c.2.1.2.2 0 .3-.2.1-.6.1-.8 0zm-1.4-.5c-.2-.1-.2-.2 0-.3s.6-.1.8 0c.2.1.2.2 0 .3s-.5.1-.8 0zm-1.3-.4c-.2-.1-.2-.2 0-.3s.6-.1.8 0c.2.1.2.2 0 .3-.3.1-.6.1-.8 0zm-1.4-.5c-.2-.1-.2-.2 0-.3s.6-.1.8 0c.2.1.2.2 0 .3-.2.1-.6.1-.8 0zm-1.3-.4c-.2-.1-.2-.2 0-.3s.6-.1.8 0c.2.1.2.2 0 .3-.3.1-.6.1-.8 0zm-1.4-.5c-.2-.1-.2-.2 0-.3s.6-.1.8 0c.2.1.2.2 0 .3-.2.1-.6.1-.8 0zm-1.3-.4c-.2-.1-.2-.2 0-.3s.6-.1.8 0c.2.1.2.2 0 .3h-.8zm-1.4-.5c-.2-.1-.2-.2 0-.3s.6-.1.8 0c.2.1.2.2 0 .3-.2.1-.6.1-.8 0zm50.2 17.7c-.2-.1-.2-.2 0-.3s.6-.1.8 0c.2.1.2.2 0 .3-.2.1-.6.1-.8 0zm-1.3-.4c-.2-.1-.2-.2 0-.3s.6-.1.8 0c.2.1.2.2 0 .3h-.8zm-1.4-.5c-.2-.1-.2-.2 0-.3s.6-.1.8 0c.2.1.2.2 0 .3-.2.1-.6.1-.8 0zm-1.4-.4c-.2-.1-.2-.2 0-.3s.6-.1.8 0c.2.1.2.2 0 .3h-.8zm-1.3-.5c-.2-.1-.2-.2 0-.3s.6-.1.8 0c.2.1.2.2 0 .3-.3.1-.6.1-.8 0zm-1.4-.4c-.2-.1-.2-.2 0-.3s.6-.1.8 0c.2.1.2.2 0 .3h-.8zm-1.3-.5c-.2-.1-.2-.2 0-.3s.6-.1.8 0c.2.1.2.2 0 .3-.3.1-.6.1-.8 0zm-1.4-.4c-.2-.1-.2-.2 0-.3s.6-.1.8 0c.2.1.2.2 0 .3h-.8zm-1.3-.5c-.2-.1-.2-.2 0-.3s.6-.1.8 0c.2.1.2.2 0 .3-.3.1-.6.1-.8 0zm-10.9-3.6c-.2-.1-.2-.2 0-.3s.6-.1.8 0c.2.1.2.2 0 .3h-.8zm-1.4-.5c-.2-.1-.2-.2 0-.3s.6-.1.8 0c.2.1.2.2 0 .3s-.5.1-.8 0zm-1.3-.4c-.2-.1-.2-.2 0-.3s.6-.1.8 0c.2.1.2.2 0 .3h-.8zm-1.4-.5c-.2-.1-.2-.2 0-.3s.6-.1.8 0c.2.1.2.2 0 .3-.2.1-.6.1-.8 0zm-1.3-.5c-.2-.1-.2-.2 0-.3s.6-.1.8 0c.2.1.2.2 0 .3-.3.1-.6.1-.8 0zm-1.4-.4c-.2-.1-.2-.2 0-.3s.6-.1.8 0c.2.1.2.2 0 .3-.2.1-.6.1-.8 0zm-1.3-.5c-.2-.1-.2-.2 0-.3s.6-.1.8 0c.2.1.2.2 0 .3-.3.1-.6.1-.8 0zm-1.4-.4c-.2-.1-.2-.2 0-.3s.6-.1.8 0c.2.1.2.2 0 .3-.2.1-.6.1-.8 0zm-1.4-.5c-.2-.1-.2-.2 0-.3s.6-.1.8 0c.2.1.2.2 0 .3-.2.1-.5.1-.8 0zm-1.3-.4c-.2-.1-.2-.2 0-.3s.6-.1.8 0c.2.1.2.2 0 .3h-.8zm-1.4-.5c-.2-.1-.2-.2 0-.3s.6-.1.8 0c.2.1.2.2 0 .3-.2.1-.6.1-.8 0zm-1.3-.4c-.2-.1-.2-.2 0-.3s.6-.1.8 0c.2.1.2.2 0 .3h-.8zm-1.4-.5c-.2-.1-.2-.2 0-.3s.6-.1.8 0c.2.1.2.2 0 .3-.2.1-.6.1-.8 0zm-1.3-.4c-.2-.1-.2-.2 0-.3s.6-.1.8 0c.2.1.2.2 0 .3h-.8zm-1.4-.5c-.2-.1-.2-.2 0-.3s.6-.1.8 0c.2.1.2.2 0 .3-.2.1-.6.1-.8 0zm-1.4-.4c-.2-.1-.2-.2 0-.3s.6-.1.8 0c.2.1.2.2 0 .3h-.8zm-1.3-.5c-.2-.1-.2-.2 0-.3s.6-.1.8 0c.2.1.2.2 0 .3-.3.1-.6.1-.8 0zm-1.4-.5c-.2-.1-.2-.2 0-.3s.6-.1.8 0 .2.2 0 .3c-.2.1-.6.1-.8 0zm-1.3-.4c-.2-.1-.2-.2 0-.3s.6-.1.8 0c.2.1.2.2 0 .3-.3.1-.6.1-.8 0zm-1.4-.5c-.2-.1-.2-.2 0-.3s.6-.1.8 0c.2.1.2.2 0 .3-.2.1-.6.1-.8 0zm-1.3-.4c-.2-.1-.2-.2 0-.3s.6-.1.8 0c.2.1.2.2 0 .3-.3.1-.6.1-.8 0zm-1.4-.5c-.2-.1-.2-.2 0-.3s.6-.1.8 0c.2.1.2.2 0 .3-.2.1-.6.1-.8 0zm-1.4-.4c-.2-.1-.2-.2 0-.3s.6-.1.8 0c.2.1.2.2 0 .3h-.8zm50.3 17.7c-.2-.1-.2-.2 0-.3s.6-.1.8 0c.2.1.2.2 0 .3-.3.1-.6.1-.8 0zm-1.4-.5c-.2-.1-.2-.2 0-.3s.6-.1.8 0c.2.1.2.2 0 .3-.2.1-.6.1-.8 0zm-1.4-.4c-.2-.1-.2-.2 0-.3s.6-.1.8 0c.2.1.2.2 0 .3h-.8zm-1.3-.5c-.2-.1-.2-.2 0-.3s.6-.1.8 0c.2.1.2.2 0 .3-.3.1-.6.1-.8 0zm-1.4-.4c-.2-.1-.2-.2 0-.3s.6-.1.8 0c.2.1.2.2 0 .3h-.8zm-1.3-.5c-.2-.1-.2-.2 0-.3s.6-.1.8 0c.2.1.2.2 0 .3-.3.1-.6.1-.8 0zm-1.4-.4c-.2-.1-.2-.2 0-.3s.6-.1.8 0c.2.1.2.2 0 .3h-.8zm-1.3-.5c-.2-.1-.2-.2 0-.3s.6-.1.8 0c.2.1.2.2 0 .3-.3.1-.6.1-.8 0zm-12.3-4.1c-.2-.1-.2-.2 0-.3s.6-.1.8 0c.2.1.2.2 0 .3s-.5.1-.8 0zm-1.3-.4c-.2-.1-.2-.2 0-.3s.6-.1.8 0c.2.1.2.2 0 .3h-.8zm-1.4-.5c-.2-.1-.2-.2 0-.3s.6-.1.8 0c.2.1.2.2 0 .3-.2.1-.6.1-.8 0zm-1.3-.4c-.2-.1-.2-.2 0-.3s.6-.1.8 0c.2.1.2.2 0 .3h-.8zm-1.4-.5c-.2-.1-.2-.2 0-.3s.6-.1.8 0c.2.1.2.2 0 .3-.2.1-.6.1-.8 0zm-1.3-.5c-.2-.1-.2-.2 0-.3s.6-.1.8 0c.2.1.2.2 0 .3-.3.1-.6.1-.8 0zm-1.4-.4c-.2-.1-.2-.2 0-.3s.6-.1.8 0c.2.1.2.2 0 .3-.2.1-.6.1-.8 0zm-1.4-.5c-.2-.1-.2-.2 0-.3s.6-.1.8 0c.2.1.2.2 0 .3s-.5.1-.8 0zm-1.3-.4c-.2-.1-.2-.2 0-.3s.6-.1.8 0c.2.1.2.2 0 .3-.3.1-.6.1-.8 0zm-1.4-.5c-.2-.1-.2-.2 0-.3s.6-.1.8 0c.2.1.2.2 0 .3-.2.1-.6.1-.8 0zm-1.3-.4c-.2-.1-.2-.2 0-.3s.6-.1.8 0c.2.1.2.2 0 .3h-.8zm-1.4-.5c-.2-.1-.2-.2 0-.3s.6-.1.8 0c.2.1.2.2 0 .3-.2.1-.6.1-.8 0zm-1.3-.4c-.2-.1-.2-.2 0-.3s.6-.1.8 0c.2.1.2.2 0 .3h-.8zm-1.4-.5c-.2-.1-.2-.2 0-.3s.6-.1.8 0c.2.1.2.2 0 .3-.2.1-.6.1-.8 0zm-1.4-.4c-.2-.1-.2-.2 0-.3s.6-.1.8 0c.2.1.2.2 0 .3h-.8zm-1.3-.5c-.2-.1-.2-.2 0-.3s.6-.1.8 0c.2.1.2.2 0 .3-.3.1-.6.1-.8 0zm-1.4-.4c-.2-.1-.2-.2 0-.3s.6-.1.8 0c.2.1.2.2 0 .3h-.8zm-1.3-.5c-.2-.1-.2-.2 0-.3s.6-.1.8 0c.2.1.2.2 0 .3-.3.1-.6.1-.8 0zm-1.4-.5c-.2-.1-.2-.2 0-.3s.6-.1.8 0c.2.1.2.2 0 .3-.2.1-.6.1-.8 0zm-1.3-.4c-.2-.1-.2-.2 0-.3s.6-.1.8 0c.2.1.2.2 0 .3-.3.1-.6.1-.8 0zm-1.4-.5c-.2-.1-.2-.2 0-.3s.6-.1.8 0c.2.1.2.2 0 .3-.2.1-.6.1-.8 0zm-1.4-.4c-.2-.1-.2-.2 0-.3s.6-.1.8 0c.2.1.2.2 0 .3s-.5.1-.8 0zm-1.3-.5c-.2-.1-.2-.2 0-.3s.6-.1.8 0c.2.1.2.2 0 .3-.3.1-.6.1-.8 0zm48.8 17.3c-.2-.1-.2-.2 0-.3s.6-.1.8 0c.2.1.2.2 0 .3s-.5.1-.8 0zm-1.3-.5c-.2-.1-.2-.2 0-.3s.6-.1.8 0c.2.1.2.2 0 .3-.3.1-.6.1-.8 0zm-1.4-.4c-.2-.1-.2-.2 0-.3s.6-.1.8 0c.2.1.2.2 0 .3h-.8zm-1.3-.5c-.2-.1-.2-.2 0-.3s.6-.1.8 0c.2.1.2.2 0 .3-.3.1-.6.1-.8 0zm-1.4-.4c-.2-.1-.2-.2 0-.3s.6-.1.8 0c.2.1.2.2 0 .3h-.8zm-1.3-.5c-.2-.1-.2-.2 0-.3s.6-.1.8 0c.2.1.2.2 0 .3-.3.1-.6.1-.8 0zm-1.4-.4c-.2-.1-.2-.2 0-.3s.6-.1.8 0c.2.1.2.2 0 .3h-.8zm-12.2-4.1c-.2-.1-.2-.2 0-.3s.6-.1.8 0c.2.1.2.2 0 .3h-.8zm-1.4-.5c-.2-.1-.2-.2 0-.3s.6-.1.8 0c.2.1.2.2 0 .3-.2.1-.6.1-.8 0zm-1.3-.4c-.2-.1-.2-.2 0-.3s.6-.1.8 0c.2.1.2.2 0 .3h-.8zm-1.4-.5c-.2-.1-.2-.2 0-.3s.6-.1.8 0c.2.1.2.2 0 .3-.2.1-.6.1-.8 0zm-1.3-.4c-.2-.1-.2-.2 0-.3s.6-.1.8 0c.2.1.2.2 0 .3h-.8zm-1.4-.5c-.2-.1-.2-.2 0-.3s.6-.1.8 0c.2.1.2.2 0 .3-.2.1-.6.1-.8 0zm-1.4-.5c-.2-.1-.2-.2 0-.3s.6-.1.8 0c.2.1.2.2 0 .3-.2.1-.5.1-.8 0zm-1.3-.4c-.2-.1-.2-.2 0-.3s.6-.1.8 0c.2.1.2.2 0 .3-.3.1-.6.1-.8 0zm-1.4-.5c-.2-.1-.2-.2 0-.3s.6-.1.8 0c.2.1.2.2 0 .3-.2.1-.6.1-.8 0zm-1.3-.4c-.2-.1-.2-.2 0-.3s.6-.1.8 0c.2.1.2.2 0 .3-.3.1-.6.1-.8 0zm-1.4-.5c-.2-.1-.2-.2 0-.3s.6-.1.8 0c.2.1.2.2 0 .3-.2.1-.6.1-.8 0zm-1.3-.4c-.2-.1-.2-.2 0-.3s.6-.1.8 0c.2.1.2.2 0 .3h-.8zm-1.4-.5c-.2-.1-.2-.2 0-.3s.6-.1.8 0c.2.1.2.2 0 .3-.2.1-.6.1-.8 0zm-1.4-.4c-.2-.1-.2-.2 0-.3s.6-.1.8 0c.2.1.2.2 0 .3h-.8zm-1.3-.5c-.2-.1-.2-.2 0-.3s.6-.1.8 0c.2.1.2.2 0 .3-.3.1-.6.1-.8 0zm-1.4-.4c-.2-.1-.2-.2 0-.3s.6-.1.8 0c.2.1.2.2 0 .3h-.8zm-1.3-.5c-.2-.1-.2-.2 0-.3s.6-.1.8 0c.2.1.2.2 0 .3-.3.1-.6.1-.8 0zm-1.4-.4c-.2-.1-.2-.2 0-.3s.6-.1.8 0c.2.1.2.2 0 .3h-.8zm-1.3-.5c-.2-.1-.2-.2 0-.3s.6-.1.8 0c.2.1.2.2 0 .3-.3.1-.6.1-.8 0zm-1.4-.5c-.2-.1-.2-.2 0-.3s.6-.1.8 0c.2.1.2.2 0 .3-.2.1-.6.1-.8 0zm-1.4-.4c-.2-.1-.2-.2 0-.3s.6-.1.8 0c.2.1.2.2 0 .3-.2.1-.5.1-.8 0zm-1.3-.5c-.2-.1-.2-.2 0-.3s.6-.1.8 0c.2.1.2.2 0 .3-.3.1-.6.1-.8 0zm47.5 16.8c-.2-.1-.2-.2 0-.3s.6-.1.8 0c.2.1.2.2 0 .3-.3.1-.6.1-.8 0zm-1.4-.4c-.2-.1-.2-.2 0-.3s.6-.1.8 0c.2.1.2.2 0 .3-.2.1-.6.1-.8 0zm-1.3-.5c-.2-.1-.2-.2 0-.3s.6-.1.8 0c.2.1.2.2 0 .3-.3.1-.6.1-.8 0zm-1.4-.4c-.2-.1-.2-.2 0-.3s.6-.1.8 0c.2.1.2.2 0 .3h-.8zm-1.3-.5c-.2-.1-.2-.2 0-.3s.6-.1.8 0c.2.1.2.2 0 .3-.3.1-.6.1-.8 0zm-1.4-.4c-.2-.1-.2-.2 0-.3s.6-.1.8 0c.2.1.2.2 0 .3h-.8zm-1.4-.5c-.2-.1-.2-.2 0-.3s.6-.1.8 0c.2.1.2.2 0 .3s-.5.1-.8 0zm-1.3-.4c-.2-.1-.2-.2 0-.3s.6-.1.8 0c.2.1.2.2 0 .3h-.8zm-9.5-3.2c-.2-.1-.2-.2 0-.3s.6-.1.8 0c.2.1.2.2 0 .3-.3.1-.6.1-.8 0zm-1.4-.5c-.2-.1-.2-.2 0-.3s.6-.1.8 0c.2.1.2.2 0 .3-.2.1-.6.1-.8 0zm-1.3-.4c-.2-.1-.2-.2 0-.3s.6-.1.8 0c.2.1.2.2 0 .3h-.8zm-1.4-.5c-.2-.1-.2-.2 0-.3s.6-.1.8 0c.2.1.2.2 0 .3-.2.1-.6.1-.8 0zm-1.3-.4c-.2-.1-.2-.2 0-.3s.6-.1.8 0c.2.1.2.2 0 .3h-.8zm-1.4-.5c-.2-.1-.2-.2 0-.3s.6-.1.8 0c.2.1.2.2 0 .3-.2.1-.6.1-.8 0zm-1.4-.4c-.2-.1-.2-.2 0-.3s.6-.1.8 0c.2.1.2.2 0 .3h-.8zm-1.3-.5c-.2-.1-.2-.2 0-.3s.6-.1.8 0c.2.1.2.2 0 .3-.3.1-.6.1-.8 0zm-1.4-.5c-.2-.1-.2-.2 0-.3s.6-.1.8 0c.2.1.2.2 0 .3-.2.1-.6.1-.8 0zm-1.3-.4c-.2-.1-.2-.2 0-.3s.6-.1.8 0c.2.1.2.2 0 .3-.3.1-.6.1-.8 0zm-1.4-.5c-.2-.1-.2-.2 0-.3s.6-.1.8 0c.2.1.2.2 0 .3-.2.1-.6.1-.8 0zm-1.3-.4c-.2-.1-.2-.2 0-.3s.6-.1.8 0c.2.1.2.2 0 .3-.3.1-.6.1-.8 0zm-1.4-.5c-.2-.1-.2-.2 0-.3s.6-.1.8 0c.2.1.2.2 0 .3-.2.1-.6.1-.8 0zm-1.4-.4c-.2-.1-.2-.2 0-.3s.6-.1.8 0c.2.1.2.2 0 .3h-.8zm-1.3-.5c-.2-.1-.2-.2 0-.3s.6-.1.8 0c.2.1.2.2 0 .3-.3.1-.6.1-.8 0zm-1.4-.4c-.2-.1-.2-.2 0-.3s.6-.1.8 0c.2.1.2.2 0 .3h-.8zm-1.3-.5c-.2-.1-.2-.2 0-.3s.6-.1.8 0c.2.1.2.2 0 .3-.3.1-.6.1-.8 0zm-1.4-.4c-.2-.1-.2-.2 0-.3s.6-.1.8 0c.2.1.2.2 0 .3h-.8zm-1.3-.5c-.2-.1-.2-.2 0-.3s.6-.1.8 0c.2.1.2.2 0 .3-.3.1-.6.1-.8 0zm-1.4-.4c-.2-.1-.2-.2 0-.3s.6-.1.8 0c.2.1.2.2 0 .3h-.8zm-1.4-.5c-.2-.1-.2-.2 0-.3s.6-.1.8 0c.2.1.2.2 0 .3s-.5.1-.8 0zm-1.3-.5c-.2-.1-.2-.2 0-.3s.6-.1.8 0c.2.1.2.2 0 .3-.3.1-.6.1-.8 0zm44.8 15.9c-.2-.1-.2-.2 0-.3s.6-.1.8 0c.2.1.2.2 0 .3-.3.1-.6.1-.8 0zm-1.4-.4c-.2-.1-.2-.2 0-.3s.6-.1.8 0c.2.1.2.2 0 .3-.2.1-.6.1-.8 0zm-1.3-.5c-.2-.1-.2-.2 0-.3s.6-.1.8 0c.2.1.2.2 0 .3-.3.1-.6.1-.8 0zm-1.4-.4c-.2-.1-.2-.2 0-.3s.6-.1.8 0c.2.1.2.2 0 .3h-.8zm-1.4-.5c-.2-.1-.2-.2 0-.3s.6-.1.8 0c.2.1.2.2 0 .3-.2.1-.5.1-.8 0zm-1.3-.4c-.2-.1-.2-.2 0-.3s.6-.1.8 0c.2.1.2.2 0 .3h-.8zm-1.4-.5c-.2-.1-.2-.2 0-.3s.6-.1.8 0c.2.1.2.2 0 .3-.2.1-.6.1-.8 0zm-1.3-.4c-.2-.1-.2-.2 0-.3s.6-.1.8 0c.2.1.2.2 0 .3h-.8zm-8.2-2.8c-.2-.1-.2-.2 0-.3s.6-.1.8 0c.2.1.2.2 0 .3-.2.1-.6.1-.8 0zm-1.3-.4c-.2-.1-.2-.2 0-.3s.6-.1.8 0c.2.1.2.2 0 .3-.3.1-.6.1-.8 0zm-1.4-.5c-.2-.1-.2-.2 0-.3s.6-.1.8 0c.2.1.2.2 0 .3-.2.1-.6.1-.8 0zm-1.3-.4c-.2-.1-.2-.2 0-.3s.6-.1.8 0c.2.1.2.2 0 .3h-.8zm-1.4-.5c-.2-.1-.2-.2 0-.3s.6-.1.8 0c.2.1.2.2 0 .3-.2.1-.6.1-.8 0zm-1.4-.4c-.2-.1-.2-.2 0-.3s.6-.1.8 0c.2.1.2.2 0 .3h-.8zm-1.3-.5c-.2-.1-.2-.2 0-.3s.6-.1.8 0c.2.1.2.2 0 .3-.3.1-.6.1-.8 0zm-1.4-.4c-.2-.1-.2-.2 0-.3s.6-.1.8 0c.2.1.2.2 0 .3h-.8zm-1.3-.5c-.2-.1-.2-.2 0-.3s.6-.1.8 0c.2.1.2.2 0 .3-.3.1-.6.1-.8 0zm-1.4-.5c-.2-.1-.2-.2 0-.3s.6-.1.8 0c.2.1.2.2 0 .3-.2.1-.6.1-.8 0zm-1.3-.4c-.2-.1-.2-.2 0-.3s.6-.1.8 0c.2.1.2.2 0 .3-.3.1-.6.1-.8 0zm-1.4-.5c-.2-.1-.2-.2 0-.3s.6-.1.8 0c.2.1.2.2 0 .3-.2.1-.6.1-.8 0zm-4.1-1.3c-.2-.1-.2-.2 0-.3s.6-.1.8 0c.2.1.2.2 0 .3h-.8zm-1.3-.5c-.2-.1-.2-.2 0-.3s.6-.1.8 0c.2.1.2.2 0 .3-.3.1-.6.1-.8 0zm-2.7-.9c-.2-.1-.2-.2 0-.3s.6-.1.8 0c.2.1.2.2 0 .3-.3.1-.6.1-.8 0zm-1.4-.4c-.2-.1-.2-.2 0-.3s.6-.1.8 0c.2.1.2.2 0 .3h-.8zm-1.4-.5c-.2-.1-.2-.2 0-.3s.6-.1.8 0c.2.1.2.2 0 .3-.2.1-.5.1-.8 0zm-2.7-.9c-.2-.1-.2-.2 0-.3s.6-.1.8 0c.2.1.2.2 0 .3-.2.1-.6.1-.8 0zm-4-1.4c-.2-.1-.2-.2 0-.3s.6-.1.8 0c.2.1.2.2 0 .3-.3.1-.6.1-.8 0zm44.7 15.9c-.2-.1-.2-.2 0-.3s.6-.1.8 0c.2.1.2.2 0 .3s-.5.1-.8 0zm-1.3-.4c-.2-.1-.2-.2 0-.3s.6-.1.8 0c.2.1.2.2 0 .3h-.8zm-1.4-.5c-.2-.1-.2-.2 0-.3s.6-.1.8 0c.2.1.2.2 0 .3-.2.1-.6.1-.8 0zm-1.3-.4c-.2-.1-.2-.2 0-.3s.6-.1.8 0c.2.1.2.2 0 .3h-.8zm-1.4-.5c-.2-.1-.2-.2 0-.3s.6-.1.8 0c.2.1.2.2 0 .3-.2.1-.6.1-.8 0zm-8.1-2.7c-.2-.1-.2-.2 0-.3s.6-.1.8 0c.2.1.2.2 0 .3-.3.1-.6.1-.8 0zm-1.4-.5c-.2-.1-.2-.2 0-.3s.6-.1.8 0c.2.1.2.2 0 .3-.2.1-.6.1-.8 0zm-1.3-.4c-.2-.1-.2-.2 0-.3s.6-.1.8 0c.2.1.2.2 0 .3-.3.1-.6.1-.8 0zm-1.4-.5c-.2-.1-.2-.2 0-.3s.6-.1.8 0c.2.1.2.2 0 .3-.2.1-.6.1-.8 0zm-1.4-.4c-.2-.1-.2-.2 0-.3s.6-.1.8 0c.2.1.2.2 0 .3h-.8zm-1.3-.5c-.2-.1-.2-.2 0-.3s.6-.1.8 0c.2.1.2.2 0 .3-.3.1-.6.1-.8 0zm-1.4-.4c-.2-.1-.2-.2 0-.3s.6-.1.8 0c.2.1.2.2 0 .3h-.8zm-1.3-.5c-.2-.1-.2-.2 0-.3s.6-.1.8 0c.2.1.2.2 0 .3-.3.1-.6.1-.8 0zm-1.4-.4c-.2-.1-.2-.2 0-.3s.6-.1.8 0c.2.1.2.2 0 .3h-.8zm-1.3-.5c-.2-.1-.2-.2 0-.3s.6-.1.8 0c.2.1.2.2 0 .3-.3.1-.6.1-.8 0zm-1.4-.5c-.2-.1-.2-.2 0-.3s.6-.1.8 0c.2.1.2.2 0 .3-.2.1-.6.1-.8 0zm-1.4-.4c-.2-.1-.2-.2 0-.3s.6-.1.8 0c.2.1.2.2 0 .3s-.5.1-.8 0zm-4-1.4c-.2-.1-.2-.2 0-.3s.6-.1.8 0c.2.1.2.2 0 .3-.3.1-.6.1-.8 0zm-1.4-.4c-.2-.1-.2-.2 0-.3s.6-.1.8 0c.2.1.2.2 0 .3h-.8zm-2.7-.9c-.2-.1-.2-.2 0-.3s.6-.1.8 0c.2.1.2.2 0 .3h-.8zm-1.4-.5c-.2-.1-.2-.2 0-.3s.6-.1.8 0c.2.1.2.2 0 .3s-.5.1-.8 0zm-1.3-.4c-.2-.1-.2-.2 0-.3s.6-.1.8 0c.2.1.2.2 0 .3h-.8zm-1.4-.5c-.2-.1-.2-.2 0-.3s.6-.1.8 0c.2.1.2.2 0 .3-.2.1-.6.1-.8 0zm-1.3-.4c-.2-.1-.2-.2 0-.3s.6-.1.8 0c.2.1.2.2 0 .3h-.8zm-1.4-.5c-.2-.1-.2-.2 0-.3s.6-.1.8 0c.2.1.2.2 0 .3-.2.1-.6.1-.8 0zm40.7 14.5c-.2-.1-.2-.2 0-.3s.6-.1.8 0c.2.1.2.2 0 .3-.2.1-.6.1-.8 0zm-1.3-.4c-.2-.1-.2-.2 0-.3s.6-.1.8 0c.2.1.2.2 0 .3h-.8zm-1.4-.5c-.2-.1-.2-.2 0-.3s.6-.1.8 0c.2.1.2.2 0 .3-.2.1-.6.1-.8 0zm-1.3-.4c-.2-.1-.2-.2 0-.3s.6-.1.8 0c.2.1.2.2 0 .3h-.8zm-1.4-.5c-.2-.1-.2-.2 0-.3s.6-.1.8 0c.2.1.2.2 0 .3-.2.1-.6.1-.8 0zm-8.1-2.7c-.2-.1-.2-.2 0-.3s.6-.1.8 0c.2.1.2.2 0 .3-.3.1-.6.1-.8 0zm-1.4-.5c-.2-.1-.2-.2 0-.3s.6-.1.8 0c.2.1.2.2 0 .3-.2.1-.6.1-.8 0zm-1.4-.4c-.2-.1-.2-.2 0-.3s.6-.1.8 0c.2.1.2.2 0 .3-.2.1-.5.1-.8 0zm-1.3-.5c-.2-.1-.2-.2 0-.3s.6-.1.8 0c.2.1.2.2 0 .3-.3.1-.6.1-.8 0zm-1.4-.4c-.2-.1-.2-.2 0-.3s.6-.1.8 0c.2.1.2.2 0 .3h-.8zm-1.3-.5c-.2-.1-.2-.2 0-.3s.6-.1.8 0c.2.1.2.2 0 .3-.3.1-.6.1-.8 0zm-1.4-.4c-.2-.1-.2-.2 0-.3s.6-.1.8 0c.2.1.2.2 0 .3h-.8zm-1.3-.5c-.2-.1-.2-.2 0-.3s.6-.1.8 0c.2.1.2.2 0 .3-.3.1-.6.1-.8 0zm-1.4-.4c-.2-.1-.2-.2 0-.3s.6-.1.8 0c.2.1.2.2 0 .3h-.8zm-1.4-.5c-.2-.1-.2-.2 0-.3s.6-.1.8 0c.2.1.2.2 0 .3-.2.1-.5.1-.8 0zm-6.7-2.3c-.2-.1-.2-.2 0-.3s.6-.1.8 0c.2.1.2.2 0 .3-.3.1-.6.1-.8 0zm-2.8-.9c-.2-.1-.2-.2 0-.3s.6-.1.8 0c.2.1.2.2 0 .3s-.5.1-.8 0zm-1.3-.4c-.2-.1-.2-.2 0-.3s.6-.1.8 0c.2.1.2.2 0 .3h-.8zm-1.4-.5c-.2-.1-.2-.2 0-.3s.6-.1.8 0c.2.1.2.2 0 .3-.2.1-.6.1-.8 0zm-1.3-.4c-.2-.1-.2-.2 0-.3s.6-.1.8 0c.2.1.2.2 0 .3h-.8zm-1.4-.5c-.2-.1-.2-.2 0-.3s.6-.1.8 0c.2.1.2.2 0 .3-.2.1-.6.1-.8 0zm-1.3-.4c-.2-.1-.2-.2 0-.3s.6-.1.8 0c.2.1.2.2 0 .3h-.8zm40.7 14.5c-.2-.1-.2-.2 0-.3s.6-.1.8 0c.2.1.2.2 0 .3-.3.1-.6.1-.8 0zm-1.4-.5c-.2-.1-.2-.2 0-.3s.6-.1.8 0c.2.1.2.2 0 .3-.2.1-.6.1-.8 0zm-1.3-.4c-.2-.1-.2-.2 0-.3s.6-.1.8 0c.2.1.2.2 0 .3h-.8zm-1.4-.5c-.2-.1-.2-.2 0-.3s.6-.1.8 0c.2.1.2.2 0 .3-.2.1-.6.1-.8 0zm-1.4-.4c-.2-.1-.2-.2 0-.3s.6-.1.8 0c.2.1.2.2 0 .3h-.8zm-1.3-.5c-.2-.1-.2-.2 0-.3s.6-.1.8 0c.2.1.2.2 0 .3-.3.1-.6.1-.8 0zm-1.4-.4c-.2-.1-.2-.2 0-.3s.6-.1.8 0c.2.1.2.2 0 .3h-.8zm-1.3-.5c-.2-.1-.2-.2 0-.3s.6-.1.8 0c.2.1.2.2 0 .3-.3.1-.6.1-.8 0zm-8.2-2.7c-.2-.1-.2-.2 0-.3s.6-.1.8 0c.2.1.2.2 0 .3-.2.1-.6.1-.8 0zm-1.3-.5c-.2-.1-.2-.2 0-.3s.6-.1.8 0c.2.1.2.2 0 .3-.3.1-.6.1-.8 0zm-1.4-.4c-.2-.1-.2-.2 0-.3s.6-.1.8 0c.2.1.2.2 0 .3h-.8zm-1.3-.5c-.2-.1-.2-.2 0-.3s.6-.1.8 0c.2.1.2.2 0 .3-.3.1-.6.1-.8 0zm-1.4-.4c-.2-.1-.2-.2 0-.3s.6-.1.8 0c.2.1.2.2 0 .3h-.8zm-1.4-.5c-.2-.1-.2-.2 0-.3s.6-.1.8 0c.2.1.2.2 0 .3s-.5.1-.8 0zm-12.2-4.1c-.2-.1-.2-.2 0-.3s.6-.1.8 0c.2.1.2.2 0 .3-.2.1-.6.1-.8 0zm-1.3-.4c-.2-.1-.2-.2 0-.3s.6-.1.8 0c.2.1.2.2 0 .3h-.8zm-1.4-.5c-.2-.1-.2-.2 0-.3s.6-.1.8 0c.2.1.2.2 0 .3-.2.1-.6.1-.8 0zm-1.3-.4c-.2-.1-.2-.2 0-.3s.6-.1.8 0c.2.1.2.2 0 .3h-.8zm-1.4-.5c-.2-.1-.2-.2 0-.3s.6-.1.8 0c.2.1.2.2 0 .3-.2.1-.6.1-.8 0zm-1.4-.4c-.2-.1-.2-.2 0-.3s.6-.1.8 0c.2.1.2.2 0 .3h-.8zm-1.3-.5c-.2-.1-.2-.2 0-.3s.6-.1.8 0c.2.1.2.2 0 .3-.2.1-.6.1-.8 0zm-1.4-.5c-.2-.1-.2-.2 0-.3s.6-.1.8 0c.2.1.2.2 0 .3-.2.1-.6.1-.8 0zm-1.3-.4c-.2-.1-.2-.2 0-.3s.6-.1.8 0c.2.1.2.2 0 .3-.3.1-.6.1-.8 0zm46.1 16.3c-.2-.1-.2-.2 0-.3s.6-.1.8 0c.2.1.2.2 0 .3-.2.1-.6.1-.8 0zm-1.3-.4c-.2-.1-.2-.2 0-.3s.6-.1.8 0c.2.1.2.2 0 .3-.3.1-.6.1-.8 0zm-1.4-.5c-.2-.1-.2-.2 0-.3s.6-.1.8 0c.2.1.2.2 0 .3-.2.1-.6.1-.8 0zm-1.4-.4c-.2-.1-.2-.2 0-.3s.6-.1.8 0c.2.1.2.2 0 .3h-.8zm-1.3-.5c-.2-.1-.2-.2 0-.3s.6-.1.8 0c.2.1.2.2 0 .3-.3.1-.6.1-.8 0zm-1.4-.4c-.2-.1-.2-.2 0-.3s.6-.1.8 0c.2.1.2.2 0 .3h-.8zm-1.3-.5c-.2-.1-.2-.2 0-.3s.6-.1.8 0c.2.1.2.2 0 .3-.3.1-.6.1-.8 0zm-1.4-.4c-.2-.1-.2-.2 0-.3s.6-.1.8 0c.2.1.2.2 0 .3h-.8zm-9.5-3.2c-.2-.1-.2-.2 0-.3s.6-.1.8 0c.2.1.2.2 0 .3-.2.1-.6.1-.8 0zm-1.3-.5c-.2-.1-.2-.2 0-.3s.6-.1.8 0c.2.1.2.2 0 .3-.3.1-.6.1-.8 0zm-1.4-.4c-.2-.1-.2-.2 0-.3s.6-.1.8 0c.2.1.2.2 0 .3h-.8zm-1.4-.5c-.2-.1-.2-.2 0-.3s.6-.1.8 0c.2.1.2.2 0 .3s-.5.1-.8 0zm-1.3-.4c-.2-.1-.2-.2 0-.3s.6-.1.8 0c.2.1.2.2 0 .3h-.8zm-1.4-.5c-.2-.1-.2-.2 0-.3s.6-.1.8 0c.2.1.2.2 0 .3-.2.1-.6.1-.8 0zm-12.2-4.1c-.2-.1-.2-.2 0-.3s.6-.1.8 0c.2.1.2.2 0 .3-.2.1-.6.1-.8 0zm-1.3-.4c-.2-.1-.2-.2 0-.3s.6-.1.8 0c.2.1.2.2 0 .3h-.8zm-1.4-.5c-.2-.1-.2-.2 0-.3s.6-.1.8 0c.2.1.2.2 0 .3-.2.1-.6.1-.8 0zm-1.4-.4c-.2-.1-.2-.2 0-.3s.6-.1.8 0c.2.1.2.2 0 .3h-.8zm-1.3-.5c-.2-.1-.2-.2 0-.3s.6-.1.8 0c.2.1.2.2 0 .3-.2.1-.6.1-.8 0zm-1.4-.4c-.2-.1-.2-.2 0-.3s.6-.1.8 0c.2.1.2.2 0 .3h-.8zm-1.3-.5c-.2-.1-.2-.2 0-.3s.6-.1.8 0c.2.1.2.2 0 .3-.3.1-.6.1-.8 0zm-1.4-.5c-.2-.1-.2-.2 0-.3s.6-.1.8 0c.2.1.2.2 0 .3-.2.1-.6.1-.8 0zm-1.3-.4c-.2-.1-.2-.2 0-.3s.6-.1.8 0c.2.1.2.2 0 .3-.3.1-.6.1-.8 0zm47.5 16.8c-.2-.1-.2-.2 0-.3s.6-.1.8 0c.2.1.2.2 0 .3-.3.1-.6.1-.8 0zm-1.4-.5c-.2-.1-.2-.2 0-.3s.6-.1.8 0c.2.1.2.2 0 .3-.2.1-.6.1-.8 0zm-1.4-.4c-.2-.1-.2-.2 0-.3s.6-.1.8 0c.2.1.2.2 0 .3s-.5.1-.8 0zm-1.3-.5c-.2-.1-.2-.2 0-.3s.6-.1.8 0c.2.1.2.2 0 .3-.3.1-.6.1-.8 0zm-1.4-.4c-.2-.1-.2-.2 0-.3s.6-.1.8 0c.2.1.2.2 0 .3h-.8zm-1.3-.5c-.2-.1-.2-.2 0-.3s.6-.1.8 0c.2.1.2.2 0 .3-.3.1-.6.1-.8 0zm-1.4-.4c-.2-.1-.2-.2 0-.3s.6-.1.8 0c.2.1.2.2 0 .3h-.8zm-9.5-3.2c-.2-.1-.2-.2 0-.3s.6-.1.8 0c.2.1.2.2 0 .3-.2.1-.6.1-.8 0zm-1.3-.5c-.2-.1-.2-.2 0-.3s.6-.1.8 0c.2.1.2.2 0 .3-.3.1-.6.1-.8 0zm-1.4-.4c-.2-.1-.2-.2 0-.3s.6-.1.8 0c.2.1.2.2 0 .3-.2.1-.6.1-.8 0zm-1.4-.5c-.2-.1-.2-.2 0-.3s.6-.1.8 0c.2.1.2.2 0 .3-.2.1-.5.1-.8 0zm-1.3-.4c-.2-.1-.2-.2 0-.3s.6-.1.8 0c.2.1.2.2 0 .3h-.8zm-1.4-.5c-.2-.1-.2-.2 0-.3s.6-.1.8 0c.2.1.2.2 0 .3-.2.1-.6.1-.8 0zm-1.3-.4c-.2-.1-.2-.2 0-.3s.6-.1.8 0c.2.1.2.2 0 .3h-.8zm-15-5c-.2-.1-.2-.2 0-.3s.6-.1.8 0c.2.1.2.2 0 .3h-.8zm-1.3-.5c-.2-.1-.2-.2 0-.3s.6-.1.8 0c.2.1.2.2 0 .3-.2.1-.6.1-.8 0zm-1.4-.4c-.2-.1-.2-.2 0-.3s.6-.1.8 0c.2.1.2.2 0 .3h-.8zm-1.3-.5c-.2-.1-.2-.2 0-.3s.6-.1.8 0c.2.1.2.2 0 .3-.3.1-.6.1-.8 0zm-1.4-.4c-.2-.1-.2-.2 0-.3s.6-.1.8 0c.2.1.2.2 0 .3h-.8zm-4.1-1.4c-.2-.1-.2-.2 0-.3s.6-.1.8 0c.2.1.2.2 0 .3-.2.1-.5.1-.8 0zm47.5 16.8c-.2-.1-.2-.2 0-.3s.6-.1.8 0c.2.1.2.2 0 .3-.2.1-.5.1-.8 0zm-1.3-.5c-.2-.1-.2-.2 0-.3s.6-.1.8 0c.2.1.2.2 0 .3-.3.1-.6.1-.8 0zm-1.4-.4c-.2-.1-.2-.2 0-.3s.6-.1.8 0c.2.1.2.2 0 .3-.2.1-.6.1-.8 0zm-1.3-.5c-.2-.1-.2-.2 0-.3s.6-.1.8 0c.2.1.2.2 0 .3-.3.1-.6.1-.8 0zm-1.4-.4c-.2-.1-.2-.2 0-.3s.6-.1.8 0c.2.1.2.2 0 .3h-.8zm-1.3-.5c-.2-.1-.2-.2 0-.3s.6-.1.8 0c.2.1.2.2 0 .3-.3.1-.6.1-.8 0zm-10.9-3.6c-.2-.1-.2-.2 0-.3s.6-.1.8 0c.2.1.2.2 0 .3-.2.1-.6.1-.8 0zm-1.4-.5c-.2-.1-.2-.2 0-.3s.6-.1.8 0c.2.1.2.2 0 .3s-.5.1-.8 0zm-1.3-.4c-.2-.1-.2-.2 0-.3s.6-.1.8 0c.2.1.2.2 0 .3-.3.1-.6.1-.8 0zm-1.4-.5c-.2-.1-.2-.2 0-.3s.6-.1.8 0c.2.1.2.2 0 .3-.2.1-.6.1-.8 0zm-1.3-.4c-.2-.1-.2-.2 0-.3s.6-.1.8 0c.2.1.2.2 0 .3h-.8zm-1.4-.5c-.2-.1-.2-.2 0-.3s.6-.1.8 0c.2.1.2.2 0 .3-.2.1-.6.1-.8 0zm-12.2-4.1c-.2-.1-.2-.2 0-.3s.6-.1.8 0c.2.1.2.2 0 .3-.2.1-.6.1-.8 0zm-1.4-.4c-.2-.1-.2-.2 0-.3s.6-.1.8 0c.2.1.2.2 0 .3h-.8zm-1.3-.5c-.2-.1-.2-.2 0-.3s.6-.1.8 0c.2.1.2.2 0 .3-.2.1-.6.1-.8 0zm-1.4-.4c-.2-.1-.2-.2 0-.3s.6-.1.8 0c.2.1.2.2 0 .3h-.8zm-1.3-.5c-.2-.1-.2-.2 0-.3s.6-.1.8 0c.2.1.2.2 0 .3-.3.1-.6.1-.8 0zm-1.4-.4c-.2-.1-.2-.2 0-.3s.6-.1.8 0c.2.1.2.2 0 .3h-.8zm-1.3-.5c-.2-.1-.2-.2 0-.3s.6-.1.8 0c.2.1.2.2 0 .3-.3.1-.6.1-.8 0zm-2.8-.9c-.2-.1-.2-.2 0-.3s.6-.1.8 0c.2.1.2.2 0 .3s-.5.1-.8 0zm-1.3-.5c-.2-.1-.2-.2 0-.3s.6-.1.8 0c.2.1.2.2 0 .3-.2.1-.6.1-.8 0zm47.5 16.8c-.2-.1-.2-.2 0-.3s.6-.1.8 0c.2.1.2.2 0 .3-.3.1-.6.1-.8 0zm-1.4-.4c-.2-.1-.2-.2 0-.3s.6-.1.8 0c.2.1.2.2 0 .3-.2.1-.6.1-.8 0zm-1.3-.5c-.2-.1-.2-.2 0-.3s.6-.1.8 0c.2.1.2.2 0 .3-.3.1-.6.1-.8 0zm-1.4-.4c-.2-.1-.2-.2 0-.3s.6-.1.8 0c.2.1.2.2 0 .3-.2.1-.6.1-.8 0zm-1.3-.5c-.2-.1-.2-.2 0-.3s.6-.1.8 0c.2.1.2.2 0 .3-.3.1-.6.1-.8 0zm-12.3-4.1c-.2-.1-.2-.2 0-.3s.6-.1.8 0c.2.1.2.2 0 .3-.2.1-.5.1-.8 0zm-1.3-.4c-.2-.1-.2-.2 0-.3s.6-.1.8 0c.2.1.2.2 0 .3-.3.1-.6.1-.8 0zm-1.4-.5c-.2-.1-.2-.2 0-.3s.6-.1.8 0c.2.1.2.2 0 .3-.2.1-.6.1-.8 0zm-1.3-.4c-.2-.1-.2-.2 0-.3s.6-.1.8 0c.2.1.2.2 0 .3-.3.1-.6.1-.8 0zm-15-5c-.2-.1-.2-.2 0-.3s.6-.1.8 0c.2.1.2.2 0 .3-.2.1-.5.1-.8 0zm-1.3-.5c-.2-.1-.2-.2 0-.3s.6-.1.8 0c.2.1.2.2 0 .3-.2.1-.6.1-.8 0zm-1.4-.4c-.2-.1-.2-.2 0-.3s.6-.1.8 0c.2.1.2.2 0 .3h-.8zm-1.3-.5c-.2-.1-.2-.2 0-.3s.6-.1.8 0c.2.1.2.2 0 .3-.3.1-.6.1-.8 0zm-1.4-.4c-.2-.1-.2-.2 0-.3s.6-.1.8 0c.2.1.2.2 0 .3h-.8zm-1.3-.5c-.2-.1-.2-.2 0-.3s.6-.1.8 0c.2.1.2.2 0 .3-.3.1-.6.1-.8 0zm-1.4-.4c-.2-.1-.2-.2 0-.3s.6-.1.8 0c.2.1.2.2 0 .3h-.8zM291 446c-.2-.1-.2-.2 0-.3s.6-.1.8 0c.2.1.2.2 0 .3-.2.1-.6.1-.8 0zm-1.3-.5c-.2-.1-.2-.2 0-.3s.6-.1.8 0c.2.1.2.2 0 .3-.3.1-.6.1-.8 0zm-1.4-.4c-.2-.1-.2-.2 0-.3s.6-.1.8 0c.2.1.2.2 0 .3-.2.1-.6.1-.8 0zm-1.3-.5c-.2-.1-.2-.2 0-.3s.6-.1.8 0c.2.1.2.2 0 .3-.3.1-.6.1-.8 0zm-13.6-4.5c-.2-.1-.2-.2 0-.3s.6-.1.8 0c.2.1.2.2 0 .3-.3.1-.6.1-.8 0zm-1.4-.5c-.2-.1-.2-.2 0-.3s.6-.1.8 0c.2.1.2.2 0 .3-.2.1-.6.1-.8 0zm-1.3-.4c-.2-.1-.2-.2 0-.3s.6-.1.8 0c.2.1.2.2 0 .3-.3.1-.6.1-.8 0zm-16.3-5.5c-.2-.1-.2-.2 0-.3s.6-.1.8 0c.2.1.2.2 0 .3-.2.1-.6.1-.8 0zm-1.4-.4c-.2-.1-.2-.2 0-.3s.6-.1.8 0c.2.1.2.2 0 .3-.2.1-.6.1-.8 0zm-1.3-.5c-.2-.1-.2-.2 0-.3s.6-.1.8 0c.2.1.2.2 0 .3-.3.1-.6.1-.8 0zm-1.4-.4c-.2-.1-.2-.2 0-.3s.6-.1.8 0c.2.1.2.2 0 .3h-.8zm-1.3-.5c-.2-.1-.2-.2 0-.3s.6-.1.8 0c.2.1.2.2 0 .3-.3.1-.6.1-.8 0zm-1.4-.4c-.2-.1-.2-.2 0-.3s.6-.1.8 0c.2.1.2.2 0 .3h-.8zm-1.4-.5c-.2-.1-.2-.2 0-.3s.6-.1.8 0c.2.1.2.2 0 .3s-.5.1-.8 0zm43.5 15.5c-.2-.1-.2-.2 0-.3s.6-.1.8 0c.2.1.2.2 0 .3h-.8zm-1.4-.5c-.2-.1-.2-.2 0-.3s.6-.1.8 0c.2.1.2.2 0 .3-.2.1-.6.1-.8 0zm-1.3-.5c-.2-.1-.2-.2 0-.3s.6-.1.8 0c.2.1.2.2 0 .3-.3.1-.6.1-.8 0zm-1.4-.4c-.2-.1-.2-.2 0-.3s.6-.1.8 0c.2.1.2.2 0 .3-.2.1-.6.1-.8 0zM249 432.8c-.2-.1-.2-.2 0-.3s.6-.1.8 0c.2.1.2.2 0 .3-.3.1-.6.1-.8 0zm-1.4-.4c-.2-.1-.2-.2 0-.3s.6-.1.8 0c.2.1.2.2 0 .3h-.8zm-1.4-.5c-.2-.1-.2-.2 0-.3s.6-.1.8 0c.2.1.2.2 0 .3s-.5.1-.8 0zm-1.3-.4c-.2-.1-.2-.2 0-.3s.6-.1.8 0c.2.1.2.2 0 .3h-.8zm-4.1-1.4c-.2-.1-.2-.2 0-.3s.6-.1.8 0c.2.1.2.2 0 .3-.2.1-.6.1-.8 0zm47.5 16.8c-.2-.1-.2-.2 0-.3s.6-.1.8 0c.2.1.2.2 0 .3-.2.1-.6.1-.8 0zm-1.3-.4c-.2-.1-.2-.2 0-.3s.6-.1.8 0c.2.1.2.2 0 .3h-.8zm-1.4-.5c-.2-.1-.2-.2 0-.3s.6-.1.8 0c.2.1.2.2 0 .3-.2.1-.6.1-.8 0zm-39.4-13.2c-.2-.1-.2-.2 0-.3s.6-.1.8 0c.2.1.2.2 0 .3-.2.1-.5.1-.8 0zm-1.3-.4c-.2-.1-.2-.2 0-.3s.6-.1.8 0c.2.1.2.2 0 .3h-.8zm-4.1-1.4c-.2-.1-.2-.2 0-.3s.6-.1.8 0c.2.1.2.2 0 .3-.2.1-.6.1-.8 0zm-1.3-.4c-.2-.1-.2-.2 0-.3s.6-.1.8 0c.2.1.2.2 0 .3h-.8zm-1.4-.5c-.2-.1-.2-.2 0-.3s.6-.1.8 0c.2.1.2.2 0 .3-.2.1-.6.1-.8 0zm48.9 17.3c-.2-.1-.2-.2 0-.3s.6-.1.8 0c.2.1.2.2 0 .3h-.8zm-1.4-.5c-.2-.1-.2-.2 0-.3s.6-.1.8 0c.2.1.2.2 0 .3-.2.1-.6.1-.8 0zm-1.4-.4c-.2-.1-.2-.2 0-.3s.6-.1.8 0c.2.1.2.2 0 .3h-.8zm-39.3-13.2c-.2-.1-.2-.2 0-.3s.6-.1.8 0c.2.1.2.2 0 .3-.2.1-.6.1-.8 0zm-1.4-.5c-.2-.1-.2-.2 0-.3s.6-.1.8 0c.2.1.2.2 0 .3-.2.1-.6.1-.8 0zm-2.7-.9c-.2-.1-.2-.2 0-.3s.6-.1.8 0c.2.1.2.2 0 .3-.2.1-.6.1-.8 0zm-1.3-.4c-.2-.1-.2-.2 0-.3s.6-.1.8 0c.2.1.2.2 0 .3h-.8zm-1.4-.5c-.2-.1-.2-.2 0-.3s.6-.1.8 0c.2.1.2.2 0 .3-.2.1-.6.1-.8 0zm46.1 16.4c-.2-.1-.2-.2 0-.3s.6-.1.8 0c.2.1.2.2 0 .3h-.8zm-1.3-.5c-.2-.1-.2-.2 0-.3s.6-.1.8 0c.2.1.2.2 0 .3-.3.1-.6.1-.8 0zm-43.4-14.5c-.2-.1-.2-.2 0-.3s.6-.1.8 0c.2.1.2.2 0 .3h-.8zm-1.4-.5c-.2-.1-.2-.2 0-.3s.6-.1.8 0c.2.1.2.2 0 .3-.2.1-.6.1-.8 0z"/></g><g opacity=".17"><linearGradient id="SVGID_00000167381244644816736240000003473031949207328427_" gradientUnits="userSpaceOnUse" x1="246.464" y1="-30.215" x2="269.517" y2="585.591" gradientTransform="translate(0 2)"><stop offset="0" stop-color="#fff" stop-opacity="0"/><stop offset=".657" stop-color="#1cb2df"/></linearGradient><path fill="url(#SVGID_00000167381244644816736240000003473031949207328427_)" d="M205.4 353.7l79.9 26.6 71.2-26.5L498.6-52.3-8.1-69z"/></g></svg>