<svg version="1.1" id="Layer_1" xmlns="http://www.w3.org/2000/svg" xmlns:xlink="http://www.w3.org/1999/xlink" x="0" y="0" viewBox="0 0 750 750" xml:space="preserve"><style>.st12{fill:#00606a}</style><image width="692" height="220" xlink:href="2F29CFAEDCF63931.png" transform="translate(29.5 495)" overflow="visible" opacity=".8"/><linearGradient id="SVGID_1_" gradientUnits="userSpaceOnUse" x1="-2066.16" y1="880.157" x2="-1773.838" y2="880.157" gradientTransform="matrix(.9483 -.3173 -1.5758 -.5272 3578.52 433.096)"><stop offset=".469" stop-color="#eee"/><stop offset=".528" stop-color="#d4d4d4"/></linearGradient><path d="M551.8 567L319 644.9c-8.5 2.9-17.8 2.9-26.3 0l-103.4-34.6c-4.4-1.5-8.4-18.6.6-20.7l232.8-66.2c8.5-2.9 17.8-2.9 26.3 0l102.8 22.7c7.6 2 4.5 19.4 0 20.9z" fill="url(#SVGID_1_)"/><path d="M551.8 555.2L319 633.1c-8.5 2.9-17.8 2.9-26.3 0l-102.8-34.4c-4.4-1.5-4.4-7.8 0-9.3l232.8-77.9c8.5-2.9 17.8-2.9 26.3 0l102.8 34.4c4.5 1.6 4.5 7.9 0 9.3z" fill="#fafafb"/><path d="M305.9 630.6c4 0 7.9-.6 11.7-1.9l232.8-77.9c.1 0 .1-.1.1-.1v-.3l-.1-.1L447.6 516c-3.8-1.3-7.7-1.9-11.7-1.9s-7.9.6-11.7 1.9l-232.8 77.9c-.1 0-.1.1-.1.1v.3l.1.1 102.8 34.4c3.8 1.2 7.7 1.8 11.7 1.8z" fill="#6ad0ff"/><linearGradient id="SVGID_00000008867369269070603210000014260688705032762770_" gradientUnits="userSpaceOnUse" x1="332.463" y1="592.554" x2="355.515" y2="-23.253" gradientTransform="matrix(1 0 0 -1 0 752)"><stop offset="0" stop-color="#fff" stop-opacity="0"/><stop offset=".657" stop-color="#00a99d"/></linearGradient><path fill="url(#SVGID_00000008867369269070603210000014260688705032762770_)" d="M291.3 541.4l80 26.6 71.2-26.5 142.1-406.1-506.7-16.7z"/><image width="136" height="59" xlink:href="2F29CFAEDCF63933.png" transform="translate(298.5 562)" overflow="visible" opacity=".56"/><g fill="#14c39a"><path d="M291.3 570.9l71.4 23.9c2.8.9 5.8.9 8.6 0l71.2-23.8c1-.3 1-1.7 0-2.1l-70.9-23.7c-3-1-6.2-1-9.1 0L291.4 569c-1 .3-1 1.6-.1 1.9z" opacity=".45"/><path d="M367 594.4c1.3 0 2.7-.2 4-.6l71.2-23.8-70.9-23.7c-1.4-.5-2.8-.7-4.2-.7-1.4 0-2.9.2-4.2.7l-71 23.8 71.2 23.8c1.2.3 2.6.5 3.9.5z"/></g><image width="167" height="71" xlink:href="2F29CFAEDCF63936.png" transform="translate(283.5 543)" overflow="visible"/><linearGradient id="SVGID_00000008853315028806625600000015769631377081155202_" gradientUnits="userSpaceOnUse" x1="1615.932" y1="195.326" x2="1804.083" y2="195.798" gradientTransform="rotate(180 1028.54 376)"><stop offset=".23" stop-color="#14c39a"/><stop offset="1" stop-color="#0fa8b4"/></linearGradient><path d="M291.3 557.4l71.4 23.9c2.8.9 5.8.9 8.6 0l71.2-23.8c1-.3 1-1.7 0-2.1l-70.9-23.7c-3-1-6.2-1-9.1 0l-71.1 23.8c-1 .3-1 1.6-.1 1.9z" opacity=".6" fill="url(#SVGID_00000008853315028806625600000015769631377081155202_)"/><linearGradient id="SVGID_00000069358980398315084870000014113166052191800457_" gradientUnits="userSpaceOnUse" x1="1616.964" y1="195.292" x2="1802.354" y2="195.757" gradientTransform="rotate(180 1028.54 376)"><stop offset="0" stop-color="#0023e3"/><stop offset="1" stop-color="#0fa8b4"/></linearGradient><path d="M367 580.9c1.3 0 2.7-.2 4-.6l71.2-23.8-70.9-23.7c-1.4-.5-2.8-.7-4.2-.7-1.4 0-2.9.2-4.2.7l-71 23.8 71.2 23.8c1.2.3 2.6.5 3.9.5z" fill="url(#SVGID_00000069358980398315084870000014113166052191800457_)"/><image width="167" height="71" xlink:href="2F29CFAEDCF63937.png" transform="translate(283.5 526)" overflow="visible"/><radialGradient id="SVGID_00000075853690327066847630000016206672068985416880_" cx="1690.28" cy="208.818" r="56.799" gradientTransform="rotate(180 1028.54 376)" gradientUnits="userSpaceOnUse"><stop offset="0" stop-color="#fff"/><stop offset="1" stop-color="#57d973"/></radialGradient><path d="M292.9 540.2v1.4l69.5-23.3c3-1 6.2-1 9.1 0l69.2 23.2v-.6l2.4-.5v2.7c0 .4-.3.8-.7 1l-71.2 23.8c-2.8.9-5.8.9-8.6 0L291.2 544c-.5-.2-.7-.5-.7-.9v-2.7l2.4-.2z" fill="url(#SVGID_00000075853690327066847630000016206672068985416880_)"/><radialGradient id="SVGID_00000152231327418945521530000009640848733065043881_" cx="366.943" cy="211.537" r="56.893" gradientTransform="matrix(1 0 0 -1 0 752)" gradientUnits="userSpaceOnUse"><stop offset="0" stop-color="#fff"/><stop offset="1" stop-color="#14c39a"/></radialGradient><path d="M291.3 541.4l71.4 23.9c2.8.9 5.8.9 8.6 0l71.2-23.8c1-.3 1-1.7 0-2.1l-70.9-23.7c-3-1-6.2-1-9.1 0l-71.1 23.8c-1 .3-1 1.6-.1 1.9z" fill="url(#SVGID_00000152231327418945521530000009640848733065043881_)"/><g opacity=".34"><path class="st12" d="M406.6 538.2c-.2-.1-.2-.2 0-.3s.6-.1.8 0c.2.1.2.2 0 .3-.2.1-.6.1-.8 0zm-1.4-.5c-.2-.1-.2-.2 0-.3s.6-.1.8 0c.2.1.2.2 0 .3s-.5.1-.8 0z"/><ellipse class="st12" cx="404.3" cy="537.2" rx=".5" ry=".2"/><path class="st12" d="M402.5 536.8c-.2-.1-.2-.2 0-.3s.6-.1.8 0c.2.1.2.2 0 .3-.2.1-.6.1-.8 0zm-1.3-.4c-.2-.1-.2-.2 0-.3s.6-.1.8 0c.2.1.2.2 0 .3h-.8zm-1.4-.5c-.2-.1-.2-.2 0-.3s.6-.1.8 0c.2.1.2.2 0 .3-.2.1-.6.1-.8 0zm-1.3-.4c-.2-.1-.2-.2 0-.3s.6-.1.8 0c.2.1.2.2 0 .3h-.8zm-1.4-.5c-.2-.1-.2-.2 0-.3s.6-.1.8 0c.2.1.2.2 0 .3-.2.1-.6.1-.8 0zm-1.4-.4c-.2-.1-.2-.2 0-.3s.6-.1.8 0c.2.1.2.2 0 .3h-.8zm-13.5-4.6c-.2-.1-.2-.2 0-.3s.6-.1.8 0c.2.1.2.2 0 .3-.3.1-.6.1-.8 0zm-1.4-.4c-.2-.1-.2-.2 0-.3s.6-.1.8 0c.2.1.2.2 0 .3h-.8zm24.4 9c-.2-.1-.2-.2 0-.3s.6-.1.8 0c.2.1.2.2 0 .3-.2.1-.5.1-.8 0zm-1.3-.4c-.2-.1-.2-.2 0-.3s.6-.1.8 0c.2.1.2.2 0 .3-.3.1-.6.1-.8 0zm-1.4-.5c-.2-.1-.2-.2 0-.3s.6-.1.8 0c.2.1.2.2 0 .3-.2.1-.6.1-.8 0zm-1.3-.4c-.2-.1-.2-.2 0-.3s.6-.1.8 0c.2.1.2.2 0 .3-.3.1-.6.1-.8 0zm-1.4-.5c-.2-.1-.2-.2 0-.3s.6-.1.8 0c.2.1.2.2 0 .3-.2.1-.6.1-.8 0zm-1.3-.4c-.2-.1-.2-.2 0-.3s.6-.1.8 0c.2.1.2.2 0 .3h-.8zm-1.4-.5c-.2-.1-.2-.2 0-.3s.6-.1.8 0c.2.1.2.2 0 .3-.2.1-.6.1-.8 0zm-1.4-.4c-.2-.1-.2-.2 0-.3s.6-.1.8 0c.2.1.2.2 0 .3h-.8zm-1.3-.5c-.2-.1-.2-.2 0-.3s.6-.1.8 0c.2.1.2.2 0 .3-.3.1-.6.1-.8 0zm-13.6-4.5c-.2-.1-.2-.2 0-.3s.6-.1.8 0c.2.1.2.2 0 .3h-.8zm-1.3-.5c-.2-.1-.2-.2 0-.3s.6-.1.8 0c.2.1.2.2 0 .3-.3.1-.6.1-.8 0zm28.5 10.5c-.2-.1-.2-.2 0-.3s.6-.1.8 0c.2.1.2.2 0 .3h-.8zm-1.4-.5c-.2-.1-.2-.2 0-.3s.6-.1.8 0c.2.1.2.2 0 .3-.2.1-.6.1-.8 0zm-1.4-.4c-.2-.1-.2-.2 0-.3s.6-.1.8 0c.2.1.2.2 0 .3h-.8zm-1.3-.5c-.2-.1-.2-.2 0-.3s.6-.1.8 0c.2.1.2.2 0 .3-.3.1-.6.1-.8 0zm-1.4-.5c-.2-.1-.2-.2 0-.3s.6-.1.8 0c.2.1.2.2 0 .3-.2.1-.6.1-.8 0zm-1.3-.4c-.2-.1-.2-.2 0-.3s.6-.1.8 0c.2.1.2.2 0 .3-.3.1-.6.1-.8 0zm-1.4-.5c-.2-.1-.2-.2 0-.3s.6-.1.8 0c.2.1.2.2 0 .3-.2.1-.6.1-.8 0zm-1.3-.4c-.2-.1-.2-.2 0-.3s.6-.1.8 0c.2.1.2.2 0 .3-.3.1-.6.1-.8 0zm-1.4-.5c-.2-.1-.2-.2 0-.3s.6-.1.8 0c.2.1.2.2 0 .3-.2.1-.6.1-.8 0zm-1.4-.4c-.2-.1-.2-.2 0-.3s.6-.1.8 0c.2.1.2.2 0 .3h-.8zm-1.3-.5c-.2-.1-.2-.2 0-.3s.6-.1.8 0c.2.1.2.2 0 .3-.3.1-.6.1-.8 0zm-1.4-.4c-.2-.1-.2-.2 0-.3s.6-.1.8 0c.2.1.2.2 0 .3h-.8zm-1.3-.5c-.2-.1-.2-.2 0-.3s.6-.1.8 0c.2.1.2.2 0 .3-.3.1-.6.1-.8 0zm-6.8-2.3c-.2-.1-.2-.2 0-.3s.6-.1.8 0c.2.1.2.2 0 .3-.3.1-.6.1-.8 0zm-1.4-.4c-.2-.1-.2-.2 0-.3s.6-.1.8 0c.2.1.2.2 0 .3-.2.1-.6.1-.8 0zm-1.3-.5c-.2-.1-.2-.2 0-.3s.6-.1.8 0c.2.1.2.2 0 .3-.3.1-.6.1-.8 0zm-2.7-.9c-.2-.1-.2-.2 0-.3s.6-.1.8 0c.2.1.2.2 0 .3-.3.1-.6.1-.8 0zm-1.4-.4c-.2-.1-.2-.2 0-.3s.6-.1.8 0c.2.1.2.2 0 .3h-.8zm-1.4-.5c-.2-.1-.2-.2 0-.3s.6-.1.8 0c.2.1.2.2 0 .3s-.5.1-.8 0zm-1.3-.4c-.2-.1-.2-.2 0-.3s.6-.1.8 0c.2.1.2.2 0 .3h-.8zm-4.1-1.4c-.2-.1-.2-.2 0-.3s.6-.1.8 0c.2.1.2.2 0 .3-.2.1-.6.1-.8 0zm-1.3-.4c-.2-.1-.2-.2 0-.3s.6-.1.8 0c.2.1.2.2 0 .3h-.8zm-1.4-.5c-.2-.1-.2-.2 0-.3s.6-.1.8 0c.2.1.2.2 0 .3-.2.1-.6.1-.8 0zm47.5 16.8c-.2-.1-.2-.2 0-.3s.6-.1.8 0c.2.1.2.2 0 .3-.2.1-.6.1-.8 0zm-1.4-.5c-.2-.1-.2-.2 0-.3s.6-.1.8 0c.2.1.2.2 0 .3-.2.1-.6.1-.8 0zm-1.3-.4c-.2-.1-.2-.2 0-.3s.6-.1.8 0c.2.1.2.2 0 .3-.3.1-.6.1-.8 0zm-5.4-1.8c-.2-.1-.2-.2 0-.3s.6-.1.8 0c.2.1.2.2 0 .3h-.8zm-1.4-.5c-.2-.1-.2-.2 0-.3s.6-.1.8 0c.2.1.2.2 0 .3-.2.1-.6.1-.8 0zm-1.4-.4c-.2-.1-.2-.2 0-.3s.6-.1.8 0c.2.1.2.2 0 .3h-.8z"/><ellipse class="st12" cx="404.3" cy="539.9" rx=".5" ry=".2"/><path class="st12" d="M402.5 539.6c-.2-.1-.2-.2 0-.3s.6-.1.8 0c.2.1.2.2 0 .3h-.8zm-1.3-.5c-.2-.1-.2-.2 0-.3s.6-.1.8 0c.2.1.2.2 0 .3-.3.1-.6.1-.8 0zm-1.4-.5c-.2-.1-.2-.2 0-.3s.6-.1.8 0c.2.1.2.2 0 .3-.2.1-.6.1-.8 0zm-1.3-.4c-.2-.1-.2-.2 0-.3s.6-.1.8 0c.2.1.2.2 0 .3-.3.1-.6.1-.8 0zm-1.4-.5c-.2-.1-.2-.2 0-.3s.6-.1.8 0c.2.1.2.2 0 .3-.2.1-.6.1-.8 0zm-1.4-.4c-.2-.1-.2-.2 0-.3s.6-.1.8 0c.2.1.2.2 0 .3-.2.1-.5.1-.8 0zm-1.3-.5c-.2-.1-.2-.2 0-.3s.6-.1.8 0c.2.1.2.2 0 .3-.3.1-.6.1-.8 0zm-1.4-.4c-.2-.1-.2-.2 0-.3s.6-.1.8 0c.2.1.2.2 0 .3h-.8zm-1.3-.5c-.2-.1-.2-.2 0-.3s.6-.1.8 0c.2.1.2.2 0 .3-.3.1-.6.1-.8 0zm-1.4-.4c-.2-.1-.2-.2 0-.3s.6-.1.8 0c.2.1.2.2 0 .3h-.8zm-2.7-.9c-.2-.1-.2-.2 0-.3s.6-.1.8 0c.2.1.2.2 0 .3h-.8zm-1.4-.5c-.2-.1-.2-.2 0-.3s.6-.1.8 0c.2.1.2.2 0 .3-.2.1-.5.1-.8 0zm-2.7-.9c-.2-.1-.2-.2 0-.3s.6-.1.8 0c.2.1.2.2 0 .3-.2.1-.6.1-.8 0zm-1.3-.5c-.2-.1-.2-.2 0-.3s.6-.1.8 0c.2.1.2.2 0 .3-.3.1-.6.1-.8 0zm-5.5-1.8c-.2-.1-.2-.2 0-.3s.6-.1.8 0c.2.1.2.2 0 .3s-.5.1-.8 0zm-1.3-.4c-.2-.1-.2-.2 0-.3s.6-.1.8 0c.2.1.2.2 0 .3h-.8zm-1.4-.5c-.2-.1-.2-.2 0-.3s.6-.1.8 0c.2.1.2.2 0 .3-.2.1-.6.1-.8 0zm-1.3-.4c-.2-.1-.2-.2 0-.3s.6-.1.8 0c.2.1.2.2 0 .3h-.8zm-1.4-.5c-.2-.1-.2-.2 0-.3s.6-.1.8 0c.2.1.2.2 0 .3-.2.1-.6.1-.8 0zm-1.3-.4c-.2-.1-.2-.2 0-.3s.6-.1.8 0c.2.1.2.2 0 .3h-.8zm-1.4-.5c-.2-.1-.2-.2 0-.3s.6-.1.8 0c.2.1.2.2 0 .3-.2.1-.6.1-.8 0zm-1.4-.4c-.2-.1-.2-.2 0-.3s.6-.1.8 0c.2.1.2.2 0 .3h-.8zm-1.3-.5c-.2-.1-.2-.2 0-.3s.6-.1.8 0c.2.1.2.2 0 .3-.3.1-.6.1-.8 0zm-1.4-.5c-.2-.1-.2-.2 0-.3s.6-.1.8 0c.2.1.2.2 0 .3-.2.1-.6.1-.8 0zm-1.3-.4c-.2-.1-.2-.2 0-.3s.6-.1.8 0c.2.1.2.2 0 .3-.3.1-.6.1-.8 0zm-1.4-.5c-.2-.1-.2-.2 0-.3s.6-.1.8 0c.2.1.2.2 0 .3-.2.1-.6.1-.8 0zm-1.3-.4c-.2-.1-.2-.2 0-.3s.6-.1.8 0c.2.1.2.2 0 .3-.3.1-.6.1-.8 0zm-1.4-.5c-.2-.1-.2-.2 0-.3s.6-.1.8 0c.2.1.2.2 0 .3-.2.1-.6.1-.8 0zm-1.4-.4c-.2-.1-.2-.2 0-.3s.6-.1.8 0c.2.1.2.2 0 .3h-.8zm58.4 20.4c-.2-.1-.2-.2 0-.3s.6-.1.8 0c.2.1.2.2 0 .3-.2.1-.6.1-.8 0zm-1.4-.4c-.2-.1-.2-.2 0-.3s.6-.1.8 0c.2.1.2.2 0 .3h-.8zm-1.3-.5c-.2-.1-.2-.2 0-.3s.6-.1.8 0c.2.1.2.2 0 .3-.3.1-.6.1-.8 0zm-1.4-.5c-.2-.1-.2-.2 0-.3s.6-.1.8 0c.2.1.2.2 0 .3-.2.1-.6.1-.8 0zm-1.3-.4c-.2-.1-.2-.2 0-.3s.6-.1.8 0c.2.1.2.2 0 .3-.3.1-.6.1-.8 0zm-1.4-.5c-.2-.1-.2-.2 0-.3s.6-.1.8 0c.2.1.2.2 0 .3-.2.1-.6.1-.8 0zm-1.3-.4c-.2-.1-.2-.2 0-.3s.6-.1.8 0c.2.1.2.2 0 .3-.3.1-.6.1-.8 0zm-1.4-.5c-.2-.1-.2-.2 0-.3s.6-.1.8 0c.2.1.2.2 0 .3-.2.1-.6.1-.8 0zm-1.4-.4c-.2-.1-.2-.2 0-.3s.6-.1.8 0c.2.1.2.2 0 .3h-.8z"/><ellipse class="st12" cx="404.3" cy="540.8" rx=".5" ry=".2"/><path class="st12" d="M402.5 540.5c-.2-.1-.2-.2 0-.3s.6-.1.8 0c.2.1.2.2 0 .3h-.8zm-1.3-.5c-.2-.1-.2-.2 0-.3s.6-.1.8 0c.2.1.2.2 0 .3-.3.1-.6.1-.8 0zm-1.4-.4c-.2-.1-.2-.2 0-.3s.6-.1.8 0c.2.1.2.2 0 .3h-.8zm-1.3-.5c-.2-.1-.2-.2 0-.3s.6-.1.8 0c.2.1.2.2 0 .3-.3.1-.6.1-.8 0zm-1.4-.5c-.2-.1-.2-.2 0-.3s.6-.1.8 0c.2.1.2.2 0 .3-.2.1-.6.1-.8 0zm-1.4-.4c-.2-.1-.2-.2 0-.3s.6-.1.8 0c.2.1.2.2 0 .3s-.5.1-.8 0zm-1.3-.5c-.2-.1-.2-.2 0-.3s.6-.1.8 0c.2.1.2.2 0 .3-.3.1-.6.1-.8 0zm-1.4-.4c-.2-.1-.2-.2 0-.3s.6-.1.8 0c.2.1.2.2 0 .3-.2.1-.6.1-.8 0zm-1.3-.5c-.2-.1-.2-.2 0-.3s.6-.1.8 0c.2.1.2.2 0 .3-.3.1-.6.1-.8 0zm-1.4-.4c-.2-.1-.2-.2 0-.3s.6-.1.8 0c.2.1.2.2 0 .3h-.8zm-4.1-1.4c-.2-.1-.2-.2 0-.3s.6-.1.8 0c.2.1.2.2 0 .3s-.5.1-.8 0zm-1.3-.4c-.2-.1-.2-.2 0-.3s.6-.1.8 0c.2.1.2.2 0 .3h-.8zm-5.4-1.9c-.2-.1-.2-.2 0-.3s.6-.1.8 0c.2.1.2.2 0 .3-.3.1-.6.1-.8 0zm-1.4-.4c-.2-.1-.2-.2 0-.3s.6-.1.8 0c.2.1.2.2 0 .3-.2.1-.6.1-.8 0zm-1.4-.5c-.2-.1-.2-.2 0-.3s.6-.1.8 0c.2.1.2.2 0 .3-.2.1-.5.1-.8 0zm-1.3-.4c-.2-.1-.2-.2 0-.3s.6-.1.8 0c.2.1.2.2 0 .3-.3.1-.6.1-.8 0zm-1.4-.5c-.2-.1-.2-.2 0-.3s.6-.1.8 0c.2.1.2.2 0 .3-.2.1-.6.1-.8 0zm-1.3-.4c-.2-.1-.2-.2 0-.3s.6-.1.8 0c.2.1.2.2 0 .3h-.8zm-1.4-.5c-.2-.1-.2-.2 0-.3s.6-.1.8 0c.2.1.2.2 0 .3-.2.1-.6.1-.8 0zm-1.3-.4c-.2-.1-.2-.2 0-.3s.6-.1.8 0c.2.1.2.2 0 .3h-.8zm-1.4-.5c-.2-.1-.2-.2 0-.3s.6-.1.8 0c.2.1.2.2 0 .3-.2.1-.6.1-.8 0zm-1.4-.4c-.2-.1-.2-.2 0-.3s.6-.1.8 0c.2.1.2.2 0 .3h-.8zm-1.3-.5c-.2-.1-.2-.2 0-.3s.6-.1.8 0c.2.1.2.2 0 .3-.3.1-.6.1-.8 0zm-1.4-.4c-.2-.1-.2-.2 0-.3s.6-.1.8 0c.2.1.2.2 0 .3h-.8zm-1.3-.5c-.2-.1-.2-.2 0-.3s.6-.1.8 0c.2.1.2.2 0 .3-.3.1-.6.1-.8 0zm-1.4-.5c-.2-.1-.2-.2 0-.3s.6-.1.8 0c.2.1.2.2 0 .3-.2.1-.6.1-.8 0z"/><ellipse class="st12" cx="360.8" cy="526.3" rx=".5" ry=".2"/><path class="st12" d="M359.1 525.9c-.2-.1-.2-.2 0-.3s.6-.1.8 0c.2.1.2.2 0 .3-.2.1-.6.1-.8 0zm-1.4-.4c-.2-.1-.2-.2 0-.3s.6-.1.8 0c.2.1.2.2 0 .3s-.5.1-.8 0zm-1.3-.5c-.2-.1-.2-.2 0-.3s.6-.1.8 0c.2.1.2.2 0 .3-.3.1-.6.1-.8 0zm61 21.4c-.2-.1-.2-.2 0-.3s.6-.1.8 0c.2.1.2.2 0 .3h-.8zm-1.3-.5c-.2-.1-.2-.2 0-.3s.6-.1.8 0c.2.1.2.2 0 .3-.2.1-.6.1-.8 0zm-1.4-.4c-.2-.1-.2-.2 0-.3s.6-.1.8 0c.2.1.2.2 0 .3h-.8zm-1.3-.5c-.2-.1-.2-.2 0-.3s.6-.1.8 0c.2.1.2.2 0 .3-.3.1-.6.1-.8 0zm-1.4-.4c-.2-.1-.2-.2 0-.3s.6-.1.8 0c.2.1.2.2 0 .3h-.8zm-1.3-.5c-.2-.1-.2-.2 0-.3s.6-.1.8 0c.2.1.2.2 0 .3-.3.1-.6.1-.8 0zm-1.4-.5c-.2-.1-.2-.2 0-.3s.6-.1.8 0c.2.1.2.2 0 .3-.2.1-.6.1-.8 0zm-1.3-.4c-.2-.1-.2-.2 0-.3s.6-.1.8 0c.2.1.2.2 0 .3-.3.1-.6.1-.8 0zm-1.4-.5c-.2-.1-.2-.2 0-.3s.6-.1.8 0c.2.1.2.2 0 .3-.2.1-.6.1-.8 0zm-1.4-.4c-.2-.1-.2-.2 0-.3s.6-.1.8 0c.2.1.2.2 0 .3-.2.1-.5.1-.8 0zm-1.3-.5c-.2-.1-.2-.2 0-.3s.6-.1.8 0c.2.1.2.2 0 .3-.3.1-.6.1-.8 0zm-1.4-.4c-.2-.1-.2-.2 0-.3s.6-.1.8 0c.2.1.2.2 0 .3h-.8zm-1.3-.5c-.2-.1-.2-.2 0-.3s.6-.1.8 0c.2.1.2.2 0 .3-.3.1-.6.1-.8 0zm-1.4-.4c-.2-.1-.2-.2 0-.3s.6-.1.8 0c.2.1.2.2 0 .3h-.8zm-1.3-.5c-.2-.1-.2-.2 0-.3s.6-.1.8 0c.2.1.2.2 0 .3-.3.1-.6.1-.8 0zm-1.4-.4c-.2-.1-.2-.2 0-.3s.6-.1.8 0c.2.1.2.2 0 .3h-.8zm-1.4-.5c-.2-.1-.2-.2 0-.3s.6-.1.8 0c.2.1.2.2 0 .3-.2.1-.5.1-.8 0zm-1.3-.5c-.2-.1-.2-.2 0-.3s.6-.1.8 0c.2.1.2.2 0 .3-.3.1-.6.1-.8 0zm-1.4-.4c-.2-.1-.2-.2 0-.3s.6-.1.8 0c.2.1.2.2 0 .3-.2.1-.6.1-.8 0zm-1.3-.5c-.2-.1-.2-.2 0-.3s.6-.1.8 0c.2.1.2.2 0 .3-.3.1-.6.1-.8 0zm-1.4-.4c-.2-.1-.2-.2 0-.3s.6-.1.8 0c.2.1.2.2 0 .3-.2.1-.6.1-.8 0zm-1.3-.5c-.2-.1-.2-.2 0-.3s.6-.1.8 0c.2.1.2.2 0 .3-.3.1-.6.1-.8 0zm-10.9-3.6c-.2-.1-.2-.2 0-.3s.6-.1.8 0c.2.1.2.2 0 .3-.2.1-.6.1-.8 0zm-1.4-.5c-.2-.1-.2-.2 0-.3s.6-.1.8 0c.2.1.2.2 0 .3s-.5.1-.8 0zm-1.3-.4c-.2-.1-.2-.2 0-.3s.6-.1.8 0c.2.1.2.2 0 .3-.3.1-.6.1-.8 0zm-1.4-.5c-.2-.1-.2-.2 0-.3s.6-.1.8 0c.2.1.2.2 0 .3-.2.1-.6.1-.8 0zm-1.3-.4c-.2-.1-.2-.2 0-.3s.6-.1.8 0c.2.1.2.2 0 .3-.3.1-.6.1-.8 0zm-1.4-.5c-.2-.1-.2-.2 0-.3s.6-.1.8 0c.2.1.2.2 0 .3-.2.1-.6.1-.8 0zm-1.3-.4c-.2-.1-.2-.2 0-.3s.6-.1.8 0c.2.1.2.2 0 .3h-.8zm-1.4-.5c-.2-.1-.2-.2 0-.3s.6-.1.8 0c.2.1.2.2 0 .3-.2.1-.6.1-.8 0zm-1.4-.4c-.2-.1-.2-.2 0-.3s.6-.1.8 0c.2.1.2.2 0 .3h-.8zm-1.3-.5c-.2-.1-.2-.2 0-.3s.6-.1.8 0c.2.1.2.2 0 .3-.3.1-.6.1-.8 0zm-1.4-.4c-.2-.1-.2-.2 0-.3s.6-.1.8 0c.2.1.2.2 0 .3h-.8zm-1.3-.5c-.2-.1-.2-.2 0-.3s.6-.1.8 0c.2.1.2.2 0 .3-.3.1-.6.1-.8 0zm-1.4-.4c-.2-.1-.2-.2 0-.3s.6-.1.8 0c.2.1.2.2 0 .3h-.8zm-1.3-.5c-.2-.1-.2-.2 0-.3s.6-.1.8 0c.2.1.2.2 0 .3-.3.1-.6.1-.8 0zm-1.4-.5c-.2-.1-.2-.2 0-.3s.6-.1.8 0c.2.1.2.2 0 .3-.2.1-.6.1-.8 0zm-1.4-.4c-.2-.1-.2-.2 0-.3s.6-.1.8 0c.2.1.2.2 0 .3s-.5.1-.8 0zm-1.3-.5c-.2-.1-.2-.2 0-.3s.6-.1.8 0c.2.1.2.2 0 .3-.3.1-.6.1-.8 0zm59.7 20.9c-.2-.1-.2-.2 0-.3s.6-.1.8 0c.2.1.2.2 0 .3-.2.1-.6.1-.8 0zm-1.4-.4c-.2-.1-.2-.2 0-.3s.6-.1.8 0c.2.1.2.2 0 .3h-.8zm-1.3-.5c-.2-.1-.2-.2 0-.3s.6-.1.8 0c.2.1.2.2 0 .3-.3.1-.6.1-.8 0zm-1.4-.4c-.2-.1-.2-.2 0-.3s.6-.1.8 0c.2.1.2.2 0 .3h-.8zm-1.3-.5c-.2-.1-.2-.2 0-.3s.6-.1.8 0c.2.1.2.2 0 .3-.3.1-.6.1-.8 0zm-1.4-.4c-.2-.1-.2-.2 0-.3s.6-.1.8 0c.2.1.2.2 0 .3h-.8zm-1.3-.5c-.2-.1-.2-.2 0-.3s.6-.1.8 0c.2.1.2.2 0 .3-.3.1-.6.1-.8 0zm-1.4-.5c-.2-.1-.2-.2 0-.3s.6-.1.8 0c.2.1.2.2 0 .3-.2.1-.6.1-.8 0zm-1.4-.4c-.2-.1-.2-.2 0-.3s.6-.1.8 0c.2.1.2.2 0 .3s-.5.1-.8 0z"/><ellipse class="st12" cx="404.3" cy="542.6" rx=".5" ry=".2"/><path class="st12" d="M402.5 542.3c-.2-.1-.2-.2 0-.3s.6-.1.8 0c.2.1.2.2 0 .3-.2.1-.6.1-.8 0zm-1.3-.5c-.2-.1-.2-.2 0-.3s.6-.1.8 0c.2.1.2.2 0 .3-.3.1-.6.1-.8 0zm-1.4-.4c-.2-.1-.2-.2 0-.3s.6-.1.8 0c.2.1.2.2 0 .3h-.8zm-1.3-.5c-.2-.1-.2-.2 0-.3s.6-.1.8 0c.2.1.2.2 0 .3-.3.1-.6.1-.8 0zm-1.4-.4c-.2-.1-.2-.2 0-.3s.6-.1.8 0c.2.1.2.2 0 .3h-.8zm-1.4-.5c-.2-.1-.2-.2 0-.3s.6-.1.8 0c.2.1.2.2 0 .3s-.5.1-.8 0zm-1.3-.4c-.2-.1-.2-.2 0-.3s.6-.1.8 0c.2.1.2.2 0 .3h-.8zm-1.4-.5c-.2-.1-.2-.2 0-.3s.6-.1.8 0c.2.1.2.2 0 .3-.2.1-.6.1-.8 0zm-1.3-.5c-.2-.1-.2-.2 0-.3s.6-.1.8 0c.2.1.2.2 0 .3-.3.1-.6.1-.8 0zm-1.4-.4c-.2-.1-.2-.2 0-.3s.6-.1.8 0c.2.1.2.2 0 .3-.2.1-.6.1-.8 0zm-1.3-.5c-.2-.1-.2-.2 0-.3s.6-.1.8 0c.2.1.2.2 0 .3-.3.1-.6.1-.8 0zm-6.8-2.2c-.2-.1-.2-.2 0-.3s.6-.1.8 0c.2.1.2.2 0 .3h-.8zm-1.4-.5c-.2-.1-.2-.2 0-.3s.6-.1.8 0c.2.1.2.2 0 .3-.2.1-.6.1-.8 0zm-2.7-.9c-.2-.1-.2-.2 0-.3s.6-.1.8 0c.2.1.2.2 0 .3-.2.1-.6.1-.8 0zm-1.4-.4c-.2-.1-.2-.2 0-.3s.6-.1.8 0c.2.1.2.2 0 .3h-.8zm-1.3-.5c-.2-.1-.2-.2 0-.3s.6-.1.8 0c.2.1.2.2 0 .3-.3.1-.6.1-.8 0zm-1.4-.5c-.2-.1-.2-.2 0-.3s.6-.1.8 0c.2.1.2.2 0 .3-.2.1-.6.1-.8 0zm-1.3-.4c-.2-.1-.2-.2 0-.3s.6-.1.8 0c.2.1.2.2 0 .3-.3.1-.6.1-.8 0zm-1.4-.5c-.2-.1-.2-.2 0-.3s.6-.1.8 0c.2.1.2.2 0 .3-.2.1-.6.1-.8 0zm-1.3-.4c-.2-.1-.2-.2 0-.3s.6-.1.8 0c.2.1.2.2 0 .3-.3.1-.6.1-.8 0zm-1.4-.5c-.2-.1-.2-.2 0-.3s.6-.1.8 0c.2.1.2.2 0 .3-.2.1-.6.1-.8 0zm-1.4-.4c-.2-.1-.2-.2 0-.3s.6-.1.8 0c.2.1.2.2 0 .3h-.8zm-1.3-.5c-.2-.1-.2-.2 0-.3s.6-.1.8 0c.2.1.2.2 0 .3-.3.1-.6.1-.8 0zm-1.4-.4c-.2-.1-.2-.2 0-.3s.6-.1.8 0c.2.1.2.2 0 .3h-.8zm-1.3-.5c-.2-.1-.2-.2 0-.3s.6-.1.8 0c.2.1.2.2 0 .3-.3.1-.6.1-.8 0zm-1.4-.4c-.2-.1-.2-.2 0-.3s.6-.1.8 0c.2.1.2.2 0 .3h-.8zm-1.3-.5c-.2-.1-.2-.2 0-.3s.6-.1.8 0c.2.1.2.2 0 .3-.3.1-.6.1-.8 0zm-1.4-.4c-.2-.1-.2-.2 0-.3s.6-.1.8 0c.2.1.2.2 0 .3h-.8zm-1.4-.5c-.2-.1-.2-.2 0-.3s.6-.1.8 0c.2.1.2.2 0 .3-.2.1-.5.1-.8 0zm-1.3-.5c-.2-.1-.2-.2 0-.3s.6-.1.8 0c.2.1.2.2 0 .3-.3.1-.6.1-.8 0zm-1.4-.4c-.2-.1-.2-.2 0-.3s.6-.1.8 0c.2.1.2.2 0 .3-.2.1-.6.1-.8 0zm59.7 20.9c-.2-.1-.2-.2 0-.3s.6-.1.8 0c.2.1.2.2 0 .3h-.8zm-1.3-.5c-.2-.1-.2-.2 0-.3s.6-.1.8 0c.2.1.2.2 0 .3-.3.1-.6.1-.8 0zm-1.4-.4c-.2-.1-.2-.2 0-.3s.6-.1.8 0c.2.1.2.2 0 .3h-.8zm-1.3-.5c-.2-.1-.2-.2 0-.3s.6-.1.8 0c.2.1.2.2 0 .3-.3.1-.6.1-.8 0zm-1.4-.4c-.2-.1-.2-.2 0-.3s.6-.1.8 0c.2.1.2.2 0 .3h-.8zm-1.3-.5c-.2-.1-.2-.2 0-.3s.6-.1.8 0c.2.1.2.2 0 .3-.3.1-.6.1-.8 0zm-1.4-.4c-.2-.1-.2-.2 0-.3s.6-.1.8 0c.2.1.2.2 0 .3h-.8zm-1.4-.5c-.2-.1-.2-.2 0-.3s.6-.1.8 0c.2.1.2.2 0 .3-.2.1-.5.1-.8 0z"/><ellipse class="st12" cx="404.3" cy="543.5" rx=".5" ry=".2"/><path class="st12" d="M402.5 543.2c-.2-.1-.2-.2 0-.3s.6-.1.8 0c.2.1.2.2 0 .3-.2.1-.6.1-.8 0zm-1.3-.5c-.2-.1-.2-.2 0-.3s.6-.1.8 0c.2.1.2.2 0 .3-.3.1-.6.1-.8 0zm-1.4-.4c-.2-.1-.2-.2 0-.3s.6-.1.8 0c.2.1.2.2 0 .3-.2.1-.6.1-.8 0zm-1.3-.5c-.2-.1-.2-.2 0-.3s.6-.1.8 0c.2.1.2.2 0 .3-.3.1-.6.1-.8 0zm-1.4-.4c-.2-.1-.2-.2 0-.3s.6-.1.8 0c.2.1.2.2 0 .3h-.8zm-1.4-.5c-.2-.1-.2-.2 0-.3s.6-.1.8 0c.2.1.2.2 0 .3s-.5.1-.8 0zm-1.3-.4c-.2-.1-.2-.2 0-.3s.6-.1.8 0c.2.1.2.2 0 .3h-.8zm-1.4-.5c-.2-.1-.2-.2 0-.3s.6-.1.8 0c.2.1.2.2 0 .3-.2.1-.6.1-.8 0zm-1.3-.4c-.2-.1-.2-.2 0-.3s.6-.1.8 0c.2.1.2.2 0 .3h-.8zm-1.4-.5c-.2-.1-.2-.2 0-.3s.6-.1.8 0c.2.1.2.2 0 .3-.2.1-.6.1-.8 0zm-1.3-.5c-.2-.1-.2-.2 0-.3s.6-.1.8 0c.2.1.2.2 0 .3-.3.1-.6.1-.8 0zm-1.4-.4c-.2-.1-.2-.2 0-.3s.6-.1.8 0c.2.1.2.2 0 .3-.2.1-.6.1-.8 0zm-5.4-1.8c-.2-.1-.2-.2 0-.3s.6-.1.8 0c.2.1.2.2 0 .3h-.8zm-1.4-.5c-.2-.1-.2-.2 0-.3s.6-.1.8 0c.2.1.2.2 0 .3-.2.1-.6.1-.8 0zm-1.3-.4c-.2-.1-.2-.2 0-.3s.6-.1.8 0c.2.1.2.2 0 .3h-.8zm-1.4-.5c-.2-.1-.2-.2 0-.3s.6-.1.8 0c.2.1.2.2 0 .3-.2.1-.6.1-.8 0zm-1.4-.4c-.2-.1-.2-.2 0-.3s.6-.1.8 0c.2.1.2.2 0 .3h-.8zm-1.3-.5c-.2-.1-.2-.2 0-.3s.6-.1.8 0c.2.1.2.2 0 .3-.3.1-.6.1-.8 0zm-1.4-.4c-.2-.1-.2-.2 0-.3s.6-.1.8 0c.2.1.2.2 0 .3h-.8zm-1.3-.5c-.2-.1-.2-.2 0-.3s.6-.1.8 0c.2.1.2.2 0 .3-.3.1-.6.1-.8 0zm-1.4-.5c-.2-.1-.2-.2 0-.3s.6-.1.8 0c.2.1.2.2 0 .3-.2.1-.6.1-.8 0zm-1.3-.4c-.2-.1-.2-.2 0-.3s.6-.1.8 0c.2.1.2.2 0 .3-.3.1-.6.1-.8 0zm-1.4-.5c-.2-.1-.2-.2 0-.3s.6-.1.8 0c.2.1.2.2 0 .3-.2.1-.6.1-.8 0zm-1.4-.4c-.2-.1-.2-.2 0-.3s.6-.1.8 0c.2.1.2.2 0 .3s-.5.1-.8 0zm-1.3-.5c-.2-.1-.2-.2 0-.3s.6-.1.8 0c.2.1.2.2 0 .3-.3.1-.6.1-.8 0zm-1.4-.4c-.2-.1-.2-.2 0-.3s.6-.1.8 0c.2.1.2.2 0 .3h-.8zm-1.3-.5c-.2-.1-.2-.2 0-.3s.6-.1.8 0c.2.1.2.2 0 .3-.3.1-.6.1-.8 0zm-1.4-.4c-.2-.1-.2-.2 0-.3s.6-.1.8 0c.2.1.2.2 0 .3h-.8zm-1.3-.5c-.2-.1-.2-.2 0-.3s.6-.1.8 0c.2.1.2.2 0 .3-.3.1-.6.1-.8 0zm-1.4-.4c-.2-.1-.2-.2 0-.3s.6-.1.8 0c.2.1.2.2 0 .3h-.8zm-1.4-.5c-.2-.1-.2-.2 0-.3s.6-.1.8 0c.2.1.2.2 0 .3s-.5.1-.8 0zm-1.3-.4c-.2-.1-.2-.2 0-.3s.6-.1.8 0c.2.1.2.2 0 .3h-.8zm-1.4-.5c-.2-.1-.2-.2 0-.3s.6-.1.8 0c.2.1.2.2 0 .3-.2.1-.6.1-.8 0zm58.4 20.4c-.2-.1-.2-.2 0-.3s.6-.1.8 0c.2.1.2.2 0 .3-.3.1-.6.1-.8 0zm-1.4-.4c-.2-.1-.2-.2 0-.3s.6-.1.8 0c.2.1.2.2 0 .3h-.8zm-1.3-.5c-.2-.1-.2-.2 0-.3s.6-.1.8 0c.2.1.2.2 0 .3-.3.1-.6.1-.8 0zm-1.4-.4c-.2-.1-.2-.2 0-.3s.6-.1.8 0c.2.1.2.2 0 .3h-.8zm-2.7-.9c-.2-.1-.2-.2 0-.3s.6-.1.8 0c.2.1.2.2 0 .3h-.8zm-1.4-.5c-.2-.1-.2-.2 0-.3s.6-.1.8 0c.2.1.2.2 0 .3s-.5.1-.8 0zm-1.3-.4c-.2-.1-.2-.2 0-.3s.6-.1.8 0c.2.1.2.2 0 .3h-.8zm-1.4-.5c-.2-.1-.2-.2 0-.3s.6-.1.8 0c.2.1.2.2 0 .3-.2.1-.6.1-.8 0zm-1.3-.5c-.2-.1-.2-.2 0-.3s.6-.1.8 0c.2.1.2.2 0 .3-.3.1-.6.1-.8 0zm-1.4-.4c-.2-.1-.2-.2 0-.3s.6-.1.8 0c.2.1.2.2 0 .3-.2.1-.6.1-.8 0zm-1.3-.5c-.2-.1-.2-.2 0-.3s.6-.1.8 0c.2.1.2.2 0 .3-.3.1-.6.1-.8 0zm-1.4-.4c-.2-.1-.2-.2 0-.3s.6-.1.8 0c.2.1.2.2 0 .3-.2.1-.6.1-.8 0zm-1.4-.5c-.2-.1-.2-.2 0-.3s.6-.1.8 0c.2.1.2.2 0 .3-.2.1-.5.1-.8 0zm-1.3-.4c-.2-.1-.2-.2 0-.3s.6-.1.8 0c.2.1.2.2 0 .3h-.8zm-1.4-.5c-.2-.1-.2-.2 0-.3s.6-.1.8 0c.2.1.2.2 0 .3-.2.1-.6.1-.8 0zm-1.3-.4c-.2-.1-.2-.2 0-.3s.6-.1.8 0c.2.1.2.2 0 .3h-.8zm-1.4-.5c-.2-.1-.2-.2 0-.3s.6-.1.8 0c.2.1.2.2 0 .3-.2.1-.6.1-.8 0zm-1.3-.4c-.2-.1-.2-.2 0-.3s.6-.1.8 0c.2.1.2.2 0 .3h-.8zm-2.8-1c-.2-.1-.2-.2 0-.3s.6-.1.8 0c.2.1.2.2 0 .3-.2.1-.5.1-.8 0zm-1.3-.4c-.2-.1-.2-.2 0-.3s.6-.1.8 0c.2.1.2.2 0 .3-.3.1-.6.1-.8 0zm-4.1-1.4c-.2-.1-.2-.2 0-.3s.6-.1.8 0c.2.1.2.2 0 .3-.2.1-.6.1-.8 0zm-1.3-.4c-.2-.1-.2-.2 0-.3s.6-.1.8 0c.2.1.2.2 0 .3h-.8zm-1.4-.5c-.2-.1-.2-.2 0-.3s.6-.1.8 0c.2.1.2.2 0 .3-.2.1-.6.1-.8 0zm-1.4-.4c-.2-.1-.2-.2 0-.3s.6-.1.8 0c.2.1.2.2 0 .3h-.8zm-1.3-.5c-.2-.1-.2-.2 0-.3s.6-.1.8 0c.2.1.2.2 0 .3-.3.1-.6.1-.8 0zm-1.4-.4c-.2-.1-.2-.2 0-.3s.6-.1.8 0c.2.1.2.2 0 .3h-.8zm-1.3-.5c-.2-.1-.2-.2 0-.3s.6-.1.8 0c.2.1.2.2 0 .3-.3.1-.6.1-.8 0zm-1.4-.4c-.2-.1-.2-.2 0-.3s.6-.1.8 0c.2.1.2.2 0 .3h-.8zm-1.3-.5c-.2-.1-.2-.2 0-.3s.6-.1.8 0c.2.1.2.2 0 .3-.3.1-.6.1-.8 0zm-1.4-.5c-.2-.1-.2-.2 0-.3s.6-.1.8 0c.2.1.2.2 0 .3-.2.1-.6.1-.8 0zm-1.4-.4c-.2-.1-.2-.2 0-.3s.6-.1.8 0c.2.1.2.2 0 .3-.2.1-.5.1-.8 0zm-1.3-.5c-.2-.1-.2-.2 0-.3s.6-.1.8 0c.2.1.2.2 0 .3-.3.1-.6.1-.8 0zm-1.4-.4c-.2-.1-.2-.2 0-.3s.6-.1.8 0c.2.1.2.2 0 .3-.2.1-.6.1-.8 0zm-1.3-.5c-.2-.1-.2-.2 0-.3s.6-.1.8 0c.2.1.2.2 0 .3-.3.1-.6.1-.8 0zm-1.4-.4c-.2-.1-.2-.2 0-.3s.6-.1.8 0c.2.1.2.2 0 .3h-.8zm-1.3-.5c-.2-.1-.2-.2 0-.3s.6-.1.8 0c.2.1.2.2 0 .3-.3.1-.6.1-.8 0zm-1.4-.4c-.2-.1-.2-.2 0-.3s.6-.1.8 0c.2.1.2.2 0 .3h-.8zm-1.4-.5c-.2-.1-.2-.2 0-.3s.6-.1.8 0c.2.1.2.2 0 .3-.2.1-.5.1-.8 0zm-2.7-.9c-.2-.1-.2-.2 0-.3s.6-.1.8 0c.2.1.2.2 0 .3-.2.1-.6.1-.8 0zm-1.3-.4c-.2-.1-.2-.2 0-.3s.6-.1.8 0c.2.1.2.2 0 .3h-.8zm-1.4-.5c-.2-.1-.2-.2 0-.3s.6-.1.8 0c.2.1.2.2 0 .3-.2.1-.6.1-.8 0zm52.9 18.6c-.2-.1-.2-.2 0-.3s.6-.1.8 0c.2.1.2.2 0 .3s-.5.1-.8 0zm-1.3-.4c-.2-.1-.2-.2 0-.3s.6-.1.8 0c.2.1.2.2 0 .3h-.8zm-1.4-.5c-.2-.1-.2-.2 0-.3s.6-.1.8 0c.2.1.2.2 0 .3-.2.1-.6.1-.8 0zm-1.3-.4c-.2-.1-.2-.2 0-.3s.6-.1.8 0c.2.1.2.2 0 .3h-.8zm-1.4-.5c-.2-.1-.2-.2 0-.3s.6-.1.8 0c.2.1.2.2 0 .3-.2.1-.6.1-.8 0zm-1.3-.5c-.2-.1-.2-.2 0-.3s.6-.1.8 0c.2.1.2.2 0 .3-.3.1-.6.1-.8 0zm-1.4-.4c-.2-.1-.2-.2 0-.3s.6-.1.8 0c.2.1.2.2 0 .3-.2.1-.6.1-.8 0zm-1.4-.5c-.2-.1-.2-.2 0-.3s.6-.1.8 0c.2.1.2.2 0 .3s-.5.1-.8 0zm-1.3-.4c-.2-.1-.2-.2 0-.3s.6-.1.8 0c.2.1.2.2 0 .3-.3.1-.6.1-.8 0zm-1.4-.5c-.2-.1-.2-.2 0-.3s.6-.1.8 0c.2.1.2.2 0 .3-.2.1-.6.1-.8 0zm-1.3-.4c-.2-.1-.2-.2 0-.3s.6-.1.8 0c.2.1.2.2 0 .3h-.8zm-1.4-.5c-.2-.1-.2-.2 0-.3s.6-.1.8 0c.2.1.2.2 0 .3-.2.1-.6.1-.8 0zm-1.3-.4c-.2-.1-.2-.2 0-.3s.6-.1.8 0c.2.1.2.2 0 .3h-.8zm-6.8-2.3c-.2-.1-.2-.2 0-.3s.6-.1.8 0c.2.1.2.2 0 .3-.3.1-.6.1-.8 0zm-1.4-.5c-.2-.1-.2-.2 0-.3s.6-.1.8 0c.2.1.2.2 0 .3-.2.1-.6.1-.8 0zm-1.3-.4c-.2-.1-.2-.2 0-.3s.6-.1.8 0c.2.1.2.2 0 .3-.3.1-.6.1-.8 0zm-1.4-.5c-.2-.1-.2-.2 0-.3s.6-.1.8 0c.2.1.2.2 0 .3-.2.1-.6.1-.8 0zm-1.4-.4c-.2-.1-.2-.2 0-.3s.6-.1.8 0c.2.1.2.2 0 .3h-.8zm-1.3-.5c-.2-.1-.2-.2 0-.3s.6-.1.8 0c.2.1.2.2 0 .3-.3.1-.6.1-.8 0zm-1.4-.4c-.2-.1-.2-.2 0-.3s.6-.1.8 0c.2.1.2.2 0 .3h-.8zm-1.3-.5c-.2-.1-.2-.2 0-.3s.6-.1.8 0c.2.1.2.2 0 .3-.3.1-.6.1-.8 0zm-1.4-.4c-.2-.1-.2-.2 0-.3s.6-.1.8 0c.2.1.2.2 0 .3h-.8zm-1.3-.5c-.2-.1-.2-.2 0-.3s.6-.1.8 0c.2.1.2.2 0 .3-.3.1-.6.1-.8 0zm-1.4-.4c-.2-.1-.2-.2 0-.3s.6-.1.8 0c.2.1.2.2 0 .3h-.8zm-1.4-.5c-.2-.1-.2-.2 0-.3s.6-.1.8 0c.2.1.2.2 0 .3s-.5.1-.8 0zm-1.3-.5c-.2-.1-.2-.2 0-.3s.6-.1.8 0c.2.1.2.2 0 .3-.3.1-.6.1-.8 0zm-1.4-.4c-.2-.1-.2-.2 0-.3s.6-.1.8 0c.2.1.2.2 0 .3-.2.1-.6.1-.8 0zm-1.3-.5c-.2-.1-.2-.2 0-.3s.6-.1.8 0c.2.1.2.2 0 .3-.3.1-.6.1-.8 0zm-1.4-.4c-.2-.1-.2-.2 0-.3s.6-.1.8 0c.2.1.2.2 0 .3-.2.1-.6.1-.8 0zm-1.3-.5c-.2-.1-.2-.2 0-.3s.6-.1.8 0c.2.1.2.2 0 .3-.3.1-.6.1-.8 0zm-1.4-.4c-.2-.1-.2-.2 0-.3s.6-.1.8 0c.2.1.2.2 0 .3h-.8zm-1.4-.5c-.2-.1-.2-.2 0-.3s.6-.1.8 0c.2.1.2.2 0 .3s-.5.1-.8 0zm-1.3-.4c-.2-.1-.2-.2 0-.3s.6-.1.8 0c.2.1.2.2 0 .3h-.8zm-1.4-.5c-.2-.1-.2-.2 0-.3s.6-.1.8 0c.2.1.2.2 0 .3-.2.1-.6.1-.8 0zm-2.7-.9c-.2-.1-.2-.2 0-.3s.6-.1.8 0c.2.1.2.2 0 .3-.2.1-.6.1-.8 0zm51.6 18.2c-.2-.1-.2-.2 0-.3s.6-.1.8 0c.2.1.2.2 0 .3h-.8zm-1.4-.5c-.2-.1-.2-.2 0-.3s.6-.1.8 0c.2.1.2.2 0 .3-.2.1-.6.1-.8 0zm-1.3-.4c-.2-.1-.2-.2 0-.3s.6-.1.8 0c.2.1.2.2 0 .3h-.8zm-1.4-.5c-.2-.1-.2-.2 0-.3s.6-.1.8 0c.2.1.2.2 0 .3-.2.1-.6.1-.8 0zm-1.3-.4c-.2-.1-.2-.2 0-.3s.6-.1.8 0c.2.1.2.2 0 .3h-.8zm-1.4-.5c-.2-.1-.2-.2 0-.3s.6-.1.8 0c.2.1.2.2 0 .3-.2.1-.6.1-.8 0zm-1.4-.5c-.2-.1-.2-.2 0-.3s.6-.1.8 0c.2.1.2.2 0 .3-.2.1-.5.1-.8 0zm-1.3-.4c-.2-.1-.2-.2 0-.3s.6-.1.8 0c.2.1.2.2 0 .3-.3.1-.6.1-.8 0zm-1.4-.5c-.2-.1-.2-.2 0-.3s.6-.1.8 0c.2.1.2.2 0 .3-.2.1-.6.1-.8 0zm-1.3-.4c-.2-.1-.2-.2 0-.3s.6-.1.8 0c.2.1.2.2 0 .3-.3.1-.6.1-.8 0zm-1.4-.5c-.2-.1-.2-.2 0-.3s.6-.1.8 0c.2.1.2.2 0 .3-.2.1-.6.1-.8 0zm-8.1-2.7c-.2-.1-.2-.2 0-.3s.6-.1.8 0c.2.1.2.2 0 .3-.3.1-.6.1-.8 0zm-1.4-.5c-.2-.1-.2-.2 0-.3s.6-.1.8 0c.2.1.2.2 0 .3-.2.1-.6.1-.8 0zm-1.3-.4c-.2-.1-.2-.2 0-.3s.6-.1.8 0c.2.1.2.2 0 .3-.3.1-.6.1-.8 0zm-1.4-.5c-.2-.1-.2-.2 0-.3s.6-.1.8 0c.2.1.2.2 0 .3-.2.1-.6.1-.8 0zm-1.4-.4c-.2-.1-.2-.2 0-.3s.6-.1.8 0c.2.1.2.2 0 .3-.2.1-.5.1-.8 0zm-1.3-.5c-.2-.1-.2-.2 0-.3s.6-.1.8 0c.2.1.2.2 0 .3-.3.1-.6.1-.8 0zm-1.4-.4c-.2-.1-.2-.2 0-.3s.6-.1.8 0c.2.1.2.2 0 .3h-.8zm-1.3-.5c-.2-.1-.2-.2 0-.3s.6-.1.8 0c.2.1.2.2 0 .3-.3.1-.6.1-.8 0zm-1.4-.4c-.2-.1-.2-.2 0-.3s.6-.1.8 0c.2.1.2.2 0 .3h-.8zm-1.3-.5c-.2-.1-.2-.2 0-.3s.6-.1.8 0c.2.1.2.2 0 .3-.3.1-.6.1-.8 0zm-1.4-.4c-.2-.1-.2-.2 0-.3s.6-.1.8 0c.2.1.2.2 0 .3h-.8zm-1.4-.5c-.2-.1-.2-.2 0-.3s.6-.1.8 0c.2.1.2.2 0 .3-.2.1-.5.1-.8 0zm-1.3-.4c-.2-.1-.2-.2 0-.3s.6-.1.8 0c.2.1.2.2 0 .3h-.8zm-1.4-.5c-.2-.1-.2-.2 0-.3s.6-.1.8 0c.2.1.2.2 0 .3-.2.1-.6.1-.8 0zm-1.3-.5c-.2-.1-.2-.2 0-.3s.6-.1.8 0c.2.1.2.2 0 .3-.3.1-.6.1-.8 0zm-1.4-.4c-.2-.1-.2-.2 0-.3s.6-.1.8 0c.2.1.2.2 0 .3-.2.1-.6.1-.8 0zm-1.3-.5c-.2-.1-.2-.2 0-.3s.6-.1.8 0c.2.1.2.2 0 .3-.3.1-.6.1-.8 0zm-1.4-.4c-.2-.1-.2-.2 0-.3s.6-.1.8 0c.2.1.2.2 0 .3-.2.1-.6.1-.8 0zm-1.4-.5c-.2-.1-.2-.2 0-.3s.6-.1.8 0c.2.1.2.2 0 .3s-.5.1-.8 0zm-1.3-.4c-.2-.1-.2-.2 0-.3s.6-.1.8 0c.2.1.2.2 0 .3h-.8zm-1.4-.5c-.2-.1-.2-.2 0-.3s.6-.1.8 0c.2.1.2.2 0 .3-.2.1-.6.1-.8 0zm-1.3-.4c-.2-.1-.2-.2 0-.3s.6-.1.8 0c.2.1.2.2 0 .3h-.8zm-1.4-.5c-.2-.1-.2-.2 0-.3s.6-.1.8 0c.2.1.2.2 0 .3-.2.1-.6.1-.8 0zm-1.3-.4c-.2-.1-.2-.2 0-.3s.6-.1.8 0c.2.1.2.2 0 .3h-.8zm51.5 18.1c-.2-.1-.2-.2 0-.3s.6-.1.8 0c.2.1.2.2 0 .3-.2.1-.6.1-.8 0zm-1.3-.4c-.2-.1-.2-.2 0-.3s.6-.1.8 0c.2.1.2.2 0 .3h-.8zm-1.4-.5c-.2-.1-.2-.2 0-.3s.6-.1.8 0c.2.1.2.2 0 .3-.2.1-.6.1-.8 0zm-1.3-.4c-.2-.1-.2-.2 0-.3s.6-.1.8 0c.2.1.2.2 0 .3h-.8zm-1.4-.5c-.2-.1-.2-.2 0-.3s.6-.1.8 0c.2.1.2.2 0 .3-.2.1-.6.1-.8 0zm-1.4-.4c-.2-.1-.2-.2 0-.3s.6-.1.8 0c.2.1.2.2 0 .3h-.8zm-1.3-.5c-.2-.1-.2-.2 0-.3s.6-.1.8 0c.2.1.2.2 0 .3-.3.1-.6.1-.8 0zm-1.4-.5c-.2-.1-.2-.2 0-.3s.6-.1.8 0c.2.1.2.2 0 .3-.2.1-.6.1-.8 0zm-1.3-.4c-.2-.1-.2-.2 0-.3s.6-.1.8 0c.2.1.2.2 0 .3-.3.1-.6.1-.8 0zm-1.4-.5c-.2-.1-.2-.2 0-.3s.6-.1.8 0c.2.1.2.2 0 .3-.2.1-.6.1-.8 0zm-1.3-.4c-.2-.1-.2-.2 0-.3s.6-.1.8 0c.2.1.2.2 0 .3-.3.1-.6.1-.8 0zm-8.2-2.7c-.2-.1-.2-.2 0-.3s.6-.1.8 0c.2.1.2.2 0 .3h-.8zm-1.3-.5c-.2-.1-.2-.2 0-.3s.6-.1.8 0c.2.1.2.2 0 .3-.3.1-.6.1-.8 0zm-1.4-.5c-.2-.1-.2-.2 0-.3s.6-.1.8 0c.2.1.2.2 0 .3-.2.1-.6.1-.8 0zm-1.4-.4c-.2-.1-.2-.2 0-.3s.6-.1.8 0c.2.1.2.2 0 .3s-.5.1-.8 0zm-1.3-.5c-.2-.1-.2-.2 0-.3s.6-.1.8 0c.2.1.2.2 0 .3-.3.1-.6.1-.8 0zm-1.4-.4c-.2-.1-.2-.2 0-.3s.6-.1.8 0c.2.1.2.2 0 .3-.2.1-.6.1-.8 0zm-1.3-.5c-.2-.1-.2-.2 0-.3s.6-.1.8 0c.2.1.2.2 0 .3-.3.1-.6.1-.8 0zm-1.4-.4c-.2-.1-.2-.2 0-.3s.6-.1.8 0c.2.1.2.2 0 .3h-.8zm-1.3-.5c-.2-.1-.2-.2 0-.3s.6-.1.8 0c.2.1.2.2 0 .3-.3.1-.6.1-.8 0zm-1.4-.4c-.2-.1-.2-.2 0-.3s.6-.1.8 0c.2.1.2.2 0 .3h-.8zm-1.4-.5c-.2-.1-.2-.2 0-.3s.6-.1.8 0c.2.1.2.2 0 .3s-.5.1-.8 0zm-1.3-.4c-.2-.1-.2-.2 0-.3s.6-.1.8 0c.2.1.2.2 0 .3h-.8zm-1.4-.5c-.2-.1-.2-.2 0-.3s.6-.1.8 0c.2.1.2.2 0 .3-.2.1-.6.1-.8 0zm-1.3-.4c-.2-.1-.2-.2 0-.3s.6-.1.8 0c.2.1.2.2 0 .3h-.8zm-1.4-.5c-.2-.1-.2-.2 0-.3s.6-.1.8 0c.2.1.2.2 0 .3-.2.1-.6.1-.8 0zm-1.3-.5c-.2-.1-.2-.2 0-.3s.6-.1.8 0c.2.1.2.2 0 .3-.3.1-.6.1-.8 0zm-1.4-.4c-.2-.1-.2-.2 0-.3s.6-.1.8 0c.2.1.2.2 0 .3-.2.1-.6.1-.8 0zm-1.4-.5c-.2-.1-.2-.2 0-.3s.6-.1.8 0c.2.1.2.2 0 .3-.2.1-.5.1-.8 0zm-1.3-.4c-.2-.1-.2-.2 0-.3s.6-.1.8 0c.2.1.2.2 0 .3-.3.1-.6.1-.8 0zm-1.4-.5c-.2-.1-.2-.2 0-.3s.6-.1.8 0c.2.1.2.2 0 .3-.2.1-.6.1-.8 0zm-1.3-.4c-.2-.1-.2-.2 0-.3s.6-.1.8 0c.2.1.2.2 0 .3h-.8zm-1.4-.5c-.2-.1-.2-.2 0-.3s.6-.1.8 0c.2.1.2.2 0 .3-.2.1-.6.1-.8 0zm-1.3-.4c-.2-.1-.2-.2 0-.3s.6-.1.8 0c.2.1.2.2 0 .3h-.8zm-1.4-.5c-.2-.1-.2-.2 0-.3s.6-.1.8 0c.2.1.2.2 0 .3-.2.1-.6.1-.8 0zm51.6 18.2c-.2-.1-.2-.2 0-.3s.6-.1.8 0c.2.1.2.2 0 .3h-.8zm-1.4-.5c-.2-.1-.2-.2 0-.3s.6-.1.8 0c.2.1.2.2 0 .3-.2.1-.6.1-.8 0zm-1.3-.4c-.2-.1-.2-.2 0-.3s.6-.1.8 0c.2.1.2.2 0 .3h-.8zm-1.4-.5c-.2-.1-.2-.2 0-.3s.6-.1.8 0c.2.1.2.2 0 .3-.2.1-.6.1-.8 0zm-1.4-.4c-.2-.1-.2-.2 0-.3s.6-.1.8 0c.2.1.2.2 0 .3h-.8zm-1.3-.5c-.2-.1-.2-.2 0-.3s.6-.1.8 0c.2.1.2.2 0 .3-.3.1-.6.1-.8 0zm-1.4-.4c-.2-.1-.2-.2 0-.3s.6-.1.8 0c.2.1.2.2 0 .3h-.8zm-1.3-.5c-.2-.1-.2-.2 0-.3s.6-.1.8 0c.2.1.2.2 0 .3-.3.1-.6.1-.8 0zm-1.4-.5c-.2-.1-.2-.2 0-.3s.6-.1.8 0c.2.1.2.2 0 .3-.2.1-.6.1-.8 0zm-1.3-.4c-.2-.1-.2-.2 0-.3s.6-.1.8 0c.2.1.2.2 0 .3-.3.1-.6.1-.8 0zm-1.4-.5c-.2-.1-.2-.2 0-.3s.6-.1.8 0c.2.1.2.2 0 .3-.2.1-.6.1-.8 0zm-9.5-3.1c-.2-.1-.2-.2 0-.3s.6-.1.8 0c.2.1.2.2 0 .3h-.8zm-1.4-.5c-.2-.1-.2-.2 0-.3s.6-.1.8 0c.2.1.2.2 0 .3-.2.1-.5.1-.8 0zm-1.3-.5c-.2-.1-.2-.2 0-.3s.6-.1.8 0c.2.1.2.2 0 .3-.3.1-.6.1-.8 0zm-1.4-.4c-.2-.1-.2-.2 0-.3s.6-.1.8 0c.2.1.2.2 0 .3-.2.1-.6.1-.8 0zm-1.3-.5c-.2-.1-.2-.2 0-.3s.6-.1.8 0c.2.1.2.2 0 .3-.3.1-.6.1-.8 0zm-1.4-.4c-.2-.1-.2-.2 0-.3s.6-.1.8 0c.2.1.2.2 0 .3-.2.1-.6.1-.8 0zm-1.3-.5c-.2-.1-.2-.2 0-.3s.6-.1.8 0c.2.1.2.2 0 .3-.3.1-.6.1-.8 0zm-1.4-.4c-.2-.1-.2-.2 0-.3s.6-.1.8 0c.2.1.2.2 0 .3h-.8zm-1.4-.5c-.2-.1-.2-.2 0-.3s.6-.1.8 0c.2.1.2.2 0 .3s-.5.1-.8 0zm-1.3-.4c-.2-.1-.2-.2 0-.3s.6-.1.8 0c.2.1.2.2 0 .3h-.8zm-1.4-.5c-.2-.1-.2-.2 0-.3s.6-.1.8 0c.2.1.2.2 0 .3-.2.1-.6.1-.8 0zm-1.3-.4c-.2-.1-.2-.2 0-.3s.6-.1.8 0c.2.1.2.2 0 .3h-.8zm-1.4-.5c-.2-.1-.2-.2 0-.3s.6-.1.8 0c.2.1.2.2 0 .3-.2.1-.6.1-.8 0zm-1.3-.4c-.2-.1-.2-.2 0-.3s.6-.1.8 0c.2.1.2.2 0 .3h-.8zm-1.4-.5c-.2-.1-.2-.2 0-.3s.6-.1.8 0c.2.1.2.2 0 .3-.2.1-.6.1-.8 0zm-1.4-.5c-.2-.1-.2-.2 0-.3s.6-.1.8 0c.2.1.2.2 0 .3s-.5.1-.8 0zm-1.3-.4c-.2-.1-.2-.2 0-.3s.6-.1.8 0c.2.1.2.2 0 .3-.3.1-.6.1-.8 0zm-1.4-.5c-.2-.1-.2-.2 0-.3s.6-.1.8 0c.2.1.2.2 0 .3-.2.1-.6.1-.8 0zm-1.3-.4c-.2-.1-.2-.2 0-.3s.6-.1.8 0c.2.1.2.2 0 .3-.3.1-.6.1-.8 0zm-1.4-.5c-.2-.1-.2-.2 0-.3s.6-.1.8 0c.2.1.2.2 0 .3-.2.1-.6.1-.8 0zm-1.3-.4c-.2-.1-.2-.2 0-.3s.6-.1.8 0c.2.1.2.2 0 .3h-.8zm-1.4-.5c-.2-.1-.2-.2 0-.3s.6-.1.8 0c.2.1.2.2 0 .3-.2.1-.6.1-.8 0zm50.2 17.7c-.2-.1-.2-.2 0-.3s.6-.1.8 0c.2.1.2.2 0 .3-.2.1-.6.1-.8 0zm-1.3-.4c-.2-.1-.2-.2 0-.3s.6-.1.8 0c.2.1.2.2 0 .3h-.8zm-1.4-.5c-.2-.1-.2-.2 0-.3s.6-.1.8 0c.2.1.2.2 0 .3-.2.1-.6.1-.8 0zm-1.4-.4c-.2-.1-.2-.2 0-.3s.6-.1.8 0c.2.1.2.2 0 .3h-.8zm-1.3-.5c-.2-.1-.2-.2 0-.3s.6-.1.8 0c.2.1.2.2 0 .3-.3.1-.6.1-.8 0zm-1.4-.4c-.2-.1-.2-.2 0-.3s.6-.1.8 0c.2.1.2.2 0 .3h-.8zm-1.3-.5c-.2-.1-.2-.2 0-.3s.6-.1.8 0c.2.1.2.2 0 .3-.3.1-.6.1-.8 0zm-1.4-.4c-.2-.1-.2-.2 0-.3s.6-.1.8 0c.2.1.2.2 0 .3h-.8zm-1.3-.5c-.2-.1-.2-.2 0-.3s.6-.1.8 0c.2.1.2.2 0 .3-.3.1-.6.1-.8 0zm-10.9-3.6c-.2-.1-.2-.2 0-.3s.6-.1.8 0c.2.1.2.2 0 .3h-.8zm-1.4-.5c-.2-.1-.2-.2 0-.3s.6-.1.8 0c.2.1.2.2 0 .3s-.5.1-.8 0zm-1.3-.4c-.2-.1-.2-.2 0-.3s.6-.1.8 0c.2.1.2.2 0 .3h-.8zm-1.4-.5c-.2-.1-.2-.2 0-.3s.6-.1.8 0c.2.1.2.2 0 .3-.2.1-.6.1-.8 0zm-1.3-.5c-.2-.1-.2-.2 0-.3s.6-.1.8 0c.2.1.2.2 0 .3-.3.1-.6.1-.8 0zm-1.4-.4c-.2-.1-.2-.2 0-.3s.6-.1.8 0c.2.1.2.2 0 .3-.2.1-.6.1-.8 0zm-1.3-.5c-.2-.1-.2-.2 0-.3s.6-.1.8 0c.2.1.2.2 0 .3-.3.1-.6.1-.8 0zm-1.4-.4c-.2-.1-.2-.2 0-.3s.6-.1.8 0c.2.1.2.2 0 .3-.2.1-.6.1-.8 0zm-1.4-.5c-.2-.1-.2-.2 0-.3s.6-.1.8 0c.2.1.2.2 0 .3-.2.1-.5.1-.8 0zm-1.3-.4c-.2-.1-.2-.2 0-.3s.6-.1.8 0c.2.1.2.2 0 .3h-.8zm-1.4-.5c-.2-.1-.2-.2 0-.3s.6-.1.8 0c.2.1.2.2 0 .3-.2.1-.6.1-.8 0zm-1.3-.4c-.2-.1-.2-.2 0-.3s.6-.1.8 0c.2.1.2.2 0 .3h-.8zm-1.4-.5c-.2-.1-.2-.2 0-.3s.6-.1.8 0c.2.1.2.2 0 .3-.2.1-.6.1-.8 0zm-1.3-.4c-.2-.1-.2-.2 0-.3s.6-.1.8 0c.2.1.2.2 0 .3h-.8zm-1.4-.5c-.2-.1-.2-.2 0-.3s.6-.1.8 0c.2.1.2.2 0 .3-.2.1-.6.1-.8 0zm-1.4-.4c-.2-.1-.2-.2 0-.3s.6-.1.8 0c.2.1.2.2 0 .3h-.8zm-1.3-.5c-.2-.1-.2-.2 0-.3s.6-.1.8 0c.2.1.2.2 0 .3-.3.1-.6.1-.8 0zm-1.4-.5c-.2-.1-.2-.2 0-.3s.6-.1.8 0 .2.2 0 .3c-.2.1-.6.1-.8 0zm-1.3-.4c-.2-.1-.2-.2 0-.3s.6-.1.8 0c.2.1.2.2 0 .3-.3.1-.6.1-.8 0zm-1.4-.5c-.2-.1-.2-.2 0-.3s.6-.1.8 0c.2.1.2.2 0 .3-.2.1-.6.1-.8 0zm-1.3-.4c-.2-.1-.2-.2 0-.3s.6-.1.8 0c.2.1.2.2 0 .3-.3.1-.6.1-.8 0zm-1.4-.5c-.2-.1-.2-.2 0-.3s.6-.1.8 0c.2.1.2.2 0 .3-.2.1-.6.1-.8 0zm-1.4-.4c-.2-.1-.2-.2 0-.3s.6-.1.8 0c.2.1.2.2 0 .3h-.8zm50.3 17.7c-.2-.1-.2-.2 0-.3s.6-.1.8 0c.2.1.2.2 0 .3-.3.1-.6.1-.8 0zm-1.4-.5c-.2-.1-.2-.2 0-.3s.6-.1.8 0c.2.1.2.2 0 .3-.2.1-.6.1-.8 0zm-1.4-.4c-.2-.1-.2-.2 0-.3s.6-.1.8 0c.2.1.2.2 0 .3h-.8zm-1.3-.5c-.2-.1-.2-.2 0-.3s.6-.1.8 0c.2.1.2.2 0 .3-.3.1-.6.1-.8 0zm-1.4-.4c-.2-.1-.2-.2 0-.3s.6-.1.8 0c.2.1.2.2 0 .3h-.8zm-1.3-.5c-.2-.1-.2-.2 0-.3s.6-.1.8 0c.2.1.2.2 0 .3-.3.1-.6.1-.8 0zm-1.4-.4c-.2-.1-.2-.2 0-.3s.6-.1.8 0c.2.1.2.2 0 .3h-.8zm-1.3-.5c-.2-.1-.2-.2 0-.3s.6-.1.8 0c.2.1.2.2 0 .3-.3.1-.6.1-.8 0zm-12.3-4.1c-.2-.1-.2-.2 0-.3s.6-.1.8 0c.2.1.2.2 0 .3s-.5.1-.8 0zm-1.3-.4c-.2-.1-.2-.2 0-.3s.6-.1.8 0c.2.1.2.2 0 .3h-.8zm-1.4-.5c-.2-.1-.2-.2 0-.3s.6-.1.8 0c.2.1.2.2 0 .3-.2.1-.6.1-.8 0zm-1.3-.4c-.2-.1-.2-.2 0-.3s.6-.1.8 0c.2.1.2.2 0 .3h-.8zm-1.4-.5c-.2-.1-.2-.2 0-.3s.6-.1.8 0c.2.1.2.2 0 .3-.2.1-.6.1-.8 0zm-1.3-.5c-.2-.1-.2-.2 0-.3s.6-.1.8 0c.2.1.2.2 0 .3-.3.1-.6.1-.8 0zm-1.4-.4c-.2-.1-.2-.2 0-.3s.6-.1.8 0c.2.1.2.2 0 .3-.2.1-.6.1-.8 0zm-1.4-.5c-.2-.1-.2-.2 0-.3s.6-.1.8 0c.2.1.2.2 0 .3s-.5.1-.8 0zm-1.3-.4c-.2-.1-.2-.2 0-.3s.6-.1.8 0c.2.1.2.2 0 .3-.3.1-.6.1-.8 0zm-1.4-.5c-.2-.1-.2-.2 0-.3s.6-.1.8 0c.2.1.2.2 0 .3-.2.1-.6.1-.8 0zm-1.3-.4c-.2-.1-.2-.2 0-.3s.6-.1.8 0c.2.1.2.2 0 .3h-.8zm-1.4-.5c-.2-.1-.2-.2 0-.3s.6-.1.8 0c.2.1.2.2 0 .3-.2.1-.6.1-.8 0zm-1.3-.4c-.2-.1-.2-.2 0-.3s.6-.1.8 0c.2.1.2.2 0 .3h-.8zm-1.4-.5c-.2-.1-.2-.2 0-.3s.6-.1.8 0c.2.1.2.2 0 .3-.2.1-.6.1-.8 0zm-1.4-.4c-.2-.1-.2-.2 0-.3s.6-.1.8 0c.2.1.2.2 0 .3h-.8zm-1.3-.5c-.2-.1-.2-.2 0-.3s.6-.1.8 0c.2.1.2.2 0 .3-.3.1-.6.1-.8 0zm-1.4-.4c-.2-.1-.2-.2 0-.3s.6-.1.8 0c.2.1.2.2 0 .3h-.8zm-1.3-.5c-.2-.1-.2-.2 0-.3s.6-.1.8 0c.2.1.2.2 0 .3-.3.1-.6.1-.8 0zm-1.4-.5c-.2-.1-.2-.2 0-.3s.6-.1.8 0c.2.1.2.2 0 .3-.2.1-.6.1-.8 0zm-1.3-.4c-.2-.1-.2-.2 0-.3s.6-.1.8 0c.2.1.2.2 0 .3-.3.1-.6.1-.8 0zm-1.4-.5c-.2-.1-.2-.2 0-.3s.6-.1.8 0c.2.1.2.2 0 .3-.2.1-.6.1-.8 0zm-1.4-.4c-.2-.1-.2-.2 0-.3s.6-.1.8 0c.2.1.2.2 0 .3s-.5.1-.8 0zm-1.3-.5c-.2-.1-.2-.2 0-.3s.6-.1.8 0c.2.1.2.2 0 .3-.3.1-.6.1-.8 0zm48.8 17.3c-.2-.1-.2-.2 0-.3s.6-.1.8 0c.2.1.2.2 0 .3s-.5.1-.8 0zm-1.3-.5c-.2-.1-.2-.2 0-.3s.6-.1.8 0c.2.1.2.2 0 .3-.3.1-.6.1-.8 0zm-1.4-.4c-.2-.1-.2-.2 0-.3s.6-.1.8 0c.2.1.2.2 0 .3h-.8zm-1.3-.5c-.2-.1-.2-.2 0-.3s.6-.1.8 0c.2.1.2.2 0 .3-.3.1-.6.1-.8 0zm-1.4-.4c-.2-.1-.2-.2 0-.3s.6-.1.8 0c.2.1.2.2 0 .3h-.8zm-1.3-.5c-.2-.1-.2-.2 0-.3s.6-.1.8 0c.2.1.2.2 0 .3-.3.1-.6.1-.8 0zm-1.4-.4c-.2-.1-.2-.2 0-.3s.6-.1.8 0c.2.1.2.2 0 .3h-.8zm-12.2-4.1c-.2-.1-.2-.2 0-.3s.6-.1.8 0c.2.1.2.2 0 .3h-.8zm-1.4-.5c-.2-.1-.2-.2 0-.3s.6-.1.8 0c.2.1.2.2 0 .3-.2.1-.6.1-.8 0zm-1.3-.4c-.2-.1-.2-.2 0-.3s.6-.1.8 0c.2.1.2.2 0 .3h-.8zm-1.4-.5c-.2-.1-.2-.2 0-.3s.6-.1.8 0c.2.1.2.2 0 .3-.2.1-.6.1-.8 0zm-1.3-.4c-.2-.1-.2-.2 0-.3s.6-.1.8 0c.2.1.2.2 0 .3h-.8zm-1.4-.5c-.2-.1-.2-.2 0-.3s.6-.1.8 0c.2.1.2.2 0 .3-.2.1-.6.1-.8 0zm-1.4-.5c-.2-.1-.2-.2 0-.3s.6-.1.8 0c.2.1.2.2 0 .3-.2.1-.5.1-.8 0zm-1.3-.4c-.2-.1-.2-.2 0-.3s.6-.1.8 0c.2.1.2.2 0 .3-.3.1-.6.1-.8 0zm-1.4-.5c-.2-.1-.2-.2 0-.3s.6-.1.8 0c.2.1.2.2 0 .3-.2.1-.6.1-.8 0zm-1.3-.4c-.2-.1-.2-.2 0-.3s.6-.1.8 0c.2.1.2.2 0 .3-.3.1-.6.1-.8 0zm-1.4-.5c-.2-.1-.2-.2 0-.3s.6-.1.8 0c.2.1.2.2 0 .3-.2.1-.6.1-.8 0zm-1.3-.4c-.2-.1-.2-.2 0-.3s.6-.1.8 0c.2.1.2.2 0 .3h-.8zm-1.4-.5c-.2-.1-.2-.2 0-.3s.6-.1.8 0c.2.1.2.2 0 .3-.2.1-.6.1-.8 0zm-1.4-.4c-.2-.1-.2-.2 0-.3s.6-.1.8 0c.2.1.2.2 0 .3h-.8zm-1.3-.5c-.2-.1-.2-.2 0-.3s.6-.1.8 0c.2.1.2.2 0 .3-.3.1-.6.1-.8 0zm-1.4-.4c-.2-.1-.2-.2 0-.3s.6-.1.8 0c.2.1.2.2 0 .3h-.8zm-1.3-.5c-.2-.1-.2-.2 0-.3s.6-.1.8 0c.2.1.2.2 0 .3-.3.1-.6.1-.8 0zm-1.4-.4c-.2-.1-.2-.2 0-.3s.6-.1.8 0c.2.1.2.2 0 .3h-.8zm-1.3-.5c-.2-.1-.2-.2 0-.3s.6-.1.8 0c.2.1.2.2 0 .3-.3.1-.6.1-.8 0zm-1.4-.5c-.2-.1-.2-.2 0-.3s.6-.1.8 0c.2.1.2.2 0 .3-.2.1-.6.1-.8 0zm-1.4-.4c-.2-.1-.2-.2 0-.3s.6-.1.8 0c.2.1.2.2 0 .3-.2.1-.5.1-.8 0zm-1.3-.5c-.2-.1-.2-.2 0-.3s.6-.1.8 0c.2.1.2.2 0 .3-.3.1-.6.1-.8 0zm47.5 16.8c-.2-.1-.2-.2 0-.3s.6-.1.8 0c.2.1.2.2 0 .3-.3.1-.6.1-.8 0zm-1.4-.4c-.2-.1-.2-.2 0-.3s.6-.1.8 0c.2.1.2.2 0 .3-.2.1-.6.1-.8 0zm-1.3-.5c-.2-.1-.2-.2 0-.3s.6-.1.8 0c.2.1.2.2 0 .3-.3.1-.6.1-.8 0zm-1.4-.4c-.2-.1-.2-.2 0-.3s.6-.1.8 0c.2.1.2.2 0 .3h-.8zm-1.3-.5c-.2-.1-.2-.2 0-.3s.6-.1.8 0c.2.1.2.2 0 .3-.3.1-.6.1-.8 0zm-1.4-.4c-.2-.1-.2-.2 0-.3s.6-.1.8 0c.2.1.2.2 0 .3h-.8zm-1.4-.5c-.2-.1-.2-.2 0-.3s.6-.1.8 0c.2.1.2.2 0 .3s-.5.1-.8 0zm-1.3-.4c-.2-.1-.2-.2 0-.3s.6-.1.8 0c.2.1.2.2 0 .3h-.8zm-9.5-3.2c-.2-.1-.2-.2 0-.3s.6-.1.8 0c.2.1.2.2 0 .3-.3.1-.6.1-.8 0zm-1.4-.5c-.2-.1-.2-.2 0-.3s.6-.1.8 0c.2.1.2.2 0 .3-.2.1-.6.1-.8 0zm-1.3-.4c-.2-.1-.2-.2 0-.3s.6-.1.8 0c.2.1.2.2 0 .3h-.8zm-1.4-.5c-.2-.1-.2-.2 0-.3s.6-.1.8 0c.2.1.2.2 0 .3-.2.1-.6.1-.8 0zm-1.3-.4c-.2-.1-.2-.2 0-.3s.6-.1.8 0c.2.1.2.2 0 .3h-.8zm-1.4-.5c-.2-.1-.2-.2 0-.3s.6-.1.8 0c.2.1.2.2 0 .3-.2.1-.6.1-.8 0zm-1.4-.4c-.2-.1-.2-.2 0-.3s.6-.1.8 0c.2.1.2.2 0 .3h-.8zm-1.3-.5c-.2-.1-.2-.2 0-.3s.6-.1.8 0c.2.1.2.2 0 .3-.3.1-.6.1-.8 0zm-1.4-.5c-.2-.1-.2-.2 0-.3s.6-.1.8 0c.2.1.2.2 0 .3-.2.1-.6.1-.8 0zm-1.3-.4c-.2-.1-.2-.2 0-.3s.6-.1.8 0c.2.1.2.2 0 .3-.3.1-.6.1-.8 0zm-1.4-.5c-.2-.1-.2-.2 0-.3s.6-.1.8 0c.2.1.2.2 0 .3-.2.1-.6.1-.8 0zm-1.3-.4c-.2-.1-.2-.2 0-.3s.6-.1.8 0c.2.1.2.2 0 .3-.3.1-.6.1-.8 0zm-1.4-.5c-.2-.1-.2-.2 0-.3s.6-.1.8 0c.2.1.2.2 0 .3-.2.1-.6.1-.8 0zm-1.4-.4c-.2-.1-.2-.2 0-.3s.6-.1.8 0c.2.1.2.2 0 .3h-.8zm-1.3-.5c-.2-.1-.2-.2 0-.3s.6-.1.8 0c.2.1.2.2 0 .3-.3.1-.6.1-.8 0zm-1.4-.4c-.2-.1-.2-.2 0-.3s.6-.1.8 0c.2.1.2.2 0 .3h-.8zm-1.3-.5c-.2-.1-.2-.2 0-.3s.6-.1.8 0c.2.1.2.2 0 .3-.3.1-.6.1-.8 0zm-1.4-.4c-.2-.1-.2-.2 0-.3s.6-.1.8 0c.2.1.2.2 0 .3h-.8zm-1.3-.5c-.2-.1-.2-.2 0-.3s.6-.1.8 0c.2.1.2.2 0 .3-.3.1-.6.1-.8 0zm-1.4-.4c-.2-.1-.2-.2 0-.3s.6-.1.8 0c.2.1.2.2 0 .3h-.8zm-1.4-.5c-.2-.1-.2-.2 0-.3s.6-.1.8 0c.2.1.2.2 0 .3s-.5.1-.8 0zm-1.3-.5c-.2-.1-.2-.2 0-.3s.6-.1.8 0c.2.1.2.2 0 .3-.3.1-.6.1-.8 0zm44.8 15.9c-.2-.1-.2-.2 0-.3s.6-.1.8 0c.2.1.2.2 0 .3-.3.1-.6.1-.8 0zm-1.4-.4c-.2-.1-.2-.2 0-.3s.6-.1.8 0c.2.1.2.2 0 .3-.2.1-.6.1-.8 0zm-1.3-.5c-.2-.1-.2-.2 0-.3s.6-.1.8 0c.2.1.2.2 0 .3-.3.1-.6.1-.8 0zm-1.4-.4c-.2-.1-.2-.2 0-.3s.6-.1.8 0c.2.1.2.2 0 .3h-.8zm-1.4-.5c-.2-.1-.2-.2 0-.3s.6-.1.8 0c.2.1.2.2 0 .3-.2.1-.5.1-.8 0zm-1.3-.4c-.2-.1-.2-.2 0-.3s.6-.1.8 0c.2.1.2.2 0 .3h-.8zm-1.4-.5c-.2-.1-.2-.2 0-.3s.6-.1.8 0c.2.1.2.2 0 .3-.2.1-.6.1-.8 0zm-1.3-.4c-.2-.1-.2-.2 0-.3s.6-.1.8 0c.2.1.2.2 0 .3h-.8zm-8.2-2.8c-.2-.1-.2-.2 0-.3s.6-.1.8 0c.2.1.2.2 0 .3-.2.1-.6.1-.8 0zm-1.3-.4c-.2-.1-.2-.2 0-.3s.6-.1.8 0c.2.1.2.2 0 .3-.3.1-.6.1-.8 0zm-1.4-.5c-.2-.1-.2-.2 0-.3s.6-.1.8 0c.2.1.2.2 0 .3-.2.1-.6.1-.8 0zm-1.3-.4c-.2-.1-.2-.2 0-.3s.6-.1.8 0c.2.1.2.2 0 .3h-.8zm-1.4-.5c-.2-.1-.2-.2 0-.3s.6-.1.8 0c.2.1.2.2 0 .3-.2.1-.6.1-.8 0zm-1.4-.4c-.2-.1-.2-.2 0-.3s.6-.1.8 0c.2.1.2.2 0 .3h-.8zm-1.3-.5c-.2-.1-.2-.2 0-.3s.6-.1.8 0c.2.1.2.2 0 .3-.3.1-.6.1-.8 0zm-1.4-.4c-.2-.1-.2-.2 0-.3s.6-.1.8 0c.2.1.2.2 0 .3h-.8zm-1.3-.5c-.2-.1-.2-.2 0-.3s.6-.1.8 0c.2.1.2.2 0 .3-.3.1-.6.1-.8 0zm-1.4-.5c-.2-.1-.2-.2 0-.3s.6-.1.8 0c.2.1.2.2 0 .3-.2.1-.6.1-.8 0zm-1.3-.4c-.2-.1-.2-.2 0-.3s.6-.1.8 0c.2.1.2.2 0 .3-.3.1-.6.1-.8 0zm-1.4-.5c-.2-.1-.2-.2 0-.3s.6-.1.8 0c.2.1.2.2 0 .3-.2.1-.6.1-.8 0zm-4.1-1.3c-.2-.1-.2-.2 0-.3s.6-.1.8 0c.2.1.2.2 0 .3h-.8zm-1.3-.5c-.2-.1-.2-.2 0-.3s.6-.1.8 0c.2.1.2.2 0 .3-.3.1-.6.1-.8 0zm-2.7-.9c-.2-.1-.2-.2 0-.3s.6-.1.8 0c.2.1.2.2 0 .3-.3.1-.6.1-.8 0zm-1.4-.4c-.2-.1-.2-.2 0-.3s.6-.1.8 0c.2.1.2.2 0 .3h-.8zm-1.4-.5c-.2-.1-.2-.2 0-.3s.6-.1.8 0c.2.1.2.2 0 .3-.2.1-.5.1-.8 0zm-2.7-.9c-.2-.1-.2-.2 0-.3s.6-.1.8 0c.2.1.2.2 0 .3-.2.1-.6.1-.8 0zm-4-1.4c-.2-.1-.2-.2 0-.3s.6-.1.8 0c.2.1.2.2 0 .3-.3.1-.6.1-.8 0zm44.7 15.9c-.2-.1-.2-.2 0-.3s.6-.1.8 0c.2.1.2.2 0 .3s-.5.1-.8 0zm-1.3-.4c-.2-.1-.2-.2 0-.3s.6-.1.8 0c.2.1.2.2 0 .3h-.8zm-1.4-.5c-.2-.1-.2-.2 0-.3s.6-.1.8 0c.2.1.2.2 0 .3-.2.1-.6.1-.8 0zm-1.3-.4c-.2-.1-.2-.2 0-.3s.6-.1.8 0c.2.1.2.2 0 .3h-.8zm-1.4-.5c-.2-.1-.2-.2 0-.3s.6-.1.8 0c.2.1.2.2 0 .3-.2.1-.6.1-.8 0zm-8.1-2.7c-.2-.1-.2-.2 0-.3s.6-.1.8 0c.2.1.2.2 0 .3-.3.1-.6.1-.8 0zm-1.4-.5c-.2-.1-.2-.2 0-.3s.6-.1.8 0c.2.1.2.2 0 .3-.2.1-.6.1-.8 0zm-1.3-.4c-.2-.1-.2-.2 0-.3s.6-.1.8 0c.2.1.2.2 0 .3-.3.1-.6.1-.8 0zm-1.4-.5c-.2-.1-.2-.2 0-.3s.6-.1.8 0c.2.1.2.2 0 .3-.2.1-.6.1-.8 0zm-1.4-.4c-.2-.1-.2-.2 0-.3s.6-.1.8 0c.2.1.2.2 0 .3h-.8zm-1.3-.5c-.2-.1-.2-.2 0-.3s.6-.1.8 0c.2.1.2.2 0 .3-.3.1-.6.1-.8 0zm-1.4-.4c-.2-.1-.2-.2 0-.3s.6-.1.8 0c.2.1.2.2 0 .3h-.8zm-1.3-.5c-.2-.1-.2-.2 0-.3s.6-.1.8 0c.2.1.2.2 0 .3-.3.1-.6.1-.8 0zm-1.4-.4c-.2-.1-.2-.2 0-.3s.6-.1.8 0c.2.1.2.2 0 .3h-.8zm-1.3-.5c-.2-.1-.2-.2 0-.3s.6-.1.8 0c.2.1.2.2 0 .3-.3.1-.6.1-.8 0zm-1.4-.5c-.2-.1-.2-.2 0-.3s.6-.1.8 0c.2.1.2.2 0 .3-.2.1-.6.1-.8 0zm-1.4-.4c-.2-.1-.2-.2 0-.3s.6-.1.8 0c.2.1.2.2 0 .3s-.5.1-.8 0zm-4-1.4c-.2-.1-.2-.2 0-.3s.6-.1.8 0c.2.1.2.2 0 .3-.3.1-.6.1-.8 0zm-1.4-.4c-.2-.1-.2-.2 0-.3s.6-.1.8 0c.2.1.2.2 0 .3h-.8zm-2.7-.9c-.2-.1-.2-.2 0-.3s.6-.1.8 0c.2.1.2.2 0 .3h-.8zm-1.4-.5c-.2-.1-.2-.2 0-.3s.6-.1.8 0c.2.1.2.2 0 .3s-.5.1-.8 0zm-1.3-.4c-.2-.1-.2-.2 0-.3s.6-.1.8 0c.2.1.2.2 0 .3h-.8zm-1.4-.5c-.2-.1-.2-.2 0-.3s.6-.1.8 0c.2.1.2.2 0 .3-.2.1-.6.1-.8 0zm-1.3-.4c-.2-.1-.2-.2 0-.3s.6-.1.8 0c.2.1.2.2 0 .3h-.8zm-1.4-.5c-.2-.1-.2-.2 0-.3s.6-.1.8 0c.2.1.2.2 0 .3-.2.1-.6.1-.8 0zm40.7 14.5c-.2-.1-.2-.2 0-.3s.6-.1.8 0c.2.1.2.2 0 .3-.2.1-.6.1-.8 0zm-1.3-.4c-.2-.1-.2-.2 0-.3s.6-.1.8 0c.2.1.2.2 0 .3h-.8zm-1.4-.5c-.2-.1-.2-.2 0-.3s.6-.1.8 0c.2.1.2.2 0 .3-.2.1-.6.1-.8 0zm-1.3-.4c-.2-.1-.2-.2 0-.3s.6-.1.8 0c.2.1.2.2 0 .3h-.8zm-1.4-.5c-.2-.1-.2-.2 0-.3s.6-.1.8 0c.2.1.2.2 0 .3-.2.1-.6.1-.8 0zm-8.1-2.7c-.2-.1-.2-.2 0-.3s.6-.1.8 0c.2.1.2.2 0 .3-.3.1-.6.1-.8 0zm-1.4-.5c-.2-.1-.2-.2 0-.3s.6-.1.8 0c.2.1.2.2 0 .3-.2.1-.6.1-.8 0zm-1.4-.4c-.2-.1-.2-.2 0-.3s.6-.1.8 0c.2.1.2.2 0 .3-.2.1-.5.1-.8 0zm-1.3-.5c-.2-.1-.2-.2 0-.3s.6-.1.8 0c.2.1.2.2 0 .3-.3.1-.6.1-.8 0zm-1.4-.4c-.2-.1-.2-.2 0-.3s.6-.1.8 0c.2.1.2.2 0 .3h-.8zm-1.3-.5c-.2-.1-.2-.2 0-.3s.6-.1.8 0c.2.1.2.2 0 .3-.3.1-.6.1-.8 0zm-1.4-.4c-.2-.1-.2-.2 0-.3s.6-.1.8 0c.2.1.2.2 0 .3h-.8zm-1.3-.5c-.2-.1-.2-.2 0-.3s.6-.1.8 0c.2.1.2.2 0 .3-.3.1-.6.1-.8 0zm-1.4-.4c-.2-.1-.2-.2 0-.3s.6-.1.8 0c.2.1.2.2 0 .3h-.8zm-1.4-.5c-.2-.1-.2-.2 0-.3s.6-.1.8 0c.2.1.2.2 0 .3-.2.1-.5.1-.8 0zm-6.7-2.3c-.2-.1-.2-.2 0-.3s.6-.1.8 0c.2.1.2.2 0 .3-.3.1-.6.1-.8 0zm-2.8-.9c-.2-.1-.2-.2 0-.3s.6-.1.8 0c.2.1.2.2 0 .3s-.5.1-.8 0zm-1.3-.4c-.2-.1-.2-.2 0-.3s.6-.1.8 0c.2.1.2.2 0 .3h-.8zm-1.4-.5c-.2-.1-.2-.2 0-.3s.6-.1.8 0c.2.1.2.2 0 .3-.2.1-.6.1-.8 0zm-1.3-.4c-.2-.1-.2-.2 0-.3s.6-.1.8 0c.2.1.2.2 0 .3h-.8zm-1.4-.5c-.2-.1-.2-.2 0-.3s.6-.1.8 0c.2.1.2.2 0 .3-.2.1-.6.1-.8 0zm-1.3-.4c-.2-.1-.2-.2 0-.3s.6-.1.8 0c.2.1.2.2 0 .3h-.8zm40.7 14.5c-.2-.1-.2-.2 0-.3s.6-.1.8 0c.2.1.2.2 0 .3-.3.1-.6.1-.8 0zm-1.4-.5c-.2-.1-.2-.2 0-.3s.6-.1.8 0c.2.1.2.2 0 .3-.2.1-.6.1-.8 0zm-1.3-.4c-.2-.1-.2-.2 0-.3s.6-.1.8 0c.2.1.2.2 0 .3h-.8zm-1.4-.5c-.2-.1-.2-.2 0-.3s.6-.1.8 0c.2.1.2.2 0 .3-.2.1-.6.1-.8 0zm-1.4-.4c-.2-.1-.2-.2 0-.3s.6-.1.8 0c.2.1.2.2 0 .3h-.8zm-1.3-.5c-.2-.1-.2-.2 0-.3s.6-.1.8 0c.2.1.2.2 0 .3-.3.1-.6.1-.8 0zm-1.4-.4c-.2-.1-.2-.2 0-.3s.6-.1.8 0c.2.1.2.2 0 .3h-.8zm-1.3-.5c-.2-.1-.2-.2 0-.3s.6-.1.8 0c.2.1.2.2 0 .3-.3.1-.6.1-.8 0zm-8.2-2.7c-.2-.1-.2-.2 0-.3s.6-.1.8 0c.2.1.2.2 0 .3-.2.1-.6.1-.8 0zm-1.3-.5c-.2-.1-.2-.2 0-.3s.6-.1.8 0c.2.1.2.2 0 .3-.3.1-.6.1-.8 0zm-1.4-.4c-.2-.1-.2-.2 0-.3s.6-.1.8 0c.2.1.2.2 0 .3h-.8zm-1.3-.5c-.2-.1-.2-.2 0-.3s.6-.1.8 0c.2.1.2.2 0 .3-.3.1-.6.1-.8 0zm-1.4-.4c-.2-.1-.2-.2 0-.3s.6-.1.8 0c.2.1.2.2 0 .3h-.8zm-1.4-.5c-.2-.1-.2-.2 0-.3s.6-.1.8 0c.2.1.2.2 0 .3s-.5.1-.8 0zm-12.2-4.1c-.2-.1-.2-.2 0-.3s.6-.1.8 0c.2.1.2.2 0 .3-.2.1-.6.1-.8 0zm-1.3-.4c-.2-.1-.2-.2 0-.3s.6-.1.8 0c.2.1.2.2 0 .3h-.8zm-1.4-.5c-.2-.1-.2-.2 0-.3s.6-.1.8 0c.2.1.2.2 0 .3-.2.1-.6.1-.8 0zm-1.3-.4c-.2-.1-.2-.2 0-.3s.6-.1.8 0c.2.1.2.2 0 .3h-.8zm-1.4-.5c-.2-.1-.2-.2 0-.3s.6-.1.8 0c.2.1.2.2 0 .3-.2.1-.6.1-.8 0zm-1.4-.4c-.2-.1-.2-.2 0-.3s.6-.1.8 0c.2.1.2.2 0 .3h-.8zm-1.3-.5c-.2-.1-.2-.2 0-.3s.6-.1.8 0c.2.1.2.2 0 .3-.2.1-.6.1-.8 0zm-1.4-.5c-.2-.1-.2-.2 0-.3s.6-.1.8 0c.2.1.2.2 0 .3-.2.1-.6.1-.8 0zm-1.3-.4c-.2-.1-.2-.2 0-.3s.6-.1.8 0c.2.1.2.2 0 .3-.3.1-.6.1-.8 0zm46.1 16.3c-.2-.1-.2-.2 0-.3s.6-.1.8 0c.2.1.2.2 0 .3-.2.1-.6.1-.8 0zm-1.3-.4c-.2-.1-.2-.2 0-.3s.6-.1.8 0c.2.1.2.2 0 .3-.3.1-.6.1-.8 0zm-1.4-.5c-.2-.1-.2-.2 0-.3s.6-.1.8 0c.2.1.2.2 0 .3-.2.1-.6.1-.8 0zm-1.4-.4c-.2-.1-.2-.2 0-.3s.6-.1.8 0c.2.1.2.2 0 .3h-.8zm-1.3-.5c-.2-.1-.2-.2 0-.3s.6-.1.8 0c.2.1.2.2 0 .3-.3.1-.6.1-.8 0zm-1.4-.4c-.2-.1-.2-.2 0-.3s.6-.1.8 0c.2.1.2.2 0 .3h-.8zm-1.3-.5c-.2-.1-.2-.2 0-.3s.6-.1.8 0c.2.1.2.2 0 .3-.3.1-.6.1-.8 0zm-1.4-.4c-.2-.1-.2-.2 0-.3s.6-.1.8 0c.2.1.2.2 0 .3h-.8zm-9.5-3.2c-.2-.1-.2-.2 0-.3s.6-.1.8 0c.2.1.2.2 0 .3-.2.1-.6.1-.8 0zm-1.3-.5c-.2-.1-.2-.2 0-.3s.6-.1.8 0c.2.1.2.2 0 .3-.3.1-.6.1-.8 0zm-1.4-.4c-.2-.1-.2-.2 0-.3s.6-.1.8 0c.2.1.2.2 0 .3h-.8zm-1.4-.5c-.2-.1-.2-.2 0-.3s.6-.1.8 0c.2.1.2.2 0 .3s-.5.1-.8 0zm-1.3-.4c-.2-.1-.2-.2 0-.3s.6-.1.8 0c.2.1.2.2 0 .3h-.8zm-1.4-.5c-.2-.1-.2-.2 0-.3s.6-.1.8 0c.2.1.2.2 0 .3-.2.1-.6.1-.8 0zm-12.2-4.1c-.2-.1-.2-.2 0-.3s.6-.1.8 0c.2.1.2.2 0 .3-.2.1-.6.1-.8 0zm-1.3-.4c-.2-.1-.2-.2 0-.3s.6-.1.8 0c.2.1.2.2 0 .3h-.8zm-1.4-.5c-.2-.1-.2-.2 0-.3s.6-.1.8 0c.2.1.2.2 0 .3-.2.1-.6.1-.8 0zm-1.4-.4c-.2-.1-.2-.2 0-.3s.6-.1.8 0c.2.1.2.2 0 .3h-.8zm-1.3-.5c-.2-.1-.2-.2 0-.3s.6-.1.8 0c.2.1.2.2 0 .3-.2.1-.6.1-.8 0zm-1.4-.4c-.2-.1-.2-.2 0-.3s.6-.1.8 0c.2.1.2.2 0 .3h-.8zm-1.3-.5c-.2-.1-.2-.2 0-.3s.6-.1.8 0c.2.1.2.2 0 .3-.3.1-.6.1-.8 0zm-1.4-.5c-.2-.1-.2-.2 0-.3s.6-.1.8 0c.2.1.2.2 0 .3-.2.1-.6.1-.8 0zm-1.3-.4c-.2-.1-.2-.2 0-.3s.6-.1.8 0c.2.1.2.2 0 .3-.3.1-.6.1-.8 0zm47.5 16.8c-.2-.1-.2-.2 0-.3s.6-.1.8 0c.2.1.2.2 0 .3-.3.1-.6.1-.8 0zm-1.4-.5c-.2-.1-.2-.2 0-.3s.6-.1.8 0c.2.1.2.2 0 .3-.2.1-.6.1-.8 0zm-1.4-.4c-.2-.1-.2-.2 0-.3s.6-.1.8 0c.2.1.2.2 0 .3s-.5.1-.8 0zm-1.3-.5c-.2-.1-.2-.2 0-.3s.6-.1.8 0c.2.1.2.2 0 .3-.3.1-.6.1-.8 0zm-1.4-.4c-.2-.1-.2-.2 0-.3s.6-.1.8 0c.2.1.2.2 0 .3h-.8zm-1.3-.5c-.2-.1-.2-.2 0-.3s.6-.1.8 0c.2.1.2.2 0 .3-.3.1-.6.1-.8 0zm-1.4-.4c-.2-.1-.2-.2 0-.3s.6-.1.8 0c.2.1.2.2 0 .3h-.8zm-9.5-3.2c-.2-.1-.2-.2 0-.3s.6-.1.8 0c.2.1.2.2 0 .3-.2.1-.6.1-.8 0zm-1.3-.5c-.2-.1-.2-.2 0-.3s.6-.1.8 0c.2.1.2.2 0 .3-.3.1-.6.1-.8 0zm-1.4-.4c-.2-.1-.2-.2 0-.3s.6-.1.8 0c.2.1.2.2 0 .3-.2.1-.6.1-.8 0zm-1.4-.5c-.2-.1-.2-.2 0-.3s.6-.1.8 0c.2.1.2.2 0 .3-.2.1-.5.1-.8 0zm-1.3-.4c-.2-.1-.2-.2 0-.3s.6-.1.8 0c.2.1.2.2 0 .3h-.8zm-1.4-.5c-.2-.1-.2-.2 0-.3s.6-.1.8 0c.2.1.2.2 0 .3-.2.1-.6.1-.8 0zm-1.3-.4c-.2-.1-.2-.2 0-.3s.6-.1.8 0c.2.1.2.2 0 .3h-.8zm-15-5c-.2-.1-.2-.2 0-.3s.6-.1.8 0c.2.1.2.2 0 .3h-.8zm-1.3-.5c-.2-.1-.2-.2 0-.3s.6-.1.8 0c.2.1.2.2 0 .3-.2.1-.6.1-.8 0zm-1.4-.4c-.2-.1-.2-.2 0-.3s.6-.1.8 0c.2.1.2.2 0 .3h-.8zm-1.3-.5c-.2-.1-.2-.2 0-.3s.6-.1.8 0c.2.1.2.2 0 .3-.3.1-.6.1-.8 0zm-1.4-.4c-.2-.1-.2-.2 0-.3s.6-.1.8 0c.2.1.2.2 0 .3h-.8zm-4.1-1.4c-.2-.1-.2-.2 0-.3s.6-.1.8 0c.2.1.2.2 0 .3-.2.1-.5.1-.8 0zm47.5 16.8c-.2-.1-.2-.2 0-.3s.6-.1.8 0c.2.1.2.2 0 .3-.2.1-.5.1-.8 0zm-1.3-.5c-.2-.1-.2-.2 0-.3s.6-.1.8 0c.2.1.2.2 0 .3-.3.1-.6.1-.8 0zm-1.4-.4c-.2-.1-.2-.2 0-.3s.6-.1.8 0c.2.1.2.2 0 .3-.2.1-.6.1-.8 0zm-1.3-.5c-.2-.1-.2-.2 0-.3s.6-.1.8 0c.2.1.2.2 0 .3-.3.1-.6.1-.8 0zm-1.4-.4c-.2-.1-.2-.2 0-.3s.6-.1.8 0c.2.1.2.2 0 .3h-.8zm-1.3-.5c-.2-.1-.2-.2 0-.3s.6-.1.8 0c.2.1.2.2 0 .3-.3.1-.6.1-.8 0zm-10.9-3.6c-.2-.1-.2-.2 0-.3s.6-.1.8 0c.2.1.2.2 0 .3-.2.1-.6.1-.8 0zm-1.4-.5c-.2-.1-.2-.2 0-.3s.6-.1.8 0c.2.1.2.2 0 .3s-.5.1-.8 0zm-1.3-.4c-.2-.1-.2-.2 0-.3s.6-.1.8 0c.2.1.2.2 0 .3-.3.1-.6.1-.8 0zm-1.4-.5c-.2-.1-.2-.2 0-.3s.6-.1.8 0c.2.1.2.2 0 .3-.2.1-.6.1-.8 0zm-1.3-.4c-.2-.1-.2-.2 0-.3s.6-.1.8 0c.2.1.2.2 0 .3h-.8zm-1.4-.5c-.2-.1-.2-.2 0-.3s.6-.1.8 0c.2.1.2.2 0 .3-.2.1-.6.1-.8 0zm-12.2-4.1c-.2-.1-.2-.2 0-.3s.6-.1.8 0c.2.1.2.2 0 .3-.2.1-.6.1-.8 0zm-1.4-.4c-.2-.1-.2-.2 0-.3s.6-.1.8 0c.2.1.2.2 0 .3h-.8zm-1.3-.5c-.2-.1-.2-.2 0-.3s.6-.1.8 0c.2.1.2.2 0 .3-.2.1-.6.1-.8 0zm-1.4-.4c-.2-.1-.2-.2 0-.3s.6-.1.8 0c.2.1.2.2 0 .3h-.8zm-1.3-.5c-.2-.1-.2-.2 0-.3s.6-.1.8 0c.2.1.2.2 0 .3-.3.1-.6.1-.8 0zm-1.4-.4c-.2-.1-.2-.2 0-.3s.6-.1.8 0c.2.1.2.2 0 .3h-.8zm-1.3-.5c-.2-.1-.2-.2 0-.3s.6-.1.8 0c.2.1.2.2 0 .3-.3.1-.6.1-.8 0zm-2.8-.9c-.2-.1-.2-.2 0-.3s.6-.1.8 0c.2.1.2.2 0 .3s-.5.1-.8 0zm-1.3-.5c-.2-.1-.2-.2 0-.3s.6-.1.8 0c.2.1.2.2 0 .3-.2.1-.6.1-.8 0zm47.5 16.8c-.2-.1-.2-.2 0-.3s.6-.1.8 0c.2.1.2.2 0 .3-.3.1-.6.1-.8 0zm-1.4-.4c-.2-.1-.2-.2 0-.3s.6-.1.8 0c.2.1.2.2 0 .3-.2.1-.6.1-.8 0zm-1.3-.5c-.2-.1-.2-.2 0-.3s.6-.1.8 0c.2.1.2.2 0 .3-.3.1-.6.1-.8 0zm-1.4-.4c-.2-.1-.2-.2 0-.3s.6-.1.8 0c.2.1.2.2 0 .3-.2.1-.6.1-.8 0zm-1.3-.5c-.2-.1-.2-.2 0-.3s.6-.1.8 0c.2.1.2.2 0 .3-.3.1-.6.1-.8 0zm-12.3-4.1c-.2-.1-.2-.2 0-.3s.6-.1.8 0c.2.1.2.2 0 .3-.2.1-.5.1-.8 0zm-1.3-.4c-.2-.1-.2-.2 0-.3s.6-.1.8 0c.2.1.2.2 0 .3-.3.1-.6.1-.8 0zm-1.4-.5c-.2-.1-.2-.2 0-.3s.6-.1.8 0c.2.1.2.2 0 .3-.2.1-.6.1-.8 0zm-1.3-.4c-.2-.1-.2-.2 0-.3s.6-.1.8 0c.2.1.2.2 0 .3-.3.1-.6.1-.8 0zm-15-5c-.2-.1-.2-.2 0-.3s.6-.1.8 0c.2.1.2.2 0 .3-.2.1-.5.1-.8 0zm-1.3-.5c-.2-.1-.2-.2 0-.3s.6-.1.8 0c.2.1.2.2 0 .3-.2.1-.6.1-.8 0zm-1.4-.4c-.2-.1-.2-.2 0-.3s.6-.1.8 0c.2.1.2.2 0 .3h-.8zm-1.3-.5c-.2-.1-.2-.2 0-.3s.6-.1.8 0c.2.1.2.2 0 .3-.3.1-.6.1-.8 0zm-1.4-.4c-.2-.1-.2-.2 0-.3s.6-.1.8 0c.2.1.2.2 0 .3h-.8zm-1.3-.5c-.2-.1-.2-.2 0-.3s.6-.1.8 0c.2.1.2.2 0 .3-.3.1-.6.1-.8 0zm-1.4-.4c-.2-.1-.2-.2 0-.3s.6-.1.8 0c.2.1.2.2 0 .3h-.8zM374 550c-.2-.1-.2-.2 0-.3s.6-.1.8 0c.2.1.2.2 0 .3-.2.1-.6.1-.8 0zm-1.3-.5c-.2-.1-.2-.2 0-.3s.6-.1.8 0c.2.1.2.2 0 .3-.3.1-.6.1-.8 0zm-1.4-.4c-.2-.1-.2-.2 0-.3s.6-.1.8 0c.2.1.2.2 0 .3-.2.1-.6.1-.8 0zm-1.3-.5c-.2-.1-.2-.2 0-.3s.6-.1.8 0c.2.1.2.2 0 .3-.3.1-.6.1-.8 0zm-13.6-4.5c-.2-.1-.2-.2 0-.3s.6-.1.8 0c.2.1.2.2 0 .3-.3.1-.6.1-.8 0zm-1.4-.5c-.2-.1-.2-.2 0-.3s.6-.1.8 0c.2.1.2.2 0 .3-.2.1-.6.1-.8 0zm-1.3-.4c-.2-.1-.2-.2 0-.3s.6-.1.8 0c.2.1.2.2 0 .3-.3.1-.6.1-.8 0zm-16.3-5.5c-.2-.1-.2-.2 0-.3s.6-.1.8 0c.2.1.2.2 0 .3-.2.1-.6.1-.8 0zm-1.4-.4c-.2-.1-.2-.2 0-.3s.6-.1.8 0c.2.1.2.2 0 .3-.2.1-.6.1-.8 0zm-1.3-.5c-.2-.1-.2-.2 0-.3s.6-.1.8 0c.2.1.2.2 0 .3-.3.1-.6.1-.8 0zm-1.4-.4c-.2-.1-.2-.2 0-.3s.6-.1.8 0c.2.1.2.2 0 .3h-.8zm-1.3-.5c-.2-.1-.2-.2 0-.3s.6-.1.8 0c.2.1.2.2 0 .3-.3.1-.6.1-.8 0zm-1.4-.4c-.2-.1-.2-.2 0-.3s.6-.1.8 0c.2.1.2.2 0 .3h-.8zm-1.4-.5c-.2-.1-.2-.2 0-.3s.6-.1.8 0c.2.1.2.2 0 .3s-.5.1-.8 0zm43.5 15.5c-.2-.1-.2-.2 0-.3s.6-.1.8 0c.2.1.2.2 0 .3h-.8zm-1.4-.5c-.2-.1-.2-.2 0-.3s.6-.1.8 0c.2.1.2.2 0 .3-.2.1-.6.1-.8 0zm-1.3-.5c-.2-.1-.2-.2 0-.3s.6-.1.8 0c.2.1.2.2 0 .3-.3.1-.6.1-.8 0zm-1.4-.4c-.2-.1-.2-.2 0-.3s.6-.1.8 0c.2.1.2.2 0 .3-.2.1-.6.1-.8 0zM332 536.8c-.2-.1-.2-.2 0-.3s.6-.1.8 0c.2.1.2.2 0 .3-.3.1-.6.1-.8 0zm-1.4-.4c-.2-.1-.2-.2 0-.3s.6-.1.8 0c.2.1.2.2 0 .3h-.8zm-1.4-.5c-.2-.1-.2-.2 0-.3s.6-.1.8 0c.2.1.2.2 0 .3s-.5.1-.8 0zm-1.3-.4c-.2-.1-.2-.2 0-.3s.6-.1.8 0c.2.1.2.2 0 .3h-.8zm-4.1-1.4c-.2-.1-.2-.2 0-.3s.6-.1.8 0c.2.1.2.2 0 .3-.2.1-.6.1-.8 0zm47.5 16.8c-.2-.1-.2-.2 0-.3s.6-.1.8 0c.2.1.2.2 0 .3-.2.1-.6.1-.8 0zm-1.3-.4c-.2-.1-.2-.2 0-.3s.6-.1.8 0c.2.1.2.2 0 .3h-.8zm-1.4-.5c-.2-.1-.2-.2 0-.3s.6-.1.8 0c.2.1.2.2 0 .3-.2.1-.6.1-.8 0zm-39.4-13.2c-.2-.1-.2-.2 0-.3s.6-.1.8 0c.2.1.2.2 0 .3-.2.1-.5.1-.8 0zm-1.3-.4c-.2-.1-.2-.2 0-.3s.6-.1.8 0c.2.1.2.2 0 .3h-.8zm-4.1-1.4c-.2-.1-.2-.2 0-.3s.6-.1.8 0c.2.1.2.2 0 .3-.2.1-.6.1-.8 0zm-1.3-.4c-.2-.1-.2-.2 0-.3s.6-.1.8 0c.2.1.2.2 0 .3h-.8zm-1.4-.5c-.2-.1-.2-.2 0-.3s.6-.1.8 0c.2.1.2.2 0 .3-.2.1-.6.1-.8 0zm48.9 17.3c-.2-.1-.2-.2 0-.3s.6-.1.8 0c.2.1.2.2 0 .3h-.8zm-1.4-.5c-.2-.1-.2-.2 0-.3s.6-.1.8 0c.2.1.2.2 0 .3-.2.1-.6.1-.8 0zm-1.4-.4c-.2-.1-.2-.2 0-.3s.6-.1.8 0c.2.1.2.2 0 .3h-.8zm-39.3-13.2c-.2-.1-.2-.2 0-.3s.6-.1.8 0c.2.1.2.2 0 .3-.2.1-.6.1-.8 0zm-1.4-.5c-.2-.1-.2-.2 0-.3s.6-.1.8 0c.2.1.2.2 0 .3-.2.1-.6.1-.8 0zm-2.7-.9c-.2-.1-.2-.2 0-.3s.6-.1.8 0c.2.1.2.2 0 .3-.2.1-.6.1-.8 0zm-1.3-.4c-.2-.1-.2-.2 0-.3s.6-.1.8 0c.2.1.2.2 0 .3h-.8zm-1.4-.5c-.2-.1-.2-.2 0-.3s.6-.1.8 0c.2.1.2.2 0 .3-.2.1-.6.1-.8 0zm46.1 16.4c-.2-.1-.2-.2 0-.3s.6-.1.8 0c.2.1.2.2 0 .3h-.8zm-1.3-.5c-.2-.1-.2-.2 0-.3s.6-.1.8 0c.2.1.2.2 0 .3-.3.1-.6.1-.8 0zm-43.4-14.5c-.2-.1-.2-.2 0-.3s.6-.1.8 0c.2.1.2.2 0 .3h-.8zm-1.4-.5c-.2-.1-.2-.2 0-.3s.6-.1.8 0c.2.1.2.2 0 .3-.2.1-.6.1-.8 0z"/></g><g opacity=".17"><linearGradient id="SVGID_00000182508233094727757790000005784233882487795621_" gradientUnits="userSpaceOnUse" x1="329.464" y1="676.215" x2="352.517" y2="60.409" gradientTransform="matrix(1 0 0 -1 0 752)"><stop offset="0" stop-color="#fff" stop-opacity="0"/><stop offset=".657" stop-color="#1cb2df"/></linearGradient><path fill="url(#SVGID_00000182508233094727757790000005784233882487795621_)" d="M288.4 457.7l79.9 26.6 71.2-26.5L581.6 51.7 74.9 35z"/></g></svg>