<svg xmlns="http://www.w3.org/2000/svg" xmlns:xlink="http://www.w3.org/1999/xlink" viewBox="0 0 1920 1080"><style>.st0{fill:#842c43}.st1{fill:#a4434c}.st6{fill:#7b799f}.st8{fill:#ffaa83}.st9{fill:#67413a}.st10{fill:#6e3b4a}.st16{fill:#7da8ff}.st18{opacity:.48;fill:#ffc}.st19{fill:#5b2d3c}.st20{fill:#eb886c}.st22{fill:#894a3f}.st23{fill:#a56052}.st28{opacity:.11}.st41{fill:#00606a}.st44{fill:none;stroke:#858585;stroke-width:3;stroke-miterlimit:10}</style><symbol id="New_Symbol_148" viewBox="-1.8 -2.6 3.6 5.1"><path class="st0" d="M0-2.6c-1 0-1.8.8-1.8 1.8V.8c0 1 .8 1.8 1.8 1.8S1.8 1.8 1.8.8V-.8c0-1-.8-1.8-1.8-1.8z"/></symbol><symbol id="New_Symbol_197" viewBox="-3 -1.3 6.1 2.6"><path class="st1" d="M2.2-1.3c-.3 0-.5.1-.7.3-.8.8-2.2.8-3 0-.3-.3-.9-.3-1.2 0s-.3.9 0 1.2c1.5 1.5 4.1 1.5 5.6 0 .3-.3.3-.9 0-1.2-.3-.2-.5-.3-.7-.3z"/></symbol><symbol id="New_Symbol_206" viewBox="-2.9 -10.9 5.7 21.8"><path d="M1.5-10.8c-3.1-.9-5.2 3.7-4 6.7 1.2 3 4 5.2 5.1 8.3 1.1 3.1-1.2 7.6-4.3 6.5" fill="#b8dded"/></symbol><symbol id="New_Symbol_220" viewBox="-6.6 -4.9 13.2 9.8"><path d="M6.6 3.6C6 .5 3.3-4.9 0-4.9S-6 .5-6.6 3.6c-.1.6.3 1.2.9 1.3H5.6c.7-.1 1.1-.7 1-1.3z" fill="#b03d48"/><path d="M5.6 4.9C4.5 3 2.4 1.8 0 1.8c-2.4 0-4.5 1.2-5.7 3.1H5.6z" fill="#fff"/></symbol><symbol id="New_Symbol_223" viewBox="-16.3 -31.4 32.6 62.8"><path fill="#7b799f" stroke="#7b799f" stroke-miterlimit="10" d="M1-27.7L-14.7-3.4l.2.2 15 24.5.8-.5-14.8-24.2L1.8-27.2z"/><path class="st6" d="M6.6 20.8c-.2-.3-.4-.5-.6-.7l-.1-.2c-1.5-1.5-4-1.5-5.6 0l-4.6 4.6c-1.5 1.5-1.5 4.1 0 5.6l.2.2c.1.1.2.2.3.2.7.6 1.6.9 2.5.9 1 0 2.1-.4 2.8-1.2L6 25.7c.6-.6 1-1.3 1.1-2.1.2-1 0-2-.5-2.8z"/><path class="st6" d="M16.3 22L4 9.6l-5.5 5.5c-3.3 3.3-3.3 8.7 0 12l.3.3c1.4 1.4 3.2 2.2 5.1 2.4 2.5.3 5-.5 6.9-2.4l5.5-5.4zM4.5-29.4h-10v4.2c0 .7.6 1.2 1.2 1.2h7.5c.7 0 1.2-.6 1.2-1.2v-4.2z"/><path class="st6" d="M-10-31.4H8.5v2.5H-10z"/><circle class="st6" cx="-12.9" cy="-4.6" r="3.4"/><path d="M14.8 20.4L11 16.7-1.3 27.3l.1.1c1.4 1.4 3.2 2.2 5.1 2.4l10.9-9.4z" opacity=".48" fill="#cff9ff"/></symbol><symbol id="New_Symbol_236" viewBox="-12.1 -18.2 24.3 36.5"><path class="st8" d="M8.1-18.2H-8.4c-2.4.2-4.1 2.7-3.7 5.4l.8 4.9 2.9 17.3.6 3.4c.5 2.9 2.7 5.1 5.3 5.3l3.4.2c2.8.2 5.3-2 5.9-5l.3-1.7 3.8-18.8 1.1-5.4c.6-2.9-1.3-5.6-3.9-5.6z"/><path class="st9" d="M8.1-18.2H-8.1c-2.5 0-4.4 2.6-3.9 5.4l.8 4.9C-8.8-4.5-4.6-2.2.1-2.2c4.5 0 8.4-2 10.8-5l1.1-5.4c.6-2.9-1.3-5.6-3.9-5.6z"/><path class="st9" d="M-8.4 9.3v-27.5c-2.4.2-4.1 2.7-3.7 5.4l.8 4.9 2.9 17.2zM8.1-18.2h-1v29.8l3.8-18.8 1.1-5.4c.6-2.9-1.3-5.6-3.9-5.6z"/></symbol><symbol id="New_Symbol_281" viewBox="-142.6 -148.1 292 296.2"><path class="st10" d="M50.3 32L30.5 2.8C28.9.4 25.8.1 23.6 2.1l-1 .9c-2.2 2-2.7 5.6-1 8l18.3 27 1.5 2.2c1.6 2.4 4.7 2.7 6.9.7l1-.9c2.1-2 2.6-5.6 1-8z"/><path class="st8" d="M50.3 32L40 38l1.5 2.2c1.6 2.4 4.7 2.7 6.9.7l1-.9c2-2 2.5-5.6.9-8z"/><path class="st6" d="M-26.2-115.3c-2.5 0-4.5 2-4.5 4.5v81.2c0 2.5 2 4.5 4.5 4.5s4.5-2 4.5-4.5v-81.2c0-2.5-2-4.5-4.5-4.5z"/><path class="st6" d="M-1.4-63.5H-51c-3.7 0-6.8 3-6.8 6.8 0 3.7 3 6.8 6.8 6.8h49.7c3.7 0 6.8-3 6.8-6.8-.1-3.7-3.2-6.8-6.9-6.8zm-17.2-54.8h-15.2c-2 0-3.7 1.7-3.7 3.7v12.2c0 2 1.7 3.7 3.7 3.7h15.2c2 0 3.7-1.7 3.7-3.7v-12.2c0-2.1-1.7-3.7-3.7-3.7z"/><use xlink:href="#ÕÓ_x201A__x2DA_È_ÒËÏ_x201A_ÓÎ_14" width="24" height="21" x="-12" y="-10.5" transform="translate(-69.357 -135.658) scale(.8361)" overflow="visible"/><use xlink:href="#ÕÓ_x201A__x2DA_È_ÒËÏ_x201A_ÓÎ_14" width="24" height="21" x="-12" y="-10.5" transform="translate(16.928 -135.658) scale(.8361)" overflow="visible"/><use xlink:href="#ÕÓ_x201A__x2DA_È_ÒËÏ_x201A_ÓÎ_14" width="24" height="21" id="XMLID_00000106853610472336055830000006592537187516586931_" x="-12" y="-10.5" transform="translate(-26.215 -135.658) scale(.8361)" overflow="visible"/><path class="st6" d="M14.8-131.9l-5.3 9.1c-2.7 4.6-7.6 7.4-12.9 7.4h-46c-5.1 0-9.8-2.6-12.6-6.9l-5.2-8.2-5.2 3.3 5.2 8.2c3.9 6.1 10.5 9.7 17.8 9.7h46c7.5 0 14.4-4 18.2-10.4l5.3-9.1-5.3-3.1z"/><path class="st6" d="M-29.3-131.4h6.2v19.1h-6.2z"/><path d="M-77.4 91.2l51.3-.1c9.2 0 17.2-6.6 18.9-15.7l11-72.5c.2-1 .3-1.9.4-2.9L5-23.4c.4-10.7-8.1-19.7-18.8-19.9l-55-1.2-8.8 132.4.2 3.3z" fill="#5aaf8b"/><path d="M30.2-57.2h-78.4v20.6h78.4c5.7 0 10.3-4.6 10.3-10.3 0-5.6-4.6-10.3-10.3-10.3z" fill="#00a980"/><path d="M-90 84.3l10.6-105-7.1-30.3c-.8-3.2 1.9-6.2 5.4-6.2h43.9c6.2 0 11.2 4.6 11.2 10.3 0 5.7-5 10.3-11.2 10.3h-26.7l1.7 20.6-11.1 101.5c-.9 6.9-6.7 6-8.5 5.7-3.6-.7-8.5-3.7-8.2-6.9z" fill="#00c980"/><path class="st1" d="M16.9 107.8V52.9c0-3.1-2.1-5.6-4.8-5.6H-3.2c-12.9.4-24.5 6.7-33 16.7-6.3 7.3-10.9 16.6-13.1 27-.8 3.9-1.3 8-1.5 12.1v5.4c0 .5.1.9.2 1.4.1.9.3 1.7.6 2.5 1.5 4.1 4.9 6.9 8.9 6.9H7.2c3.2 0 6-1.8 7.7-4.6.9-1.4 1.5-2.9 1.8-4.7v-.6c0-.2.1-.4.1-.6.1-.2.1-.6.1-1z"/><path class="st0" d="M2.3 119.3v-72h-4.6c-18.9.2-33.9 18.7-33.9 41.1v30.9H2.3z"/><path class="st10" d="M27.2 2.6l-.2-.1c-3.1-1.5-6.8-.3-8.3 2.8L6.3 30.1-2.6 48c-1.5 3.1-.3 6.8 2.8 8.3l.2.1c3.1 1.5 6.8.3 8.3-2.8L18 34.9l11.9-24c1.6-3.1.4-6.8-2.7-8.3z"/><path d="M2.1 50.8c.3 2.8-1.3 5.5-3.9 6.7l-11.3 4.9c-2.3 1-4.8 1.5-7.3 1.5h-.2c-2.5 0-5-.4-7.3-1.5l-11.3-4.9c-2.6-1.1-4.2-3.8-3.9-6.7L-38.8.7l18.3.3L-2.2.7l4.3 50.1z" fill="#e9e6ed"/><path d="M-20.6 64.4c-7.2 0-13-5.6-13-11.7 0-4.7 2.5-9.2 7.5-10.9l6 6.4 4.9-6c4.4 1.9 7.5 6.1 7.5 10.5.1 6.1-5.7 11.7-12.9 11.7z" fill="#fff4f2"/><g id="New_Symbol_205_00000140727990858041212730000001691204333249148590_"><path class="st16" d="M23.3 26.2h-3.2c-5.2 0-9.4 4.2-9.4 9.4V49c0 .2.1.3.3.3h21.3c.2 0 .3-.1.3-.3V35.6c.1-5.1-4.1-9.4-9.3-9.4z"/><path d="M36 32.9h-6.9c-2.1 0-3.8 1.7-3.8 3.8V42c0 2.1 1.7 3.8 3.8 3.8H36c2.1 0 3.8-1.7 3.8-3.8v-5.3c-.1-2.1-1.8-3.8-3.8-3.8z" fill="none" stroke="#7da8ff" stroke-width="3.109" stroke-miterlimit="10"/><path class="st18" d="M33.4 49.3H26c.2 0 .3-.1.3-.3V35.6c0-4.4-3.1-8.2-7.3-9.1.7-.2 1.4-.2 2.1-.2h3.2c5.2 0 9.4 4.2 9.4 9.4V49c0 .2-.2.3-.3.3z"/></g><path class="st8" d="M42 31.4c-3.9 0-7.2 3.4-7.4 7.8-.2 4.5 2.9 8.4 7 8.7l3.9.2c4.1.3 7.6-3.2 7.8-7.8.2-4.5-2.9-8.4-7-8.7l-3.9-.2H42z"/><path class="st10" d="M3.1-42.3h-47.4c-9 0-16.3 7.3-16.3 16.3v3.9c0 9 7.3 16.3 16.3 16.3H3.1c9 0 16.3-7.3 16.3-16.3V-26c0-9-7.3-16.3-16.3-16.3z"/><path class="st10" d="M-30.6 61.3V-.5c0-11.9-8.8-15.6-19.7-15.6h-1.3l-6 3.4 13.8 26.3-2.5 41.2c-.1 1 .5 1.9 1.4 2.2l9.3 3.2c.8.3 1.7.5 2.6.7.8.2 1.6.4 2.4.4z"/><path class="st19" d="M-30.6 59.8V30.1l-7.6 15.4c-.3.6-.1 1.3.5 1.6l4 2.6c.8.5.8 1.5.2 2l-3.1 2.8c-.5.5-.6 1.2-.2 1.7l3.5 4.3c.2.3.6.5 1 .5.9.3 1.7-.4 1.7-1.2z"/><path class="st10" d="M-10.5 61.3V-.5c0-11.9 8.8-15.6 19.7-15.6h1.3l6 2.4L2.6 13.6l2.5 41.2c.1 1-.5 1.9-1.4 2.2l-9.3 3.2c-1.6.6-3.2 1-4.9 1.1z"/><path class="st19" d="M-10.5 59.8V30.1l7.6 15.4c.3.6.1 1.3-.5 1.6l-4 2.6c-.8.5-.8 1.5-.2 2l3.1 2.8c.5.5.6 1.2.2 1.7l-3.5 4.3c-.2.3-.6.5-1 .5-.9.3-1.7-.4-1.7-1.2z"/><path class="st8" d="M4.4-118.5l-23.9 98.1C-21-15-27.1-11.7-33-13.2c-5.9-1.5-9.2-7.2-7.3-12.5l31.9-96.7 12.8 3.9z"/><path class="st8" d="M26.3-117.6l-24 98.1c-1.4 5.4-7.5 8.7-13.4 7.2-5.9-1.5-9.2-7.2-7.3-12.5l31.9-96.7 12.8 3.9z"/><use xlink:href="#New_Symbol_236" width="24.3" height="36.5" id="XMLID_00000119119747455501488010000001666961840294960042_" x="-12.1" y="-18.2" transform="matrix(.96 0 0 .96 19.634 -130.599)" overflow="visible"/><use xlink:href="#New_Symbol_236" width="24.3" height="36.5" x="-12.1" y="-18.2" transform="matrix(.96 0 0 .96 -2.126 -130.599)" overflow="visible"/><path class="st20" d="M-15.8 81.5V55.9c0-2.8-2.3-5.1-5.1-5.1s-5.1 2.3-5.1 5.1v25.6h10.2z"/><path class="st20" d="M-15.8 83.3V68.8l-10.2 2v12.5z"/><path class="st1" d="M22.3 124.2c0-5.8-2-11.1-5.5-15.2-.1-.1-.2-.3-.4-.4-1.1-1.2-2.3-2.4-3.6-3.4-1.8-1.4-3.7-2.5-5.9-3.3-1.5-.6-3.1-1-4.8-1.3-1.2-.2-2.5-.3-3.8-.3-9 0-16.9 5-20.9 12.4-1.1 2-2 4.2-2.4 6.6-.3 1.6-.5 3.2-.5 4.9v1.2c0 .4 0 .8.1 1.2.2 1.7.5 3.3 1 4.9v.1c.6 1.9 1.5 3.7 2.5 5.4 4.2 6.7 11.7 11.1 20.2 11.1 13.3 0 24-10.7 24-23.9z"/><path class="st1" d="M17 113.5c0-.6 0-1.1-.1-1.7 0-.2 0-.4-.1-.7 0-.4-.1-.8-.1-1.2-.1-.5-.1-.9-.2-1.4-.3-1.3-.6-2.5-1.1-3.7-.8-2-1.8-3.8-3-5.5-.7-.9-1.4-1.8-2.2-2.6-1-.9-2-1.8-3.1-2.6H7c-1.3-.9-2.7-1.7-4.1-2.3-.2-.1-.3-.2-.5-.2h-.1c-2.7-1.1-5.6-1.7-8.7-1.7h-21.1c-1.7 0-3.4.2-5 .5-1.3.3-2.5.6-3.7 1.1h-.1c-.2.1-.5.2-.7.3-.9.4-1.7.8-2.5 1.3-.3.1-.6.3-.8.5-.1 0-.1.1-.2.1-.2.1-.4.3-.6.4-.5.3-1 .7-1.5 1.1-2.5 2.1-4.6 4.7-6 7.7-.1.2-.2.5-.3.7-.2.4-.3.8-.5 1.1-.3.8-.6 1.6-.8 2.4-.2.8-.4 1.6-.5 2.5 0 .1 0 .2-.1.4-.2 1-.2 2.1-.2 3.2 0 1 .1 2 .2 3 .7 5.3 3.1 10 6.7 13.6 2.1 2.1 4.6 3.8 7.3 5 2.9 1.2 6 1.9 9.3 1.9h21.1c10.6 0 19.5-7 22.4-16.5.7-2 1-4.3 1-6.7z"/><path class="st20" d="M7.1 93.7c0-.9-.1-1.8-.2-2.7l.2-.2-.2-.3c-1.3-9.9-8.5-17.7-17.6-19.3h-.6c-.4-.1-.7-.1-1.1-.1-.6-.1-1.3-.1-1.9-.1h-5.3c-.6 0-1.3 0-1.9.1-.5 0-.9.1-1.4.2h-.2c-9.2 1.6-16.4 9.5-17.6 19.3l-.2.3.2.2c-.1.9-.2 1.8-.2 2.7V104c0 8.6 4.5 15.8 10.9 19.5 3.9 2.2 8.4 3.1 13.1 2.3 12.6 2.2 24-8.2 24-21.8V93.7z"/><path class="st8" d="M7.1 93.7c0-.9-.1-1.8-.2-2.7l.2-.2-.2-.3c-1.3-9.9-8.5-17.7-17.6-19.3h-.6c-.2 0-.4.1-.6.1-.1 0-.2 0-.3.1-10.9 1.9-19.4 11.2-21 23l-.3.3.2.3c-.1 1-.2 2.1-.2 3.1v12.2c0 4.9 1.2 9.4 3.4 13.3 3.9 2.2.6 3.7 13.1 3.3 14.8 1.1 24-9.2 24-22.8V93.7z"/><path class="st1" d="M-21.2 130.8v-12.2c0-2.1-.5-4-1.2-5.9-.3-.8-.7-1.5-1.1-2.2-.6-1-1.4-2-2.2-2.8-2-2.1-4.7-3.5-7.6-4.2h-.1c-.5-.1-1-.2-1.6-.3-.4-.1-.8-.1-1.2-.1h-14.6v6.4c-.1 1-.2 2.1-.2 3.2a23.565 23.565 0 0 0 6.9 16.6c2.1 2.1 4.6 3.8 7.3 4.9l12.5-2.8h.1l3-.6z"/><path class="st20" d="M-34.7 98.1c0-1.9-.6-3.6-1.6-5.1-.8-1.2-2-2.2-3.3-2.9-.2-.1-.4-.2-.5-.3-.2-.1-.5-.2-.7-.3-.9-.3-1.9-.5-2.9-.5-.9 0-1.8.1-2.7.4-1.8.6-3.4 1.7-4.5 3.1-1.2 1.5-1.8 3.4-1.8 5.5 0 .9.1 1.8.4 2.6.3 1.1.8 2 1.5 2.9.2.2.4.5.6.7 1.6 1.8 4 2.9 6.6 2.9 3.1 0 5.8-1.6 7.5-3.9.5-.7.9-1.5 1.2-2.4.2-.5.3-1 .3-1.5-.1-.5-.1-.9-.1-1.2z"/><use xlink:href="#New_Symbol_148" width="3.6" height="5.1" x="-1.8" y="-2.6" transform="translate(.536 100.884) scale(1.5639)" overflow="visible"/><use xlink:href="#New_Symbol_148" width="3.6" height="5.1" x="-1.8" y="-2.6" transform="translate(-23.679 100.884) scale(1.5639)" overflow="visible"/><use xlink:href="#New_Symbol_197" width="6.1" height="2.6" x="-3" y="-1.3" transform="translate(-23.375 109.765) scale(1.3125)" overflow="visible"/><use xlink:href="#New_Symbol_197" width="6.1" height="2.6" id="XMLID_00000137131392314666277090000009712174290072200833_" x="-3" y="-1.3" transform="translate(.688 109.765) scale(1.3125)" overflow="visible"/><use xlink:href="#New_Symbol_220" width="13.2" height="9.8" id="XMLID_00000011007308143051423070000016367512144839797679_" x="-6.6" y="-4.9" transform="matrix(1.504 0 0 1.0336 -10.961 86.293)" overflow="visible"/><g id="New_Symbol_19_00000014630842458066656170000015286540537664145032_"><path d="M-37.7 49.8c-.2-1.3-.6-2.6-1.2-3.9l-6.5-12.6-1.8-3.5-9.9-19.1-2.6-5c-1.1-2.1-2.7-3.8-4.7-4.7-.8-.4-1.6-.6-2.3-.7-1.1-.1-2.2.1-3.1.6-1.6.8-2.7 2.5-3 4.6-.3 2.1.1 4.4 1.2 6.5L-60 34.5l2.2 4.2 6.9 13.5c1.1 2.1 2.7 3.8 4.7 4.7.8.4 1.6.6 2.3.7 1.1.1 2.2-.1 3.1-.6 2.3-1.2 3.4-4 3.1-7.2z" fill="#7d5c56"/><path class="st10" d="M-37.7 49.8c-.2-1.3-.6-2.6-1.2-3.9l-6.5-12.6-1.8-3.5-9.9-19.1-2.6-5c-1.1-2.1-2.7-3.8-4.7-4.7-.8-.4-1.6-.6-2.3-.7-1.1-.1-2.2.1-3.1.6-1.6.8-2.7 2.5-3 4.6-.3 2.1.1 4.4 1.2 6.5L-60 34.5l2.2 4.2 6.9 13.5c1.1 2.1 2.7 3.8 4.7 4.7.8.4 1.6.6 2.3.7 1.1.1 2.2-.1 3.1-.6 2.3-1.2 3.4-4 3.1-7.2z"/></g><path class="st8" d="M-21.8-.1c2.4 0 4.6.7 6.3 2 1 .8 1.8 1.7 2.2 2.7.3.7.4 1.4.4 2.1 0 .8-.2 1.6-.6 2.4-.1.2-.2.4-.4.6-.4.6-1 1.2-1.7 1.7-1.7 1.3-3.9 1.9-6.3 1.9l-5.6-.1-5.3-.1.4-13.5 10.6.3z"/><path class="st10" d="M-68.4 12.1c-3.1-1.2-5-3.5-5-6.1 0-1.1.3-2.1.9-3 .4-.6 1-1.2 1.7-1.7 1.7-1.3 3.9-1.9 6.3-1.9l15.2.2h.3l4.5.1 12.2.1-.4 13.5-13.6-.1h-3.9l-14.2-.2c-1.4-.2-2.8-.4-4-.9z"/><path class="st22" d="M-118.9-146.8h11.7V-1.4h-11.7zm207.5 0h11.7V-1.4H88.6z"/><path class="st23" d="M-142.6-10.5h292V1.4h-292z"/><path class="st22" d="M-120.8-19.6h245v11.9h-245z"/><path class="st23" d="M116.6-146.8h11.7V-1.4h-11.7zm-208.5 0h11.7V-1.4h-11.7z"/><path class="st22" d="M-142.6-10.5h50.4V1.4h-50.4z"/><path class="st18" d="M-113.2 69.2l12 17 124.5-85-88.9.7z"/><use xlink:href="#New_Symbol_223" width="32.6" height="62.8" id="XMLID_00000021801761335600768350000013918824647906245806_" x="-16.3" y="-31.4" transform="translate(-114.996 47.871) scale(1.4813)" overflow="visible"/><g id="New_Symbol_217_00000068642332622251194190000015767785819321478057_"><path d="M122.8 42.8L110.6 2.7c-.2-.8-1-1.3-1.8-1.3H14c-1 0-1.8.8-1.8 1.9v.9c0 .9.8 1.8 1.8 1.8h33.9c.3 0 .6.1.9.2.4.2.8.7.9 1.2l5.6 21.5 3.9 14.9c.1.4.4.8.7 1 .3.2.7.3 1.1.3h60c1.3 0 2.2-1.2 1.8-2.3z" fill="#b0c0ff"/><path d="M90.4 23.1c0-2.3-1.9-4.2-4.2-4.2-2.3 0-4.2 1.9-4.2 4.2 0 2.3 1.9 4.2 4.2 4.2 2.3 0 4.2-1.9 4.2-4.2z" fill="#f3fdff"/><path d="M47.9 6c.3 0 .6.1.9.2l-1.4-4.8H14c-1 0-1.8.8-1.8 1.9v.9c0 .9.8 1.8 1.8 1.8h33.9z" opacity=".62" fill="#b8dded"/></g><path class="st18" d="M-24.1 131.6c.1 0 .2.1.3.1 0 0-.1 0-.1-.1-.1.1-.2.1-.2 0zm.4.2c.6.3 1.2.6 1.7.9.7.2 1.3.4 1.8.5-.5-.2-2.6-1-3.5-1.4z"/><path class="st18" d="M16.9 109c0-.4.1-.8.1-1.3V56.6c-1.4 6.7-2.5 13.5-3.4 20.3-.5 3.7-.9 7.3-1.1 11-.2 3.8-.3 7.7-.1 11.5.1 1.9.3 3.9.6 5.8.2 1.4.4 2.8.7 4.2.4 1.8.8 3.6 1.3 5.4.4 1.9.9 3.8 1.1 5.6.4 2.8.4 5.6-.5 8.3-1.9 6.5-8.3 11-15 11.8-5.6.7-11.2-.8-16.1-3.6-1-.6-2-1.2-2.9-1.8-1.2-.8-2.3-1.7-3.5-2.5-4.1-1-10.5-1.9-13.7-2.4-8.3-1.3-14.2-9.6-14.4-17.8 0-2.4.4-4.7 1.4-6.8l.3-.6-1 .1-1.3.1c-.1.1-.1.2-.2.2v4.1c-.1 1-.2 2.1-.2 3.2 0 1.2.1 2.5.3 3.7.7 5.3 3.1 10 6.7 13.6 2.1 2.1 4.6 3.8 7.3 5 2.9 1.2 6 1.9 9.3 1.9h5.8c4.2 6.7 11.7 11.1 20.2 11.1 13.2 0 23.9-10.7 23.9-23.9-.2-5.6-2.2-10.9-5.6-15.1z"/><path class="st18" d="M7.1 104c0 12.3-7.5 21.8-19.8 22.8 9.9-2.5 15.8-11.2 15.8-22.1V94.4c0-.9-.1-1.8-.2-2.7l.2-.2-.2-.3c-1.3-9.9-8.4-17.7-17.6-19.3.8-.2 1.7-.5 2.5-.6.1 0 .2 0 .3-.1.2 0 .4-.1.6-.1h.6c9.2 1.6 16.3 9.5 17.6 19.3l.2.3-.2.3c.1.9.2 1.8.2 2.7V104z"/><use xlink:href="#New_Symbol_206" width="5.7" height="21.8" id="XMLID_00000008122147349184218110000005614085407593749647_" x="-2.9" y="-10.9" transform="matrix(1.4025 -.1054 .1054 1.4025 27.71 69.124)" overflow="visible"/><use xlink:href="#New_Symbol_206" width="5.7" height="21.8" id="XMLID_00000165925288093649308150000010307231604059322264_" x="-2.9" y="-10.9" transform="matrix(1.1139 -.0837 .0837 1.1139 17.528 65.379)" overflow="visible"/></symbol><symbol id="ÕÓ_x201A__x2DA_È_ÒËÏ_x201A_ÓÎ_14" viewBox="-12 -10.5 24 21"><circle cy="-2.5" r="8" fill="#464675"/><path class="st6" d="M11.6-4.5c.2 1 .4 2 .4 3 0 6.6-5.4 12-12 12s-12-5.4-12-12c0-1 .1-2 .4-3h23.2z"/></symbol><g id="Layer_1"><g class="st28"><ellipse class="st16" cx="263" cy="703.7" rx="198.7" ry="26.9"/></g><g class="st28"><path class="st16" d="M263.9 437.2h-2.4c-109.4.7-199.7 104.3-199.7 264.5l1.1 1c0 3 2.4 5.6 5.8 6.7 19.1 12.1 98 21.1 192.7 21.2h2.4c94.7-.1 173.6-9.2 192.7-21.2 3.4-1.1 5.8-3.7 5.8-6.7l1.1-1c.1-160.2-90.2-263.8-199.5-264.5z"/></g><use xlink:href="#New_Symbol_281" width="292" height="296.2" id="XMLID_44_" x="-142.6" y="-148.1" transform="matrix(1.0519 0 0 -1.0519 259.18 557.826)" overflow="visible"/><image width="692" height="220" xlink:href="2F29CFAEDCF63931.png" transform="translate(1255 577)" overflow="visible" opacity=".8"/><linearGradient id="SVGID_1_" gradientUnits="userSpaceOnUse" x1="-1551.201" y1="338.687" x2="-1258.82" y2="338.687" gradientTransform="matrix(.9483 -.3173 1.5758 .5272 2395.043 35.851)"><stop offset=".469" stop-color="#eee"/><stop offset=".528" stop-color="#d4d4d4"/></linearGradient><path d="M1777.3 649l-232.8 77.9c-8.5 2.9-17.8 2.9-26.3 0l-103.4-34.6c-4.4-1.5-8.4-18.6.6-20.7l232.8-66.2c8.5-2.9 17.8-2.9 26.3 0l102.8 22.7c7.6 2 4.5 19.4 0 20.9z" fill="url(#SVGID_1_)"/><path d="M1777.3 637.2l-232.8 77.9c-8.5 2.9-17.8 2.9-26.3 0l-102.8-34.4c-4.4-1.5-4.4-7.8 0-9.3l232.8-77.9c8.5-2.9 17.8-2.9 26.3 0l102.8 34.4c4.5 1.6 4.5 7.9 0 9.3z" fill="#fafafb"/><path d="M1531.4 712.6c4 0 7.9-.6 11.7-1.9l232.8-77.9c.1 0 .1-.1.1-.1v-.3l-.1-.1-102.8-34.3c-3.8-1.3-7.7-1.9-11.7-1.9-4 0-7.9.6-11.7 1.9l-232.8 77.9c-.1 0-.1.1-.1.1v.3l.1.1 102.8 34.4c3.8 1.2 7.7 1.8 11.7 1.8z" fill="#6ad0ff"/><linearGradient id="SVGID_00000139994926729299121700000002465823726259960758_" gradientUnits="userSpaceOnUse" x1="1557.961" y1="241.446" x2="1581.013" y2="857.253"><stop offset="0" stop-color="#fff" stop-opacity="0"/><stop offset=".657" stop-color="#00a99d"/></linearGradient><path fill="url(#SVGID_00000139994926729299121700000002465823726259960758_)" d="M1516.8 623.4l80 26.6 71.2-26.5 142.1-406.1-506.7-16.7z"/><image width="136" height="59" xlink:href="2F29CFAEDCF63933.png" transform="translate(1524 644)" overflow="visible" opacity=".56"/><g fill="#14c39a"><path d="M1516.8 652.9l71.4 23.9c2.8.9 5.8.9 8.6 0L1668 653c1-.3 1-1.7 0-2.1l-70.9-23.7c-3-1-6.2-1-9.1 0l-71.1 23.8c-1 .3-1 1.6-.1 1.9z" opacity=".45"/><path d="M1592.5 676.4c1.3 0 2.7-.2 4-.6l71.2-23.8-70.9-23.7c-1.4-.5-2.8-.7-4.2-.7-1.4 0-2.9.2-4.2.7l-71 23.8 71.2 23.8c1.2.3 2.6.5 3.9.5z"/></g><image width="167" height="71" xlink:href="2F29CFAEDCF63936.png" transform="translate(1509 625)" overflow="visible"/><linearGradient id="SVGID_00000173151008454254274220000000493907654251697319_" gradientUnits="userSpaceOnUse" x1="388.436" y1="638.598" x2="576.587" y2="638.126" gradientTransform="matrix(-1 0 0 1 2055.08 0)"><stop offset=".23" stop-color="#14c39a"/><stop offset="1" stop-color="#0fa8b4"/></linearGradient><path d="M1516.8 639.4l71.4 23.9c2.8.9 5.8.9 8.6 0l71.2-23.8c1-.3 1-1.7 0-2.1l-70.9-23.7c-3-1-6.2-1-9.1 0l-71.1 23.8c-1 .3-1 1.6-.1 1.9z" opacity=".6" fill="url(#SVGID_00000173151008454254274220000000493907654251697319_)"/><linearGradient id="SVGID_00000054962386943692930280000006064504494136427194_" gradientUnits="userSpaceOnUse" x1="389.468" y1="638.596" x2="574.857" y2="638.13" gradientTransform="matrix(-1 0 0 1 2055.08 0)"><stop offset="0" stop-color="#0023e3"/><stop offset="1" stop-color="#0fa8b4"/></linearGradient><path d="M1592.5 662.9c1.3 0 2.7-.2 4-.6l71.2-23.8-70.9-23.7c-1.4-.5-2.8-.7-4.2-.7-1.4 0-2.9.2-4.2.7l-71 23.8 71.2 23.8c1.2.3 2.6.5 3.9.5z" fill="url(#SVGID_00000054962386943692930280000006064504494136427194_)"/><image width="167" height="71" xlink:href="2F29CFAEDCF63937.png" transform="translate(1509 608)" overflow="visible"/><radialGradient id="SVGID_00000025436120767219416960000011317665928702934975_" cx="462.649" cy="625.182" r="56.888" gradientTransform="matrix(-1 0 0 1 2055.08 0)" gradientUnits="userSpaceOnUse"><stop offset="0" stop-color="#fff"/><stop offset="1" stop-color="#57d973"/></radialGradient><path d="M1518.4 622.2v1.4l69.5-23.3c3-1 6.2-1 9.1 0l69.2 23.2v-.6l2.4-.5v2.7c0 .4-.3.8-.7 1l-71.2 23.8c-2.8.9-5.8.9-8.6 0l-71.4-23.9c-.5-.2-.7-.5-.7-.9v-2.7l2.4-.2z" fill="url(#SVGID_00000025436120767219416960000011317665928702934975_)"/><radialGradient id="SVGID_00000104689702814326036250000006541158139215057571_" cx="1592.432" cy="622.458" r="56.888" gradientUnits="userSpaceOnUse"><stop offset="0" stop-color="#fff"/><stop offset="1" stop-color="#14c39a"/></radialGradient><path d="M1516.8 623.4l71.4 23.9c2.8.9 5.8.9 8.6 0l71.2-23.8c1-.3 1-1.7 0-2.1l-70.9-23.7c-3-1-6.2-1-9.1 0l-71.1 23.8c-1 .3-1 1.6-.1 1.9z" fill="url(#SVGID_00000104689702814326036250000006541158139215057571_)"/><g opacity=".34"><path class="st41" d="M1632.1 620.2c-.2-.1-.2-.2 0-.3.2-.1.6-.1.8 0 .2.1.2.2 0 .3-.2.1-.6.1-.8 0zm-1.4-.5c-.2-.1-.2-.2 0-.3.2-.1.6-.1.8 0 .2.1.2.2 0 .3-.2.1-.5.1-.8 0z"/><ellipse class="st41" cx="1629.8" cy="619.2" rx=".5" ry=".2"/><path class="st41" d="M1628 618.8c-.2-.1-.2-.2 0-.3.2-.1.6-.1.8 0 .2.1.2.2 0 .3-.2.1-.6.1-.8 0zm-1.3-.4c-.2-.1-.2-.2 0-.3.2-.1.6-.1.8 0 .2.1.2.2 0 .3h-.8zm-1.4-.5c-.2-.1-.2-.2 0-.3.2-.1.6-.1.8 0 .2.1.2.2 0 .3-.2.1-.6.1-.8 0zm-1.3-.4c-.2-.1-.2-.2 0-.3.2-.1.6-.1.8 0 .2.1.2.2 0 .3h-.8zm-1.4-.5c-.2-.1-.2-.2 0-.3.2-.1.6-.1.8 0 .2.1.2.2 0 .3-.2.1-.6.1-.8 0zm-1.4-.4c-.2-.1-.2-.2 0-.3.2-.1.6-.1.8 0 .2.1.2.2 0 .3h-.8zm-13.5-4.6c-.2-.1-.2-.2 0-.3.2-.1.6-.1.8 0 .2.1.2.2 0 .3-.3.1-.6.1-.8 0zm-1.4-.4c-.2-.1-.2-.2 0-.3.2-.1.6-.1.8 0 .2.1.2.2 0 .3h-.8zm24.4 9c-.2-.1-.2-.2 0-.3.2-.1.6-.1.8 0 .2.1.2.2 0 .3-.2.1-.5.1-.8 0zm-1.3-.4c-.2-.1-.2-.2 0-.3.2-.1.6-.1.8 0 .2.1.2.2 0 .3-.3.1-.6.1-.8 0zm-1.4-.5c-.2-.1-.2-.2 0-.3.2-.1.6-.1.8 0 .2.1.2.2 0 .3-.2.1-.6.1-.8 0zm-1.3-.4c-.2-.1-.2-.2 0-.3.2-.1.6-.1.8 0 .2.1.2.2 0 .3-.3.1-.6.1-.8 0zm-1.4-.5c-.2-.1-.2-.2 0-.3.2-.1.6-.1.8 0 .2.1.2.2 0 .3-.2.1-.6.1-.8 0zm-1.3-.4c-.2-.1-.2-.2 0-.3.2-.1.6-.1.8 0 .2.1.2.2 0 .3h-.8zm-1.4-.5c-.2-.1-.2-.2 0-.3.2-.1.6-.1.8 0 .2.1.2.2 0 .3-.2.1-.6.1-.8 0zm-1.4-.4c-.2-.1-.2-.2 0-.3.2-.1.6-.1.8 0 .2.1.2.2 0 .3h-.8zm-1.3-.5c-.2-.1-.2-.2 0-.3.2-.1.6-.1.8 0 .2.1.2.2 0 .3-.3.1-.6.1-.8 0zm-13.6-4.5c-.2-.1-.2-.2 0-.3.2-.1.6-.1.8 0 .2.1.2.2 0 .3h-.8zm-1.3-.5c-.2-.1-.2-.2 0-.3.2-.1.6-.1.8 0 .2.1.2.2 0 .3-.3.1-.6.1-.8 0zm28.5 10.5c-.2-.1-.2-.2 0-.3.2-.1.6-.1.8 0 .2.1.2.2 0 .3h-.8zm-1.4-.5c-.2-.1-.2-.2 0-.3.2-.1.6-.1.8 0 .2.1.2.2 0 .3-.2.1-.6.1-.8 0zm-1.4-.4c-.2-.1-.2-.2 0-.3.2-.1.6-.1.8 0 .2.1.2.2 0 .3h-.8zm-1.3-.5c-.2-.1-.2-.2 0-.3.2-.1.6-.1.8 0 .2.1.2.2 0 .3-.3.1-.6.1-.8 0zm-1.4-.5c-.2-.1-.2-.2 0-.3.2-.1.6-.1.8 0 .2.1.2.2 0 .3-.2.1-.6.1-.8 0zm-1.3-.4c-.2-.1-.2-.2 0-.3.2-.1.6-.1.8 0 .2.1.2.2 0 .3-.3.1-.6.1-.8 0zm-1.4-.5c-.2-.1-.2-.2 0-.3.2-.1.6-.1.8 0 .2.1.2.2 0 .3-.2.1-.6.1-.8 0zm-1.3-.4c-.2-.1-.2-.2 0-.3.2-.1.6-.1.8 0 .2.1.2.2 0 .3-.3.1-.6.1-.8 0zm-1.4-.5c-.2-.1-.2-.2 0-.3.2-.1.6-.1.8 0 .2.1.2.2 0 .3-.2.1-.6.1-.8 0zm-1.4-.4c-.2-.1-.2-.2 0-.3.2-.1.6-.1.8 0 .2.1.2.2 0 .3h-.8zm-1.3-.5c-.2-.1-.2-.2 0-.3.2-.1.6-.1.8 0 .2.1.2.2 0 .3-.3.1-.6.1-.8 0zm-1.4-.4c-.2-.1-.2-.2 0-.3.2-.1.6-.1.8 0 .2.1.2.2 0 .3h-.8zm-1.3-.5c-.2-.1-.2-.2 0-.3.2-.1.6-.1.8 0 .2.1.2.2 0 .3-.3.1-.6.1-.8 0zm-6.8-2.3c-.2-.1-.2-.2 0-.3.2-.1.6-.1.8 0 .2.1.2.2 0 .3-.3.1-.6.1-.8 0zm-1.4-.4c-.2-.1-.2-.2 0-.3.2-.1.6-.1.8 0 .2.1.2.2 0 .3-.2.1-.6.1-.8 0zm-1.3-.5c-.2-.1-.2-.2 0-.3.2-.1.6-.1.8 0 .2.1.2.2 0 .3-.3.1-.6.1-.8 0zm-2.7-.9c-.2-.1-.2-.2 0-.3.2-.1.6-.1.8 0 .2.1.2.2 0 .3-.3.1-.6.1-.8 0zm-1.4-.4c-.2-.1-.2-.2 0-.3.2-.1.6-.1.8 0 .2.1.2.2 0 .3h-.8zm-1.4-.5c-.2-.1-.2-.2 0-.3.2-.1.6-.1.8 0 .2.1.2.2 0 .3-.2.1-.5.1-.8 0zm-1.3-.4c-.2-.1-.2-.2 0-.3.2-.1.6-.1.8 0 .2.1.2.2 0 .3h-.8zm-4.1-1.4c-.2-.1-.2-.2 0-.3.2-.1.6-.1.8 0 .2.1.2.2 0 .3-.2.1-.6.1-.8 0zm-1.3-.4c-.2-.1-.2-.2 0-.3.2-.1.6-.1.8 0 .2.1.2.2 0 .3h-.8zm-1.4-.5c-.2-.1-.2-.2 0-.3.2-.1.6-.1.8 0 .2.1.2.2 0 .3-.2.1-.6.1-.8 0zm47.5 16.8c-.2-.1-.2-.2 0-.3.2-.1.6-.1.8 0 .2.1.2.2 0 .3-.2.1-.6.1-.8 0zm-1.4-.5c-.2-.1-.2-.2 0-.3.2-.1.6-.1.8 0 .2.1.2.2 0 .3-.2.1-.6.1-.8 0zm-1.3-.4c-.2-.1-.2-.2 0-.3.2-.1.6-.1.8 0 .2.1.2.2 0 .3-.3.1-.6.1-.8 0zm-5.4-1.8c-.2-.1-.2-.2 0-.3.2-.1.6-.1.8 0 .2.1.2.2 0 .3h-.8zm-1.4-.5c-.2-.1-.2-.2 0-.3.2-.1.6-.1.8 0 .2.1.2.2 0 .3-.2.1-.6.1-.8 0zm-1.4-.4c-.2-.1-.2-.2 0-.3.2-.1.6-.1.8 0 .2.1.2.2 0 .3h-.8z"/><ellipse class="st41" cx="1629.8" cy="621.9" rx=".5" ry=".2"/><path class="st41" d="M1628 621.6c-.2-.1-.2-.2 0-.3.2-.1.6-.1.8 0 .2.1.2.2 0 .3h-.8zm-1.3-.5c-.2-.1-.2-.2 0-.3.2-.1.6-.1.8 0 .2.1.2.2 0 .3-.3.1-.6.1-.8 0zm-1.4-.5c-.2-.1-.2-.2 0-.3.2-.1.6-.1.8 0 .2.1.2.2 0 .3-.2.1-.6.1-.8 0zm-1.3-.4c-.2-.1-.2-.2 0-.3.2-.1.6-.1.8 0 .2.1.2.2 0 .3-.3.1-.6.1-.8 0zm-1.4-.5c-.2-.1-.2-.2 0-.3.2-.1.6-.1.8 0 .2.1.2.2 0 .3-.2.1-.6.1-.8 0zm-1.4-.4c-.2-.1-.2-.2 0-.3.2-.1.6-.1.8 0 .2.1.2.2 0 .3-.2.1-.5.1-.8 0zm-1.3-.5c-.2-.1-.2-.2 0-.3.2-.1.6-.1.8 0 .2.1.2.2 0 .3-.3.1-.6.1-.8 0zm-1.4-.4c-.2-.1-.2-.2 0-.3.2-.1.6-.1.8 0 .2.1.2.2 0 .3h-.8zm-1.3-.5c-.2-.1-.2-.2 0-.3.2-.1.6-.1.8 0 .2.1.2.2 0 .3-.3.1-.6.1-.8 0zm-1.4-.4c-.2-.1-.2-.2 0-.3.2-.1.6-.1.8 0 .2.1.2.2 0 .3h-.8zm-2.7-.9c-.2-.1-.2-.2 0-.3.2-.1.6-.1.8 0 .2.1.2.2 0 .3h-.8zm-1.4-.5c-.2-.1-.2-.2 0-.3.2-.1.6-.1.8 0 .2.1.2.2 0 .3-.2.1-.5.1-.8 0zm-2.7-.9c-.2-.1-.2-.2 0-.3.2-.1.6-.1.8 0 .2.1.2.2 0 .3-.2.1-.6.1-.8 0zm-1.3-.5c-.2-.1-.2-.2 0-.3.2-.1.6-.1.8 0 .2.1.2.2 0 .3-.3.1-.6.1-.8 0zm-5.5-1.8c-.2-.1-.2-.2 0-.3.2-.1.6-.1.8 0 .2.1.2.2 0 .3-.2.1-.5.1-.8 0zm-1.3-.4c-.2-.1-.2-.2 0-.3.2-.1.6-.1.8 0 .2.1.2.2 0 .3h-.8zm-1.4-.5c-.2-.1-.2-.2 0-.3.2-.1.6-.1.8 0 .2.1.2.2 0 .3-.2.1-.6.1-.8 0zm-1.3-.4c-.2-.1-.2-.2 0-.3.2-.1.6-.1.8 0 .2.1.2.2 0 .3h-.8zm-1.4-.5c-.2-.1-.2-.2 0-.3.2-.1.6-.1.8 0 .2.1.2.2 0 .3-.2.1-.6.1-.8 0zm-1.3-.4c-.2-.1-.2-.2 0-.3.2-.1.6-.1.8 0 .2.1.2.2 0 .3h-.8zm-1.4-.5c-.2-.1-.2-.2 0-.3.2-.1.6-.1.8 0 .2.1.2.2 0 .3-.2.1-.6.1-.8 0zm-1.4-.4c-.2-.1-.2-.2 0-.3.2-.1.6-.1.8 0 .2.1.2.2 0 .3h-.8zm-1.3-.5c-.2-.1-.2-.2 0-.3.2-.1.6-.1.8 0 .2.1.2.2 0 .3-.3.1-.6.1-.8 0zm-1.4-.5c-.2-.1-.2-.2 0-.3.2-.1.6-.1.8 0 .2.1.2.2 0 .3-.2.1-.6.1-.8 0zm-1.3-.4c-.2-.1-.2-.2 0-.3.2-.1.6-.1.8 0 .2.1.2.2 0 .3-.3.1-.6.1-.8 0zm-1.4-.5c-.2-.1-.2-.2 0-.3.2-.1.6-.1.8 0 .2.1.2.2 0 .3-.2.1-.6.1-.8 0zm-1.3-.4c-.2-.1-.2-.2 0-.3.2-.1.6-.1.8 0 .2.1.2.2 0 .3-.3.1-.6.1-.8 0zm-1.4-.5c-.2-.1-.2-.2 0-.3.2-.1.6-.1.8 0 .2.1.2.2 0 .3-.2.1-.6.1-.8 0zm-1.4-.4c-.2-.1-.2-.2 0-.3.2-.1.6-.1.8 0 .2.1.2.2 0 .3h-.8zm58.4 20.4c-.2-.1-.2-.2 0-.3.2-.1.6-.1.8 0 .2.1.2.2 0 .3-.2.1-.6.1-.8 0zm-1.4-.4c-.2-.1-.2-.2 0-.3.2-.1.6-.1.8 0 .2.1.2.2 0 .3h-.8zm-1.3-.5c-.2-.1-.2-.2 0-.3.2-.1.6-.1.8 0 .2.1.2.2 0 .3-.3.1-.6.1-.8 0zm-1.4-.5c-.2-.1-.2-.2 0-.3.2-.1.6-.1.8 0 .2.1.2.2 0 .3-.2.1-.6.1-.8 0zm-1.3-.4c-.2-.1-.2-.2 0-.3.2-.1.6-.1.8 0 .2.1.2.2 0 .3-.3.1-.6.1-.8 0zm-1.4-.5c-.2-.1-.2-.2 0-.3.2-.1.6-.1.8 0 .2.1.2.2 0 .3-.2.1-.6.1-.8 0zm-1.3-.4c-.2-.1-.2-.2 0-.3.2-.1.6-.1.8 0 .2.1.2.2 0 .3-.3.1-.6.1-.8 0zm-1.4-.5c-.2-.1-.2-.2 0-.3.2-.1.6-.1.8 0 .2.1.2.2 0 .3-.2.1-.6.1-.8 0zm-1.4-.4c-.2-.1-.2-.2 0-.3.2-.1.6-.1.8 0 .2.1.2.2 0 .3h-.8z"/><ellipse class="st41" cx="1629.8" cy="622.8" rx=".5" ry=".2"/><path class="st41" d="M1628 622.5c-.2-.1-.2-.2 0-.3.2-.1.6-.1.8 0 .2.1.2.2 0 .3h-.8zm-1.3-.5c-.2-.1-.2-.2 0-.3.2-.1.6-.1.8 0 .2.1.2.2 0 .3-.3.1-.6.1-.8 0zm-1.4-.4c-.2-.1-.2-.2 0-.3.2-.1.6-.1.8 0 .2.1.2.2 0 .3h-.8zm-1.3-.5c-.2-.1-.2-.2 0-.3.2-.1.6-.1.8 0 .2.1.2.2 0 .3-.3.1-.6.1-.8 0zm-1.4-.5c-.2-.1-.2-.2 0-.3.2-.1.6-.1.8 0 .2.1.2.2 0 .3-.2.1-.6.1-.8 0zm-1.4-.4c-.2-.1-.2-.2 0-.3.2-.1.6-.1.8 0 .2.1.2.2 0 .3-.2.1-.5.1-.8 0zm-1.3-.5c-.2-.1-.2-.2 0-.3.2-.1.6-.1.8 0 .2.1.2.2 0 .3-.3.1-.6.1-.8 0zm-1.4-.4c-.2-.1-.2-.2 0-.3.2-.1.6-.1.8 0 .2.1.2.2 0 .3-.2.1-.6.1-.8 0zm-1.3-.5c-.2-.1-.2-.2 0-.3.2-.1.6-.1.8 0 .2.1.2.2 0 .3-.3.1-.6.1-.8 0zm-1.4-.4c-.2-.1-.2-.2 0-.3.2-.1.6-.1.8 0 .2.1.2.2 0 .3h-.8zm-4.1-1.4c-.2-.1-.2-.2 0-.3.2-.1.6-.1.8 0 .2.1.2.2 0 .3-.2.1-.5.1-.8 0zm-1.3-.4c-.2-.1-.2-.2 0-.3.2-.1.6-.1.8 0 .2.1.2.2 0 .3h-.8zm-5.4-1.9c-.2-.1-.2-.2 0-.3.2-.1.6-.1.8 0 .2.1.2.2 0 .3-.3.1-.6.1-.8 0zm-1.4-.4c-.2-.1-.2-.2 0-.3.2-.1.6-.1.8 0 .2.1.2.2 0 .3-.2.1-.6.1-.8 0zm-1.4-.5c-.2-.1-.2-.2 0-.3.2-.1.6-.1.8 0 .2.1.2.2 0 .3-.2.1-.5.1-.8 0zm-1.3-.4c-.2-.1-.2-.2 0-.3.2-.1.6-.1.8 0 .2.1.2.2 0 .3-.3.1-.6.1-.8 0zm-1.4-.5c-.2-.1-.2-.2 0-.3.2-.1.6-.1.8 0 .2.1.2.2 0 .3-.2.1-.6.1-.8 0zm-1.3-.4c-.2-.1-.2-.2 0-.3.2-.1.6-.1.8 0 .2.1.2.2 0 .3h-.8zm-1.4-.5c-.2-.1-.2-.2 0-.3.2-.1.6-.1.8 0 .2.1.2.2 0 .3-.2.1-.6.1-.8 0zm-1.3-.4c-.2-.1-.2-.2 0-.3.2-.1.6-.1.8 0 .2.1.2.2 0 .3h-.8zm-1.4-.5c-.2-.1-.2-.2 0-.3.2-.1.6-.1.8 0 .2.1.2.2 0 .3-.2.1-.6.1-.8 0zm-1.4-.4c-.2-.1-.2-.2 0-.3.2-.1.6-.1.8 0 .2.1.2.2 0 .3h-.8zm-1.3-.5c-.2-.1-.2-.2 0-.3.2-.1.6-.1.8 0 .2.1.2.2 0 .3-.3.1-.6.1-.8 0zm-1.4-.4c-.2-.1-.2-.2 0-.3.2-.1.6-.1.8 0 .2.1.2.2 0 .3h-.8zm-1.3-.5c-.2-.1-.2-.2 0-.3.2-.1.6-.1.8 0 .2.1.2.2 0 .3-.3.1-.6.1-.8 0zm-1.4-.5c-.2-.1-.2-.2 0-.3.2-.1.6-.1.8 0 .2.1.2.2 0 .3-.2.1-.6.1-.8 0z"/><ellipse class="st41" cx="1586.3" cy="608.3" rx=".5" ry=".2"/><path class="st41" d="M1584.6 607.9c-.2-.1-.2-.2 0-.3.2-.1.6-.1.8 0 .2.1.2.2 0 .3-.2.1-.6.1-.8 0zm-1.4-.4c-.2-.1-.2-.2 0-.3.2-.1.6-.1.8 0 .2.1.2.2 0 .3-.2.1-.5.1-.8 0zm-1.3-.5c-.2-.1-.2-.2 0-.3.2-.1.6-.1.8 0 .2.1.2.2 0 .3-.3.1-.6.1-.8 0zm61 21.4c-.2-.1-.2-.2 0-.3.2-.1.6-.1.8 0 .2.1.2.2 0 .3h-.8zm-1.3-.5c-.2-.1-.2-.2 0-.3.2-.1.6-.1.8 0 .2.1.2.2 0 .3-.2.1-.6.1-.8 0zm-1.4-.4c-.2-.1-.2-.2 0-.3.2-.1.6-.1.8 0 .2.1.2.2 0 .3h-.8zm-1.3-.5c-.2-.1-.2-.2 0-.3.2-.1.6-.1.8 0 .2.1.2.2 0 .3-.3.1-.6.1-.8 0zm-1.4-.4c-.2-.1-.2-.2 0-.3.2-.1.6-.1.8 0 .2.1.2.2 0 .3h-.8zm-1.3-.5c-.2-.1-.2-.2 0-.3.2-.1.6-.1.8 0 .2.1.2.2 0 .3-.3.1-.6.1-.8 0zm-1.4-.5c-.2-.1-.2-.2 0-.3.2-.1.6-.1.8 0 .2.1.2.2 0 .3-.2.1-.6.1-.8 0zm-1.3-.4c-.2-.1-.2-.2 0-.3.2-.1.6-.1.8 0 .2.1.2.2 0 .3-.3.1-.6.1-.8 0zm-1.4-.5c-.2-.1-.2-.2 0-.3.2-.1.6-.1.8 0 .2.1.2.2 0 .3-.2.1-.6.1-.8 0zm-1.4-.4c-.2-.1-.2-.2 0-.3.2-.1.6-.1.8 0 .2.1.2.2 0 .3-.2.1-.5.1-.8 0zm-1.3-.5c-.2-.1-.2-.2 0-.3.2-.1.6-.1.8 0 .2.1.2.2 0 .3-.3.1-.6.1-.8 0zm-1.4-.4c-.2-.1-.2-.2 0-.3.2-.1.6-.1.8 0 .2.1.2.2 0 .3h-.8zm-1.3-.5c-.2-.1-.2-.2 0-.3.2-.1.6-.1.8 0 .2.1.2.2 0 .3-.3.1-.6.1-.8 0zm-1.4-.4c-.2-.1-.2-.2 0-.3.2-.1.6-.1.8 0 .2.1.2.2 0 .3h-.8zm-1.3-.5c-.2-.1-.2-.2 0-.3.2-.1.6-.1.8 0 .2.1.2.2 0 .3-.3.1-.6.1-.8 0zm-1.4-.4c-.2-.1-.2-.2 0-.3.2-.1.6-.1.8 0 .2.1.2.2 0 .3h-.8zm-1.4-.5c-.2-.1-.2-.2 0-.3.2-.1.6-.1.8 0 .2.1.2.2 0 .3-.2.1-.5.1-.8 0zm-1.3-.5c-.2-.1-.2-.2 0-.3.2-.1.6-.1.8 0 .2.1.2.2 0 .3-.3.1-.6.1-.8 0zm-1.4-.4c-.2-.1-.2-.2 0-.3.2-.1.6-.1.8 0 .2.1.2.2 0 .3-.2.1-.6.1-.8 0zm-1.3-.5c-.2-.1-.2-.2 0-.3.2-.1.6-.1.8 0 .2.1.2.2 0 .3-.3.1-.6.1-.8 0zm-1.4-.4c-.2-.1-.2-.2 0-.3.2-.1.6-.1.8 0 .2.1.2.2 0 .3-.2.1-.6.1-.8 0zm-1.3-.5c-.2-.1-.2-.2 0-.3.2-.1.6-.1.8 0 .2.1.2.2 0 .3-.3.1-.6.1-.8 0zm-10.9-3.6c-.2-.1-.2-.2 0-.3.2-.1.6-.1.8 0 .2.1.2.2 0 .3-.2.1-.6.1-.8 0zm-1.4-.5c-.2-.1-.2-.2 0-.3.2-.1.6-.1.8 0 .2.1.2.2 0 .3-.2.1-.5.1-.8 0zm-1.3-.4c-.2-.1-.2-.2 0-.3.2-.1.6-.1.8 0 .2.1.2.2 0 .3-.3.1-.6.1-.8 0zm-1.4-.5c-.2-.1-.2-.2 0-.3.2-.1.6-.1.8 0 .2.1.2.2 0 .3-.2.1-.6.1-.8 0zm-1.3-.4c-.2-.1-.2-.2 0-.3.2-.1.6-.1.8 0 .2.1.2.2 0 .3-.3.1-.6.1-.8 0zm-1.4-.5c-.2-.1-.2-.2 0-.3.2-.1.6-.1.8 0 .2.1.2.2 0 .3-.2.1-.6.1-.8 0zm-1.3-.4c-.2-.1-.2-.2 0-.3.2-.1.6-.1.8 0 .2.1.2.2 0 .3h-.8zm-1.4-.5c-.2-.1-.2-.2 0-.3.2-.1.6-.1.8 0 .2.1.2.2 0 .3-.2.1-.6.1-.8 0zm-1.4-.4c-.2-.1-.2-.2 0-.3.2-.1.6-.1.8 0 .2.1.2.2 0 .3h-.8zm-1.3-.5c-.2-.1-.2-.2 0-.3.2-.1.6-.1.8 0 .2.1.2.2 0 .3-.3.1-.6.1-.8 0zm-1.4-.4c-.2-.1-.2-.2 0-.3.2-.1.6-.1.8 0 .2.1.2.2 0 .3h-.8zm-1.3-.5c-.2-.1-.2-.2 0-.3.2-.1.6-.1.8 0 .2.1.2.2 0 .3-.3.1-.6.1-.8 0zm-1.4-.4c-.2-.1-.2-.2 0-.3.2-.1.6-.1.8 0 .2.1.2.2 0 .3h-.8zm-1.3-.5c-.2-.1-.2-.2 0-.3.2-.1.6-.1.8 0 .2.1.2.2 0 .3-.3.1-.6.1-.8 0zm-1.4-.5c-.2-.1-.2-.2 0-.3.2-.1.6-.1.8 0 .2.1.2.2 0 .3-.2.1-.6.1-.8 0zm-1.4-.4c-.2-.1-.2-.2 0-.3.2-.1.6-.1.8 0 .2.1.2.2 0 .3-.2.1-.5.1-.8 0zm-1.3-.5c-.2-.1-.2-.2 0-.3.2-.1.6-.1.8 0 .2.1.2.2 0 .3-.3.1-.6.1-.8 0zm59.7 20.9c-.2-.1-.2-.2 0-.3.2-.1.6-.1.8 0 .2.1.2.2 0 .3-.2.1-.6.1-.8 0zm-1.4-.4c-.2-.1-.2-.2 0-.3.2-.1.6-.1.8 0 .2.1.2.2 0 .3h-.8zm-1.3-.5c-.2-.1-.2-.2 0-.3.2-.1.6-.1.8 0 .2.1.2.2 0 .3-.3.1-.6.1-.8 0zm-1.4-.4c-.2-.1-.2-.2 0-.3.2-.1.6-.1.8 0 .2.1.2.2 0 .3h-.8zm-1.3-.5c-.2-.1-.2-.2 0-.3.2-.1.6-.1.8 0 .2.1.2.2 0 .3-.3.1-.6.1-.8 0zm-1.4-.4c-.2-.1-.2-.2 0-.3.2-.1.6-.1.8 0 .2.1.2.2 0 .3h-.8zm-1.3-.5c-.2-.1-.2-.2 0-.3.2-.1.6-.1.8 0 .2.1.2.2 0 .3-.3.1-.6.1-.8 0zm-1.4-.5c-.2-.1-.2-.2 0-.3.2-.1.6-.1.8 0 .2.1.2.2 0 .3-.2.1-.6.1-.8 0zm-1.4-.4c-.2-.1-.2-.2 0-.3.2-.1.6-.1.8 0 .2.1.2.2 0 .3-.2.1-.5.1-.8 0z"/><ellipse class="st41" cx="1629.8" cy="624.6" rx=".5" ry=".2"/><path class="st41" d="M1628 624.3c-.2-.1-.2-.2 0-.3.2-.1.6-.1.8 0 .2.1.2.2 0 .3-.2.1-.6.1-.8 0zm-1.3-.5c-.2-.1-.2-.2 0-.3.2-.1.6-.1.8 0 .2.1.2.2 0 .3-.3.1-.6.1-.8 0zm-1.4-.4c-.2-.1-.2-.2 0-.3.2-.1.6-.1.8 0 .2.1.2.2 0 .3h-.8zm-1.3-.5c-.2-.1-.2-.2 0-.3.2-.1.6-.1.8 0 .2.1.2.2 0 .3-.3.1-.6.1-.8 0zm-1.4-.4c-.2-.1-.2-.2 0-.3.2-.1.6-.1.8 0 .2.1.2.2 0 .3h-.8zm-1.4-.5c-.2-.1-.2-.2 0-.3.2-.1.6-.1.8 0 .2.1.2.2 0 .3-.2.1-.5.1-.8 0zm-1.3-.4c-.2-.1-.2-.2 0-.3.2-.1.6-.1.8 0 .2.1.2.2 0 .3h-.8zm-1.4-.5c-.2-.1-.2-.2 0-.3.2-.1.6-.1.8 0 .2.1.2.2 0 .3-.2.1-.6.1-.8 0zm-1.3-.5c-.2-.1-.2-.2 0-.3.2-.1.6-.1.8 0 .2.1.2.2 0 .3-.3.1-.6.1-.8 0zm-1.4-.4c-.2-.1-.2-.2 0-.3.2-.1.6-.1.8 0 .2.1.2.2 0 .3-.2.1-.6.1-.8 0zm-1.3-.5c-.2-.1-.2-.2 0-.3.2-.1.6-.1.8 0 .2.1.2.2 0 .3-.3.1-.6.1-.8 0zm-6.8-2.2c-.2-.1-.2-.2 0-.3.2-.1.6-.1.8 0 .2.1.2.2 0 .3h-.8zm-1.4-.5c-.2-.1-.2-.2 0-.3.2-.1.6-.1.8 0 .2.1.2.2 0 .3-.2.1-.6.1-.8 0zm-2.7-.9c-.2-.1-.2-.2 0-.3.2-.1.6-.1.8 0 .2.1.2.2 0 .3-.2.1-.6.1-.8 0zm-1.4-.4c-.2-.1-.2-.2 0-.3.2-.1.6-.1.8 0 .2.1.2.2 0 .3h-.8zm-1.3-.5c-.2-.1-.2-.2 0-.3.2-.1.6-.1.8 0 .2.1.2.2 0 .3-.3.1-.6.1-.8 0zm-1.4-.5c-.2-.1-.2-.2 0-.3.2-.1.6-.1.8 0 .2.1.2.2 0 .3-.2.1-.6.1-.8 0zm-1.3-.4c-.2-.1-.2-.2 0-.3.2-.1.6-.1.8 0 .2.1.2.2 0 .3-.3.1-.6.1-.8 0zm-1.4-.5c-.2-.1-.2-.2 0-.3.2-.1.6-.1.8 0 .2.1.2.2 0 .3-.2.1-.6.1-.8 0zm-1.3-.4c-.2-.1-.2-.2 0-.3.2-.1.6-.1.8 0 .2.1.2.2 0 .3-.3.1-.6.1-.8 0zm-1.4-.5c-.2-.1-.2-.2 0-.3.2-.1.6-.1.8 0 .2.1.2.2 0 .3-.2.1-.6.1-.8 0zm-1.4-.4c-.2-.1-.2-.2 0-.3.2-.1.6-.1.8 0 .2.1.2.2 0 .3h-.8zm-1.3-.5c-.2-.1-.2-.2 0-.3.2-.1.6-.1.8 0 .2.1.2.2 0 .3-.3.1-.6.1-.8 0zm-1.4-.4c-.2-.1-.2-.2 0-.3.2-.1.6-.1.8 0 .2.1.2.2 0 .3h-.8zm-1.3-.5c-.2-.1-.2-.2 0-.3.2-.1.6-.1.8 0 .2.1.2.2 0 .3-.3.1-.6.1-.8 0zm-1.4-.4c-.2-.1-.2-.2 0-.3.2-.1.6-.1.8 0 .2.1.2.2 0 .3h-.8zm-1.3-.5c-.2-.1-.2-.2 0-.3.2-.1.6-.1.8 0 .2.1.2.2 0 .3-.3.1-.6.1-.8 0zm-1.4-.4c-.2-.1-.2-.2 0-.3.2-.1.6-.1.8 0 .2.1.2.2 0 .3h-.8zm-1.4-.5c-.2-.1-.2-.2 0-.3.2-.1.6-.1.8 0 .2.1.2.2 0 .3-.2.1-.5.1-.8 0zm-1.3-.5c-.2-.1-.2-.2 0-.3.2-.1.6-.1.8 0 .2.1.2.2 0 .3-.3.1-.6.1-.8 0zm-1.4-.4c-.2-.1-.2-.2 0-.3.2-.1.6-.1.8 0 .2.1.2.2 0 .3-.2.1-.6.1-.8 0zm59.7 20.9c-.2-.1-.2-.2 0-.3.2-.1.6-.1.8 0 .2.1.2.2 0 .3h-.8zm-1.3-.5c-.2-.1-.2-.2 0-.3.2-.1.6-.1.8 0 .2.1.2.2 0 .3-.3.1-.6.1-.8 0zm-1.4-.4c-.2-.1-.2-.2 0-.3.2-.1.6-.1.8 0 .2.1.2.2 0 .3h-.8zm-1.3-.5c-.2-.1-.2-.2 0-.3.2-.1.6-.1.8 0 .2.1.2.2 0 .3-.3.1-.6.1-.8 0zm-1.4-.4c-.2-.1-.2-.2 0-.3.2-.1.6-.1.8 0 .2.1.2.2 0 .3h-.8zm-1.3-.5c-.2-.1-.2-.2 0-.3.2-.1.6-.1.8 0 .2.1.2.2 0 .3-.3.1-.6.1-.8 0zm-1.4-.4c-.2-.1-.2-.2 0-.3.2-.1.6-.1.8 0 .2.1.2.2 0 .3h-.8zm-1.4-.5c-.2-.1-.2-.2 0-.3.2-.1.6-.1.8 0 .2.1.2.2 0 .3-.2.1-.5.1-.8 0z"/><ellipse class="st41" cx="1629.8" cy="625.5" rx=".5" ry=".2"/><path class="st41" d="M1628 625.2c-.2-.1-.2-.2 0-.3.2-.1.6-.1.8 0 .2.1.2.2 0 .3-.2.1-.6.1-.8 0zm-1.3-.5c-.2-.1-.2-.2 0-.3.2-.1.6-.1.8 0 .2.1.2.2 0 .3-.3.1-.6.1-.8 0zm-1.4-.4c-.2-.1-.2-.2 0-.3.2-.1.6-.1.8 0 .2.1.2.2 0 .3-.2.1-.6.1-.8 0zm-1.3-.5c-.2-.1-.2-.2 0-.3.2-.1.6-.1.8 0 .2.1.2.2 0 .3-.3.1-.6.1-.8 0zm-1.4-.4c-.2-.1-.2-.2 0-.3.2-.1.6-.1.8 0 .2.1.2.2 0 .3h-.8zm-1.4-.5c-.2-.1-.2-.2 0-.3.2-.1.6-.1.8 0 .2.1.2.2 0 .3-.2.1-.5.1-.8 0zm-1.3-.4c-.2-.1-.2-.2 0-.3.2-.1.6-.1.8 0 .2.1.2.2 0 .3h-.8zm-1.4-.5c-.2-.1-.2-.2 0-.3.2-.1.6-.1.8 0 .2.1.2.2 0 .3-.2.1-.6.1-.8 0zm-1.3-.4c-.2-.1-.2-.2 0-.3.2-.1.6-.1.8 0 .2.1.2.2 0 .3h-.8zm-1.4-.5c-.2-.1-.2-.2 0-.3.2-.1.6-.1.8 0 .2.1.2.2 0 .3-.2.1-.6.1-.8 0zm-1.3-.5c-.2-.1-.2-.2 0-.3.2-.1.6-.1.8 0 .2.1.2.2 0 .3-.3.1-.6.1-.8 0zm-1.4-.4c-.2-.1-.2-.2 0-.3.2-.1.6-.1.8 0 .2.1.2.2 0 .3-.2.1-.6.1-.8 0zm-5.4-1.8c-.2-.1-.2-.2 0-.3.2-.1.6-.1.8 0 .2.1.2.2 0 .3h-.8zm-1.4-.5c-.2-.1-.2-.2 0-.3.2-.1.6-.1.8 0 .2.1.2.2 0 .3-.2.1-.6.1-.8 0zm-1.3-.4c-.2-.1-.2-.2 0-.3.2-.1.6-.1.8 0 .2.1.2.2 0 .3h-.8zm-1.4-.5c-.2-.1-.2-.2 0-.3.2-.1.6-.1.8 0 .2.1.2.2 0 .3-.2.1-.6.1-.8 0zm-1.4-.4c-.2-.1-.2-.2 0-.3.2-.1.6-.1.8 0 .2.1.2.2 0 .3h-.8zm-1.3-.5c-.2-.1-.2-.2 0-.3.2-.1.6-.1.8 0 .2.1.2.2 0 .3-.3.1-.6.1-.8 0zm-1.4-.4c-.2-.1-.2-.2 0-.3.2-.1.6-.1.8 0 .2.1.2.2 0 .3h-.8zm-1.3-.5c-.2-.1-.2-.2 0-.3.2-.1.6-.1.8 0 .2.1.2.2 0 .3-.3.1-.6.1-.8 0zm-1.4-.5c-.2-.1-.2-.2 0-.3.2-.1.6-.1.8 0 .2.1.2.2 0 .3-.2.1-.6.1-.8 0zm-1.3-.4c-.2-.1-.2-.2 0-.3.2-.1.6-.1.8 0 .2.1.2.2 0 .3-.3.1-.6.1-.8 0zm-1.4-.5c-.2-.1-.2-.2 0-.3.2-.1.6-.1.8 0 .2.1.2.2 0 .3-.2.1-.6.1-.8 0zm-1.4-.4c-.2-.1-.2-.2 0-.3.2-.1.6-.1.8 0 .2.1.2.2 0 .3-.2.1-.5.1-.8 0zm-1.3-.5c-.2-.1-.2-.2 0-.3.2-.1.6-.1.8 0 .2.1.2.2 0 .3-.3.1-.6.1-.8 0zm-1.4-.4c-.2-.1-.2-.2 0-.3.2-.1.6-.1.8 0 .2.1.2.2 0 .3h-.8zm-1.3-.5c-.2-.1-.2-.2 0-.3.2-.1.6-.1.8 0 .2.1.2.2 0 .3-.3.1-.6.1-.8 0zm-1.4-.4c-.2-.1-.2-.2 0-.3.2-.1.6-.1.8 0 .2.1.2.2 0 .3h-.8zm-1.3-.5c-.2-.1-.2-.2 0-.3.2-.1.6-.1.8 0 .2.1.2.2 0 .3-.3.1-.6.1-.8 0zm-1.4-.4c-.2-.1-.2-.2 0-.3.2-.1.6-.1.8 0 .2.1.2.2 0 .3h-.8zm-1.4-.5c-.2-.1-.2-.2 0-.3.2-.1.6-.1.8 0 .2.1.2.2 0 .3-.2.1-.5.1-.8 0zm-1.3-.4c-.2-.1-.2-.2 0-.3.2-.1.6-.1.8 0 .2.1.2.2 0 .3h-.8zm-1.4-.5c-.2-.1-.2-.2 0-.3.2-.1.6-.1.8 0 .2.1.2.2 0 .3-.2.1-.6.1-.8 0zm58.4 20.4c-.2-.1-.2-.2 0-.3.2-.1.6-.1.8 0 .2.1.2.2 0 .3-.3.1-.6.1-.8 0zm-1.4-.4c-.2-.1-.2-.2 0-.3.2-.1.6-.1.8 0 .2.1.2.2 0 .3h-.8zm-1.3-.5c-.2-.1-.2-.2 0-.3.2-.1.6-.1.8 0 .2.1.2.2 0 .3-.3.1-.6.1-.8 0zm-1.4-.4c-.2-.1-.2-.2 0-.3.2-.1.6-.1.8 0 .2.1.2.2 0 .3h-.8zm-2.7-.9c-.2-.1-.2-.2 0-.3.2-.1.6-.1.8 0 .2.1.2.2 0 .3h-.8zm-1.4-.5c-.2-.1-.2-.2 0-.3.2-.1.6-.1.8 0 .2.1.2.2 0 .3-.2.1-.5.1-.8 0zm-1.3-.4c-.2-.1-.2-.2 0-.3.2-.1.6-.1.8 0 .2.1.2.2 0 .3h-.8zm-1.4-.5c-.2-.1-.2-.2 0-.3.2-.1.6-.1.8 0 .2.1.2.2 0 .3-.2.1-.6.1-.8 0zm-1.3-.5c-.2-.1-.2-.2 0-.3.2-.1.6-.1.8 0 .2.1.2.2 0 .3-.3.1-.6.1-.8 0zm-1.4-.4c-.2-.1-.2-.2 0-.3.2-.1.6-.1.8 0 .2.1.2.2 0 .3-.2.1-.6.1-.8 0zm-1.3-.5c-.2-.1-.2-.2 0-.3.2-.1.6-.1.8 0 .2.1.2.2 0 .3-.3.1-.6.1-.8 0zm-1.4-.4c-.2-.1-.2-.2 0-.3.2-.1.6-.1.8 0 .2.1.2.2 0 .3-.2.1-.6.1-.8 0zm-1.4-.5c-.2-.1-.2-.2 0-.3.2-.1.6-.1.8 0 .2.1.2.2 0 .3-.2.1-.5.1-.8 0zm-1.3-.4c-.2-.1-.2-.2 0-.3.2-.1.6-.1.8 0 .2.1.2.2 0 .3h-.8zm-1.4-.5c-.2-.1-.2-.2 0-.3.2-.1.6-.1.8 0 .2.1.2.2 0 .3-.2.1-.6.1-.8 0zm-1.3-.4c-.2-.1-.2-.2 0-.3.2-.1.6-.1.8 0 .2.1.2.2 0 .3h-.8zm-1.4-.5c-.2-.1-.2-.2 0-.3.2-.1.6-.1.8 0 .2.1.2.2 0 .3-.2.1-.6.1-.8 0zm-1.3-.4c-.2-.1-.2-.2 0-.3.2-.1.6-.1.8 0 .2.1.2.2 0 .3h-.8zm-2.8-1c-.2-.1-.2-.2 0-.3.2-.1.6-.1.8 0 .2.1.2.2 0 .3-.2.1-.5.1-.8 0zm-1.3-.4c-.2-.1-.2-.2 0-.3.2-.1.6-.1.8 0 .2.1.2.2 0 .3-.3.1-.6.1-.8 0zm-4.1-1.4c-.2-.1-.2-.2 0-.3.2-.1.6-.1.8 0 .2.1.2.2 0 .3-.2.1-.6.1-.8 0zm-1.3-.4c-.2-.1-.2-.2 0-.3.2-.1.6-.1.8 0 .2.1.2.2 0 .3h-.8zm-1.4-.5c-.2-.1-.2-.2 0-.3.2-.1.6-.1.8 0 .2.1.2.2 0 .3-.2.1-.6.1-.8 0zm-1.4-.4c-.2-.1-.2-.2 0-.3.2-.1.6-.1.8 0 .2.1.2.2 0 .3h-.8zm-1.3-.5c-.2-.1-.2-.2 0-.3.2-.1.6-.1.8 0 .2.1.2.2 0 .3-.3.1-.6.1-.8 0zm-1.4-.4c-.2-.1-.2-.2 0-.3.2-.1.6-.1.8 0 .2.1.2.2 0 .3h-.8zm-1.3-.5c-.2-.1-.2-.2 0-.3.2-.1.6-.1.8 0 .2.1.2.2 0 .3-.3.1-.6.1-.8 0zm-1.4-.4c-.2-.1-.2-.2 0-.3.2-.1.6-.1.8 0 .2.1.2.2 0 .3h-.8zm-1.3-.5c-.2-.1-.2-.2 0-.3.2-.1.6-.1.8 0 .2.1.2.2 0 .3-.3.1-.6.1-.8 0zm-1.4-.5c-.2-.1-.2-.2 0-.3.2-.1.6-.1.8 0 .2.1.2.2 0 .3-.2.1-.6.1-.8 0zm-1.4-.4c-.2-.1-.2-.2 0-.3.2-.1.6-.1.8 0 .2.1.2.2 0 .3-.2.1-.5.1-.8 0zm-1.3-.5c-.2-.1-.2-.2 0-.3.2-.1.6-.1.8 0 .2.1.2.2 0 .3-.3.1-.6.1-.8 0zm-1.4-.4c-.2-.1-.2-.2 0-.3.2-.1.6-.1.8 0 .2.1.2.2 0 .3-.2.1-.6.1-.8 0zm-1.3-.5c-.2-.1-.2-.2 0-.3.2-.1.6-.1.8 0 .2.1.2.2 0 .3-.3.1-.6.1-.8 0zm-1.4-.4c-.2-.1-.2-.2 0-.3.2-.1.6-.1.8 0 .2.1.2.2 0 .3h-.8zm-1.3-.5c-.2-.1-.2-.2 0-.3.2-.1.6-.1.8 0 .2.1.2.2 0 .3-.3.1-.6.1-.8 0zm-1.4-.4c-.2-.1-.2-.2 0-.3.2-.1.6-.1.8 0 .2.1.2.2 0 .3h-.8zm-1.4-.5c-.2-.1-.2-.2 0-.3.2-.1.6-.1.8 0 .2.1.2.2 0 .3-.2.1-.5.1-.8 0zm-2.7-.9c-.2-.1-.2-.2 0-.3.2-.1.6-.1.8 0 .2.1.2.2 0 .3-.2.1-.6.1-.8 0zm-1.3-.4c-.2-.1-.2-.2 0-.3.2-.1.6-.1.8 0 .2.1.2.2 0 .3h-.8zm-1.4-.5c-.2-.1-.2-.2 0-.3.2-.1.6-.1.8 0 .2.1.2.2 0 .3-.2.1-.6.1-.8 0zm52.9 18.6c-.2-.1-.2-.2 0-.3.2-.1.6-.1.8 0 .2.1.2.2 0 .3-.2.1-.5.1-.8 0zm-1.3-.4c-.2-.1-.2-.2 0-.3.2-.1.6-.1.8 0 .2.1.2.2 0 .3h-.8zm-1.4-.5c-.2-.1-.2-.2 0-.3.2-.1.6-.1.8 0 .2.1.2.2 0 .3-.2.1-.6.1-.8 0zm-1.3-.4c-.2-.1-.2-.2 0-.3.2-.1.6-.1.8 0 .2.1.2.2 0 .3h-.8zm-1.4-.5c-.2-.1-.2-.2 0-.3.2-.1.6-.1.8 0 .2.1.2.2 0 .3-.2.1-.6.1-.8 0zm-1.3-.5c-.2-.1-.2-.2 0-.3.2-.1.6-.1.8 0 .2.1.2.2 0 .3-.3.1-.6.1-.8 0zm-1.4-.4c-.2-.1-.2-.2 0-.3.2-.1.6-.1.8 0 .2.1.2.2 0 .3-.2.1-.6.1-.8 0zm-1.4-.5c-.2-.1-.2-.2 0-.3.2-.1.6-.1.8 0 .2.1.2.2 0 .3-.2.1-.5.1-.8 0zm-1.3-.4c-.2-.1-.2-.2 0-.3.2-.1.6-.1.8 0 .2.1.2.2 0 .3-.3.1-.6.1-.8 0zm-1.4-.5c-.2-.1-.2-.2 0-.3.2-.1.6-.1.8 0 .2.1.2.2 0 .3-.2.1-.6.1-.8 0zm-1.3-.4c-.2-.1-.2-.2 0-.3.2-.1.6-.1.8 0 .2.1.2.2 0 .3h-.8zm-1.4-.5c-.2-.1-.2-.2 0-.3.2-.1.6-.1.8 0 .2.1.2.2 0 .3-.2.1-.6.1-.8 0zm-1.3-.4c-.2-.1-.2-.2 0-.3.2-.1.6-.1.8 0 .2.1.2.2 0 .3h-.8zm-6.8-2.3c-.2-.1-.2-.2 0-.3.2-.1.6-.1.8 0 .2.1.2.2 0 .3-.3.1-.6.1-.8 0zm-1.4-.5c-.2-.1-.2-.2 0-.3.2-.1.6-.1.8 0 .2.1.2.2 0 .3-.2.1-.6.1-.8 0zm-1.3-.4c-.2-.1-.2-.2 0-.3.2-.1.6-.1.8 0 .2.1.2.2 0 .3-.3.1-.6.1-.8 0zm-1.4-.5c-.2-.1-.2-.2 0-.3.2-.1.6-.1.8 0 .2.1.2.2 0 .3-.2.1-.6.1-.8 0zm-1.4-.4c-.2-.1-.2-.2 0-.3.2-.1.6-.1.8 0 .2.1.2.2 0 .3h-.8zm-1.3-.5c-.2-.1-.2-.2 0-.3.2-.1.6-.1.8 0 .2.1.2.2 0 .3-.3.1-.6.1-.8 0zm-1.4-.4c-.2-.1-.2-.2 0-.3.2-.1.6-.1.8 0 .2.1.2.2 0 .3h-.8zm-1.3-.5c-.2-.1-.2-.2 0-.3.2-.1.6-.1.8 0 .2.1.2.2 0 .3-.3.1-.6.1-.8 0zm-1.4-.4c-.2-.1-.2-.2 0-.3.2-.1.6-.1.8 0 .2.1.2.2 0 .3h-.8zm-1.3-.5c-.2-.1-.2-.2 0-.3.2-.1.6-.1.8 0 .2.1.2.2 0 .3-.3.1-.6.1-.8 0zm-1.4-.4c-.2-.1-.2-.2 0-.3.2-.1.6-.1.8 0 .2.1.2.2 0 .3h-.8zm-1.4-.5c-.2-.1-.2-.2 0-.3.2-.1.6-.1.8 0 .2.1.2.2 0 .3-.2.1-.5.1-.8 0zm-1.3-.5c-.2-.1-.2-.2 0-.3.2-.1.6-.1.8 0 .2.1.2.2 0 .3-.3.1-.6.1-.8 0zm-1.4-.4c-.2-.1-.2-.2 0-.3.2-.1.6-.1.8 0 .2.1.2.2 0 .3-.2.1-.6.1-.8 0zm-1.3-.5c-.2-.1-.2-.2 0-.3.2-.1.6-.1.8 0 .2.1.2.2 0 .3-.3.1-.6.1-.8 0zm-1.4-.4c-.2-.1-.2-.2 0-.3.2-.1.6-.1.8 0 .2.1.2.2 0 .3-.2.1-.6.1-.8 0zm-1.3-.5c-.2-.1-.2-.2 0-.3.2-.1.6-.1.8 0 .2.1.2.2 0 .3-.3.1-.6.1-.8 0zm-1.4-.4c-.2-.1-.2-.2 0-.3.2-.1.6-.1.8 0 .2.1.2.2 0 .3h-.8zm-1.4-.5c-.2-.1-.2-.2 0-.3.2-.1.6-.1.8 0 .2.1.2.2 0 .3-.2.1-.5.1-.8 0zm-1.3-.4c-.2-.1-.2-.2 0-.3.2-.1.6-.1.8 0 .2.1.2.2 0 .3h-.8zm-1.4-.5c-.2-.1-.2-.2 0-.3.2-.1.6-.1.8 0 .2.1.2.2 0 .3-.2.1-.6.1-.8 0zm-2.7-.9c-.2-.1-.2-.2 0-.3.2-.1.6-.1.8 0 .2.1.2.2 0 .3-.2.1-.6.1-.8 0zm51.6 18.2c-.2-.1-.2-.2 0-.3.2-.1.6-.1.8 0 .2.1.2.2 0 .3h-.8zm-1.4-.5c-.2-.1-.2-.2 0-.3.2-.1.6-.1.8 0 .2.1.2.2 0 .3-.2.1-.6.1-.8 0zm-1.3-.4c-.2-.1-.2-.2 0-.3.2-.1.6-.1.8 0 .2.1.2.2 0 .3h-.8zm-1.4-.5c-.2-.1-.2-.2 0-.3.2-.1.6-.1.8 0 .2.1.2.2 0 .3-.2.1-.6.1-.8 0zm-1.3-.4c-.2-.1-.2-.2 0-.3.2-.1.6-.1.8 0 .2.1.2.2 0 .3h-.8zm-1.4-.5c-.2-.1-.2-.2 0-.3.2-.1.6-.1.8 0 .2.1.2.2 0 .3-.2.1-.6.1-.8 0zm-1.4-.5c-.2-.1-.2-.2 0-.3.2-.1.6-.1.8 0 .2.1.2.2 0 .3-.2.1-.5.1-.8 0zm-1.3-.4c-.2-.1-.2-.2 0-.3.2-.1.6-.1.8 0 .2.1.2.2 0 .3-.3.1-.6.1-.8 0zm-1.4-.5c-.2-.1-.2-.2 0-.3.2-.1.6-.1.8 0 .2.1.2.2 0 .3-.2.1-.6.1-.8 0zm-1.3-.4c-.2-.1-.2-.2 0-.3.2-.1.6-.1.8 0 .2.1.2.2 0 .3-.3.1-.6.1-.8 0zm-1.4-.5c-.2-.1-.2-.2 0-.3.2-.1.6-.1.8 0 .2.1.2.2 0 .3-.2.1-.6.1-.8 0zm-8.1-2.7c-.2-.1-.2-.2 0-.3.2-.1.6-.1.8 0 .2.1.2.2 0 .3-.3.1-.6.1-.8 0zm-1.4-.5c-.2-.1-.2-.2 0-.3.2-.1.6-.1.8 0 .2.1.2.2 0 .3-.2.1-.6.1-.8 0zm-1.3-.4c-.2-.1-.2-.2 0-.3.2-.1.6-.1.8 0 .2.1.2.2 0 .3-.3.1-.6.1-.8 0zm-1.4-.5c-.2-.1-.2-.2 0-.3.2-.1.6-.1.8 0 .2.1.2.2 0 .3-.2.1-.6.1-.8 0zm-1.4-.4c-.2-.1-.2-.2 0-.3.2-.1.6-.1.8 0 .2.1.2.2 0 .3-.2.1-.5.1-.8 0zm-1.3-.5c-.2-.1-.2-.2 0-.3.2-.1.6-.1.8 0 .2.1.2.2 0 .3-.3.1-.6.1-.8 0zm-1.4-.4c-.2-.1-.2-.2 0-.3.2-.1.6-.1.8 0 .2.1.2.2 0 .3h-.8zm-1.3-.5c-.2-.1-.2-.2 0-.3.2-.1.6-.1.8 0 .2.1.2.2 0 .3-.3.1-.6.1-.8 0zm-1.4-.4c-.2-.1-.2-.2 0-.3.2-.1.6-.1.8 0 .2.1.2.2 0 .3h-.8zm-1.3-.5c-.2-.1-.2-.2 0-.3.2-.1.6-.1.8 0 .2.1.2.2 0 .3-.3.1-.6.1-.8 0zm-1.4-.4c-.2-.1-.2-.2 0-.3.2-.1.6-.1.8 0 .2.1.2.2 0 .3h-.8zm-1.4-.5c-.2-.1-.2-.2 0-.3.2-.1.6-.1.8 0 .2.1.2.2 0 .3-.2.1-.5.1-.8 0zm-1.3-.4c-.2-.1-.2-.2 0-.3.2-.1.6-.1.8 0 .2.1.2.2 0 .3h-.8zm-1.4-.5c-.2-.1-.2-.2 0-.3.2-.1.6-.1.8 0 .2.1.2.2 0 .3-.2.1-.6.1-.8 0zm-1.3-.5c-.2-.1-.2-.2 0-.3.2-.1.6-.1.8 0 .2.1.2.2 0 .3-.3.1-.6.1-.8 0zm-1.4-.4c-.2-.1-.2-.2 0-.3.2-.1.6-.1.8 0 .2.1.2.2 0 .3-.2.1-.6.1-.8 0zm-1.3-.5c-.2-.1-.2-.2 0-.3.2-.1.6-.1.8 0 .2.1.2.2 0 .3-.3.1-.6.1-.8 0zm-1.4-.4c-.2-.1-.2-.2 0-.3.2-.1.6-.1.8 0 .2.1.2.2 0 .3-.2.1-.6.1-.8 0zm-1.4-.5c-.2-.1-.2-.2 0-.3.2-.1.6-.1.8 0 .2.1.2.2 0 .3-.2.1-.5.1-.8 0zm-1.3-.4c-.2-.1-.2-.2 0-.3.2-.1.6-.1.8 0 .2.1.2.2 0 .3h-.8zm-1.4-.5c-.2-.1-.2-.2 0-.3.2-.1.6-.1.8 0 .2.1.2.2 0 .3-.2.1-.6.1-.8 0zm-1.3-.4c-.2-.1-.2-.2 0-.3.2-.1.6-.1.8 0 .2.1.2.2 0 .3h-.8zm-1.4-.5c-.2-.1-.2-.2 0-.3.2-.1.6-.1.8 0 .2.1.2.2 0 .3-.2.1-.6.1-.8 0zm-1.3-.4c-.2-.1-.2-.2 0-.3.2-.1.6-.1.8 0 .2.1.2.2 0 .3h-.8zm51.5 18.1c-.2-.1-.2-.2 0-.3.2-.1.6-.1.8 0 .2.1.2.2 0 .3-.2.1-.6.1-.8 0zm-1.3-.4c-.2-.1-.2-.2 0-.3.2-.1.6-.1.8 0 .2.1.2.2 0 .3h-.8zm-1.4-.5c-.2-.1-.2-.2 0-.3.2-.1.6-.1.8 0 .2.1.2.2 0 .3-.2.1-.6.1-.8 0zm-1.3-.4c-.2-.1-.2-.2 0-.3.2-.1.6-.1.8 0 .2.1.2.2 0 .3h-.8zm-1.4-.5c-.2-.1-.2-.2 0-.3.2-.1.6-.1.8 0 .2.1.2.2 0 .3-.2.1-.6.1-.8 0zm-1.4-.4c-.2-.1-.2-.2 0-.3.2-.1.6-.1.8 0 .2.1.2.2 0 .3h-.8zm-1.3-.5c-.2-.1-.2-.2 0-.3.2-.1.6-.1.8 0 .2.1.2.2 0 .3-.3.1-.6.1-.8 0zm-1.4-.5c-.2-.1-.2-.2 0-.3.2-.1.6-.1.8 0 .2.1.2.2 0 .3-.2.1-.6.1-.8 0zm-1.3-.4c-.2-.1-.2-.2 0-.3.2-.1.6-.1.8 0 .2.1.2.2 0 .3-.3.1-.6.1-.8 0zm-1.4-.5c-.2-.1-.2-.2 0-.3.2-.1.6-.1.8 0 .2.1.2.2 0 .3-.2.1-.6.1-.8 0zm-1.3-.4c-.2-.1-.2-.2 0-.3.2-.1.6-.1.8 0 .2.1.2.2 0 .3-.3.1-.6.1-.8 0zm-8.2-2.7c-.2-.1-.2-.2 0-.3.2-.1.6-.1.8 0 .2.1.2.2 0 .3h-.8zm-1.3-.5c-.2-.1-.2-.2 0-.3.2-.1.6-.1.8 0 .2.1.2.2 0 .3-.3.1-.6.1-.8 0zm-1.4-.5c-.2-.1-.2-.2 0-.3.2-.1.6-.1.8 0 .2.1.2.2 0 .3-.2.1-.6.1-.8 0zm-1.4-.4c-.2-.1-.2-.2 0-.3.2-.1.6-.1.8 0 .2.1.2.2 0 .3-.2.1-.5.1-.8 0zm-1.3-.5c-.2-.1-.2-.2 0-.3.2-.1.6-.1.8 0 .2.1.2.2 0 .3-.3.1-.6.1-.8 0zm-1.4-.4c-.2-.1-.2-.2 0-.3.2-.1.6-.1.8 0 .2.1.2.2 0 .3-.2.1-.6.1-.8 0zm-1.3-.5c-.2-.1-.2-.2 0-.3.2-.1.6-.1.8 0 .2.1.2.2 0 .3-.3.1-.6.1-.8 0zm-1.4-.4c-.2-.1-.2-.2 0-.3.2-.1.6-.1.8 0 .2.1.2.2 0 .3h-.8zm-1.3-.5c-.2-.1-.2-.2 0-.3.2-.1.6-.1.8 0 .2.1.2.2 0 .3-.3.1-.6.1-.8 0zm-1.4-.4c-.2-.1-.2-.2 0-.3.2-.1.6-.1.8 0 .2.1.2.2 0 .3h-.8zm-1.4-.5c-.2-.1-.2-.2 0-.3.2-.1.6-.1.8 0 .2.1.2.2 0 .3-.2.1-.5.1-.8 0zm-1.3-.4c-.2-.1-.2-.2 0-.3.2-.1.6-.1.8 0 .2.1.2.2 0 .3h-.8zm-1.4-.5c-.2-.1-.2-.2 0-.3.2-.1.6-.1.8 0 .2.1.2.2 0 .3-.2.1-.6.1-.8 0zm-1.3-.4c-.2-.1-.2-.2 0-.3.2-.1.6-.1.8 0 .2.1.2.2 0 .3h-.8zm-1.4-.5c-.2-.1-.2-.2 0-.3.2-.1.6-.1.8 0 .2.1.2.2 0 .3-.2.1-.6.1-.8 0zm-1.3-.5c-.2-.1-.2-.2 0-.3.2-.1.6-.1.8 0 .2.1.2.2 0 .3-.3.1-.6.1-.8 0zm-1.4-.4c-.2-.1-.2-.2 0-.3.2-.1.6-.1.8 0 .2.1.2.2 0 .3-.2.1-.6.1-.8 0zm-1.4-.5c-.2-.1-.2-.2 0-.3.2-.1.6-.1.8 0 .2.1.2.2 0 .3-.2.1-.5.1-.8 0zm-1.3-.4c-.2-.1-.2-.2 0-.3.2-.1.6-.1.8 0 .2.1.2.2 0 .3-.3.1-.6.1-.8 0zm-1.4-.5c-.2-.1-.2-.2 0-.3.2-.1.6-.1.8 0 .2.1.2.2 0 .3-.2.1-.6.1-.8 0zm-1.3-.4c-.2-.1-.2-.2 0-.3.2-.1.6-.1.8 0 .2.1.2.2 0 .3h-.8zm-1.4-.5c-.2-.1-.2-.2 0-.3.2-.1.6-.1.8 0 .2.1.2.2 0 .3-.2.1-.6.1-.8 0zm-1.3-.4c-.2-.1-.2-.2 0-.3.2-.1.6-.1.8 0 .2.1.2.2 0 .3h-.8zm-1.4-.5c-.2-.1-.2-.2 0-.3.2-.1.6-.1.8 0 .2.1.2.2 0 .3-.2.1-.6.1-.8 0zm51.6 18.2c-.2-.1-.2-.2 0-.3.2-.1.6-.1.8 0 .2.1.2.2 0 .3h-.8zm-1.4-.5c-.2-.1-.2-.2 0-.3.2-.1.6-.1.8 0 .2.1.2.2 0 .3-.2.1-.6.1-.8 0zm-1.3-.4c-.2-.1-.2-.2 0-.3.2-.1.6-.1.8 0 .2.1.2.2 0 .3h-.8zm-1.4-.5c-.2-.1-.2-.2 0-.3.2-.1.6-.1.8 0 .2.1.2.2 0 .3-.2.1-.6.1-.8 0zm-1.4-.4c-.2-.1-.2-.2 0-.3.2-.1.6-.1.8 0 .2.1.2.2 0 .3h-.8zm-1.3-.5c-.2-.1-.2-.2 0-.3.2-.1.6-.1.8 0 .2.1.2.2 0 .3-.3.1-.6.1-.8 0zm-1.4-.4c-.2-.1-.2-.2 0-.3.2-.1.6-.1.8 0 .2.1.2.2 0 .3h-.8zm-1.3-.5c-.2-.1-.2-.2 0-.3.2-.1.6-.1.8 0 .2.1.2.2 0 .3-.3.1-.6.1-.8 0zm-1.4-.5c-.2-.1-.2-.2 0-.3.2-.1.6-.1.8 0 .2.1.2.2 0 .3-.2.1-.6.1-.8 0zm-1.3-.4c-.2-.1-.2-.2 0-.3.2-.1.6-.1.8 0 .2.1.2.2 0 .3-.3.1-.6.1-.8 0zm-1.4-.5c-.2-.1-.2-.2 0-.3.2-.1.6-.1.8 0 .2.1.2.2 0 .3-.2.1-.6.1-.8 0zm-9.5-3.1c-.2-.1-.2-.2 0-.3.2-.1.6-.1.8 0 .2.1.2.2 0 .3h-.8zm-1.4-.5c-.2-.1-.2-.2 0-.3.2-.1.6-.1.8 0 .2.1.2.2 0 .3-.2.1-.5.1-.8 0zm-1.3-.5c-.2-.1-.2-.2 0-.3.2-.1.6-.1.8 0 .2.1.2.2 0 .3-.3.1-.6.1-.8 0zm-1.4-.4c-.2-.1-.2-.2 0-.3.2-.1.6-.1.8 0 .2.1.2.2 0 .3-.2.1-.6.1-.8 0zm-1.3-.5c-.2-.1-.2-.2 0-.3.2-.1.6-.1.8 0 .2.1.2.2 0 .3-.3.1-.6.1-.8 0zm-1.4-.4c-.2-.1-.2-.2 0-.3.2-.1.6-.1.8 0 .2.1.2.2 0 .3-.2.1-.6.1-.8 0zm-1.3-.5c-.2-.1-.2-.2 0-.3.2-.1.6-.1.8 0 .2.1.2.2 0 .3-.3.1-.6.1-.8 0zm-1.4-.4c-.2-.1-.2-.2 0-.3.2-.1.6-.1.8 0 .2.1.2.2 0 .3h-.8zm-1.4-.5c-.2-.1-.2-.2 0-.3.2-.1.6-.1.8 0 .2.1.2.2 0 .3-.2.1-.5.1-.8 0zm-1.3-.4c-.2-.1-.2-.2 0-.3.2-.1.6-.1.8 0 .2.1.2.2 0 .3h-.8zm-1.4-.5c-.2-.1-.2-.2 0-.3.2-.1.6-.1.8 0 .2.1.2.2 0 .3-.2.1-.6.1-.8 0zm-1.3-.4c-.2-.1-.2-.2 0-.3.2-.1.6-.1.8 0 .2.1.2.2 0 .3h-.8zm-1.4-.5c-.2-.1-.2-.2 0-.3.2-.1.6-.1.8 0 .2.1.2.2 0 .3-.2.1-.6.1-.8 0zm-1.3-.4c-.2-.1-.2-.2 0-.3.2-.1.6-.1.8 0 .2.1.2.2 0 .3h-.8zm-1.4-.5c-.2-.1-.2-.2 0-.3.2-.1.6-.1.8 0 .2.1.2.2 0 .3-.2.1-.6.1-.8 0zm-1.4-.5c-.2-.1-.2-.2 0-.3.2-.1.6-.1.8 0 .2.1.2.2 0 .3-.2.1-.5.1-.8 0zm-1.3-.4c-.2-.1-.2-.2 0-.3.2-.1.6-.1.8 0 .2.1.2.2 0 .3-.3.1-.6.1-.8 0zm-1.4-.5c-.2-.1-.2-.2 0-.3.2-.1.6-.1.8 0 .2.1.2.2 0 .3-.2.1-.6.1-.8 0zm-1.3-.4c-.2-.1-.2-.2 0-.3.2-.1.6-.1.8 0 .2.1.2.2 0 .3-.3.1-.6.1-.8 0zm-1.4-.5c-.2-.1-.2-.2 0-.3.2-.1.6-.1.8 0 .2.1.2.2 0 .3-.2.1-.6.1-.8 0zm-1.3-.4c-.2-.1-.2-.2 0-.3.2-.1.6-.1.8 0 .2.1.2.2 0 .3h-.8zm-1.4-.5c-.2-.1-.2-.2 0-.3.2-.1.6-.1.8 0 .2.1.2.2 0 .3-.2.1-.6.1-.8 0zm50.2 17.7c-.2-.1-.2-.2 0-.3.2-.1.6-.1.8 0 .2.1.2.2 0 .3-.2.1-.6.1-.8 0zm-1.3-.4c-.2-.1-.2-.2 0-.3.2-.1.6-.1.8 0 .2.1.2.2 0 .3h-.8zm-1.4-.5c-.2-.1-.2-.2 0-.3.2-.1.6-.1.8 0 .2.1.2.2 0 .3-.2.1-.6.1-.8 0zm-1.4-.4c-.2-.1-.2-.2 0-.3.2-.1.6-.1.8 0 .2.1.2.2 0 .3h-.8zm-1.3-.5c-.2-.1-.2-.2 0-.3.2-.1.6-.1.8 0 .2.1.2.2 0 .3-.3.1-.6.1-.8 0zm-1.4-.4c-.2-.1-.2-.2 0-.3.2-.1.6-.1.8 0 .2.1.2.2 0 .3h-.8zm-1.3-.5c-.2-.1-.2-.2 0-.3.2-.1.6-.1.8 0 .2.1.2.2 0 .3-.3.1-.6.1-.8 0zm-1.4-.4c-.2-.1-.2-.2 0-.3.2-.1.6-.1.8 0 .2.1.2.2 0 .3h-.8zm-1.3-.5c-.2-.1-.2-.2 0-.3.2-.1.6-.1.8 0 .2.1.2.2 0 .3-.3.1-.6.1-.8 0zm-10.9-3.6c-.2-.1-.2-.2 0-.3.2-.1.6-.1.8 0 .2.1.2.2 0 .3h-.8zm-1.4-.5c-.2-.1-.2-.2 0-.3.2-.1.6-.1.8 0 .2.1.2.2 0 .3-.2.1-.5.1-.8 0zm-1.3-.4c-.2-.1-.2-.2 0-.3.2-.1.6-.1.8 0 .2.1.2.2 0 .3h-.8zm-1.4-.5c-.2-.1-.2-.2 0-.3.2-.1.6-.1.8 0 .2.1.2.2 0 .3-.2.1-.6.1-.8 0zm-1.3-.5c-.2-.1-.2-.2 0-.3.2-.1.6-.1.8 0 .2.1.2.2 0 .3-.3.1-.6.1-.8 0zm-1.4-.4c-.2-.1-.2-.2 0-.3.2-.1.6-.1.8 0 .2.1.2.2 0 .3-.2.1-.6.1-.8 0zm-1.3-.5c-.2-.1-.2-.2 0-.3.2-.1.6-.1.8 0 .2.1.2.2 0 .3-.3.1-.6.1-.8 0zm-1.4-.4c-.2-.1-.2-.2 0-.3.2-.1.6-.1.8 0 .2.1.2.2 0 .3-.2.1-.6.1-.8 0zm-1.4-.5c-.2-.1-.2-.2 0-.3.2-.1.6-.1.8 0 .2.1.2.2 0 .3-.2.1-.5.1-.8 0zm-1.3-.4c-.2-.1-.2-.2 0-.3.2-.1.6-.1.8 0 .2.1.2.2 0 .3h-.8zm-1.4-.5c-.2-.1-.2-.2 0-.3.2-.1.6-.1.8 0 .2.1.2.2 0 .3-.2.1-.6.1-.8 0zm-1.3-.4c-.2-.1-.2-.2 0-.3.2-.1.6-.1.8 0 .2.1.2.2 0 .3h-.8zm-1.4-.5c-.2-.1-.2-.2 0-.3.2-.1.6-.1.8 0 .2.1.2.2 0 .3-.2.1-.6.1-.8 0zm-1.3-.4c-.2-.1-.2-.2 0-.3.2-.1.6-.1.8 0 .2.1.2.2 0 .3h-.8zm-1.4-.5c-.2-.1-.2-.2 0-.3.2-.1.6-.1.8 0 .2.1.2.2 0 .3-.2.1-.6.1-.8 0zm-1.4-.4c-.2-.1-.2-.2 0-.3.2-.1.6-.1.8 0 .2.1.2.2 0 .3h-.8zm-1.3-.5c-.2-.1-.2-.2 0-.3.2-.1.6-.1.8 0 .2.1.2.2 0 .3-.3.1-.6.1-.8 0zm-1.4-.5c-.2-.1-.2-.2 0-.3.2-.1.6-.1.8 0s.2.2 0 .3c-.2.1-.6.1-.8 0zm-1.3-.4c-.2-.1-.2-.2 0-.3.2-.1.6-.1.8 0 .2.1.2.2 0 .3-.3.1-.6.1-.8 0zm-1.4-.5c-.2-.1-.2-.2 0-.3.2-.1.6-.1.8 0 .2.1.2.2 0 .3-.2.1-.6.1-.8 0zm-1.3-.4c-.2-.1-.2-.2 0-.3.2-.1.6-.1.8 0 .2.1.2.2 0 .3-.3.1-.6.1-.8 0zm-1.4-.5c-.2-.1-.2-.2 0-.3.2-.1.6-.1.8 0 .2.1.2.2 0 .3-.2.1-.6.1-.8 0zm-1.4-.4c-.2-.1-.2-.2 0-.3.2-.1.6-.1.8 0 .2.1.2.2 0 .3h-.8zm50.3 17.7c-.2-.1-.2-.2 0-.3.2-.1.6-.1.8 0 .2.1.2.2 0 .3-.3.1-.6.1-.8 0zm-1.4-.5c-.2-.1-.2-.2 0-.3.2-.1.6-.1.8 0 .2.1.2.2 0 .3-.2.1-.6.1-.8 0zm-1.4-.4c-.2-.1-.2-.2 0-.3.2-.1.6-.1.8 0 .2.1.2.2 0 .3h-.8zm-1.3-.5c-.2-.1-.2-.2 0-.3.2-.1.6-.1.8 0 .2.1.2.2 0 .3-.3.1-.6.1-.8 0zm-1.4-.4c-.2-.1-.2-.2 0-.3.2-.1.6-.1.8 0 .2.1.2.2 0 .3h-.8zm-1.3-.5c-.2-.1-.2-.2 0-.3.2-.1.6-.1.8 0 .2.1.2.2 0 .3-.3.1-.6.1-.8 0zm-1.4-.4c-.2-.1-.2-.2 0-.3.2-.1.6-.1.8 0 .2.1.2.2 0 .3h-.8zm-1.3-.5c-.2-.1-.2-.2 0-.3.2-.1.6-.1.8 0 .2.1.2.2 0 .3-.3.1-.6.1-.8 0zm-12.3-4.1c-.2-.1-.2-.2 0-.3.2-.1.6-.1.8 0 .2.1.2.2 0 .3-.2.1-.5.1-.8 0zm-1.3-.4c-.2-.1-.2-.2 0-.3.2-.1.6-.1.8 0 .2.1.2.2 0 .3h-.8zm-1.4-.5c-.2-.1-.2-.2 0-.3.2-.1.6-.1.8 0 .2.1.2.2 0 .3-.2.1-.6.1-.8 0zm-1.3-.4c-.2-.1-.2-.2 0-.3.2-.1.6-.1.8 0 .2.1.2.2 0 .3h-.8zm-1.4-.5c-.2-.1-.2-.2 0-.3.2-.1.6-.1.8 0 .2.1.2.2 0 .3-.2.1-.6.1-.8 0zm-1.3-.5c-.2-.1-.2-.2 0-.3.2-.1.6-.1.8 0 .2.1.2.2 0 .3-.3.1-.6.1-.8 0zm-1.4-.4c-.2-.1-.2-.2 0-.3.2-.1.6-.1.8 0 .2.1.2.2 0 .3-.2.1-.6.1-.8 0zm-1.4-.5c-.2-.1-.2-.2 0-.3.2-.1.6-.1.8 0 .2.1.2.2 0 .3-.2.1-.5.1-.8 0zm-1.3-.4c-.2-.1-.2-.2 0-.3.2-.1.6-.1.8 0 .2.1.2.2 0 .3-.3.1-.6.1-.8 0zm-1.4-.5c-.2-.1-.2-.2 0-.3.2-.1.6-.1.8 0 .2.1.2.2 0 .3-.2.1-.6.1-.8 0zm-1.3-.4c-.2-.1-.2-.2 0-.3.2-.1.6-.1.8 0 .2.1.2.2 0 .3h-.8zm-1.4-.5c-.2-.1-.2-.2 0-.3.2-.1.6-.1.8 0 .2.1.2.2 0 .3-.2.1-.6.1-.8 0zm-1.3-.4c-.2-.1-.2-.2 0-.3.2-.1.6-.1.8 0 .2.1.2.2 0 .3h-.8zm-1.4-.5c-.2-.1-.2-.2 0-.3.2-.1.6-.1.8 0 .2.1.2.2 0 .3-.2.1-.6.1-.8 0zm-1.4-.4c-.2-.1-.2-.2 0-.3.2-.1.6-.1.8 0 .2.1.2.2 0 .3h-.8zm-1.3-.5c-.2-.1-.2-.2 0-.3.2-.1.6-.1.8 0 .2.1.2.2 0 .3-.3.1-.6.1-.8 0zm-1.4-.4c-.2-.1-.2-.2 0-.3.2-.1.6-.1.8 0 .2.1.2.2 0 .3h-.8zm-1.3-.5c-.2-.1-.2-.2 0-.3.2-.1.6-.1.8 0 .2.1.2.2 0 .3-.3.1-.6.1-.8 0zm-1.4-.5c-.2-.1-.2-.2 0-.3.2-.1.6-.1.8 0 .2.1.2.2 0 .3-.2.1-.6.1-.8 0zm-1.3-.4c-.2-.1-.2-.2 0-.3.2-.1.6-.1.8 0 .2.1.2.2 0 .3-.3.1-.6.1-.8 0zm-1.4-.5c-.2-.1-.2-.2 0-.3.2-.1.6-.1.8 0 .2.1.2.2 0 .3-.2.1-.6.1-.8 0zm-1.4-.4c-.2-.1-.2-.2 0-.3.2-.1.6-.1.8 0 .2.1.2.2 0 .3-.2.1-.5.1-.8 0zm-1.3-.5c-.2-.1-.2-.2 0-.3.2-.1.6-.1.8 0 .2.1.2.2 0 .3-.3.1-.6.1-.8 0zm48.8 17.3c-.2-.1-.2-.2 0-.3.2-.1.6-.1.8 0 .2.1.2.2 0 .3-.2.1-.5.1-.8 0zm-1.3-.5c-.2-.1-.2-.2 0-.3.2-.1.6-.1.8 0 .2.1.2.2 0 .3-.3.1-.6.1-.8 0zm-1.4-.4c-.2-.1-.2-.2 0-.3.2-.1.6-.1.8 0 .2.1.2.2 0 .3h-.8zm-1.3-.5c-.2-.1-.2-.2 0-.3.2-.1.6-.1.8 0 .2.1.2.2 0 .3-.3.1-.6.1-.8 0zm-1.4-.4c-.2-.1-.2-.2 0-.3.2-.1.6-.1.8 0 .2.1.2.2 0 .3h-.8zm-1.3-.5c-.2-.1-.2-.2 0-.3.2-.1.6-.1.8 0 .2.1.2.2 0 .3-.3.1-.6.1-.8 0zm-1.4-.4c-.2-.1-.2-.2 0-.3.2-.1.6-.1.8 0 .2.1.2.2 0 .3h-.8zm-12.2-4.1c-.2-.1-.2-.2 0-.3.2-.1.6-.1.8 0 .2.1.2.2 0 .3h-.8zm-1.4-.5c-.2-.1-.2-.2 0-.3.2-.1.6-.1.8 0 .2.1.2.2 0 .3-.2.1-.6.1-.8 0zm-1.3-.4c-.2-.1-.2-.2 0-.3.2-.1.6-.1.8 0 .2.1.2.2 0 .3h-.8zm-1.4-.5c-.2-.1-.2-.2 0-.3.2-.1.6-.1.8 0 .2.1.2.2 0 .3-.2.1-.6.1-.8 0zm-1.3-.4c-.2-.1-.2-.2 0-.3.2-.1.6-.1.8 0 .2.1.2.2 0 .3h-.8zm-1.4-.5c-.2-.1-.2-.2 0-.3.2-.1.6-.1.8 0 .2.1.2.2 0 .3-.2.1-.6.1-.8 0zm-1.4-.5c-.2-.1-.2-.2 0-.3.2-.1.6-.1.8 0 .2.1.2.2 0 .3-.2.1-.5.1-.8 0zm-1.3-.4c-.2-.1-.2-.2 0-.3.2-.1.6-.1.8 0 .2.1.2.2 0 .3-.3.1-.6.1-.8 0zm-1.4-.5c-.2-.1-.2-.2 0-.3.2-.1.6-.1.8 0 .2.1.2.2 0 .3-.2.1-.6.1-.8 0zm-1.3-.4c-.2-.1-.2-.2 0-.3.2-.1.6-.1.8 0 .2.1.2.2 0 .3-.3.1-.6.1-.8 0zm-1.4-.5c-.2-.1-.2-.2 0-.3.2-.1.6-.1.8 0 .2.1.2.2 0 .3-.2.1-.6.1-.8 0zm-1.3-.4c-.2-.1-.2-.2 0-.3.2-.1.6-.1.8 0 .2.1.2.2 0 .3h-.8zm-1.4-.5c-.2-.1-.2-.2 0-.3.2-.1.6-.1.8 0 .2.1.2.2 0 .3-.2.1-.6.1-.8 0zm-1.4-.4c-.2-.1-.2-.2 0-.3.2-.1.6-.1.8 0 .2.1.2.2 0 .3h-.8zm-1.3-.5c-.2-.1-.2-.2 0-.3.2-.1.6-.1.8 0 .2.1.2.2 0 .3-.3.1-.6.1-.8 0zm-1.4-.4c-.2-.1-.2-.2 0-.3.2-.1.6-.1.8 0 .2.1.2.2 0 .3h-.8zm-1.3-.5c-.2-.1-.2-.2 0-.3.2-.1.6-.1.8 0 .2.1.2.2 0 .3-.3.1-.6.1-.8 0zm-1.4-.4c-.2-.1-.2-.2 0-.3.2-.1.6-.1.8 0 .2.1.2.2 0 .3h-.8zm-1.3-.5c-.2-.1-.2-.2 0-.3.2-.1.6-.1.8 0 .2.1.2.2 0 .3-.3.1-.6.1-.8 0zm-1.4-.5c-.2-.1-.2-.2 0-.3.2-.1.6-.1.8 0 .2.1.2.2 0 .3-.2.1-.6.1-.8 0zm-1.4-.4c-.2-.1-.2-.2 0-.3.2-.1.6-.1.8 0 .2.1.2.2 0 .3-.2.1-.5.1-.8 0zm-1.3-.5c-.2-.1-.2-.2 0-.3.2-.1.6-.1.8 0 .2.1.2.2 0 .3-.3.1-.6.1-.8 0zm47.5 16.8c-.2-.1-.2-.2 0-.3.2-.1.6-.1.8 0 .2.1.2.2 0 .3-.3.1-.6.1-.8 0zm-1.4-.4c-.2-.1-.2-.2 0-.3.2-.1.6-.1.8 0 .2.1.2.2 0 .3-.2.1-.6.1-.8 0zm-1.3-.5c-.2-.1-.2-.2 0-.3.2-.1.6-.1.8 0 .2.1.2.2 0 .3-.3.1-.6.1-.8 0zm-1.4-.4c-.2-.1-.2-.2 0-.3.2-.1.6-.1.8 0 .2.1.2.2 0 .3h-.8zm-1.3-.5c-.2-.1-.2-.2 0-.3.2-.1.6-.1.8 0 .2.1.2.2 0 .3-.3.1-.6.1-.8 0zm-1.4-.4c-.2-.1-.2-.2 0-.3.2-.1.6-.1.8 0 .2.1.2.2 0 .3h-.8zm-1.4-.5c-.2-.1-.2-.2 0-.3.2-.1.6-.1.8 0 .2.1.2.2 0 .3-.2.1-.5.1-.8 0zm-1.3-.4c-.2-.1-.2-.2 0-.3.2-.1.6-.1.8 0 .2.1.2.2 0 .3h-.8zm-9.5-3.2c-.2-.1-.2-.2 0-.3.2-.1.6-.1.8 0 .2.1.2.2 0 .3-.3.1-.6.1-.8 0zm-1.4-.5c-.2-.1-.2-.2 0-.3.2-.1.6-.1.8 0 .2.1.2.2 0 .3-.2.1-.6.1-.8 0zm-1.3-.4c-.2-.1-.2-.2 0-.3.2-.1.6-.1.8 0 .2.1.2.2 0 .3h-.8zm-1.4-.5c-.2-.1-.2-.2 0-.3.2-.1.6-.1.8 0 .2.1.2.2 0 .3-.2.1-.6.1-.8 0zm-1.3-.4c-.2-.1-.2-.2 0-.3.2-.1.6-.1.8 0 .2.1.2.2 0 .3h-.8zm-1.4-.5c-.2-.1-.2-.2 0-.3.2-.1.6-.1.8 0 .2.1.2.2 0 .3-.2.1-.6.1-.8 0zm-1.4-.4c-.2-.1-.2-.2 0-.3.2-.1.6-.1.8 0 .2.1.2.2 0 .3h-.8zm-1.3-.5c-.2-.1-.2-.2 0-.3.2-.1.6-.1.8 0 .2.1.2.2 0 .3-.3.1-.6.1-.8 0zm-1.4-.5c-.2-.1-.2-.2 0-.3.2-.1.6-.1.8 0 .2.1.2.2 0 .3-.2.1-.6.1-.8 0zm-1.3-.4c-.2-.1-.2-.2 0-.3.2-.1.6-.1.8 0 .2.1.2.2 0 .3-.3.1-.6.1-.8 0zm-1.4-.5c-.2-.1-.2-.2 0-.3.2-.1.6-.1.8 0 .2.1.2.2 0 .3-.2.1-.6.1-.8 0zm-1.3-.4c-.2-.1-.2-.2 0-.3.2-.1.6-.1.8 0 .2.1.2.2 0 .3-.3.1-.6.1-.8 0zm-1.4-.5c-.2-.1-.2-.2 0-.3.2-.1.6-.1.8 0 .2.1.2.2 0 .3-.2.1-.6.1-.8 0zm-1.4-.4c-.2-.1-.2-.2 0-.3.2-.1.6-.1.8 0 .2.1.2.2 0 .3h-.8zm-1.3-.5c-.2-.1-.2-.2 0-.3.2-.1.6-.1.8 0 .2.1.2.2 0 .3-.3.1-.6.1-.8 0zm-1.4-.4c-.2-.1-.2-.2 0-.3.2-.1.6-.1.8 0 .2.1.2.2 0 .3h-.8zm-1.3-.5c-.2-.1-.2-.2 0-.3.2-.1.6-.1.8 0 .2.1.2.2 0 .3-.3.1-.6.1-.8 0zm-1.4-.4c-.2-.1-.2-.2 0-.3.2-.1.6-.1.8 0 .2.1.2.2 0 .3h-.8zm-1.3-.5c-.2-.1-.2-.2 0-.3.2-.1.6-.1.8 0 .2.1.2.2 0 .3-.3.1-.6.1-.8 0zm-1.4-.4c-.2-.1-.2-.2 0-.3.2-.1.6-.1.8 0 .2.1.2.2 0 .3h-.8zm-1.4-.5c-.2-.1-.2-.2 0-.3.2-.1.6-.1.8 0 .2.1.2.2 0 .3-.2.1-.5.1-.8 0zm-1.3-.5c-.2-.1-.2-.2 0-.3.2-.1.6-.1.8 0 .2.1.2.2 0 .3-.3.1-.6.1-.8 0zm44.8 15.9c-.2-.1-.2-.2 0-.3.2-.1.6-.1.8 0 .2.1.2.2 0 .3-.3.1-.6.1-.8 0zm-1.4-.4c-.2-.1-.2-.2 0-.3.2-.1.6-.1.8 0 .2.1.2.2 0 .3-.2.1-.6.1-.8 0zm-1.3-.5c-.2-.1-.2-.2 0-.3.2-.1.6-.1.8 0 .2.1.2.2 0 .3-.3.1-.6.1-.8 0zm-1.4-.4c-.2-.1-.2-.2 0-.3.2-.1.6-.1.8 0 .2.1.2.2 0 .3h-.8zm-1.4-.5c-.2-.1-.2-.2 0-.3.2-.1.6-.1.8 0 .2.1.2.2 0 .3-.2.1-.5.1-.8 0zm-1.3-.4c-.2-.1-.2-.2 0-.3.2-.1.6-.1.8 0 .2.1.2.2 0 .3h-.8zm-1.4-.5c-.2-.1-.2-.2 0-.3.2-.1.6-.1.8 0 .2.1.2.2 0 .3-.2.1-.6.1-.8 0zm-1.3-.4c-.2-.1-.2-.2 0-.3.2-.1.6-.1.8 0 .2.1.2.2 0 .3h-.8zm-8.2-2.8c-.2-.1-.2-.2 0-.3.2-.1.6-.1.8 0 .2.1.2.2 0 .3-.2.1-.6.1-.8 0zm-1.3-.4c-.2-.1-.2-.2 0-.3.2-.1.6-.1.8 0 .2.1.2.2 0 .3-.3.1-.6.1-.8 0zm-1.4-.5c-.2-.1-.2-.2 0-.3.2-.1.6-.1.8 0 .2.1.2.2 0 .3-.2.1-.6.1-.8 0zm-1.3-.4c-.2-.1-.2-.2 0-.3.2-.1.6-.1.8 0 .2.1.2.2 0 .3h-.8zm-1.4-.5c-.2-.1-.2-.2 0-.3.2-.1.6-.1.8 0 .2.1.2.2 0 .3-.2.1-.6.1-.8 0zm-1.4-.4c-.2-.1-.2-.2 0-.3.2-.1.6-.1.8 0 .2.1.2.2 0 .3h-.8zm-1.3-.5c-.2-.1-.2-.2 0-.3.2-.1.6-.1.8 0 .2.1.2.2 0 .3-.3.1-.6.1-.8 0zm-1.4-.4c-.2-.1-.2-.2 0-.3.2-.1.6-.1.8 0 .2.1.2.2 0 .3h-.8zm-1.3-.5c-.2-.1-.2-.2 0-.3.2-.1.6-.1.8 0 .2.1.2.2 0 .3-.3.1-.6.1-.8 0zm-1.4-.5c-.2-.1-.2-.2 0-.3.2-.1.6-.1.8 0 .2.1.2.2 0 .3-.2.1-.6.1-.8 0zm-1.3-.4c-.2-.1-.2-.2 0-.3.2-.1.6-.1.8 0 .2.1.2.2 0 .3-.3.1-.6.1-.8 0zm-1.4-.5c-.2-.1-.2-.2 0-.3.2-.1.6-.1.8 0 .2.1.2.2 0 .3-.2.1-.6.1-.8 0zm-4.1-1.3c-.2-.1-.2-.2 0-.3.2-.1.6-.1.8 0 .2.1.2.2 0 .3h-.8zm-1.3-.5c-.2-.1-.2-.2 0-.3.2-.1.6-.1.8 0 .2.1.2.2 0 .3-.3.1-.6.1-.8 0zm-2.7-.9c-.2-.1-.2-.2 0-.3.2-.1.6-.1.8 0 .2.1.2.2 0 .3-.3.1-.6.1-.8 0zm-1.4-.4c-.2-.1-.2-.2 0-.3.2-.1.6-.1.8 0 .2.1.2.2 0 .3h-.8zm-1.4-.5c-.2-.1-.2-.2 0-.3.2-.1.6-.1.8 0 .2.1.2.2 0 .3-.2.1-.5.1-.8 0zm-2.7-.9c-.2-.1-.2-.2 0-.3.2-.1.6-.1.8 0 .2.1.2.2 0 .3-.2.1-.6.1-.8 0zm-4-1.4c-.2-.1-.2-.2 0-.3.2-.1.6-.1.8 0 .2.1.2.2 0 .3-.3.1-.6.1-.8 0zm44.7 15.9c-.2-.1-.2-.2 0-.3.2-.1.6-.1.8 0 .2.1.2.2 0 .3-.2.1-.5.1-.8 0zm-1.3-.4c-.2-.1-.2-.2 0-.3.2-.1.6-.1.8 0 .2.1.2.2 0 .3h-.8zm-1.4-.5c-.2-.1-.2-.2 0-.3.2-.1.6-.1.8 0 .2.1.2.2 0 .3-.2.1-.6.1-.8 0zm-1.3-.4c-.2-.1-.2-.2 0-.3.2-.1.6-.1.8 0 .2.1.2.2 0 .3h-.8zm-1.4-.5c-.2-.1-.2-.2 0-.3.2-.1.6-.1.8 0 .2.1.2.2 0 .3-.2.1-.6.1-.8 0zm-8.1-2.7c-.2-.1-.2-.2 0-.3.2-.1.6-.1.8 0 .2.1.2.2 0 .3-.3.1-.6.1-.8 0zm-1.4-.5c-.2-.1-.2-.2 0-.3.2-.1.6-.1.8 0 .2.1.2.2 0 .3-.2.1-.6.1-.8 0zm-1.3-.4c-.2-.1-.2-.2 0-.3.2-.1.6-.1.8 0 .2.1.2.2 0 .3-.3.1-.6.1-.8 0zm-1.4-.5c-.2-.1-.2-.2 0-.3.2-.1.6-.1.8 0 .2.1.2.2 0 .3-.2.1-.6.1-.8 0zm-1.4-.4c-.2-.1-.2-.2 0-.3.2-.1.6-.1.8 0 .2.1.2.2 0 .3h-.8zm-1.3-.5c-.2-.1-.2-.2 0-.3.2-.1.6-.1.8 0 .2.1.2.2 0 .3-.3.1-.6.1-.8 0zm-1.4-.4c-.2-.1-.2-.2 0-.3.2-.1.6-.1.8 0 .2.1.2.2 0 .3h-.8zm-1.3-.5c-.2-.1-.2-.2 0-.3.2-.1.6-.1.8 0 .2.1.2.2 0 .3-.3.1-.6.1-.8 0zm-1.4-.4c-.2-.1-.2-.2 0-.3.2-.1.6-.1.8 0 .2.1.2.2 0 .3h-.8zm-1.3-.5c-.2-.1-.2-.2 0-.3.2-.1.6-.1.8 0 .2.1.2.2 0 .3-.3.1-.6.1-.8 0zm-1.4-.5c-.2-.1-.2-.2 0-.3.2-.1.6-.1.8 0 .2.1.2.2 0 .3-.2.1-.6.1-.8 0zm-1.4-.4c-.2-.1-.2-.2 0-.3.2-.1.6-.1.8 0 .2.1.2.2 0 .3-.2.1-.5.1-.8 0zm-4-1.4c-.2-.1-.2-.2 0-.3.2-.1.6-.1.8 0 .2.1.2.2 0 .3-.3.1-.6.1-.8 0zm-1.4-.4c-.2-.1-.2-.2 0-.3.2-.1.6-.1.8 0 .2.1.2.2 0 .3h-.8zm-2.7-.9c-.2-.1-.2-.2 0-.3.2-.1.6-.1.8 0 .2.1.2.2 0 .3h-.8zm-1.4-.5c-.2-.1-.2-.2 0-.3.2-.1.6-.1.8 0 .2.1.2.2 0 .3-.2.1-.5.1-.8 0zm-1.3-.4c-.2-.1-.2-.2 0-.3.2-.1.6-.1.8 0 .2.1.2.2 0 .3h-.8zm-1.4-.5c-.2-.1-.2-.2 0-.3.2-.1.6-.1.8 0 .2.1.2.2 0 .3-.2.1-.6.1-.8 0zm-1.3-.4c-.2-.1-.2-.2 0-.3.2-.1.6-.1.8 0 .2.1.2.2 0 .3h-.8zm-1.4-.5c-.2-.1-.2-.2 0-.3.2-.1.6-.1.8 0 .2.1.2.2 0 .3-.2.1-.6.1-.8 0zm40.7 14.5c-.2-.1-.2-.2 0-.3.2-.1.6-.1.8 0 .2.1.2.2 0 .3-.2.1-.6.1-.8 0zm-1.3-.4c-.2-.1-.2-.2 0-.3.2-.1.6-.1.8 0 .2.1.2.2 0 .3h-.8zm-1.4-.5c-.2-.1-.2-.2 0-.3.2-.1.6-.1.8 0 .2.1.2.2 0 .3-.2.1-.6.1-.8 0zm-1.3-.4c-.2-.1-.2-.2 0-.3.2-.1.6-.1.8 0 .2.1.2.2 0 .3h-.8zm-1.4-.5c-.2-.1-.2-.2 0-.3.2-.1.6-.1.8 0 .2.1.2.2 0 .3-.2.1-.6.1-.8 0zm-8.1-2.7c-.2-.1-.2-.2 0-.3.2-.1.6-.1.8 0 .2.1.2.2 0 .3-.3.1-.6.1-.8 0zm-1.4-.5c-.2-.1-.2-.2 0-.3.2-.1.6-.1.8 0 .2.1.2.2 0 .3-.2.1-.6.1-.8 0zm-1.4-.4c-.2-.1-.2-.2 0-.3.2-.1.6-.1.8 0 .2.1.2.2 0 .3-.2.1-.5.1-.8 0zm-1.3-.5c-.2-.1-.2-.2 0-.3.2-.1.6-.1.8 0 .2.1.2.2 0 .3-.3.1-.6.1-.8 0zm-1.4-.4c-.2-.1-.2-.2 0-.3.2-.1.6-.1.8 0 .2.1.2.2 0 .3h-.8zm-1.3-.5c-.2-.1-.2-.2 0-.3.2-.1.6-.1.8 0 .2.1.2.2 0 .3-.3.1-.6.1-.8 0zm-1.4-.4c-.2-.1-.2-.2 0-.3.2-.1.6-.1.8 0 .2.1.2.2 0 .3h-.8zm-1.3-.5c-.2-.1-.2-.2 0-.3.2-.1.6-.1.8 0 .2.1.2.2 0 .3-.3.1-.6.1-.8 0zm-1.4-.4c-.2-.1-.2-.2 0-.3.2-.1.6-.1.8 0 .2.1.2.2 0 .3h-.8zm-1.4-.5c-.2-.1-.2-.2 0-.3.2-.1.6-.1.8 0 .2.1.2.2 0 .3-.2.1-.5.1-.8 0zm-6.7-2.3c-.2-.1-.2-.2 0-.3.2-.1.6-.1.8 0 .2.1.2.2 0 .3-.3.1-.6.1-.8 0zm-2.8-.9c-.2-.1-.2-.2 0-.3.2-.1.6-.1.8 0 .2.1.2.2 0 .3-.2.1-.5.1-.8 0zm-1.3-.4c-.2-.1-.2-.2 0-.3.2-.1.6-.1.8 0 .2.1.2.2 0 .3h-.8zm-1.4-.5c-.2-.1-.2-.2 0-.3.2-.1.6-.1.8 0 .2.1.2.2 0 .3-.2.1-.6.1-.8 0zm-1.3-.4c-.2-.1-.2-.2 0-.3.2-.1.6-.1.8 0 .2.1.2.2 0 .3h-.8zm-1.4-.5c-.2-.1-.2-.2 0-.3.2-.1.6-.1.8 0 .2.1.2.2 0 .3-.2.1-.6.1-.8 0zm-1.3-.4c-.2-.1-.2-.2 0-.3.2-.1.6-.1.8 0 .2.1.2.2 0 .3h-.8zm40.7 14.5c-.2-.1-.2-.2 0-.3.2-.1.6-.1.8 0 .2.1.2.2 0 .3-.3.1-.6.1-.8 0zm-1.4-.5c-.2-.1-.2-.2 0-.3.2-.1.6-.1.8 0 .2.1.2.2 0 .3-.2.1-.6.1-.8 0zm-1.3-.4c-.2-.1-.2-.2 0-.3.2-.1.6-.1.8 0 .2.1.2.2 0 .3h-.8zm-1.4-.5c-.2-.1-.2-.2 0-.3.2-.1.6-.1.8 0 .2.1.2.2 0 .3-.2.1-.6.1-.8 0zm-1.4-.4c-.2-.1-.2-.2 0-.3.2-.1.6-.1.8 0 .2.1.2.2 0 .3h-.8zm-1.3-.5c-.2-.1-.2-.2 0-.3.2-.1.6-.1.8 0 .2.1.2.2 0 .3-.3.1-.6.1-.8 0zm-1.4-.4c-.2-.1-.2-.2 0-.3.2-.1.6-.1.8 0 .2.1.2.2 0 .3h-.8zm-1.3-.5c-.2-.1-.2-.2 0-.3.2-.1.6-.1.8 0 .2.1.2.2 0 .3-.3.1-.6.1-.8 0zm-8.2-2.7c-.2-.1-.2-.2 0-.3.2-.1.6-.1.8 0 .2.1.2.2 0 .3-.2.1-.6.1-.8 0zm-1.3-.5c-.2-.1-.2-.2 0-.3.2-.1.6-.1.8 0 .2.1.2.2 0 .3-.3.1-.6.1-.8 0zm-1.4-.4c-.2-.1-.2-.2 0-.3.2-.1.6-.1.8 0 .2.1.2.2 0 .3h-.8zm-1.3-.5c-.2-.1-.2-.2 0-.3.2-.1.6-.1.8 0 .2.1.2.2 0 .3-.3.1-.6.1-.8 0zm-1.4-.4c-.2-.1-.2-.2 0-.3.2-.1.6-.1.8 0 .2.1.2.2 0 .3h-.8zm-1.4-.5c-.2-.1-.2-.2 0-.3.2-.1.6-.1.8 0 .2.1.2.2 0 .3-.2.1-.5.1-.8 0zm-12.2-4.1c-.2-.1-.2-.2 0-.3.2-.1.6-.1.8 0 .2.1.2.2 0 .3-.2.1-.6.1-.8 0zm-1.3-.4c-.2-.1-.2-.2 0-.3.2-.1.6-.1.8 0 .2.1.2.2 0 .3h-.8zm-1.4-.5c-.2-.1-.2-.2 0-.3.2-.1.6-.1.8 0 .2.1.2.2 0 .3-.2.1-.6.1-.8 0zm-1.3-.4c-.2-.1-.2-.2 0-.3.2-.1.6-.1.8 0 .2.1.2.2 0 .3h-.8zm-1.4-.5c-.2-.1-.2-.2 0-.3.2-.1.6-.1.8 0 .2.1.2.2 0 .3-.2.1-.6.1-.8 0zm-1.4-.4c-.2-.1-.2-.2 0-.3.2-.1.6-.1.8 0 .2.1.2.2 0 .3h-.8zm-1.3-.5c-.2-.1-.2-.2 0-.3.2-.1.6-.1.8 0 .2.1.2.2 0 .3-.2.1-.6.1-.8 0zm-1.4-.5c-.2-.1-.2-.2 0-.3.2-.1.6-.1.8 0 .2.1.2.2 0 .3-.2.1-.6.1-.8 0zm-1.3-.4c-.2-.1-.2-.2 0-.3.2-.1.6-.1.8 0 .2.1.2.2 0 .3-.3.1-.6.1-.8 0zm46.1 16.3c-.2-.1-.2-.2 0-.3.2-.1.6-.1.8 0 .2.1.2.2 0 .3-.2.1-.6.1-.8 0zm-1.3-.4c-.2-.1-.2-.2 0-.3.2-.1.6-.1.8 0 .2.1.2.2 0 .3-.3.1-.6.1-.8 0zm-1.4-.5c-.2-.1-.2-.2 0-.3.2-.1.6-.1.8 0 .2.1.2.2 0 .3-.2.1-.6.1-.8 0zm-1.4-.4c-.2-.1-.2-.2 0-.3.2-.1.6-.1.8 0 .2.1.2.2 0 .3h-.8zm-1.3-.5c-.2-.1-.2-.2 0-.3.2-.1.6-.1.8 0 .2.1.2.2 0 .3-.3.1-.6.1-.8 0zm-1.4-.4c-.2-.1-.2-.2 0-.3.2-.1.6-.1.8 0 .2.1.2.2 0 .3h-.8zm-1.3-.5c-.2-.1-.2-.2 0-.3.2-.1.6-.1.8 0 .2.1.2.2 0 .3-.3.1-.6.1-.8 0zm-1.4-.4c-.2-.1-.2-.2 0-.3.2-.1.6-.1.8 0 .2.1.2.2 0 .3h-.8zm-9.5-3.2c-.2-.1-.2-.2 0-.3.2-.1.6-.1.8 0 .2.1.2.2 0 .3-.2.1-.6.1-.8 0zm-1.3-.5c-.2-.1-.2-.2 0-.3.2-.1.6-.1.8 0 .2.1.2.2 0 .3-.3.1-.6.1-.8 0zm-1.4-.4c-.2-.1-.2-.2 0-.3.2-.1.6-.1.8 0 .2.1.2.2 0 .3h-.8zm-1.4-.5c-.2-.1-.2-.2 0-.3.2-.1.6-.1.8 0 .2.1.2.2 0 .3-.2.1-.5.1-.8 0zm-1.3-.4c-.2-.1-.2-.2 0-.3.2-.1.6-.1.8 0 .2.1.2.2 0 .3h-.8zm-1.4-.5c-.2-.1-.2-.2 0-.3.2-.1.6-.1.8 0 .2.1.2.2 0 .3-.2.1-.6.1-.8 0zm-12.2-4.1c-.2-.1-.2-.2 0-.3.2-.1.6-.1.8 0 .2.1.2.2 0 .3-.2.1-.6.1-.8 0zm-1.3-.4c-.2-.1-.2-.2 0-.3.2-.1.6-.1.8 0 .2.1.2.2 0 .3h-.8zm-1.4-.5c-.2-.1-.2-.2 0-.3.2-.1.6-.1.8 0 .2.1.2.2 0 .3-.2.1-.6.1-.8 0zm-1.4-.4c-.2-.1-.2-.2 0-.3.2-.1.6-.1.8 0 .2.1.2.2 0 .3h-.8zm-1.3-.5c-.2-.1-.2-.2 0-.3.2-.1.6-.1.8 0 .2.1.2.2 0 .3-.2.1-.6.1-.8 0zm-1.4-.4c-.2-.1-.2-.2 0-.3.2-.1.6-.1.8 0 .2.1.2.2 0 .3h-.8zm-1.3-.5c-.2-.1-.2-.2 0-.3.2-.1.6-.1.8 0 .2.1.2.2 0 .3-.3.1-.6.1-.8 0zm-1.4-.5c-.2-.1-.2-.2 0-.3.2-.1.6-.1.8 0 .2.1.2.2 0 .3-.2.1-.6.1-.8 0zm-1.3-.4c-.2-.1-.2-.2 0-.3.2-.1.6-.1.8 0 .2.1.2.2 0 .3-.3.1-.6.1-.8 0zm47.5 16.8c-.2-.1-.2-.2 0-.3.2-.1.6-.1.8 0 .2.1.2.2 0 .3-.3.1-.6.1-.8 0zm-1.4-.5c-.2-.1-.2-.2 0-.3.2-.1.6-.1.8 0 .2.1.2.2 0 .3-.2.1-.6.1-.8 0zm-1.4-.4c-.2-.1-.2-.2 0-.3.2-.1.6-.1.8 0 .2.1.2.2 0 .3-.2.1-.5.1-.8 0zm-1.3-.5c-.2-.1-.2-.2 0-.3.2-.1.6-.1.8 0 .2.1.2.2 0 .3-.3.1-.6.1-.8 0zm-1.4-.4c-.2-.1-.2-.2 0-.3.2-.1.6-.1.8 0 .2.1.2.2 0 .3h-.8zm-1.3-.5c-.2-.1-.2-.2 0-.3.2-.1.6-.1.8 0 .2.1.2.2 0 .3-.3.1-.6.1-.8 0zm-1.4-.4c-.2-.1-.2-.2 0-.3.2-.1.6-.1.8 0 .2.1.2.2 0 .3h-.8zm-9.5-3.2c-.2-.1-.2-.2 0-.3s.6-.1.8 0c.2.1.2.2 0 .3-.2.1-.6.1-.8 0zm-1.3-.5c-.2-.1-.2-.2 0-.3.2-.1.6-.1.8 0 .2.1.2.2 0 .3-.3.1-.6.1-.8 0zm-1.4-.4c-.2-.1-.2-.2 0-.3.2-.1.6-.1.8 0 .2.1.2.2 0 .3-.2.1-.6.1-.8 0zm-1.4-.5c-.2-.1-.2-.2 0-.3.2-.1.6-.1.8 0 .2.1.2.2 0 .3-.2.1-.5.1-.8 0zm-1.3-.4c-.2-.1-.2-.2 0-.3.2-.1.6-.1.8 0 .2.1.2.2 0 .3h-.8zm-1.4-.5c-.2-.1-.2-.2 0-.3.2-.1.6-.1.8 0 .2.1.2.2 0 .3-.2.1-.6.1-.8 0zm-1.3-.4c-.2-.1-.2-.2 0-.3.2-.1.6-.1.8 0 .2.1.2.2 0 .3h-.8zm-15-5c-.2-.1-.2-.2 0-.3.2-.1.6-.1.8 0 .2.1.2.2 0 .3h-.8zm-1.3-.5c-.2-.1-.2-.2 0-.3.2-.1.6-.1.8 0 .2.1.2.2 0 .3-.2.1-.6.1-.8 0zm-1.4-.4c-.2-.1-.2-.2 0-.3.2-.1.6-.1.8 0 .2.1.2.2 0 .3h-.8zm-1.3-.5c-.2-.1-.2-.2 0-.3.2-.1.6-.1.8 0 .2.1.2.2 0 .3-.3.1-.6.1-.8 0zm-1.4-.4c-.2-.1-.2-.2 0-.3.2-.1.6-.1.8 0 .2.1.2.2 0 .3h-.8zm-4.1-1.4c-.2-.1-.2-.2 0-.3.2-.1.6-.1.8 0 .2.1.2.2 0 .3-.2.1-.5.1-.8 0zm47.5 16.8c-.2-.1-.2-.2 0-.3.2-.1.6-.1.8 0 .2.1.2.2 0 .3-.2.1-.5.1-.8 0zm-1.3-.5c-.2-.1-.2-.2 0-.3.2-.1.6-.1.8 0 .2.1.2.2 0 .3-.3.1-.6.1-.8 0zm-1.4-.4c-.2-.1-.2-.2 0-.3.2-.1.6-.1.8 0 .2.1.2.2 0 .3-.2.1-.6.1-.8 0zm-1.3-.5c-.2-.1-.2-.2 0-.3.2-.1.6-.1.8 0 .2.1.2.2 0 .3-.3.1-.6.1-.8 0zm-1.4-.4c-.2-.1-.2-.2 0-.3.2-.1.6-.1.8 0 .2.1.2.2 0 .3h-.8zm-1.3-.5c-.2-.1-.2-.2 0-.3.2-.1.6-.1.8 0 .2.1.2.2 0 .3-.3.1-.6.1-.8 0zm-10.9-3.6c-.2-.1-.2-.2 0-.3.2-.1.6-.1.8 0 .2.1.2.2 0 .3-.2.1-.6.1-.8 0zm-1.4-.5c-.2-.1-.2-.2 0-.3.2-.1.6-.1.8 0 .2.1.2.2 0 .3-.2.1-.5.1-.8 0zm-1.3-.4c-.2-.1-.2-.2 0-.3.2-.1.6-.1.8 0 .2.1.2.2 0 .3-.3.1-.6.1-.8 0zm-1.4-.5c-.2-.1-.2-.2 0-.3.2-.1.6-.1.8 0 .2.1.2.2 0 .3-.2.1-.6.1-.8 0zm-1.3-.4c-.2-.1-.2-.2 0-.3.2-.1.6-.1.8 0 .2.1.2.2 0 .3h-.8zm-1.4-.5c-.2-.1-.2-.2 0-.3.2-.1.6-.1.8 0 .2.1.2.2 0 .3-.2.1-.6.1-.8 0zm-12.2-4.1c-.2-.1-.2-.2 0-.3.2-.1.6-.1.8 0 .2.1.2.2 0 .3-.2.1-.6.1-.8 0zm-1.4-.4c-.2-.1-.2-.2 0-.3.2-.1.6-.1.8 0 .2.1.2.2 0 .3h-.8zm-1.3-.5c-.2-.1-.2-.2 0-.3.2-.1.6-.1.8 0 .2.1.2.2 0 .3-.2.1-.6.1-.8 0zm-1.4-.4c-.2-.1-.2-.2 0-.3.2-.1.6-.1.8 0 .2.1.2.2 0 .3h-.8zm-1.3-.5c-.2-.1-.2-.2 0-.3.2-.1.6-.1.8 0 .2.1.2.2 0 .3-.3.1-.6.1-.8 0zm-1.4-.4c-.2-.1-.2-.2 0-.3.2-.1.6-.1.8 0 .2.1.2.2 0 .3h-.8zm-1.3-.5c-.2-.1-.2-.2 0-.3.2-.1.6-.1.8 0 .2.1.2.2 0 .3-.3.1-.6.1-.8 0zm-2.8-.9c-.2-.1-.2-.2 0-.3.2-.1.6-.1.8 0 .2.1.2.2 0 .3-.2.1-.5.1-.8 0zm-1.3-.5c-.2-.1-.2-.2 0-.3.2-.1.6-.1.8 0 .2.1.2.2 0 .3-.2.1-.6.1-.8 0zm47.5 16.8c-.2-.1-.2-.2 0-.3.2-.1.6-.1.8 0 .2.1.2.2 0 .3-.3.1-.6.1-.8 0zm-1.4-.4c-.2-.1-.2-.2 0-.3.2-.1.6-.1.8 0 .2.1.2.2 0 .3-.2.1-.6.1-.8 0zm-1.3-.5c-.2-.1-.2-.2 0-.3.2-.1.6-.1.8 0 .2.1.2.2 0 .3-.3.1-.6.1-.8 0zm-1.4-.4c-.2-.1-.2-.2 0-.3.2-.1.6-.1.8 0 .2.1.2.2 0 .3-.2.1-.6.1-.8 0zm-1.3-.5c-.2-.1-.2-.2 0-.3.2-.1.6-.1.8 0 .2.1.2.2 0 .3-.3.1-.6.1-.8 0zm-12.3-4.1c-.2-.1-.2-.2 0-.3.2-.1.6-.1.8 0 .2.1.2.2 0 .3-.2.1-.5.1-.8 0zm-1.3-.4c-.2-.1-.2-.2 0-.3.2-.1.6-.1.8 0 .2.1.2.2 0 .3-.3.1-.6.1-.8 0zm-1.4-.5c-.2-.1-.2-.2 0-.3.2-.1.6-.1.8 0 .2.1.2.2 0 .3-.2.1-.6.1-.8 0zm-1.3-.4c-.2-.1-.2-.2 0-.3.2-.1.6-.1.8 0 .2.1.2.2 0 .3-.3.1-.6.1-.8 0zm-15-5c-.2-.1-.2-.2 0-.3.2-.1.6-.1.8 0 .2.1.2.2 0 .3-.2.1-.5.1-.8 0zm-1.3-.5c-.2-.1-.2-.2 0-.3.2-.1.6-.1.8 0 .2.1.2.2 0 .3-.2.1-.6.1-.8 0zm-1.4-.4c-.2-.1-.2-.2 0-.3.2-.1.6-.1.8 0 .2.1.2.2 0 .3h-.8zm-1.3-.5c-.2-.1-.2-.2 0-.3.2-.1.6-.1.8 0 .2.1.2.2 0 .3-.3.1-.6.1-.8 0zm-1.4-.4c-.2-.1-.2-.2 0-.3.2-.1.6-.1.8 0 .2.1.2.2 0 .3h-.8zm-1.3-.5c-.2-.1-.2-.2 0-.3.2-.1.6-.1.8 0 .2.1.2.2 0 .3-.3.1-.6.1-.8 0zm-1.4-.4c-.2-.1-.2-.2 0-.3.2-.1.6-.1.8 0 .2.1.2.2 0 .3h-.8zm43.4 15.4c-.2-.1-.2-.2 0-.3.2-.1.6-.1.8 0 .2.1.2.2 0 .3-.2.1-.6.1-.8 0zm-1.3-.5c-.2-.1-.2-.2 0-.3.2-.1.6-.1.8 0 .2.1.2.2 0 .3-.3.1-.6.1-.8 0zm-1.4-.4c-.2-.1-.2-.2 0-.3.2-.1.6-.1.8 0 .2.1.2.2 0 .3-.2.1-.6.1-.8 0zm-1.3-.5c-.2-.1-.2-.2 0-.3.2-.1.6-.1.8 0 .2.1.2.2 0 .3-.3.1-.6.1-.8 0zm-13.6-4.5c-.2-.1-.2-.2 0-.3.2-.1.6-.1.8 0 .2.1.2.2 0 .3-.3.1-.6.1-.8 0zm-1.4-.5c-.2-.1-.2-.2 0-.3.2-.1.6-.1.8 0 .2.1.2.2 0 .3-.2.1-.6.1-.8 0zm-1.3-.4c-.2-.1-.2-.2 0-.3.2-.1.6-.1.8 0 .2.1.2.2 0 .3-.3.1-.6.1-.8 0zm-16.3-5.5c-.2-.1-.2-.2 0-.3.2-.1.6-.1.8 0 .2.1.2.2 0 .3-.2.1-.6.1-.8 0zm-1.4-.4c-.2-.1-.2-.2 0-.3.2-.1.6-.1.8 0 .2.1.2.2 0 .3-.2.1-.6.1-.8 0zm-1.3-.5c-.2-.1-.2-.2 0-.3.2-.1.6-.1.8 0 .2.1.2.2 0 .3-.3.1-.6.1-.8 0zm-1.4-.4c-.2-.1-.2-.2 0-.3.2-.1.6-.1.8 0 .2.1.2.2 0 .3h-.8zm-1.3-.5c-.2-.1-.2-.2 0-.3.2-.1.6-.1.8 0 .2.1.2.2 0 .3-.3.1-.6.1-.8 0zm-1.4-.4c-.2-.1-.2-.2 0-.3.2-.1.6-.1.8 0 .2.1.2.2 0 .3h-.8zm-1.4-.5c-.2-.1-.2-.2 0-.3.2-.1.6-.1.8 0 .2.1.2.2 0 .3-.2.1-.5.1-.8 0zm43.5 15.5c-.2-.1-.2-.2 0-.3.2-.1.6-.1.8 0 .2.1.2.2 0 .3h-.8zm-1.4-.5c-.2-.1-.2-.2 0-.3.2-.1.6-.1.8 0 .2.1.2.2 0 .3-.2.1-.6.1-.8 0zm-1.3-.5c-.2-.1-.2-.2 0-.3.2-.1.6-.1.8 0 .2.1.2.2 0 .3-.3.1-.6.1-.8 0zm-1.4-.4c-.2-.1-.2-.2 0-.3.2-.1.6-.1.8 0 .2.1.2.2 0 .3-.2.1-.6.1-.8 0zm-36.6-12.3c-.2-.1-.2-.2 0-.3.2-.1.6-.1.8 0 .2.1.2.2 0 .3-.3.1-.6.1-.8 0zm-1.4-.4c-.2-.1-.2-.2 0-.3.2-.1.6-.1.8 0 .2.1.2.2 0 .3h-.8zm-1.4-.5c-.2-.1-.2-.2 0-.3.2-.1.6-.1.8 0 .2.1.2.2 0 .3-.2.1-.5.1-.8 0zm-1.3-.4c-.2-.1-.2-.2 0-.3.2-.1.6-.1.8 0 .2.1.2.2 0 .3h-.8zm-4.1-1.4c-.2-.1-.2-.2 0-.3.2-.1.6-.1.8 0 .2.1.2.2 0 .3-.2.1-.6.1-.8 0zm47.5 16.8c-.2-.1-.2-.2 0-.3.2-.1.6-.1.8 0 .2.1.2.2 0 .3-.2.1-.6.1-.8 0zm-1.3-.4c-.2-.1-.2-.2 0-.3.2-.1.6-.1.8 0 .2.1.2.2 0 .3h-.8zm-1.4-.5c-.2-.1-.2-.2 0-.3.2-.1.6-.1.8 0 .2.1.2.2 0 .3-.2.1-.6.1-.8 0zm-39.4-13.2c-.2-.1-.2-.2 0-.3.2-.1.6-.1.8 0 .2.1.2.2 0 .3-.2.1-.5.1-.8 0zm-1.3-.4c-.2-.1-.2-.2 0-.3.2-.1.6-.1.8 0 .2.1.2.2 0 .3h-.8zm-4.1-1.4c-.2-.1-.2-.2 0-.3.2-.1.6-.1.8 0 .2.1.2.2 0 .3-.2.1-.6.1-.8 0zm-1.3-.4c-.2-.1-.2-.2 0-.3.2-.1.6-.1.8 0 .2.1.2.2 0 .3h-.8zm-1.4-.5c-.2-.1-.2-.2 0-.3.2-.1.6-.1.8 0 .2.1.2.2 0 .3-.2.1-.6.1-.8 0zm48.9 17.3c-.2-.1-.2-.2 0-.3.2-.1.6-.1.8 0 .2.1.2.2 0 .3h-.8zm-1.4-.5c-.2-.1-.2-.2 0-.3.2-.1.6-.1.8 0 .2.1.2.2 0 .3-.2.1-.6.1-.8 0zm-1.4-.4c-.2-.1-.2-.2 0-.3.2-.1.6-.1.8 0 .2.1.2.2 0 .3h-.8zm-39.3-13.2c-.2-.1-.2-.2 0-.3.2-.1.6-.1.8 0 .2.1.2.2 0 .3-.2.1-.6.1-.8 0zm-1.4-.5c-.2-.1-.2-.2 0-.3.2-.1.6-.1.8 0 .2.1.2.2 0 .3-.2.1-.6.1-.8 0zm-2.7-.9c-.2-.1-.2-.2 0-.3.2-.1.6-.1.8 0 .2.1.2.2 0 .3-.2.1-.6.1-.8 0zm-1.3-.4c-.2-.1-.2-.2 0-.3.2-.1.6-.1.8 0 .2.1.2.2 0 .3h-.8zm-1.4-.5c-.2-.1-.2-.2 0-.3.2-.1.6-.1.8 0 .2.1.2.2 0 .3-.2.1-.6.1-.8 0zm46.1 16.4c-.2-.1-.2-.2 0-.3.2-.1.6-.1.8 0 .2.1.2.2 0 .3h-.8zm-1.3-.5c-.2-.1-.2-.2 0-.3.2-.1.6-.1.8 0 .2.1.2.2 0 .3-.3.1-.6.1-.8 0zm-43.4-14.5c-.2-.1-.2-.2 0-.3.2-.1.6-.1.8 0 .2.1.2.2 0 .3h-.8zm-1.4-.5c-.2-.1-.2-.2 0-.3.2-.1.6-.1.8 0 .2.1.2.2 0 .3-.2.1-.6.1-.8 0z"/></g><g opacity=".17"><linearGradient id="SVGID_00000045583457935852537250000011249468195614627767_" gradientUnits="userSpaceOnUse" x1="1554.993" y1="157.784" x2="1578.045" y2="773.59"><stop offset="0" stop-color="#fff" stop-opacity="0"/><stop offset=".657" stop-color="#1cb2df"/></linearGradient><path fill="url(#SVGID_00000045583457935852537250000011249468195614627767_)" d="M1513.9 539.7l79.9 26.6 71.2-26.5 142.1-406.1-506.7-16.7z"/></g></g><g id="Layer_3"><path class="st44" d="M389.7 609.9l.9-.6"/><path d="M396.3 605.1c38.5-29.5 49.3-60.3 187.7-70.8 235.8-17.9 390 78.9 498.3 28.9 108.3-50 246.6-26.5 258.3 10 33.3 103.2-150 136-213.3-3.9-37.7-83.3 110.6-302.4 373.9 41.4" fill="none" stroke="#858585" stroke-width="3" stroke-miterlimit="10" stroke-dasharray="2.1216,7.0721"/><path class="st44" d="M1503.4 613.5c.2.3.4.6.6.8"/><g fill-rule="evenodd" clip-rule="evenodd"><path d="M1043.9 516.3c-3.4-4.2-6.6-8.1-7.8-11.7-1.3-3.9-1-9.2-.7-14.7.4-8.4.9-17.9-4.4-25.3-5.3-7.4-14.6-9.9-22.8-12.1-5.3-1.4-10.3-2.8-13.6-5.1-3.2-2.3-6-6.7-8.9-11.3-4.6-7.2-9.9-15.3-18.6-18.1-7.6-2.5-16.8.5-25 3.6-5.3 2-10.3 3.9-14.5 3.9-4.2 0-9.2-1.9-14.5-3.9-8.2-3.1-17.4-6.1-25-3.6-8.8 2.9-14 11-18.6 18.1-3 4.6-5.8 8.9-8.9 11.2-3.2 2.4-8.3 3.7-13.6 5.1-8.2 2.2-17.4 4.7-22.8 12.1-5.3 7.3-4.8 16.8-4.4 25.3.3 5.6.5 10.8-.7 14.7-1.2 3.6-4.4 7.6-7.8 11.7-5.4 6.7-11.5 14.2-11.5 23.6 0 9.4 6.1 17 11.5 23.6 3.4 4.2 6.6 8.1 7.8 11.7 1.3 3.9 1 9.2.7 14.7-.4 8.4-.9 17.9 4.4 25.3 5.3 7.4 14.6 9.9 22.8 12.1 5.3 1.4 10.3 2.8 13.6 5.1 3.2 2.3 6 6.7 8.9 11.3 4.6 7.2 9.9 15.3 18.6 18.1 7.6 2.4 16.8-.5 25-3.6 5.3-2 10.3-3.9 14.5-3.9 4.2 0 9.2 1.9 14.5 3.9 5.9 2.3 12.1 4.6 18.3 4.6 2.4 0 4.6-.3 6.7-1 8.8-2.9 14-11 18.6-18.1 2.9-4.6 5.7-8.9 8.9-11.2 3.2-2.4 8.2-3.7 13.6-5.1 8.2-2.2 17.4-4.7 22.8-12.1 5.3-7.3 4.8-16.8 4.4-25.3-.3-5.6-.5-10.8.7-14.7 1.2-3.6 4.4-7.6 7.8-11.7 5.4-6.7 11.5-14.2 11.5-23.6 0-9.3-6.1-16.9-11.5-23.6" fill="#14c39a"/><path d="M981.4 502.9l-65.6 81.8c-1.9 2.4-4.7 3.8-7.7 3.9h-.8c-2.8-.1-5.4-1.3-7.3-3.3l-20.2-21.7c-3.9-4.2-3.7-10.9.5-14.8 4.2-3.9 10.8-3.7 14.8.5 0 0 0 0 0 0l12 12.9 58-72.4c3.6-4.5 10.2-5.2 14.7-1.7 0 0 0 0 0 0 4.5 3.7 5.2 10.3 1.6 14.8" fill="#fff" stroke="#fff" stroke-width="5.89"/></g></g></svg>