<svg width="233" height="227" fill="none" xmlns="http://www.w3.org/2000/svg"><path d="M35 83.987l1 .026-1-.026zM70.933 16L70 17c.704-.158 1.184-.451.933-1z" fill="#fff"/><path fill-rule="evenodd" clip-rule="evenodd" d="M217.06 178.768c4.37.189 8.077.349 10.199-.376 6.224-2.13 6.191 3.995 5.334 4.462-.453.254-1.185.686-2.119 1.237-5.99 3.537-20.315 11.994-23.052 10.043-5.492-3.915-3.493 1.051-2.746 2.908.13.322.222.55.231.623.18 1.553-7.571 5.127-9.368 5.714-.778.255-5.431-6.622-8.691-11.441-1.458-2.155-2.638-3.899-3.068-4.408-.034-.029.332-.283.868-.633-.211-.293-.444-.619-.69-.964l-.001-.002-.001-.001a111.387 111.387 0 0 0-1.985-2.726l-2.361 1.249s-.538-.623-1.469-1.71l-27.079-35.22h-.857l.434 49.929a9.714 9.714 0 0 0 6.577 9.125l4.539 1.543c2.369.947 5.552 2.03 10.092 3.576h.001l.03.011c6.566 2.231 3.042 6.537 1.977 6.537-.828.003-2.441.099-4.504.22l-.001.001h-.001c-8.237.486-23.638 1.395-24.775-1.425-.213-.527-.417-1.271-.613-1.983-.254-.927-.494-1.8-.719-2.073-.469-.563-.877-.61-1.229-.345-.853.639-1.382 3.092-1.657 4.366-.087.405-.149.69-.187.761-.786 1.458-9.878.815-11.83.456-.853-.156-.755-8.521-.687-14.35.03-2.582.054-4.666-.012-5.319-.007-.058 1.13-.132 2.432-.204-.002-.945.029-2.04.065-3.018-1.942.168-3.209.261-3.209.218 0-15.691-.284-32.637-2.695-48.015H1.819v-5.501h75.407c-27.587-6.79-25.059-35.049-25.059-35.049l-2.949-12.78s-15.22-.2-26.013-.321c-6.97-.74-13.67-2.392-18.385-6.053-10.104-7.84 1.922-21.33 11.934-30.456 1.22-1.111 3.271-2.685 5.55-4.434 2.302-1.765 4.835-3.709 6.982-5.536 6.449-5.49 12.885-10.426 19.114-9.184v-.12a1.142 1.142 0 0 1 1.133-1.146l6.488-.033-.03-.56c-.14-2.66-.356-6.713-2.038-8.9-.48-.623-1.68-2.59-2.126-4.416-.562-2.293-1.076-5.11-1.46-7.413l-.767.302c.06-.432.289-.823.636-1.087-.16-.984-.293-1.838-.39-2.462v-.003a45.527 45.527 0 0 0-.167-1.046C47.054-2.282 67.547-3.776 69.838 7.643c.01.05.023.103.035.156l.017.079.178-.013-.167.065c.424 2.014 1.072 4.168 1.707 6.277.855 2.839 1.684 5.595 1.908 7.819.434 4.354-1.108 6.778-3.688 9.103-1.116 1.005-1.073 2.271-1.036 3.352v.024c.012.35.044.7.076 1.055.038.423.077.852.083 1.292l5.885-.03a1.142 1.142 0 0 1 1.145 1.133v1.358c7.959-.257 18.748 7.454 26.639 13.094 2.374 1.697 4.486 3.206 6.179 4.255 19.139 11.851 34.93 42.268-4.448 29.384-3.756-1.227-4.633-1.703-4.99-1.92v.028l-.623-.25c.227.572 4.381 10.978 8.069 19.669 14.817-.109 29.587-.183 36.672-.198 8.895-.015 14.046 1.352 16.448 4.704 4.861 6.779 13.487 21.57 20.504 33.954h17.294v5.499h-14.191c4.663 8.29 8.029 14.448 8.029 14.448 3.86 7.234 6.36 12.347 6.086 12.922l-2.959 1.567.324.623.206.399c.394.764.758 1.468 1.06 1.989 2.941-1.48 4.185-1.278 5.841-1.01.789.128 1.672.271 2.876.254-.136-.169-.247-.446-.375-.767-.131-.328-.28-.701-.493-1.049-5.293-8.65 4.377-9.582 2.17.693a21.09 21.09 0 0 1-.143.608c.31-.88 1.427-3.394 3.986-4.697 3.548-1.812 4.908 1.086-2.036 4.78a3.626 3.626 0 0 0-.49.317c3.26-.109 6.502.032 9.443.159zM45.519 74.814h.05a.797.797 0 0 1 .314.156l-1.833-9.392c-.014.922-4.622 4.117-8.103 6.53-1.502 1.041-2.793 1.937-3.417 2.443l2.297.135a75.791 75.791 0 0 0-2.373-.074l-.057.048c-.013.01.093.026.293.026.167.013.404.013.695.013h7.78c1.223.013 2.344.035 3.19.07h.255c.284.014.523.03.718.045h.191zm76.327 59.039c.202 1.927.651 4.345 1.27 7.417l.1.508.049.255H94.288c9.031-1.534 18.624-4.821 27.558-8.18z" fill="#fff"/><path d="M180.952 103l.445-6.723a63.8 63.8 0 0 0 4.894 1.85c4.824 1.617 13.126 3.536 14.061 3.855 4.692 1.609-1.958-6.871-3.584-10.598-2.735-6.27-12.873-18.451-13.78-27.378-.83-8.15-10.844-9.585-12.361-2.206-1.558 1.298-3.493 3.45-2.207 3.45.445 0 1.241.025 2.098 0v.087c1.677 14.444-3.931 22.136 6.331 28.605.223 3.44.755 8.995.755 8.995l-.683-8.951a33.212 33.212 0 0 0 4.449 2.28c-.185 2.2-.254 4.007-.391 6.382l-.027.352z" fill="#fff"/><path d="M198 223h1v-11c-.346.137-.68.264-1 .384V223zM97.488 151a81.52 81.52 0 0 1-2.437.506A56.227 56.227 0 0 1 92 152h32a24.39 24.39 0 0 0-.088-.494l-.089-.506H97.488zm48.401 52l-.453.04-.437.041c-2.916.252-6.517.627-9.706.947l-4.373.439-.437.043-.437.043A91.558 91.558 0 0 0 130 207l.437-.03.437-.028 1.146-.068c.933-.055 1.814-.106 2.048-.136 2.239-.27 5.71-.454 8.246-.585.964-.05 1.797-.096 2.328-.131l.473-.033.448-.022.437-.021v-.282l-.044-1.24c-.024-.519-.043-.99-.067-1.424zm41.042-9.686c.745-.45 1.449-.875 1.627-.997 3.382-2.314 5.785-3.794 7.628-4.721l.405-.201a14.5 14.5 0 0 1 .409-.192 98.861 98.861 0 0 1-.863-1.575l-.341-.628-.403.214-.405.213-12.171 6.183-.41.213-.407.214c.668.84 1.335 1.769 1.931 2.564l.296.399c.109-.07.223-.152.381-.241l.385-.24c.472-.32 1.101-.709 1.938-1.205z" fill="#000"/><path d="M130.87 202.793l.436-.037 4.244-.362c3.181-.276 6.759-.584 9.686-.811l.436-.032.454-.034c1.988-.149 3.575-.246 4.36-.248.782-2.329.49-24.026.294-38.496-.033-2.484-.065-4.832-.091-6.971v-1.089a52.652 52.652 0 0 0-.109-3.475l-.033-.432c0-.146-.022-.295-.035-.442-.486-5.759-2.034-11.492-5.232-13.583-1.498-.977-3.27-1.037-5.28-.181l-.052.021h-.057c-1.657.25-6.261 1.88-8.23 2.631l-1.866.709c-2.2.841-4.473 1.708-6.795 2.572.218 1.822.641 4.097 1.234 6.98.059.28.113.563.168.845l.089.442.085.431c.236 1.218.451 2.45.654 3.692l.072.431.072.442c2.446 15.438 2.695 32.284 2.699 47.204.469-.026 1.308-.091 2.352-.177l.445-.03z" fill="#000"/><path fill-rule="evenodd" clip-rule="evenodd" d="M57.954 16.22a18.47 18.47 0 0 0-.085.012c-1.173.154-3.916.52-3.603 4.055.093 1.048-.009 1.731-.302 2.027-.343.346-1.089.29-2.034.218l-.583-.042c-.416-.03-.835.02-1.232.148a2.406 2.406 0 0 0-.422.194 1.99 1.99 0 0 0-.4.307c-.077-.495-.15-.953-.215-1.36-.054-.338-.103-.641-.143-.9a37.688 37.688 0 0 0-.159-.997C47.387 12.7 52.096 9.114 56.55 8.244c5.501-1.088 11.928 1.468 13.258 7.614a7.826 7.826 0 0 1-.448.037l-.085.004c-.11.006-.232.013-.37.013-.351.015-.797.015-1.368.015h-.99c-2.423-.01-6.939-.028-8.243.24a8.536 8.536 0 0 1-.35.053zm135.919 168.741l.395-.218.391-.206 2.341-1.24a8.498 8.498 0 0 0-.506-1.419 46.9 46.9 0 0 0-.392-.892c-1.258-2.775-4.194-8.597-10.96-20.79a984.938 984.938 0 0 0-2.247-4.033l-.25-.446-.25-.435c-.69-1.23-1.389-2.472-2.097-3.725l-.252-.435-.253-.446c-5.257-9.286-10.853-18.941-15.309-26.376-.23-.388-.458-.773-.682-1.156-1.17-1.984-2.284-3.874-3.823-5.501-.252-.268-.52-.529-.798-.781-2.936-2.665-7.389-4.447-15.865-4.447h-.118c-7.135.016-21.531.087-36.058.192h-.97c-6.983.05-13.96.111-20.136.176l.026-.435.013-.218h-.193l-.072-.217c-.305-.904-.64-1.86-.991-2.857l-.001-.002-.002-.004v-.001l-.451-1.287-.106-.304v-.001h-.001v-.001c-1.93-5.519-4.095-11.713-5.327-16.203-.273-.994-1.321-3.97-2.445-7.103l21.543 8.652c.634 1.59 4.347 10.857 7.752 18.911h.97c-3.067-7.216-6.421-15.554-7.566-18.415.591.293 1.808.8 4.677 1.74 17.202 5.628 22.74 2.652 24.357-.835 1.55-3.34.068-8.68-4.064-14.656-3.89-5.645-9.682-11.155-15.477-14.745-1.686-1.042-3.766-2.528-6.174-4.248-5.032-3.596-11.29-8.069-17.242-10.767-3.555-1.614-6.624-2.425-9.245-2.44v-.897a1.59 1.59 0 0 0-1.587-1.579l-5.461.028c-.018-.304-.044-.6-.07-.89-.032-.354-.063-.689-.074-1.026v-.025c-.037-1.052-.075-2.14.89-3.01 2.64-2.375 4.3-4.899 3.835-9.491-.212-2.21-1.013-4.867-1.862-7.687l-.066-.216c-.584-1.943-1.186-3.944-1.608-5.82-.126.015-.274.03-.435.044-.077 0-.16.006-.248.012-.064.004-.132.009-.204.012-.41.015-.923.021-1.564.02h-.992l-.63-.001c-2.368-.003-6.316-.007-7.43.218-.142.028-.303.05-.49.074-1.619.217-3.042.616-2.838 3.093.12 1.38-.052 2.221-.556 2.733-.625.642-1.578.57-2.682.487l-.055-.004-.155-.012a22.13 22.13 0 0 0-.414-.028 2.171 2.171 0 0 0-1.033.155 1.201 1.201 0 0 0-.402.304c-.15.183-.25.403-.286.638l-.06-.011c.381 2.256.87 4.951 1.418 7.16.467 1.9 1.69 3.915 2.212 4.587 1.584 2.06 1.804 5.962 1.952 8.581l.004.077v.098l-6.029.03a1.591 1.591 0 0 0-1.52 1.188c-6.178-.93-12.548 3.855-19.042 9.383-2.143 1.823-4.712 3.794-6.979 5.532l-.084.065c-2.296 1.763-4.277 3.284-5.499 4.397C4.978 75.54-.229 83.358.008 89.476c.113 2.856 1.454 5.301 3.988 7.268 3.619 2.813 8.4 4.453 13.573 5.412-4.738.483-9.402 2.043-12.326 5.567-3.725 4.477-4.129 17.982-4.781 40.356-.113 3.9-.233 7.931-.378 12.269V223h.89v-41.113h39.628v41.096h.891v-62.652c0-.931 0-2.363-.032-4.168h81.97a15.009 15.009 0 0 0-.048-.306 8.136 8.136 0 0 1-.023-.14l-.013-.082-.014-.086-.005-.034-.016-.102a3.965 3.965 0 0 0-.022-.131H41.447a497.446 497.446 0 0 0-.065-3.725h36.685a30.794 30.794 0 0 1-1.452-.265c-.278-.059-.552-.117-.824-.181-.59-.137-1.17-.286-1.739-.446h-32.69c-.123-5.656-.356-12.824-.77-19.796-1.231-20.699-3.098-24.527-4.471-25.256-.496-.923-2.556-1.684-4.208-2.163 2.69.061 5.296.057 7.711.053h.618c3.384-.001 6.335-.002 8.678.191l1.945 9.913.217-.078c.067-.022.135-.04.204-.054.1-.024.242-.055.435-.092l-1.88-9.615-5.66-28.99c-.019-.174-.115-.652-.525-2.69l-.476-2.435v.08c-.352-1.755-.698-3.53-.7-3.802h-.891c0 .435.478 2.828 1.152 6.133.143.698.287 1.41.393 1.942-.229.857-5.076 4.216-7.796 6.101l-.13.09-.15.104c-1.396.969-2.611 1.812-3.247 2.32l-1.956-.03c-4.302-.057-9.654-.129-11.68-.832l-.294.844c2.163.749 7.596.823 11.954.882.517 0 1.016.01 1.492.02l.327.006c.165.08.51.085 1.391.093.389 0 .86.004 1.388.007h.013c.432.003.902.007 1.396.008 3.06 0 8.042.026 9.183.172l3.708 18.981c-2.47-.187-5.55-.181-9.082-.174h-.515c-3.992 0-8.48.001-12.985-.305a40.689 40.689 0 0 0-3.127-.265c-7.016-.72-13.797-2.343-18.496-5.991-2.316-1.797-3.542-4.018-3.644-6.6-.218-5.754 5.033-13.564 15.628-23.212 1.196-1.09 3.168-2.602 5.453-4.355l.074-.057c2.276-1.74 4.853-3.722 7.011-5.56 3.682-3.133 7.95-6.614 12.037-8.267 2.277-.913 4.392-1.214 6.378-.898l.068 12.63a1.59 1.59 0 0 0 1.586 1.58l10.75-.057-.074-.03.16-.416.16-.418c.193.075.383.162.572.249l.175.08.17.082.306.162c.167.089.335.18.5.276l.628.363.057.033c1.48.86 3.012 1.75 5.08 1.75v.893c-2.33 0-4.057-1.01-5.582-1.9l-.005-.004a39.364 39.364 0 0 0-1.132-.642c-.094-.051-.189-.102-.285-.156a3.542 3.542 0 0 0-.317-.154l-.085-.038a1.905 1.905 0 0 0-.133.277c-.358.966.072 2.232 1.304 3.859.196.076.435.172.724.291l.07.029.487.198c2.012.816 5.27 2.036 8.434 2.036h.466v.892h-.466c-2.89 0-5.807-.949-7.882-1.74a52.854 52.854 0 0 1-.9-.357l-.548-.218-.1-.041c.107.352.45.785 1.102 1.438.02.05.05.141.074.217.37 1.119 1.493 4.519 7.43 6.111 1.63.435 8.885 2.637 10.16 3.296l-4.534 4.927a481.6 481.6 0 0 0-1.305-3.583c.107-.217-.03-.483-.236-.652l-.06-.166c-.511-1.41-.916-2.526-.953-2.663l-.435.11-.435.04c0 .094 0 .112 1.052 2.983-.15.355.033.692.218.683h.026c.323.872.68 1.867 1.053 2.906l.265.74.125.346-.196.218.318.128c1.2 3.335 2.408 6.744 2.692 7.784 1.256 4.577 3.464 10.888 5.418 16.475l.033.095a832.703 832.703 0 0 1 1.553 4.442l.03.09.071.201c-9.543.103-17.046.218-19.467.333-9.226.435-12.653.92-13.807 1.136l-.218.043c0 .414 0 .838.02 1.271a60.43 60.43 0 0 0 .167 3.182c.94 11.748 5.845 27.7 24.933 31.663.435.094.894.174 1.348.248 1.789.281 3.596.43 5.407.446h1.067a55.069 55.069 0 0 0 6.207-.446c9.765-1.231 20.398-4.814 30.191-8.484l.434-.161.435-.161c2.072-.782 4.107-1.567 6.083-2.329l.005-.002.458-.177 1.859-.718c1.569-.605 6.431-2.382 8.334-2.693a7.547 7.547 0 0 1 2.954-.653 5.517 5.517 0 0 1 3.141.96c2.468 1.631 4.018 5.203 4.89 9.319.16.768.3 1.553.417 2.35.135.92.239 1.851.317 2.782 0 .096.01.193.02.29l.008.073.002.021.002.03.003.032.033.435a54.539 54.539 0 0 1 .108 3.468v.028c.003.073.012.146.029.217.034.149.079.294.136.436.053.134.118.285.194.446.847 1.779 3.136 5.06 6.214 9.108.289.381.586.77.891 1.164 3.364 4.375 7.517 9.504 11.712 14.551l.261.314.002.003.478.575a826.3 826.3 0 0 0 9.078 10.703l1.585-.84.4-.217.399-.218 12.024-6.33zm-99.28-94.915v.056a.766.766 0 0 0-.128.298l-13.577-5.462c.434-.311 1.102-1.02 2.464-2.515.783-.87 1.667-1.832 1.978-2.045 2.207-1.519 4.539-4.63 6.416-7.135l.015-.02.082-.109c1.088-1.454 2.108-2.815 2.765-3.359 3.736 1.854 8.741 4.19 9.948 4.395 0 .235.137.413.273.407 1.935-.083.161-1.821-.13-.907l-.022-.375c-.999-.054-11.931-5.266-13.746-6.45l-.315-.204-1.087 1.172-.12-.176c-.113-.172-.276-.217-.502-.263-2.638-.611-5.224-3.14-7.698-7.505-.126-.224-.439-1.046-.774-1.931l-.032-.084c-.76-2.005-1.708-4.503-2.39-5.382-.435-.578-.892-.87-1.368-.918a1.273 1.273 0 0 0-.621.111l-.02-3.383c5.772.031 13.06 4.173 19.532 8.52a.47.47 0 0 0-.072.147v.061c-.287.405-.08.846.137.836.583-.024.826-.2.87-.407 1.83 1.246 3.581 2.496 5.203 3.653l.289.206c2.421 1.74 4.512 3.224 6.224 4.283 5.703 3.529 11.395 8.943 15.227 14.484 3.953 5.706 5.414 10.73 4.001 13.773-2.071 4.466-10.336 4.594-23.272.363-4.012-1.304-4.687-1.74-4.975-1.925a1.549 1.549 0 0 0-.726-.263h-.05l-2.986-1.203c.708-.438-.578-1.528-.813-.744zm-53.991 90.949V160.34c0-.932-.01-2.365-.033-4.169H1.114c-.043 1.369-.09 2.759-.137 4.184v20.64h39.625zm-.046-25.715H1.312v-3.725h39.18c.027 1.347.05 2.595.064 3.725zm-5.205-49.243c-.074-.307-1.49-1.277-5.227-2.147h-.008a38.597 38.597 0 0 0-4.052-.705 87.701 87.701 0 0 1-3.119-.265c-6.111-.29-13.194.759-17.026 5.366-3.517 4.239-3.933 18.38-4.563 39.786v.024l-.075 2.567h39.2c-.12-5.641-.357-12.789-.772-19.75-1.265-21.328-3.267-24.278-4.069-24.556l-.235-.081-.054-.239zm.504-23.307h-1.043c-.435-.03-.965-.053-1.547-.07a96.48 96.48 0 0 1 1.986-1.395l.002-.001.472-.327c4.118-2.854 6.55-4.618 7.633-5.758l1.506 7.712c-1.054-.1-3.417-.144-9.009-.161zM48.45 59.727a.698.698 0 0 0 .7.692l11.538-.055c-2.13-.902-3.166-2.366-2.949-3.513.137-.653.78-1.33 2.173-1.088 1.043.183 2.614.645 4.432 1.18l.074.021c2.982.881 6.694 1.978 8.593 1.91.802-.028 1.391-.304 1.802-.848.152-.204.275-.428.365-.666l-.026-5.003-.1-.411.098-.029-.02-3.611v-1.838a.698.698 0 0 0-.695-.692l-5.46.028h-.889l-12.03.063h-.892l-6.086.03a.698.698 0 0 0-.693.701v.69l.065 12.439zm42.33 8.051c.577.326 1.661.892 2.98 1.553-.715.7-1.62 1.91-2.705 3.36l-.013.016c-1.839 2.453-4.121 5.499-6.21 6.945-.37.254-1.052.992-2.132 2.175-.839.922-2.106 2.314-2.423 2.458a.285.285 0 0 1 .128-.015l-.037.461-3.777-1.523 14.19-15.43z" fill="#000"/><path d="M71.218 49.692a.936.936 0 0 0 .841.295c.523-.054.926-.526.941-1.1v-.034a.913.913 0 0 0-.705-.83c-.449-.096-.905.117-1.153.537a1.043 1.043 0 0 0-.14.584c0 .03.011.055.016.086a.911.911 0 0 0 .2.462z" fill="#000"/><path fill-rule="evenodd" clip-rule="evenodd" d="M227.873 187.314c-2.19.769-5.948.603-10.305.41l-.031-.001c-2.865-.129-6.058-.267-9.238-.165l.022-.018c.164-.134.339-.255.523-.36l.182-.1c.281-.157.552-.313.807-.466 3.723-2.239 4.543-4.099 4.061-5.059-.457-.89-1.802-.925-3.431-.067a8.38 8.38 0 0 0-2.888 2.572c.246-3.317-.836-5.182-1.995-5.804a1.799 1.799 0 0 0-2.269.349c-.931 1.025-1.158 3.401.993 7.002.18.319.333.653.456 1 .022.051.041.1.061.151.064.165.132.322.203.465.084.176.204.333.35.46a15.342 15.342 0 0 1-2.762-.269c-1.082-.18-1.988-.329-3.382.082-.274.082-.568.185-.886.313-.267.109-.55.236-.853.383-.13.062-.264.129-.402.2l-.394.207c-1.731.931-4.039 2.445-7.342 4.865-.197.142-.829.551-1.627 1.067-.53.342-1.238.8-1.837 1.194l-.02.013c-.125.082-.243.16-.354.236l-.372.251-.143.1c.562.773 1.581 2.321 2.812 4.194 2.523 3.828 7.18 10.892 8.245 11.481.478-.169 1.298-.52 2.282-.978.289-.133.584-.276.887-.427a43.778 43.778 0 0 0 2.075-1.085c3.046-1.693 3.697-2.598 3.697-2.822a10.009 10.009 0 0 0-.201-.536c-.764-1.95-1.499-4.092-.552-4.859.697-.565 1.917-.151 3.959 1.334.58.424 2.626.586 9.832-3.077 4.634-2.355 9.643-5.39 12.652-7.212l.03-.019.121-.073c.854-.517 1.533-.927 1.964-1.178.217-.249.405-1.778-.3-2.943-.794-1.311-2.397-1.594-4.63-.811zm-23.913-8.087a.933.933 0 0 1 1.209-.162c.893.48 2.163 2.476 1.231 6.913-.054.255-.098.444-.132.587a2.451 2.451 0 0 0-.108.451l-.137-.178a.943.943 0 0 1-.134.093.938.938 0 0 1-.097-.169c-.04-.082-.081-.18-.123-.278v-.001a12.672 12.672 0 0 0-.093-.216 7.477 7.477 0 0 0-.526-1.138c-1.761-2.963-1.819-5.099-1.09-5.902zm2.617 8.322a1.51 1.51 0 0 1-.119.094l.145-.01c.199-.013.399-.026.599-.028a1.212 1.212 0 0 1-.162-.311l.411-.16.383-.149a.28.28 0 0 0-.242-.025c.065-.042.128-.089.188-.14l.216-.164c.139-.102.283-.195.433-.278 4.05-2.207 4.906-3.954 4.677-4.399-.143-.284-1.001-.329-2.239.322-2.302 1.21-3.351 3.472-3.697 4.393-.01.032-.022.064-.033.094a.18.18 0 0 0-.008.021 2.585 2.585 0 0 1-.104.345c-.093.244-.203.326-.42.326h-.082l.054.069zm-47.98 27.792c2.623 1.399 6.474 2.721 13.718 5.165 2.568.877 3.815 2.128 3.674 3.645-.158 1.182-1.175 2.074-1.461 2.089-.842 0-2.5.096-4.59.219l-.046.003c-4.29.252-10.143.595-15.216.53-7.691-.097-9.239-1.098-9.479-1.686-.205-.508-.408-1.24-.604-1.951-.328-1.183-.542-1.929-.82-2.262-.427-.513-.833-.668-1.161-.668a1.186 1.186 0 0 0-.706.247c-.926.689-1.444 2.773-1.856 4.671l-.013.06c-.054.249-.11.513-.139.598-.068.094-.697.704-5.154.671a49.502 49.502 0 0 1-6.262-.439c-.592-1.106-.494-9.409-.441-13.942v-.036l.007-.83c.015-1.887.028-3.415-.007-4.238.342-.033.915-.07 1.543-.105l.441-.026.441-.024 1.201-.062c1.036-.052 1.854-.094 2.114-.122 2.211-.231 5.653-.388 8.193-.504l.069-.003.163-.007h.001c.907-.041 1.685-.076 2.197-.107l.454-.026.441-.024.44-.018c1.257-.044 2.112.005 2.835.261-.011-.082-.018-.163-.025-.242a4.034 4.034 0 0 0-.026-.249c-.022-.16-.022-.313-.022-.465-.024-1.367.333-2.369.84-2.996.124-.155.266-.294.424-.414l.063-.046c.157-.112.328-.201.51-.266a1.84 1.84 0 0 1 .498-.103c.46-.026.914.114 1.278.395 1.067.785 1.755 2.757.946 6.045a10.244 10.244 0 0 1 3.39-2.43 7.08 7.08 0 0 1 1.243-.413V166c.29.376.591.763.904 1.162v13.174h10.711l.752.898h-11.463v23.893c.745.017 1.184.329 1.362.734.336.756-.174 1.721-1.362 2.745v5.699a15.79 15.79 0 0 1-.904-.555v-4.439a21.57 21.57 0 0 1-3.075 1.754l-.427.199-.362.165-.07.033c1.289 1.427 2.413 2.444 3.934 3.367.285.173.585.344.904.512zm0-7.996c.49-.554.609-.949.536-1.116v.007c-.044-.099-.223-.184-.536-.206v1.315zm-1.79-.868a6.41 6.41 0 0 1 .882-.311v2.023a18.677 18.677 0 0 1-3.705 2.192c-.139.066-.28.129-.428.195l-.101.046a5.211 5.211 0 0 0-.318.16c-.178-.204-.364-.416-.551-.638.082-.122.168-.25.265-.383.097-.134.18-.241.28-.366a9.531 9.531 0 0 1 3.676-2.918zm-7.389-.673c.014.176.031.355.058.542v.002c.028.199.066.407.108.618.643.467 1.296 1.179 2.204 2.234a18.875 18.875 0 0 0 .311-1.02c.877-3.257.145-4.923-.527-5.425a.99.99 0 0 0-1.259.015c-.615.467-1.003 1.513-.895 3.034z" fill="#000"/><path fill-rule="evenodd" clip-rule="evenodd" d="M181.869 96.254a59.65 59.65 0 0 0 4.253 1.622c3.225 1.109 8.109 2.375 11.037 3.135l.016.004c1.316.34 2.355.611 2.624.704.346.132.712.205 1.082.218.336.023.663-.113.885-.368.792-.975-.507-3.291-2.688-6.992-.901-1.527-1.753-2.973-2.201-4.026-.914-2.144-2.598-4.886-4.572-8.07-3.666-5.927-8.224-13.303-8.802-19.091-.312-3.134-1.998-5.67-4.508-6.805-2.07-.929-4.308-.744-5.989.5-1.208.892-2.009 2.242-2.381 3.925-1.264 1.09-2.697 2.66-2.597 3.472.041.308.285.635.844.635h1.647c.485 4.527.27 8.364.08 11.757-.405 7.158-.686 12.194 6.06 16.636.182 2.835.55 6.914.678 8.288-5.463.192-11.14 1.64-14.502 5.72-1.298 1.577-2.197 4.275-2.835 8.083.274.234.537.475.79.722.615-3.926 1.474-6.715 2.729-8.233 5.502-6.661 17.731-5.902 24.088-4.406 3.72.873 5.131 1.845 5.194 2.153l.054.24.232.08c.798.28 2.792 3.237 4.054 24.619.411 6.979.649 14.145.768 19.8h-16.544l.251.447.251.437h15.678v3.733h-13.592l.249.437.249.447h13.553c.024 1.81.033 3.245.033 4.178v20.708h-.494c.147.34.269.637.37.894h.124v.323c.45 1.211.35 1.422.283 1.564l-.063.133-.216.118V187c.318-.116.61-.218.887-.281v-26.418c0-3.987-.16-17.072-.896-29.556-1.225-20.751-3.084-24.59-4.452-25.32-.649-1.237-4.112-2.181-5.644-2.554a40.467 40.467 0 0 0-6.392-.966c.037-.655.069-1.254.1-1.839.065-1.313.127-2.508.225-3.812zm-12.554-32.007h-.37c.148-.4.775-1.139 1.479-1.837.16-.159.324-.316.489-.469.164-.152.35-.316.519-.458.27-.238.559-.453.866-.64.138.13.277.254.413.376l.014.013c.551.496 1.027.926 1.285 1.566.149.367.074.548 0 .655-.344.51-1.55.704-2.705.772l-.446.022-.433.01a111.35 111.35 0 0 1-1.108-.01h-.003zm8.26 29.87c.205 2.806.539 6.481.649 7.685h.002c.82-.011 1.641.007 2.416.05a491.732 491.732 0 0 0 .099-1.832c.074-1.426.141-2.706.253-4.143a34.151 34.151 0 0 1-3.419-1.76z" fill="#000"/><path d="M25.052 71.226c-.023.096-.04.193-.052.291 0 .777 1.196.542.972-.175-.155-.497-.791-.376-.92-.116zm16-11a2.48 2.48 0 0 0-.052.291c0 .777 1.195.542.972-.175-.154-.497-.79-.376-.92-.116zm57.002 4.999a2.185 2.185 0 0 0-.054.292c0 .777 1.196.541.972-.174-.155-.499-.79-.377-.918-.118zM82.052 90.224a2.66 2.66 0 0 0-.052.294c0 .776 1.195.54.972-.176-.15-.497-.787-.376-.92-.118zm14.002 13a2.202 2.202 0 0 0-.054.294c0 .777 1.196.539.972-.176-.155-.497-.791-.376-.918-.118zM62.972 83.341c-.155-.497-.791-.374-.918-.116a2.186 2.186 0 0 0-.054.292c0 .777 1.196.542.972-.176zm-50.918 2.884a2.178 2.178 0 0 0-.054.293c0 .776 1.196.54.972-.175-.155-.497-.791-.378-.918-.118zm23.916 8.117c-.154-.499-.79-.374-.918-.118a2.66 2.66 0 0 0-.052.294c0 .776 1.203.54.97-.176zM63.972 72.34c-.155-.496-.791-.373-.92-.115-.023.096-.04.193-.052.29 0 .777 1.196.547.972-.174zm3 33.001c-.155-.497-.791-.374-.918-.116a2.176 2.176 0 0 0-.054.292c0 .777 1.196.542.972-.176zm-36.999-5.999c-.155-.5-.792-.374-.92-.118a2.65 2.65 0 0 0-.053.292c0 .778 1.195.543.973-.174zm6.147-29.107v.05c-.246.345-.067.722.118.715 1.663-.07.123-1.565-.118-.765zM120.236 81c1.664-.07.127-1.565-.113-.765v.05c-.25.345-.071.722.113.715zM28.12 88.235v.052c-.245.345-.068.722.116.713 1.665-.07.125-1.565-.115-.765zM101.237 84c1.663-.07.125-1.565-.116-.765v.05c-.247.345-.069.722.116.715zM79.12 104.235v.05c-.246.345-.068.722.118.715 1.662-.071.124-1.565-.117-.765zm-46-24.999v.05c-.245.345-.068.721.118.714 1.662-.072.123-1.566-.117-.764zm50 15.999v.05c-.246.345-.067.722.118.715 1.662-.07.123-1.565-.118-.765zm-60-33v.05c-.246.345-.067.722.118.715 1.665-.07.118-1.565-.118-.765zM122.236 88c1.665-.07.126-1.565-.114-.765v.052c-.248.345-.071.722.114.713zM39.12 52.235v.05c-.246.345-.067.722.118.715 1.663-.07.121-1.565-.118-.765zm21 22.001v.045c-.245.347-.068.726.118.719 1.662-.066.123-1.568-.117-.764zM41.237 100c1.663-.07.125-1.565-.116-.765v.05c-.247.345-.069.722.116.715zM21.12 96.235v.05c-.245.345-.068.722.118.715 1.661-.07.125-1.565-.117-.765zM8.235 95c1.668-.073.125-1.565-.116-.765v.05c-.241.346-.071.722.116.715zm46.886-18.765v.05c-.247.345-.069.722.116.715 1.663-.07.125-1.565-.116-.765zm3.999 34.003v.05c-.245.344-.068.719.118.712 1.662-.078.123-1.567-.117-.762zm-52-30.001v.052c-.245.344-.068.718.118.71 1.662-.07.123-1.566-.117-.762zm48.001-17v.052c-.247.344-.069.72.116.71 1.663-.07.125-1.567-.116-.762zm4 32.999v.05c-.247.345-.07.721.118.714 1.663-.072.116-1.566-.118-.764zM2.167 89.76l.05.016c.273.322.691.25.733.073.375-1.6-1.506-.53-.783-.09zm47-17l.05.016c.273.322.69.25.733.075.375-1.602-1.506-.531-.783-.092zm42.051 22.014c.273.325.69.253.732.075.377-1.6-1.51-.527-.781-.09l.049.015zm19.949-1.014l.049.014c.274.325.692.253.734.075.375-1.6-1.506-.527-.783-.09zM31.233 63.032c-.474.103-.203 1.472.612.767.265-.227.265-.96-.612-.767zM114.845 73.8c.265-.229.267-.96-.611-.768-.475.102-.206 1.472.611.767zM87.234 63.032c-.474.103-.206 1.473.61.766.266-.226.268-.958-.61-.766zm-5.388 15.769c.264-.23.264-.961-.61-.77-.477.097-.208 1.472.61.77zm-67.612-7.77c-.475.105-.206 1.474.61.767.266-.224.268-.957-.61-.767zM123.845 92.8c.265-.229.267-.96-.611-.768-.475.1-.206 1.472.611.768zM82.234 54.032c-.474.103-.206 1.473.61.766.266-.226.268-.958-.61-.766zm9.611 55.768c.265-.23.267-.96-.611-.768-.474.1-.206 1.471.61.768zm-26-22c.265-.23.267-.96-.611-.768-.474.098-.206 1.472.61.768zm-15.612-4.768c-.473.103-.203 1.472.611.767.267-.227.267-.96-.611-.767zm-26.999-2c-.475.103-.206 1.473.61.766.266-.226.268-.958-.61-.766zm13.611-21.234c.265-.228.265-.958-.61-.766-.477.1-.206 1.474.61.767zm59 16.002c.265-.229.265-.96-.61-.768-.477.103-.206 1.472.61.767zm-21 22c.265-.229.267-.96-.611-.768-.474.1-.206 1.472.61.768zm-34.612-9.769c-.474.104-.203 1.474.612.767.265-.22.265-.958-.612-.767zm73.612-4.231c.265-.229.267-.96-.611-.768-.475.1-.206 1.472.611.768z" fill="#000"/></svg>