<svg xmlns="http://www.w3.org/2000/svg" xmlns:xlink="http://www.w3.org/1999/xlink" width="154" height="42" viewBox="0 0 154 42">
  <defs>
    <polygon id="black-a" points=".37 .266 20.529 .266 20.529 27.62 .37 27.62"/>
  </defs>
  <g fill="none" fill-rule="evenodd">
    <path fill="#222" d="M69.1928315 19.152C69.1928315 17.74152 68.7770609 16.596 67.9462366 15.7176 67.1139785 14.8392 66.0967742 14.4 64.8917563 14.4 63.6874552 14.4 62.6695341 14.8392 61.8379928 15.7176 61.0064516 16.596 60.590681 17.74152 60.590681 19.152 60.590681 20.5632 61.0064516 21.708 61.8379928 22.5864 62.6695341 23.4648 63.6874552 23.904 64.8917563 23.904 66.0967742 23.904 67.1139785 23.4648 67.9462366 22.5864 68.7770609 21.708 69.1928315 20.5632 69.1928315 19.152M65.7526882 9C66.9849462 9 68.1612903 9.252 69.2795699 9.756 70.3978495 10.26 71.3799283 10.9656 72.2250896 11.8728 73.0709677 12.78 73.7455197 13.85352 74.2473118 15.0912 74.7483871 16.3296 75 17.6832 75 19.152 75 20.6208 74.7483871 21.9744 74.2473118 23.2128 73.7455197 24.4512 73.0709677 25.524 72.2250896 26.4312 71.3799283 27.3384 70.3978495 28.04472 69.2795699 28.548 68.1612903 29.052 66.9849462 29.304 65.7526882 29.304 65.0064516 29.304 64.3261649 29.2176 63.7096774 29.0448 63.0924731 28.872 62.5698925 28.6704 62.1390681 28.44 61.6236559 28.1808 61.1784946 27.89352 60.8064516 27.576L60.8064516 36 55 36 55 9.216 59.3010753 9.216 60.1605735 11.16C60.590681 10.7568 61.0924731 10.3968 61.6659498 10.08 62.153405 9.8208 62.7412186 9.576 63.4301075 9.3456 64.1182796 9.1152 64.8917563 9 65.7526882 9M87.222332 9C87.4882415 9 87.7326708 9.01505376 87.95562 9.04301075 88.1770878 9.07168459 88.3622616 9.10107527 88.5111413 9.12903226 88.6881674 9.15770609 88.8511203 9.18709677 89 9.21505376L89 15.2365591C88.8222332 15.1792115 88.6140979 15.1075269 88.3778162 15.0215054 88.1696809 14.9641577 87.9326585 14.9139785 87.666749 14.8709677 87.4000988 14.827957 87.1038208 14.8064516 86.7779149 14.8064516 85.6513178 14.8064516 84.7395223 15.1655914 84.0440096 15.8817204 83.348497 16.5985663 83.0003703 17.6021505 83.0003703 18.8924731L83.0003703 29 77 29 77 9.21505376 81.4441701 9.21505376 82.3337448 11.3655914C82.6892784 10.9354839 83.1181409 10.5483871 83.6225542 10.2043011 84.0366027 9.88888889 84.5476822 9.609319 85.1550522 9.3655914 85.7624221 9.1218638 86.4512684 9 87.222332 9M104.255523 19.5C104.255523 17.9541667 103.84419 16.7291667 103.021524 15.825 102.198858 14.9208333 101.191802 14.46875 100.000355 14.46875 98.8089075 14.46875 97.8011418 14.9208333 96.9791851 15.825 96.1558101 16.7291667 95.7451863 17.9541667 95.7451863 19.5 95.7451863 21.0465625 96.1558101 22.2708333 96.9791851 23.175 97.8011418 24.0791667 98.8089075 24.53125 100.000355 24.53125 101.191802 24.53125 102.198858 24.0791667 103.021524 23.175 103.84419 22.2708333 104.255523 21.0465625 104.255523 19.5M90 19.5C90 18.0125 90.2631112 16.634375 90.7879153 15.365625 91.3127194 14.096875 92.0282969 12.9885417 92.9360661 12.040625 93.8438353 11.0927083 94.9005354 10.3489583 96.1068756 9.809375 97.3117975 9.26979167 98.6096238 9 100.000355 9 101.389667 9 102.687493 9.26979167 103.893834 9.809375 105.098755 10.3489583 106.156165 11.0927083 107.063225 12.040625 107.970994 12.9885417 108.687281 14.096875 109.212794 15.365625 109.736889 16.634375 110 18.0125 110 19.5 110 20.9875 109.736889 22.365625 109.212794 23.634375 108.687281 24.903125 107.970994 26.0121875 107.063225 26.959375 106.156165 27.9072917 105.098755 28.6510417 103.893834 29.190625 102.687493 29.7294792 101.389667 30 100.000355 30 98.6096238 30 97.3117975 29.7294792 96.1068756 29.190625 94.9005354 28.6510417 93.8438353 27.9072917 92.9360661 26.959375 92.0282969 26.0121875 91.3127194 24.903125 90.7879153 23.634375 90.2631112 22.365625 90 20.9875 90 19.5M126.255319 19.5C126.255319 17.9541667 125.843972 16.7291667 125.021277 15.825 124.198582 14.9208333 123.191489 14.46875 122 14.46875 120.808511 14.46875 119.801418 14.9208333 118.978723 15.825 118.156028 16.7291667 117.744681 17.9541667 117.744681 19.5 117.744681 21.0465625 118.156028 22.2708333 118.978723 23.175 119.801418 24.0791667 120.808511 24.53125 122 24.53125 123.191489 24.53125 124.198582 24.0791667 125.021277 23.175 125.843972 22.2708333 126.255319 21.0465625 126.255319 19.5M112 19.5C112 18.0125 112.262411 16.634375 112.787234 15.365625 113.312057 14.096875 114.028369 12.9885417 114.93617 12.040625 115.843972 11.0927083 116.900709 10.3489583 118.106383 9.809375 119.312057 9.26979167 120.60922 9 122 9 123.389362 9 124.687234 9.26979167 125.893617 9.809375 127.098582 10.3489583 128.156028 11.0927083 129.06383 12.040625 129.971631 12.9885417 130.687943 14.096875 131.212766 15.365625 131.737589 16.634375 132 18.0125 132 19.5 132 20.9875 131.737589 22.365625 131.212766 23.634375 130.687943 24.903125 129.971631 26.0121875 129.06383 26.959375 128.156028 27.9072917 127.098582 28.6510417 125.893617 29.190625 124.687234 29.7294792 123.389362 30 122 30 120.60922 30 119.312057 29.7294792 118.106383 29.190625 116.900709 28.6510417 115.843972 27.9072917 114.93617 26.959375 114.028369 26.0121875 113.312057 24.903125 112.787234 23.634375 112.262411 22.365625 112 20.9875 112 19.5"/>
    <g transform="translate(133 2)">
      <mask id="black-b" fill="#fff">
        <use xlink:href="#black-a"/>
      </mask>
      <path fill="#222" d="M14.22911,3.4972 C14.22911,2.63566154 14.54481,1.88181538 15.17481,1.23566154 C15.80411,0.589507692 16.53981,0.266430769 17.37911,0.266430769 C18.21981,0.266430769 18.95411,0.589507692 19.58411,1.23566154 C20.21481,1.88181538 20.52911,2.63566154 20.52911,3.4972 C20.52911,4.35873846 20.21481,5.11258462 19.58411,5.75873846 C18.95411,6.40489231 18.21981,6.72796923 17.37911,6.72796923 C16.53981,6.72796923 15.80411,6.40489231 15.17481,5.75873846 C14.54481,5.11258462 14.22911,4.35873846 14.22911,3.4972 L14.22911,3.4972 Z M20.10911,27.6202769 L14.43981,27.6202769 L14.43981,14.0510462 L8.55911,14.0510462 L8.55911,27.6202769 L2.88981,27.6202769 L2.88981,14.0510462 L0.36981,14.0510462 L0.36981,8.66643077 L2.88981,8.66643077 L2.88981,7.58950769 C2.88981,5.20591795 3.49111,3.38950769 4.69581,2.14027692 C5.89911,0.891046154 7.60711,0.266430769 9.81981,0.266430769 C10.21111,0.266430769 10.57511,0.287969231 10.91111,0.331046154 C11.24711,0.374123077 11.54111,0.424379487 11.79381,0.481815385 C12.07311,0.567969231 12.32441,0.640482051 12.54981,0.6972 L12.54981,5.86643077 C12.40911,5.83843077 12.26911,5.80899487 12.12911,5.78027692 C11.98911,5.75227692 11.83511,5.72355897 11.66711,5.69412308 C11.49981,5.66612308 11.30311,5.65104615 11.07911,5.65104615 C10.35111,5.65104615 9.74911,5.90304615 9.27311,6.40489231 C8.79711,6.90745641 8.55911,7.58950769 8.55911,8.45104615 L8.55911,8.66643077 L20.10911,8.66643077 L20.10911,27.6202769 Z" mask="url(#black-b)"/>
    </g>
    <path fill="#14C39A" d="M41.4310387,17.1132915 C40.8547806,16.4042746 40.3118774,15.7344102 40.1131677,15.1214949 C39.8995548,14.4601729 39.9442645,13.5667831 39.9925226,12.622139 C40.0627806,11.1934271 40.1451032,9.57464746 39.2466516,8.33244407 C38.3389742,7.08027458 36.766329,6.65742712 35.3789097,6.28441017 C34.4754903,6.04166441 33.6217484,5.80959661 33.0752968,5.41308814 C32.5394903,5.02085085 32.0640065,4.28407119 31.5608452,3.5038678 C30.7759419,2.28800339 29.8881355,0.909122034 28.402071,0.424342373 C27.1069097,0.00790169492 25.5427806,0.501935593 24.1532323,1.03725763 C23.2569097,1.3818 22.4116839,1.70498644 21.6942,1.70498644 C20.9774258,1.70498644 20.1322,1.3818 19.2358774,1.03725763 C17.8442,0.504071186 16.280071,0.00790169492 14.9870387,0.424342373 C13.5009742,0.909122034 12.610329,2.2858678 11.8261355,3.5038678 C11.3243935,4.28193559 10.8489097,5.01871525 10.3131032,5.41095254 C9.76452258,5.8117322 8.91149032,6.04166441 8.00807097,6.28441017 C6.62278065,6.65742712 5.05155484,7.08241017 4.14245806,8.33529153 C3.24329677,9.57251186 3.32561935,11.1934271 3.3965871,12.622139 C3.44697419,13.5696305 3.48955484,14.4623085 3.27807097,15.1214949 C3.07936129,15.7322746 2.53645806,16.4042746 1.9602,17.1132915 C1.04187742,18.2444441 7.0967742e-05,19.5279356 7.0967742e-05,21.1253593 C7.0967742e-05,22.7206475 1.03903871,24.0034271 1.95807097,25.1367153 C2.53432903,25.8457322 3.07723226,26.5155966 3.27523226,27.1292237 C3.48955484,27.7898339 3.44484516,28.6832237 3.3965871,29.6278678 C3.32561935,31.0565797 3.24329677,32.6753593 4.14245806,33.9175627 C5.04942581,35.1704441 6.62278065,35.5925797 8.0102,35.9655966 C8.91361935,36.2083424 9.76665161,36.4404102 10.3131032,36.8369186 C10.8489097,37.2291559 11.3243935,37.9659356 11.8282645,38.7468508 C12.6131677,39.9627153 13.5009742,41.3408847 14.9870387,41.8263763 C16.2772323,42.2406814 17.8442,41.7438 19.2358774,41.2127492 C20.1322,40.8703424 20.9774258,40.5457322 21.6942,40.5457322 C22.4116839,40.5457322 23.2569097,40.8689186 24.1532323,41.2127492 C25.1623935,41.6014271 26.2084581,42.0000712 27.2651677,42.0000712 C27.6647161,42.0000712 28.0472323,41.9416983 28.3992323,41.8263763 C29.8860065,41.3408847 30.7759419,39.9648508 31.5608452,38.7468508 C32.0618774,37.9687831 32.5373613,37.2320034 33.0752968,36.8390542 C33.6217484,36.4382746 34.4754903,36.2083424 35.3810387,35.9655966 C36.766329,35.5925797 38.3368452,35.1704441 39.2466516,33.9175627 C40.1451032,32.6803424 40.0627806,31.0587153 39.9925226,29.6278678 C39.9442645,28.6810881 39.8995548,27.7876983 40.1131677,27.1292237 C40.3118774,26.5177322 40.8547806,25.8457322 41.4310387,25.1367153 C42.3493613,24.0076983 43.3911677,22.7249186 43.3911677,21.1253593 C43.3890387,19.5300712 42.3493613,18.2465797 41.4310387,17.1132915"/>
    <path fill="#FFF" stroke="#FFF" d="M30.8156839,14.8410203 L19.6865226,28.7252237 C19.3636194,29.1274271 18.8831677,29.3680373 18.3707806,29.3901051 C18.3239419,29.3958 18.2849097,29.394226 18.242329,29.3929525 C17.7739419,29.3765797 17.3289742,29.1729864 17.0032323,28.8305797 L13.5726516,25.1488169 C12.9041355,24.4312576 12.9410387,23.3022407 13.6571032,22.6316644 C14.3731677,21.9603763 15.4980065,21.9988169 16.1672323,22.7163763 L18.198329,24.8989525 L28.0479419,12.611461 C28.6632323,11.8447831 29.7802645,11.7180712 30.5445871,12.3359695 C31.3089097,12.9538678 31.4316839,14.0736305 30.8156839,14.8410203"/>
  </g>
</svg>
