<svg width="1440" height="735" xmlns="http://www.w3.org/2000/svg" xmlns:xlink="http://www.w3.org/1999/xlink"><defs><path id="a" d="M0 0h1440v735H0z"/><linearGradient x1="21.173%" y1="11.557%" x2="49.351%" y2="90.169%" id="c"><stop stop-color="#14C39A" offset="0%"/><stop stop-color="#82A5AF" offset="24.163%"/><stop stop-color="#F785C4" offset="49.824%"/><stop stop-color="#34D2FB" offset="76.845%"/><stop stop-color="#14C39A" offset="100%"/></linearGradient><linearGradient x1="21.173%" y1="12.032%" x2="49.351%" y2="89.672%" id="d"><stop stop-color="#14C39A" offset="0%"/><stop stop-color="#F785C4" offset="49.824%"/><stop stop-color="#34D2FB" offset="76.845%"/><stop stop-color="#14C39A" offset="100%"/></linearGradient><linearGradient x1="21.173%" y1="11.577%" x2="49.351%" y2="90.147%" id="e"><stop stop-color="#14C39A" offset="0%"/><stop stop-color="#3BD2FA" offset="25.377%"/><stop stop-color="#F785C4" offset="49.824%"/><stop stop-color="#34D2FB" offset="76.845%"/><stop stop-color="#14C39A" offset="100%"/></linearGradient><linearGradient x1="21.173%" y1="11.498%" x2="49.351%" y2="90.23%" id="f"><stop stop-color="#14C39A" offset="0%"/><stop stop-color="#3BD2FA" offset="25.377%"/><stop stop-color="#F785C4" offset="49.824%"/><stop stop-color="#34D2FB" offset="76.845%"/><stop stop-color="#14C39A" offset="100%"/></linearGradient><linearGradient x1="21.173%" y1="11.846%" x2="49.351%" y2="89.866%" id="g"><stop stop-color="#14C39A" offset="0%"/><stop stop-color="#3BD2FA" offset="25.377%"/><stop stop-color="#F785C4" offset="49.824%"/><stop stop-color="#34D2FB" offset="76.845%"/><stop stop-color="#14C39A" offset="100%"/></linearGradient><linearGradient x1="21.173%" y1="11.594%" x2="49.351%" y2="90.13%" id="h"><stop stop-color="#14C39A" offset="0%"/><stop stop-color="#3BD2FA" offset="25.377%"/><stop stop-color="#F785C4" offset="49.824%"/><stop stop-color="#34D2FB" offset="76.845%"/><stop stop-color="#14C39A" offset="100%"/></linearGradient></defs><g fill="none" fill-rule="evenodd"><mask id="b" fill="#fff"><use xlink:href="#a"/></mask><use fill="#FFF" xlink:href="#a"/><g opacity=".7" mask="url(#b)"><path d="M849.796 345.516c-11.82-14.543-22.956-28.283-27.031-40.856-4.382-13.565-3.465-31.89-2.475-51.267 1.441-29.306 3.13-62.511-15.299-87.991-18.617-25.685-50.874-34.359-79.331-42.01-18.53-4.98-36.042-9.74-47.25-17.873-10.99-8.046-20.743-23.159-31.063-39.162-16.1-24.94-34.31-53.224-64.79-63.168-26.565-8.542-58.647 1.591-87.149 12.572-18.384 7.067-35.72 13.697-50.437 13.697-14.702 0-32.038-6.63-50.423-13.697C366.003 4.824 333.92-5.353 307.399 3.19c-30.48 9.944-48.748 38.184-64.833 63.168-10.291 15.96-20.044 31.073-31.034 39.118-11.252 8.221-28.749 12.938-47.279 17.917-28.414 7.651-60.641 16.369-79.288 42.068-18.443 25.378-16.754 58.627-15.299 87.933 1.034 19.435 1.907 37.746-2.43 51.267-4.076 12.529-15.212 26.313-27.032 40.856C21.37 368.72 0 395.046 0 427.813c0 32.723 21.31 59.036 40.16 82.282 11.82 14.543 22.956 28.284 27.017 40.87 4.396 13.551 3.48 31.877 2.49 51.253-1.456 29.307-3.145 62.511 15.298 87.992 18.603 25.7 50.874 34.358 79.332 42.01 18.53 4.979 36.027 9.739 47.235 17.872 10.99 8.046 20.743 23.159 31.077 39.177 16.1 24.94 34.31 53.21 64.79 63.168 26.464 8.498 58.604-1.694 87.149-12.587 18.385-7.023 35.721-13.682 50.423-13.682 14.716 0 32.053 6.63 50.437 13.682 20.7 7.973 42.155 16.15 63.83 16.15 8.195 0 16.04-1.197 23.26-3.563 30.496-9.958 48.75-38.184 64.849-63.168 10.277-15.96 20.03-31.073 31.063-39.133 11.208-8.22 28.72-12.937 47.293-17.917 28.414-7.651 60.627-16.31 79.288-42.01 18.429-25.377 16.74-58.64 15.299-87.99-.99-19.421-1.907-37.747 2.475-51.253 4.075-12.543 15.21-26.328 27.03-40.871C868.632 486.936 890 460.624 890 427.813c-.044-32.723-21.369-59.05-40.204-82.297" fill="url(#c)" opacity=".1" transform="rotate(38 -256.61 -241.631)"/><path d="M816.44 351.547c-10.824-13.235-21.021-25.74-24.754-37.18-4.012-12.346-3.172-29.023-2.266-46.656 1.32-26.67 2.866-56.888-14.009-80.076-17.049-23.375-46.587-31.268-72.646-38.231-16.97-4.532-33.005-8.864-43.268-16.265-10.064-7.322-18.995-21.076-28.446-35.64-14.742-22.697-31.418-48.436-59.33-57.486-24.327-7.773-53.705 1.449-79.804 11.442-16.836 6.431-32.711 12.464-46.188 12.464-13.463 0-29.338-6.033-46.173-12.464-26.14-9.953-55.518-19.215-79.805-11.442-27.912 9.05-44.64 34.75-59.37 57.486-9.424 14.524-18.355 28.278-28.419 35.6-10.304 7.481-26.326 11.773-43.294 16.305-26.02 6.963-55.532 14.896-72.607 38.284-16.889 23.095-15.342 53.353-14.01 80.023.947 17.687 1.747 34.35-2.225 46.655-3.733 11.402-13.93 23.946-24.754 37.181-17.248 21.116-36.816 45.075-36.816 74.894 0 29.78 19.515 53.725 36.776 74.88 10.824 13.236 21.021 25.74 24.74 37.195 4.026 12.331 3.186 29.008 2.28 46.642-1.333 26.67-2.88 56.888 14.01 80.076 17.034 23.388 46.586 31.268 72.646 38.231 16.968 4.532 32.99 8.864 43.254 16.265 10.064 7.322 18.995 21.076 28.459 35.653 14.742 22.697 31.418 48.423 59.33 57.486 24.233 7.734 53.665-1.542 79.805-11.455 16.835-6.391 32.71-12.451 46.173-12.451 13.477 0 29.352 6.033 46.188 12.451 18.954 7.256 38.602 14.697 58.45 14.697 7.505 0 14.69-1.09 21.3-3.242 27.926-9.063 44.642-34.75 59.384-57.486 9.41-14.524 18.342-28.278 28.446-35.613 10.263-7.481 26.299-11.773 43.308-16.305 26.019-6.963 55.517-14.843 72.606-38.23 16.875-23.096 15.33-53.367 14.01-80.077-.907-17.673-1.747-34.35 2.265-46.642 3.733-11.415 13.93-23.96 24.754-37.195 17.248-21.075 36.816-45.02 36.816-74.88-.04-29.78-19.568-53.738-36.816-74.894" fill="url(#d)" opacity=".15" transform="rotate(38 -256.61 -241.631)"/><path d="M775.382 361.23c-9.668-11.893-18.777-23.129-22.11-33.41-3.584-11.093-2.834-26.079-2.025-41.924 1.18-23.965 2.56-51.119-12.514-71.956-15.228-21.004-41.613-28.096-64.891-34.353-15.157-4.072-29.481-7.965-38.65-14.616-8.989-6.58-16.966-18.938-25.408-32.025-13.169-20.395-28.064-43.525-52.997-51.656-21.73-6.986-47.972 1.301-71.285 10.28-15.039 5.78-29.22 11.201-41.257 11.201-12.026 0-26.207-5.42-41.245-11.2-23.35-8.944-49.591-17.267-71.285-10.281-24.933 8.131-39.876 31.225-53.033 51.656-8.418 13.051-16.395 25.41-25.385 31.99-9.204 6.722-23.516 10.579-38.673 14.65-23.242 6.258-49.603 13.386-64.856 34.402-15.086 20.753-13.705 47.943-12.514 71.908.846 15.893 1.56 30.867-1.988 41.924-3.334 10.245-12.443 21.517-22.111 33.41-15.407 18.975-32.886 40.504-32.886 67.3 0 26.758 17.431 48.276 32.85 67.286 9.669 11.893 18.777 23.129 22.1 33.422 3.595 11.081 2.845 26.067 2.035 41.912-1.19 23.966-2.572 51.119 12.514 71.956 15.217 21.016 41.614 28.097 64.892 34.354 15.157 4.071 29.469 7.964 38.637 14.615 8.99 6.58 16.967 18.938 25.42 32.037 13.17 20.395 28.065 43.513 52.998 51.656 21.646 6.95 47.936-1.385 71.285-10.293 15.038-5.743 29.22-11.188 41.245-11.188 12.038 0 26.218 5.421 41.257 11.188 16.93 6.52 34.481 13.207 52.21 13.207 6.704 0 13.122-.98 19.027-2.914 24.945-8.143 39.876-31.225 53.045-51.656 8.406-13.05 16.383-25.41 25.409-32.001 9.168-6.723 23.492-10.58 38.685-14.651 23.242-6.257 49.591-13.338 64.855-34.354 15.074-20.753 13.693-47.955 12.514-71.956-.81-15.881-1.56-30.867 2.025-41.912 3.333-10.257 12.442-21.53 22.11-33.422 15.408-18.939 32.887-40.456 32.887-67.287-.036-26.76-17.48-48.289-32.887-67.298" fill="url(#e)" opacity=".2" transform="rotate(38 -256.61 -241.631)"/></g><g opacity=".7" mask="url(#b)"><path d="M1299.519 528.77c-18.075-22.258-35.104-43.286-41.336-62.526-6.7-20.76-5.298-48.804-3.784-78.458 2.203-44.85 4.785-95.665-23.395-134.66-28.47-39.307-77.798-52.58-121.316-64.29-28.336-7.62-55.114-14.905-72.254-27.352-16.806-12.313-31.72-35.442-47.502-59.933-24.62-38.168-52.467-81.453-99.078-96.67C850.23-8.194 801.17 7.315 757.585 24.12c-28.114 10.815-54.625 20.96-77.13 20.96-22.482 0-48.993-10.145-77.107-20.96C559.697 7.382 510.637-8.194 470.079 4.88c-46.611 15.217-74.547 58.435-99.144 96.67-15.738 24.424-30.652 47.553-47.458 59.866-17.206 12.58-43.962 19.799-72.299 27.419-43.45 11.71-92.734 25.05-121.248 64.38-28.203 38.838-25.621 89.72-23.395 134.57 1.58 29.743 2.916 57.765-3.718 78.458-6.232 19.173-23.261 40.268-41.336 62.525C32.677 564.278 0 604.57 0 654.714c0 50.078 32.588 90.346 61.414 125.922 18.075 22.257 35.104 43.285 41.314 62.547 6.723 20.738 5.32 48.783 3.807 78.436-2.226 44.85-4.808 95.665 23.395 134.66 28.447 39.33 77.797 52.58 121.315 64.29 28.336 7.62 55.092 14.906 72.232 27.352 16.806 12.313 31.72 35.442 47.525 59.956 24.619 38.168 52.466 81.43 99.077 96.67 40.469 13.006 89.618-2.592 133.269-19.262 28.114-10.749 54.625-20.939 77.107-20.939 22.505 0 49.016 10.146 77.13 20.939 31.653 12.201 64.464 24.715 97.609 24.715 12.532 0 24.53-1.832 35.57-5.453 46.635-15.24 74.548-58.435 99.168-96.67 15.715-24.425 30.629-47.553 47.502-59.888 17.14-12.582 43.918-19.8 72.321-27.42 43.451-11.71 92.712-24.96 121.249-64.29 28.18-38.838 25.598-89.743 23.395-134.66-1.514-29.72-2.917-57.765 3.784-78.436 6.232-19.195 23.261-40.29 41.336-62.547 28.804-35.442 61.481-75.71 61.481-125.922-.067-50.079-32.677-90.37-61.481-125.945" fill="url(#f)" opacity=".1" transform="translate(721 -697)"/><path d="M1247.85 539.736c-16.508-20.235-32.06-39.353-37.753-56.845-6.12-18.874-4.838-44.372-3.456-71.331 2.013-40.776 4.37-86.975-21.367-122.428-26.001-35.736-71.052-47.804-110.797-58.45-25.88-6.928-50.336-13.551-65.99-24.867-15.349-11.195-28.97-32.222-43.384-54.49-22.484-34.7-47.917-74.053-90.487-87.888-37.102-11.885-81.909 2.214-121.714 17.492-25.677 9.833-49.89 19.057-70.443 19.057-20.533 0-44.745-9.224-70.422-19.057-39.866-15.217-84.673-29.377-121.714-17.492-42.57 13.835-68.084 53.127-90.548 87.889-14.374 22.206-27.995 43.233-43.343 54.428-15.715 11.438-40.152 18-66.031 24.928-39.684 10.646-84.694 22.775-110.736 58.532-25.758 35.31-23.4 81.57-21.367 122.346 1.443 27.04 2.663 52.518-3.395 71.33-5.692 17.432-21.245 36.61-37.752 56.846C90.844 572.02 61 608.65 61 654.24c0 45.529 29.763 82.14 56.09 114.483 16.507 20.235 32.06 39.353 37.732 56.866 6.14 18.854 4.858 44.35 3.476 71.31-2.033 40.776-4.391 86.976 21.367 122.428 25.981 35.757 71.052 47.804 110.797 58.45 25.88 6.928 50.316 13.551 65.97 24.868 15.348 11.194 28.97 32.222 43.404 54.509 22.484 34.7 47.917 74.033 90.487 87.889 36.96 11.824 81.848-2.357 121.714-17.513 25.677-9.772 49.89-19.037 70.422-19.037 20.554 0 44.766 9.224 70.443 19.037 28.909 11.093 58.875 22.47 89.146 22.47 11.445 0 22.403-1.666 32.487-4.957 42.59-13.856 68.084-53.128 90.568-87.89 14.353-22.205 27.974-43.233 43.384-54.447 15.654-11.439 40.11-18 66.051-24.929 39.684-10.646 84.674-22.693 110.736-58.45 25.738-35.31 23.38-81.591 21.367-122.427-1.382-27.021-2.663-52.518 3.456-71.311 5.692-17.452 21.245-36.63 37.752-56.866C1274.156 736.501 1304 699.891 1304 654.24c-.061-45.53-29.844-82.16-56.15-114.504" fill="url(#g)" opacity=".15" transform="translate(721 -697)"/><path d="M1186.767 553.492c-14.768-18.162-28.681-35.322-33.774-51.023-5.474-16.94-4.328-39.826-3.091-64.024 1.8-36.598 3.91-78.065-19.115-109.886-23.261-32.076-63.564-42.908-99.12-52.463-23.152-6.219-45.032-12.163-59.036-22.32-13.731-10.048-25.916-28.922-38.811-48.908-20.115-31.146-42.867-66.467-80.951-78.886-33.192-10.667-73.276 1.988-108.887 15.7-22.97 8.827-44.631 17.106-63.018 17.106-18.37 0-40.03-8.28-63-17.105-35.666-13.658-75.75-26.368-108.887-15.7-38.084 12.418-60.91 47.685-81.006 78.885-12.858 19.932-25.044 38.805-38.775 48.853-14.059 10.266-35.92 16.156-59.072 22.375-35.501 9.555-75.768 20.442-99.065 52.536-23.044 31.693-20.934 73.215-19.115 109.813 1.291 24.271 2.382 47.139-3.037 64.024-5.093 15.646-19.006 32.86-33.774 51.023C151.699 582.468 125 615.346 125 656.266c0 40.866 26.626 73.726 50.178 102.757 14.768 18.162 28.682 35.322 33.756 51.04 5.492 16.923 4.347 39.808 3.11 64.007-1.819 36.598-3.929 78.065 19.115 109.886 23.243 32.094 63.564 42.908 99.12 52.463 23.152 6.218 45.013 12.163 59.017 22.32 13.731 10.048 25.917 28.921 38.83 48.925 20.115 31.146 42.867 66.45 80.95 78.887 33.065 10.613 73.222-2.116 108.887-15.72 22.97-8.77 44.632-17.086 63-17.086 18.388 0 40.049 8.279 63.02 17.087 25.861 9.956 52.67 20.168 79.75 20.168 10.24 0 20.042-1.495 29.063-4.45 38.102-12.436 60.909-47.685 81.024-78.886 12.84-19.93 25.025-38.804 38.811-48.87 14.004-10.267 35.884-16.157 59.09-22.375 35.502-9.555 75.75-20.369 99.066-52.463 23.025-31.693 20.915-73.233 19.115-109.886-1.237-24.253-2.383-47.139 3.091-64.007 5.093-15.664 19.006-32.878 33.774-51.04C1210.301 730.1 1237 697.24 1237 656.266c-.055-40.865-26.699-73.743-50.233-102.774" fill="url(#h)" opacity=".2" transform="translate(721 -697)"/></g></g></svg>