<svg width="330" height="441" xmlns="http://www.w3.org/2000/svg"><defs><linearGradient x1="21.173%" y1="11.557%" x2="49.351%" y2="90.169%" id="a"><stop stop-color="#14C39A" offset="0%"/><stop stop-color="#82A5AF" offset="24.163%"/><stop stop-color="#F785C4" offset="49.824%"/><stop stop-color="#34D2FB" offset="76.845%"/><stop stop-color="#14C39A" offset="100%"/></linearGradient><linearGradient x1="21.173%" y1="12.032%" x2="49.351%" y2="89.672%" id="b"><stop stop-color="#14C39A" offset="0%"/><stop stop-color="#F785C4" offset="49.824%"/><stop stop-color="#34D2FB" offset="76.845%"/><stop stop-color="#14C39A" offset="100%"/></linearGradient><linearGradient x1="21.173%" y1="11.577%" x2="49.351%" y2="90.147%" id="c"><stop stop-color="#14C39A" offset="0%"/><stop stop-color="#3BD2FA" offset="25.377%"/><stop stop-color="#F785C4" offset="49.824%"/><stop stop-color="#34D2FB" offset="76.845%"/><stop stop-color="#14C39A" offset="100%"/></linearGradient></defs><g fill="none" fill-rule="evenodd" opacity=".7"><path d="M849.796 345.516c-11.82-14.543-22.956-28.283-27.031-40.856-4.382-13.565-3.465-31.89-2.475-51.267 1.441-29.306 3.13-62.511-15.299-87.991-18.617-25.685-50.874-34.359-79.331-42.01-18.53-4.98-36.042-9.74-47.25-17.873-10.99-8.046-20.743-23.159-31.063-39.162-16.1-24.94-34.31-53.224-64.79-63.168-26.565-8.542-58.647 1.591-87.149 12.572-18.384 7.067-35.72 13.697-50.437 13.697-14.702 0-32.038-6.63-50.423-13.697C366.003 4.824 333.92-5.353 307.399 3.19c-30.48 9.944-48.748 38.184-64.833 63.168-10.291 15.96-20.044 31.073-31.034 39.118-11.252 8.221-28.749 12.938-47.279 17.917-28.414 7.651-60.641 16.369-79.288 42.068-18.443 25.378-16.754 58.627-15.299 87.933 1.034 19.435 1.907 37.746-2.43 51.267-4.076 12.529-15.212 26.313-27.032 40.856C21.37 368.72 0 395.046 0 427.813c0 32.723 21.31 59.036 40.16 82.282 11.82 14.543 22.956 28.284 27.017 40.87 4.396 13.551 3.48 31.877 2.49 51.253-1.456 29.307-3.145 62.511 15.298 87.992 18.603 25.7 50.874 34.358 79.332 42.01 18.53 4.979 36.027 9.739 47.235 17.872 10.99 8.046 20.743 23.159 31.077 39.177 16.1 24.94 34.31 53.21 64.79 63.168 26.464 8.498 58.604-1.694 87.149-12.587 18.385-7.023 35.721-13.682 50.423-13.682 14.716 0 32.053 6.63 50.437 13.682 20.7 7.973 42.155 16.15 63.83 16.15 8.195 0 16.04-1.197 23.26-3.563 30.496-9.958 48.75-38.184 64.849-63.168 10.277-15.96 20.03-31.073 31.063-39.133 11.208-8.22 28.72-12.937 47.293-17.917 28.414-7.651 60.627-16.31 79.288-42.01 18.429-25.377 16.74-58.64 15.299-87.99-.99-19.421-1.907-37.747 2.475-51.253 4.075-12.543 15.21-26.328 27.03-40.871C868.632 486.936 890 460.624 890 427.813c-.044-32.723-21.369-59.05-40.204-82.297" fill="url(#a)" opacity=".1" transform="rotate(38 170.308 -388.631)"/><path d="M816.44 351.547c-10.824-13.235-21.021-25.74-24.754-37.18-4.012-12.346-3.172-29.023-2.266-46.656 1.32-26.67 2.866-56.888-14.009-80.076-17.049-23.375-46.587-31.268-72.646-38.231-16.97-4.532-33.005-8.864-43.268-16.265-10.064-7.322-18.995-21.076-28.446-35.64-14.742-22.697-31.418-48.436-59.33-57.486-24.327-7.773-53.705 1.449-79.804 11.442-16.836 6.431-32.711 12.464-46.188 12.464-13.463 0-29.338-6.033-46.173-12.464-26.14-9.953-55.518-19.215-79.805-11.442-27.912 9.05-44.64 34.75-59.37 57.486-9.424 14.524-18.355 28.278-28.419 35.6-10.304 7.481-26.326 11.773-43.294 16.305-26.02 6.963-55.532 14.896-72.607 38.284-16.889 23.095-15.342 53.353-14.01 80.023.947 17.687 1.747 34.35-2.225 46.655-3.733 11.402-13.93 23.946-24.754 37.181-17.248 21.116-36.816 45.075-36.816 74.894 0 29.78 19.515 53.725 36.776 74.88 10.824 13.236 21.021 25.74 24.74 37.195 4.026 12.331 3.186 29.008 2.28 46.642-1.333 26.67-2.88 56.888 14.01 80.076 17.034 23.388 46.586 31.268 72.646 38.231 16.968 4.532 32.99 8.864 43.254 16.265 10.064 7.322 18.995 21.076 28.459 35.653 14.742 22.697 31.418 48.423 59.33 57.486 24.233 7.734 53.665-1.542 79.805-11.455 16.835-6.391 32.71-12.451 46.173-12.451 13.477 0 29.352 6.033 46.188 12.451 18.954 7.256 38.602 14.697 58.45 14.697 7.505 0 14.69-1.09 21.3-3.242 27.926-9.063 44.642-34.75 59.384-57.486 9.41-14.524 18.342-28.278 28.446-35.613 10.263-7.481 26.299-11.773 43.308-16.305 26.019-6.963 55.517-14.843 72.606-38.23 16.875-23.096 15.33-53.367 14.01-80.077-.907-17.673-1.747-34.35 2.265-46.642 3.733-11.415 13.93-23.96 24.754-37.195 17.248-21.075 36.816-45.02 36.816-74.88-.04-29.78-19.568-53.738-36.816-74.894" fill="url(#b)" opacity=".15" transform="rotate(38 170.308 -388.631)"/><path d="M775.382 361.23c-9.668-11.893-18.777-23.129-22.11-33.41-3.584-11.093-2.834-26.079-2.025-41.924 1.18-23.965 2.56-51.119-12.514-71.956-15.228-21.004-41.613-28.096-64.891-34.353-15.157-4.072-29.481-7.965-38.65-14.616-8.989-6.58-16.966-18.938-25.408-32.025-13.169-20.395-28.064-43.525-52.997-51.656-21.73-6.986-47.972 1.301-71.285 10.28-15.039 5.78-29.22 11.201-41.257 11.201-12.026 0-26.207-5.42-41.245-11.2-23.35-8.944-49.591-17.267-71.285-10.281-24.933 8.131-39.876 31.225-53.033 51.656-8.418 13.051-16.395 25.41-25.385 31.99-9.204 6.722-23.516 10.579-38.673 14.65-23.242 6.258-49.603 13.386-64.856 34.402-15.086 20.753-13.705 47.943-12.514 71.908.846 15.893 1.56 30.867-1.988 41.924-3.334 10.245-12.443 21.517-22.111 33.41-15.407 18.975-32.886 40.504-32.886 67.3 0 26.758 17.431 48.276 32.85 67.286 9.669 11.893 18.777 23.129 22.1 33.422 3.595 11.081 2.845 26.067 2.035 41.912-1.19 23.966-2.572 51.119 12.514 71.956 15.217 21.016 41.614 28.097 64.892 34.354 15.157 4.071 29.469 7.964 38.637 14.615 8.99 6.58 16.967 18.938 25.42 32.037 13.17 20.395 28.065 43.513 52.998 51.656 21.646 6.95 47.936-1.385 71.285-10.293 15.038-5.743 29.22-11.188 41.245-11.188 12.038 0 26.218 5.421 41.257 11.188 16.93 6.52 34.481 13.207 52.21 13.207 6.704 0 13.122-.98 19.027-2.914 24.945-8.143 39.876-31.225 53.045-51.656 8.406-13.05 16.383-25.41 25.409-32.001 9.168-6.723 23.492-10.58 38.685-14.651 23.242-6.257 49.591-13.338 64.855-34.354 15.074-20.753 13.693-47.955 12.514-71.956-.81-15.881-1.56-30.867 2.025-41.912 3.333-10.257 12.442-21.53 22.11-33.422 15.408-18.939 32.887-40.456 32.887-67.287-.036-26.76-17.48-48.289-32.887-67.298" fill="url(#c)" opacity=".2" transform="rotate(38 170.308 -388.631)"/></g></svg>