<svg xmlns="http://www.w3.org/2000/svg" viewBox="0 0 100 100" fill="#1dba88"><path d="M44.75 22.629c-2.683.06-5.354.647-7.885 1.762a20.569 20.569 0 0 0-10.953 11.445 20.565 20.565 0 0 0 .35 15.84 20.56 20.56 0 0 0 11.445 10.951 20.69 20.69 0 0 0 7.506 1.418c2.833 0 5.662-.592 8.334-1.768a20.562 20.562 0 0 0 10.951-11.445 20.56 20.56 0 0 0-.35-15.838 20.565 20.565 0 0 0-11.445-10.951 20.643 20.643 0 0 0-7.953-1.414zm18.793.502c-.448 0-.895.17-1.236.512l-.594.593a22.36 22.36 0 0 0-.828-.634 1 1 0 1 0-1.172 1.62 21.345 21.345 0 0 1 6.24 7.065c4.266 7.765 3.538 17.6-1.857 25.057-7.581 10.475-21.885 13.11-31.883 5.875a21.501 21.501 0 0 1-2.438-2.055 1 1 0 1 0-1.398 1.43 23.69 23.69 0 0 0 2.666 2.246c4.167 3.016 9.016 4.46 13.877 4.46.337 0 .675-.015 1.012-.029v2.067c-9.72.07-19.395 2.169-19.395 6.123 0 .029.009.123.012.152a1 1 0 0 0 .996.914h37.771c.505 0 .935-.407.996-.908.005-.04.01-.117.01-.158 0-3.955-9.671-6.053-19.392-6.123v-2.131c7.159-.586 14.14-4.273 18.785-10.693 5.846-8.078 6.628-18.752 1.99-27.19a23.418 23.418 0 0 0-3.418-4.713l.494-.494c.33-.33.513-.77.512-1.238a1.747 1.747 0 0 0-1.75-1.748zm0 1a.749.749 0 0 1 .531 1.28l-.482.482c-.356-.35-.726-.688-1.106-1.016l.528-.527a.744.744 0 0 1 .529-.22zm-18.344.496a18.742 18.742 0 0 1 11.31 3.818c-3.842-.103-7.508.563-10.802 1.909a18.427 18.427 0 0 1-1.182-5.694c.225-.007.45-.033.674-.033zm-1.67.086c.098 2.087.527 4.12 1.26 6.039a22.907 22.907 0 0 0-7.139 5.086l-5.986-5.41a18.664 18.664 0 0 1 6.008-4.207 18.72 18.72 0 0 1 5.857-1.508zm12.701 4.73a28.6 28.6 0 0 1 1.561.07c.15.139.306.272.453.415.716 4.009.545 7.933-.441 11.521a18.275 18.275 0 0 1-6.424-3.3l1.824-2.022a.499.499 0 1 0-.74-.67l-1.861 2.06c-.026-.022-.056-.043-.08-.066a18.29 18.29 0 0 1-4.454-6.162c3.099-1.269 6.546-1.907 10.162-1.846zm.575 1.436a.496.496 0 0 0-.348.16l-.338.363a.5.5 0 1 0 .733.68l.337-.363a.498.498 0 0 0-.027-.705.495.495 0 0 0-.357-.135zm-25.795.305l5.97 5.394a22.872 22.872 0 0 0-4.334 7.617 19.448 19.448 0 0 0-6.14-.64 18.68 18.68 0 0 1 1.271-6.994 18.668 18.668 0 0 1 3.233-5.377zm28.443.037a18.77 18.77 0 0 1 2.865 4.58 18.663 18.663 0 0 1 1.534 6.318 18.49 18.49 0 0 1-5.082-.41c.903-3.288 1.148-6.843.683-10.488zm-14.305.466a19.272 19.272 0 0 0 4.702 6.506l.08.067-4.313 4.771-7.224-6.525a21.887 21.887 0 0 1 6.755-4.819zm10.276.627a.503.503 0 0 0-.35.159l-1.351 1.459a.497.497 0 0 0 .025.705.495.495 0 0 0 .705-.026l1.354-1.459a.497.497 0 0 0-.383-.838zM37.723 37.25l7.224 6.525-4.312 4.774c-.025-.023-.048-.05-.074-.072a19.256 19.256 0 0 0-6.946-4.018 21.87 21.87 0 0 1 4.108-7.209zm12.98 1.645a19.322 19.322 0 0 0 6.815 3.535 21.92 21.92 0 0 1-4.204 7.556l-6.955-6.283 4.344-4.808zm7.793 3.765c1.418.324 2.87.512 4.342.512.354 0 .71-.036 1.066-.055a18.669 18.669 0 0 1-1.27 6.992 18.575 18.575 0 0 1-9.896 10.338 18.716 18.716 0 0 1-5.857 1.502 19.477 19.477 0 0 0-.975-5.28c2.838-1.252 5.378-3.024 7.485-5.267l2.115 1.91a.497.497 0 0 0 .705-.037.499.499 0 0 0-.035-.705l-2.12-1.914a22.948 22.948 0 0 0 4.44-7.996zm-12.809 1.785l6.96 6.285a21.897 21.897 0 0 1-7.096 5.006 19.249 19.249 0 0 0-4.211-6.476l4.347-4.815zm-17.658.086c1.466.037 2.913.246 4.315.621-1.003 3.41-1.293 7.12-.807 10.926a18.694 18.694 0 0 1-3.445-5.209 18.7 18.7 0 0 1-1.533-6.316c.492-.027.982-.034 1.47-.022zm5.282.881a18.239 18.239 0 0 1 6.58 3.807c.026.023.048.049.074.072l-7.21 7.98-.026-.023c-.721-4.128-.501-8.167.582-11.836zm7.359 4.59a18.268 18.268 0 0 1 3.959 6.117c-3.347 1.318-7.092 1.907-11.008 1.684l7.049-7.801zm16.264 3.766a.502.502 0 0 0-.325.867l.875.81a.495.495 0 0 0 .707-.025.498.498 0 0 0-.027-.705l-.875-.813a.49.49 0 0 0-.355-.134zm-11.95 3.287a18.44 18.44 0 0 1 .9 4.966 18.678 18.678 0 0 1-7.452-1.257 18.803 18.803 0 0 1-3.662-1.926c.156.003.313.02.468.02 3.451 0 6.748-.624 9.746-1.803zm1.446 16.28c9.437 0 15.377 1.811 17.254 3.192H29.238c1.941-1.42 7.857-3.191 17.192-3.191z"/></svg>