<svg width="30" height="30" xmlns="http://www.w3.org/2000/svg"><defs><linearGradient x1="49.941%" y1=".144%" x2="49.941%" y2="100.032%" id="a"><stop stop-color="#81B4E0" offset="0%"/><stop stop-color="#0C5A94" offset="100%"/></linearGradient><linearGradient x1="50%" y1=".137%" x2="50%" y2="71.693%" id="b"><stop stop-color="#F06B59" offset="0%"/><stop stop-color="#DF2227" offset="100%"/></linearGradient><linearGradient x1="26.35%" y1="81.958%" x2="49.137%" y2="38.282%" id="c"><stop stop-color="#388B41" offset="0%"/><stop stop-color="#4CB749" offset="100%"/></linearGradient><linearGradient x1="58.397%" y1="85.352%" x2="35.72%" y2="12.208%" id="d"><stop stop-color="#E4B022" offset="0%"/><stop stop-color="#FCD209" offset="30%"/></linearGradient><linearGradient x1="49.999%" y1="96.296%" x2="49.999%" y2="-2.466%" id="e"><stop stop-opacity=".15" offset="0%"/><stop stop-opacity=".06" offset="30%"/><stop stop-opacity=".03" offset="100%"/></linearGradient><linearGradient x1="70.996%" y1="8.54%" x2="28.885%" y2="78.539%" id="f"><stop stop-opacity=".15" offset="0%"/><stop stop-opacity=".06" offset="30%"/><stop stop-opacity=".03" offset="100%"/></linearGradient><linearGradient x1="39.927%" y1="66.916%" x2="47.694%" y2="52.767%" id="g"><stop stop-opacity=".15" offset="0%"/><stop stop-opacity=".06" offset="30%"/><stop stop-opacity=".03" offset="100%"/></linearGradient></defs><g fill="none"><circle fill="#FFF" cx="14.967" cy="15.037" r="14.703"/><path d="M24.324 17.71a9.356 9.356 0 1 0-18.713 0h2.673a6.683 6.683 0 1 1 13.366 0" fill-opacity=".1" fill="#000"/><circle fill-opacity=".1" fill="#000" cx="15.636" cy="16.909" r="5.079"/><circle fill="url(#a)" cx="14.967" cy="15.037" r="5.48"/><path d="M28.333 8.354C24.653.951 15.67-2.068 8.265 1.612a14.968 14.968 0 0 0-5.728 5.005l6.015 10.425a6.683 6.683 0 0 1 6.282-8.688" fill="url(#b)"/><path d="M2.537 6.617c-4.603 6.867-2.768 16.166 4.099 20.77a14.97 14.97 0 0 0 7.128 2.487l6.283-10.693a6.683 6.683 0 0 1-11.495-2.138" fill="url(#c)"/><path d="M13.764 29.874c8.244.623 15.433-5.555 16.056-13.8a14.967 14.967 0 0 0-1.487-7.72h-13.5a6.683 6.683 0 0 1 5.213 10.827" fill="url(#d)"/><path d="M2.537 6.617l6.015 10.425a6.683 6.683 0 0 1 .267-4.544L2.804 6.216" fill="url(#e)"/><path d="M13.764 29.874l6.283-10.693a6.685 6.685 0 0 1-3.877 2.272l-2.673 8.42" fill="url(#f)"/><path d="M28.333 8.354h-13.5a6.683 6.683 0 0 1 5.213 2.54l8.555-2.139" fill="url(#g)"/></g></svg>