<svg width="24" height="24" fill="none" xmlns="http://www.w3.org/2000/svg"><path fill-rule="evenodd" clip-rule="evenodd" d="M22.916 9.862c-.319-.392-.62-.762-.73-1.101-.117-.366-.093-.86-.066-1.383.039-.79.085-1.685-.412-2.373-.502-.692-1.372-.926-2.14-1.132-.5-.135-.972-.263-1.274-.482-.296-.217-.56-.625-.838-1.056C17.022 1.662 16.531.9 15.71.63c-.716-.23-1.581.043-2.35.34-.495.19-.963.369-1.36.369-.396 0-.864-.179-1.36-.37C9.87.676 9.005.401 8.29.631 7.467.9 6.975 1.661 6.541 2.335c-.277.43-.54.838-.837 1.055-.303.221-.775.348-1.275.483-.766.206-1.635.441-2.138 1.134-.497.684-.452 1.58-.412 2.371.028.524.051 1.018-.066 1.383-.11.337-.41.71-.729 1.101C.576 10.488 0 11.198 0 12.082c0 .882.575 1.591 1.083 2.218.319.392.619.763.729 1.102.118.366.093.86.067 1.382-.04.79-.085 1.686.412 2.373.502.693 1.372.926 2.14 1.133.5.134.971.262 1.273.482.297.216.56.624.838 1.056.434.672.925 1.435 1.747 1.703.714.23 1.58-.045 2.35-.34.496-.188.964-.368 1.36-.368.397 0 .865.179 1.36.369.559.215 1.137.435 1.722.435.22 0 .432-.032.627-.096.822-.268 1.314-1.03 1.748-1.703.278-.43.54-.838.838-1.055.302-.222.775-.35 1.276-.483.766-.207 1.634-.44 2.138-1.133.497-.684.451-1.581.412-2.373-.027-.523-.051-1.018.067-1.382.11-.338.41-.71.729-1.102.508-.624 1.084-1.334 1.084-2.219-.001-.882-.576-1.592-1.084-2.219z" fill="#14C39A"/><path d="M17.065 8.811a1.246 1.246 0 0 0-.189-1.749 1.239 1.239 0 0 0-1.746.192L9.955 13.71l-.893-.96a1.24 1.24 0 0 0-1.755-.059 1.247 1.247 0 0 0-.06 1.758l1.872 2.008c.23.241.54.382.866.393h.004l.022.001c.03 0 .057 0 .086-.004a1.23 1.23 0 0 0 .898-.463l6.07-7.573-.212-.17.212.17z" fill="#fff"/></svg>