<svg xmlns="http://www.w3.org/2000/svg" viewBox="0 0 100 100" fill="#1dba88"><path d="M23 18c-2.757 0-5 2.243-5 5v17a1 1 0 1 0 2 0V23c0-1.654 1.346-3 3-3h17a1 1 0 1 0 0-2H23zm37 0a1 1 0 1 0 0 2h17c1.654 0 3 1.346 3 3v17a1 1 0 1 0 2 0V23c0-2.757-2.243-5-5-5H60zm-37 4c-.542 0-1 .458-1 1v5.5a.5.5 0 0 0 1 0V23h15.5a.5.5 0 0 0 0-1H23zm38.5 0a.5.5 0 0 0 0 1h7a.5.5 0 0 0 0-1h-7zm10 0a.5.5 0 0 0 0 1h2a.5.5 0 0 0 0-1h-2zm4 0a.5.5 0 0 0 0 1H77v17.5a.5.5 0 0 0 1 0V23c0-.542-.458-1-1-1h-1.5zm-53 9a.5.5 0 0 0-.5.5v4a.5.5 0 0 0 1 0v-4a.5.5 0 0 0-.5-.5zM35 37a1 1 0 0 0-1 1v5a1 1 0 1 0 2 0v-5a1 1 0 0 0-1-1zm15 0a1 1 0 0 0-1 1v16h-3a1 1 0 1 0 0 2h4a1 1 0 0 0 1-1V38a1 1 0 0 0-1-1zm15 0a1 1 0 0 0-1 1v5a1 1 0 1 0 2 0v-5a1 1 0 0 0-1-1zm-42.5 1a.5.5 0 0 0-.5.5v2a.5.5 0 0 0 1 0v-2a.5.5 0 0 0-.5-.5zM19 59a1 1 0 0 0-1 1v17c0 2.757 2.243 5 5 5h17a1 1 0 1 0 0-2H23c-1.654 0-3-1.346-3-3V60a1 1 0 0 0-1-1zm58.5 0a.5.5 0 0 0-.5.5v1a.5.5 0 0 0 1 0v-1a.5.5 0 0 0-.5-.5zm3.5 0a1 1 0 0 0-1 1v17c0 1.654-1.346 3-3 3H60a1 1 0 1 0 0 2h17c2.757 0 5-2.243 5-5V60a1 1 0 0 0-1-1zm-21.146 3.014a.997.997 0 0 0-1.01.445C58.053 63.691 54.683 65 50 65s-8.05-1.31-8.844-2.541a1.001 1.001 0 0 0-1.682 1.082C40.807 65.61 45.036 67 50 67c4.966 0 9.195-1.391 10.525-3.459a1.001 1.001 0 0 0-.671-1.527zM77.5 63a.5.5 0 0 0-.5.5v3a.5.5 0 0 0 1 0v-3a.5.5 0 0 0-.5-.5zm-55 1a.5.5 0 0 0-.5.5V77c0 .542.458 1 1 1h2.5a.5.5 0 0 0 0-1H23V64.5a.5.5 0 0 0-.5-.5zm55 6a.5.5 0 0 0-.5.5V77H59.5a.5.5 0 0 0 0 1H77c.542 0 1-.458 1-1v-6.5a.5.5 0 0 0-.5-.5zm-48 7a.5.5 0 0 0 0 1h11a.5.5 0 0 0 0-1h-11z"/></svg>