<svg xmlns="http://www.w3.org/2000/svg" viewBox="0 0 50 50" fill="#f8f8f8"><path d="M30.172 2.04c-.4-.03-.81.041-1.19.224L25 4.158l-3.984-1.896h-.002a2.377 2.377 0 0 0-2.909.713v.002L15.457 6.51l-4.412.174h-.002a2.376 2.376 0 0 0-2.238 1.988L8.1 13.029l-3.825 2.207a2.375 2.375 0 0 0-1.064 2.8l1.404 4.189-2.363 3.728a2.371 2.371 0 0 0 .361 2.973L5.8 31.98l-.36 4.4a2.378 2.378 0 0 0 1.698 2.466h.002l4.242 1.222 1.726 4.065v.002a2.368 2.368 0 0 0 2.66 1.388l4.32-.884 3.415 2.795v-.002a2.364 2.364 0 0 0 2.998 0l3.414-2.795 4.32.884a2.367 2.367 0 0 0 2.66-1.39l1.727-4.063 4.24-1.222h.002a2.376 2.376 0 0 0 1.7-2.465l-.36-4.402 3.186-3.055c.81-.776.962-2.027.363-2.973l-2.363-3.728 1.404-4.19v-.002a2.378 2.378 0 0 0-1.064-2.797l-3.827-2.207-.703-4.359v-.002a2.383 2.383 0 0 0-2.242-1.982l-4.412-.174-2.649-3.531a2.368 2.368 0 0 0-1.724-.94zM20.037 3.968a.435.435 0 0 1 .143.04L25 6.304l4.82-2.293h.002a.422.422 0 0 1 .524.13l3.2 4.27 5.333.21c.21.008.373.153.408.364l.85 5.262 4.625 2.668a.425.425 0 0 1 .193.508L43.26 22.48l2.855 4.508a.42.42 0 0 1-.066.537l-3.852 3.694.434 5.318a.414.414 0 0 1-.307.447l-5.127 1.479-2.084 4.91a.419.419 0 0 1-.472.256l-.004-.002-5.237-1.072-4.129 3.379a.412.412 0 0 1-.269.097c-.1 0-.19-.03-.272-.095l-4.128-3.38-5.237 1.073h-.006a.416.416 0 0 1-.47-.258v.004l-2.084-4.912-5.125-1.477a.42.42 0 0 1-.309-.447l.434-5.32-3.852-3.692v-.002a.417.417 0 0 1-.066-.535l2.857-4.508-1.697-5.06a.42.42 0 0 1 .193-.506h.002l4.623-2.668.852-5.268a.419.419 0 0 1 .404-.36l5.332-.21 3.2-4.267a.426.426 0 0 1 .384-.174zM12 21v8h1.42v-5.912L17.393 29H19v-8h-1.42v5.912L13.607 21H12zm9 0v8h6v-1.219h-4.566v-2.62h4.209v-1.13h-4.21v-1.814H27V21h-6zm7 0l2.182 8h1.545l1.818-6.088L35.27 29h1.456L39 21h-1.545l-1.547 6.174L34.271 21h-1.544L31 27.174 29.455 21H28z"/></svg>