<svg xmlns="http://www.w3.org/2000/svg" viewBox="0 0 100 100" fill="#1dba88"><path d="M64 16a1 1 0 0 0-1 1v5H45.5a.5.5 0 0 0-.5.5V46h-9V36a1 1 0 0 0-1-1H17a1 1 0 0 0-1 1v28a1 1 0 0 0 1 1h18a1 1 0 0 0 1-1V54h9v23.5a.5.5 0 0 0 .5.5H63v5a1 1 0 0 0 1 1h18a1 1 0 0 0 1-1V65a1 1 0 0 0-1-1H64a1 1 0 0 0-1 1v5H53V54h10v5a1 1 0 0 0 1 1h18a1 1 0 0 0 1-1V41a1 1 0 0 0-1-1H64a1 1 0 0 0-1 1v5H53V30h10v5a1 1 0 0 0 1 1h18a1 1 0 0 0 1-1V17a1 1 0 0 0-1-1H64zm1 2h16v16H65V18zm-19 5h17v6H52.5a.5.5 0 0 0-.5.5v17a.5.5 0 0 0 .5.5H63v6H52.5a.5.5 0 0 0-.5.5v17a.5.5 0 0 0 .5.5H63v6H46V53.5a.5.5 0 0 0-.5-.5H36v-6h9.5a.5.5 0 0 0 .5-.5V23zm2.5 2a.5.5 0 0 0-.5.5v17a.5.5 0 0 0 1 0V26h3.5a.5.5 0 0 0 0-1h-4zm7 0a.5.5 0 0 0 0 1h2a.5.5 0 0 0 0-1h-2zm4 0a.5.5 0 0 0 0 1h1a.5.5 0 0 0 0-1h-1zM18 37h16v26H18V37zm2.5 2a.5.5 0 0 0-.5.5v4a.5.5 0 0 0 1 0V40h10v2.5a.5.5 0 0 0 1 0v-3a.5.5 0 0 0-.5-.5h-11zM65 42h16v16H65V42zm-44.5 3a.5.5 0 0 0-.5.5v1a.5.5 0 0 0 1 0v-1a.5.5 0 0 0-.5-.5zm0 3a.5.5 0 0 0-.5.5v2a.5.5 0 0 0 1 0v-2a.5.5 0 0 0-.5-.5zm0 5a.5.5 0 0 0-.5.5v7a.5.5 0 0 0 .5.5h7a.5.5 0 0 0 0-1H21v-6.5a.5.5 0 0 0-.5-.5zm28 4a.5.5 0 0 0-.5.5v4a.5.5 0 0 0 1 0v-4a.5.5 0 0 0-.5-.5zm0 8a.5.5 0 0 0-.5.5v9a.5.5 0 0 0 1 0v-9a.5.5 0 0 0-.5-.5zM65 66h16v16H65V66zm3.5 2a.5.5 0 0 0 0 1h3a.5.5 0 0 0 0-1h-3zm6 0a.5.5 0 0 0 0 1H78v9.5a.5.5 0 0 0 1 0v-10a.5.5 0 0 0-.5-.5h-4z"/></svg>