<svg xmlns="http://www.w3.org/2000/svg" viewBox="0 0 100 100" fill="#1dba88"><path style="line-height:normal;text-indent:0;text-align:start;text-decoration-line:none;text-decoration-style:solid;text-decoration-color:#000;text-transform:none;block-progression:tb;isolation:auto;mix-blend-mode:normal" d="M49 15c-6.063 0-11 4.937-11 11 0 5.633 5.011 11.181 9.834 15.496 4.823 4.315 9.633 7.35 9.633 7.35a1 1 0 0 0 1.066 0s4.81-3.035 9.633-7.35C72.989 37.181 78 31.633 78 26c0-6.063-4.937-11-11-11-3.774 0-7.02 1.972-9 4.877C56.02 16.972 52.774 15 49 15zm0 2c3.578 0 6.644 2.084 8.1 5.098a1 1 0 0 0 1.8 0C60.356 19.084 63.422 17 67 17c4.983 0 9 4.017 9 9 0 4.367-4.489 9.819-9.166 14.004-4.252 3.804-8.093 6.308-8.834 6.785-.74-.477-4.582-2.981-8.834-6.785C44.489 35.819 40 30.367 40 26c0-4.983 4.017-9 9-9zm21.73 5.994a.5.5 0 0 0-.408.785c.428.638.678 1.398.678 2.221 0 .624-.227 1.405-.662 2.277a.5.5 0 1 0 .894.446c.479-.958.768-1.867.768-2.723a4.983 4.983 0 0 0-.848-2.78.5.5 0 0 0-.422-.226zm-1.95 8a.5.5 0 0 0-.376.194c-2.057 2.58-5.102 5.411-8.215 7.876a.5.5 0 1 0 .622.784c3.155-2.5 6.242-5.36 8.377-8.035a.5.5 0 0 0-.409-.819zM28.976 47.97c-2.942 0-5.83.547-8.573 1.629l-8.771 3.465a1 1 0 0 0 .734 1.86l8.772-3.464a21.258 21.258 0 0 1 7.838-1.49h.03a21.19 21.19 0 0 1 8.923 1.967l.18.087 18.447 9.475c.084.044.16.087.234.13a1 1 0 0 0 .111.073c1.954 1.234 2.663 3.79 1.602 5.856a4.48 4.48 0 0 1-4.008 2.445c-.72 0-1.405-.166-2.06-.502l-.004-.002-8.711-4.289a.5.5 0 1 0-.442.898l8.701 4.282c.79.405 1.64.613 2.516.613a5.485 5.485 0 0 0 3.031-.92l3.178 1.906a.5.5 0 0 0 .453.032l20.028-8.586a.5.5 0 0 0 .027-.012c.458-.23.968-.349 1.514-.383a1 1 0 0 0 .439-.027 3.983 3.983 0 0 1 3.412 2.199 3.985 3.985 0 0 1-1.789 5.367l-24 12a3.993 3.993 0 0 1-3.451.06l-.002-.001-32.303-14.721-13.392 5.15a1 1 0 1 0 .718 1.868l12.608-4.85 31.537 14.371a5.99 5.99 0 0 0 5.18-.09v.002l24-12c2.953-1.477 4.16-5.097 2.683-8.05a6.002 6.002 0 0 0-4.71-3.28 5.154 5.154 0 0 0-.29-.72c-1.169-2.338-3.673-3.491-6.135-3.172-1.144-2.09-3.359-3.273-5.62-3.131a5.943 5.943 0 0 0-2.296.62l.053-.025-11.908 5.104-18.455-9.479-.229-.111-.01-.004a23.227 23.227 0 0 0-9.757-2.15h-.033zm43.244 8.05c1.112.083 2.161.651 2.879 1.577l-5.608 1.6h4.71l-14.23 6.1a5.523 5.523 0 0 0-1.675-3.765l11.889-5.095.025-.014a3.83 3.83 0 0 1 2.01-.402zm5.875 3.137c1.428.005 2.795.68 3.482 2.055.14.28.232.588.305.928-.39.085-.766.211-1.12.388L61 71l-2.646-1.588c.41-.404.766-.869 1.039-1.398a5.404 5.404 0 0 0 .505-1.6l16.3-6.986.013-.006a4.13 4.13 0 0 1 .598-.227h.673c.205-.026.41-.04.614-.039zm-38.617 4.03a.5.5 0 0 0-.2.95l2 .985a.5.5 0 1 0 .442-.896l-2-.985a.5.5 0 0 0-.242-.054z"/></svg>